<svg width="40" height="40" viewBox="0 0 40 40" fill="none" xmlns="http://www.w3.org/2000/svg">
<g clip-path="url(#clip0_292_1761)">
<rect width="40" height="40" rx="3" fill="black"/>
<rect x="3" y="6" width="31" height="29" rx="3" fill="white"/>
<path d="M19.8787 -5.99993C13.0041 -5.96785 6.42201 -3.21442 1.57228 1.65805C-3.27746 6.53052 -6.00007 13.1254 -6 20C-6 26.8957 -3.26072 33.5088 1.61522 38.3848C6.49117 43.2607 13.1044 46 20 46C26.8956 46 33.5088 43.2607 38.3848 38.3848C43.2607 33.5088 46 26.8957 46 20C46 13.1044 43.2607 6.49122 38.3848 1.61528C33.5088 -3.26066 26.8956 -5.99993 20 -5.99993C19.9596 -6.00002 19.9191 -6.00002 19.8787 -5.99993V-5.99993ZM30.6297 9.65205C30.8463 9.64772 31.3252 9.70188 31.6372 9.95538C31.8445 10.1354 31.9767 10.3867 32.0077 10.6595C32.0423 10.861 32.0857 11.3225 32.051 11.6822C31.661 15.7945 29.9667 25.7699 29.1043 30.374C28.7403 32.324 28.0232 32.9762 27.3277 33.039C25.8197 33.1798 24.6735 32.0423 23.211 31.0847C20.923 29.5832 19.6295 28.6494 17.4087 27.1847C14.8412 25.4947 16.5052 24.563 17.9677 23.0464C18.3512 22.6477 25.0028 16.5962 25.1328 16.048C25.148 15.9787 25.1632 15.723 25.0115 15.5887C24.8598 15.4544 24.6345 15.4999 24.472 15.5367C24.2423 15.5887 20.5872 18.0067 13.5065 22.7842C12.4665 23.4992 11.5283 23.8459 10.6855 23.8242C9.75817 23.8069 7.97283 23.302 6.64467 22.8709C5.01533 22.34 3.72183 22.0605 3.8345 21.1614C3.893 20.6934 4.53867 20.2145 5.76933 19.7249C13.3483 16.4229 18.401 14.2454 20.9317 13.1945C28.151 10.1915 29.6525 9.66938 30.6297 9.65205V9.65205Z" fill="black"/>
</g>
<defs>
<clipPath id="clip0_292_1761">
<rect width="40" height="40" fill="white"/>
</clipPath>
</defs>
</svg>
