<svg width="40" height="40" viewBox="0 0 40 40" fill="none" xmlns="http://www.w3.org/2000/svg">
<rect width="40" height="40" rx="3" fill="black"/>
<path d="M35.9373 10.097C34.7393 10.6243 33.4701 10.9723 32.1707 11.13C33.5388 10.3079 34.5632 9.01873 35.0547 7.50051C33.7867 8.24026 32.3813 8.77875 30.8853 9.07865C29.8983 8.02357 28.5905 7.32379 27.1649 7.08798C25.7392 6.85216 24.2756 7.09351 23.0012 7.77454C21.7269 8.45556 20.7131 9.53816 20.1174 10.8542C19.5217 12.1703 19.3773 13.6461 19.7067 15.0527C14.2533 14.7954 9.42267 12.1763 6.18667 8.22027C5.59839 9.21968 5.29155 10.3596 5.29867 11.5192C5.29867 13.7984 6.45867 15.8017 8.216 16.9787C7.17448 16.9455 6.15596 16.664 5.24533 16.1576V16.2376C5.24474 17.7523 5.76836 19.2205 6.72734 20.3932C7.68633 21.5659 9.02162 22.3708 10.5067 22.6714C9.5444 22.9292 8.53655 22.9679 7.55733 22.7847C7.97883 24.0883 8.79688 25.2278 9.89735 26.0443C10.9978 26.8608 12.3258 27.3135 13.696 27.3392C11.3754 29.1599 8.50997 30.148 5.56 30.1449C5.04 30.1449 4.52133 30.1143 4 30.0556C7.00761 31.9808 10.5047 33.0027 14.076 33C26.1467 33 32.74 23.0087 32.74 14.3596C32.74 14.0796 32.74 13.7997 32.72 13.5198C34.008 12.5933 35.119 11.4429 36 10.1236L35.9373 10.097Z" fill="white"/>
</svg>
