<?xml version="1.0" encoding="UTF-8" standalone="no"?>
<svg
   width="320"
   height="320"
   fill="none"
   viewBox="0 0 100 100"
   version="1.1"
   id="svg414"
   sodipodi:docname="logo_blck.min.svg"
   inkscape:version="1.2.2 (b0a84865, 2022-12-01)"
   xmlns:inkscape="http://www.inkscape.org/namespaces/inkscape"
   xmlns:sodipodi="http://sodipodi.sourceforge.net/DTD/sodipodi-0.dtd"
   xmlns="http://www.w3.org/2000/svg"
   xmlns:svg="http://www.w3.org/2000/svg">
  <sodipodi:namedview
     id="namedview416"
     pagecolor="#ffffff"
     bordercolor="#000000"
     borderopacity="0.25"
     inkscape:showpageshadow="2"
     inkscape:pageopacity="0.0"
     inkscape:pagecheckerboard="0"
     inkscape:deskcolor="#d1d1d1"
     showgrid="true"
     inkscape:zoom="2.682873"
     inkscape:cx="206.86779"
     inkscape:cy="159.15774"
     inkscape:window-width="1710"
     inkscape:window-height="1070"
     inkscape:window-x="0"
     inkscape:window-y="42"
     inkscape:window-maximized="0"
     inkscape:current-layer="svg414">
    <inkscape:grid
       type="xygrid"
       id="grid472" />
  </sodipodi:namedview>
  <g
     fill="#000000"
     class="prefix__color000 prefix__svgShape"
     clip-path="url(#prefix__a)"
     id="g407"
     transform="matrix(0.88722482,0,0,0.86478868,5.5422413,7.0615467)">
    <path
       fill="#70bbff"
       d="m 40.356,65.772 c -4.85,-0.87 -9.063,-3.308 -12.676,-7.335 -7.865,-8.767 -7.523,-22.181 0.782,-30.753 11.54,-11.908 31.214,-7.23 36.52,8.684 5.283,15.848 -8.494,32.298 -24.626,29.404 z"
       class="prefix__color51B7C3 prefix__svgShape"
       id="path401" />
    <path
       fill="#fcd844"
       fill-opacity="0.627"
       d="m 51.215,65.772 c -4.85,-0.87 -9.063,-3.308 -12.676,-7.335 -7.865,-8.767 -7.524,-22.181 0.782,-30.753 11.54,-11.908 31.214,-7.23 36.52,8.684 5.283,15.848 -8.494,32.298 -24.626,29.404 z"
       class="prefix__color70D6E3 prefix__svgShape"
       id="path403" />
    <path
       d="m 10.838,74.91 h 1.62 C 12.434,74.202 12.296,73.596 12.044,73.092 A 3.417,3.417 0 0 0 11.036,71.814 4.068,4.068 0 0 0 9.56,71.076 6.867,6.867 0 0 0 7.724,70.842 c -0.588,0 -1.164,0.078 -1.728,0.234 A 4.588,4.588 0 0 0 4.502,71.76 c -0.432,0.3 -0.78,0.69 -1.044,1.17 -0.264,0.468 -0.396,1.026 -0.396,1.674 0,0.588 0.114,1.08 0.342,1.476 0.24,0.384 0.552,0.702 0.936,0.954 0.396,0.24 0.84,0.438 1.332,0.594 0.492,0.144 0.99,0.276 1.494,0.396 0.516,0.108 1.02,0.216 1.512,0.324 0.492,0.108 0.93,0.252 1.314,0.432 0.396,0.168 0.708,0.39 0.936,0.666 0.24,0.276 0.36,0.636 0.36,1.08 0,0.468 -0.096,0.852 -0.288,1.152 -0.192,0.3 -0.444,0.54 -0.756,0.72 a 3.574,3.574 0 0 1 -1.062,0.36 6.239,6.239 0 0 1 -1.152,0.108 c -0.48,0 -0.948,-0.06 -1.404,-0.18 A 3.593,3.593 0 0 1 5.42,82.128 3.035,3.035 0 0 1 4.592,81.174 C 4.388,80.778 4.286,80.31 4.286,79.77 h -1.62 c 0,0.78 0.138,1.458 0.414,2.034 a 4.119,4.119 0 0 0 1.152,1.404 c 0.492,0.36 1.056,0.63 1.692,0.81 a 7.634,7.634 0 0 0 3.816,0.054 c 0.6,-0.132 1.14,-0.348 1.62,-0.648 0.48,-0.312 0.87,-0.708 1.17,-1.188 0.312,-0.492 0.468,-1.08 0.468,-1.764 0,-0.636 -0.12,-1.164 -0.36,-1.584 A 3.004,3.004 0 0 0 11.702,77.844 4.631,4.631 0 0 0 10.388,77.196 15.636,15.636 0 0 0 8.876,76.764 37.254,37.254 0 0 0 7.382,76.44 8.772,8.772 0 0 1 6.05,76.044 2.787,2.787 0 0 1 5.114,75.45 C 4.886,75.198 4.772,74.874 4.772,74.478 4.772,74.058 4.85,73.71 5.006,73.434 5.174,73.146 5.39,72.918 5.654,72.75 5.93,72.582 6.242,72.462 6.59,72.39 a 5.228,5.228 0 0 1 1.062,-0.108 c 0.888,0 1.614,0.21 2.178,0.63 0.576,0.408 0.912,1.074 1.008,1.998 z m 5.606,-1.89 v -1.872 h -1.53 v 1.872 z m -1.53,1.674 V 84 h 1.53 v -9.306 z m 3.9,0 V 84 h 1.53 v -5.796 c 0,-0.18 0.042,-0.402 0.126,-0.666 0.096,-0.276 0.24,-0.54 0.432,-0.792 0.204,-0.252 0.462,-0.468 0.774,-0.648 0.324,-0.18 0.708,-0.27 1.152,-0.27 0.348,0 0.63,0.054 0.846,0.162 0.228,0.096 0.408,0.24 0.54,0.432 0.132,0.18 0.222,0.396 0.27,0.648 0.06,0.252 0.09,0.528 0.09,0.828 V 84 h 1.53 v -5.796 c 0,-0.72 0.216,-1.296 0.648,-1.728 0.432,-0.432 1.026,-0.648 1.782,-0.648 0.372,0 0.672,0.054 0.9,0.162 0.24,0.108 0.426,0.258 0.558,0.45 0.132,0.18 0.222,0.396 0.27,0.648 0.048,0.252 0.072,0.522 0.072,0.81 V 84 h 1.53 v -6.822 c 0,-0.48 -0.078,-0.888 -0.234,-1.224 A 2.042,2.042 0 0 0 31,75.108 2.448,2.448 0 0 0 30.028,74.64 a 4.519,4.519 0 0 0 -1.26,-0.162 3.53,3.53 0 0 0 -1.692,0.414 3.268,3.268 0 0 0 -1.224,1.17 c -0.192,-0.576 -0.522,-0.984 -0.99,-1.224 -0.468,-0.24 -0.99,-0.36 -1.566,-0.36 -1.308,0 -2.31,0.528 -3.006,1.584 h -0.036 v -1.368 z m 15.4,0 v 12.852 h 1.53 v -4.788 h 0.036 c 0.168,0.276 0.372,0.51 0.612,0.702 0.252,0.18 0.516,0.324 0.792,0.432 0.276,0.108 0.552,0.186 0.828,0.234 0.288,0.048 0.546,0.072 0.774,0.072 0.708,0 1.326,-0.126 1.854,-0.378 0.54,-0.252 0.984,-0.594 1.332,-1.026 0.36,-0.444 0.624,-0.96 0.792,-1.548 0.18,-0.588 0.27,-1.212 0.27,-1.872 0,-0.66 -0.09,-1.284 -0.27,-1.872 a 4.538,4.538 0 0 0 -0.81,-1.548 3.68,3.68 0 0 0 -1.332,-1.08 C 40.094,74.61 39.47,74.478 38.75,74.478 c -0.648,0 -1.242,0.12 -1.782,0.36 -0.54,0.228 -0.936,0.6 -1.188,1.116 h -0.036 v -1.26 z m 7.2,4.572 c 0,0.456 -0.048,0.9 -0.144,1.332 a 3.524,3.524 0 0 1 -0.468,1.152 2.437,2.437 0 0 1 -0.864,0.81 c -0.348,0.204 -0.786,0.306 -1.314,0.306 -0.528,0 -0.978,-0.096 -1.35,-0.288 A 2.8,2.8 0 0 1 36.356,81.786 3.383,3.383 0 0 1 35.852,80.67 5.471,5.471 0 0 1 35.69,79.338 c 0,-0.432 0.048,-0.858 0.144,-1.278 0.108,-0.42 0.276,-0.792 0.504,-1.116 0.228,-0.336 0.522,-0.606 0.882,-0.81 0.36,-0.204 0.798,-0.306 1.314,-0.306 0.492,0 0.918,0.096 1.278,0.288 0.372,0.192 0.672,0.45 0.9,0.774 0.24,0.324 0.414,0.696 0.522,1.116 0.12,0.408 0.18,0.828 0.18,1.26 z M 44.92,71.148 V 84 h 1.53 V 71.148 Z m 10.362,7.308 h -5.346 c 0.024,-0.36 0.102,-0.696 0.234,-1.008 0.132,-0.324 0.312,-0.606 0.54,-0.846 0.228,-0.24 0.498,-0.426 0.81,-0.558 a 2.63,2.63 0 0 1 1.08,-0.216 c 0.384,0 0.732,0.072 1.044,0.216 0.324,0.132 0.6,0.318 0.828,0.558 0.24,0.228 0.426,0.504 0.558,0.828 0.144,0.324 0.228,0.666 0.252,1.026 z m 1.476,2.592 h -1.512 c -0.132,0.612 -0.408,1.068 -0.828,1.368 -0.408,0.3 -0.936,0.45 -1.584,0.45 -0.504,0 -0.942,-0.084 -1.314,-0.252 a 2.628,2.628 0 0 1 -0.918,-0.666 2.727,2.727 0 0 1 -0.522,-0.972 3.773,3.773 0 0 1 -0.144,-1.17 h 6.966 A 7.14,7.14 0 0 0 56.74,78.024 4.919,4.919 0 0 0 56.056,76.296 3.88,3.88 0 0 0 54.742,75 c -0.54,-0.348 -1.224,-0.522 -2.052,-0.522 -0.636,0 -1.224,0.12 -1.764,0.36 -0.528,0.24 -0.99,0.576 -1.386,1.008 a 4.73,4.73 0 0 0 -0.9,1.53 5.6,5.6 0 0 0 -0.324,1.944 7.72,7.72 0 0 0 0.306,1.962 c 0.192,0.6 0.474,1.116 0.846,1.548 0.372,0.432 0.828,0.768 1.368,1.008 0.552,0.24 1.2,0.36 1.944,0.36 1.056,0 1.932,-0.264 2.628,-0.792 0.696,-0.528 1.146,-1.314 1.35,-2.358 z m 1.37,-5.292 h 1.53 a 4.49,4.49 0 0 1 0.108,-1.134 c 0.096,-0.384 0.246,-0.726 0.45,-1.026 0.204,-0.3 0.462,-0.54 0.774,-0.72 0.324,-0.192 0.708,-0.288 1.152,-0.288 0.336,0 0.654,0.054 0.954,0.162 0.3,0.108 0.558,0.264 0.774,0.468 0.228,0.204 0.408,0.45 0.54,0.738 0.132,0.276 0.198,0.588 0.198,0.936 0,0.444 -0.072,0.834 -0.216,1.17 a 2.866,2.866 0 0 1 -0.612,0.936 c -0.264,0.288 -0.6,0.576 -1.008,0.864 A 44.9,44.9 0 0 1 61.35,78.78 c -0.444,0.264 -0.87,0.546 -1.278,0.846 -0.408,0.3 -0.774,0.648 -1.098,1.044 a 5.317,5.317 0 0 0 -0.81,1.404 C 57.96,82.602 57.828,83.244 57.768,84 h 8.334 V 82.65 H 59.55 A 2.41,2.41 0 0 1 60,81.606 c 0.24,-0.312 0.522,-0.6 0.846,-0.864 0.336,-0.264 0.702,-0.51 1.098,-0.738 l 1.188,-0.72 c 0.396,-0.252 0.78,-0.516 1.152,-0.792 0.372,-0.276 0.702,-0.582 0.99,-0.918 0.288,-0.348 0.516,-0.738 0.684,-1.17 0.18,-0.432 0.27,-0.93 0.27,-1.494 0,-0.6 -0.108,-1.128 -0.324,-1.584 A 3.096,3.096 0 0 0 65.058,72.192 3.575,3.575 0 0 0 63.78,71.49 4.654,4.654 0 0 0 62.232,71.238 c -0.672,0 -1.272,0.114 -1.8,0.342 A 3.71,3.71 0 0 0 59.1,72.534 c -0.348,0.396 -0.606,0.87 -0.774,1.422 a 5.16,5.16 0 0 0 -0.198,1.8 z m 12.324,0.918 v -4.086 h 3.42 c 0.372,0 0.72,0.024 1.044,0.072 0.336,0.036 0.63,0.126 0.882,0.27 0.252,0.144 0.45,0.348 0.594,0.612 0.144,0.264 0.216,0.624 0.216,1.08 0,0.684 -0.216,1.2 -0.648,1.548 -0.42,0.336 -1.116,0.504 -2.088,0.504 z m -1.71,-5.526 V 84 h 6.21 c 0.636,0 1.194,-0.102 1.674,-0.306 0.492,-0.216 0.9,-0.492 1.224,-0.828 0.336,-0.348 0.588,-0.744 0.756,-1.188 0.168,-0.444 0.252,-0.9 0.252,-1.368 0,-0.792 -0.21,-1.464 -0.63,-2.016 -0.42,-0.552 -1.026,-0.912 -1.818,-1.08 v -0.036 c 0.612,-0.24 1.08,-0.606 1.404,-1.098 0.336,-0.504 0.504,-1.098 0.504,-1.782 0,-0.648 -0.15,-1.194 -0.45,-1.638 A 3.264,3.264 0 0 0 76.806,71.616 2.198,2.198 0 0 0 76.104,71.346 5.972,5.972 0 0 0 75.24,71.22 8.317,8.317 0 0 0 74.286,71.166 23.013,23.013 0 0 0 73.404,71.148 Z m 1.71,11.412 v -4.446 h 3.906 c 0.36,0 0.708,0.036 1.044,0.108 0.336,0.06 0.63,0.174 0.882,0.342 0.264,0.156 0.474,0.372 0.63,0.648 0.156,0.276 0.234,0.624 0.234,1.044 0,0.72 -0.216,1.284 -0.648,1.692 -0.42,0.408 -1.008,0.612 -1.764,0.612 z m 10.882,3.018 h 4.736 c 3.848,-5.081 6.734,-10.557 8.658,-16.428 1.973,-5.92 2.96,-11.79 2.96,-17.612 0,-3.256 -0.271,-6.364 -0.814,-9.324 A 52.258,52.258 0 0 0 94.506,33.556 59.479,59.479 0 0 0 90.88,25.194 102.529,102.529 0 0 0 86.07,16.906 h -4.736 c 3.453,5.673 5.92,11.322 7.4,16.946 1.53,5.575 2.294,11.47 2.294,17.686 0,6.019 -0.74,11.815 -2.22,17.39 -1.48,5.525 -3.971,11.075 -7.474,16.65 z"
       class="prefix__color000 prefix__svgShape"
       id="path405" />
  </g>
  <defs
     id="defs412">
    <clipPath
       id="prefix__a">
      <path
         fill="#fff"
         class="prefix__colorfff prefix__svgShape"
         d="M0 0h100v100H0z"
         id="path409" />
    </clipPath>
  </defs>
</svg>
