<?xml version="1.0" encoding="UTF-8" standalone="no"?>
<svg
   width="1024"
   height="576"
   fill="none"
   version="1.1"
   id="svg2162"
   sodipodi:docname="banner.svg"
   inkscape:version="1.2.2 (b0a84865, 2022-12-01)"
   xmlns:inkscape="http://www.inkscape.org/namespaces/inkscape"
   xmlns:sodipodi="http://sodipodi.sourceforge.net/DTD/sodipodi-0.dtd"
   xmlns="http://www.w3.org/2000/svg"
   xmlns:svg="http://www.w3.org/2000/svg">
  <sodipodi:namedview
     id="namedview2164"
     pagecolor="#ffffff"
     bordercolor="#000000"
     borderopacity="0.25"
     inkscape:showpageshadow="2"
     inkscape:pageopacity="0.0"
     inkscape:pagecheckerboard="0"
     inkscape:deskcolor="#d1d1d1"
     showgrid="false"
     inkscape:zoom="1.3507899"
     inkscape:cx="577.4399"
     inkscape:cy="307.96794"
     inkscape:window-width="1710"
     inkscape:window-height="1070"
     inkscape:window-x="0"
     inkscape:window-y="42"
     inkscape:window-maximized="0"
     inkscape:current-layer="svg2162" />
  <path
     d="M 793.29096,-2.9223798e-8 C 800.95199,37.470046 778.36826,65.978715 778.36826,65.978715 763.45511,36.596194 793.29096,-2.9223798e-8 793.29096,-2.9223798e-8 Z M 791.69511,111.43072 c -25.68951,-0.68911 -42.95904,-16.997588 -42.95904,-16.997588 20.8765,-4.402975 42.95904,16.997588 42.95904,16.997588 z M 738.56273,90.904008 c -5.16304,-27.602562 12.0874,-49.850585 12.0874,-49.850585 10.70158,21.324321 -12.0874,49.850585 -12.0874,49.850585 z m 67.44729,-35.175453 c 0.3198,0.431061 -17.95688,11.943614 -40.792,25.696511 -22.83512,13.752896 -41.62731,24.560204 -41.93598,24.129144 -0.30708,-0.43252 18.00302,-11.945078 40.80473,-25.708235 22.8017,-13.76316 41.61617,-24.549947 41.92325,-24.118886 z"
     fill="#92ce91"
     id="path1878"
     style="stroke-width:1.52736" />
  <path
     d="m 855.33813,16.12813 c 0,0 -17.00064,39.96844 -58.86979,43.985811 0,0 13.9776,-34.281075 58.86979,-43.985811 z m -7.95537,62.188605 c 0,0 -39.99328,22.594045 -76.37163,3.372246 0.0334,0 33.85968,-19.69538 76.37163,-3.372246 z"
     fill="#92ce91"
     id="path1880"
     style="stroke-width:1.52736" />
  <path
     d="m 460.73786,210.89391 a 51.624039,47.57212 0 0 1 12.60769,-5.02318 l 2.64914,-11.58293 21.08652,-0.34162 3.02941,11.41285 a 51.694046,47.636633 0 0 1 12.79384,4.64051 l 10.65861,-6.43953 15.16932,13.50218 -6.60296,10.04489 a 51.631994,47.579451 0 0 1 5.44784,11.62399 l 12.52176,2.39136 0.37072,19.43879 -12.35788,2.79164 a 51.130806,47.1176 0 0 1 -5.07871,11.83511 l 6.98641,9.82497 -14.64744,13.98309 -10.89728,-6.08764 a 52.085451,47.997316 0 0 1 -12.60927,5.02318 l -2.59346,11.50229 -21.08652,0.34162 -3.031,-11.41285 a 51.571534,47.523736 0 0 1 -12.79384,-4.6405 l -10.65702,6.43952 -15.17091,-13.50218 6.60456,-10.04489 a 51.751325,47.689416 0 0 1 -5.44944,-11.62398 l -12.47721,-2.39137 -0.43596,-19.44759 12.38016,-2.7931 a 51.55085,47.504675 0 0 1 5.05644,-11.79406 l -6.98641,-9.82496 14.61403,-13.98456 z m 11.23459,25.88859 a 22.63305,20.856605 0 0 0 16.66492,35.34259 22.621913,20.846342 0 0 0 20.65535,-13.20894 22.634642,20.858071 0 0 0 -21.40952,-28.49987 22.618731,20.843409 0 0 0 -15.8662,6.3149 z"
     fill="#2e2e2e"
     id="path1882"
     style="stroke-width:1.52736" />
  <path
     d="m 154.2191,147.52046 a 63.299352,58.331049 0 0 1 15.48435,-6.19614 l 3.18851,-14.12824 25.90907,-0.4208 3.72153,14.03734 a 63.22298,58.260672 0 0 1 15.68005,5.67564 l 13.05796,-7.91159 18.71741,16.61491 -8.11767,12.33216 a 63.308898,58.339846 0 0 1 6.72389,14.26899 l 15.32206,2.91773 0.45664,23.86377 -15.23455,3.43969 a 63.315263,58.345711 0 0 1 -6.17974,14.47866 l 8.58544,12.03159 -17.99824,17.17645 -13.38572,-7.48052 a 63.693939,58.694665 0 0 1 -15.45094,6.23719 l -3.19806,14.12824 -25.89952,0.41054 -3.73267,-14.03734 a 63.608021,58.615491 0 0 1 -15.69118,-5.67564 l -13.05796,7.91159 -18.69514,-16.58412 8.11766,-12.33362 a 63.730533,58.728388 0 0 1 -6.73502,-14.26753 l -15.3332,-2.93826 -0.4455,-23.87403 15.23455,-3.42942 a 63.671664,58.674139 0 0 1 6.19088,-14.48893 l -8.58545,-12.03159 17.96643,-17.20578 z m 13.80895,31.79587 a 27.786544,25.605606 0 0 0 20.47395,43.39494 27.791318,25.610005 0 1 0 -20.47395,-43.39494 z"
     fill="#fcb05c"
     id="path1884"
     style="stroke-width:1.52736" />
  <path
     d="m 835.62626,440.20598 a 57.003466,52.529321 0 0 1 13.88213,-5.56421 l 2.86076,-12.66498 23.22652,-0.38121 3.33967,12.57408 a 57.019376,52.543983 0 0 1 14.14307,5.10382 l 11.73736,-7.08905 16.69993,14.87014 -7.26803,11.03017 a 56.530916,52.093861 0 0 1 6.02699,12.80574 l 13.75167,2.63768 0.40254,21.39763 -13.63074,3.08927 a 56.739347,52.285933 0 0 1 -5.53854,13.0154 l 7.61648,10.81905 -16.10168,15.40236 -11.96648,-6.70784 a 57.052789,52.574773 0 0 1 -13.89328,5.56421 l -2.86075,12.66498 -23.22652,0.38121 -3.37149,-12.55502 a 56.99551,52.52199 0 0 1 -14.14307,-5.10382 l -11.68486,7.10958 -16.70948,-14.87014 7.27758,-11.03017 a 57.097339,52.615826 0 0 1 -6.03654,-12.80574 l -13.74053,-2.63622 -0.41368,-21.39909 13.64189,-3.08781 a 57.103703,52.621691 0 0 1 5.52739,-13.05645 l -7.69126,-10.81904 16.13351,-15.40237 11.96648,6.70784 z m 12.38016,28.51893 a 24.908289,22.953262 0 0 0 -6.59183,11.86591 24.911471,22.956194 0 0 0 11.04047,23.39751 24.921017,22.964992 0 0 0 13.91237,3.64496 24.921017,22.964992 0 1 0 -10.3754,-44.01953 24.892378,22.9386 0 0 0 -7.98561,5.11115 z"
     fill="#fc81b3"
     id="path1886"
     style="stroke-width:1.52736" />
  <path
     d="m 208.11261,516.81164 c -8.89411,-36.98767 12.07308,-65.97871 12.07308,-65.97871 15.73096,28.72126 -12.07308,65.97871 -12.07308,65.97871 z m -2.19886,-111.43072 c 25.33469,-0.11876 42.95903,15.34519 42.95903,15.34519 -20.40554,4.97186 -42.95903,-15.34519 -42.95903,-15.34519 z m 54.32727,19.06052 c 5.98562,27.27853 -9.71829,49.85059 -9.71829,49.85059 -11.05639,-20.86687 9.71829,-49.85059 9.71829,-49.85059 z m -67.05111,36.64311 c -0.33094,-0.43546 17.55911,-12.58727 39.97259,-27.1583 22.41189,-14.5725 40.8095,-26.02641 41.16272,-25.60121 0.35322,0.4252 -17.55911,12.57701 -39.9726,27.14951 -22.41188,14.57103 -40.83176,26.0352 -41.16271,25.61 z"
     fill="#92ce91"
     id="path1888"
     style="stroke-width:1.52736" />
  <path
     d="m 134.34826,504.37063 c 0,0 17.05734,-48.98192 63.04565,-55.44077 0,0.0364 -13.9646,42.03103 -63.04565,55.44077 z m 5.25379,-72.66378 c 0,0 43.13024,-29.87565 84.06087,-7.18998 0,0 -36.44913,25.99132 -84.06087,7.18998 z m 777.10951,-201.1183 a 29.556154,29.239805 0 0 1 7.21873,-3.09429 l 1.49207,-7.05483 12.03122,-0.20272 1.73201,6.99594 c 2.55685,0.6185 5.01738,1.57486 7.31504,2.8448 l 6.08741,-3.95189 8.66178,8.32998 -3.76524,6.15046 a 29.573667,29.25713 0 0 1 3.12777,7.13974 l 7.12241,1.46397 0.21715,11.89724 -7.07512,1.71347 a 29.360012,29.045762 0 0 1 -2.87383,7.22289 l 3.9929,6.02052 -8.42186,8.57946 -6.21875,-3.73706 a 29.356508,29.042297 0 0 1 -7.21872,3.09429 l -1.47982,7.05485 -12.03122,0.21482 -1.73376,-6.99593 a 29.869631,29.549926 0 0 1 -7.30279,-2.84481 l -6.09965,3.93977 -8.66177,-8.26933 3.77748,-6.16433 a 29.368768,29.054425 0 0 1 -3.14003,-7.138 l -7.09789,-1.52462 -0.21716,-11.89724 7.07512,-1.71347 a 29.906407,29.586309 0 0 1 2.87383,-7.21076 l -3.99288,-6.02052 8.42184,-8.56733 6.23101,3.72493 z m 6.41314,15.87165 a 12.931364,12.792956 0 0 0 -2.57086,13.9884 12.934866,12.79642 0 0 0 24.502,-7.80849 12.934866,12.79642 0 0 0 -12.85957,-10.0781 12.908597,12.770434 0 0 0 -9.07157,3.89819 z"
     fill="#92ce91"
     id="path1890"
     style="stroke-width:1.74187" />
  <path
     d="m 350.38324,406.87608 a 51.5954,47.545729 0 0 1 12.61087,-5.02611 l 2.60777,-11.50083 21.09766,-0.34162 3.04373,11.39965 a 52.02499,47.941601 0 0 1 12.77475,4.62438 l 10.65861,-6.44392 15.19637,13.51097 -6.62206,10.05369 a 51.057616,47.050155 0 0 1 5.45421,11.63132 l 12.49153,2.39136 0.37072,19.45346 -12.39289,2.79456 a 51.379013,47.346326 0 0 1 -5.04052,11.8014 l 6.99277,9.83229 -14.66176,13.99335 -10.90841,-6.09203 a 51.794284,47.729003 0 0 1 -12.62201,5.02611 l -2.60777,11.52135 -21.09766,0.33136 -3.04373,-11.42018 A 51.530166,47.485615 0 0 1 351.87726,489.782 l -10.65702,6.44392 -15.0659,-13.49045 6.61092,-10.05369 a 51.633586,47.580917 0 0 1 -5.4542,-11.62985 l -12.56791,-2.34297 -0.37072,-19.452 12.39289,-2.80482 a 51.668589,47.613173 0 0 1 5.04052,-11.7926 l -6.99277,-9.83083 14.66176,-13.99482 10.90841,6.09204 z m 11.24732,25.90617 a 22.641006,20.863936 0 0 0 -4.48206,22.81984 22.652143,20.874199 0 0 0 41.84051,-0.67005 22.648961,20.871267 0 0 0 -5.33965,-22.66149 22.663281,20.884463 0 0 0 -32.0188,0.5117 z"
     fill="#0059df"
     id="path1892"
     style="stroke-width:1.52736" />
  <path
     d="m 906.70527,147.07242 a 20.270303,18.679307 0 0 0 7.17893,-8.52298 19.840713,18.283435 0 0 0 0.79872,-10.68416 c -2.36433,-10.06688 -12.76201,-16.61197 -23.20265,-14.60769 -10.44223,2.00576 -17.07224,11.81459 -14.66335,21.85216 a 20.04437,18.471108 0 0 0 5.60536,9.53319 20.714213,19.088375 0 0 0 10.52655,5.11408 c -28.16522,9.65929 -19.98868,37.91577 -19.98868,37.91577 l 68.90471,-13.17082 c 0,0 -5.35874,-29.14499 -35.15959,-27.42955 z"
     fill="#50b8d4"
     id="path1894"
     style="stroke-width:1.52736" />
  <path
     d="m 908.1385,147.68236 1.07196,-0.0499 a 26.023635,20.858071 0 0 1 3.02202,-0.0513 33.507304,26.85627 0 0 1 26.21753,10.31467 51.992388,41.672157 0 0 1 10.07762,17.56647 v 0.21113 h -0.27622 l -78.53554,13.40541 -0.34025,0.0601 -0.075,-0.26245 a 51.562503,41.327601 0 0 1 -1.2604,-9.14172 47.956951,38.437733 0 0 1 1.361,-9.43496 34.826229,27.913395 0 0 1 8.42759,-12.56674 37.186027,29.804785 0 0 1 6.79036,-4.47483 45.679472,36.612322 0 0 1 7.70867,-3.03062 l 0.064,0.53663 a 22.875406,18.334752 0 0 1 -11.84289,-5.05104 24.878492,19.940234 0 0 1 -1.15794,-27.27414 21.170499,16.968259 0 0 1 19.86621,-5.20205 23.265048,18.647051 0 0 1 14.8905,8.45407 23.901645,19.157287 0 0 1 3.09884,5.9806 c 0.56343,1.87087 0.78294,3.79745 0.65488,5.71816 a 23.865058,19.127963 0 0 1 -3.24883,8.696 22.024782,17.652972 0 0 1 -4.56044,4.39418 12.958768,10.386516 0 0 1 -1.43601,0.90024 l -0.5305,0.30204 0.46647,-0.3123 c 0.31464,-0.2126 0.84515,-0.5161 1.4232,-1.01167 a 22.705282,18.198396 0 0 0 4.42325,-4.41325 23.755301,19.039991 0 0 0 3.11165,-8.61682 24.219944,19.412404 0 0 0 -0.70612,-5.63605 23.491882,18.828859 0 0 0 -3.08603,-5.85891 22.774795,18.254111 0 0 0 -14.61429,-8.24294 20.616221,16.524003 0 0 0 -19.32473,5.10235 24.280311,19.460789 0 0 0 1.18357,26.54544 22.218688,17.808388 0 0 0 11.50264,4.83844 l 1.17075,0.17155 -1.10856,0.36361 a 46.811809,37.519896 0 0 0 -7.55867,3.03063 36.28967,29.08635 0 0 0 -6.65134,4.39418 34.228049,27.43395 0 0 0 -8.30137,12.44505 47.049619,37.710501 0 0 0 -1.33539,9.28247 c 0.005,3.02916 0.42806,6.04805 1.25856,9.00097 l -0.41525,-0.20234 78.59773,-13.28225 -0.21401,0.25219 a 51.677749,41.419971 0 0 0 -9.86359,-17.41545 33.915239,27.183231 0 0 0 -14.51367,-8.62708 34.93233,27.998434 0 0 0 -11.33802,-1.78729 c -1.32259,-0.0806 -2.40553,0 -3.08603,0 z M 94.569765,121.29527 a 17.563118,14.076925 0 0 0 9.318445,-2.90893 17.241161,13.818875 0 0 0 5.7623,-6.48791 c 3.20677,-7.2166 -1.1305,-14.990358 -9.664194,-17.369988 -8.533691,-2.378169 -18.022277,1.57322 -21.190625,8.789828 a 17.069205,13.681053 0 0 0 -0.592697,8.00835 17.221038,13.802747 0 0 0 5.118383,6.9219 C 58.221546,114.54638 50.34092,135.3502 50.34092,135.3502 l 56.25649,15.66775 c 0,0 10.35567,-20.38596 -12.027645,-29.72268 z"
     fill="#50b8d4"
     id="path1896"
     style="stroke-width:1.63771" />
  <path
     d="m 92.463743,121.21328 0.60461,0.30497 c 0.57756,0.26391 1.13762,0.56302 1.677,0.89144 a 21.61158,19.915309 0 0 1 6.859117,6.30464 22.049126,20.318512 0 0 1 3.23466,8.479 c 0.62052,4.85017 0.01,9.77071 -1.78201,14.35843 l -0.0764,0.19207 -0.21638,-0.0704 -48.440297,-15.87888 -0.28162,-0.10117 0.0971,-0.29324 a 33.662387,31.02026 0 0 1 7.75968,-11.85564 22.243237,20.497388 0 0 1 9.86785,-5.37067 22.540768,20.771566 0 0 1 5.57672,-0.73896 28.310008,26.087984 0 0 1 5.47966,0.43546 l -0.24821,0.48531 a 14.862237,13.695715 0 0 1 -4.40887,-6.91017 16.467633,15.175105 0 0 1 1.59108,-10.89822 15.999856,14.744044 0 0 1 9.11845,-6.924826 13.330031,12.283771 0 0 1 6.92277,-0.19794 13.479593,12.421593 0 0 1 6.122457,3.03502 15.115218,13.92884 0 0 1 3.42877,4.618506 15.337969,14.134107 0 0 1 1.19649,5.51289 16.496272,15.201496 0 0 1 -2.80984,8.65494 15.331605,14.128242 0 0 1 -5.403287,4.53934 13.746893,12.667913 0 0 1 -4.32296,1.36796 11.406421,10.511142 0 0 1 -1.5672,0.14222 c 0,0 0.51869,0 1.54493,-0.23459 a 14.774728,13.615074 0 0 0 4.23703,-1.4486 15.320467,14.117979 0 0 0 5.242597,-4.52908 16.410354,15.122322 0 0 0 2.67937,-8.49072 14.975204,13.799815 0 0 0 -1.20126,-5.34721 14.757226,13.598946 0 0 0 -3.34922,-4.471886 13.014998,11.993464 0 0 0 -5.909247,-2.92653 12.873393,11.862973 0 0 0 -6.68252,0.19061 15.460482,14.247004 0 0 0 -8.77478,6.706366 15.909165,14.660471 0 0 0 -1.51311,10.51994 14.453331,13.318903 0 0 0 4.24817,6.62719 l 0.7669,0.6378 -1.02625,-0.15249 a 28.022024,25.822603 0 0 0 -5.40488,-0.42519 22.335519,20.582427 0 0 0 -5.40329,0.71843 21.627491,19.929971 0 0 0 -9.59737,5.33108 33.232796,30.624387 0 0 0 -7.56557,11.60053 l -0.18456,-0.34456 48.354377,15.99911 -0.29117,0.12169 a 34.287679,31.596474 0 0 0 1.84724,-14.18542 22.125497,20.388889 0 0 0 -4.32295,-10.00091 22.329155,20.576562 0 0 0 -5.403297,-4.68156 c -0.68098,-0.46624 -1.30786,-0.76975 -1.66426,-1.01314 l -0.60461,-0.28444 z"
     fill="#92ce91"
     id="path1898"
     style="stroke-width:1.52736" />
  <path
     d="M 835.46874,285.23957 H 623.58998 a 12.066717,11.119613 0 0 0 -8.5218,3.24762 12.020576,11.077093 0 0 0 -3.52901,7.83827 v 71.85082 h -5.28078 a 16.233744,14.959574 0 0 1 -7.0771,-1.5615 32.553407,29.998323 0 0 0 -42.35603,12.16501 32.416574,29.87223 0 0 0 10.27199,39.70893 32.553407,29.998323 0 0 0 31.09757,2.4588 16.214651,14.94198 0 0 1 6.57432,-1.3401 h 6.78117 v 70.07673 c 0,2.93972 1.26968,5.75921 3.529,7.83827 a 12.063535,11.11668 0 0 0 8.5218,3.24762 h 211.86763 a 9.869442,9.0947994 0 0 0 6.953,-2.63915 9.8328472,9.0610769 0 0 0 2.9069,-6.38087 V 294.25959 a 9.8328472,9.0610769 0 0 0 -2.9069,-6.38087 9.869442,9.0947994 0 0 0 -6.953,-2.63915 z"
     fill="#f1f1f1"
     id="path1900"
     style="stroke-width:1.52736" />
  <path
     d="m 833.79016,285.47123 h 0.65711 c 0.27526,0.007 0.54892,0.0337 0.821,0.0806 0.37072,0.0396 0.73666,0.11143 1.09306,0.21113 a 9.7071523,8.9452476 0 0 1 5.9729,4.2241 10.194021,9.3939029 0 0 1 1.30309,5.02905 v 22.00903 c 0,23.64824 0,57.85894 0.0987,100.12637 v 73.82138 a 13.961688,12.86585 0 0 1 -0.19729,2.38403 10.706348,9.8660172 0 0 1 -0.86396,2.29313 10.004683,9.2194258 0 0 1 -8.51225,5.10969 H 622.75784 a 12.863846,11.854176 0 0 1 -6.30225,-1.24773 12.357884,11.387926 0 0 1 -4.7605,-4.12587 12.308561,11.342474 0 0 1 -1.80268,-5.7812 V 419.5649 l 0.30548,0.29178 h -7.7008 a 14.509018,13.37022 0 0 0 -2.48367,0.34162 16.690383,15.380372 0 0 0 -2.4073,0.69497 c -0.76531,0.29178 -1.57516,0.62314 -2.37388,0.89438 a 32.505675,29.954337 0 0 1 -4.95621,1.30785 31.923341,29.41771 0 0 1 -5.0978,0.56302 c -0.85282,0.0513 -1.70723,0.0513 -2.56004,0 -0.85282,-0.0498 -1.70723,-0.0704 -2.56004,-0.14076 a 36.216063,33.3735 0 0 1 -9.84558,-2.48373 32.933674,30.348743 0 0 1 -14.75882,-12.25152 35.352109,32.577357 0 0 1 -3.65311,-8.50978 c -0.19729,-0.73457 -0.2848,-1.49992 -0.4264,-2.24328 l -0.1973,-1.1275 c 0,-0.38121 -0.0557,-0.76389 -0.0764,-1.1363 l -0.12092,-2.2726 0.13206,-2.27407 a 32.378389,29.837041 0 0 1 7.06597,-16.49614 32.72047,30.152273 0 0 1 15.48912,-9.8191 32.777749,30.205056 0 0 1 23.18515,1.08791 c 1.35401,0.64073 2.77643,1.15243 4.2434,1.52924 a 15.702325,14.469865 0 0 0 4.46456,0.45306 h 4.56161 l -0.2848,0.26098 v -67.22352 -3.53059 a 14.868602,13.70158 0 0 1 0.3389,-3.55112 12.259238,11.297022 0 0 1 3.95064,-5.97474 13.231385,12.192867 0 0 1 3.2808,-1.84007 13.205928,12.169408 0 0 1 3.67697,-0.83573 c 9.94422,-0.0894 19.56069,0 28.92417,0 l 97.5202,0.0616 63.4521,0.0704 h 22.72215 -22.72215 l -63.4521,0.0704 -97.5202,0.0704 c -9.3428,0 -19.01336,0 -28.88121,0.0498 a 12.688828,11.692895 0 0 0 -3.52264,0.79468 12.52972,11.546275 0 0 0 -3.10737,1.77996 11.664175,10.748666 0 0 0 -3.78517,5.72402 15.084988,13.900982 0 0 0 -0.32776,3.43969 v 71.01509 h -4.75891 a 16.187603,14.917054 0 0 1 -4.6173,-0.46185 23.271072,21.444549 0 0 1 -4.32136,-1.54977 30.270213,27.894335 0 0 0 -4.32136,-1.41781 32.082448,29.564329 0 0 0 -18.31328,0.3123 32.442032,29.895689 0 0 0 -15.36979,9.68567 31.784917,29.290151 0 0 0 -6.92596,16.20438 l -0.13046,2.22421 0.11933,2.23302 c 0,0.37094 0,0.74336 0.0764,1.11577 l 0.19729,1.10698 c 0.1432,0.73456 0.23071,1.47792 0.41686,2.20222 a 35.409388,32.63014 0 0 0 3.57674,8.3485 32.286106,29.752002 0 0 0 14.4947,12.16208 35.621001,32.825144 0 0 0 9.61646,2.43388 c 0.83213,0.0704 1.67381,0.0909 2.50595,0.14076 a 21.399967,19.720305 0 0 0 2.51549,0 32.233601,29.703618 0 0 0 9.8583,-1.84008 c 0.79713,-0.27271 1.55289,-0.58354 2.36275,-0.88558 a 16.486725,15.192699 0 0 1 2.49321,-0.7243 14.614029,13.466989 0 0 1 2.58232,-0.36215 c 0.88623,-0.0498 1.73904,0 2.59345,0 h 5.47012 v 70.32159 a 11.750093,10.82784 0 0 0 6.21315,9.40416 12.163773,11.209051 0 0 0 6.03972,1.26826 h 211.44918 a 9.5305429,8.7825001 0 0 0 8.06198,-4.8487 c 0.37231,-0.68618 0.64757,-1.41341 0.82099,-2.16264 a 12.537676,11.553606 0 0 0 0.18616,-2.29313 v -4.68742 -69.13396 c 0,-42.24837 0.0764,-76.44734 0.0987,-100.12637 v -15.71173 -6.2973 a 10.087419,9.2956679 0 0 0 -1.25855,-4.97919 9.7310184,8.9672405 0 0 0 -5.76605,-4.17426 7.7883151,7.177018 0 0 0 -1.09307,-0.22139 6.9004949,6.358882 0 0 0 -0.80986,-0.0894 z"
     fill="#1a2e35"
     id="path1902"
     style="stroke-width:1.52736" />
  <path
     d="m 751.76389,125.37129 a 33.181882,30.577469 0 0 0 -12.84476,2.3635 c -2.03657,0.80348 -4.2243,1.22574 -6.43908,1.2404 l -8.43907,-0.46332 -0.4264,-65.401029 c 0,-5.703494 -5.29033,-10.326402 -11.81692,-10.326402 H 501.18857 a 11.30141,10.414374 0 0 0 -10.54406,6.357415 11.36028,10.468623 0 0 0 -0.90214,3.99831 v 64.977306 h -5.0278 a 15.376155,14.169296 0 0 1 -6.72388,-1.453 c -5.3126,-2.3723 -15.23773,-5.43078 -21.99344,-4.40151 -13.4239,2.01894 -27.06738,14.53584 -27.06738,26.83134 0,20.61175 17.4907,33.52306 35.6926,33.52306 a 31.321914,28.863489 0 0 0 12.43903,-2.36204 12.4263,11.450973 0 0 1 5.52103,-1.22134 h 7.15984 v 64.28966 a 11.3746,10.481819 0 0 0 3.4065,7.35296 11.312548,10.424637 0 0 0 8.0397,2.97491 H 711.4699 c 6.55841,0 11.81691,-4.62438 11.81691,-10.32787 l 0.37072,-66.91415 7.39055,0.47358 c 2.40412,0.0191 4.77482,0.51464 6.953,1.45447 a 33.337807,30.721156 0 0 0 19.30452,2.40162 c 13.87259,-2.01895 24.69509,-12.11222 26.23684,-24.33735 2.10976,-16.81724 -12.92113,-31.02906 -31.77855,-31.02906 z"
     fill="#efefef"
     id="path1904"
     style="stroke-width:1.52736" />
  <path
     d="m 751.71297,125.45633 c 0,0 0.7319,0 2.18455,0.0704 h 1.20126 c 0.44709,0 0.9276,0.12023 1.45106,0.19061 l 1.71518,0.23166 c 0.61097,0.0909 1.24422,0.28297 1.93157,0.43399 a 31.810375,29.31361 0 0 1 19.45885,13.23533 28.034752,25.834333 0 0 1 1.85679,3.45289 c 0.56642,1.25506 1.0326,2.54824 1.39696,3.86489 0.1957,0.66565 0.27367,1.36942 0.42641,2.07466 l 0.1957,1.05713 c 0.0541,0.36215 0.0541,0.7243 0.0875,1.08645 0,0.73456 0.10978,1.47939 0.12092,2.22421 0.01,0.74483 -0.0986,1.49992 -0.1432,2.26527 a 28.472298,26.237536 0 0 1 -2.75096,9.21063 30.305217,27.926591 0 0 1 -6.7048,8.30305 32.887533,30.306223 0 0 1 -22.93058,8.05381 33.301212,30.687434 0 0 1 -13.37458,-2.77844 16.746071,15.431688 0 0 0 -6.86867,-1.41928 l -7.34918,-0.46331 0.20843,-0.18181 c 0,10.60938 -0.10979,21.90347 -0.16388,33.81189 0,5.95861 -0.0302,12.06824 -0.0875,18.33035 v 14.33351 a 11.053202,10.185647 0 0 1 -1.20126,4.81058 12.01103,11.068296 0 0 1 -8.57113,5.77827 34.402237,31.70204 0 0 1 -5.46057,0.19061 H 503.67383 c -1.16785,0 -2.32456,0 -3.52582,-0.0601 a 11.869424,10.937805 0 0 1 -6.48682,-2.59663 11.384146,10.490616 0 0 1 -3.6897,-5.60673 15.202727,14.009481 0 0 1 -0.28481,-3.2916 v -9.8147 -53.34746 l 0.31663,0.28151 h -7.36986 a 10.668162,9.8308286 0 0 0 -3.58151,0.60407 c -1.15672,0.38268 -2.31502,0.90611 -3.53697,1.29758 a 31.471475,29.001311 0 0 1 -7.64352,1.54097 c -1.30309,0.12903 -2.61255,0.16275 -3.92041,0.0997 a 29.313977,27.013152 0 0 1 -3.93155,-0.30203 35.816703,33.005486 0 0 1 -26.7078,-16.82018 37.536656,34.590441 0 0 1 -4.29113,-14.61502 21.559074,19.866924 0 0 1 0.81941,-7.5289 c 0.37867,-1.21108 0.85281,-2.39576 1.41924,-3.54379 0.59188,-1.13337 1.26013,-2.23155 1.99839,-3.29161 0.73348,-1.04539 1.52743,-2.05267 2.38025,-3.02036 a 39.479359,36.380664 0 0 1 2.7621,-2.73738 35.79761,32.987892 0 0 1 6.32294,-4.61851 32.629779,30.0687 0 0 1 7.23939,-3.1919 21.482703,19.796547 0 0 1 7.87264,-1.19788 c 5.25851,0.31083 10.42473,1.4266 15.28547,3.30186 1.2124,0.44279 2.40252,0.9457 3.57196,1.45887 1.15512,0.47064 2.36911,0.80934 3.61334,1.00727 1.25217,0.19061 2.52185,0.26392 3.78835,0.21993 h 3.84403 l -0.30548,0.27271 V 65.956723 c 0,-1.257995 0,-2.495462 0.0764,-3.784246 a 11.148667,10.273619 0 0 1 1.22354,-3.653755 11.718272,10.798516 0 0 1 10.06673,-5.726952 h 209.5383 c 0.88463,-0.02346 1.77086,0.0029 2.65232,0.07917 a 12.109676,11.1592 0 0 1 8.73659,4.781258 11.077068,10.20764 0 0 1 1.77883,4.329669 c 0.17502,1.539504 0.0764,3.020359 0.10978,4.498283 v 8.66667 c 0.11933,22.548602 0.20684,40.57545 0.27208,53.34893 l -0.0859,-0.0807 6.7032,0.37242 a 15.729373,14.494791 0 0 0 5.72151,-0.37242 c 1.71518,-0.39147 3.16783,-1.08644 4.56479,-1.49991 1.25377,-0.37975 2.52981,-0.69498 3.82177,-0.9457 a 33.727621,31.080374 0 0 1 5.16463,-0.5938 h 1.71359 l -1.71359,0.0601 a 33.296439,30.683035 0 0 0 -8.94344,1.60108 c -1.39696,0.40174 -2.83848,1.10698 -4.57434,1.51018 a 15.460482,14.247004 0 0 1 -5.75492,0.40174 l -6.71434,-0.35189 h -0.0875 v -0.0806 l -0.41527,-53.348923 c 0,-2.818024 -0.0223,-5.703493 -0.0652,-8.656407 0,-1.480856 0.0541,-3.020359 -0.12093,-4.468959 a 10.634749,9.8000385 0 0 0 -1.72472,-4.178652 11.71509,10.795584 0 0 0 -8.41838,-4.628773 23.092871,21.280335 0 0 0 -2.6205,-0.07038 H 505.07239 c -2.65392,0 -5.37307,-0.241922 -7.80741,0.733097 a 11.158213,10.282416 0 0 0 -5.75492,4.973328 10.396088,9.5801095 0 0 0 -1.15671,3.473413 c -0.12093,1.197881 -0.0541,2.476401 -0.0764,3.724132 v 62.448114 h -4.13838 c -1.30469,0.0484 -2.61096,-0.0293 -3.89814,-0.23166 a 15.651411,14.422947 0 0 1 -3.75653,-1.08645 53.647887,49.437118 0 0 0 -3.5481,-1.4398 46.852403,43.175005 0 0 0 -15.08976,-3.27108 21.205856,19.541429 0 0 0 -7.64353,1.17736 31.719683,29.230037 0 0 0 -7.10892,3.14058 35.463484,32.679991 0 0 0 -6.22429,4.53934 c -0.98169,0.82547 -1.82337,1.78143 -2.71915,2.6978 -0.89418,0.91637 -1.64835,1.93244 -2.3357,3.02036 a 35.336198,32.562695 0 0 0 -1.95543,3.22123 29.387166,27.080597 0 0 0 -1.38582,3.47194 21.282227,19.611807 0 0 0 -0.79713,7.3383 36.933638,34.034754 0 0 0 4.22589,14.3731 35.178682,32.417542 0 0 0 26.20502,16.5284 30.373633,27.989637 0 0 0 3.85517,0.29177 c 1.28559,0.066 2.57436,0.0352 3.85359,-0.0909 a 30.644116,28.23889 0 0 0 7.44782,-1.51898 c 1.19013,-0.37241 2.31502,-0.88558 3.53697,-1.28878 a 11.269589,10.38505 0 0 1 3.7788,-0.64366 h 7.68649 v 63.47445 c -0.0477,1.063 0.0445,2.12745 0.27366,3.17138 a 10.744534,9.9012059 0 0 0 3.48287,5.30469 11.272771,10.387982 0 0 0 6.15746,2.46614 c 1.09307,0.0806 2.29433,0 3.46218,0.0601 h 204.61232 c 1.82337,0.0704 3.64834,0.007 5.46057,-0.19207 a 11.503477,10.60058 0 0 0 8.23223,-5.52608 10.480415,9.6578177 0 0 0 1.14716,-4.60972 v -4.8311 -9.50241 c 0.043,-6.26064 0.0843,-12.37174 0.11933,-18.33035 0.0764,-11.90696 0.1432,-23.20105 0.20844,-33.81042 v -0.20234 h 0.21797 l 7.32691,0.42373 c 2.4232,0.0161 4.81459,0.51463 7.01028,1.45886 a 32.790477,30.216785 0 0 0 13.22342,2.75791 32.442032,29.895689 0 0 0 22.72216,-7.89105 30.107924,27.744783 0 0 0 6.67138,-8.20335 28.220908,26.005877 0 0 0 2.74142,-9.11973 c 0,-0.75509 0.097,-1.51018 0.1416,-2.24474 0.043,-0.73456 -0.0764,-1.47939 -0.10978,-2.20516 0,-0.36215 0,-0.7243 -0.0764,-1.07618 l -0.1957,-1.05713 c -0.1432,-0.69497 -0.21957,-1.38848 -0.41527,-2.01308 a 30.376815,27.99257 0 0 0 -1.37629,-3.83557 27.481058,25.324097 0 0 0 -1.83451,-3.43089 30.807997,28.389908 0 0 0 -9.82648,-9.39244 31.121439,28.678748 0 0 0 -9.48917,-3.85609 c -0.67621,-0.14955 -1.31105,-0.34162 -1.92202,-0.43252 l -1.70245,-0.25072 c -0.52506,-0.0704 -1.00556,-0.15102 -1.44152,-0.20234 l -1.20126,-0.0587 z"
     fill="#1a2e35"
     id="path1906"
     style="stroke-width:1.52736" />
  <path
     d="m 428.9358,171.81675 a 12.332427,11.364467 0 0 0 -5.45262,1.22281 30.96074,28.530663 0 0 1 -12.46766,2.41628 c -18.17168,0 -35.61305,-9.97598 -35.61305,-30.61559 0,-12.31016 13.60211,-24.80213 26.99578,-26.8636 6.75253,-1.01167 16.65538,2.02188 21.95684,4.40591 a 15.26637,14.068128 0 0 0 6.70798,1.45593 h 3.27284 l 0.21798,-67.870103 c 0,-4.61851 -4.45024,-8.367568 -8.49794,-8.367568 H 208.90277 c -6.90527,0 -11.34437,3.749058 -11.34437,8.369034 v 70.021017 l 8.72705,-0.4252 a 16.909952,15.582706 0 0 0 5.92199,-1.01021 c 3.7963,-1.28292 7.73422,-3.53646 12.07467,-3.53646 18.61877,0 31.63217,9.74286 30.84618,25.59095 -0.65393,13.95816 -11.81214,24.86371 -28.35933,25.83287 a 33.484186,30.856046 0 0 1 -15.72778,-2.92066 18.746053,17.274694 0 0 0 -7.13279,-1.48526 l -6.37067,0.1217 v 68.56508 c 0,5.68003 5.45421,10.27948 12.18287,10.27948 h 212.69339 c 6.73025,0 12.194,-4.59945 12.194,-10.27948 v -64.90693 z"
     fill="#f3f3f3"
     id="path1908"
     style="stroke-width:1.52736" />
  <path
     d="m 374.36191,47.747439 h 52.12204 a 10.760444,9.9158678 0 0 1 5.18214,1.451531 9.5305429,8.7825001 0 0 1 3.71516,3.904474 c 0.40254,0.835731 0.63325,1.730109 0.67939,2.643547 0.0541,0.917838 0,1.815148 0,2.732985 v 11.468567 c 0,15.856885 -0.0764,33.952647 -0.13206,54.005777 v 0.19061 h -4.31659 a 15.613225,14.387759 0 0 1 -4.10975,-0.72577 c -1.35878,-0.4032 -2.57436,-1.00874 -3.8679,-1.53364 a 39.183419,36.107952 0 0 0 -3.95542,-1.40168 51.423564,47.38738 0 0 0 -8.33723,-2.01748 28.83029,26.567429 0 0 0 -4.38342,-0.38268 16.340346,15.057809 0 0 0 -4.38182,0.40321 35.924896,33.105187 0 0 0 -21.78342,14.50505 26.917817,24.805065 0 0 0 -3.61492,8.06847 28.569354,26.326974 0 0 0 0,8.90712 c 0.14161,0.7463 0.24025,1.50285 0.40413,2.23888 l 0.64757,2.19929 c 0.20366,0.73896 0.47573,1.4618 0.80986,2.15824 0.27685,0.72137 0.60302,1.42514 0.97533,2.10839 a 30.144518,27.778505 0 0 0 14.2449,12.82039 c 1.55925,0.69791 3.16624,1.30492 4.80982,1.81662 1.66586,0.47064 3.36035,0.85479 5.07235,1.14949 3.47014,0.59821 7.00551,0.80494 10.52974,0.61434 a 31.428516,28.961724 0 0 0 10.34358,-2.42069 12.494717,11.514019 0 0 1 5.39056,-1.08938 h 5.78516 v 64.04187 a 14.844735,13.679587 0 0 1 -0.24026,2.92506 11.126392,10.253092 0 0 1 -3.12328,5.11408 12.773155,11.770603 0 0 1 -5.55444,2.92506 13.675295,12.601935 0 0 1 -3.19966,0.43399 h -214.582 a 12.707921,11.710489 0 0 1 -10.26721,-5.25483 10.766809,9.9217326 0 0 1 -1.68654,-5.30616 v -5.41612 -21.43428 -41.76013 h 0.27366 l 5.18373,-0.15102 a 16.997461,15.663347 0 0 1 5.19327,0.46332 c 1.66426,0.41933 3.29194,0.95889 4.86392,1.61428 1.57039,0.57181 3.17738,1.05712 4.80982,1.45299 3.23466,0.79615 6.59501,1.06299 9.92831,0.78588 a 32.177913,29.652301 0 0 0 9.60851,-2.01748 28.144536,25.9355 0 0 0 14.37536,-11.37766 29.956771,27.605495 0 0 0 3.39695,-16.72341 24.79214,22.84623 0 0 0 -2.74938,-7.98929 24.346639,22.435696 0 0 0 -5.78515,-6.29437 26.920999,24.807997 0 0 0 -7.67057,-4.03496 34.801597,32.070054 0 0 0 -4.17499,-1.20961 c -0.70166,-0.17155 -1.42401,-0.26392 -2.13681,-0.40321 a 17.67685,16.289412 0 0 0 -2.13682,-0.31376 l -2.19091,-0.2214 c -0.72234,-0.0601 -1.43515,-0.0498 -2.19091,-0.0909 a 14.631531,13.483117 0 0 0 -4.21794,0.23166 43.452275,40.041749 0 0 0 -7.87901,2.70366 20.652161,19.031194 0 0 1 -4.00951,1.19055 22.10004,20.36543 0 0 1 -4.14157,0.36215 l -8.10971,0.3944 h -0.24025 V 125.9806 64.935627 58.308432 c 0,-1.079119 0,-2.147974 0.0764,-3.237356 a 8.7509158,8.0640652 0 0 1 1.15035,-3.026224 10.046051,9.2575469 0 0 1 5.32533,-3.842893 c 2.09385,-0.756556 4.31659,-0.574748 6.37703,-0.595275 h 22.88921 l 31.66559,0.06011 h 11.04525 -11.04525 l -31.66559,0.05132 h -22.88921 c -2.08113,0 -4.25135,-0.152484 -6.26725,0.593808 a 9.6944237,8.9335181 0 0 0 -5.00711,3.722666 8.206768,7.562627 0 0 0 -1.09625,2.90453 c -0.12092,1.008741 0,2.11865 -0.0652,3.197768 v 6.627196 c 0,17.975534 0,38.430408 0.0541,61.044978 l -0.24025,-0.20087 8.11926,-0.4032 a 21.948888,20.226142 0 0 0 4.06519,-0.36362 c 1.34287,-0.26685 2.65392,-0.65979 3.91087,-1.17002 a 43.843679,40.402433 0 0 1 7.96651,-2.73299 15.121583,13.934705 0 0 1 4.32773,-0.24339 c 0.72235,0 1.44629,0 2.19091,0.0909 l 2.19091,0.22286 c 0.73667,0.0631 1.46856,0.16715 2.1925,0.3123 0.72235,0.13196 1.45743,0.23166 2.19091,0.4032 a 34.526341,31.816403 0 0 1 4.24022,1.2316 c 2.82893,0.9369 5.46853,2.30046 7.81218,4.0335 a 24.563025,22.635098 0 0 1 5.91721,6.42633 25.430161,23.434174 0 0 1 2.82734,8.15937 c 0.85918,5.94542 -0.36594,11.98907 -3.49559,17.2483 a 28.661636,26.412013 0 0 1 -14.60607,11.66064 32.909808,30.32675 0 0 1 -9.76284,2.0688 29.516044,27.199359 0 0 1 -10.11288,-0.79761 40.962241,37.747156 0 0 1 -4.87506,-1.47206 32.384753,29.842906 0 0 0 -4.78913,-1.59375 16.617194,15.312927 0 0 0 -5.05167,-0.44426 l -5.20282,0.10117 0.28322,-0.26245 v 62.94223 c 0.16547,3.57018 -0.67939,7.42334 1.60062,10.44956 a 12.139907,11.187058 0 0 0 9.78511,5.04371 h 211.35842 a 23.045139,21.236349 0 0 0 6.23542,-0.42373 11.392101,10.497947 0 0 0 8.24018,-7.61541 14.149435,13.03886 0 0 0 0.22912,-2.81509 v -8.59336 -11.34834 -43.94769 l 0.2848,0.26245 h -5.47807 a 11.948978,11.011115 0 0 0 -5.18214,1.00874 32.0554,29.539404 0 0 1 -10.50905,2.46027 43.394996,39.988966 0 0 1 -10.67134,-0.63486 48.550081,44.739434 0 0 1 -5.15032,-1.17002 42.790387,39.431813 0 0 1 -4.86391,-1.83568 30.667982,28.260883 0 0 1 -14.49629,-13.06232 c -0.38186,-0.69644 -0.7144,-1.41341 -0.99761,-2.14944 a 16.244882,14.969837 0 0 1 -0.82099,-2.18902 l -0.65871,-2.23888 c -0.16388,-0.74629 -0.26253,-1.51311 -0.393,-2.26967 a 28.766647,26.508782 0 0 1 0,-9.07721 27.549474,25.387144 0 0 1 3.68016,-8.24147 35.016392,32.26799 0 0 1 6.06041,-6.7181 34.589984,31.875051 0 0 1 16.05077,-7.9585 c 1.46856,-0.31963 2.97531,-0.45452 4.48206,-0.4032 a 28.19386,25.980952 0 0 1 4.38341,0.38267 c 2.85758,0.45452 5.66742,1.13044 8.40407,2.01748 1.35877,0.434 2.68414,0.90904 3.98723,1.41195 1.30468,0.50437 2.5314,1.1407 3.83608,1.53364 a 15.135902,13.9479 0 0 0 3.98724,0.71697 h 4.08747 l -0.21957,0.1906 c 0.0764,-20.04287 0.15434,-38.137164 0.21957,-53.994049 0,-3.964588 0,-7.786954 0.0541,-11.468567 v -2.724188 a 7.8996904,7.2796516 0 0 0 -0.64598,-2.542379 9.2759708,8.5479091 0 0 0 -3.59424,-3.791577 10.408817,9.591839 0 0 0 -5.03893,-1.411945 h -14.70472 l -27.76586,-0.06158 h -7.19803 z"
     fill="#1a2e35"
     id="path1910"
     style="stroke-width:1.52736" />
  <path
     d="m 458.92801,326.73833 a 32.562953,30.00712 0 0 1 15.52094,2.92945 c 2.22115,0.91931 4.61571,1.42075 7.04688,1.47646 l 6.28156,-0.12169 v -68.55922 c 0,-5.66977 -5.37624,-10.27802 -11.9983,-10.27802 H 265.90986 c -6.64274,0 -11.9983,4.60825 -11.9983,10.27802 v 180.75676 c 0,4.62877 4.36272,8.36756 9.81693,8.36756 h 214.25424 c 5.45421,0 9.81694,-3.73879 9.81694,-8.36756 v -65.316 h -8.67136 a 16.52332,15.226421 0 0 0 -5.84721,1.01167 34.357687,31.660986 0 0 1 -12.05239,1.97057 c -18.37852,0 -33.19143,-13.0374 -32.4484,-28.88402 0.59984,-13.94643 13.84077,-24.28456 30.1477,-25.26398 z"
     fill="#f3f3f3"
     id="path1912"
     style="stroke-width:1.52736" />
  <path
     d="m 458.5557,326.80724 c 0,0 -0.70007,0.0909 -2.09226,0.23166 -0.86078,0.0821 -1.71678,0.20966 -2.56323,0.38268 -1.18376,0.19353 -2.35479,0.45305 -3.50514,0.77708 a 34.947976,32.204944 0 0 0 -9.15823,3.86928 c -0.87986,0.51317 -1.72154,1.07912 -2.52026,1.69346 -0.41527,0.3123 -0.85441,0.6246 -1.26968,1.00727 l -1.22831,1.08792 -0.6237,0.56448 -0.58075,0.62607 -1.17262,1.26972 a 30.282942,27.906064 0 0 0 -2.08112,2.93239 28.454796,26.221408 0 0 0 -1.74223,3.33559 26.979869,24.862246 0 0 0 -1.09466,3.75932 26.502546,24.422388 0 0 0 -0.23071,8.3749 27.862916,25.675984 0 0 0 3.08987,8.69746 30.946421,28.517467 0 0 0 6.77003,7.70924 33.867635,31.209399 0 0 0 22.1064,7.55823 35.218459,32.454197 0 0 0 12.92749,-2.20662 16.766755,15.450749 0 0 1 3.38422,-0.68618 28.96394,26.69059 0 0 1 3.50514,-0.10996 h 7.31895 v 63.96416 c 0.0175,0.79028 -0.008,1.58056 -0.078,2.36791 a 9.0213987,8.3133181 0 0 1 -0.71121,2.30779 10.101739,9.3088637 0 0 1 -8.36906,5.23137 c -3.52741,0.0806 -7.01187,0 -10.5711,0 H 274.80079 c -4.44706,0 -8.85116,0.0499 -13.37618,0 a 10.610883,9.7780456 0 0 1 -6.20042,-2.54971 8.9975325,8.2913252 0 0 1 -2.87984,-5.6639 V 320.27681 263.9911 a 13.783488,12.701636 0 0 1 0.51391,-4.25196 11.627581,10.714943 0 0 1 6.00313,-6.2885 13.070686,12.044781 0 0 1 4.38182,-1.18029 c 1.55608,-0.12023 3.03418,-0.0601 4.53457,-0.0704 h 207.05781 a 12.75088,11.750076 0 0 1 10.64747,4.44549 10.914779,10.058089 0 0 1 2.19091,4.95721 c 0.12093,1.78435 0,3.48807 0.0541,5.20058 0,27.31079 -0.0652,49.12042 -0.0764,64.19583 v 0.0909 h -0.10979 c -2.48685,0 -4.80823,0.1217 -6.988,0.10117 a 18.873339,17.391989 0 0 1 -5.8838,-1.26972 42.46899,39.135642 0 0 0 -8.76364,-2.69047 28.779376,26.520511 0 0 0 -5.47648,-0.5249 h -1.84088 c 0,0 0.61257,-0.0601 1.84088,-0.0704 a 27.280582,25.139357 0 0 1 5.47648,0.48384 c 3.01827,0.58061 5.95699,1.46473 8.76364,2.64061 1.85997,0.70378 3.8329,1.12311 5.83925,1.23894 2.19091,0 4.49161,-0.0806 6.97846,-0.10997 l -0.0986,0.0909 c 0,-15.11793 -0.0557,-36.88504 -0.0875,-64.19729 0,-1.70225 0.0541,-3.45582 -0.0668,-5.1698 a 10.558378,9.7296612 0 0 0 -2.10181,-4.77686 12.338791,11.370332 0 0 0 -10.33086,-4.28275 H 267.79051 c -1.49084,0 -3.0135,0 -4.47092,0.0806 a 12.139907,11.187058 0 0 0 -4.21636,1.1187 11.091388,10.220836 0 0 0 -5.69605,5.96595 12.766791,11.764738 0 0 0 -0.48368,4.09214 v 179.31549 a 8.2863218,7.6359367 0 0 0 2.68414,5.28123 9.9489958,9.1681091 0 0 0 5.83925,2.39869 c 4.38182,0.0909 8.89411,0 13.31094,0 h 203.78019 a 9.6307806,8.8748703 0 0 0 7.96333,-4.9484 c 0.33572,-0.69644 0.56006,-1.43247 0.66825,-2.18756 0.07,-0.76682 0.0955,-1.53657 0.0764,-2.30779 v -13.48312 -17.57673 -32.47032 l 0.1973,0.18034 h -7.10893 a 28.249547,26.032269 0 0 0 -3.46218,0.0909 c -1.11693,0.12023 -2.21796,0.34309 -3.28557,0.66565 a 35.522354,32.73424 0 0 1 -13.04841,2.20663 34.103115,31.426395 0 0 1 -22.31484,-7.66966 30.850956,28.429495 0 0 1 -6.81298,-7.80015 27.775407,25.595343 0 0 1 -3.10101,-8.79717 26.087276,24.039712 0 0 1 0.25298,-8.44527 c 0.28481,-1.28879 0.67621,-2.55558 1.17103,-3.79011 a 29.441263,27.130448 0 0 1 3.87905,-6.30903 l 1.1933,-1.27852 0.58075,-0.62607 0.62529,-0.56448 1.23786,-1.09818 c 0.41527,-0.34163 0.86554,-0.65539 1.28081,-1.00728 0.81145,-0.61287 1.66427,-1.17882 2.55209,-1.69345 a 35.169135,32.408745 0 0 1 9.22505,-3.83996 29.19942,26.907586 0 0 1 3.51628,-0.75509 19.247242,17.736545 0 0 1 2.57436,-0.35335 c 1.44629,-0.0909 2.1575,-0.14076 2.1575,-0.14076 z"
     fill="#1a2e35"
     id="path1914"
     style="stroke-width:1.52736" />
  <path
     d="m 789.64099,322.07329 16.89086,2.7887 a 51.153081,47.138127 0 0 0 32.97504,15.82316 50.981245,46.979778 0 0 0 35.82943,-8.98923 51.760872,47.698213 0 0 0 19.92027,-29.09515 52.061585,47.975323 0 0 0 -6.41999,-33.96291 51.347192,47.317002 0 0 0 -29.3983,-21.04721 50.903282,46.907934 0 0 0 -36.98138,2.8928 c -11.50665,5.22111 -20.49464,14.2514 -25.19945,25.31676 a 52.106135,48.016377 0 0 0 -0.21798,34.48195 z"
     fill="#fafafa"
     id="path1916"
     style="stroke-width:1.52736" />
  <path
     d="m 789.68554,322.11727 c 0,0 0.14161,-0.25365 0.44709,-0.75949 l 1.37787,-2.25793 c 1.23468,-2.02335 3.06123,-4.98946 5.46694,-8.82649 a 0.13205928,0.12169408 0 0 1 0.0764,-0.0587 0.13365035,0.12316027 0 0 1 0.0986,0.009 l -0.21957,0.11143 a 51.468114,47.428433 0 0 1 -1.43197,-30.23585 c 0.38345,-1.236 0.91805,-2.45001 1.37787,-3.70507 a 31.948798,29.441169 0 0 1 1.72791,-3.71533 51.13717,47.123465 0 0 1 28.68709,-24.09103 51.565169,47.517871 0 0 1 22.2146,-2.76378 52.371845,48.261231 0 0 1 22.57737,7.08612 47.019466,43.328956 0 0 1 5.07234,3.3092 c 0.85282,0.54689 1.55289,1.27559 2.35002,1.90312 0.79872,0.62753 1.57517,1.27559 2.27524,2.02481 a 50.992382,46.990041 0 0 1 4.08747,4.48362 c 0.62371,0.80054 1.27923,1.57909 1.88066,2.3899 0.60142,0.80934 1.09306,1.70078 1.65153,2.55117 a 51.974076,47.894683 0 0 1 2.55845,42.79673 51.565169,47.517871 0 0 1 -19.58137,21.18063 51.194449,47.176248 0 0 1 -29.03713,7.38522 56.260433,51.844608 0 0 1 -8.45179,-0.85039 67.369323,62.081573 0 0 1 -7.65148,-2.02481 50.962152,46.962183 0 0 1 -20.77309,-13.15909 h 0.0764 l -12.6061,-2.15531 -3.20283,-0.55715 -1.09307,-0.19207 1.09307,0.16128 3.2808,0.5073 12.53926,2.02335 h 0.0764 a 50.882598,46.888874 0 0 0 20.77308,12.96702 c 2.48685,0.78294 5.01984,1.431 7.58625,1.94417 2.76688,0.46332 5.56558,0.7375 8.37542,0.8196 a 50.893735,46.899137 0 0 0 28.7221,-7.37642 51.253318,47.230497 0 0 0 19.38248,-20.96657 51.503117,47.460689 0 0 0 -2.55845,-42.30115 c -0.54733,-0.84013 -1.09307,-1.68026 -1.62926,-2.52039 -0.53619,-0.84159 -1.24581,-1.57029 -1.85838,-2.3591 a 50.001142,46.076602 0 0 0 -4.0461,-4.42351 c -0.68894,-0.71844 -1.49721,-1.32691 -2.24024,-2.02481 a 29.406259,27.098192 0 0 0 -2.32933,-1.89286 49.336072,45.463734 0 0 0 -5.00712,-3.26961 51.69882,47.641031 0 0 0 -22.3021,-7.00401 51.041705,47.035493 0 0 0 -21.17245,2.42802 51.237408,47.215835 0 0 0 -18.2735,10.19444 50.892144,46.897671 0 0 0 -10.93387,13.86726 28.833472,26.570362 0 0 0 -1.71518,3.67428 c -0.47096,1.2448 -0.99602,2.43975 -1.38901,3.66402 a 51.253318,47.230497 0 0 0 1.25695,30.03351 0.13205928,0.12169408 0 0 1 -0.005,0.0909 0.13365035,0.12316027 0 0 1 -0.0716,0.0616 0.13205928,0.12169408 0 0 1 -0.0764,0.022 0.13205928,0.12169408 0 0 1 -0.0764,-0.022 h 0.20684 l -5.46534,8.69453 -1.57517,2.34884 z"
     fill="#1a2e35"
     id="path1918"
     style="stroke-width:1.52736" />
  <path
     d="m 861.23939,294.76983 c 0,-1.01461 0.32617,-2.00722 0.93874,-2.85028 a 5.5608092,5.1243469 0 0 1 5.71673,-2.18316 5.57672,5.1390088 0 0 1 4.37546,4.03203 5.5608092,5.1243469 0 0 1 -2.36911,5.26803 5.5735378,5.1360764 0 0 1 -8.66182,-4.26662 z m -20.68398,0 c 0,-1.01461 0.32617,-2.00722 0.93873,-2.85028 a 5.5608092,5.1243469 0 0 1 5.71674,-2.18316 5.57672,5.1390088 0 0 1 4.37546,4.03203 5.5608092,5.1243469 0 0 1 -2.36911,5.26803 5.5719468,5.1346103 0 0 1 -8.66182,-4.26662 z m -21.52725,2.56584 a 5.5592182,5.1228807 0 0 1 0.40095,-5.68883 5.5799021,5.1419412 0 0 1 5.85993,-1.83421 5.5655825,5.1287455 0 0 1 1.34287,9.3983 5.5687646,5.1316779 0 0 1 -7.60375,-1.87526 z"
     fill="#2e2e2e"
     id="path1920"
     style="stroke-width:1.52736" />
  <path
     d="m 243.67891,94.697889 -16.86381,2.788698 a 51.1674,47.151322 0 0 1 -32.98459,15.823173 51.001929,46.998838 0 0 1 -35.84056,-8.9907 51.756098,47.693814 0 0 1 -19.92663,-29.093686 52.059994,47.973857 0 0 1 6.42158,-33.96291 51.359921,47.328732 0 0 1 29.40785,-21.04721 50.93033,46.93286 0 0 1 36.9925,2.8928 51.55085,47.504675 0 0 1 25.20741,25.316766 52.091815,48.003181 0 0 1 0.21798,34.481943 z"
     fill="#fafafa"
     id="path1922"
     style="stroke-width:1.52736" />
  <path
     d="m 243.50389,93.184779 -0.50118,-0.77855 -1.44152,-2.25647 -5.51467,-8.688663 h 0.20843 a 0.12728605,0.11729549 0 0 1 -0.0398,0.02492 0.12251282,0.11289691 0 0 1 -0.13524,-0.02639 0.12251282,0.11289691 0 0 1 0,-0.140755 51.316961,47.289145 0 0 0 1.24422,-30.012984 c -0.393,-1.225738 -0.91646,-2.41922 -1.37469,-3.662552 a 30.435685,28.046819 0 0 0 -1.72632,-3.672815 50.787133,46.800902 0 0 0 -28.38638,-23.781662 50.919193,46.922596 0 0 0 -21.9457,-2.690465 51.619266,47.567721 0 0 0 -22.27506,6.999609 49.178556,45.31858 0 0 0 -4.99916,3.266679 c -0.80985,0.590876 -1.58153,1.221339 -2.31501,1.89139 -0.74303,0.659787 -1.56085,1.265325 -2.24819,2.023347 a 51.444248,47.40644 0 0 0 -4.04133,4.42204 c -0.61098,0.788813 -1.25536,1.557098 -1.8552,2.356174 l -1.61653,2.51892 a 51.412426,47.377116 0 0 0 -2.55527,42.274763 51.146716,47.132262 0 0 0 19.35225,20.959245 50.739401,46.756916 0 0 0 28.69027,7.36322 56.721845,52.269805 0 0 0 8.36429,-0.8196 68.112356,62.766285 0 0 0 7.5767,-1.94124 50.822137,46.833158 0 0 0 20.74444,-12.959693 h 0.0764 l 12.52336,-2.023338 3.27603,-0.50437 1.09147,-0.16128 -1.09147,0.1906 -3.19966,0.55715 -12.58859,2.155308 h 0.0875 a 51.057616,47.050155 0 0 1 -20.74444,13.150293 68.416251,63.046328 0 0 1 -7.64353,2.02335 c -2.78438,0.47798 -5.60695,0.76242 -8.43906,0.84892 a 51.205586,47.186511 0 0 1 -29.08963,-7.38082 51.617675,47.566255 0 0 1 -19.61797,-21.227553 51.996351,47.915209 0 0 1 2.55527,-42.76887 c 0.55688,-0.850392 1.09307,-1.700784 1.64995,-2.54971 0.55687,-0.850393 1.25536,-1.587888 1.87747,-2.386964 a 51.070345,47.061885 0 0 1 4.0827,-4.482154 c 0.70007,-0.727232 1.51788,-1.334236 2.27205,-2.023347 0.74781,-0.671517 1.53698,-1.304912 2.35798,-1.901653 a 47.036968,43.345084 0 0 1 5.05484,-3.307733 52.330477,48.22311 0 0 1 22.54554,-7.081716 51.49198,47.450426 0 0 1 21.37928,2.493996 51.700411,47.642497 0 0 1 18.42943,10.343996 51.464932,47.425501 0 0 1 11.05002,14.02121 c 0.66507,1.199347 1.24104,2.439747 1.72473,3.712403 0.45823,1.253595 0.99283,2.467604 1.37469,3.702139 a 51.456976,47.41817 0 0 1 -1.43038,30.215319 l -0.21798,-0.109964 a 0.1241039,0.11436311 0 0 1 0.0398,-0.02639 0.11933067,0.10996453 0 0 1 0.13524,0.02639 1133.1275,1044.1894 0 0 0 5.45898,8.82062 l 1.37628,2.25501 c 0.27207,0.49704 0.43595,0.74923 0.43595,0.74923 z"
     fill="#1a2e35"
     id="path1924"
     style="stroke-width:1.52736" />
  <path
     d="m 173.67159,65.92824 a 5.568765,5.1316783 0 1 0 -11.13753,0 5.568765,5.1316783 0 0 0 11.13753,0 z m 20.68398,0 a 5.5687646,5.1316779 0 1 0 -11.13752,0 5.5687646,5.1316779 0 0 0 11.13752,0 z m 19.91867,2.595163 a 5.5699169,5.1327398 0 1 0 -9.61009,-5.191792 5.5703193,5.1331106 0 0 0 9.61009,5.193258 z"
     fill="#1a2e35"
     id="path1926"
     style="stroke-width:1.52736" />
  <path
     d="m 649.62634,370.76558 c 0,0 18.37056,-29.0497 53.77199,-36.9994 35.40143,-7.95117 60.67408,1.22721 75.10513,8.25614 l -3.9395,3.67428 c 0,0 -40.01078,-17.74241 -70.83628,-9.79271 -30.8255,7.95117 -49.52541,37.3073 -49.52541,37.3073 z"
     fill="#ff4f5b"
     id="path1928"
     style="stroke-width:1.52736" />
  <path
     d="m 840.38198,390.64863 c -4.95779,20.3669 -22.2321,37.25012 -36.1731,31.14929 -17.22021,-7.51131 -16.44059,-18.06204 -11.47325,-38.42894 4.96893,-20.3669 17.01496,-31.85306 32.00608,-28.70221 14.99111,3.15085 20.60761,15.61497 15.64027,35.98186 z m -208.67593,15.98884 a 38.529487,35.505346 0 0 0 -18.10962,-0.33575 c -18.82561,4.13466 -17.58139,27.54684 -8.43906,39.47286 10.39608,13.56523 35.09594,19.07518 51.39969,12.87318 15.37457,-5.85598 11.37142,-22.4049 4.32773,-33.00695 -5.98245,-9.0948 -17.26635,-16.28501 -29.17874,-19.00334 z"
     fill="#c6edff"
     id="path1930"
     style="stroke-width:1.52736" />
  <path
     d="m 811.56283,449.74797 c -0.51392,8.69013 -1.45583,16.55479 -2.3532,22.77731 -0.53619,3.68602 -1.09466,6.78702 -1.44629,9.14319 a 63.202296,58.241611 0 0 1 -2.41843,9.06254 c -0.18616,0.52343 -0.38345,1.05713 -0.59188,1.59082 a 86.809085,79.995527 0 0 1 -3.81063,8.44821 H 677.38583 a 129.93996,119.74111 0 0 1 -3.98564,-4.46016 c -1.09466,-1.32984 -2.24342,-2.69926 -3.28398,-4.08922 a 118.42217,109.12733 0 0 1 -2.82416,-3.74465 162.59202,149.83033 0 0 1 -3.49241,-5.03491 108.1295,99.642522 0 0 1 -2.94667,-4.74314 c -0.78759,-1.34303 -1.54971,-2.6846 -2.28797,-4.02763 -0.0652,-0.11143 -0.11933,-0.23166 -0.18616,-0.35189 a 121.85412,112.28991 0 0 1 -3.96337,-8.05673 131.75379,121.41257 0 0 1 -2.55049,-6.22253 132.9455,122.51075 0 0 1 -2.97849,-8.99217 124.70851,114.92026 0 0 1 -3.02146,-14.09745 113.31481,104.42085 0 0 1 -0.33889,-25.28304 102.60528,94.551898 0 0 1 1.74063,-9.77805 99.356307,91.55793 0 0 1 9.32848,-23.47229 c 0.50278,-0.87532 1.03897,-1.7521 1.5863,-2.59663 a 75.580864,69.648598 0 0 1 5.11372,-7.04946 85.060493,78.38418 0 0 1 29.91222,-22.56472 112.50177,103.67162 0 0 1 4.01746,-1.74331 97.154259,89.528718 0 0 1 9.67852,-3.35171 c 1.79632,-0.5249 3.57037,-1.00728 5.34283,-1.36063 1.77405,-0.35189 3.22034,-0.64366 4.81778,-0.87532 18.2735,-2.7799 35.36483,1.4398 49.79589,9.78684 a 85.924447,79.180323 0 0 1 9.32848,6.25332 94.075527,86.691634 0 0 1 8.95616,7.82361 c 0.65552,0.66565 1.3015,1.32984 1.93793,2.01455 a 62.815665,57.885326 0 0 1 3.28398,3.7256 c 0.87509,1.00727 1.7295,2.08492 2.56163,3.15231 a 98.490762,90.760321 0 0 1 3.41604,4.72261 97.229039,89.597629 0 0 1 5.94585,10.13873 84.877519,78.215568 0 0 1 4.87187,12.64739 c 0.17502,0.60407 0.3389,1.19788 0.50278,1.80195 0.32936,1.19935 0.63644,2.41775 0.92124,3.64642 0.41527,1.83275 0.79872,3.69481 1.09466,5.56714 0.84327,4.69329 1.40014,9.46575 1.74063,14.23821 0.18616,2.63915 0.30549,5.27683 0.37232,7.88519 v 2.39576 c 0.26252,5.09502 0.0652,10.21057 -0.23071,15.07394 z"
     fill="url(#prefix__paint0_linear_532_2550)"
     id="path1932"
     style="fill:url(#prefix__paint0_linear_532_2550);stroke-width:1.52736" />
  <path
     d="m 731.03531,313.61188 c -7.21553,-2.05707 -14.33241,2.32539 -17.24248,8.34411 a 26.289342,24.225918 0 0 0 -2.07636,10.81904 c 0.12888,3.23296 0.28162,8.40423 2.96418,10.7692 a 1.3874179,1.2785209 0 0 0 1.16944,0.32549 1.3762804,1.2682575 0 0 0 0.99283,-0.65539 c 1.08193,-2.36497 0.15115,-5.29002 -0.18298,-7.78402 a 29.796073,27.457409 0 0 1 0.17343,-9.12266 c 1.36196,-5.7592 6.49,-10.929 13.41277,-9.44228 2.27046,0.4985 2.98486,-2.62596 0.78917,-3.25349 z m -36.59633,27.36797 a 24.720542,22.780251 0 0 0 -8.74932,-7.67405 23.481094,21.638086 0 0 0 -12.50586,-2.57904 c -3.52741,0.17595 -8.59499,0.8416 -10.64429,3.85756 -0.57438,0.84306 0.29753,1.72571 1.17898,1.76823 3.17261,0.12462 6.36908,-1.64361 9.65147,-1.73744 3.50036,-0.11143 6.96891,0.65392 10.05401,2.21688 a 20.049144,18.475507 0 0 1 7.51146,6.68585 c 1.51948,2.30778 2.20364,5.44837 4.18612,7.40427 a 1.1201172,1.0322003 0 0 0 0.43914,0.24779 1.0692028,0.98528215 0 0 0 0.98169,-0.15102 1.1392101,1.0497947 0 0 0 0.33254,-0.36801 c 1.4431,-3.08781 -0.62848,-7.08172 -2.43594,-9.67102 z m -20.49623,46.75252 a 7.471691,6.8852455 0 0 1 -0.36118,-3.4133 c 0.19411,-1.14656 0.70007,-2.23448 1.47493,-3.17431 a 9.6673754,8.9085928 0 0 1 3.00395,-2.3767 10.174928,9.3763086 0 0 1 3.84245,-1.11137 10.911596,10.055156 0 0 1 4.01428,0.33136 c 1.27127,0.35042 2.45026,0.91784 3.46855,1.67146 a 8.7509158,8.0640652 0 0 1 2.33092,2.66847 c 0.55051,1.02487 0.84804,2.14065 0.86873,3.27401 a 0.27207393,0.25071912 0 0 1 -0.0923,0.16715 0.29753114,0.27417822 0 0 1 -0.36118,0.0191 0.23070596,0.21259808 0 0 1 -0.0923,-0.12756 8.8861573,8.1886917 0 0 0 -3.79153,-4.69182 8.8097856,8.1183144 0 0 0 -6.02063,-1.18175 8.6888639,8.0068837 0 0 0 -5.28556,2.62888 10.138334,9.3425861 0 0 0 -2.50912,5.25777 0.23866134,0.21992905 0 0 1 -0.0286,0.0865 0.24820779,0.22872621 0 0 1 -0.0668,0.0689 0.27048285,0.24925292 0 0 1 -0.0923,0.0381 0.24343457,0.22432763 0 0 1 -0.10183,0.001 0.27048285,0.24925292 0 0 1 -0.12092,-0.0455 0.25138995,0.2316586 0 0 1 -0.0796,-0.0909 z m 67.50297,-14.62235 a 7.4032748,6.8221992 0 0 1 -0.35958,-6.64772 9.3809818,8.6446779 0 0 1 2.43752,-2.83708 10.038096,9.2502159 0 0 1 3.54969,-1.74038 10.817723,9.9686508 0 0 1 4.03338,-0.36215 c 1.33809,0.12463 2.63323,0.48385 3.80744,1.0542 a 8.9879861,8.2825281 0 0 1 2.9069,2.21102 c 0.77485,0.9105 1.31582,1.95297 1.5863,3.06141 a 0.2545721,0.23459099 0 0 1 -0.0398,0.16421 0.28002931,0.25805009 0 0 1 -0.15274,0.10264 0.29594006,0.27271202 0 0 1 -0.19252,-0.007 0.26889178,0.24778673 0 0 1 -0.1432,-0.11437 c -0.9976,-1.77702 -2.70164,-3.18017 -4.7955,-3.95286 a 9.0579934,8.3470406 0 0 0 -6.16382,-0.14075 c -2.00317,0.61873 -3.66902,1.86207 -4.67618,3.48954 a 9.8773974,9.1021303 0 0 0 -1.30309,5.573 0.2545721,0.23459099 0 0 1 -0.0668,0.16568 0.28321146,0.26098247 0 0 1 -0.18138,0.0792 0.2545721,0.23459099 0 0 1 -0.14161,-0.0161 0.22115951,0.20380092 0 0 1 -0.10501,-0.0821 z"
     fill="#2e2e2e"
     id="path1934"
     style="stroke-width:1.52736" />
  <path
     d="m 772.62603,379.77974 c 1.9252,-3.18311 1.30945,-6.88232 -1.37628,-8.262 -2.68574,-1.38116 -6.42477,0.0806 -8.35156,3.26228 -1.92679,3.18164 -1.30945,6.88084 1.37628,8.262 2.68574,1.37969 6.42477,-0.0806 8.35156,-3.26228 z m -92.06759,19.91531 c 0.58233,-2.36791 -2.07158,-4.94254 -5.92835,-5.74748 -3.85677,-0.80494 -7.45578,0.46185 -8.03811,2.83122 -0.58234,2.36937 2.07158,4.94254 5.92834,5.74894 3.85677,0.80494 7.45419,-0.46331 8.03812,-2.83268 z"
     fill="#eb8757"
     id="path1936"
     style="stroke-width:1.52736" />
  <path
     d="m 811.91605,500.77004 h -19.78184 a 5.6355898,5.193258 0 0 1 -0.65075,-2.02188 11.638718,10.725207 0 0 1 -0.1782,-1.05419 c -0.61734,-5.00266 2.72392,-9.76192 8.41679,-8.42475 0.52982,0.12756 1.04533,0.3079 1.53538,0.53662 a 13.878953,12.789607 0 0 1 2.34207,1.32691 c 0.34844,0.23166 0.6953,0.49557 1.05329,0.76975 a 29.091226,26.807885 0 0 1 7.26326,8.86754 z"
     fill="url(#prefix__paint1_linear_532_2550)"
     id="path1938"
     style="fill:url(#prefix__paint1_linear_532_2550);stroke-width:1.52736" />
  <path
     d="m 808.7339,409.66663 c -16.046,9.72673 -41.7005,23.54707 -70.22372,32.21814 -31.11666,9.46575 -68.26509,9.65635 -90.63562,8.60216 a 123.99411,114.26194 0 0 1 -3.02145,-14.052 c 20.59807,1.15389 58.53408,1.56589 88.89658,-7.6682 29.69265,-9.03321 56.66138,-24.3696 71.30723,-33.56263 a 114.1724,105.21113 0 0 1 3.67698,14.46253 z m 1.21558,39.60629 c -16.4374,10.81171 -41.29955,25.38861 -63.14184,30.79447 -23.0865,5.73428 -58.30337,7.19754 -80.50683,7.50691 a 137.00116,126.24807 0 0 1 -8.71909,-13.70012 c 19.90276,-0.0792 60.79818,-0.99554 85.23551,-7.08904 23.98069,-5.97328 53.40922,-25.11004 67.41546,-34.9262 0.20684,6.00406 0.0446,11.87763 -0.28321,17.41398 z m -1.21558,22.17325 c -0.53301,3.63469 -1.0883,6.69317 -1.43674,9.01709 a 61.72896,56.883916 0 0 1 -2.40412,8.93938 l -1.60858,0.84306 -3.61174,1.88699 a 586.83801,540.77768 0 0 1 -8.32291,4.30035 c -1.85997,0.99408 -3.75335,1.91778 -5.66742,2.87081 h -32.63614 l 0.1957,-0.0792 c 9.20279,-3.97338 20.55034,-9.53466 31.04825,-14.89799 a 1187.7427,1094.518 0 0 0 21.57181,-11.31169 z"
     fill="#2e2e2e"
     id="path1940"
     style="stroke-width:1.52736" />
  <path
     d="m 786.23132,412.36149 c 0.20206,-0.65978 0.40572,-1.30051 0.60938,-1.97056 1.13443,-3.70507 1.78837,-6.72983 6.42317,-3.65522 3.76767,2.50279 5.26646,6.89697 5.74856,11.02431 0.57756,4.92641 -0.0748,10.98619 -4.99916,14.50359 -4.20681,3.00423 -10.41678,-0.84746 -10.70476,-5.5774 -0.28958,-4.72848 1.46697,-9.76339 2.92281,-14.32472 z"
     fill="url(#prefix__paint2_linear_532_2550)"
     id="path1942"
     style="fill:url(#prefix__paint2_linear_532_2550);stroke-width:1.52736" />
  <path
     d="m 670.29918,473.81993 v 2.03948 c 0,3.98365 0.28958,7.13303 -5.09939,5.32961 -4.39933,-1.49845 -7.16303,-5.50409 -8.87343,-9.45841 -2.04294,-4.749 -3.2267,-10.94514 0.463,-15.73373 3.16147,-4.07748 10.32608,-1.88552 11.97125,2.75058 1.64517,4.63757 1.57039,10.15046 1.53857,15.07247 z"
     fill="url(#prefix__paint3_linear_532_2550)"
     id="path1944"
     style="fill:url(#prefix__paint3_linear_532_2550);stroke-width:1.52736" />
  <path
     d="m 749.83069,348.96035 c -4.65549,-2.63769 -13.01182,-3.78132 -15.75961,-4.20358 a 65.833935,60.666696 0 0 0 -30.53433,1.83421 c -6.05722,1.75063 -39.35048,17.63098 -27.52242,26.59528 3.82176,2.88547 11.69599,1.03074 15.4748,-0.92663 8.13676,-4.12294 17.52251,-6.58468 26.3498,-8.95551 9.85671,-2.64795 19.96641,-2.87521 29.71334,-5.02758 a 7.1614313,6.5993377 0 0 0 2.94508,-1.19641 7.3348585,6.7591528 0 0 0 2.1034,-2.277 c 1.22672,-2.46321 -0.20684,-4.36926 -2.77006,-5.84278 z"
     fill="#ffffff"
     opacity="0.3"
     id="path1946"
     style="stroke-width:1.52736" />
  <path
     d="m 807.09986,450.71419 a 141.26842,130.1804 0 0 1 -2.38502,22.24509 110.90911,102.20396 0 0 1 -4.74777,16.01377 66.841086,61.594796 0 0 1 -1.32218,3.14498 c -0.9817,2.22275 -2.05567,4.39858 -3.22352,6.52896 a 21.956843,20.233473 0 0 1 -0.3755,0.65686 h -22.90671 a 62.233331,57.348699 0 0 0 6.14632,-7.14623 98.22187,90.512534 0 0 0 5.12486,-7.8632 c 4.84482,-8.32944 8.4868,-17.30695 12.01103,-26.25513 1.78359,-4.52907 3.54651,-9.04641 5.37306,-13.47578 1.60062,-3.77252 3.70562,-4.68743 5.01666,-3.28428 0.891,1.2536 1.32059,2.74032 1.22513,4.24023 0.12888,1.72131 0.12888,3.45289 0.0636,5.19473 z"
     fill="#2e2e2e"
     opacity="0.4"
     id="path1948"
     style="stroke-width:1.52736" />
  <path
     d="m 740.99544,387.63414 a 24.534386,22.608706 0 0 1 0.65871,9.36164 c -0.87191,5.20206 -3.96814,9.74579 -9.67056,11.71489 -2.97531,1.10991 -6.2402,1.42807 -9.40962,0.9193 a 17.014963,15.679475 0 0 1 -8.47884,-3.79744 22.48508,20.720249 0 0 1 -6.83049,-9.95692 c -1.85678,-6.20053 3.74539,-6.46298 10.83364,-4.88829 a 12.828843,11.82192 0 0 0 6.81616,-0.1906 12.61723,11.626916 0 0 0 5.7056,-3.37371 c 4.34841,-4.55547 8.48521,-6.00993 10.3754,0.21113 z"
     fill="#2e2e2e"
     id="path1950"
     style="stroke-width:1.52736" />
  <path
     d="m 741.90872,397.42978 c -0.856,5.02611 -3.89495,9.41736 -9.49235,11.32048 a 17.140657,15.795304 0 0 1 -9.23461,0.88705 16.81926,15.499133 0 0 1 -8.32132,-3.66842 c 3.29352,-4.22117 8.20517,-7.2298 13.81531,-8.45994 a 25.699053,23.68196 0 0 1 13.23297,-0.0792 z"
     fill="#e24450"
     id="path1952"
     style="stroke-width:1.52736" />
  <path
     d="m 793.13977,345.30073 c 5.71514,5.356 5.96335,13.57402 0.57119,18.35967 -5.39056,4.78713 -26.0825,-14.61501 -20.6808,-19.40214 5.40329,-4.78565 14.39605,-4.31354 20.10961,1.04247 z"
     fill="#ff4f5b"
     id="path1954"
     style="stroke-width:1.52736" />
  <path
     d="m 764.18378,345.32565 27.02919,26.41935 c 2.80825,-2.60103 1.84724,-7.87493 -2.13681,-11.78673 l -12.55836,-12.2955 c -4.00474,-3.87222 -9.52577,-4.96894 -12.33402,-2.33712 z"
     fill="#2e2e2e"
     id="path1956"
     style="stroke-width:1.52736" />
  <path
     d="m 636.9757,375.34743 c -3.63402,6.87352 -1.13922,14.97864 5.58944,18.11629 6.72866,3.13912 19.87572,-21.70993 13.1582,-24.86811 -6.71911,-3.15965 -15.11522,-0.11143 -18.74764,6.75182 z"
     fill="#ff4f5b"
     id="path1958"
     style="stroke-width:1.52736" />
  <path
     d="m 663.94602,369.31845 -17.42228,33.21661 c -3.53696,-1.66559 -4.31341,-6.99961 -1.75814,-11.91282 l 8.10812,-15.48007 c 2.56641,-4.87363 7.53534,-7.49958 11.0723,-5.82372 z m 105.01099,34.68281 a 7.9561775,7.3317051 0 1 0 -0.002,-14.66341 7.9561775,7.3317051 0 0 0 0.002,14.66341 z"
     fill="#2e2e2e"
     id="path1960"
     style="stroke-width:1.52736" />
  <path
     d="m 773.74455,395.2041 a 1.6022131,1.476457 0 0 1 -1.53538,-1.06006 1.6324436,1.5043147 0 0 1 0.63324,-1.67733 c 15.66096,-9.81763 13.43027,-27.64508 13.408,-27.82396 a 1.6547186,1.5248414 0 0 1 0.33094,-1.1143 1.6165328,1.4896528 0 0 1 2.27524,-0.26099 c 0.3389,0.24633 0.56006,0.60847 0.61256,1.00581 0.11774,0.79761 2.48845,19.83467 -14.80336,30.68011 a 1.5831202,1.4588627 0 0 1 -0.92124,0.25072 z"
     fill="#2e2e2e"
     id="path1962"
     style="stroke-width:1.52736" />
  <path
     d="m 398.59717,220.83454 c -16.19397,12.55648 -39.4714,16.07095 -46.3353,4.30914 -8.40884,-14.55637 -1.36992,-21.98997 14.82405,-34.53619 16.19397,-12.54622 32.30042,-14.83641 41.6639,-4.66103 9.36348,10.17685 6.04132,22.34039 -10.15265,34.88808 z M 234.61774,124.77099 a 36.733162,33.850013 0 0 0 -13.37936,-9.7018 c -16.62674,-6.79288 -29.75311,11.06976 -30.0586,24.64672 -0.35004,15.41556 14.87179,32.36182 30.84459,36.30735 15.05635,3.72267 22.0014,-10.55659 23.11356,-22.0193 0.93873,-9.83082 -3.20443,-21.01055 -10.52019,-29.23297 z"
     fill="#c6edff"
     id="path1964"
     style="stroke-width:1.52736" />
  <path
     d="m 375.37701,186.47429 a 91.545717,84.360386 0 0 1 -1.75495,10.64163 78.818703,72.632302 0 0 1 -2.76211,8.75465 85.47099,78.762458 0 0 1 -1.32696,3.22122 c -0.47096,1.06886 -0.95464,2.13918 -1.46856,3.2095 a 114.99499,105.96915 0 0 1 -3.34444,6.34129 138.00512,127.17324 0 0 1 -4.70322,7.59342 146.43942,134.94553 0 0 1 -2.69687,3.93819 c -1.47016,2.01895 -2.99282,4.09948 -4.55048,6.05831 -0.89896,1.15097 -1.79792,2.2814 -2.71915,3.40157 l -0.0652,0.0806 a 212.53588,195.85415 0 0 1 -3.28876,3.9382 l -1.53538,1.77703 -0.6253,0.7067 -1.34764,1.51458 h -16.69837 c -0.47095,0.26245 -0.93078,0.54542 -1.39219,0.81814 a 288.9266,266.24904 0 0 1 -9.86626,-0.79761 l -72.64374,0.12169 h -25.46834 a 103.94497,95.786433 0 0 1 -3.29035,-9.9056 118.43171,109.13613 0 0 1 -1.64358,-7.17849 129.55333,119.38482 0 0 1 -1.91884,-18.28636 v -4.7754 c 0,-1.42367 0.0875,-2.84735 0.17502,-4.27102 a 131.0919,120.80263 0 0 1 1.96339,-14.8628 c 0,-0.1217 0.0541,-0.24339 0.0764,-0.36362 a 125.14923,115.3264 0 0 1 3.64038,-13.29838 c 0.0764,-0.25218 0.16388,-0.50437 0.25139,-0.75655 a 121.70933,112.15649 0 0 1 3.28876,-8.25907 c 0.64756,-1.43394 1.31582,-2.86788 2.01748,-4.27102 0.43914,-0.85919 0.87668,-1.70665 1.33809,-2.55558 0.45983,-0.84746 0.84327,-1.56443 1.28241,-2.34151 0.2848,-0.49557 0.56961,-1.01021 0.86555,-1.48526 0.29594,-0.47358 0.58233,-1.00874 0.87827,-1.46326 a 106.30772,97.96373 0 0 1 15.20591,-19.06345 94.791511,87.351421 0 0 1 12.06035,-9.98478 c 0.37231,-0.26391 0.75576,-0.5161 1.09625,-0.76828 a 90.171028,83.093594 0 0 1 10.7334,-6.2196 c 0.77804,-0.3944 1.57835,-0.77708 2.37866,-1.1407 0.80031,-0.36361 1.49084,-0.68764 2.2466,-1.01167 a 71.558625,65.942061 0 0 1 6.95141,-2.58343 57.843554,53.303471 0 0 1 2.66346,-0.79761 57.9422,53.394375 0 0 1 4.11134,-1.01021 76.653249,70.636813 0 0 1 10.55837,-1.62454 c 1.43674,-0.13196 2.8719,-0.22286 4.31977,-0.26392 0.97533,0 1.95066,-0.0704 2.92758,-0.0704 a 82.990504,76.476662 0 0 1 15.41434,1.28292 c 1.35878,0.23166 2.71915,0.49411 4.06679,0.78735 a 86.896594,80.076168 0 0 1 9.27597,2.494 c 1.65154,0.53809 3.25534,1.12457 4.81301,1.7565 1.4256,0.57621 2.79552,1.18175 4.13361,1.82834 16.30216,7.86466 26.78258,20.95191 32.18746,35.75313 0.28639,0.77709 0.56006,1.55417 0.81145,2.34298 a 89.78917,82.741708 0 0 1 3.37785,31.04812 z"
     fill="url(#prefix__paint4_linear_532_2550)"
     id="path1966"
     style="fill:url(#prefix__paint4_linear_532_2550);stroke-width:1.52736" />
  <path
     d="m 364.23948,106.33361 c -4.24817,-5.17567 -12.48835,-5.59793 -18.51534,-2.66114 a 24.637806,22.704009 0 0 0 -8.39611,6.87351 c -1.93475,2.44561 -5.07712,6.30463 -4.47251,9.4071 a 1.2442211,1.1465635 0 0 0 0.23707,0.48238 1.3158195,1.2125422 0 0 0 0.45345,0.34162 1.3810536,1.2726561 0 0 0 1.16467,0.0293 c 2.3707,-1.15829 3.45582,-3.7989 4.76368,-5.79146 a 27.307631,25.164282 0 0 1 5.86948,-6.59934 c 4.66185,-3.53499 11.90761,-4.68449 16.25761,-0.088 1.43038,1.52044 3.93473,-0.41347 2.638,-1.99402 z m -42.65355,0.53369 a 22.243237,20.497388 0 0 0 -1.96021,-9.977453 21.934568,20.212946 0 0 0 -7.77399,-8.200418 c -2.73188,-1.66706 -6.90527,-3.771048 -10.21948,-2.653809 a 1.1837603,1.0908481 0 0 0 -0.67143,0.884115 1.156712,1.0659228 0 0 0 0.50596,0.97062 c 2.28001,1.715444 5.71514,2.065864 8.21472,3.672814 a 18.22418,16.793782 0 0 1 6.1686,6.700508 17.88369,16.480017 0 0 1 1.60699,8.603623 c -0.24344,2.42509 -1.60858,4.98946 -1.28877,7.42334 a 1.073976,0.98968073 0 0 0 0.56006,0.64366 1.1201172,1.0322003 0 0 0 0.90373,0.044 c 2.90689,-1.41634 3.7438,-5.32668 3.95382,-8.11098 z"
     fill="#2e2e2e"
     id="path1968"
     style="stroke-width:1.52736" />
  <path
     d="m 354.32549,176.13909 c 3.61652,-1.47352 5.68492,-4.46896 4.61889,-6.69024 -1.06602,-2.22128 -4.86232,-2.82829 -8.47884,-1.35476 -3.61651,1.47205 -5.68491,4.46749 -4.61889,6.69024 1.06602,2.22128 4.86233,2.82829 8.47884,1.35476 z m -81.8863,-31.04665 c 1.677,-1.30785 1.19649,-4.37219 -1.07397,-6.84419 -2.27047,-2.47347 -5.47012,-3.4177 -7.14711,-2.11132 -1.677,1.30784 -1.19649,4.37219 1.07397,6.84566 2.26888,2.472 5.47012,3.41769 7.14711,2.10985 z"
     fill="#eb8757"
     id="path1970"
     style="stroke-width:1.52736" />
  <path
     d="m 226.17708,247.55445 h -4.77323 a 6.1351875,5.6536428 0 0 1 4.61094,-0.25218 z"
     fill="url(#prefix__paint5_linear_532_2550)"
     id="path1972"
     style="fill:url(#prefix__paint5_linear_532_2550);stroke-width:1.52736" />
  <path
     d="m 364.81704,217.67929 c -17.93142,-1.00434 -45.53976,-3.9294 -72.12982,-12.15914 -29.01167,-8.97311 -56.82844,-27.98524 -72.87444,-40.29541 a 115.66801,106.58935 0 0 1 6.37862,-12.05797 c 14.66494,11.4759 42.74425,31.33109 71.0113,40.09453 27.6863,8.56111 57.20075,11.05363 73.76226,11.71635 a 106.82959,98.444642 0 0 1 -6.14792,12.70164 z m -12.94499,18.51656 c -0.89418,1.15389 -1.80109,2.28873 -2.70642,3.41183 l -0.0652,0.0821 c -1.09148,1.35036 -2.18137,2.66554 -3.27284,3.94846 l -1.52744,1.78289 -0.62211,0.70817 -1.33173,1.52044 h -16.62833 c -0.46936,0.26245 -0.92759,0.54689 -1.38582,0.81961 a 282.45092,260.28163 0 0 1 -9.82012,-0.80054 c -13.68325,-1.34597 -28.02044,-3.78718 -39.5971,-8.10072 -20.73172,-7.70632 -47.89933,-24.96342 -64.64859,-36.30589 0.31822,-5.00119 0.97056,-9.98038 1.95385,-14.90679 14.89246,10.31907 45.96776,30.92789 67.92142,39.09019 20.15257,7.47318 51.02102,8.6784 68.39239,8.69892 z m -139.98283,-5.25777 c 8.21791,5.25777 19.32202,12.01252 30.19862,17.53128 h -25.31561 a 109.83513,101.21428 0 0 1 -3.26966,-10.19445 121.71251,112.15942 0 0 1 -1.64517,-7.39988 z"
     fill="#2e2e2e"
     id="path1974"
     style="stroke-width:1.52736" />
  <path
     d="m 217.42457,154.21216 -1.0867,-1.63627 c -2.17341,-3.15965 -3.63879,-5.80466 -6.90845,-1.72864 -2.66187,3.3136 -2.68255,7.82214 -1.8902,11.77353 0.95465,4.75487 3.37785,10.22084 8.87502,12.20753 4.71436,1.70812 9.17892,-3.52033 7.97288,-7.98782 -1.20603,-4.46603 -4.27999,-8.75757 -6.96255,-12.62833 z"
     fill="url(#prefix__paint6_linear_532_2550)"
     id="path1976"
     style="fill:url(#prefix__paint6_linear_532_2550);stroke-width:1.52736" />
  <path
     d="m 350.5801,244.69977 c 0.14797,0.63193 0.29594,1.2536 0.43277,1.865 0.82259,3.56725 1.23468,6.46298 5.67537,3.79744 3.60856,-2.1641 5.27441,-6.26358 5.93948,-10.1314 0.83373,-4.63903 0.59029,-10.41144 -3.70243,-14.03 -3.6722,-3.06581 -9.61169,0.25072 -10.11765,4.71967 -0.50596,4.47043 0.71758,9.34112 1.77246,13.77929 z"
     fill="url(#prefix__paint7_linear_532_2550)"
     id="path1978"
     style="fill:url(#prefix__paint7_linear_532_2550);stroke-width:1.52736" />
  <path
     d="m 356.01044,142.45769 c -1.88701,-4.38099 -7.40327,-9.59917 -9.19164,-11.35567 A 62.312885,57.422009 0 0 0 323.08154,116.4782 c -5.5274,-1.87966 -39.65438,-7.58902 -36.19856,5.22845 1.08989,4.08481 8.07948,6.86178 11.99353,7.41454 8.48361,1.20521 16.9004,4.29888 24.86055,7.1477 8.89571,3.21682 16.51855,8.33384 25.01171,11.84684 a 6.6618336,6.1389529 0 0 0 5.81061,0.0718 c 2.42162,-1.16415 2.48685,-3.31946 1.45106,-5.72988 z"
     fill="#ffffff"
     opacity="0.3"
     id="path1980"
     style="stroke-width:1.52736" />
  <path
     d="m 343.91668,241.1164 a 6.2815665,5.7885326 0 0 1 -1.7486,3.59803 c -0.66984,0.76243 -1.35241,1.52631 -2.05567,2.28873 h -13.69757 c 3.8154,-2.06293 7.62126,-4.11707 11.44779,-6.06564 3.82813,-1.95004 5.92835,-1.45153 6.05405,0.17888 z"
     fill="#2e2e2e"
     opacity="0.4"
     id="path1982"
     style="stroke-width:1.52736" />
  <path
     d="m 311.57965,129.04641 c -2.46457,9.06988 -14.18762,15.74253 -24.45165,13.37609 -10.26402,-2.36644 -16.75084,-13.45819 -14.28626,-22.53833 2.46298,-9.08014 14.36423,-13.9479 24.59484,-11.56974 10.23221,2.3767 16.5631,11.66211 14.14307,20.73198 z"
     fill="#ffffff"
     id="path1984"
     style="stroke-width:1.52736" />
  <path
     d="m 307.92655,114.9211 a 20.238482,18.649984 0 0 0 -7.56557,-5.44397 20.628295,19.009201 0 0 0 -3.51787,-1.12457 22.645779,20.868335 0 0 0 -20.9115,4.89122 16.890859,15.565112 0 0 0 -4.24658,6.02605 c -0.15275,0.39588 -0.28481,0.79761 -0.39141,1.20521 -0.0652,0.26099 -0.13047,0.51317 -0.18616,0.77415 -2.12249,9.62117 4.8671,20.2672 15.04522,22.61751 1.47015,0.34016 2.98167,0.50877 4.49638,0.50291 a 21.975936,20.251067 0 0 0 11.25686,-3.01303 22.295742,20.545772 0 0 0 5.92198,-4.72115 l 0.27207,-0.30057 a 19.267926,17.755605 0 0 0 1.69927,-2.3503 17.934604,16.526935 0 0 0 1.76291,-4.0467 18.90516,17.421313 0 0 0 -3.6356,-15.01676 z m 0.5871,17.00345 a 19.329978,17.812787 0 0 1 -7.72944,7.7547 18.812878,17.336274 0 0 1 -14.15262,2.23888 c -9.16619,-2.11865 -15.62118,-12.30283 -13.28071,-20.96071 a 15.993492,14.738179 0 0 1 9.27438,-9.53172 c 2.70483,-1.12164 5.63559,-1.70079 8.60136,-1.69785 0.62052,0 1.25217,0 1.88383,0.0806 1.06443,0.085 2.1209,0.24925 3.15669,0.49264 3.21398,0.73309 6.15269,2.25793 8.50271,4.40884 a 17.127929,15.783575 0 0 1 5.12645,11.12841 16.421491,15.132585 0 0 1 -0.49005,3.64642 14.550386,13.408341 0 0 1 -0.8926,2.43975 z"
     fill="#2e2e2e"
     id="path1986"
     style="stroke-width:1.52736" />
  <path
     d="m 301.11515,128.38369 a 9.5464536,8.7971621 0 1 0 -18.52012,-4.27542 9.5464536,8.7971621 0 0 0 18.52012,4.27542 z"
     fill="#2e2e2e"
     id="path1988"
     style="stroke-width:1.52736" />
  <path
     d="m 296.97994,126.77528 a 2.3866134,2.1992905 0 1 0 0,-4.39858 2.3866134,2.1992905 0 0 0 0,4.39858 z m -1.80427,7.37789 a 3.1821512,2.9323874 0 1 0 -6.17179,-1.42661 3.1821512,2.9323874 0 0 0 6.17179,1.42661 z m 67.31363,15.41409 c -2.46298,9.08161 -14.17807,15.75572 -24.45483,13.37755 -10.27676,-2.3767 -16.7413,-13.45965 -14.27672,-22.53246 2.46298,-9.07281 14.36582,-13.94937 24.59803,-11.57267 10.23379,2.37817 16.56468,11.65478 14.13352,20.72758 z"
     fill="#ffffff"
     id="path1990"
     style="stroke-width:1.52736" />
  <path
     d="m 361.64126,135.56071 a 20.290987,18.698368 0 0 0 -12.33243,-8.17256 22.744426,20.959239 0 0 0 -5.70241,-0.6114 23.627473,21.772976 0 0 0 -10.03174,2.15823 18.531258,17.076758 0 0 0 -8.26563,7.02747 c -0.24821,0.38854 -0.46937,0.79175 -0.66507,1.20521 a 16.09373,14.830549 0 0 0 -0.89419,2.37963 c 0,0.10997 0,0.21993 -0.0764,0.3299 a 21.337915,19.663123 0 0 0 2.51867,13.96549 20.341902,18.745286 0 0 0 12.44221,9.0948 c 1.45107,0.32843 2.9419,0.49411 4.43751,0.49264 a 22.752381,20.96657 0 0 0 19.68161,-11.20465 c 0.33731,-0.6114 0.6237,-1.24626 0.86236,-1.89725 0.16229,-0.43106 0.3039,-0.87239 0.42482,-1.31518 a 18.59331,17.133939 0 0 0 -2.39934,-13.45233 z m -22.5169,25.39008 a 18.166901,16.740999 0 0 1 -11.07866,-8.14177 19.076997,17.579662 0 0 1 -2.18137,-12.81014 13.738938,12.660582 0 0 1 1.4622,-3.3136 16.637878,15.331987 0 0 1 7.20757,-5.94248 21.267908,19.598611 0 0 1 9.30143,-1.95884 c 0.78281,-0.001 1.56562,0.0425 2.34365,0.13196 0.88623,0.0777 1.76451,0.21993 2.62846,0.4208 a 18.216225,16.786451 0 0 1 11.02297,7.28698 16.496272,15.201496 0 0 1 2.09386,11.89817 c -2.32138,8.55377 -13.41118,14.58716 -22.80011,12.42892 z"
     fill="#2e2e2e"
     id="path1992"
     style="stroke-width:1.52736" />
  <path
     d="m 352.02957,147.44421 a 9.5464536,8.7971621 0 1 0 -18.52012,-4.27542 9.5464536,8.7971621 0 0 0 18.52012,4.27542 z"
     fill="#2e2e2e"
     id="path1994"
     style="stroke-width:1.52736" />
  <path
     d="m 347.89436,147.30199 a 2.3874091,2.2000238 0 1 0 -0.002,-4.40004 2.3874091,2.2000238 0 0 0 0.002,4.40004 z m -0.2132,5.9117 a 3.1822635,2.9324909 0 1 0 -6.17337,-1.42661 3.1822635,2.9324909 0 0 0 6.17337,1.42661 z"
     fill="#ffffff"
     id="path1996"
     style="stroke-width:1.52736" />
  <path
     d="m 322.85402,139.97102 c -1.15831,-2.62448 -2.92281,-4.31647 -5.22828,-5.04663 -4.32931,-1.33424 -9.17891,0.93543 -9.22187,0.99994 l -1.08193,-1.63481 c 0.23866,-0.11143 5.78992,-2.74765 11.00706,-1.12163 2.93394,0.93543 5.13122,2.98077 6.49477,6.13015 z m 55.11167,24.9253 a 1.1662584,1.07472 0 0 1 -0.63802,-0.17741 1.0564742,0.9735526 0 0 1 -0.40572,-0.46185 0.9785115,0.90170911 0 0 1 -0.0239,-0.57622 1.0341991,0.95302589 0 0 1 0.36436,-0.48531 c 1.00556,-0.7111 2.79234,-2.80629 2.54572,-4.68009 a 3.3778535,3.1127292 0 0 0 -0.81941,-1.53657 c -0.42799,-0.43986 -0.98646,-0.77268 -1.61494,-0.96329 -5.51785,-2.28726 -14.9211,-3.79597 -15.02134,-3.84436 a 1.1487566,1.0585918 0 0 1 -0.73031,-0.4032 1.0071509,0.9281006 0 0 1 -0.0239,-1.08498 1.1169351,1.029268 0 0 1 0.7128,-0.42667 1.2251282,1.1289691 0 0 1 0.44391,-0.006 c 0.40095,0.066 9.8058,1.57616 15.6355,3.96899 0.97056,0.32402 1.82337,0.86505 2.46935,1.56736 0.64598,0.70377 1.06284,1.54243 1.20444,2.42948 0.34686,2.5673 -1.75336,5.28709 -3.3508,6.4014 a 1.158303,1.067389 0 0 1 -0.74781,0.27858 z M 252.69554,125.30909 a 1.1169351,1.029268 0 0 1 -0.98965,-0.55569 c -0.92283,-1.62454 -2.31661,-4.74607 -1.31582,-7.43947 a 5.7278722,5.2782972 0 0 1 3.2617,-3.14352 c 4.60139,-1.92804 10.77795,1.26679 15.75165,3.82383 1.41765,0.7331 2.75575,1.43687 3.83609,1.87673 a 1.1232994,1.0351327 0 0 1 0.59347,0.58062 1.1408012,1.0512609 0 0 1 -0.64439,1.35622 1.1105708,1.0234032 0 0 1 -0.86077,-0.0191 c -1.12489,-0.48384 -2.55368,-1.20521 -4.01588,-1.9603 -4.50115,-2.33711 -10.1256,-5.23871 -13.73734,-3.75199 a 3.5321878,3.25495 0 0 0 -2.04772,1.95004 c -0.52823,1.42514 -0.10023,3.5306 1.12489,5.77387 a 1.1328458,1.0439299 0 0 1 -0.45982,1.42514 1.2521765,1.1538944 0 0 1 -0.49641,0.0836 z"
     fill="#2e2e2e"
     id="path1998"
     style="stroke-width:1.52736" />
  <path
     d="m 297.44295,160.49774 c 0,0 -6.65706,5.54661 -3.67061,9.49213 l 0.0811,0.12463 a 5.7326454,5.2826958 0 0 0 7.67217,1.28292 5.6499095,5.2064537 0 0 0 1.9252,-1.89725 l 2.28001,-3.9338 z"
     fill="#ffffff"
     id="path2000"
     style="stroke-width:1.52736" />
  <path
     d="m 305.56221,165.23647 -4.50911,-2.73885 -3.16624,-1.91484 a 0.53619248,0.49410727 0 0 0 -0.60143,0 c -0.0748,0.0674 -0.63325,0.53662 -1.34128,1.27412 -1.72154,1.81954 -4.27522,5.28563 -2.11135,8.09192 l 0.0843,0.1041 c 0.52347,0.67592 1.22036,1.22574 2.02863,1.60402 a 5.7199168,5.2709663 0 0 0 2.61732,0.57035 h 0.36912 a 5.809017,5.3530731 0 0 0 2.7112,-0.8328 5.6849131,5.23871 0 0 0 1.93315,-1.91485 l 1.42561,-2.43242 v -0.0586 l 0.27525,-0.45892 0.38982,-0.66126 a 0.41686181,0.38414274 0 0 0 0.0525,-0.20086 0.47732268,0.4398581 0 0 0 -0.15751,-0.43107 z m -1.18217,0.90025 -1.70086,2.87374 c -0.37868,0.65245 -0.93874,1.20374 -1.6229,1.60401 a 4.778,4.4029796 0 0 1 -4.57911,0.26978 4.6586694,4.2930151 0 0 1 -1.78996,-1.36649 l -0.0732,-0.0968 c -1.74223,-2.30779 0.63324,-5.39999 2.175,-7.01867 0.34844,-0.35482 0.64438,-0.64072 0.8544,-0.8328 l 6.93709,4.21384 z"
     fill="#2e2e2e"
     id="path2002"
     style="stroke-width:1.52736" />
  <path
     d="m 306.0618,166.36251 c 0,0 -4.20521,6.65066 -0.17501,9.31766 l 0.11933,0.0762 a 5.6037683,5.1639341 0 0 0 2.53776,0.8416 5.7087793,5.2607029 0 0 0 2.68256,-0.33869 5.451025,5.0231795 0 0 0 2.16863,-1.43541 c 0.57438,-0.63046 0.95942,-1.37968 1.11853,-2.17583 l 0.76371,-4.06282 z"
     fill="#ffffff"
     id="path2004"
     style="stroke-width:1.52736" />
  <path
     d="m 316.75065,168.82718 a 0.61733733,0.56888315 0 0 0 -0.30708,-0.18034 l -3.62447,-0.87238 h -0.13524 l -5.84084,-1.39435 a 0.59824443,0.55128882 0 0 0 -0.57915,0.14955 l -0.0684,0.0806 c 0,0.0601 -0.21638,0.35188 -0.45504,0.80201 -0.0796,0.15101 -0.17025,0.32109 -0.2498,0.50143 v 0.0601 c -1.13603,2.25647 -2.66983,6.74889 0.71598,9.02442 l 0.1257,0.0909 a 6.2656557,5.7738707 0 0 0 3.6006,1.00288 6.5218189,6.0099279 0 0 0 2.34047,-0.412 6.1622358,5.6785681 0 0 0 2.50913,-1.65826 5.8042438,5.3486745 0 0 0 1.26331,-2.53212 l 0.55688,-2.93825 0.2498,-1.29319 a 0.55369431,0.5102354 0 0 0 -0.10183,-0.43106 z m -1.25058,1.46326 -0.56802,3.00863 a 4.7907286,4.4147092 0 0 1 -1.05329,2.07907 c -0.54733,0.6026 -1.26013,1.07032 -2.06999,1.36062 a 5.1598582,4.7548661 0 0 1 -2.49322,0.29911 5.0628026,4.6654283 0 0 1 -2.33569,-0.82107 l -0.3405,0.40027 0.2148,-0.48091 c -2.99918,-2.00575 -0.98806,-6.58761 -0.0573,-8.34264 0.0684,-0.14076 0.13683,-0.26099 0.19411,-0.36069 l 8.65705,2.0864 z"
     fill="#2e2e2e"
     id="path2006"
     style="stroke-width:1.52736" />
  <path
     d="m 286.91957,154.63296 a 282.45251,260.2831 0 0 0 10.29585,5.92489 92.979276,85.681426 0 0 0 10.66498,5.12728 c 1.8186,0.75509 3.68175,1.40901 5.57991,1.95737 a 41.161126,37.93043 0 0 0 5.75492,1.36356 34.892288,32.153627 0 0 0 5.90448,0.57475 30.478644,28.086406 0 0 0 5.93789,-0.50291 l 0.13047,0.43106 a 27.496969,25.338759 0 0 1 -12.2115,1.02487 46.001178,42.390592 0 0 1 -11.89648,-2.99397 66.288983,61.086027 0 0 1 -10.91318,-5.31055 53.076691,48.910755 0 0 1 -9.52896,-7.25766 z"
     fill="#2e2e2e"
     id="path2008"
     style="stroke-width:1.52736" />
  <path
     d="M 708.85099,252.18531 H 561.33441 c -11.27436,-5.63018 -21.13744,-12.30869 -28.57413,-20.57802 -11.79941,-13.09458 -12.3897,-31.85893 -11.03411,-44.9623 0.30708,-3.07314 0.74463,-5.84278 1.14876,-8.15937 4.04611,-22.66295 28.58527,-43.31136 59.63033,-51.52938 1.31264,-0.34309 2.63482,-0.67445 3.96974,-1.00874 a 101.92589,93.925833 0 0 1 36.4579,-2.1553 c 1.45425,0.15101 2.90849,0.34309 4.37387,0.56448 l 0.9626,0.16128 a 84.280866,77.665745 0 0 1 34.40224,14.00069 c 0.41527,0.26098 0.83213,0.53369 1.23626,0.8152 a 110.87569,102.17317 0 0 1 9.10891,6.96002 c 0.97374,0.82694 1.9252,1.66267 2.86553,2.51892 a 127.51994,117.51102 0 0 1 9.47008,9.59917 c 1.30468,1.45593 2.56163,2.93679 3.77244,4.4411 0.41527,0.51464 0.83054,1.00728 1.22513,1.55124 0.39299,0.54396 0.80826,1.00727 1.20285,1.56149 a 134.3727,123.82592 0 0 1 3.52105,4.8751 c 0.38186,0.54396 0.75417,1.08791 1.09307,1.64214 a 142.00191,130.85632 0 0 1 3.72948,5.92195 132.50796,122.10754 0 0 1 7.4351,14.80709 l 0.65711,1.61135 c 0.21798,0.54396 0.42641,1.07765 0.62211,1.62161 a 117.60276,108.37224 0 0 1 1.68495,4.82378 c 0.29435,0.95742 0.57915,1.90458 0.84168,2.84148 a 78.540265,72.375718 0 0 1 2.50435,13.78808 c 0,0.42373 0,0.82694 0.0764,1.23894 a 120.78969,111.30903 0 0 1 -4.8671,33.048 z"
     fill="url(#prefix__paint8_linear_532_2550)"
     id="path2010"
     style="fill:url(#prefix__paint8_linear_532_2550);stroke-width:1.52736" />
  <path
     d="m 610.19316,179.67764 c 1.75337,-2.32832 1.42083,-5.33841 -0.74462,-6.72397 -2.16546,-1.38555 -5.34284,-0.62166 -7.09779,1.70665 -1.75337,2.32832 -1.42083,5.33841 0.74462,6.72397 2.16546,1.38555 5.34283,0.6202 7.09779,-1.70665 z m -44.33532,-19.46372 c 1.45106,-2.49986 1.05647,-5.29883 -0.88146,-6.25332 -1.93634,-0.95596 -4.68412,0.29617 -6.13359,2.79603 -1.45106,2.4984 -1.05648,5.29883 0.88145,6.25332 1.93634,0.95449 4.68254,-0.29764 6.1336,-2.79603 z m 3.39854,27.40902 a 5.2123637,4.8032505 0 0 1 -2.55527,-1.08498 c -2.74938,-2.24474 -2.53299,-6.77822 -2.52186,-6.96149 a 0.80508426,0.741894 0 0 1 0.51392,-0.65832 0.73666801,0.67884767 0 0 1 0.59029,0.0293 0.74780553,0.68911103 0 0 1 0.24184,0.17155 0.82735931,0.76242071 0 0 1 0.19889,0.53369 c 0,0 -0.18138,3.98952 1.98725,5.75774 1.19331,0.97649 4.02065,1.38849 8.0413,-0.66125 a 0.76689844,0.70670535 0 0 1 0.59188,-0.0513 0.79076458,0.72869826 0 0 1 0.463,0.35482 0.83213254,0.76681929 0 0 1 -0.31662,1.00874 11.587804,10.678289 0 0 1 -7.23462,1.5615 z m 14.12238,-76.95464 a 23.952052,22.07208 0 0 1 3.05009,9.66954 23.396767,21.560378 0 0 1 -1.65471,8.82942 c -0.73667,1.73598 -2.66187,6.05538 -5.18373,5.7035 a 0.58233367,0.53662689 0 0 1 -0.4105,-0.35482 c -0.67143,-1.59376 1.46061,-3.97632 2.06681,-5.47917 1.04534,-2.60836 1.46379,-5.39852 1.22195,-8.17403 a 19.159732,17.655904 0 0 0 -3.06123,-8.27666 c -1.63404,-2.31952 -4.51229,-3.96459 -5.6165,-6.55829 a 1.6276703,1.4999161 0 0 1 0.21161,-1.29465 1.5799381,1.4559303 0 0 1 1.22831,-0.63339 c 3.71039,0.20233 6.46932,3.78424 8.1479,6.56855 z"
     fill="#2e2e2e"
     id="path2012"
     style="stroke-width:1.52736" />
  <path
     d="m 617.26231,195.73686 c 0.428,-2.39723 -2.38821,-4.81938 -6.29111,-5.41026 -3.90132,-0.59087 -7.41123,0.87239 -7.83923,3.26961 -0.428,2.39723 2.3882,4.81938 6.28952,5.41026 3.90291,0.59234 7.41282,-0.87239 7.84082,-3.26961 z m -67.84187,-24.00013 c 2.23387,-1.9471 1.84087,-5.6727 -0.87669,-8.31918 -2.71914,-2.64648 -6.73343,-3.21243 -8.9673,-1.26533 -2.23387,1.94858 -1.84087,5.67271 0.87668,8.31919 2.71756,2.64648 6.73185,3.21389 8.96731,1.26532 z"
     fill="#eb8757"
     id="path2014"
     style="stroke-width:1.52736" />
  <path
     d="m 620.98698,260.31428 h -3.18215 l 0.58869,-1.4662 z"
     fill="#fcc440"
     id="path2016"
     style="stroke-width:1.52736" />
  <path
     d="m 675.54659,148.77761 c -0.34049,1.69198 -0.7128,3.45435 -1.09625,5.28709 -0.20843,0.92663 -0.43755,1.8738 -0.66825,2.83122 a 208.6457,192.26931 0 0 1 -6.46454,20.55897 c -0.0987,0.27124 -0.20843,0.54396 -0.31822,0.80494 a 204.81121,188.73578 0 0 1 -26.15728,46.39623 202.78736,186.87078 0 0 1 -26.03636,27.52925 h -20.40396 a 192.47242,177.36545 0 0 0 60.16016,-78.81964 c 0.59825,-1.57176 1.16149,-3.12006 1.68814,-4.6449 a 189.88374,174.97995 0 0 0 7.00232,-27.51899 c 0.0987,-0.65392 0.1957,-1.29904 0.2848,-1.91338 a 111.42302,102.67754 0 0 1 9.128,6.96002 c 0.98647,0.83573 1.93952,1.67293 2.88144,2.52919 z m 23.86613,29.48515 c -0.30866,1.42367 -0.63961,2.86494 -0.99442,4.32381 a 209.65126,193.19594 0 0 1 -7.87105,25.34315 c -4.79232,12.03745 -11.25209,23.63944 -19.94095,32.54217 a 295.92415,272.69736 0 0 1 -12.07945,11.71342 h -19.575 c 6.9896,-5.91755 14.35309,-12.62099 21.50816,-19.96076 9.70556,-9.93932 16.34035,-24.24351 20.84468,-38.40841 a 238.58179,219.85574 0 0 0 6.32771,-25.94723 c 0.15434,-0.87678 0.30867,-1.74477 0.44073,-2.59076 0.13365,-0.84746 0.28798,-1.70372 0.42004,-2.53065 a 109.52646,100.92984 0 0 1 2.4614,3.11566 135.13005,124.52383 0 0 1 4.69367,6.52163 115.61233,106.53803 0 0 1 3.76448,5.87797 z m 12.72861,39.84088 a 194.17487,178.93428 0 0 1 -1.27445,3.46608 c -1.08034,2.80337 -2.15909,5.62872 -3.35876,8.43208 a 123.65044,113.94524 0 0 1 -12.11604,22.08381 l -0.0764,0.0997 h -16.58696 a 128.07681,118.02419 0 0 0 5.7231,-7.09051 c 4.95779,-6.66971 9.22347,-15.60323 12.73338,-24.57634 3.23943,-8.32358 5.84084,-16.67502 7.69921,-23.29488 0.36754,-1.30198 0.70167,-2.53359 1.01511,-3.68601 0.44232,1.08205 0.87509,2.16263 1.26331,3.23442 0.60461,1.61281 1.16626,3.21536 1.66268,4.79739 0.29276,0.95155 0.57279,1.89285 0.83213,2.82388 a 78.65164,72.478352 0 0 1 2.48367,13.71038 z"
     fill="#2e2e2e"
     id="path2018"
     style="stroke-width:1.52736" />
  <path
     d="m 706.00455,130.86805 c 16.28307,-6.8178 48.98126,-9.77951 47.45224,15.43902 -1.28559,21.03841 -28.93689,23.21571 -46.37508,22.05595 -8.79547,-0.57035 -19.37294,-1.4354 -27.48742,-4.88536 -13.54483,-5.75041 0.67143,-17.30108 7.69603,-22.34039 a 98.178911,90.472947 0 0 1 18.71423,-10.26922 z"
     fill="#c6edff"
     id="path2020"
     style="stroke-width:1.52736" />
  <path
     d="m 672.06532,97.356722 c -0.49483,0.13196 -1.00079,0.26392 -1.50834,0.42813 -13.27912,4.068688 -13.43982,18.850848 -11.79146,29.655238 1.57198,10.36599 5.06121,21.85215 13.2457,29.39132 8.86388,8.13884 19.0945,-2.14651 23.2313,-9.67541 5.43829,-9.87775 5.04052,-22.18792 1.76609,-32.63748 -3.27443,-10.44663 -12.39607,-20.284788 -24.94329,-17.161798 z"
     fill="#c6edff"
     id="path2022"
     style="stroke-width:1.52736" />
  <path
     d="m 623.17475,118.38194 a 31.223268,28.772585 0 0 1 5.68491,9.65635 c 1.98089,6.56415 -1.59267,13.56963 -8.08585,17.01079 -0.59665,0.32109 -1.71359,-0.13929 -1.26013,-0.86946 1.54812,-2.53211 3.99201,-4.51294 5.27601,-7.20487 a 11.750093,10.82784 0 0 0 -0.29912,-8.80597 31.07848,28.639161 0 0 0 -5.62923,-7.83533 c -2.21319,-2.2814 -5.76288,-4.21385 -6.87026,-7.16529 a 1.3921912,1.2829195 0 0 1 0.21161,-1.23747 1.451061,1.3371686 0 0 1 1.27127,-0.49411 c 4.08111,0.16128 7.42237,4.22264 9.70079,6.94536 z"
     fill="#2e2e2e"
     id="path2024"
     style="stroke-width:1.52736" />
  <path
     d="m 569.55391,135.54374 c 10.68566,-6.37794 27.00373,-8.19602 39.50959,-7.96583 39.44435,0.7243 73.6493,29.25643 90.8711,60.21071 a 99.496322,91.686955 0 0 1 9.42235,25.34462 c 0,0 3.64992,14.0784 -1.8186,16.83484 -5.46853,2.75498 -17.51615,-20.67773 -20.08733,-25.21267 -6.59024,-11.64597 -16.34035,-21.19969 -26.37208,-30.39272 -9.21551,-8.46727 -19.60842,-16.09148 -32.21133,-19.64114 a 166.27854,153.2275 0 0 0 -37.65916,-5.93368 c -6.19724,-0.37241 -12.64587,0.3123 -18.74606,-0.67298 -2.78915,-0.45306 -8.02856,-1.12751 -9.47803,-3.84143 -1.98248,-3.7212 3.82335,-7.09051 6.56955,-8.72972 z"
     fill="#ffffff"
     opacity="0.3"
     id="path2026"
     style="stroke-width:1.52736" />
  <path
     d="m 424.47327,423.72997 c 0,0 10.45655,1.66853 15.64186,4.57013 5.18532,2.9016 8.27837,7.35003 4.91006,9.60503 -3.3699,2.25354 -25.64177,-4.04522 -25.64177,-4.04522 z m -5.08985,-27.98817 c 0,0 8.54567,-6.18587 14.43105,-7.85146 5.88539,-1.6656 11.54167,-0.8372 10.98797,3.02769 -0.55369,3.86488 -20.9131,15.21762 -20.9131,15.21762 z"
     fill="#fcc440"
     id="path2028"
     style="stroke-width:1.52736" />
  <path
     d="m 425.94183,346.96594 c 6.16542,12.92449 7.03096,27.74185 5.53058,41.71321 -0.1432,1.31664 -0.29594,2.62448 -0.4821,3.92207 -0.49323,3.53059 -1.09625,6.98054 -1.74222,10.36012 a 665.90014,613.63431 0 0 1 -1.33492,6.81047 c -0.45027,2.35324 -0.91009,4.67716 -1.30468,6.97028 a 144.61604,133.26528 0 0 0 -1.15989,8.04648 72.564185,66.868695 0 0 0 -0.29594,11.41578 c 0,0.47358 0.0764,0.93543 0.13206,1.39875 a 44.912882,41.387715 0 0 0 1.69608,7.99662 41.768917,38.490516 0 0 0 2.46458,5.81346 l -16.76675,-0.10117 -89.61893,-0.50291 -27.30286,-0.15981 h -9.78988 c 0,0 0.86554,2.11132 -0.0875,0 -0.35163,-0.75509 -0.67939,-1.50871 -1.00875,-2.2638 l -0.10819,-0.28151 a 121.73797,112.18288 0 0 1 -4.17339,-11.60786 120.61149,111.14481 0 0 1 -3.33967,-15.24841 102.31889,94.287983 0 0 1 -0.58074,-4.80765 c -0.0986,-1.00581 -0.19729,-2.01162 -0.25139,-3.01743 a 115.89713,106.80048 0 0 1 -0.23071,-6.74889 v -2.70659 a 113.91783,104.97653 0 0 1 22.53918,-60.35 94.844017,87.399805 0 0 1 14.0842,-14.08279 78.128177,71.995974 0 0 1 2.7812,-2.12158 c 11.8392,-8.6916 25.7802,-14.21328 40.76177,-15.00796 a 53.038505,48.875566 0 0 1 4.16225,-0.10117 c 5.92358,0.0264 11.81533,0.77709 17.52252,2.23302 a 42.982907,39.609222 0 0 1 8.87184,3.01889 c 15.96644,6.74889 31.05938,12.7031 39.03226,29.41038 z"
     fill="url(#prefix__paint9_linear_532_2550)"
     id="path2030"
     style="fill:url(#prefix__paint9_linear_532_2550);stroke-width:1.52736" />
  <path
     d="m 355.75949,294.26067 a 25.662458,23.648238 0 0 0 -1.45425,10.84544 25.11672,23.145333 0 0 0 3.47173,9.18424 c 1.10103,1.73304 4.04451,6.00992 6.7223,5.25043 a 0.63643024,0.58647747 0 0 0 0.38504,-0.44572 c 0.41845,-1.81515 -2.34684,-4.05549 -3.30626,-5.52462 a 22.343475,20.589758 0 0 1 -2.89735,-8.55524 20.711031,19.085443 0 0 1 1.75178,-9.31619 c 1.33332,-2.76671 4.14316,-4.99679 4.83687,-7.95703 a 1.7422278,1.6054821 0 0 0 -1.1424,-1.73891 1.7374546,1.6010835 0 0 0 -0.78599,-0.085 c -4.0111,0.8416 -6.29111,5.07743 -7.58147,8.34264 z m -20.20825,69.97556 c 2.06839,-1.50578 1.98248,-4.78565 -0.19571,-7.3295 -2.17659,-2.54238 -5.61968,-3.38397 -7.68967,-1.87966 -2.06839,1.50431 -1.98248,4.78566 0.19571,7.32804 2.17659,2.54384 5.61968,3.38544 7.68967,1.88112 z m 45.25178,-23.73327 c 2.24341,-1.27413 2.56799,-4.54374 0.72394,-7.30018 -1.84565,-2.75791 -5.15986,-3.95873 -7.40328,-2.6846 -2.24501,1.27412 -2.56799,4.54226 -0.72394,7.30017 1.84406,2.75792 5.15827,3.95873 7.40328,2.68461 z"
     fill="#2e2e2e"
     id="path2032"
     style="stroke-width:1.52736" />
  <path
     d="m 330.97053,382.25575 c 4.28317,-0.90024 7.20121,-3.87075 6.51704,-6.63452 -0.68416,-2.76231 -4.71117,-4.27249 -8.99435,-3.37225 -4.28317,0.90024 -7.2012,3.87075 -6.51863,6.63306 0.68416,2.76378 4.71117,4.27396 8.99594,3.37371 z m 71.45839,-34.32946 c 2.81938,-3.10539 2.92121,-7.30751 0.22434,-9.3851 -2.69528,-2.07906 -7.16621,-1.24627 -9.98559,1.85767 -2.81939,3.10539 -2.91963,7.30751 -0.22434,9.38657 2.69528,2.07759 7.1662,1.24626 9.98559,-1.85914 z"
     fill="#eb8757"
     id="path2034"
     style="stroke-width:1.52736" />
  <path
     d="m 315.21729,308.00331 a 34.122207,31.44399 0 0 0 -3.94428,11.05803 c -0.78122,7.22833 4.07952,14.0432 11.21072,16.64423 0.66666,0.24779 1.69768,-0.41493 1.11535,-1.11724 -2.02067,-2.42362 -4.84165,-4.13467 -6.61092,-6.76502 a 13.051593,12.027187 0 0 1 -1.677,-4.53347 13.188426,12.153279 0 0 1 0.36436,-4.79299 33.501688,30.872174 0 0 1 4.22749,-9.12852 c 1.78996,-2.74911 5.01666,-5.33987 5.5799,-8.62415 a 1.5131129,1.3943502 0 0 0 -0.43436,-1.27265 1.4271948,1.3151757 0 0 0 -1.36674,-0.31963 c -4.06042,0.82106 -6.66342,5.61698 -8.46452,8.85141 z"
     fill="#2e2e2e"
     id="path2036"
     style="stroke-width:1.52736" />
  <path
     d="m 329.13125,329.84959 c 2.27682,2.52039 0.61097,7.57143 -0.1782,10.30295 -1.73269,5.96594 -5.41921,11.49935 -7.85037,17.27469 a 176.87192,162.98942 0 0 0 -10.81613,36.76627 62.269926,57.382422 0 0 0 -0.11138,14.59156 94.201222,86.807463 0 0 0 3.98724,16.40084 157.35738,145.00655 0 0 0 2.65391,7.02894 c 2.0318,5.02171 4.13043,9.95252 6.48522,14.81295 0.4996,1.00434 1.01034,2.0688 1.53221,3.09367 l -27.67358,-0.16128 a 148.43463,136.78414 0 0 1 -1.47652,-2.75058 134.79911,124.21886 0 0 1 -11.20435,-31.13316 64.68677,59.60957 0 0 1 -0.52187,-2.75204 110.26154,101.60722 0 0 1 -0.95624,-6.97909 101.11604,93.179541 0 0 1 -0.19888,-15.35544 c 0.36594,-4.92641 1.2124,-9.81177 2.5314,-14.60182 a 83.93242,77.344649 0 0 1 4.57593,-12.26325 c 5.48444,-11.42898 14.92429,-25.38714 26.73962,-32.20641 l 0.2673,-0.15102 c 0.83213,-0.49264 1.87588,-1.08498 3.01986,-1.64653 3.1201,-1.5571 6.96255,-2.74178 9.19483,-0.27125 z"
     fill="#ffffff"
     opacity="0.3"
     id="path2038"
     style="stroke-width:1.52736" />
  <path
     d="m 427.3388,409.26744 c -0.4471,2.29019 -0.90533,4.56133 -1.29832,6.78261 a 200.83034,185.06736 0 0 1 -29.7563,7.92771 c -1.76768,0.35189 -3.53537,0.61727 -5.3126,0.92077 -1.77882,0.30204 -3.53378,0.6158 -5.32374,0.84159 l -5.35556,0.69498 c -1.77723,0.21407 -3.57674,0.40027 -5.3667,0.57621 a 112.54155,103.70828 0 0 1 -5.38897,0.44133 c -1.79951,0.0982 -3.61015,0.28297 -5.45262,0.37095 -3.61174,0.12756 -7.22189,0.2947 -10.84318,0.3035 a 367.2998,338.47081 0 0 1 -10.84318,-0.14662 c -3.61015,-0.088 -7.23143,-0.34162 -10.83045,-0.62607 a 155.76153,143.53596 0 0 1 -19.18837,-2.4764 c -0.75258,-0.13635 -1.51629,-0.29324 -2.27842,-0.45012 a 134.78001,124.20127 0 0 1 -20.72535,-5.8721 111.5169,102.76405 0 0 1 -9.87262,-4.2373 103.369,95.255671 0 0 1 -3.09783,-1.60549 111.36097,102.62036 0 0 1 -0.21798,-6.57734 c 1.86952,0.12463 3.72312,0.26098 5.5624,0.41053 h 0.42641 c 3.47968,0.28445 6.93709,0.54836 10.36268,0.87092 l 15.9028,1.49845 4.48365,0.4208 20.24485,1.90752 c 6.75252,0.56888 13.52732,0.97942 20.31167,1.19495 6.78434,0.21553 13.59096,0.34309 20.40872,0.25365 l 5.11531,-0.0587 5.12645,-0.15542 c 3.41445,-0.0689 6.82889,-0.2947 10.25448,-0.43106 10.91796,-0.607 21.82637,-1.6348 32.95277,-2.7799 z m 0,35.31474 a 199.53679,183.87535 0 0 1 -14.24172,5.53928 l -89.2307,-0.48824 -27.18512,-0.11583 h -9.74852 l -1.19967,-2.46761 3.91404,-0.0792 c 1.87588,0 3.72948,-0.0675 5.58309,-0.0777 1.59266,0 3.18533,0 4.76527,-0.0484 l 20.38168,-0.1173 h 1.98407 l 18.20986,-0.0484 5.05007,-0.10704 5.04849,-0.1862 c 1.67858,0 3.35876,-0.13636 5.03734,-0.22433 1.68018,-0.088 3.3699,-0.16568 5.04848,-0.30204 13.52415,-0.87678 26.98942,-2.36203 40.3465,-4.44696 8.2004,-1.28732 16.35785,-2.81949 24.60121,-4.48655 a 42.543771,39.204553 0 0 0 1.63563,7.65646 z"
     fill="#2e2e2e"
     id="path2040"
     style="stroke-width:1.52736" />
  <path
     d="m 242.59901,397.38101 c -17.67366,7.0128 -43.95505,28.92067 -21.22176,46.12205 18.96562,14.34817 40.93359,-4.40444 52.61686,-18.0635 5.87107,-6.87059 12.82407,-15.2924 15.75961,-23.76554 4.89414,-14.14583 -15.33161,-12.10636 -24.71577,-10.60498 a 104.56867,96.361181 0 0 0 -22.43734,6.31197 z"
     fill="#c6edff"
     id="path2042"
     style="stroke-width:1.52736" />
  <path
     d="m 237.41529,349.07139 c 0.47891,-0.28151 0.97692,-0.55129 1.49243,-0.81227 13.50027,-6.90724 26.39275,3.56872 34.51997,12.55208 7.73899,8.61096 15.1359,19.44906 15.47957,30.94842 0.43118,12.43039 -16.14305,12.621 -25.76269,10.28535 -12.62678,-3.06728 -22.9974,-12.2002 -29.58764,-22.14539 -6.59023,-9.94519 -8.237,-23.76114 3.85836,-30.82819 z"
     fill="#c6edff"
     id="path2044"
     style="stroke-width:1.52736" />
  <path
     d="m 386.32087,356.40089 a 22.963994,21.161573 0 0 1 2.76529,8.29573 c 0.43754,4.83697 -1.25695,9.52439 -5.86789,12.38347 a 15.51776,14.299787 0 0 1 -16.56787,0.85919 20.944919,19.300974 0 0 1 -8.37224,-7.6462 c -3.09305,-5.21672 1.82496,-6.52603 8.48043,-6.46592 a 11.594168,10.684153 0 0 0 6.01109,-1.48525 11.470064,10.56979 0 0 0 4.28476,-4.13173 c 2.84166,-4.93668 6.16383,-7.04653 9.26643,-1.80929 z"
     fill="#2e2e2e"
     id="path2046"
     style="stroke-width:1.52736" />
  <path
     d="m 389.08775,365.09249 c 0.43277,4.70941 -1.24422,9.27367 -5.80902,12.05798 a 15.512987,14.295388 0 0 1 -8.06516,2.5717 15.570266,14.348171 0 0 1 -8.33565,-1.73597 c 1.94748,-4.45283 5.63241,-8.11685 10.36427,-10.30588 a 23.347443,21.514926 0 0 1 11.84556,-2.58783 z"
     fill="#e24450"
     id="path2048"
     style="stroke-width:1.52736" />
  <defs
     id="defs2160">
    <linearGradient
       id="prefix__paint0_linear_532_2550"
       x1="333.829"
       y1="225.901"
       x2="377.508"
       y2="353.501"
       gradientUnits="userSpaceOnUse"
       gradientTransform="matrix(1.5910756,0,0,1.4661937,164.34828,6.6627682)">
      <stop
         offset=".15"
         stop-color="#FCD844"
         id="stop2050" />
      <stop
         offset=".42"
         stop-color="#FCD443"
         id="stop2052" />
      <stop
         offset=".69"
         stop-color="#FCC740"
         id="stop2054" />
      <stop
         offset=".97"
         stop-color="#FBB33C"
         id="stop2056" />
      <stop
         offset="1"
         stop-color="#FBB03B"
         id="stop2058" />
    </linearGradient>
    <linearGradient
       id="prefix__paint1_linear_532_2550"
       x1="6441.21"
       y1="3230.76"
       x2="7289.41"
       y2="4710.73"
       gradientUnits="userSpaceOnUse"
       gradientTransform="matrix(1.5910756,0,0,1.4661937,164.34828,6.6627682)">
      <stop
         offset=".15"
         stop-color="#FCD844"
         id="stop2061" />
      <stop
         offset=".42"
         stop-color="#FCD443"
         id="stop2063" />
      <stop
         offset=".69"
         stop-color="#FCC740"
         id="stop2065" />
      <stop
         offset=".97"
         stop-color="#FBB33C"
         id="stop2067" />
      <stop
         offset="1"
         stop-color="#FBB03B"
         id="stop2069" />
    </linearGradient>
    <linearGradient
       id="prefix__paint2_linear_532_2550"
       x1="5697.41"
       y1="6145.73"
       x2="8101.76"
       y2="8329.53"
       gradientUnits="userSpaceOnUse"
       gradientTransform="matrix(1.5910756,0,0,1.4661937,164.34828,6.6627682)">
      <stop
         offset=".15"
         stop-color="#FCD844"
         id="stop2072" />
      <stop
         offset=".42"
         stop-color="#FCD443"
         id="stop2074" />
      <stop
         offset=".69"
         stop-color="#FCC740"
         id="stop2076" />
      <stop
         offset=".97"
         stop-color="#FBB33C"
         id="stop2078" />
      <stop
         offset="1"
         stop-color="#FBB03B"
         id="stop2080" />
    </linearGradient>
    <linearGradient
       id="prefix__paint3_linear_532_2550"
       x1="4412.54"
       y1="7558.52"
       x2="6835.81"
       y2="9750.95"
       gradientUnits="userSpaceOnUse"
       gradientTransform="matrix(1.5910756,0,0,1.4661937,164.34828,6.6627682)">
      <stop
         offset=".15"
         stop-color="#FCD844"
         id="stop2083" />
      <stop
         offset=".42"
         stop-color="#FCD443"
         id="stop2085" />
      <stop
         offset=".69"
         stop-color="#FCC740"
         id="stop2087" />
      <stop
         offset=".97"
         stop-color="#FBB33C"
         id="stop2089" />
      <stop
         offset="1"
         stop-color="#FBB03B"
         id="stop2091" />
    </linearGradient>
    <linearGradient
       id="prefix__paint4_linear_532_2550"
       x1="19525.4"
       y1="10305.7"
       x2="23423.7"
       y2="25997.2"
       gradientUnits="userSpaceOnUse"
       gradientTransform="matrix(1.5910756,0,0,1.4661937,60.705221,-5.1821527)">
      <stop
         offset=".15"
         stop-color="#FCD844"
         id="stop2094" />
      <stop
         offset=".42"
         stop-color="#FCD443"
         id="stop2096" />
      <stop
         offset=".69"
         stop-color="#FCC740"
         id="stop2098" />
      <stop
         offset=".97"
         stop-color="#FBB33C"
         id="stop2100" />
      <stop
         offset="1"
         stop-color="#FBB03B"
         id="stop2102" />
    </linearGradient>
    <linearGradient
       id="prefix__paint5_linear_532_2550"
       x1="488.21"
       y1="257.718"
       x2="490.266"
       y2="275.358"
       gradientUnits="userSpaceOnUse"
       gradientTransform="matrix(1.5910756,0,0,1.4661937,60.705221,-5.1821527)">
      <stop
         offset=".15"
         stop-color="#FCD844"
         id="stop2105" />
      <stop
         offset=".42"
         stop-color="#FCD443"
         id="stop2107" />
      <stop
         offset=".69"
         stop-color="#FCC740"
         id="stop2109" />
      <stop
         offset=".97"
         stop-color="#FBB33C"
         id="stop2111" />
      <stop
         offset="1"
         stop-color="#FBB03B"
         id="stop2113" />
    </linearGradient>
    <linearGradient
       id="prefix__paint6_linear_532_2550"
       x1="40003.7"
       y1="21980.8"
       x2="38538.3"
       y2="24889.2"
       gradientUnits="userSpaceOnUse"
       gradientTransform="matrix(1.5910756,0,0,1.4661937,60.705221,-5.1821527)">
      <stop
         offset=".15"
         stop-color="#FCD844"
         id="stop2116" />
      <stop
         offset=".42"
         stop-color="#FCD443"
         id="stop2118" />
      <stop
         offset=".69"
         stop-color="#FCC740"
         id="stop2120" />
      <stop
         offset=".97"
         stop-color="#FBB33C"
         id="stop2122" />
      <stop
         offset="1"
         stop-color="#FBB03B"
         id="stop2124" />
    </linearGradient>
    <linearGradient
       id="prefix__paint7_linear_532_2550"
       x1="35344.1"
       y1="26072.1"
       x2="33692.1"
       y2="28318.8"
       gradientUnits="userSpaceOnUse"
       gradientTransform="matrix(1.5910756,0,0,1.4661937,60.705221,-5.1821527)">
      <stop
         offset=".15"
         stop-color="#FCD844"
         id="stop2127" />
      <stop
         offset=".42"
         stop-color="#FCD443"
         id="stop2129" />
      <stop
         offset=".69"
         stop-color="#FCC740"
         id="stop2131" />
      <stop
         offset=".97"
         stop-color="#FBB33C"
         id="stop2133" />
      <stop
         offset="1"
         stop-color="#FBB03B"
         id="stop2135" />
    </linearGradient>
    <linearGradient
       id="prefix__paint8_linear_532_2550"
       x1="54949.4"
       y1="8745.84"
       x2="55553.3"
       y2="22862"
       gradientUnits="userSpaceOnUse"
       gradientTransform="matrix(1.5910756,0,0,1.4661937,115.48798,1.707762e-7)">
      <stop
         offset=".15"
         stop-color="#FCD844"
         id="stop2138" />
      <stop
         offset=".42"
         stop-color="#FCD443"
         id="stop2140" />
      <stop
         offset=".69"
         stop-color="#FCC740"
         id="stop2142" />
      <stop
         offset=".97"
         stop-color="#FBB33C"
         id="stop2144" />
      <stop
         offset="1"
         stop-color="#FBB03B"
         id="stop2146" />
    </linearGradient>
    <linearGradient
       id="prefix__paint9_linear_532_2550"
       x1="19150.2"
       y1="30353.7"
       x2="23139.3"
       y2="42828.8"
       gradientUnits="userSpaceOnUse"
       gradientTransform="matrix(1.5910756,0,0,1.4661937,115.48798,1.707762e-7)">
      <stop
         offset=".15"
         stop-color="#FCD844"
         id="stop2149" />
      <stop
         offset=".42"
         stop-color="#FCD443"
         id="stop2151" />
      <stop
         offset=".69"
         stop-color="#FCC740"
         id="stop2153" />
      <stop
         offset=".97"
         stop-color="#FBB33C"
         id="stop2155" />
      <stop
         offset="1"
         stop-color="#FBB03B"
         id="stop2157" />
    </linearGradient>
  </defs>
</svg>
