<svg width="280" height="200" viewBox="0 0 280 200" fill="none" xmlns="http://www.w3.org/2000/svg">
<path d="M176.368 190.145C176.479 190.144 176.588 190.115 176.684 190.06C176.83 189.968 176.936 189.825 176.979 189.658C177.022 189.492 176.999 189.315 176.915 189.165L174.324 184.439C174.268 184.344 174.189 184.265 174.094 184.209C173.998 184.154 173.89 184.125 173.779 184.124H132.606C132.501 184.126 132.398 184.154 132.306 184.206C132.214 184.257 132.137 184.331 132.081 184.42L129.104 189.146C129.012 189.292 128.979 189.467 129.013 189.635C129.046 189.804 129.143 189.953 129.284 190.053C129.352 190.101 129.43 190.134 129.512 190.15C129.593 190.166 129.678 190.165 129.759 190.148C129.84 190.13 129.917 190.095 129.985 190.047C130.052 189.998 130.109 189.936 130.151 189.864L132.948 185.397H173.409L175.823 189.808C175.876 189.907 175.954 189.991 176.05 190.05C176.145 190.109 176.255 190.142 176.368 190.145Z" fill="#375A64"/>
<path d="M180.023 192.54C180.721 190.14 179.998 187.815 178.408 187.348C176.817 186.88 174.962 188.447 174.264 190.847C173.566 193.247 174.289 195.572 175.88 196.039C177.47 196.507 179.325 194.94 180.023 192.54Z" fill="#375A64"/>
<path d="M179.782 192.217C180.325 190.351 179.691 188.521 178.366 188.132C177.041 187.742 175.526 188.94 174.983 190.806C174.44 192.673 175.074 194.502 176.4 194.892C177.725 195.282 179.239 194.084 179.782 192.217Z" fill="#ADD8E5"/>
<path d="M152.501 193.18C152.637 193.174 152.765 193.09 152.858 192.947C152.951 192.803 153.002 192.611 152.999 192.414V184.903C153.003 184.804 152.994 184.703 152.971 184.609C152.948 184.515 152.912 184.429 152.865 184.356C152.818 184.282 152.762 184.224 152.699 184.184C152.636 184.145 152.568 184.124 152.5 184.124C152.432 184.124 152.364 184.145 152.301 184.184C152.238 184.224 152.182 184.282 152.135 184.356C152.088 184.429 152.052 184.515 152.029 184.609C152.006 184.703 151.997 184.804 152.001 184.903V192.41C151.999 192.509 152.011 192.607 152.035 192.699C152.059 192.791 152.095 192.875 152.142 192.947C152.188 193.018 152.244 193.075 152.306 193.116C152.367 193.156 152.434 193.178 152.501 193.18Z" fill="#375A64"/>
<path d="M155.577 143.42C155.313 144.118 153.606 184.938 153.606 184.938C153.606 184.938 152.566 185.37 152.408 184.938C152.251 184.506 152 142.868 152 142.868L156 143.477" fill="#375A64"/>
<path d="M147.206 125.135C158.545 128.897 171.575 128.594 183.899 124.503C185.432 123.982 186.787 122.466 186.946 121.206C187.957 113.143 188.97 105.082 189.983 97.0211C190.141 95.7577 189.169 94.1974 187.766 93.6162C176.526 89.0679 163.635 88.2467 151.409 91.5379C149.889 91.958 148.53 93.512 148.353 94.9112L145.011 121.658C144.951 122.396 145.132 123.134 145.528 123.761C145.923 124.388 146.512 124.87 147.206 125.135V125.135Z" fill="#EA923B"/>
<path d="M150.205 125.024C161.852 128.927 175.266 128.629 187.936 124.43C189.46 123.912 190.807 122.408 190.964 121.151C191.972 113.137 192.978 105.122 193.983 97.1056C194.141 95.8495 193.177 94.3013 191.78 93.7235C180.224 89.0412 166.958 88.2058 154.382 91.6257C152.875 92.0465 151.521 93.5916 151.348 94.9828C150.233 103.841 149.121 112.7 148.011 121.56C147.952 122.296 148.134 123.032 148.529 123.657C148.925 124.281 149.513 124.761 150.205 125.024V125.024Z" fill="#FCB05C"/>
<path d="M177 143.874H178.486L182.979 116.261C183.117 115.409 182.554 114.693 181.744 114.693C181.336 114.722 180.952 114.889 180.662 115.163C180.371 115.437 180.194 115.8 180.16 116.188L177 143.874Z" fill="#FCB05C"/>
<path d="M153 143.874H154.487L158.979 116.261C159.119 115.409 158.553 114.693 157.743 114.693C157.334 114.722 156.95 114.889 156.66 115.163C156.369 115.437 156.192 115.8 156.158 116.188L153 143.874Z" fill="#FCB05C"/>
<path d="M155.023 192.54C155.721 190.14 154.998 187.815 153.408 187.348C151.817 186.88 149.962 188.447 149.264 190.847C148.566 193.247 149.289 195.572 150.88 196.039C152.47 196.507 154.325 194.94 155.023 192.54Z" fill="#375A64"/>
<path d="M154.782 193.224C155.325 191.357 154.691 189.528 153.366 189.138C152.041 188.748 150.526 189.946 149.983 191.813C149.44 193.679 150.074 195.509 151.4 195.898C152.725 196.288 154.239 195.09 154.782 193.224Z" fill="#ADD8E5"/>
<path d="M129.837 196.362C131.457 196.01 132.343 193.743 131.817 191.299C131.291 188.854 129.552 187.159 127.932 187.511C126.313 187.863 125.426 190.13 125.952 192.574C126.479 195.019 128.218 196.714 129.837 196.362Z" fill="#375A64"/>
<path d="M129.925 195.508C131.275 195.214 132.037 193.435 131.628 191.534C131.219 189.633 129.793 188.33 128.444 188.624C127.094 188.917 126.332 190.696 126.741 192.597C127.15 194.498 128.576 195.801 129.925 195.508Z" fill="#ADD8E5"/>
<path d="M149.142 118.534C149.272 118.556 149.238 118.534 148.712 118.496C148.031 118.452 147.363 118.427 146.682 118.449C144.406 118.509 142.166 119.046 140.102 120.026C132.542 123.695 130.716 132.723 130.982 140.846C131.019 142.055 127.061 142.256 127.024 141.061C126.714 131.667 129.382 122.317 138.125 118.588C142.219 116.872 146.691 116.315 151.07 116.976C153.586 117.373 150.328 118.733 149.142 118.553V118.534Z" fill="#FCB05C"/>
<path d="M164 144.88H126C126 143.279 126.581 141.744 127.616 140.611C128.651 139.479 130.054 138.843 131.517 138.843H158.483C159.946 138.843 161.349 139.479 162.384 140.611C163.419 141.744 164 143.279 164 144.88V144.88Z" fill="#EA923B"/>
<path d="M184 144.88H146C146 143.279 146.593 141.744 147.649 140.611C148.705 139.479 150.137 138.843 151.63 138.843H178.367C179.86 138.843 181.292 139.479 182.348 140.611C183.404 141.744 183.997 143.279 183.997 144.88V144.88H184Z" fill="#FCB05C"/>
<path d="M125 145.887H184V143.874H125V145.887Z" fill="#FCB05C"/>
<path d="M237 40.2311H239V39.2248H237V40.2311Z" fill="#DDCDC7"/>
<path d="M235.632 40.2311H236V36.2061H235.632V40.2311Z" fill="#DDCDC7"/>
<path d="M237 39.2248H239V34.1936H237V39.2248Z" fill="#EDDFDA"/>
<path d="M237 38.7217C237 38.8213 237.029 38.9187 237.084 39.0015C237.14 39.0843 237.218 39.1488 237.309 39.1868C237.401 39.2248 237.501 39.2346 237.599 39.2149C237.696 39.1953 237.785 39.1471 237.855 39.0765C237.924 39.0059 237.972 38.916 237.991 38.8182C238.01 38.7204 237.999 38.6192 237.961 38.5273C237.923 38.4354 237.858 38.357 237.776 38.302C237.693 38.2471 237.596 38.218 237.497 38.2186C237.432 38.2186 237.367 38.2316 237.306 38.2569C237.246 38.2822 237.191 38.3193 237.145 38.3661C237.099 38.4129 237.062 38.4683 237.037 38.5294C237.012 38.5904 237 38.6558 237 38.7217V38.7217Z" fill="#DDCDC7"/>
<path d="M164 40.2311H166V39.2248H164V40.2311Z" fill="#DDCDC7"/>
<path d="M163.632 40.2311H164V36.2061H163.632V40.2311Z" fill="#DDCDC7"/>
<path d="M164 39.2248H166V34.1936H164V39.2248Z" fill="#EDDFDA"/>
<path d="M164 38.7217C164 38.8213 164.029 38.9187 164.084 39.0015C164.14 39.0843 164.218 39.1488 164.309 39.1868C164.401 39.2248 164.501 39.2346 164.599 39.2149C164.696 39.1953 164.785 39.1471 164.855 39.0765C164.924 39.0059 164.972 38.916 164.991 38.8182C165.01 38.7204 164.999 38.6192 164.961 38.5273C164.923 38.4354 164.858 38.357 164.776 38.302C164.693 38.2471 164.596 38.218 164.497 38.2186C164.432 38.2186 164.367 38.2316 164.306 38.2569C164.246 38.2822 164.191 38.3193 164.145 38.3661C164.098 38.4129 164.062 38.4683 164.037 38.5294C164.012 38.5904 164 38.6558 164 38.7217V38.7217Z" fill="#DDCDC7"/>
<path d="M158 37.2123L240 37.2123V34.1936L158 34.1936V37.2123Z" fill="#EDDFDA"/>
<path d="M160 37.2123L242 37.2123V34.1936L160 34.1936V37.2123Z" fill="#F5F0EE"/>
<path d="M242 37.2124L159 36.2061V37.2124H242Z" fill="#EDDFDA"/>
<path d="M168 34.1936H209C208.273 31.9051 208.273 29.4383 209 27.1498H168C168.727 29.4383 168.727 31.9051 168 34.1936V34.1936Z" fill="#375A64"/>
<path d="M175.149 22.1186L201.851 22.1186C202.486 22.1186 203 21.6681 203 21.1123C203 20.5566 202.486 20.1061 201.851 20.1061L175.149 20.1061C174.514 20.1061 174 20.5566 174 21.1123C174 21.6681 174.514 22.1186 175.149 22.1186Z" fill="#375A64"/>
<path d="M175.309 27.1498L203.691 27.1498C204.414 27.1498 205 26.5492 205 25.8082V24.4665C205 23.7255 204.414 23.1249 203.691 23.1249L175.309 23.1249C174.586 23.1249 174 23.7255 174 24.4665V25.8082C174 26.5492 174.586 27.1498 175.309 27.1498Z" fill="#92CE91"/>
<path d="M172.56 23.1249L205.44 23.1249C205.749 23.1249 206 22.8996 206 22.6218C206 22.3439 205.749 22.1186 205.44 22.1186L172.56 22.1186C172.251 22.1186 172 22.3439 172 22.6218C172 22.8996 172.251 23.1249 172.56 23.1249Z" fill="#FC81B3"/>
<path d="M170 34.1935H208C207.326 32.2422 207.326 30.1074 208 28.1561H170C170.674 30.1074 170.674 32.2422 170 34.1935V34.1935Z" fill="#EDDFDA"/>
<path d="M203.953 33.1873H202.1C201.953 32.184 201.968 31.1686 202.143 30.1686H204C203.798 31.1667 203.782 32.1852 203.953 33.1873V33.1873Z" fill="#FE1556"/>
<path d="M185.974 33.1874H185.05C184.977 32.5185 184.984 31.8416 185.071 31.1749H186C185.898 31.8401 185.889 32.5191 185.974 33.1874V33.1874Z" fill="#375A64"/>
<path d="M207 30.1686L188.297 29.1624L171 30.1686H207Z" fill="#DDCDC7"/>
<path d="M200 31.4616L184.935 31.1749L171 31.4616H200Z" fill="#DDCDC7"/>
<path d="M228.546 31.1749C228.546 31.1749 229.283 33.1874 228.879 33.1874C228.474 33.1874 227 32.01 227 32.01L228.546 31.1749Z" fill="#FF881D"/>
<path d="M220.291 31.1749C220.291 31.1749 219.736 33.2426 220.159 33.1862C220.581 33.1299 222 31.7813 222 31.7813L220.291 31.1749Z" fill="#FF881D"/>
<path d="M224.595 33.8785C228.457 33.7116 231.454 30.4257 231.288 26.5392C231.122 22.6526 227.856 19.6372 223.994 19.8041C220.131 19.9709 217.135 23.2568 217.301 27.1434C217.467 31.0299 220.733 34.0453 224.595 33.8785Z" fill="url(#paint0_linear_437_2177)"/>
<path d="M224.684 32.0947C227.721 32.0478 230.142 29.307 230.091 25.973C230.04 22.639 227.537 19.9743 224.499 20.0212C221.462 20.0681 219.041 22.8089 219.092 26.1429C219.143 29.4769 221.647 32.1416 224.684 32.0947Z" fill="#F5F0EE"/>
<path d="M228.232 26.1361C228.231 24.9604 227.806 23.8227 227.032 22.9249C226.257 22.027 225.183 21.427 224 21.2313C224.326 21.1578 224.659 21.1181 224.994 21.113C227.715 21.0705 229.946 23.2909 229.999 26.0694C230.052 28.8479 227.872 31.132 225.155 31.1745C224.897 31.1774 224.639 31.1601 224.384 31.1229C225.509 30.8461 226.504 30.2007 227.204 29.2937C227.904 28.3868 228.266 27.2727 228.232 26.1361V26.1361Z" fill="#DDCDC7"/>
<path d="M220.674 30.6231C219.76 29.7321 219.181 28.5494 219.036 27.2767C218.891 26.0041 219.189 24.7203 219.88 23.6442C220.57 22.5682 221.611 21.7665 222.823 21.3759C224.035 20.9853 225.345 21.03 226.528 21.5023C227.711 21.9746 228.695 22.8454 229.312 23.966C229.928 25.0866 230.139 26.3878 229.909 27.6477C229.679 28.9075 229.022 30.048 228.05 30.8747C227.077 31.7014 225.85 32.1631 224.577 32.1811H224.489C223.064 32.1818 221.696 31.6229 220.674 30.6231V30.6231ZM224.418 21.3278C223.016 21.3528 221.681 21.9359 220.706 22.9494C219.73 23.9628 219.194 25.3241 219.214 26.7348C219.23 27.7841 219.555 28.805 220.146 29.6694C220.738 30.5338 221.57 31.2031 222.538 31.5932C223.506 31.9833 224.567 32.0769 225.588 31.8622C226.608 31.6475 227.543 31.134 228.275 30.3864C229.007 29.6387 229.503 28.6901 229.701 27.6597C229.898 26.6293 229.789 25.5631 229.387 24.595C228.985 23.6268 228.307 22.7999 227.439 22.218C226.571 21.6362 225.552 21.3253 224.509 21.3246L224.418 21.3278Z" fill="#FF881D"/>
<path d="M225 27.1499C224.833 26.7708 224.64 26.4036 224.42 26.0513C223.719 25.1783 220.997 23.1086 221 23.125C221.003 23.1413 223.065 25.7407 223.873 26.4632C224.231 26.7197 224.607 26.9493 225 27.1499V27.1499Z" fill="#375A64"/>
<path d="M225 27.1463C225.258 26.8739 225.533 26.6202 225.825 26.3872C226.55 25.9282 229 25.1373 229 25.1373L228.915 25.1797L229 25.1373C229 25.1373 226.884 26.6414 226.09 26.9486C225.732 27.0412 225.367 27.1084 225 27.1498" fill="#375A64"/>
<path d="M224.281 26.1943C224.192 26.2378 224.118 26.3068 224.068 26.3926C224.019 26.4784 223.995 26.5772 224.001 26.6764C224.007 26.7757 224.042 26.871 224.101 26.9502C224.161 27.0295 224.242 27.0893 224.336 27.1219C224.429 27.1546 224.53 27.1587 224.626 27.1337C224.721 27.1088 224.807 27.0559 224.873 26.9817C224.939 26.9075 224.981 26.8154 224.995 26.717C225.009 26.6185 224.993 26.5182 224.951 26.4286C224.922 26.3689 224.882 26.3154 224.833 26.2713C224.784 26.2272 224.726 26.1933 224.664 26.1715C224.602 26.1498 224.536 26.1406 224.47 26.1445C224.405 26.1484 224.34 26.1653 224.281 26.1943V26.1943Z" fill="#375A64"/>
<path d="M136 112.681L136.712 117.597C136.75 117.861 136.868 118.108 137.051 118.303C137.233 118.498 137.472 118.633 137.733 118.689C137.995 118.745 138.268 118.72 138.515 118.617C138.762 118.514 138.972 118.339 139.116 118.114L142 113.663L136 112.681Z" fill="#2E2E2E"/>
<path d="M185.611 83.9143C180.547 89.3108 172.607 91.552 169.749 87.3522C166.211 82.162 168.344 79.0796 173.42 73.6831C178.497 68.2865 183.975 66.8009 187.661 70.2896C191.348 73.7783 190.684 78.5241 185.611 83.9143Z" fill="#C6EDFF"/>
<path d="M124.2 53.7085C122.81 52.2973 121.115 51.2332 119.249 50.6003C113.312 48.7184 109.58 55.9041 110.038 60.9789C110.555 66.7563 116.44 72.5023 122.043 73.3585C127.319 74.1677 129.095 68.5597 128.996 64.2345C128.903 60.5209 127.028 56.5 124.2 53.7085Z" fill="#C6EDFF"/>
<path d="M157.014 107.328C152.618 111.19 145.033 115.218 137.549 113.104C131.06 111.278 126.495 106.604 123.519 100.919C122.391 98.7463 121.479 96.4686 120.797 94.1187C120.15 91.9148 119.674 89.6643 119.375 87.3873C119.296 86.7984 119.23 86.2033 119.18 85.6081C119.13 85.0788 119.092 84.5494 119.064 84.0138C118.964 82.1466 118.981 80.2751 119.114 78.41C119.114 78.3631 119.114 78.3192 119.114 78.2722C119.334 75.3675 119.846 72.4922 120.643 69.6896C121.105 68.0698 121.669 66.4807 122.332 64.9316C125.085 58.4791 129.553 52.8346 135.778 49.0414C141.922 45.2826 149.385 44.418 156.42 46.0469C170.328 49.2638 176.095 63.2903 174.83 75.3717C174.708 76.5083 174.514 77.6361 174.249 78.7483C173.845 80.4455 173.32 82.1119 172.68 83.735C171.723 86.1492 170.598 88.4937 169.314 90.7514C168.272 92.6057 167.167 94.3692 166.071 96.0043C164.379 98.5415 162.709 100.759 161.362 102.488C160.555 103.509 159.858 104.368 159.327 104.994C158.62 105.832 157.846 106.613 157.014 107.328Z" fill="url(#paint1_linear_437_2177)"/>
<path d="M168.176 69.6093C169.369 68.9098 169.885 67.5646 169.328 66.6047C168.771 65.6448 167.353 65.4336 166.16 66.1331C164.967 66.8326 164.451 68.1778 165.008 69.1378C165.565 70.0977 166.983 70.3088 168.176 69.6093Z" fill="#EB8757"/>
<path d="M138.667 60.7001C139.236 60.0944 138.883 58.8303 137.879 57.8766C136.875 56.923 135.6 56.6409 135.031 57.2467C134.461 57.8524 134.814 59.1165 135.818 60.0702C136.822 61.0238 138.097 61.3059 138.667 60.7001Z" fill="#EB8757"/>
<path d="M126.635 100.664C124.414 100.043 121.658 104.526 121.154 106.29C120.665 107.963 121.343 109.315 123.166 108.313C124.677 107.472 126.04 106.365 127.195 105.04C128.477 103.45 128.182 102.749 126.635 100.664Z" fill="url(#paint2_linear_437_2177)"/>
<path d="M152.166 107.68C151.427 109.13 153.294 115.162 155.091 114.664C157.85 113.899 157.213 107.871 155.72 106.276C154.424 104.891 152.702 105.941 152.166 107.68Z" fill="url(#paint3_linear_437_2177)"/>
<path d="M173.409 84.3591C167.164 84.6753 157.481 84.6436 147.93 82.5694C137.52 80.3086 127.084 74.2154 121 70.1902C121.466 68.555 122.034 66.9508 122.701 65.3871C128.261 69.1499 138.807 75.5561 148.974 77.7632C158.916 79.9196 169.238 79.7046 175 79.322C174.589 81.0364 174.058 82.7196 173.409 84.3591Z" fill="#2E2E2E"/>
<path d="M165.792 96.1148C159.292 96.7062 149.775 97.0585 142.745 95.1051C135.312 93.0385 125.271 87.6628 119.065 84.0957C118.964 82.2207 118.981 80.3412 119.114 78.4684C124.65 81.7334 136.167 88.2195 144.037 90.3931C151.754 92.5383 163.365 91.5381 169 90.8492C167.977 92.7019 166.878 94.476 165.792 96.1148Z" fill="#2E2E2E"/>
<path d="M157.623 107.649C152.545 107.6 145.756 107.442 140.751 106.98C136.025 106.552 129.325 103.878 123.755 101.301C122.616 99.1492 121.693 96.8944 121 94.5682C126.608 97.4183 135.755 101.679 141.214 102.176C147.6 102.762 157.296 102.839 162 102.839C161.187 103.853 160.483 104.7 159.947 105.32C159.236 106.155 158.459 106.934 157.623 107.649V107.649Z" fill="#2E2E2E"/>
<path d="M119.721 66.1036C119.552 65.9232 119.384 65.7458 119.23 65.5714C118.296 64.5461 117.624 63.6742 116.592 65.2227C115.748 66.4825 115.92 68.0641 116.404 69.4321C116.968 71.0618 118.104 72.8899 120.235 73.38C122.059 73.801 123.488 71.8045 122.842 70.2831C122.197 68.7616 120.887 67.3725 119.721 66.1036Z" fill="url(#paint4_linear_437_2177)"/>
<path d="M169.132 94.1733C169.208 94.4073 169.282 94.6349 169.353 94.8594C169.77 96.1777 170.02 97.2558 171.396 96.0702C172.519 95.106 172.904 93.4873 172.984 91.9951C173.081 90.2057 172.772 88.0306 171.196 86.8482C169.844 85.8334 167.991 87.3288 168 89.0391C168.009 90.7495 168.606 92.5515 169.132 94.1733Z" fill="url(#paint5_linear_437_2177)"/>
<g style="mix-blend-mode:overlay" opacity="0.3">
<path d="M166.664 55.8546C165.839 54.3268 163.737 52.6375 163.056 52.0631C160.529 49.9381 157.544 48.4248 154.334 47.6411C152.366 47.166 140.46 46.399 142.167 50.9327C142.717 52.3984 145.211 53.1282 146.585 53.181C149.536 53.2928 152.54 54.1126 155.382 54.8454C158.557 55.6776 161.374 57.2489 164.425 58.2053C164.75 58.3228 165.098 58.3662 165.442 58.3323C165.786 58.2985 166.119 58.1882 166.415 58.0097C167.183 57.4818 167.117 56.693 166.664 55.8546Z" fill="white"/>
</g>
<g style="mix-blend-mode:overlay" opacity="0.4">
<path d="M166.984 93.0568C167.048 93.4119 166.924 93.9351 166.562 94.5724C163.403 100.147 159.051 105.528 153.502 108.993C148.054 112.399 138.899 115.018 133.911 109.447C133.436 108.979 133.121 108.373 133.01 107.716C132.724 104.763 138.692 106.029 140.286 106.089C143.568 106.197 146.828 105.514 149.791 104.098C155.432 101.453 160.079 97.014 164.949 93.209C166.098 92.3275 166.867 92.4004 166.984 93.0568Z" fill="#2E2E2E"/>
</g>
<path d="M150.945 52.4267C150.47 55.8757 146.668 58.776 142.988 58.29C139.308 57.804 136.581 53.9694 137.053 50.5329C137.525 47.0964 141.459 44.842 145.139 45.328C148.819 45.814 151.414 48.9903 150.945 52.4267Z" fill="white"/>
<path d="M143.794 59.3497C143.523 59.3493 143.252 59.331 142.983 59.2949C142.075 59.1416 141.206 58.7987 140.427 58.2867C139.648 57.7747 138.975 57.1039 138.447 56.3141C137.346 54.7804 136.843 52.8638 137.043 50.9551C137.27 49.1859 138.272 47.6166 139.901 46.5403C141.456 45.5141 143.302 45.0858 145.125 45.3286C148.812 45.8506 151.418 49.2858 150.945 52.9917C150.647 54.8887 149.655 56.5887 148.179 57.7288C146.925 58.7557 145.385 59.3249 143.794 59.3497V59.3497ZM144.123 45.9054C142.745 45.9077 141.396 46.3164 140.229 47.0849C138.77 48.0516 137.854 49.4631 137.651 51.0421C137.472 52.787 137.935 54.5379 138.945 55.9371C139.424 56.656 140.035 57.2669 140.743 57.7335C141.45 58.2001 142.24 58.513 143.066 58.6536C144.761 58.8457 146.46 58.3293 147.795 57.2164C149.148 56.184 150.059 54.6355 150.333 52.9047C150.763 49.5533 148.391 46.4404 145.042 45.9699C144.737 45.9256 144.43 45.9041 144.123 45.9054V45.9054Z" fill="#2E2E2E"/>
<path d="M147.338 53.2711C147.559 51.6188 146.185 50.0693 144.269 49.8103C142.353 49.5512 140.621 50.6807 140.4 52.333C140.179 53.9853 141.553 55.5347 143.469 55.7938C145.385 56.0528 147.117 54.9234 147.338 53.2711Z" fill="#2E2E2E"/>
<path d="M145.5 51.2997C145.776 51.2997 146 51.0745 146 50.7966C146 50.5187 145.776 50.2935 145.5 50.2935C145.224 50.2935 145 50.5187 145 50.7966C145 51.0745 145.224 51.2997 145.5 51.2997Z" fill="white"/>
<path d="M146.116 54.5955C146.189 54.0447 145.805 53.5382 145.258 53.4642C144.711 53.3902 144.207 53.7767 144.133 54.3275C144.06 54.8782 144.444 55.3847 144.991 55.4587C145.538 55.5327 146.042 55.1463 146.116 54.5955Z" fill="white"/>
<path d="M169.944 58.4659C169.469 61.9143 165.666 64.8109 161.986 64.3281C158.305 63.8453 155.579 60.0052 156.054 56.5694C156.529 53.1336 160.457 50.8796 164.137 51.3655C167.818 51.8514 170.419 55.027 169.944 58.4659Z" fill="white"/>
<path d="M162.802 65.3872C162.532 65.3867 162.262 65.3684 161.994 65.3324C158.392 64.8231 155.564 60.8492 156.056 56.9913C156.283 55.2219 157.299 53.6523 158.911 52.5758C160.465 51.5494 162.31 51.1221 164.131 51.3672C167.816 51.8861 170.42 55.3218 169.944 59.0282C169.651 60.9271 168.658 62.6288 167.18 63.766C165.928 64.7931 164.391 65.3624 162.802 65.3872ZM163.133 51.9409C161.757 51.9427 160.408 52.3515 159.243 53.1205C157.784 54.0874 156.869 55.4991 156.667 57.0783C156.221 60.5366 158.853 64.2366 162.077 64.691C163.771 64.8827 165.469 64.3663 166.803 63.2536C168.153 62.2196 169.063 60.6715 169.339 58.9412C169.769 55.5893 167.395 52.4759 164.051 52.0054C163.747 51.9613 163.44 51.9398 163.133 51.9409V51.9409Z" fill="#2E2E2E"/>
<path d="M166.338 58.3023C166.559 56.65 165.185 55.1005 163.269 54.8415C161.353 54.5824 159.621 55.7119 159.4 57.3642C159.179 59.0165 160.553 60.5659 162.469 60.825C164.385 61.0841 166.117 59.9546 166.338 58.3023Z" fill="#2E2E2E"/>
<path d="M164.5 57.3372C164.776 57.3372 165 57.112 165 56.8341C165 56.5562 164.776 56.331 164.5 56.331C164.224 56.331 164 56.5562 164 56.8341C164 57.112 164.224 57.3372 164.5 57.3372Z" fill="white"/>
<path d="M164.116 60.633C164.189 60.0822 163.805 59.5757 163.258 59.5017C162.711 59.4277 162.207 59.8142 162.133 60.3649C162.06 60.9157 162.444 61.4222 162.991 61.4962C163.538 61.5702 164.042 61.1837 164.116 60.633Z" fill="white"/>
<path d="M155.459 57.3372C154.946 56.1271 154.27 55.393 153.445 55.1495C151.936 54.7031 150.368 56.046 150.353 56.057L150 55.4594C150.072 55.393 151.794 53.9062 153.584 54.4301C154.587 54.7252 155.396 55.5885 156 57.0126L155.459 57.3372Z" fill="#2E2E2E"/>
<path d="M174.919 64.3809C174.859 64.3806 174.8 64.3622 174.75 64.3279C174.7 64.2937 174.661 64.245 174.638 64.1881C174.615 64.1313 174.608 64.0686 174.62 64.0081C174.631 63.9475 174.66 63.8918 174.702 63.8477C175.008 63.5341 175.526 62.5933 175.354 61.8563C175.293 61.6271 175.173 61.4188 175.007 61.2533C174.84 61.0878 174.633 60.9711 174.408 60.9154C172.487 60.2255 169.316 59.9746 169.286 59.9746C169.245 59.9718 169.206 59.9609 169.17 59.9425C169.134 59.9241 169.102 59.8986 169.075 59.8674C169.049 59.8362 169.028 59.8 169.016 59.7608C169.003 59.7216 168.998 59.6802 169.001 59.639C169.007 59.5563 169.045 59.4796 169.106 59.4255C169.168 59.3714 169.248 59.3445 169.329 59.3505C169.463 59.3505 172.613 59.592 174.61 60.3102C175.529 60.6395 175.835 61.251 175.952 61.6901C176.169 62.656 175.609 63.7756 175.137 64.2617C175.111 64.2959 175.078 64.3242 175.04 64.3447C175.003 64.3652 174.962 64.3775 174.919 64.3809Z" fill="#2E2E2E"/>
<path d="M131.04 53.3121C130.989 53.3122 130.938 53.3004 130.892 53.2777C130.846 53.2551 130.807 53.2222 130.778 53.1821C130.409 52.674 129.832 51.6843 130.046 50.7595C130.107 50.5155 130.222 50.2864 130.386 50.0881C130.549 49.8898 130.756 49.7268 130.993 49.6103C132.438 48.8096 134.628 49.6664 136.385 50.3518C136.893 50.5498 137.373 50.7389 137.761 50.8541C137.803 50.8638 137.842 50.8816 137.876 50.9062C137.911 50.9307 137.939 50.9617 137.96 50.997C137.981 51.0324 137.994 51.0714 137.998 51.1117C138.003 51.1519 137.998 51.1926 137.985 51.2311C137.972 51.2696 137.95 51.3052 137.922 51.3356C137.893 51.366 137.858 51.3906 137.819 51.4079C137.78 51.4252 137.738 51.4348 137.695 51.4361C137.651 51.4374 137.608 51.4303 137.568 51.4154C137.158 51.2943 136.663 51.1023 136.142 50.8984C134.514 50.2603 132.485 49.4685 131.315 50.1184C131.157 50.1978 131.02 50.3075 130.911 50.4405C130.802 50.5734 130.725 50.7265 130.684 50.8895C130.561 51.4036 130.794 52.1186 131.315 52.8483C131.338 52.8805 131.354 52.9166 131.363 52.9547C131.371 52.9928 131.371 53.032 131.363 53.0702C131.355 53.1083 131.339 53.1446 131.316 53.177C131.294 53.2094 131.264 53.2373 131.23 53.259C131.174 53.2952 131.108 53.3138 131.04 53.3121V53.3121Z" fill="#2E2E2E"/>
<path d="M148.92 35.209C147.999 35.066 147.6 36.6326 148.53 36.7756C152.711 37.4256 152.679 42.9216 152.48 46.4935C152.421 47.5368 153.887 47.5336 153.946 46.4935C154.186 42.2196 153.808 35.9631 148.92 35.209Z" fill="#2E2E2E"/>
<path d="M162.045 35.316C161.268 34.799 160.561 36.1444 161.335 36.6614C165.158 39.1934 163.381 44.7775 162.085 48.3528C161.745 49.2871 163.103 49.6857 163.437 48.767C165.017 44.4349 166.488 38.2622 162.045 35.316Z" fill="#2E2E2E"/>
<path d="M156.978 66.1814C155.95 66.7797 154.795 67.1706 153.589 67.3279C152.983 67.401 152.37 67.4183 151.76 67.3795C151.15 67.3318 150.545 67.2359 149.953 67.0929C148.781 66.7939 147.67 66.3224 146.665 65.6969C145.666 65.0822 144.774 64.3333 144.02 63.4754C144.014 63.4698 144.009 63.4631 144.005 63.4557C144.002 63.4483 144 63.4404 144 63.4324C144 63.4244 144.002 63.4165 144.005 63.4091C144.009 63.4017 144.014 63.395 144.02 63.3894C144.033 63.3799 144.049 63.3747 144.065 63.3747C144.082 63.3747 144.098 63.3799 144.111 63.3894V63.3894C144.952 64.137 145.89 64.7886 146.903 65.33C147.402 65.6023 147.921 65.8418 148.456 66.0466C148.986 66.2557 149.534 66.4245 150.094 66.5511C150.651 66.6793 151.219 66.7637 151.791 66.8034C152.364 66.8378 152.939 66.832 153.511 66.7862C154.67 66.6731 155.81 66.4354 156.909 66.0782C156.924 66.0713 156.941 66.0702 156.957 66.075C156.973 66.0799 156.986 66.0903 156.993 66.104C157.001 66.1176 157.002 66.1335 156.997 66.148C156.991 66.1625 156.98 66.1745 156.965 66.1814H156.978Z" fill="#2E2E2E"/>
<path d="M86 191.168H60V196.199H86V191.168Z" fill="#DDCDC7"/>
<path d="M85.8252 196.199H82V112.681H91L85.8252 196.199Z" fill="#EDDFDA"/>
<path d="M87.2417 195.193H86L90.7613 111.674H92L87.2417 195.193Z" fill="#DDCDC7"/>
<path d="M61 195.193H57.1766L52 111.674H61V195.193Z" fill="#EDDFDA"/>
<path d="M61 111.674H60V195.193H61V111.674Z" fill="#DDCDC7"/>
<path d="M177 195.193H173.171L168 111.674H177V195.193Z" fill="#EDDFDA"/>
<path d="M178 111.674H177V195.193H178V111.674Z" fill="#DDCDC7"/>
<path d="M201.825 196.199H198V112.681H207L201.825 196.199Z" fill="#EDDFDA"/>
<path d="M203.242 195.193H202L206.761 111.674H208L203.242 195.193Z" fill="#DDCDC7"/>
<path d="M203 191.168H177V196.199H203V191.168Z" fill="#DDCDC7"/>
<path d="M213.206 113.687H81V107.649H219L213.206 113.687Z" fill="#EDDFDA"/>
<path d="M180.87 113.687H47.3028L44 107.649H185L180.87 113.687Z" fill="#F5F0EE"/>
<path d="M85.8013 106.643H74V95.5745H87L85.8013 106.643Z" fill="#1A2E35"/>
<path d="M119.102 95.5745H46.5705C46.0671 95.5745 45.5843 95.3758 45.2283 95.0222C44.8724 94.6686 44.6724 94.189 44.6724 93.689L40 47.1478C40 46.6477 40.2 46.1681 40.5559 45.8145C40.9119 45.4609 41.3947 45.2623 41.8981 45.2623H116.185C116.689 45.2623 117.171 45.4609 117.527 45.8145C117.883 46.1681 118.083 46.6477 118.083 47.1478L121 93.6858C121 93.9337 120.952 94.1792 120.856 94.4083C120.761 94.6375 120.621 94.8457 120.445 95.0211C120.269 95.1966 120.06 95.3357 119.829 95.4307C119.599 95.5256 119.351 95.5745 119.102 95.5745Z" fill="#1A2E35"/>
<path d="M116.102 95.5745H43.5705C43.0671 95.5745 42.5843 95.3758 42.2283 95.0222C41.8724 94.6686 41.6724 94.189 41.6724 93.689L37 47.1478C37 46.6477 37.2 46.1681 37.5559 45.8145C37.9119 45.4609 38.3947 45.2623 38.8981 45.2623H113.185C113.689 45.2623 114.171 45.4609 114.527 45.8145C114.883 46.1681 115.083 46.6477 115.083 47.1478L118 93.6858C118 93.9337 117.952 94.1792 117.856 94.4083C117.761 94.6375 117.621 94.8457 117.445 95.0211C117.269 95.1966 117.06 95.3357 116.829 95.4307C116.599 95.5256 116.351 95.5745 116.102 95.5745V95.5745Z" fill="#375A64"/>
<path d="M101.511 93.562H99.4888C99.2188 93.562 99 93.7873 99 94.0651C99 94.343 99.2188 94.5683 99.4888 94.5683H101.511C101.781 94.5683 102 94.343 102 94.0651C102 93.7873 101.781 93.562 101.511 93.562Z" fill="#49727C"/>
<path d="M105.511 93.562H103.489C103.219 93.562 103 93.7873 103 94.0651C103 94.343 103.219 94.5683 103.489 94.5683H105.511C105.781 94.5683 106 94.343 106 94.0651C106 93.7873 105.781 93.562 105.511 93.562Z" fill="#49727C"/>
<path d="M113.511 93.562H111.489C111.219 93.562 111 93.7873 111 94.0651C111 94.343 111.219 94.5683 111.489 94.5683H113.511C113.781 94.5683 114 94.343 114 94.0651C114 93.7873 113.781 93.562 113.511 93.562Z" fill="#49727C"/>
<path d="M89.5971 103.624H71.4029C70.6281 103.624 70 104.3 70 105.134C70 105.967 70.6281 106.643 71.4029 106.643H89.5971C90.3719 106.643 91 105.967 91 105.134C91 104.3 90.3719 103.624 89.5971 103.624Z" fill="#1A2E35"/>
<path d="M84.6888 107.649H73.3112L71 78.4684H87L84.6888 107.649Z" fill="#1A2E35"/>
<path d="M86.5971 103.624H68.4029C67.6281 103.624 67 104.3 67 105.134C67 105.967 67.6281 106.643 68.4029 106.643H86.5971C87.3719 106.643 88 105.967 88 105.134C88 104.3 87.3719 103.624 86.5971 103.624Z" fill="#375A64"/>
<path d="M83.6888 107.649H72.3112L70 78.4684H86L83.6888 107.649Z" fill="#375A64"/>
<path d="M218 99.6548L183 99.5995L182.987 107.649L217.987 107.705L218 99.6548Z" fill="#0059DF"/>
<path d="M213.5 105.637C214.881 105.637 216 104.511 216 103.121C216 101.732 214.881 100.606 213.5 100.606C212.119 100.606 211 101.732 211 103.121C211 104.511 212.119 105.637 213.5 105.637Z" fill="#F5F0EE"/>
<path d="M214.089 104.867C215.145 104.54 215.737 103.414 215.412 102.352C215.087 101.29 213.967 100.694 212.912 101.02C211.856 101.347 211.264 102.473 211.589 103.535C211.914 104.597 213.034 105.194 214.089 104.867Z" fill="#1C2B54"/>
<path d="M204 100.636L185 100.606L184.992 105.637L203.992 105.667L204 100.636Z" fill="#F5F0EE"/>
<path d="M191.969 74.4434L182 74.477C182 74.477 182.056 77.212 182.193 79.3045C182.277 80.6231 182.087 84.389 182.087 84.389C182.087 84.389 183.464 84.4349 184.199 84.9856C184.199 84.9856 182.863 84.6368 182.302 84.7378L182.327 86.4173L192 86.5183L191.969 74.4434Z" fill="#F5F0EE"/>
<path d="M179 87.8071L179.372 90.9554C179.372 90.9554 180.678 91.0548 181.315 91.4615C181.315 91.4615 180.094 91.3094 179.598 91.5671L179.885 97.513C179.885 97.513 181.468 97.9663 181.919 98.3234C181.919 98.3234 180.613 97.9197 180.022 98.1246V99.5995L190 99.3697L189.961 87.5245L179 87.8071Z" fill="#F5F0EE"/>
<path d="M218.975 74.4434L193 74.5073L193.031 86.5183L218.235 86.4544L218.226 83.2652L219 83.2622L218.988 78.7767L218.471 78.7797L218.975 74.4434Z" fill="#EDDFDA"/>
<path d="M206 80.2176L218 79.4746C218 79.4746 216.76 79.9316 216.847 80.4806C216.847 80.4959 216.243 79.7299 206 80.2176Z" fill="#DDCDC7"/>
<path d="M214 84.7278C210.319 84.2632 206.587 84.5293 203 85.512C203 85.512 209.741 84.6158 214 84.7278Z" fill="#DDCDC7"/>
<path d="M192 82.6391C191.022 82.1813 190.02 81.7965 189 81.4871C189 81.4871 191.479 83.0803 191.997 83.4995L192 82.6391Z" fill="#EDDFDA"/>
<path d="M184 82.4938C184 82.4938 189.176 82.4067 192 84.5058C192 84.5058 186.366 82.6888 184 82.4938Z" fill="#EDDFDA"/>
<path d="M217.356 87.7115V91.4471H215.646V92.8475C215.646 92.8475 205.369 92.7715 203.264 93.0883L219 93.4622V98.0279H215.388V99.5329L190.025 99.5995L190 87.5245L217.356 87.7115Z" fill="#EDDFDA"/>
<path d="M180 89.5384C180 89.5384 186.14 89.4143 189 91.5495C189 91.5462 183.329 89.6959 180 89.5384Z" fill="#EDDFDA"/>
<path d="M190 94.7389C190 94.7389 188.091 93.7181 187 93.562C187 93.562 189.545 94.9925 189.997 95.5745L190 94.7389Z" fill="#EDDFDA"/>
<path d="M181 95.5745C183.396 95.5933 185.767 95.9342 188 96.5807C188 96.5807 181.975 95.5722 181 95.5745Z" fill="#EDDFDA"/>
<path d="M211 96.8445C211 96.8445 204.17 95.8526 199.868 97.716C195.566 99.5795 200.041 97.8947 200.041 97.8947C200.041 97.8947 204.283 96.7606 211 96.8445Z" fill="#DDCDC7"/>
<path d="M213.681 92.5558L215 93.562L200 92.8895L213.681 92.5558Z" fill="#DDCDC7"/>
<path d="M216 87.5245L215.75 90.5433C215.75 90.5433 196.244 88.0113 193 87.5585L216 87.5245Z" fill="#DDCDC7"/>
<path d="M126.928 32.9287C126.928 32.9287 134.372 21.491 129.13 13.2889C123.889 5.08679 97.3312 -2.18628 88.3141 7.95657C82.6194 14.3579 88.5752 34.3445 93.9207 37.4402C99.2662 40.5359 121.334 36.1676 121.334 36.1676L130.905 43.2498L126.928 32.9287Z" fill="#F5F0EE"/>
<path d="M103.209 16.2225C103.209 16.2225 109.464 16.3279 110.507 11.8367C110.793 10.5973 111.21 7.5308 112.736 7.09318C114.738 6.5214 114.71 9.69654 114.604 10.9264C114.454 12.7088 113.187 14.0919 115.613 14.1877C116.858 14.2357 119.751 14.1047 119.888 15.8999C119.99 17.2894 118.642 18.1359 117.708 18.0369C117.288 17.989 119.072 18.5192 119.265 18.6757C120.949 20.0205 119.461 22.3588 117.596 22.6335C118.188 22.5472 119.193 23.4033 119.231 23.9463C119.368 25.9492 117.528 26.0546 116.556 26.2686C117.154 26.1376 118.153 27.5463 118.194 28.0287C118.365 30.0762 115.23 30.0027 113.947 30.1209C111.652 30.335 104.669 29.8015 103 29.0508L103.209 16.2225Z" fill="#FC81B3"/>
<path d="M104 15.0749H96V29.1623H104V15.0749Z" fill="#375A64"/>
<path d="M155.057 65.3898C155.416 65.3694 155.771 65.4674 156.062 65.667C156.36 65.8651 156.6 66.1306 156.762 66.4392C156.925 66.7459 157.007 67.0858 157 67.4292C156.996 67.7527 156.917 68.0714 156.769 68.3631C156.759 68.3808 156.743 68.3945 156.724 68.4012C156.704 68.408 156.683 68.4073 156.664 68.3994C156.652 68.3938 156.642 68.3859 156.634 68.3762C156.626 68.3665 156.621 68.3552 156.618 68.3433V68.3433C156.594 68.1915 156.587 68.0463 156.569 67.9044C156.55 67.7652 156.52 67.6274 156.482 67.4919C156.421 67.2347 156.315 66.9892 156.167 66.7659C156.02 66.5476 155.848 66.3461 155.652 66.1653C155.456 65.9706 155.246 65.7759 155.022 65.535C155.008 65.5214 155 65.503 155 65.4839C155 65.4647 155.008 65.4463 155.022 65.4327C155.025 65.4237 155.029 65.4153 155.035 65.4079C155.041 65.4005 155.049 65.3944 155.057 65.3898Z" fill="#2E2E2E"/>
<defs>
<linearGradient id="paint0_linear_437_2177" x1="232.322" y1="17.9498" x2="220.565" y2="29.9907" gradientUnits="userSpaceOnUse">
<stop stop-color="#FCC23F"/>
<stop offset="0.24" stop-color="#FCBD3C"/>
<stop offset="0.54" stop-color="#FDAD33"/>
<stop offset="0.88" stop-color="#FE9324"/>
<stop offset="1" stop-color="#FF881D"/>
</linearGradient>
<linearGradient id="paint1_linear_437_2177" x1="170.052" y1="30.5104" x2="137.529" y2="94.2283" gradientUnits="userSpaceOnUse">
<stop offset="0.15" stop-color="#FFE370"/>
<stop offset="0.42" stop-color="#FFE071"/>
<stop offset="0.69" stop-color="#FFD465"/>
<stop offset="0.97" stop-color="#FFCB76"/>
<stop offset="1" stop-color="#FFBE59"/>
</linearGradient>
<linearGradient id="paint2_linear_437_2177" x1="3746.44" y1="2029.29" x2="5317.52" y2="3496.28" gradientUnits="userSpaceOnUse">
<stop offset="0.15" stop-color="#FCD844"/>
<stop offset="0.42" stop-color="#FCD443"/>
<stop offset="0.69" stop-color="#FCC740"/>
<stop offset="0.97" stop-color="#FBB33C"/>
<stop offset="1" stop-color="#FBB03B"/>
</linearGradient>
<linearGradient id="paint3_linear_437_2177" x1="3090" y1="1687.66" x2="4644.35" y2="2609.12" gradientUnits="userSpaceOnUse">
<stop offset="0.15" stop-color="#FCD844"/>
<stop offset="0.42" stop-color="#FCD443"/>
<stop offset="0.69" stop-color="#FCC740"/>
<stop offset="0.97" stop-color="#FBB33C"/>
<stop offset="1" stop-color="#FBB03B"/>
</linearGradient>
<linearGradient id="paint4_linear_437_2177" x1="10697.4" y1="6386.91" x2="10123" y2="8444.13" gradientUnits="userSpaceOnUse">
<stop offset="0.15" stop-color="#FCD844"/>
<stop offset="0.42" stop-color="#FCD443"/>
<stop offset="0.69" stop-color="#FCC740"/>
<stop offset="0.97" stop-color="#FBB33C"/>
<stop offset="1" stop-color="#FBB03B"/>
</linearGradient>
<linearGradient id="paint5_linear_437_2177" x1="9756.7" y1="8595.92" x2="8792.78" y2="10266.8" gradientUnits="userSpaceOnUse">
<stop offset="0.15" stop-color="#FCD844"/>
<stop offset="0.42" stop-color="#FCD443"/>
<stop offset="0.69" stop-color="#FCC740"/>
<stop offset="0.97" stop-color="#FBB33C"/>
<stop offset="1" stop-color="#FBB03B"/>
</linearGradient>
</defs>
</svg>
