<svg width="369" height="252" viewBox="0 0 369 252" fill="none" xmlns="http://www.w3.org/2000/svg">
<g clip-path="url(#clip0_59_3443)">
<path d="M329.753 188.368C329.714 188.521 329.662 188.671 329.596 188.814L329.075 190.075L327.047 194.839C325.254 198.961 322.728 204.78 319.714 211.73L319.669 211.836H319.557L296.509 215.624L288.783 216.885L288.43 216.94L288.52 216.6L293.596 196.646L293.702 196.87L280.161 190.839L276.425 189.166C276.021 188.971 275.696 188.82 275.45 188.708C275.334 188.663 275.225 188.603 275.125 188.53C275.244 188.561 275.36 188.602 275.472 188.653L276.47 189.06L280.251 190.661L293.859 196.535L294.005 196.602L293.965 196.758L288.968 216.728L288.705 216.444L296.431 215.178L319.49 211.446L319.333 211.563L326.823 194.744C327.73 192.736 328.448 191.146 328.957 190.025C329.198 189.506 329.389 189.093 329.518 188.787C329.584 188.641 329.663 188.501 329.753 188.368Z" fill="#FCD844"/>
<path d="M291.484 214.19L290.851 215.842L291.865 217.297L290.089 217.208L289.013 218.614L288.548 216.907L286.879 216.327L288.358 215.356L288.403 213.588L289.786 214.698L291.484 214.19Z" fill="#FCD844"/>
<path d="M275.655 187.42L275.341 188.24L275.845 188.965L274.966 188.92L274.428 189.618L274.198 188.77L273.363 188.48L274.103 188L274.125 187.119L274.809 187.671L275.655 187.42Z" fill="#E1E1E1"/>
<path d="M320.358 210.698L320.044 211.518L320.543 212.243L319.663 212.199L319.125 212.896L318.896 212.048L318.066 211.758L318.8 211.278L318.823 210.397L319.512 210.949L320.358 210.698Z" fill="#FCD844"/>
<path d="M294.563 195.921L294.249 196.741L294.747 197.461L293.868 197.422L293.33 198.119L293.1 197.271L292.266 196.981L293.005 196.496L293.028 195.62L293.717 196.172L294.563 195.921Z" fill="#E1E1E1"/>
<path d="M330.827 187.548L330.513 188.368L331.011 189.094L330.132 189.049L329.6 189.752L329.364 188.904L328.535 188.608L329.269 188.128L329.292 187.253L329.981 187.799L330.827 187.548Z" fill="#E1E1E1"/>
<path d="M54.8359 252H104.657C104.657 252 100.248 244.018 87.4244 245.178C75.1778 246.294 74.5392 241.273 68.3318 240.632C62.1245 239.99 56.9144 244.765 54.8359 252Z" fill="#E1E1E1"/>
<path d="M52.2891 61.2052H102.11C102.11 61.2052 97.7012 53.2227 84.8775 54.383C72.631 55.4986 71.9923 50.4782 65.785 49.8367C59.5776 49.1952 54.3451 53.9702 52.2891 61.2052Z" fill="#F5F5F5"/>
<path d="M208.355 213.225H258.177C258.177 213.225 253.784 205.243 240.944 206.397C228.697 207.513 228.059 202.493 221.851 201.851C215.644 201.21 210.434 205.99 208.355 213.225Z" fill="#F5F5F5"/>
<path d="M200.496 237.998H150.703C150.703 237.998 155.107 230.016 167.93 231.176C180.177 232.292 180.815 227.271 187.028 226.63C193.241 225.988 198.423 230.763 200.496 237.998Z" fill="#F5F5F5"/>
<path d="M305.328 95.696H346.225C346.225 95.696 342.606 89.1414 332.068 90.1176C321.984 91.0269 321.496 86.8878 316.381 86.3802C311.267 85.8726 307.009 89.7551 305.328 95.696Z" fill="#F5F5F5"/>
<path d="M346.817 240.715C348.851 225.436 338.066 212.824 324.593 205.265C311.12 197.706 295.461 195.157 280.593 190.945C266.553 186.974 252.581 181.178 242.195 170.981C231.808 160.783 225.556 145.454 229.309 131.408C230.251 127.877 231.926 124.335 234.968 122.304C238.01 120.274 242.654 120.318 244.923 123.186C249.758 129.288 240.34 140.216 246.239 145.304C247.59 146.475 249.45 146.905 250.85 148.015C254.581 150.977 253.371 156.734 253.898 161.453C254.94 170.785 263.73 177.267 272.385 181.049C283.948 186.115 296.475 188.497 308.744 191.498C321.013 194.499 333.394 198.281 343.596 205.672C353.798 213.063 362.683 224.638 362.61 237.217C362.61 240.732 362.14 245.055 359.927 247.816C357.714 250.577 354.885 251.119 351.697 249.624C348.509 248.129 346.268 245.814 346.856 240.737" fill="#EFEFEF"/>
<g opacity="0.8">
<path opacity="0.8" d="M346.817 240.715C348.851 225.436 338.066 212.824 324.593 205.265C311.12 197.706 295.461 195.157 280.593 190.945C266.553 186.974 252.581 181.178 242.195 170.981C231.808 160.783 225.556 145.454 229.309 131.408C230.251 127.877 231.926 124.335 234.968 122.304C238.01 120.274 242.654 120.318 244.923 123.186C249.758 129.288 240.34 140.216 246.239 145.304C247.59 146.475 249.45 146.905 250.85 148.015C254.581 150.977 253.371 156.734 253.898 161.453C254.94 170.785 263.73 177.267 272.385 181.049C283.948 186.115 296.475 188.497 308.744 191.498C321.013 194.499 333.394 198.281 343.596 205.672C353.798 213.063 362.683 224.638 362.61 237.217C362.61 240.732 362.14 245.055 359.927 247.816C357.714 250.577 354.885 251.119 351.697 249.624C348.509 248.129 346.268 245.814 346.856 240.737" fill="#EFEFEF"/>
</g>
<path d="M281.616 119.292C281.129 113.63 285.364 108.693 290.182 106.066C295 103.439 300.507 102.351 305.471 100.008C317.796 94.1898 325.639 80.4839 326.199 66.46C326.76 52.4362 320.676 38.3789 311.112 28.0701C307.224 23.8753 302.446 19.4851 302.384 13.7674C302.328 7.80974 308.126 3.10165 313.942 3.17417C319.757 3.24668 325.096 7.12361 328.569 11.9879C332.043 16.8522 333.97 22.6536 335.852 28.3491C334.519 25.9671 337.253 23.0218 339.891 23.2728C342.53 23.5238 344.603 25.7217 346.222 27.8916C353.27 37.4089 356.65 49.1303 355.746 60.9208C354.794 72.4936 349.53 83.2938 340.989 91.1998C331.6 99.7179 319.174 103.718 307.135 107.505L281.992 115.404" fill="#EFEFEF"/>
<g opacity="0.8">
<path opacity="0.8" d="M281.616 119.292C281.129 113.63 285.364 108.693 290.182 106.066C295 103.439 300.507 102.351 305.471 100.008C317.796 94.1898 325.639 80.4839 326.199 66.46C326.76 52.4362 320.676 38.3789 311.112 28.0701C307.224 23.8753 302.446 19.4851 302.384 13.7674C302.328 7.80974 308.126 3.10165 313.942 3.17417C319.757 3.24668 325.096 7.12361 328.569 11.9879C332.043 16.8522 333.97 22.6536 335.852 28.3491C334.519 25.9671 337.253 23.0218 339.891 23.2728C342.53 23.5238 344.603 25.7217 346.222 27.8916C353.27 37.4089 356.65 49.1303 355.746 60.9208C354.794 72.4936 349.53 83.2938 340.989 91.1998C331.6 99.7179 319.174 103.718 307.135 107.505L281.992 115.404" fill="#EFEFEF"/>
</g>
<path d="M274.626 0.401694C273.396 0.970966 272.418 1.9714 271.881 3.21218C271.344 4.45296 271.284 5.84726 271.713 7.12913C272.231 8.37961 273.192 9.39688 274.414 9.98731C275.636 10.5777 277.034 10.7001 278.341 10.3311C279.606 9.86574 280.656 8.95499 281.293 7.77095C281.93 6.5869 282.109 5.21157 281.797 3.90487C281.399 2.61299 280.537 1.51251 279.375 0.813768C278.213 0.115028 276.834 -0.13296 275.5 0.1172" fill="#EFEFEF"/>
<g opacity="0.8">
<path opacity="0.8" d="M274.626 0.401694C273.396 0.970966 272.418 1.9714 271.881 3.21218C271.344 4.45296 271.284 5.84726 271.713 7.12913C272.231 8.37961 273.192 9.39688 274.414 9.98731C275.636 10.5777 277.034 10.7001 278.341 10.3311C279.606 9.86574 280.656 8.95499 281.293 7.77095C281.93 6.5869 282.109 5.21157 281.797 3.90487C281.399 2.61299 280.537 1.51251 279.375 0.813768C278.213 0.115028 276.834 -0.13296 275.5 0.1172" fill="#EFEFEF"/>
</g>
<path d="M152.787 78.7044C150.251 76.8332 148.2 74.3864 146.804 71.5672C145.409 68.7479 144.71 65.6378 144.765 62.4954C144.819 59.3529 145.627 56.2688 147.12 53.4995C148.612 50.7302 150.747 48.3557 153.347 46.5734C156.277 44.5652 159.745 43.3379 162.35 40.9337C164.664 38.7916 166.165 35.824 168.759 34.0222C170.38 32.8912 172.32 32.3034 174.299 32.3437C176.278 32.3841 178.193 33.0506 179.766 34.2466C181.339 35.4427 182.489 37.1063 183.049 38.9965C183.609 40.8867 183.551 42.9055 182.882 44.7604C181.689 48.1074 178.692 50.5172 177.437 53.8196C176.092 57.3785 176.961 61.3614 176.456 65.1324C176.147 67.4574 175.315 69.6832 174.024 71.6445C172.732 73.6058 171.013 75.2523 168.995 76.4618C166.977 77.6713 164.711 78.4126 162.366 78.6309C160.021 78.8492 157.656 78.5387 155.448 77.7226" fill="#EFEFEF"/>
<g opacity="0.8">
<path opacity="0.8" d="M152.787 78.7044C150.251 76.8332 148.2 74.3864 146.804 71.5672C145.409 68.7479 144.71 65.6378 144.765 62.4954C144.819 59.3529 145.627 56.2688 147.12 53.4995C148.612 50.7302 150.747 48.3557 153.347 46.5734C156.277 44.5652 159.745 43.3379 162.35 40.9337C164.664 38.7916 166.165 35.824 168.759 34.0222C170.38 32.8912 172.32 32.3034 174.299 32.3437C176.278 32.3841 178.193 33.0506 179.766 34.2466C181.339 35.4427 182.489 37.1063 183.049 38.9965C183.609 40.8867 183.551 42.9055 182.882 44.7604C181.689 48.1074 178.692 50.5172 177.437 53.8196C176.092 57.3785 176.961 61.3614 176.456 65.1324C176.147 67.4574 175.315 69.6832 174.024 71.6445C172.732 73.6058 171.013 75.2523 168.995 76.4618C166.977 77.6713 164.711 78.4126 162.366 78.6309C160.021 78.8492 157.656 78.5387 155.448 77.7226" fill="#EFEFEF"/>
</g>
<path d="M132.082 194.739C132.082 194.739 139.242 194.281 141.275 194.108C143.309 193.935 146.805 194.069 145.852 197.076C144.9 200.083 142.878 203.011 134.833 204.038L132.082 194.739Z" fill="url(#paint0_linear_59_3443)"/>
<path d="M134.144 198.978C134.144 198.978 141.108 200.691 143.108 201.131C145.108 201.572 148.396 202.749 146.576 205.332C144.755 207.915 141.954 210.101 133.965 208.679L134.144 198.978Z" fill="url(#paint1_linear_59_3443)"/>
<path d="M139.273 224.248C139.273 224.248 145.845 225.955 150.713 217.894L142.741 215.663L139.273 224.248Z" fill="#2E2E2E"/>
<path d="M137.895 226.306C129.083 231.912 119.239 234.289 109.29 234.289C104.581 234.269 99.8864 233.759 95.284 232.766C87.5935 231.099 80.1815 228.348 73.2726 224.594C66.5776 220.975 60.4448 216.409 55.0652 211.038C49.7397 205.698 45.2083 199.627 41.6085 193.009C41.0483 191.961 40.4881 190.906 39.9671 189.835C39.0483 187.976 38.2098 186.074 37.4516 184.129L37.3788 183.945C34.7215 177.148 33.0411 170.012 32.3872 162.747C32.3255 162.067 32.2695 161.386 32.2303 160.7C32.1332 159.194 32.0865 157.688 32.0903 156.181C32.0385 140.984 36.9262 126.179 46.0231 113.976C57.5414 98.4961 75.5472 89.2529 94.9367 94.5467C96.8285 95.0102 98.6639 95.678 100.41 96.5382C110.259 101.174 119.576 105.162 124.5 116.336C128.662 125.819 128.909 136.769 127.615 146.866C127.105 150.837 126.388 154.675 125.716 158.346C125.436 159.924 125.155 161.481 124.909 163.009C124.13 167.851 123.643 172.492 124.091 176.955C124.265 178.768 124.616 180.559 125.139 182.305C125.707 184.193 126.49 186.011 127.475 187.721C128.154 188.911 128.92 190.05 129.766 191.13C130.364 191.903 131.021 192.675 131.738 193.444C133.111 194.917 134.584 196.552 136.029 198.303C137.212 199.731 138.366 201.237 139.424 202.766C144.909 210.776 147.833 219.986 137.895 226.306Z" fill="url(#paint2_linear_59_3443)"/>
<path d="M80.9813 81.0027C80.1262 83.3016 79.8193 85.767 80.0849 88.2042C80.3608 90.3541 81.088 92.422 82.2194 94.2735C82.9141 95.4282 84.6956 98.2675 86.3371 97.7599C86.4001 97.7374 86.4556 97.6978 86.4972 97.6455C86.5388 97.5933 86.5648 97.5305 86.5724 97.4642C86.8357 96.2593 85.1326 94.7978 84.5556 93.7937C83.5561 92.0599 82.9499 90.1292 82.7796 88.1373C82.6117 86.018 82.9816 83.8907 83.8553 81.951C84.6732 80.1157 86.3931 78.6374 86.8245 76.6739C86.8466 76.5124 86.8315 76.3481 86.7805 76.1932C86.7295 76.0384 86.6439 75.8971 86.5301 75.78C86.4162 75.6629 86.2772 75.5731 86.1234 75.5173C85.9697 75.4615 85.8052 75.4411 85.6424 75.4578C83.1886 75.9877 81.7936 78.8383 80.9813 81.0027Z" fill="#2E2E2E"/>
<path d="M68.8494 127.368C70.2316 126.283 70.3283 124.11 69.0654 122.516C67.8025 120.922 65.6583 120.51 64.2761 121.596C62.8939 122.682 62.7972 124.854 64.0601 126.448C65.323 128.042 67.4672 128.454 68.8494 127.368Z" fill="#2E2E2E"/>
<path d="M96.1848 111.723C97.5254 110.9 97.7449 108.832 96.675 107.104C95.6051 105.376 93.6509 104.642 92.3103 105.464C90.9696 106.287 90.7501 108.355 91.8201 110.084C92.89 111.812 94.8441 112.546 96.1848 111.723Z" fill="#2E2E2E"/>
<path d="M65.4423 140.373C68.0818 139.774 69.8929 137.853 69.4876 136.084C69.0823 134.315 66.614 133.367 63.9745 133.966C61.335 134.566 59.5239 136.486 59.9292 138.255C60.3345 140.025 62.8028 140.973 65.4423 140.373Z" fill="#EB8757"/>
<path d="M109.574 116.691C111.238 114.711 111.319 112.05 109.755 110.747C108.191 109.444 105.575 109.993 103.911 111.973C102.247 113.953 102.166 116.614 103.73 117.917C105.294 119.22 107.91 118.671 109.574 116.691Z" fill="#EB8757"/>
<path d="M125.169 160.042C125.169 160.042 131.807 158.853 135.567 159.568C139.326 160.282 142.183 162.407 140.665 164.538C139.146 166.669 124.418 167.472 124.418 167.472L125.169 160.042Z" fill="#FCC440"/>
<path d="M55.6984 90.4413C54.3738 92.7649 53.5067 95.319 53.1438 97.9664C52.634 102.881 55.7881 107.522 60.4268 109.29C60.8581 109.452 61.5472 109.006 61.1495 108.526C59.8385 106.853 58.0122 105.737 56.8637 103.93C55.6088 101.983 55.508 99.7849 56.0122 97.5815C56.5777 95.3748 57.5032 93.2755 58.7517 91.3673C59.917 89.4985 62.0066 87.7358 62.3764 85.5045C62.4079 85.3485 62.3988 85.1871 62.35 85.0357C62.3011 84.8842 62.2142 84.7477 62.0973 84.6392C61.9805 84.5307 61.8377 84.4538 61.6826 84.4159C61.5274 84.3779 61.3651 84.3801 61.2111 84.4223C58.5612 84.9801 56.8693 88.2434 55.6984 90.4413Z" fill="#2E2E2E"/>
<g style="mix-blend-mode:overlay" opacity="0.3">
<path d="M56.0229 106.585C48.8351 111.153 43.0872 120.531 39.7762 128.162C29.2384 152.288 38.5325 181.641 54.1573 201.377C58.1766 206.487 62.9298 210.979 68.2639 214.709C68.2639 214.709 76.5272 221.152 79.8774 218.664C83.2276 216.176 71.149 201.851 68.8409 198.923C62.9865 191.425 59.4123 182.617 56.1349 173.787C53.1097 165.648 50.9584 157.052 52.1517 148.338C53.3879 139.903 55.5967 131.637 58.7344 123.705C60.2134 119.833 62.4599 116.129 63.5131 112.13C63.9893 110.306 65.0033 106.92 63.6196 105.224C61.7148 102.898 57.8716 105.43 56.0229 106.585Z" fill="white"/>
</g>
<path d="M132.928 173.993C113.426 127.392 157.768 112.682 187.679 100.259L210.139 90.9265L218.139 110.043L215.69 115.867L197.707 123.325C169.404 135.04 148.037 142.392 157.074 163.98C166.11 185.568 186.166 175.137 214.469 163.383L236.621 154.196L244.649 173.374L242.161 179.125L223.847 186.728C193.954 199.146 152.43 220.6 132.928 173.993Z" fill="#FFC800"/>
<path d="M132.928 173.993C113.426 127.392 157.768 112.682 187.679 100.259L210.139 90.9265L218.139 110.043L215.69 115.867L197.707 123.325C169.404 135.04 148.037 142.392 157.074 163.98C166.11 185.568 186.166 175.137 214.469 163.383L236.621 154.196L244.649 173.374L242.161 179.125L223.847 186.728C193.954 199.146 152.43 220.6 132.928 173.993Z" fill="#2E3175"/>
<path d="M193.504 120.263L192.496 125.473L215.678 115.856L218.138 110.049L193.504 120.263Z" fill="#C8C8C8"/>
<path d="M219.987 183.532L218.973 188.748L242.155 179.131L244.614 173.318L219.987 183.532Z" fill="#C8C8C8"/>
<path d="M131.213 169.904C111.711 123.281 156.059 108.571 185.947 96.1699L208.407 86.843L218.115 110.049L195.964 119.236C167.661 130.979 146.3 138.303 155.331 159.891C164.362 181.479 184.429 171.048 212.732 159.294L234.877 150.107L244.592 173.312L222.132 182.639C192.244 195.04 150.703 216.511 131.213 169.904Z" fill="#0059DF"/>
<path d="M208.408 86.843L218.116 110.049L195.965 119.236L193.489 120.263L183.797 97.0625L185.948 96.1755L208.408 86.843Z" fill="#DCDCDC"/>
<path d="M219.988 183.526L210.273 160.321L212.755 159.289L234.901 150.101L244.615 173.307L222.133 182.639C221.428 182.929 220.733 183.225 219.988 183.526Z" fill="#DCDCDC"/>
<path d="M244.996 153.459L246.951 150.988L247.932 149.755C248.257 149.348 248.57 148.93 248.946 148.539C249.7 147.763 250.638 147.187 251.674 146.866C252.723 146.552 253.832 146.499 254.907 146.71C255.411 146.833 255.921 146.93 256.436 147C256.94 147.061 257.45 147.061 257.954 147C258.968 146.871 259.932 146.487 260.755 145.884C261.556 145.237 262.266 144.487 262.867 143.653C263.54 142.787 264.412 142.096 265.411 141.639C266.417 141.188 267.521 140.996 268.621 141.081C269.158 141.13 269.69 141.223 270.212 141.36C270.706 141.482 271.211 141.553 271.719 141.572C272.736 141.602 273.744 141.376 274.649 140.914C275.555 140.445 276.341 139.775 276.946 138.956C277.566 138.069 278.38 137.335 279.327 136.808C280.279 136.291 281.346 136.022 282.431 136.027C283.489 136.088 284.537 136.275 285.551 136.585L288.61 137.377L285.517 136.73C284.511 136.452 283.474 136.299 282.431 136.273C281.401 136.293 280.392 136.573 279.501 137.087C278.602 137.606 277.836 138.324 277.26 139.184C276.944 139.622 276.586 140.028 276.19 140.395C275.78 140.754 275.328 141.063 274.845 141.315C273.868 141.819 272.78 142.072 271.68 142.052C271.136 142.038 270.595 141.966 270.066 141.84C269.571 141.711 269.064 141.627 268.554 141.589C267.542 141.525 266.53 141.717 265.613 142.147C264.686 142.563 263.875 143.196 263.248 143.993L262.234 145.203C261.518 146.03 260.606 146.667 259.582 147.057C258.557 147.446 257.451 147.576 256.363 147.435C255.839 147.35 255.319 147.238 254.806 147.1C253.802 146.889 252.763 146.921 251.775 147.195C250.782 147.475 249.876 148.001 249.142 148.723C247.73 150.252 246.391 151.903 244.996 153.459Z" fill="#1A2E35"/>
<path d="M247.309 161.453L249.264 158.982L250.244 157.749C250.569 157.342 250.883 156.918 251.258 156.527C252.014 155.752 252.952 155.177 253.987 154.854C255.028 154.536 256.132 154.474 257.202 154.675C257.762 154.787 258.222 154.915 258.732 154.971C259.236 155.029 259.746 155.029 260.25 154.971C261.264 154.842 262.228 154.458 263.051 153.855C263.852 153.209 264.562 152.458 265.163 151.624C265.837 150.76 266.709 150.069 267.707 149.61C268.713 149.159 269.817 148.967 270.917 149.052C271.454 149.101 271.986 149.195 272.508 149.331C273.001 149.454 273.506 149.525 274.015 149.543C275.031 149.573 276.038 149.348 276.945 148.891C277.849 148.416 278.634 147.745 279.242 146.927C279.86 146.039 280.675 145.305 281.623 144.779C282.574 144.261 283.642 143.994 284.726 144.004C285.786 144.061 286.834 144.249 287.847 144.562L290.906 145.354L287.813 144.707C286.807 144.428 285.77 144.276 284.726 144.255C283.695 144.285 282.687 144.573 281.796 145.092C280.901 145.614 280.135 146.331 279.555 147.189C279.24 147.627 278.882 148.033 278.485 148.4C278.075 148.758 277.624 149.067 277.141 149.32C276.165 149.826 275.076 150.08 273.976 150.056C273.432 150.042 272.891 149.971 272.362 149.844C271.866 149.716 271.36 149.632 270.849 149.593C269.84 149.521 268.828 149.704 267.908 150.123C266.982 150.539 266.171 151.173 265.544 151.97L264.53 153.18C264.173 153.599 263.767 153.974 263.32 154.296C262.427 154.932 261.386 155.331 260.295 155.456C259.752 155.526 259.202 155.526 258.659 155.456C258.148 155.358 257.643 155.232 257.146 155.077C256.143 154.865 255.103 154.898 254.115 155.172C253.123 155.454 252.218 155.979 251.482 156.7C250.037 158.24 248.704 159.891 247.309 161.453Z" fill="#1A2E35"/>
<path d="M249.621 169.441L251.571 166.97L252.557 165.737C252.882 165.33 253.195 164.906 253.571 164.516C254.326 163.741 255.264 163.165 256.299 162.842C257.34 162.529 258.44 162.468 259.509 162.664C260.015 162.788 260.528 162.887 261.044 162.959C261.549 163.018 262.058 163.018 262.562 162.959C263.576 162.831 264.54 162.447 265.364 161.844C266.163 161.196 266.873 160.445 267.476 159.612C268.147 158.746 269.017 158.054 270.013 157.593C271.019 157.14 272.123 156.948 273.224 157.035C273.763 157.078 274.298 157.171 274.82 157.314C275.314 157.432 275.819 157.501 276.327 157.52C277.344 157.552 278.351 157.327 279.257 156.868C280.161 156.395 280.944 155.723 281.549 154.904C282.17 154.019 282.984 153.285 283.93 152.756C284.884 152.241 285.953 151.974 287.039 151.981C288.098 152.038 289.146 152.226 290.159 152.539L293.218 153.331L290.126 152.684C289.119 152.408 288.083 152.256 287.039 152.232C286.008 152.254 284.999 152.532 284.103 153.041C283.219 153.567 282.465 154.284 281.896 155.138C281.58 155.578 281.22 155.984 280.82 156.349C280.413 156.711 279.964 157.021 279.481 157.275C278.504 157.777 277.416 158.028 276.316 158.006C275.772 157.991 275.231 157.92 274.703 157.794C274.207 157.665 273.701 157.581 273.19 157.543C272.18 157.471 271.169 157.653 270.249 158.073C269.325 158.492 268.514 159.125 267.885 159.919L266.871 161.13C266.514 161.548 266.107 161.923 265.66 162.245C264.766 162.883 263.723 163.285 262.63 163.411C262.088 163.475 261.541 163.475 260.999 163.411C260.475 163.325 259.955 163.211 259.442 163.071C258.438 162.862 257.399 162.895 256.411 163.166C255.418 163.449 254.511 163.975 253.772 164.694C252.349 166.234 251.016 167.907 249.621 169.441Z" fill="#1A2E35"/>
<path d="M219.953 92.2095L221.908 89.7383L222.889 88.5055C223.219 88.0983 223.527 87.6743 223.908 87.2839C224.661 86.5081 225.597 85.9327 226.631 85.6104C227.673 85.2951 228.776 85.2339 229.847 85.4319C230.351 85.5568 230.862 85.6555 231.376 85.7275C231.881 85.7861 232.39 85.7861 232.894 85.7275C233.908 85.6 234.873 85.2159 235.696 84.6118C236.497 83.9655 237.207 83.2151 237.808 82.3805C238.481 81.5145 239.353 80.822 240.351 80.3612C241.356 79.908 242.461 79.716 243.561 79.8033C244.101 79.8468 244.635 79.9402 245.158 80.0823C245.652 80.2009 246.157 80.27 246.665 80.2887C247.679 80.3202 248.685 80.0957 249.589 79.636C250.495 79.1639 251.28 78.4923 251.886 77.6724C252.507 76.7872 253.321 76.0531 254.267 75.5248C255.219 75.0094 256.287 74.7426 257.371 74.7494C258.43 74.8067 259.478 74.9941 260.491 75.3072L263.55 76.0993L260.458 75.4523C259.453 75.1766 258.418 75.0249 257.376 75.0004C256.345 75.0212 255.336 75.2993 254.441 75.8093C253.556 76.3339 252.801 77.0509 252.233 77.9067C251.915 78.3435 251.554 78.7489 251.158 79.1172C250.746 79.4758 250.295 79.7865 249.813 80.0432C248.838 80.5448 247.751 80.7959 246.654 80.774C246.108 80.7596 245.565 80.6886 245.035 80.562C244.539 80.4333 244.033 80.3492 243.522 80.311C242.51 80.2477 241.498 80.4395 240.581 80.8688C239.657 81.2874 238.849 81.9206 238.222 82.7152L237.203 83.9257C236.847 84.346 236.441 84.7207 235.992 85.0414C235.101 85.6812 234.059 86.0809 232.967 86.2017C232.426 86.2686 231.878 86.2686 231.337 86.2017C230.81 86.1149 230.289 86.0013 229.774 85.8614C228.771 85.65 227.731 85.6826 226.743 85.9562C225.751 86.2399 224.847 86.7652 224.11 87.4847C222.687 88.9964 221.354 90.6476 219.953 92.2095Z" fill="#1A2E35"/>
<path d="M222.266 100.198L224.221 97.7265L225.212 96.5048C225.543 96.0976 225.851 95.6736 226.226 95.2887C226.981 94.5123 227.919 93.9369 228.955 93.6152C229.997 93.3028 231.1 93.2416 232.17 93.4367C232.675 93.5617 233.185 93.6603 233.7 93.7324C234.204 93.791 234.714 93.791 235.218 93.7324C236.233 93.6066 237.197 93.2223 238.019 92.6167C238.82 91.9703 239.531 91.2199 240.131 90.3854C240.805 89.5194 241.677 88.8269 242.675 88.3661C243.68 87.9128 244.785 87.7209 245.885 87.8082C246.423 87.8517 246.955 87.945 247.476 88.0871C247.97 88.2068 248.475 88.2778 248.983 88.2991C249.999 88.3265 251.007 88.1002 251.913 87.6409C252.818 87.1678 253.603 86.4964 254.21 85.6773C254.834 84.7949 255.647 84.0614 256.591 83.5297C257.543 83.0143 258.611 82.7475 259.694 82.7543C260.755 82.8182 261.804 83.015 262.815 83.34L265.874 84.1265L262.748 83.4794C261.743 83.2038 260.708 83.0521 259.666 83.0276C258.635 83.0475 257.624 83.3277 256.731 83.842C255.844 84.3642 255.088 85.0794 254.518 85.9339C254.206 86.3742 253.847 86.78 253.448 87.1444C253.038 87.5048 252.587 87.8156 252.103 88.0704C251.126 88.5743 250.038 88.8274 248.938 88.8067C248.395 88.7898 247.854 88.7188 247.325 88.5948C246.829 88.4642 246.323 88.3783 245.812 88.3382C244.802 88.2661 243.791 88.4484 242.871 88.8681C241.948 89.2867 241.139 89.9199 240.512 90.7145L239.493 91.925C239.137 92.3453 238.731 92.72 238.283 93.0407C237.391 93.6799 236.349 94.0812 235.257 94.2065C234.716 94.2735 234.168 94.2735 233.627 94.2065C233.101 94.1197 232.579 94.0062 232.064 93.8663C231.061 93.6575 230.022 93.69 229.033 93.9611C228.043 94.2471 227.138 94.7721 226.4 95.4896C225 96.9845 223.666 98.6357 222.266 100.198Z" fill="#1A2E35"/>
<path d="M224.582 108.186L226.537 105.715L227.518 104.482C227.835 104.06 228.173 103.654 228.532 103.266C229.286 102.489 230.224 101.914 231.26 101.592C232.302 101.279 233.405 101.218 234.476 101.414C234.98 101.539 235.49 101.637 236.005 101.709C236.509 101.768 237.019 101.768 237.523 101.709C238.538 101.586 239.504 101.202 240.324 100.594C241.126 99.9473 241.836 99.1969 242.437 98.3624C243.109 97.4951 243.981 96.8024 244.98 96.3431C245.985 95.8894 247.09 95.6974 248.19 95.7852C248.728 95.8287 249.261 95.9221 249.781 96.0641C250.275 96.1838 250.78 96.2548 251.288 96.2761C252.305 96.3035 253.312 96.0772 254.218 95.6179C255.123 95.1448 255.908 94.4734 256.515 93.6543C257.137 92.7709 257.951 92.0387 258.896 91.5123C259.847 90.9945 260.915 90.7258 262 90.7313C263.06 90.7952 264.109 90.992 265.12 91.317L268.179 92.1036L265.075 91.4844C264.069 91.2083 263.032 91.0566 261.988 91.0325C260.958 91.0531 259.95 91.3333 259.058 91.8469C258.162 92.3657 257.395 93.0811 256.818 93.9388C256.505 94.3791 256.147 94.7849 255.748 95.1493C255.338 95.5097 254.886 95.8205 254.403 96.0753C253.426 96.5792 252.338 96.8323 251.238 96.8116C250.694 96.7947 250.154 96.7237 249.624 96.5997C249.129 96.4691 248.623 96.3833 248.112 96.3431C247.102 96.2711 246.091 96.4533 245.17 96.873C244.245 97.293 243.434 97.9281 242.806 98.725L241.792 99.9299C240.714 101.185 239.203 101.993 237.557 102.195C237.014 102.262 236.464 102.262 235.921 102.195C235.361 102.128 234.845 101.966 234.364 101.86C233.361 101.647 232.321 101.677 231.333 101.949C230.342 102.234 229.437 102.759 228.7 103.478C227.316 104.973 225.977 106.624 224.582 108.186Z" fill="#1A2E35"/>
<path d="M307.511 111.488L262.805 100.253L272.345 62.5943L298.278 54.0818L317.057 73.829L307.511 111.488Z" fill="#FFC800"/>
<path d="M307.511 111.488L262.805 100.253L272.345 62.5943L298.278 54.0818L317.057 73.829L307.511 111.488Z" fill="#FC81B3"/>
<path d="M305.719 107.974L266.055 98.0054L278.906 47.3042L308.358 54.7066L316.122 66.9343L305.719 107.974Z" fill="#ECECEC"/>
<path d="M308.358 54.7065L316.123 66.9342L305.91 64.3682L308.358 54.7065Z" fill="#DCDCDC"/>
<path d="M295.438 64.3904C297.011 64.7651 298.461 65.5323 299.654 66.6196C300.846 67.7069 301.741 69.0786 302.254 70.6054C302.767 72.1323 302.881 73.764 302.585 75.3468C302.289 76.9296 301.594 78.4114 300.564 79.6526C299.812 80.4533 298.8 80.9631 297.707 81.0918C297.518 81.0944 297.329 81.07 297.147 81.0193C296.855 80.9641 296.581 80.8394 296.347 80.6558C296.114 80.4722 295.929 80.2352 295.808 79.965C295.632 79.5375 295.589 79.0672 295.685 78.6151L295.892 77.7226C295.359 78.1164 294.746 78.3911 294.096 78.5278C293.447 78.6645 292.775 78.66 292.127 78.5147C290.872 78.1586 289.803 77.3358 289.14 76.2166C288.477 75.0973 288.271 73.7672 288.565 72.5013C288.86 71.2354 289.631 70.1305 290.721 69.4151C291.81 68.6997 293.134 68.4286 294.419 68.6578C295.68 68.987 296.759 69.8008 297.418 70.9207C298.078 72.0407 298.264 73.3754 297.937 74.6322L297.886 74.8441V74.9724L296.99 78.8271C296.94 79.0286 296.94 79.2391 296.99 79.4407C297.033 79.5202 297.095 79.5881 297.17 79.6386C297.245 79.6891 297.331 79.7208 297.421 79.7307L297.634 79.7809C298.356 79.6922 299.016 79.3308 299.477 78.7713C300.314 77.7987 300.892 76.6325 301.158 75.3797C301.52 73.8161 301.407 72.1809 300.835 70.681C300.263 69.181 299.257 67.8836 297.945 66.953C296.632 66.0224 295.072 65.5003 293.461 65.4527C291.851 65.4052 290.262 65.8344 288.896 66.686C287.531 67.5377 286.449 68.7734 285.789 70.2371C285.129 71.7007 284.92 73.3264 285.188 74.9085C285.455 76.4906 286.189 77.9581 287.294 79.1253C288.4 80.2924 289.828 81.1069 291.399 81.4656C292.058 81.6414 292.739 81.724 293.421 81.711C293.511 81.6866 293.606 81.6851 293.697 81.7066C293.788 81.728 293.872 81.7718 293.942 81.8339C294.012 81.896 294.064 81.9745 294.096 82.0621C294.127 82.1498 294.136 82.2439 294.122 82.3358C294.132 82.4216 294.123 82.5085 294.095 82.5903C294.068 82.6722 294.022 82.747 293.962 82.8094C293.902 82.8717 293.829 82.9201 293.748 82.9511C293.667 82.9821 293.581 82.9948 293.494 82.9885C292.71 83.0109 291.927 82.9322 291.164 82.7542C289.93 82.4965 288.761 81.9963 287.725 81.2829C286.689 80.5696 285.806 79.6574 285.128 78.5999C284.45 77.5424 283.991 76.3608 283.777 75.1243C283.564 73.8879 283.601 72.6215 283.885 71.3993C284.17 70.1772 284.696 69.0238 285.434 68.0069C286.172 66.99 287.106 66.13 288.182 65.4772C289.258 64.8245 290.454 64.3921 291.7 64.2055C292.946 64.0189 294.217 64.0817 295.438 64.3904ZM292.469 77.148C293.397 77.3289 294.36 77.1373 295.147 76.6149C295.934 76.0925 296.481 75.2816 296.671 74.3588C296.806 73.9082 296.846 73.4349 296.79 72.9679C296.735 72.501 296.583 72.0504 296.346 71.644C296.108 71.2376 295.79 70.884 295.409 70.605C295.029 70.3259 294.596 70.1274 294.136 70.0216C293.675 69.9159 293.198 69.9051 292.734 69.99C292.269 70.0749 291.827 70.2537 291.435 70.5153C291.043 70.777 290.708 71.1159 290.452 71.5112C290.197 71.9064 290.025 72.3497 289.948 72.8136C289.827 73.2631 289.796 73.7319 289.857 74.1931C289.919 74.6544 290.071 75.0991 290.305 75.5018C290.539 75.9044 290.851 76.2571 291.222 76.5396C291.594 76.8221 292.017 77.0288 292.469 77.148Z" fill="#A8A8A8"/>
<path d="M314.665 83.2562L307.511 111.488L262.805 100.253L269.959 72.0215C271.606 73.589 273.203 75.2011 274.822 76.7854C276.441 78.3696 278.037 79.9985 279.623 81.6217C281.397 83.418 283.163 85.2309 284.923 87.0606H285.001C284.977 87.0683 284.954 87.0796 284.934 87.0941L288.889 91.1941C290.693 90.6084 292.502 90.0171 294.312 89.4481C294.312 89.4481 294.312 89.4091 294.273 89.3923L294.329 89.4425C296.749 88.6653 299.177 87.9029 301.612 87.1554C303.785 86.4823 305.961 85.8222 308.138 85.1751C310.295 84.5169 312.469 83.8586 314.665 83.2562Z" fill="#FC81B3"/>
<g opacity="0.2">
<path opacity="0.2" d="M314.666 83.2563C312.543 84.0651 310.397 84.8126 308.263 85.5991C306.128 86.3857 303.971 87.1109 301.82 87.8305C299.579 88.6003 297.338 89.3608 295.097 90.112L294.89 90.1845L288.912 92.1592L288.615 92.2485L288.408 92.0365L284.094 87.4679L283.943 87.3061C282.318 85.5843 280.701 83.8513 279.091 82.1071C277.556 80.4336 276.021 78.7601 274.498 77.0866C272.974 75.4132 271.461 73.7118 269.977 71.9937C271.624 73.5612 273.22 75.1733 274.839 76.7575C276.458 78.3418 278.055 79.9706 279.64 81.5939C281.415 83.3901 283.181 85.2031 284.94 87.0328L288.895 91.1328C290.699 90.5471 292.509 89.9558 294.318 89.3868C296.739 88.6096 299.166 87.8472 301.601 87.0997C303.775 86.4266 305.951 85.7665 308.128 85.1194C310.296 84.5169 312.47 83.8587 314.666 83.2563Z" fill="black"/>
<path opacity="0.2" d="M285.002 87.0217C284.978 87.0295 284.956 87.0408 284.935 87.0552L284.078 87.4736C282.717 88.1318 281.344 88.7454 279.955 89.3311C278.274 90.0563 276.537 90.7257 274.812 91.384C273.086 92.0422 271.355 92.6558 269.596 93.2415C267.837 93.8272 266.078 94.3572 264.285 94.8481C265.938 94.0057 267.647 93.2583 269.327 92.5387C271.008 91.8191 272.75 91.1441 274.47 90.4803C276.19 89.8164 277.932 89.2084 279.686 88.6227C281.086 88.1541 282.487 87.7079 283.927 87.3118C284.257 87.217 284.588 87.1277 284.924 87.044L285.002 87.0217Z" fill="black"/>
<path opacity="0.2" d="M308.777 106.044C307.416 104.788 306.127 103.461 304.856 102.139C303.584 100.817 302.363 99.4221 301.141 98.0387C299.92 96.6552 298.744 95.2495 297.595 93.7991C296.66 92.6333 295.735 91.4451 294.861 90.2235L294.301 89.4425C294.301 89.4425 294.301 89.4035 294.262 89.3867L294.318 89.4369L295.068 90.1509C296.133 91.1718 297.158 92.2316 298.172 93.3027C299.438 94.6471 300.665 96.0193 301.875 97.4083C303.085 98.7973 304.273 100.197 305.421 101.648C306.57 103.098 307.718 104.521 308.777 106.044Z" fill="black"/>
</g>
<path d="M369.002 181.072L333.518 191.241L324.879 161.347L339.378 145.047L360.364 151.178L369.002 181.072Z" fill="#FFC800"/>
<path d="M369.002 181.072L333.518 191.241L324.879 161.347L339.378 145.047L360.364 151.178L369.002 181.072Z" fill="#FC81B3"/>
<path d="M366.342 179.359L334.857 188.379L323.227 148.132L346.605 141.438L356.93 146.782L366.342 179.359Z" fill="#ECECEC"/>
<path d="M346.605 141.438L356.93 146.782L348.818 149.103L346.605 141.438Z" fill="#DCDCDC"/>
<path d="M341.579 153.32C342.819 152.948 344.134 152.896 345.4 153.17C346.666 153.443 347.841 154.034 348.815 154.885C349.788 155.736 350.528 156.82 350.965 158.034C351.401 159.249 351.52 160.554 351.31 161.827C351.112 162.682 350.619 163.44 349.915 163.969C349.788 164.041 349.653 164.098 349.512 164.136C349.287 164.214 349.048 164.237 348.813 164.203C348.577 164.169 348.354 164.079 348.162 163.941C347.865 163.717 347.643 163.41 347.523 163.059L347.31 162.357C347.099 162.843 346.786 163.278 346.392 163.633C345.998 163.989 345.531 164.255 345.024 164.415C344.008 164.683 342.927 164.549 342.007 164.042C341.088 163.534 340.401 162.692 340.09 161.692C339.78 160.692 339.87 159.611 340.341 158.675C340.813 157.74 341.63 157.022 342.621 156.672C343.119 156.532 343.641 156.491 344.155 156.552C344.67 156.613 345.167 156.776 345.618 157.029C346.069 157.283 346.465 157.623 346.783 158.03C347.102 158.437 347.336 158.903 347.472 159.4L347.528 159.562V159.668L348.47 162.691C348.521 162.849 348.612 162.991 348.733 163.104C348.794 163.143 348.864 163.165 348.937 163.17C349.009 163.175 349.082 163.162 349.148 163.132L349.316 163.082C349.782 162.733 350.094 162.217 350.184 161.643C350.374 160.633 350.307 159.591 349.988 158.614C349.604 157.388 348.864 156.303 347.861 155.496C346.858 154.689 345.638 154.196 344.353 154.079C343.069 153.963 341.779 154.228 340.647 154.842C339.514 155.455 338.589 156.389 337.989 157.526C337.39 158.663 337.142 159.951 337.277 161.228C337.413 162.504 337.925 163.713 338.75 164.699C339.575 165.686 340.675 166.408 341.911 166.772C343.148 167.136 344.465 167.128 345.697 166.747C346.224 166.602 346.729 166.386 347.198 166.105C347.252 166.065 347.314 166.037 347.38 166.023C347.446 166.01 347.514 166.011 347.58 166.027C347.645 166.043 347.706 166.073 347.758 166.116C347.811 166.158 347.853 166.212 347.881 166.273C347.923 166.328 347.953 166.391 347.967 166.459C347.982 166.527 347.982 166.597 347.966 166.665C347.951 166.732 347.921 166.795 347.878 166.85C347.835 166.905 347.781 166.949 347.719 166.981C346.8 167.55 345.77 167.916 344.698 168.056C343.625 168.195 342.535 168.105 341.501 167.79C340.466 167.476 339.511 166.945 338.699 166.233C337.888 165.521 337.239 164.644 336.795 163.662C336.352 162.68 336.125 161.614 336.129 160.537C336.133 159.46 336.369 158.397 336.819 157.418C337.27 156.439 337.926 155.567 338.743 154.861C339.56 154.155 340.519 153.632 341.556 153.325L341.579 153.32ZM344.694 163.361C345.411 163.11 346 162.587 346.332 161.906C346.664 161.224 346.711 160.44 346.464 159.724C346.257 158.995 345.772 158.375 345.113 157.997C344.453 157.619 343.672 157.512 342.935 157.699C342.219 157.955 341.635 158.482 341.309 159.165C340.982 159.849 340.94 160.633 341.192 161.347C341.29 161.707 341.459 162.045 341.688 162.34C341.917 162.635 342.202 162.883 342.527 163.068C342.852 163.254 343.211 163.373 343.583 163.421C343.955 163.468 344.332 163.442 344.694 163.344V163.361Z" fill="#A8A8A8"/>
<path d="M362.524 158.664L369 181.072L333.515 191.241L327.039 168.827C328.809 169.251 330.569 169.726 332.333 170.172C334.098 170.618 335.857 171.109 337.611 171.594C339.568 172.122 341.525 172.667 343.482 173.229L343.527 173.184C343.513 173.2 343.502 173.216 343.493 173.234L347.891 174.484C348.899 173.368 349.919 172.219 350.938 171.098H350.882H350.944C352.307 169.592 353.672 168.093 355.039 166.602C356.272 165.27 357.51 163.941 358.754 162.613C360.014 161.291 361.252 159.958 362.524 158.664Z" fill="#FC81B3"/>
<g opacity="0.2">
<path opacity="0.2" d="M362.524 158.664C361.404 160.075 360.199 161.453 359.039 162.853C357.88 164.253 356.681 165.642 355.493 166.998C354.305 168.353 353 169.859 351.751 171.282L351.639 171.416L348.305 175.159L348.137 175.337L347.902 175.276L343.067 173.842L342.899 173.798C341.078 173.24 339.258 172.682 337.437 172.124C335.616 171.566 333.964 171.048 332.227 170.495C330.49 169.943 328.759 169.38 327.039 168.788C328.809 169.212 330.569 169.687 332.333 170.133C334.098 170.579 335.857 171.07 337.611 171.555C339.568 172.083 341.525 172.628 343.482 173.19L347.88 174.439C348.888 173.324 349.908 172.175 350.927 171.053C352.29 169.547 353.656 168.048 355.023 166.557C356.255 165.226 357.493 163.896 358.737 162.569C360.014 161.291 361.252 159.958 362.524 158.664Z" fill="black"/>
<path opacity="0.2" d="M343.526 173.184C343.513 173.199 343.502 173.216 343.493 173.234C343.353 173.446 343.213 173.658 343.067 173.865C342.395 174.869 341.689 175.845 340.966 176.81C340.081 177.993 339.162 179.147 338.238 180.296C337.313 181.446 336.361 182.561 335.381 183.671C334.4 184.781 333.409 185.875 332.355 186.918C333.162 185.668 334.036 184.475 334.91 183.292C335.784 182.109 336.714 180.955 337.638 179.806C338.563 178.656 339.521 177.535 340.496 176.425C341.274 175.544 342.07 174.662 342.899 173.82C343.089 173.619 343.28 173.424 343.459 173.229L343.526 173.184Z" fill="black"/>
<path opacity="0.2" d="M367.674 176.799C366.223 176.47 364.794 176.074 363.377 175.65C361.96 175.226 360.576 174.768 359.153 174.305C357.73 173.842 356.352 173.329 354.985 172.794C353.864 172.359 352.744 171.912 351.624 171.416L350.923 171.098H350.867H350.929L351.736 171.293C352.89 171.572 354.027 171.896 355.164 172.23C356.582 172.649 357.965 173.112 359.388 173.58C360.811 174.049 362.189 174.556 363.556 175.092C364.923 175.627 366.329 176.169 367.674 176.799Z" fill="black"/>
</g>
<path d="M206.376 79.2102L204.949 99.1802L236.573 101.421L238 81.4507L206.376 79.2102Z" fill="#FC81B3"/>
<path opacity="0.2" d="M238.014 81.4433C236.652 82.559 235.263 83.6412 233.891 84.7457C232.518 85.8502 231.129 86.9045 229.739 87.97C228.35 89.0354 226.837 90.2013 225.381 91.2723L225.252 91.3839L221.386 94.2679L221.196 94.4073L221.028 94.2456C219.907 93.1299 218.753 91.9752 217.616 90.8316C217.574 90.7954 217.535 90.7563 217.498 90.7145C216.21 89.424 214.927 88.1224 213.649 86.8097C212.434 85.5657 211.212 84.2994 210.002 83.0387C208.792 81.778 207.582 80.495 206.395 79.1897C207.677 80.3054 208.932 81.5159 210.198 82.6761C211.465 83.8364 212.72 85.0413 213.974 86.2463C215.371 87.5739 216.762 88.9183 218.148 90.2794C219.19 91.289 220.227 92.3099 221.269 93.3251C222.439 92.4661 223.61 91.5959 224.787 90.7479C226.355 89.6323 227.919 88.4664 229.493 87.3452C230.905 86.3411 232.294 85.337 233.734 84.3552C235.173 83.3734 236.58 82.4084 238.014 81.4433Z" fill="black"/>
<path opacity="0.2" d="M218.162 90.7703C218.162 90.7703 218.162 90.7703 218.123 90.7982C217.949 90.932 217.77 91.0603 217.596 91.1831C216.756 91.7967 215.915 92.3768 215.024 92.9402C213.966 93.6319 212.879 94.2902 211.792 94.9484C210.705 95.6067 209.607 96.2203 208.492 96.8283C207.377 97.4363 206.251 98.0221 205.086 98.552C206.106 97.7822 207.159 97.0738 208.223 96.3876C209.288 95.7015 210.369 95.0321 211.456 94.3738C212.543 93.7156 213.646 93.0964 214.761 92.494C215.652 92.0086 216.554 91.5345 217.473 91.0938L218.117 90.7926L218.162 90.7703Z" fill="black"/>
<path opacity="0.2" d="M236.556 100.783C235.481 100.097 234.45 99.3552 233.43 98.5965C232.411 97.8379 231.419 97.0569 230.427 96.2704C229.436 95.4838 228.461 94.6582 227.514 93.8215C226.736 93.1465 225.968 92.4548 225.229 91.7296L224.752 91.2722L224.719 91.2332H224.764L225.357 91.6292C226.203 92.187 227.038 92.7895 227.839 93.392C228.859 94.1506 229.856 94.9316 230.842 95.7237C231.828 96.5158 232.803 97.3302 233.755 98.167C234.708 99.0037 235.654 99.8795 236.556 100.783Z" fill="black"/>
<path d="M365.991 85.3041L343.902 86.4375L344.624 100.387L366.713 99.2537L365.991 85.3041Z" fill="#FC81B3"/>
<path opacity="0.2" d="M365.982 85.3147C365.136 86.2072 364.268 87.0663 363.416 87.9532C362.565 88.8402 361.685 89.6825 360.811 90.536C359.937 91.3895 358.996 92.3155 358.083 93.1968L357.999 93.2805L355.567 95.6067L355.45 95.7182L355.321 95.6234L352.665 93.5483L352.57 93.4758C351.567 92.6948 350.57 91.9083 349.573 91.105C348.576 90.3017 347.674 89.5765 346.727 88.8067C345.78 88.0369 344.833 87.2504 343.926 86.4471C344.912 87.1276 345.881 87.8417 346.861 88.539C347.842 89.2362 348.811 89.9614 349.78 90.6866C350.856 91.4899 351.937 92.3043 353.013 93.1299L355.433 94.9763C356.172 94.279 356.912 93.5817 357.674 92.8956C358.66 91.9696 359.648 91.0511 360.637 90.1399C361.53 89.3218 362.423 88.5111 363.315 87.7078C364.184 86.9045 365.074 86.0901 365.982 85.3147Z" fill="black"/>
<path opacity="0.2" d="M353.036 93.4424C353.034 93.4515 353.034 93.4611 353.036 93.4703L352.7 93.7771C352.173 94.2736 351.624 94.7477 351.07 95.2107C350.397 95.7685 349.703 96.3264 349.008 96.8842C348.313 97.442 347.602 97.9496 346.879 98.4628C346.156 98.976 345.428 99.4837 344.672 99.9467C345.311 99.3275 345.977 98.7473 346.655 98.1839C347.333 97.6205 348.028 97.0683 348.722 96.5104C349.417 95.9526 350.128 95.4394 350.851 94.9262C351.411 94.5134 352.011 94.1118 352.61 93.7269L353.025 93.4647L353.036 93.4424Z" fill="black"/>
<path opacity="0.2" d="M366.632 98.8141C365.831 98.4292 365.046 98.0053 364.279 97.5646C363.511 97.1239 362.755 96.672 361.999 96.209C361.242 95.746 360.503 95.2607 359.758 94.7643C359.156 94.3626 358.568 93.9442 357.993 93.5091L357.629 93.2302H357.663L358.105 93.4534C358.738 93.7713 359.36 94.1116 359.976 94.463C360.749 94.8981 361.506 95.3556 362.256 95.8186C363.007 96.2816 363.752 96.7669 364.497 97.2689C365.242 97.771 365.931 98.2674 366.632 98.8141Z" fill="black"/>
<path d="M216.469 96.3538L207.059 106.713L223.462 121.486L232.872 111.127L216.469 96.3538Z" fill="white"/>
<path d="M223.454 121.468L215.213 114.216L206.927 106.852L206.793 106.735L206.916 106.601L216.3 96.2202L216.44 96.064L216.597 96.209C222.054 101.146 227.527 106.066 232.95 111.031L233.051 111.125L232.961 111.226L223.454 121.468ZM223.454 121.468L232.76 111.008V111.198C227.247 106.322 221.79 101.391 216.306 96.4823H216.603L207.174 106.819V106.562L215.297 113.976L223.454 121.468Z" fill="#C8C8C8"/>
<path opacity="0.2" d="M232.861 111.109C231.628 111.148 230.401 111.142 229.169 111.165C227.936 111.187 226.721 111.165 225.494 111.165C224.267 111.165 222.945 111.165 221.673 111.114H221.555L218.194 111.047H218.032V110.891C217.897 109.776 217.765 108.66 217.634 107.544C217.631 107.505 217.631 107.466 217.634 107.427C217.484 106.166 217.341 104.904 217.203 103.639C217.074 102.435 216.95 101.218 216.827 100.008C216.704 98.7975 216.597 97.5758 216.508 96.343C216.721 97.52 216.9 98.7138 217.068 99.8908C217.236 101.068 217.432 102.273 217.6 103.467C217.796 104.794 217.981 106.133 218.16 107.472C218.295 108.476 218.424 109.48 218.558 110.484C219.572 110.512 220.592 110.534 221.6 110.573C222.956 110.618 224.306 110.663 225.656 110.718C226.866 110.77 228.073 110.828 229.275 110.891C230.457 110.964 231.668 111.008 232.861 111.109Z" fill="black"/>
<path opacity="0.2" d="M217.932 107.723H217.472C216.744 107.695 216.027 107.645 215.304 107.583C214.419 107.511 213.54 107.41 212.66 107.304C211.78 107.198 210.906 107.065 210.033 106.919C209.159 106.774 208.285 106.618 207.422 106.412C208.313 106.412 209.198 106.49 210.077 106.562C210.957 106.635 211.842 106.741 212.722 106.841C213.601 106.942 214.475 107.076 215.355 107.226C216.049 107.338 216.75 107.466 217.444 107.617L217.926 107.728L217.932 107.723Z" fill="black"/>
<path opacity="0.2" d="M223.719 121.099C223.427 120.263 223.158 119.426 222.946 118.561C222.733 117.697 222.503 116.854 222.301 115.995C222.1 115.136 221.915 114.272 221.741 113.407C221.607 112.699 221.489 111.99 221.394 111.276C221.394 111.125 221.349 110.975 221.332 110.824C221.332 110.824 221.332 110.824 221.332 110.785V110.824L221.483 111.293C221.707 111.962 221.903 112.643 222.088 113.323C222.324 114.177 222.531 115.03 222.733 115.889C222.934 116.748 223.114 117.613 223.293 118.483C223.472 119.353 223.612 120.218 223.719 121.099Z" fill="black"/>
<path d="M332.112 117.741L302.77 129.694L310.383 148.224L339.726 136.271L332.112 117.741Z" fill="white"/>
<path d="M339.719 136.273L325.153 142.325L310.436 148.383L310.296 148.444L310.235 148.299L302.571 129.791L302.492 129.595L302.688 129.517L332.061 117.647L332.179 117.596L332.223 117.714L335.994 127.024L339.719 136.273ZM339.719 136.273L335.837 127.007L331.994 117.792L332.156 117.859L302.845 129.891L302.963 129.618L310.526 148.166L310.319 148.082L324.974 142.169L339.719 136.273Z" fill="#C8C8C8"/>
<path opacity="0.2" d="M332.112 117.741C331.389 119.354 330.621 120.927 329.871 122.522C329.12 124.117 328.352 125.679 327.579 127.247C326.806 128.814 325.966 130.51 325.148 132.133L325.081 132.29L322.901 136.585L322.789 136.791L322.571 136.719C321.041 136.206 319.518 135.692 317.994 135.168C317.938 135.168 317.887 135.135 317.831 135.118C316.106 134.53 314.378 133.932 312.649 133.322C311.002 132.764 309.349 132.15 307.702 131.553C306.055 130.956 304.397 130.343 302.75 129.696C304.431 130.148 306.061 130.661 307.719 131.146C309.378 131.631 311.03 132.15 312.688 132.675C314.526 133.247 316.371 133.839 318.224 134.448L322.38 135.804C323.041 134.515 323.708 133.221 324.38 131.944C325.269 130.226 326.169 128.515 327.081 126.812C327.895 125.287 328.717 123.77 329.546 122.26C330.425 120.743 331.249 119.225 332.112 117.741Z" fill="black"/>
<path opacity="0.2" d="M318.456 134.85C318.456 134.85 318.456 134.884 318.456 134.895L318.154 135.453C317.672 136.373 317.162 137.271 316.63 138.158C315.991 139.246 315.313 140.317 314.63 141.382C313.946 142.448 313.241 143.491 312.507 144.528C311.773 145.566 311.028 146.592 310.227 147.58C310.787 146.464 311.425 145.348 312.07 144.233C312.714 143.117 313.392 142.074 314.07 141.009C314.748 139.943 315.465 138.894 316.199 137.857C316.759 137.031 317.375 136.211 318.003 135.408L318.445 134.85H318.456Z" fill="black"/>
<path opacity="0.2" d="M339.406 135.704C338.14 135.564 336.879 135.352 335.635 135.146C334.392 134.939 333.142 134.655 331.899 134.387C330.655 134.119 329.428 133.829 328.201 133.483C327.204 133.216 326.207 132.926 325.221 132.613L324.593 132.412C324.577 132.41 324.56 132.41 324.543 132.412H324.599L325.305 132.507C326.313 132.636 327.316 132.808 328.319 132.993C329.568 133.216 330.806 133.483 332.044 133.757C333.282 134.03 334.521 134.315 335.747 134.66C336.974 135.006 338.196 135.291 339.406 135.704Z" fill="black"/>
<path d="M239.938 151.297L228.805 181.122L276.035 198.602L287.168 168.777L239.938 151.297Z" fill="white"/>
<path d="M276.038 198.588L252.425 189.958L228.755 181.295L228.609 181.239L228.665 181.094L239.747 151.256L239.82 151.055L240.016 151.133L287.215 168.694L287.333 168.733L287.288 168.85L276.038 198.588ZM276.038 198.588L287.058 168.721L287.131 168.878L239.87 151.479L240.139 151.356L228.934 181.161L228.845 180.96L252.402 189.735L276.038 198.588Z" fill="#C8C8C8"/>
<path opacity="0.2" d="M287.168 168.777C284.585 169.893 281.991 170.908 279.403 171.985C276.815 173.061 274.215 174.049 271.621 175.059C268.91 176.107 266.2 177.143 263.492 178.166L263.246 178.266L256.025 180.955L255.677 181.078L255.492 180.76C254.264 178.528 253.039 176.288 251.817 174.038C251.772 173.965 251.733 173.882 251.688 173.803C250.305 171.265 248.926 168.722 247.571 166.15C246.271 163.712 244.977 161.247 243.694 158.781C242.411 156.315 241.145 153.822 239.918 151.301C241.363 153.604 242.719 155.975 244.159 158.318C245.599 160.661 246.96 163.043 248.316 165.43C249.847 168.082 251.365 170.752 252.87 173.441C253.991 175.443 255.111 177.463 256.26 179.477C258.434 178.679 260.613 177.881 262.781 177.106C265.683 176.057 268.585 175.023 271.487 174.004C274.101 173.097 276.703 172.204 279.291 171.327C281.958 170.479 284.557 169.581 287.168 168.777Z" fill="black"/>
<path opacity="0.2" d="M252.713 174.149L252.635 174.177C252.31 174.294 251.985 174.417 251.66 174.528C250.103 175.086 248.534 175.594 246.954 176.063C245.021 176.648 243.077 177.178 241.122 177.686C239.167 178.193 237.201 178.662 235.24 179.086C233.279 179.51 231.285 179.912 229.273 180.202C231.173 179.482 233.1 178.868 235.027 178.288C236.954 177.708 238.915 177.173 240.859 176.659C242.803 176.146 244.781 175.683 246.753 175.254C248.321 174.913 249.912 174.595 251.509 174.333C251.884 174.272 252.248 174.211 252.629 174.16L252.713 174.149Z" fill="black"/>
<path opacity="0.2" d="M276.279 197.606C274.957 196.078 273.708 194.482 272.498 192.876C271.288 191.269 270.117 189.635 268.957 187.989C267.798 186.343 266.688 184.642 265.596 182.969C264.711 181.591 263.854 180.179 263.047 178.763C262.868 178.456 262.699 178.155 262.531 177.848C262.531 177.848 262.531 177.803 262.492 177.781L262.554 177.842C262.795 178.132 263.041 178.4 263.277 178.707C264.319 179.94 265.305 181.217 266.279 182.5C267.495 184.107 268.66 185.741 269.809 187.392C270.957 189.043 272.083 190.739 273.17 192.413C274.257 194.086 275.316 195.827 276.279 197.606Z" fill="black"/>
<path d="M303.89 158.682L281.812 160.007L282.657 173.95L304.734 172.625L303.89 158.682Z" fill="#FC81B3"/>
<path opacity="0.2" d="M303.886 158.692C303.045 159.59 302.205 160.46 301.342 161.347C300.479 162.234 299.628 163.093 298.765 163.958C297.902 164.822 296.961 165.754 296.054 166.641L295.975 166.724C295.176 167.513 294.371 168.296 293.561 169.073L293.443 169.184L293.314 169.09L290.642 167.042L290.546 166.97C289.538 166.194 288.535 165.419 287.532 164.627C286.53 163.835 285.616 163.115 284.658 162.351C283.7 161.587 282.754 160.811 281.812 160.014C282.804 160.683 283.779 161.392 284.765 162.083C285.751 162.775 286.726 163.489 287.701 164.209C288.787 164.995 289.874 165.804 290.961 166.618L293.398 168.443C294.126 167.745 294.86 167.037 295.589 166.345C296.563 165.414 297.544 164.482 298.53 163.556C299.411 162.73 300.296 161.912 301.185 161.101C302.098 160.293 302.984 159.473 303.886 158.692Z" fill="black"/>
<path opacity="0.2" d="M291.014 166.931L290.986 166.959L290.656 167.271C290.135 167.768 289.591 168.247 289.042 168.716C288.37 169.274 287.681 169.832 286.992 170.389C286.303 170.947 285.597 171.472 284.88 171.99C284.163 172.509 283.434 173.022 282.684 173.497C283.317 172.872 283.983 172.281 284.65 171.712C285.317 171.143 286.011 170.596 286.7 170.038C287.39 169.48 288.101 168.95 288.818 168.431C289.378 168.019 289.972 167.606 290.566 167.221L290.981 166.953L291.014 166.931Z" fill="black"/>
<path opacity="0.2" d="M304.654 172.186C303.847 171.806 303.063 171.388 302.29 170.958C301.516 170.529 300.76 170.077 299.998 169.62C299.236 169.162 298.497 168.688 297.757 168.192C297.158 167.796 296.564 167.388 295.987 166.953L295.617 166.68H295.651L296.099 166.897C296.738 167.21 297.36 167.545 297.976 167.89C298.755 168.32 299.511 168.772 300.267 169.229C301.023 169.687 301.774 170.166 302.508 170.657C303.242 171.148 303.948 171.645 304.654 172.186Z" fill="black"/>
<path d="M125.711 158.351C125.431 159.93 125.151 161.486 124.904 163.015C118.914 165.311 112.751 167.134 106.473 168.465C105.352 168.71 104.282 168.889 103.184 169.101C102.086 169.313 100.994 169.519 99.8846 169.659L96.5681 170.138C95.4476 170.289 94.3272 170.412 93.2403 170.534C92.1535 170.657 90.9994 170.769 89.879 170.841C88.7585 170.914 87.638 171.031 86.5176 171.092C84.2767 171.182 82.0358 171.293 79.7948 171.304C77.5539 171.315 75.313 171.26 73.0721 171.204C70.8312 171.148 68.5903 170.964 66.3494 170.769C62.356 170.456 58.387 169.887 54.4669 169.067C53.9963 168.973 53.5257 168.867 53.0551 168.761C48.6682 167.763 44.3716 166.407 40.2091 164.705C38.9206 164.147 37.6432 163.589 36.3883 162.976C35.6152 162.604 34.8496 162.21 34.0914 161.793C33.4471 161.436 32.8085 161.074 32.1754 160.678C32.0783 159.171 32.0316 157.665 32.0354 156.159C33.1969 156.248 34.3472 156.343 35.4864 156.444H35.7441C37.901 156.639 40.0466 156.823 42.1699 157.046L52.1027 158.1L54.9039 158.385L67.4474 159.701C71.6323 160.092 75.8508 160.376 80.0301 160.521C84.2094 160.666 88.4336 160.756 92.6745 160.694L95.8006 160.655L98.9715 160.544C101.089 160.499 103.201 160.343 105.324 160.248C112.092 159.846 118.854 159.144 125.711 158.351Z" fill="#2E2E2E"/>
<path d="M39.9682 189.83C41.6489 190.494 43.3632 191.085 45.0887 191.581C49.3834 192.831 53.7761 193.72 58.2204 194.237C62.6551 194.74 67.1204 194.927 71.5819 194.794L74.9432 194.677C76.0637 194.629 77.1842 194.564 78.3046 194.482C79.4251 194.415 80.5455 194.298 81.6324 194.198C82.7192 194.097 83.8733 193.997 84.9601 193.852C93.7883 192.8 102.488 190.866 110.927 188.078C115.784 186.441 120.536 184.51 125.157 182.293C124.634 180.548 124.283 178.757 124.109 176.944C119.011 178.093 113.946 179.175 108.865 180.04C100.599 181.478 92.2651 182.502 83.8957 183.108C82.8537 183.203 81.8116 183.258 80.7696 183.314C79.7276 183.37 78.6856 183.448 77.6435 183.47L74.5175 183.599L71.3858 183.671L58.8703 183.716L46.2427 183.794C44.1195 183.794 41.9906 183.839 39.8337 183.883L37.4023 183.939L39.9682 189.83Z" fill="#2E2E2E"/>
<path d="M129.762 191.118C128.42 192.974 126.905 194.698 125.235 196.267C122.303 198.994 119.088 201.402 115.644 203.452C108.821 207.53 101.47 210.447 94.0361 212.712C92.1706 213.27 90.2994 213.772 88.4338 214.274C87.4982 214.53 86.5571 214.731 85.6327 214.954C84.7083 215.178 83.7503 215.39 82.8315 215.59C79.0666 216.438 75.2511 217.045 71.4085 217.409C68.5569 217.66 65.6998 217.794 62.8314 217.766C60.1286 215.692 57.5647 213.445 55.1562 211.038C56.4056 210.626 57.6549 210.241 58.8986 209.867C62.5064 208.785 66.1143 207.87 69.711 207.011C73.3077 206.152 76.9155 205.416 80.5178 204.701C82.3217 204.35 84.0977 203.921 85.8904 203.547C87.6831 203.173 89.459 202.744 91.2238 202.292C98.2747 200.645 105.213 198.552 111.997 196.027C115.331 194.749 118.573 193.245 121.7 191.526C123.737 190.4 125.686 189.125 127.532 187.71C128.192 188.898 128.937 190.037 129.762 191.118Z" fill="#2E2E2E"/>
<path d="M139.421 202.771C139.287 203.234 139.135 203.697 138.979 204.155C138.005 206.902 136.705 209.524 135.107 211.965C131.96 216.741 128.127 221.031 123.729 224.7C121.578 226.524 119.337 228.225 117.04 229.81C114.757 231.408 112.347 232.82 109.835 234.032L109.275 234.283C104.566 234.264 99.8719 233.753 95.2695 232.76C96.2387 231.784 97.2247 230.847 98.2219 229.971C100.216 228.175 102.267 226.546 104.345 225.001C106.424 223.456 108.547 222.022 110.681 220.611C112.816 219.2 114.883 217.727 116.939 216.243C121.021 213.333 124.912 210.166 128.586 206.76C129.029 206.325 129.505 205.912 129.925 205.46C130.345 205.008 130.794 204.579 131.231 204.133C132.049 203.212 132.911 202.308 133.684 201.343C134.458 200.378 135.247 199.363 135.981 198.309C137.208 199.703 138.379 201.226 139.421 202.771Z" fill="#2E2E2E"/>
<path d="M123.666 168.281C123.666 168.281 130.322 169.396 133.616 171.327C136.91 173.257 138.882 176.219 136.736 177.714C134.591 179.209 120.434 175.019 120.434 175.019L123.666 168.281Z" fill="#FCC440"/>
<path d="M15.1937 187.582C6.23006 195.341 -4.7112 214.118 12.1573 220.684C26.2246 226.161 35.2947 210.191 39.362 199.369C41.4124 193.924 43.771 187.297 43.7654 181.401C43.7654 171.55 32.2695 176.654 27.0818 179.365C22.8229 181.653 18.8353 184.409 15.1937 187.582Z" fill="#C6EDFF"/>
<path d="M2.72999 157.37C2.95408 157.102 3.18377 156.84 3.43027 156.572C9.85609 149.644 19.52 153.922 26.1083 158.145C32.4221 162.195 38.9375 167.745 41.5426 175.014C44.3437 182.874 34.7638 186.092 28.6574 186.394C20.6797 186.79 12.7581 182.89 6.86447 177.775C0.914846 172.587 -2.84429 164.142 2.72999 157.37Z" fill="#C6EDFF"/>
<path d="M99.9189 122.751C100.87 124.472 101.452 126.372 101.628 128.329C101.897 131.592 100.855 134.739 97.9974 136.669C96.5217 137.725 94.7733 138.339 92.9587 138.437C91.1441 138.536 89.3389 138.116 87.7564 137.226C85.5711 136.042 83.7742 134.257 82.5799 132.083C80.6639 128.569 83.7003 127.688 87.8236 127.727C89.1296 127.739 90.4139 127.394 91.5356 126.728C92.6573 126.061 93.573 125.1 94.1822 123.95C95.9413 120.642 98.003 119.225 99.9189 122.751Z" fill="#2E2E2E"/>
<path d="M101.629 128.329C101.898 131.592 100.856 134.738 97.9988 136.668C96.5231 137.725 94.7748 138.338 92.9602 138.437C91.1455 138.536 89.3404 138.116 87.7578 137.226C88.9741 134.148 91.2742 131.616 94.2285 130.103C96.49 128.859 99.0468 128.246 101.629 128.329Z" fill="#E24450"/>
</g>
<defs>
<linearGradient id="paint0_linear_59_3443" x1="118.505" y1="198.549" x2="123.244" y2="198.796" gradientUnits="userSpaceOnUse">
<stop offset="0.15" stop-color="#FCD844"/>
<stop offset="0.42" stop-color="#FCD443"/>
<stop offset="0.69" stop-color="#FCC740"/>
<stop offset="0.97" stop-color="#FBB33C"/>
<stop offset="1" stop-color="#FBB03B"/>
</linearGradient>
<linearGradient id="paint1_linear_59_3443" x1="2890.42" y1="2183.2" x2="2971.33" y2="2214.38" gradientUnits="userSpaceOnUse">
<stop offset="0.15" stop-color="#FCD844"/>
<stop offset="0.42" stop-color="#FCD443"/>
<stop offset="0.69" stop-color="#FCC740"/>
<stop offset="0.97" stop-color="#FBB33C"/>
<stop offset="1" stop-color="#FBB03B"/>
</linearGradient>
<linearGradient id="paint2_linear_59_3443" x1="18721.8" y1="21804.8" x2="16640.4" y2="55493.5" gradientUnits="userSpaceOnUse">
<stop offset="0.15" stop-color="#FFDE57"/>
<stop offset="0.42" stop-color="#FFDB5B"/>
<stop offset="0.6899" stop-color="#FFD055"/>
<stop offset="0.69" stop-color="#FCC740"/>
<stop offset="0.97" stop-color="#FFBD4F"/>
<stop offset="1" stop-color="#FFBB50"/>
</linearGradient>
<clipPath id="clip0_59_3443">
<rect width="369" height="252" fill="white"/>
</clipPath>
</defs>
</svg>
