<svg width="239" height="168" viewBox="0 0 239 168" fill="none" xmlns="http://www.w3.org/2000/svg">
<g clip-path="url(#clip0_59_4314)">
<path d="M44.1485 142.13C43.0849 141.018 41.539 140.596 40.1066 140.07C36.9452 138.902 34.0988 137.013 31.7929 134.552C29.487 132.092 27.785 129.127 26.8217 125.893C25.8584 122.659 25.6603 119.245 26.2431 115.921C26.8258 112.598 28.1735 109.456 30.1792 106.744L29.9629 105.625C29.4736 100.427 23.2051 96.699 18.4151 98.7583C13.6251 100.818 11.98 107.94 15.4014 111.871C9.77825 112.336 6.06254 118.752 6.85674 124.348C7.65094 129.944 11.7354 134.531 16.2878 137.873C23.823 143.372 32.8888 146.371 42.2127 146.447C42.8444 146.501 43.4791 146.388 44.0528 146.117C45.3859 145.347 45.2016 143.241 44.1485 142.13Z" fill="#A0E0ED"/>
<path d="M235.936 131.673C237.971 130.281 239.29 127.767 238.942 125.331C238.595 122.896 236.397 120.748 233.936 120.776C234.97 120.077 235.685 118.995 235.923 117.768C236.16 116.541 235.902 115.27 235.204 114.234C234.505 113.198 233.425 112.482 232.2 112.244C230.975 112.006 229.705 112.265 228.671 112.964C226.363 114.466 225.834 117.627 226.001 120.378C226.168 123.13 226.856 125.942 226.132 128.605C225.395 131.325 223.26 133.491 220.814 134.886C218.368 136.282 215.613 137.017 212.89 137.727L212.344 137.922C213.875 139.345 215.684 140.434 217.657 141.121C219.63 141.808 221.724 142.078 223.806 141.913C226.161 141.711 228.678 140.763 229.759 138.664C230.366 137.493 230.468 136.086 231.178 134.975C232.231 133.331 234.322 132.774 235.936 131.673Z" fill="#A0E0ED"/>
<path d="M116.786 160.622C114.726 160.664 112.56 160.071 111.114 158.584C110.195 157.629 109.642 156.389 108.816 155.356C107.99 154.323 106.689 153.471 105.409 153.787C103.42 154.277 102.466 157.263 100.445 157.057C99.2219 156.933 98.4596 155.637 98.2752 154.408C98.0909 153.18 98.2752 151.923 97.942 150.737C97.0272 147.403 92.4287 146.362 89.3299 147.896C86.2311 149.43 81.863 154.074 80.1328 157.068C82.8983 160.455 87.6812 161.233 92.0245 161.683C99.3212 162.429 106.638 162.903 113.975 163.104C115.694 163.15 117.446 163.175 119.091 162.667C120.736 162.159 122.282 161.019 122.832 159.393C120.857 159.976 118.85 160.579 116.786 160.622Z" fill="#A0E0ED"/>
<path d="M20.0175 141.973C19.9431 141.973 19.8828 139.772 19.8828 137.059C19.8828 134.347 19.9431 132.145 20.0175 132.145C20.092 132.145 20.1558 134.343 20.1558 137.059C20.1558 139.776 20.0955 141.973 20.0175 141.973Z" fill="#D5E0DE"/>
<path d="M25.089 137.056C25.089 137.131 22.8164 137.191 20.0154 137.191C17.2144 137.191 14.9453 137.131 14.9453 137.056C14.9453 136.981 17.2144 136.917 20.0154 136.917C22.8164 136.917 25.089 136.981 25.089 137.056Z" fill="#D5E0DE"/>
<path d="M5.07578 168C4.99777 168 4.9375 165.798 4.9375 163.086C4.9375 160.373 4.99777 158.172 5.07578 158.172C5.15378 158.172 5.21051 160.373 5.21051 163.086C5.21051 165.798 5.15023 168 5.07578 168Z" fill="#D5E0DE"/>
<path d="M10.1437 163.086C10.1437 163.161 7.8746 163.224 5.07364 163.224C2.27268 163.224 0 163.161 0 163.086C0 163.011 2.26913 162.948 5.07364 162.948C7.87815 162.948 10.1437 163.011 10.1437 163.086Z" fill="#D5E0DE"/>
<path d="M185.943 23.8534C185.869 23.8534 185.805 21.652 185.805 18.9393C185.805 16.2266 185.869 14.0251 185.943 14.0251C186.017 14.0251 186.081 16.223 186.081 18.9393C186.081 21.6555 186.017 23.8534 185.943 23.8534Z" fill="#D5E0DE"/>
<path d="M191.014 18.9393C191.014 19.0138 188.742 19.0742 185.941 19.0742C183.14 19.0742 180.867 19.0138 180.867 18.9393C180.867 18.8647 183.14 18.8008 185.941 18.8008C188.742 18.8008 191.014 18.8611 191.014 18.9393Z" fill="#D5E0DE"/>
<path d="M26.1948 87.2365C27.8514 87.2365 29.1943 85.8916 29.1943 84.2326C29.1943 82.5736 27.8514 81.2288 26.1948 81.2288C24.5382 81.2288 23.1953 82.5736 23.1953 84.2326C23.1953 85.8916 24.5382 87.2365 26.1948 87.2365Z" fill="#FC81B3"/>
<path d="M84.1162 17.4231C84.1162 18.0172 83.9403 18.5979 83.6107 19.0919C83.2811 19.5859 82.8127 19.9709 82.2646 20.1983C81.7165 20.4256 81.1134 20.4851 80.5315 20.3692C79.9497 20.2533 79.4152 19.9672 78.9957 19.5471C78.5762 19.127 78.2906 18.5918 78.1748 18.0091C78.0591 17.4264 78.1185 16.8224 78.3455 16.2735C78.5725 15.7246 78.957 15.2555 79.4503 14.9254C79.9435 14.5954 80.5235 14.4192 81.1167 14.4192C81.5107 14.4187 81.901 14.4961 82.2651 14.6469C82.6293 14.7977 82.9601 15.0189 83.2387 15.298C83.5173 15.577 83.7383 15.9083 83.8888 16.273C84.0394 16.6376 84.1167 17.0285 84.1162 17.4231Z" fill="#FC81B3"/>
<path d="M99.1011 20.4234C99.1018 20.7208 99.0143 21.0117 98.8498 21.2592C98.6853 21.5067 98.4511 21.6998 98.1769 21.8139C97.9027 21.928 97.6008 21.9581 97.3096 21.9002C97.0183 21.8424 96.7508 21.6993 96.5408 21.489C96.3309 21.2787 96.188 21.0108 96.1302 20.7191C96.0725 20.4274 96.1024 20.1252 96.2164 19.8506C96.3304 19.576 96.5231 19.3415 96.7703 19.1767C97.0175 19.0119 97.3079 18.9244 97.6049 18.9251C98.0017 18.9251 98.3822 19.0829 98.6628 19.3639C98.9434 19.6449 99.1011 20.026 99.1011 20.4234Z" fill="#FC81B3"/>
<path d="M165.14 101.659C165.14 101.956 165.052 102.247 164.887 102.494C164.722 102.741 164.488 102.934 164.214 103.047C163.939 103.161 163.638 103.19 163.346 103.132C163.055 103.074 162.788 102.93 162.579 102.72C162.369 102.51 162.226 102.242 162.169 101.95C162.112 101.658 162.142 101.356 162.256 101.082C162.37 100.808 162.563 100.573 162.81 100.409C163.057 100.244 163.347 100.157 163.644 100.157C164.041 100.158 164.422 100.317 164.702 100.598C164.983 100.88 165.14 101.261 165.14 101.659Z" fill="#FC81B3"/>
<path d="M21.1704 15.9781C21.1704 15.9781 17.8305 17.6931 22.5106 24.6985C27.1907 31.704 30.2541 35.0807 30.2541 35.0807C30.2541 35.0807 31.1298 36.7282 29.708 37.1721C28.2863 37.6159 25.0244 37.481 24.5848 39.338C24.1309 41.266 25.6803 42.8531 28.577 44.0604C31.4737 45.2676 37.7316 48.1472 38.2882 48.4099C38.8449 48.6727 39.4582 49.4112 38.5364 49.8657C37.6146 50.3202 30.4987 51.9286 31.4453 55.2627C32.392 58.5968 41.036 60.6349 41.9755 60.8763C42.9151 61.1178 43.1739 61.4729 43.1598 61.9735C43.1456 62.4741 40.7027 62.7902 38.6995 63.3299C36.6963 63.8696 34.4449 64.846 35.1788 66.7243C35.9127 68.6026 41.2771 72.0894 53.3141 71.8479L58.909 71.3686L61.3908 66.316C66 55.1811 64.7307 48.8928 63.2487 47.54C61.7666 46.1872 60.0577 47.8951 58.8061 49.5817C57.5546 51.2682 56.3704 53.4164 55.8988 53.2602C55.4273 53.1039 55.1897 52.7204 55.3103 51.7547C55.4308 50.7889 56.6859 42.0045 53.9381 39.8883C51.1904 37.7721 47.0988 43.8225 46.3365 44.5042C45.5743 45.1859 45.1098 44.3515 45.0743 43.7408C45.0389 43.1301 44.6418 36.2382 44.578 33.0888C44.5141 29.9393 43.6065 27.9261 41.6458 27.6456C39.7561 27.3758 38.6889 30.4648 37.7457 31.6295C36.8026 32.7941 35.6007 31.3738 35.6007 31.3738C35.6007 31.3738 33.5798 27.2834 28.7756 20.3667C23.9714 13.45 21.1066 16.0065 21.1066 16.0065" fill="#92CE91"/>
<path d="M59.3531 72.6432C55.8466 67.5479 49.7625 58.3908 44.5009 50.5544C39.2394 42.7181 34.4671 35.6416 30.9854 30.5216C29.2445 27.9722 27.837 25.9057 26.8549 24.4854L25.7345 22.8415L25.4473 22.4118L25.3516 22.2627C25.3516 22.2627 25.3906 22.3053 25.4615 22.4012L25.7628 22.8201L26.9116 24.4499C27.9079 25.8702 29.3332 27.9189 31.0882 30.4647C34.5947 35.56 39.3812 42.6364 44.6427 50.4692C49.9043 58.302 55.9884 67.4769 59.4559 72.5863" fill="#D5E0DE"/>
<path d="M29.1484 39.707C29.2828 39.7134 29.416 39.7349 29.5455 39.7709C29.8008 39.8207 30.1695 39.9023 30.6092 40.0088C31.5133 40.2254 32.7365 40.5556 34.1157 40.9427L37.601 41.9511L38.6646 42.2493C38.7965 42.276 38.925 42.3177 39.0475 42.3736C38.9134 42.3673 38.7803 42.3471 38.6504 42.3132C38.3952 42.2635 38.0264 42.1819 37.5868 42.0682C36.6862 41.8445 35.4595 41.5001 34.0873 41.1095L30.5915 40.1225L29.5278 39.8278C29.3972 39.8019 29.27 39.7614 29.1484 39.707Z" fill="#D5E0DE"/>
<path d="M39.3936 41.9725C39.344 41.9725 39.9113 39.3735 40.6559 36.1885C41.4004 33.0036 42.0422 30.4293 42.0741 30.44C42.106 30.4506 41.5564 33.0426 40.8119 36.2276C40.0673 39.4125 39.4397 41.9832 39.3936 41.9725Z" fill="#92CE91"/>
<path d="M46.9297 54.3714C46.9786 54.2469 47.0404 54.1279 47.1141 54.0163C47.263 53.7571 47.4473 53.4269 47.6672 53.0399C48.1281 52.2126 48.7663 51.0692 49.4222 49.7803C50.0781 48.4914 50.6348 47.2949 51.0283 46.4427L51.4999 45.4237C51.5467 45.2969 51.6112 45.1774 51.6913 45.0686C51.6618 45.2032 51.6178 45.3341 51.5601 45.4592C51.4679 45.7113 51.3261 46.0663 51.1418 46.5031C50.7872 47.3801 50.2377 48.5767 49.5746 49.8691C48.9116 51.1616 48.2628 52.3013 47.7735 53.1109C47.5253 53.5156 47.3197 53.8423 47.1708 54.0624C47.1008 54.1732 47.0201 54.2767 46.9297 54.3714Z" fill="#D5E0DE"/>
<path d="M37.2266 54.3608C37.3431 54.3361 37.462 54.3242 37.5811 54.3253L38.6164 54.2827C39.4921 54.2578 40.7012 54.233 42.0378 54.2188C43.3745 54.2046 44.5835 54.1975 45.4593 54.2188H46.4981C46.6254 54.2138 46.7528 54.2245 46.8775 54.2507C46.7528 54.2772 46.6255 54.2892 46.4981 54.2862L45.4628 54.3288C44.5871 54.3537 43.378 54.3785 42.0414 54.3963C40.7047 54.4141 39.4957 54.4141 38.62 54.3963H37.5811C37.4619 54.4001 37.3427 54.3882 37.2266 54.3608Z" fill="#D5E0DE"/>
<path d="M42.4844 66.1526C42.6446 66.1231 42.8072 66.1088 42.9701 66.1099L44.2997 66.0531C45.4201 66.0105 46.9695 65.9679 48.6819 65.9324C50.3944 65.8969 51.9438 65.8721 53.0678 65.8614H54.3973C54.5597 65.8524 54.7225 65.8608 54.8831 65.8863C54.7226 65.9135 54.5601 65.9277 54.3973 65.9289L53.0678 65.9857C51.9474 66.0247 50.398 66.0673 48.6855 66.1064C46.973 66.1454 45.4236 66.1668 44.2997 66.1739H42.9701C42.8079 66.1817 42.6453 66.1746 42.4844 66.1526Z" fill="#D5E0DE"/>
<path d="M54.6016 65.8081C54.6627 65.6436 54.7375 65.4845 54.8249 65.3324C54.9916 65.0057 55.2114 64.5796 55.4773 64.0683C56.0304 63.0031 56.7856 61.5189 57.5727 59.8608C58.3598 58.2026 59.037 56.6865 59.5192 55.5822C59.7497 55.0532 59.9447 54.6164 60.09 54.2791C60.1537 54.1162 60.2295 53.9583 60.3169 53.8069C60.2796 53.9777 60.225 54.1443 60.1539 54.304C60.0369 54.62 59.8596 55.0745 59.6327 55.6319C59.1788 56.7468 58.5194 58.2772 57.7287 59.9353C56.9381 61.5935 56.1651 63.0706 55.6014 64.1251C55.3107 64.6542 55.0696 65.0767 54.8923 65.3679C54.8086 65.523 54.7113 65.6703 54.6016 65.8081Z" fill="#D5E0DE"/>
<path d="M202.057 116.462C196.119 111.278 195.559 102.778 196.622 95.3071C196.799 94.0609 196.803 92.7293 197.516 91.6925C198.228 90.6558 199.696 90.0592 200.76 90.709C201.639 91.2452 201.926 92.3707 202.352 93.3188C202.916 94.5865 203.827 95.6685 204.979 96.4398C205.731 96.9333 206.706 97.2884 207.521 96.9333C208.663 96.454 208.939 94.9769 209.078 93.7377L209.787 86.7749C209.914 85.5286 210.049 84.2574 210.563 83.1177C211.077 81.9779 212.049 80.9873 213.265 80.7707C214.481 80.5541 215.871 81.4063 215.991 82.6525C215.983 83.1721 215.939 83.6906 215.86 84.2042C215.839 84.7261 216.016 85.3226 216.491 85.5215C216.966 85.7203 217.509 85.4221 217.909 85.0954C219.328 83.9769 220.374 82.4537 221.359 80.9305C222.345 79.4072 223.313 77.8449 224.625 76.6022C225.937 75.3595 227.663 74.4434 229.454 74.5357C231.244 74.628 233.024 75.9311 233.286 77.7313C233.549 79.5315 232.333 81.2074 231.067 82.507C229.187 84.4372 227.037 86.0842 224.685 87.3962C224.241 87.5893 223.869 87.9172 223.621 88.3336C223.267 89.1325 223.958 90.0415 224.745 90.4037C225.639 90.812 226.656 90.8262 227.614 91.0428C228.571 91.2594 229.574 91.8026 229.84 92.7613C230.195 94.0893 229.007 95.3071 227.869 96.067C225.586 97.5914 223.058 98.7097 220.395 99.3727C219.445 99.6105 218.452 99.8023 217.647 100.363C216.842 100.924 216.275 102 216.626 102.923C216.977 103.847 218.09 104.255 219.065 104.18C220.04 104.106 220.955 103.676 221.902 103.431C223.674 102.969 225.873 103.325 226.809 104.922C227.422 105.97 227.341 107.33 226.851 108.448C226.312 109.544 225.558 110.521 224.635 111.321C221.551 114.243 217.768 116.455 213.644 117.403C209.521 118.351 205.823 118.326 202.04 116.458" fill="#92CE91"/>
<path d="M204.492 111.963C206.175 108.015 208.082 104.165 210.204 100.434C210.764 99.4401 211.315 98.4578 211.856 97.4873C212.402 96.5215 212.941 95.5664 213.53 94.6467C214.658 92.9144 215.881 91.2455 217.192 89.6474C218.437 88.1135 219.674 86.7039 220.833 85.3866C221.993 84.0693 223.113 82.8798 224.173 81.8359C225.835 80.1704 227.628 78.6411 229.534 77.2626C230.204 76.7726 230.74 76.4105 231.105 76.169L231.523 75.8992C231.569 75.866 231.617 75.8374 231.669 75.814C231.629 75.8538 231.585 75.8894 231.537 75.9205L231.13 76.2081C230.775 76.4602 230.25 76.8366 229.584 77.3337C227.706 78.7385 225.936 80.2814 224.287 81.9495C223.223 83.0147 222.135 84.2042 220.975 85.518C219.816 86.8317 218.589 88.2449 217.355 89.7788C216.055 91.3691 214.84 93.0285 213.718 94.7497C213.136 95.6516 212.601 96.5996 212.055 97.5689L210.406 100.512C208.286 104.236 206.377 108.075 204.687 112.013" fill="#D5E0DE"/>
<path d="M213.594 94.661C213.555 94.4823 213.534 94.3004 213.53 94.1177C213.502 93.7626 213.477 93.2549 213.459 92.6264C213.416 91.3695 213.416 89.6297 213.424 87.7123C213.431 85.7949 213.424 84.0587 213.346 82.8017C213.317 82.1768 213.289 81.6691 213.264 81.3176C213.245 81.1358 213.245 80.9525 213.264 80.7708C213.318 80.9461 213.351 81.1273 213.363 81.3105C213.416 81.6655 213.47 82.1626 213.519 82.7911C213.622 84.048 213.672 85.7914 213.665 87.7088C213.658 89.6261 213.64 91.3162 213.629 92.6229V94.1106C213.639 94.2948 213.627 94.4796 213.594 94.661Z" fill="#D5E0DE"/>
<path d="M229.898 93.3827C229.684 93.4042 229.467 93.4042 229.253 93.3827C228.838 93.3827 228.239 93.3614 227.48 93.3827C226.002 93.3827 223.956 93.4538 221.704 93.6313C219.453 93.8088 217.418 94.068 215.954 94.2917C215.22 94.3982 214.628 94.5012 214.22 94.5722C214.009 94.6184 213.794 94.6469 213.578 94.6574C213.78 94.5778 213.989 94.5183 214.202 94.4799C214.606 94.384 215.195 94.2562 215.929 94.1248C217.39 93.8585 219.425 93.5816 221.687 93.397C223.615 93.2386 225.549 93.1769 227.484 93.2123C228.225 93.2123 228.827 93.2691 229.256 93.3046C229.472 93.3128 229.687 93.339 229.898 93.3827Z" fill="#D5E0DE"/>
<path d="M204.718 111.69C204.68 111.625 204.65 111.556 204.629 111.484C204.573 111.321 204.505 111.129 204.42 110.877C204.239 110.348 203.998 109.574 203.711 108.615C203.154 106.698 202.445 104.035 201.687 101.066C200.928 98.0978 200.268 95.4313 199.726 93.5068L199.088 91.2272L198.918 90.6059C198.892 90.5352 198.877 90.4609 198.875 90.3857C198.913 90.4505 198.943 90.5197 198.964 90.5917C199.02 90.755 199.088 90.9468 199.173 91.1988C199.354 91.7279 199.595 92.5019 199.882 93.4606C200.456 95.378 201.165 98.0481 201.906 101.009C202.647 103.971 203.325 106.644 203.867 108.569L204.505 110.848L204.675 111.47C204.699 111.541 204.713 111.615 204.718 111.69Z" fill="#D5E0DE"/>
<path d="M226.69 107.131C226.62 107.161 226.546 107.183 226.471 107.195L225.832 107.333L223.478 107.827C221.493 108.242 218.755 108.849 215.731 109.524C212.707 110.199 209.959 110.781 207.963 111.157C206.967 111.345 206.155 111.487 205.595 111.576L204.949 111.672C204.874 111.691 204.796 111.697 204.719 111.69C204.789 111.66 204.863 111.639 204.939 111.626L205.58 111.487L207.931 110.994C209.92 110.579 212.657 109.971 215.682 109.297C218.706 108.622 221.454 108.04 223.45 107.663C224.446 107.475 225.254 107.333 225.818 107.244L226.463 107.149C226.537 107.129 226.614 107.123 226.69 107.131Z" fill="#D5E0DE"/>
<path d="M156.297 27.3402C157.254 21.8473 159.867 13.8122 163.001 9.20339C166.136 4.59462 170.968 0.909022 176.485 0.142077C182.002 -0.624868 188.09 1.96712 190.575 6.95937C191.908 9.63657 192.153 12.715 193.124 15.5413C194.096 18.3677 196.223 21.194 199.201 21.4248C201.839 21.6236 204.378 19.724 206.973 20.2282C210.348 20.8886 211.653 25.0571 211.671 28.5013C211.689 31.9454 211.203 35.7766 213.316 38.4929C215.046 40.7191 218.01 41.4861 220.407 42.9774C225.573 46.2049 227.785 52.8695 227.26 58.9554C226.736 65.0412 223.945 70.6726 220.978 75.9986C218.501 67.2568 215.138 58.7917 210.94 50.7356C208.544 46.1375 204.172 42.214 200.304 38.7805C194.358 33.4935 181.307 30.969 173.415 29.9961C165.522 29.0232 164.125 28.8137 156.311 27.3473" fill="#A0E0ED"/>
<path d="M103.663 33.7952C84.1347 35.2154 62.8119 37.8074 47.1797 43.8187L52.1221 77.2767C52.1221 77.2767 82.4257 66.4187 107.078 67.1715L103.663 33.7952Z" fill="#FCB05C"/>
<g opacity="0.8">
<path opacity="0.8" d="M103.663 33.7952C84.1347 35.2154 62.8119 37.8074 47.1797 43.8187L52.1221 77.2767C52.1221 77.2767 82.4257 66.4187 107.078 67.1715L103.663 33.7952Z" fill="white"/>
</g>
<path d="M102.249 62.7582C102.188 62.7759 102.125 62.7878 102.061 62.7937L101.508 62.8683L99.3809 63.1346C98.4555 63.2446 97.321 63.3831 96.0091 63.5748C94.6973 63.7666 93.2011 63.9512 91.556 64.2246C84.9684 65.2437 75.8989 66.9302 66.0282 69.4796C62.6032 70.3637 59.2917 71.2798 56.2816 72.2278L56.1326 72.274L56.1114 72.1178C55.0477 64.4483 54.0337 57.8334 53.2501 53.1394C52.8495 50.8102 52.541 48.9461 52.307 47.6501L52.0518 46.1837C52.0234 46.0239 52.0057 45.8996 51.9879 45.8037C51.9832 45.7601 51.9832 45.716 51.9879 45.6724C52.0031 45.7128 52.015 45.7543 52.0234 45.7966C52.0447 45.8961 52.073 46.0168 52.1049 46.173C52.1758 46.5281 52.2787 47.0074 52.4063 47.6323C52.6616 48.907 53.0126 50.7711 53.4239 53.1146C54.2429 57.7979 55.3065 64.4093 56.3879 72.0787L56.2142 71.9722C59.2456 71.0135 62.543 70.0974 65.975 69.2098C74.395 67.0366 82.9231 65.3074 91.524 64.0293C93.1727 63.7666 94.6725 63.5926 95.9879 63.4186C97.3032 63.2446 98.4343 63.1204 99.3632 63.028L101.491 62.8114L102.047 62.7617C102.114 62.7535 102.182 62.7523 102.249 62.7582Z" fill="#FCB05C"/>
<path d="M102.913 54.6236C102.913 54.6236 102.839 54.3892 102.687 53.956C102.434 53.3355 102.097 52.7535 101.683 52.2269C101.023 51.3976 100.22 50.6941 99.3112 50.1497C99.0384 49.9839 98.7567 49.8333 98.4673 49.6988C98.1577 49.5591 97.8391 49.4405 97.5136 49.3437C96.8121 49.1209 96.0715 49.0483 95.3402 49.1307C94.5385 49.2207 93.7751 49.5221 93.1278 50.0041C92.4272 50.5348 91.8268 51.1866 91.355 51.9286C90.3268 53.4518 89.6603 55.3088 88.8731 57.2369C88.4838 58.2525 87.8534 59.1579 87.0366 59.875C86.5955 60.2397 86.0721 60.4908 85.512 60.6065C84.9328 60.7066 84.337 60.6376 83.796 60.4076C81.5694 59.5235 80.5802 56.9564 78.3323 56.1788C77.2278 55.8254 76.0285 55.9236 74.996 56.4522C74.4931 56.7007 74.0447 57.0471 73.677 57.4712C73.3261 57.9068 73.0296 58.3838 72.7942 58.8915C72.2943 59.8857 71.9149 60.9864 71.0675 61.764C70.6527 62.1541 70.1201 62.3952 69.5536 62.4492C69.0016 62.4798 68.4519 62.3569 67.9652 62.0942C67.0569 61.59 66.303 60.8473 65.7847 59.946C65.3324 59.0994 64.9471 58.2185 64.6324 57.3114C64.3341 56.4797 63.9503 55.6812 63.4872 54.9289C63.0519 54.2492 62.4517 53.691 61.7428 53.3063C61.1285 52.9809 60.4479 52.8011 59.7532 52.7807C59.0586 52.7604 58.3686 52.9001 57.7364 53.1891C56.758 53.5947 55.8875 54.2232 55.1942 55.0248C54.7586 55.5486 54.4351 56.1565 54.244 56.8108C54.1093 57.2511 54.0916 57.4961 54.0703 57.4925C54.0841 57.2521 54.1246 57.0139 54.1909 56.7824C54.3673 56.123 54.6829 55.5091 55.1162 54.9822C55.8077 54.1521 56.6863 53.4985 57.6797 53.0755C58.3318 52.7671 59.0463 52.6144 59.7673 52.6291C60.4883 52.6439 61.1961 52.8259 61.835 53.1607C62.5785 53.554 63.2094 54.1308 63.668 54.8366C64.146 55.5979 64.5406 56.4086 64.8451 57.2546C65.1629 58.1461 65.5469 59.0126 65.9939 59.8466C66.4909 60.7016 67.2086 61.4068 68.0716 61.8882C68.5171 62.1237 69.0191 62.2307 69.5217 62.1971C70.0325 62.1496 70.5122 61.9306 70.8832 61.5758C71.6632 60.8656 72.0426 59.8004 72.546 58.7814C72.7905 58.2532 73.0989 57.7571 73.4643 57.3043C73.8586 56.8496 74.3411 56.48 74.8825 56.2178C75.9798 55.6564 77.2541 55.5518 78.428 55.9267C79.6264 56.3208 80.4809 57.2475 81.2645 58.0784C82.048 58.9092 82.8706 59.7507 83.8917 60.1697C84.3858 60.3796 84.9295 60.4437 85.4588 60.3544C85.9794 60.2486 86.4663 60.017 86.877 59.6797C87.6648 58.9914 88.2733 58.1213 88.6498 57.1445C89.4333 55.2414 90.1212 53.356 91.1742 51.8185C91.6646 51.0587 92.2851 50.3916 93.0072 49.8479C93.6874 49.3523 94.4859 49.0449 95.3224 48.9567C96.0789 48.8762 96.8439 48.9572 97.5668 49.1946C97.898 49.2915 98.2225 49.4101 98.5382 49.5497C98.833 49.6893 99.1194 49.8458 99.3963 50.0183C100.311 50.5778 101.116 51.2998 101.772 52.1488C102.184 52.6878 102.511 53.2864 102.743 53.9241C102.798 54.092 102.844 54.2627 102.881 54.4354C102.899 54.4968 102.909 54.5599 102.913 54.6236Z" fill="#FCB05C"/>
<path d="M51.1649 50.2312C51.1649 50.3058 50.9238 50.4159 50.5941 50.4798C50.2643 50.5437 49.9913 50.5331 49.9771 50.4585C49.963 50.3839 50.2147 50.2703 50.5444 50.2099C50.8742 50.1496 51.1507 50.1567 51.1649 50.2312Z" fill="#FCB05C"/>
<path d="M52.0218 56.3421C52.0537 56.4095 51.8623 56.5693 51.5928 56.6971C51.3234 56.825 51.0823 56.8676 51.0503 56.8001C51.0184 56.7326 51.2099 56.5729 51.4794 56.445C51.7488 56.3172 51.9899 56.2746 52.0218 56.3421Z" fill="#FCB05C"/>
<path d="M53.0986 63.0209C53.1234 63.0919 52.9284 63.2268 52.6589 63.3192C52.3895 63.4115 52.1519 63.4292 52.1271 63.3582C52.1023 63.2872 52.3008 63.1523 52.5703 63.06C52.8397 62.9677 53.0737 62.9463 53.0986 63.0209Z" fill="#FCB05C"/>
<path d="M54.3957 69.5931C54.417 69.6677 54.1936 69.8026 53.8958 69.8949C53.598 69.9873 53.3392 70.005 53.3144 69.934C53.2895 69.863 53.5164 69.7281 53.8143 69.6322C54.1121 69.5363 54.3709 69.5115 54.3957 69.5931Z" fill="#FCB05C"/>
<path d="M91.2265 38.0491C91.4319 37.9728 91.6465 37.9238 91.8647 37.9035C92.283 37.8325 92.9 37.7402 93.68 37.6301C95.2471 37.4099 97.4772 37.1188 100.14 36.7886H100.264V36.9164C100.47 39.1604 100.711 41.7489 100.973 44.49V44.6036V44.735H100.842L92.1129 45.8002H91.9959V45.683C91.7512 43.3893 91.5491 41.4755 91.4002 40.0978C91.3387 39.4539 91.2891 38.9391 91.2513 38.5533C91.2266 38.378 91.2159 38.2011 91.2194 38.0242C91.2625 38.2091 91.2945 38.3965 91.3151 38.5852C91.3683 38.9758 91.4392 39.4977 91.5278 40.1404C91.698 41.5039 91.9391 43.3928 92.2369 45.6546L92.1093 45.5552L100.835 44.4403L100.714 44.5894V44.4758C100.473 41.7311 100.243 39.1498 100.048 36.8986L100.182 37.0087L91.2265 38.0491Z" fill="#FCB05C"/>
<path d="M99.3348 39.3805C99.3348 39.4622 97.8315 39.4622 95.9985 39.6575C94.1654 39.8527 92.6976 40.1616 92.6798 40.0835C92.6621 40.0054 94.0981 39.5793 95.9701 39.3734C97.8421 39.1675 99.3383 39.3095 99.3348 39.3805Z" fill="#FCB05C"/>
<path d="M99.4327 41.3405C99.4327 41.4186 98.0322 41.4719 96.3162 41.6423C94.6002 41.8128 93.2174 42.0223 93.2032 41.9441C93.1891 41.866 94.5612 41.5323 96.2914 41.3689C98.0216 41.2056 99.4327 41.2695 99.4327 41.3405Z" fill="#FCB05C"/>
<path d="M97.3424 43.0518C97.3424 43.1264 96.5553 43.2897 95.5696 43.4069C94.584 43.5241 93.765 43.5738 93.7579 43.4992C93.7508 43.4246 94.5414 43.2578 95.5306 43.1441C96.5198 43.0305 97.3317 42.963 97.3424 43.0518Z" fill="#FCB05C"/>
<path d="M198.861 43.6412C179.74 37.8039 163.607 32.8223 141.944 32.9573L138.633 67.0437C161.133 69.0392 168.653 70.5127 189.429 78.0508L198.861 43.6412Z" fill="#FCB05C"/>
<g opacity="0.8">
<path opacity="0.8" d="M198.861 43.6412C179.74 37.8039 163.607 32.8223 141.944 32.9573L138.633 67.0437C161.133 69.0392 168.653 70.5127 189.429 78.0508L198.861 43.6412Z" fill="white"/>
</g>
<path d="M155.567 49.5035L156.41 42.2708C154.31 42.0607 152.208 42.6431 150.514 43.9041C149.392 44.7277 148.48 45.8042 147.85 47.0465C147.221 48.2888 146.892 49.6621 146.891 51.0552C146.891 51.4103 146.891 51.7653 146.919 52.1204C146.918 52.1286 146.918 52.137 146.919 52.1452L155.354 51.1937L155.567 49.5035Z" fill="#FCB05C"/>
<path d="M164.291 48.321C163.457 45.6367 161.454 43.3217 158.281 42.5831L158.022 42.5263C157.969 42.5263 157.916 42.5015 157.859 42.4944C157.699 42.4624 157.533 42.4376 157.366 42.4163H157.324L156.48 49.649L156.281 51.3497L164.244 54.2613C164.446 53.6596 164.584 53.0384 164.656 52.4079C164.822 51.035 164.697 49.6425 164.291 48.321Z" fill="#FCB05C"/>
<g opacity="0.3">
<path opacity="0.3" d="M164.291 48.321C163.457 45.6367 161.454 43.3217 158.281 42.5831L158.022 42.5263C157.969 42.5263 157.916 42.5015 157.859 42.4944C157.699 42.4624 157.533 42.4376 157.366 42.4163H157.324L156.48 49.649L156.281 51.3497L164.244 54.2613C164.446 53.6596 164.584 53.0384 164.656 52.4079C164.822 51.035 164.697 49.6425 164.291 48.321Z" fill="black"/>
</g>
<path d="M155.688 52.1594L147.25 53.1075C147.605 57.2014 150.586 60.5923 154.593 61.0858C158.599 61.5793 162.35 58.9874 163.662 55.071L155.699 52.1594" fill="#FCB05C"/>
<path d="M191.455 50.139C191.198 50.0624 190.948 49.9614 190.71 49.8372C190.242 49.6241 189.554 49.3259 188.707 48.9708C184.272 47.1081 179.629 45.7837 174.88 45.026C173.972 44.8769 173.231 44.7704 172.72 44.7029C172.453 44.6823 172.188 44.6359 171.93 44.5644C172.197 44.5514 172.465 44.5621 172.731 44.5964C173.249 44.6319 173.993 44.71 174.908 44.8343C179.692 45.4859 184.359 46.8191 188.767 48.7933C189.611 49.1732 190.285 49.5034 190.742 49.7413C190.99 49.8547 191.228 49.9877 191.455 50.139Z" fill="#FCB05C"/>
<path d="M190.89 53.7003C190.634 53.6203 190.384 53.5194 190.145 53.3984C189.673 53.1854 188.989 52.8871 188.138 52.5285C183.709 50.6664 179.072 49.3421 174.328 48.5837C173.417 48.4382 172.68 48.3281 172.169 48.2606C171.901 48.2373 171.636 48.1922 171.375 48.1257C171.644 48.1101 171.913 48.1196 172.18 48.1541C172.694 48.1896 173.438 48.2677 174.357 48.392C179.141 49.0449 183.808 50.378 188.216 52.351C189.06 52.7309 189.734 53.0611 190.191 53.3026C190.436 53.4131 190.67 53.5463 190.89 53.7003Z" fill="#FCB05C"/>
<path d="M190.306 57.2581C190.05 57.1794 189.801 57.0784 189.562 56.9563C189.094 56.7433 188.41 56.445 187.559 56.09C183.124 54.2228 178.482 52.8971 173.731 52.1416C172.823 51.996 172.086 51.8895 171.572 51.822C171.305 51.7987 171.04 51.7524 170.781 51.6836C171.049 51.6706 171.317 51.6813 171.583 51.7155C172.1 51.7475 172.845 51.8291 173.759 51.9499C178.544 52.6066 183.212 53.9395 187.622 55.9089C188.466 56.2888 189.14 56.619 189.594 56.8604C189.844 56.9698 190.082 57.103 190.306 57.2581Z" fill="#FCB05C"/>
<path d="M189.153 60.816C188.908 60.7398 188.67 60.6399 188.444 60.5177C187.99 60.3047 187.327 60.0064 186.505 59.6514C184.361 58.7252 182.163 57.9284 179.924 57.2653C177.684 56.6072 175.406 56.0854 173.103 55.703C172.216 55.5539 171.5 55.4474 171.004 55.3799C170.743 55.3597 170.486 55.3133 170.234 55.2414C170.495 55.2284 170.756 55.2391 171.014 55.2734C171.518 55.3089 172.241 55.387 173.142 55.5113C175.465 55.8388 177.762 56.336 180.013 56.999C182.263 57.6681 184.462 58.4988 186.593 59.4845C187.409 59.8644 188.061 60.1946 188.501 60.4325C188.728 60.5428 188.946 60.671 189.153 60.816Z" fill="#FCB05C"/>
<path d="M186.636 63.6564C186.412 63.5933 186.194 63.5064 185.988 63.3972L184.247 62.6231C180.43 60.8872 176.377 59.7289 172.22 59.1861L170.334 58.9233C170.094 58.9066 169.857 58.8662 169.625 58.8026C169.861 58.7758 170.098 58.7758 170.334 58.8026C170.784 58.831 171.433 58.8914 172.235 58.9802C176.43 59.4209 180.518 60.5887 184.314 62.4314C185.045 62.7865 185.626 63.0705 186.023 63.2871C186.24 63.3872 186.446 63.511 186.636 63.6564Z" fill="#FCB05C"/>
<path d="M178.139 64.0577C177.678 64.0016 177.223 63.9078 176.777 63.7772C175.944 63.5819 174.792 63.3333 173.505 63.1097C172.218 62.886 171.048 62.7262 170.2 62.6055C169.736 62.5695 169.277 62.4898 168.828 62.3676C169.293 62.3333 169.76 62.3488 170.222 62.4137C171.076 62.4847 172.257 62.6161 173.551 62.8398C174.656 63.0277 175.75 63.2778 176.827 63.589C177.281 63.6923 177.722 63.8496 178.139 64.0577Z" fill="#FCB05C"/>
<path d="M145.26 36.998C145.26 36.998 145.405 36.998 145.7 36.9767L147.019 36.9341C148.181 36.9022 149.855 36.9341 152.011 37.0442C157.958 37.4303 163.843 38.4856 169.554 40.1901L169.65 40.2185L169.632 40.3215C168.313 47.8773 166.749 56.8605 165.072 66.4757C165.001 66.8627 164.934 67.2533 164.867 67.6332L164.842 67.7824L164.697 67.7433C160.84 66.7364 156.935 65.9281 152.996 65.3217C149.224 64.743 145.615 64.3311 142.26 64.1181H142.133V63.9938C143.055 55.9267 143.828 49.1697 144.37 44.4189C144.647 42.0649 144.863 40.2114 145.012 38.9296C145.09 38.3082 145.147 37.8289 145.189 37.4916C145.21 37.3354 145.225 37.2182 145.239 37.1365C145.253 37.0549 145.256 37.0158 145.256 37.0158C145.26 37.0607 145.26 37.1058 145.256 37.1507C145.256 37.2466 145.239 37.3709 145.221 37.5306C145.189 37.8857 145.139 38.3615 145.076 38.9935C144.937 40.2824 144.742 42.1465 144.494 44.5113C143.98 49.2514 143.25 55.987 142.367 64.04L142.25 63.905C145.618 64.111 149.231 64.5122 153.014 65.091C156.968 65.6893 160.887 66.4952 164.757 67.5054L164.587 67.6155C164.654 67.232 164.721 66.845 164.792 66.4544C166.48 56.8463 168.061 47.8631 169.401 40.3073L169.479 40.4386C163.789 38.7266 157.929 37.6431 152.004 37.2075C149.876 37.0655 148.167 37.03 147.04 37.03H145.721C145.423 37.0051 145.26 36.998 145.26 36.998Z" fill="#FCB05C"/>
<path d="M83.9462 93.3116C83.9462 93.3116 83.6448 93.379 83.0598 93.4962C82.4748 93.6134 81.599 93.7767 80.4574 94.0217C78.1705 94.501 74.8058 95.2325 70.5299 96.4042C65.323 97.7918 60.2345 99.5917 55.3125 101.787C53.8943 102.444 52.4229 103.165 50.9622 103.996C49.4486 104.836 47.9907 105.772 46.5976 106.801C45.1161 107.878 43.7634 109.123 42.5664 110.511C41.2869 111.954 40.3521 113.67 39.8328 115.528C39.3291 117.492 39.4848 119.567 40.276 121.433C41.1267 123.369 42.369 125.108 43.9243 126.539C47.0408 129.536 51.0154 131.804 55.2097 133.757C63.6941 137.617 73.3841 140.205 83.6696 142.137C94.4561 144.09 105.364 145.296 116.317 145.744C128.073 146.273 139.851 146.063 151.581 145.116C163.635 144.111 175.335 142.339 186.376 139.435C191.795 138.046 197.094 136.224 202.221 133.984C204.7 132.89 207.092 131.61 209.38 130.157C211.625 128.761 213.656 127.045 215.407 125.062C217.084 123.095 218.325 120.68 218.396 118.138C218.397 117.509 218.353 116.882 218.265 116.26L218.059 115.343C217.98 115.042 217.879 114.746 217.758 114.459C217.311 113.301 216.702 112.212 215.949 111.225C214.421 109.325 212.621 107.662 210.606 106.289C208.658 104.947 206.614 103.75 204.49 102.707C200.448 100.742 196.258 99.0955 191.96 97.7819C187.837 96.4894 183.806 95.4633 179.941 94.6076C164.44 91.2593 151.577 90.3467 142.745 89.8568C138.32 89.626 134.878 89.6153 132.545 89.5585L129.889 89.4981C129.29 89.4981 128.985 89.4697 128.985 89.4697H129.889L132.545 89.5017C134.878 89.5443 138.324 89.5336 142.752 89.7502C151.595 90.2083 164.458 91.0888 179.98 94.4158C183.852 95.2715 187.887 96.2906 192.035 97.5795C196.346 98.8915 200.548 100.538 204.604 102.504C206.739 103.549 208.794 104.75 210.752 106.098C212.789 107.484 214.61 109.165 216.155 111.086C216.921 112.093 217.541 113.202 217.999 114.381C218.123 114.675 218.226 114.978 218.307 115.287L218.516 116.228C218.576 116.544 218.61 116.865 218.619 117.186C218.656 117.508 218.668 117.832 218.655 118.156C218.604 119.462 218.293 120.745 217.74 121.93C217.19 123.126 216.473 124.237 215.613 125.232C213.846 127.236 211.797 128.971 209.529 130.381C207.23 131.844 204.826 133.131 202.335 134.233C197.195 136.479 191.883 138.308 186.451 139.701C175.403 142.613 163.671 144.388 151.609 145.382C139.863 146.334 128.068 146.546 116.295 146.018C105.334 145.56 94.4177 144.345 83.6235 142.382C73.3415 140.44 63.6232 137.841 55.114 133.96C50.8913 131.996 46.9203 129.717 43.7683 126.688C42.1945 125.234 40.9389 123.469 40.081 121.504C39.2783 119.594 39.1263 117.473 39.6484 115.468C40.1772 113.582 41.1278 111.842 42.4281 110.38C43.637 108.984 45.0015 107.732 46.4948 106.648C47.8989 105.62 49.3661 104.682 50.8877 103.839C52.352 103.008 53.8199 102.291 55.2523 101.634C60.1845 99.4554 65.2826 97.6744 70.498 96.3083C74.781 95.1508 78.1528 94.4336 80.4255 93.9755C82.6981 93.5175 83.9462 93.3116 83.9462 93.3116Z" fill="#50B8D4"/>
<path d="M54.8065 139.343C54.8058 139.675 54.7066 140 54.5215 140.277C54.3364 140.553 54.0737 140.768 53.7666 140.895C53.4594 141.022 53.1216 141.055 52.7959 140.989C52.4701 140.924 52.171 140.763 51.9363 140.528C51.7016 140.292 51.5419 139.992 51.4773 139.666C51.4128 139.34 51.4463 139.001 51.5736 138.694C51.7009 138.387 51.9163 138.124 52.1926 137.939C52.4689 137.755 52.7937 137.656 53.1259 137.656C53.3469 137.656 53.5657 137.7 53.7698 137.784C53.974 137.869 54.1594 137.994 54.3155 138.15C54.4716 138.307 54.5953 138.493 54.6796 138.697C54.7638 138.902 54.8069 139.121 54.8065 139.343Z" fill="#FC81B3"/>
<path d="M205.227 142.165C206.156 142.165 206.908 141.412 206.908 140.482C206.908 139.553 206.156 138.799 205.227 138.799C204.299 138.799 203.547 139.553 203.547 140.482C203.547 141.412 204.299 142.165 205.227 142.165Z" fill="#FC81B3"/>
<path d="M130.344 131.978L134.091 136.64C134.292 136.891 134.565 137.075 134.873 137.166C135.181 137.257 135.51 137.251 135.815 137.15C136.12 137.049 136.386 136.857 136.579 136.599C136.771 136.342 136.881 136.032 136.892 135.71L137.126 129.337L130.344 131.978Z" fill="#020202"/>
<path d="M163.851 72.7072C161.919 81.2288 155.197 88.3124 149.768 85.763C143.06 82.6171 143.365 78.193 145.297 69.6536C147.23 61.1142 151.913 56.296 157.76 57.6204C163.607 58.9448 165.787 64.1678 163.851 72.7072Z" fill="#C6EDFF"/>
<path d="M83.2894 79.0131C80.9815 78.4184 78.5668 78.371 76.2374 78.8746C68.9017 80.5896 69.3874 90.2936 72.9471 95.2326C76.9997 100.86 86.6187 103.14 92.9722 100.559C98.9571 98.1335 97.4006 91.27 94.667 86.8778C92.3234 83.1212 87.9305 80.1422 83.2894 79.0131Z" fill="#C6EDFF"/>
<path d="M149.761 114.158C147.609 120.801 142.266 129.567 133.288 131.946C125.516 134.009 117.986 131.968 111.473 127.923C108.994 126.369 106.673 124.577 104.541 122.573C102.538 120.694 100.682 118.664 98.9889 116.501C98.5493 115.944 98.1202 115.368 97.7054 114.79C97.3331 114.271 96.9715 113.749 96.6169 113.217C95.3747 111.354 94.2498 109.415 93.2487 107.411L93.1742 107.262C91.6339 104.135 90.4105 100.862 89.5224 97.4907C89.0123 95.5414 88.6239 93.5622 88.3594 91.5646C87.2639 83.2418 88.4197 74.706 92.497 67.0153C96.5248 59.4239 103.648 53.9843 111.863 51.3923C128.094 46.2545 142.546 57.1977 148.598 70.4133C149.161 71.6554 149.646 72.9314 150.051 74.2338C150.668 76.2296 151.142 78.2669 151.47 80.3303C151.956 83.3991 152.227 86.498 152.282 89.6046C152.338 92.1469 152.282 94.6359 152.15 96.9865C151.955 100.629 151.587 103.928 151.243 106.534C151.037 108.079 150.842 109.375 150.69 110.362C150.481 111.65 150.171 112.919 149.761 114.158Z" fill="url(#paint0_linear_59_4314)"/>
<path d="M121.198 40.0872C118.39 39.2172 115.617 41.0707 114.482 43.6165C113.866 45.0586 113.588 46.6232 113.67 48.1898C113.724 49.5603 113.78 51.7405 114.83 52.7453C114.89 52.8006 114.961 52.8414 115.039 52.8647C115.118 52.888 115.2 52.8932 115.28 52.8799C115.361 52.8665 115.437 52.835 115.503 52.7877C115.569 52.7403 115.624 52.6785 115.663 52.6068C116.106 51.6055 115.727 50.3699 115.596 49.3153C115.4 48.0355 115.423 46.7316 115.663 45.4593C116.191 43.02 118.209 40.8434 120.886 41.4648C121.779 41.6743 122.056 40.3535 121.198 40.0872Z" fill="#2E2E2E"/>
<path d="M107.324 51.2255C106.482 49.9272 105.332 48.8576 103.977 48.1115C102.508 47.3333 100.854 46.9712 99.1941 47.0641C97.8433 47.1351 95.9075 47.4191 95.1239 48.6299C94.9076 48.985 95.2373 49.3401 95.5742 49.3401C96.7903 49.3933 98.01 48.6725 99.2686 48.6299C100.691 48.5867 102.098 48.9395 103.332 49.649C104.416 50.2831 105.327 51.176 105.984 52.248C106.569 53.1854 106.828 54.4637 107.586 55.2555C107.634 55.3003 107.692 55.3334 107.755 55.3525C107.817 55.3715 107.884 55.3759 107.948 55.3652C108.013 55.3546 108.075 55.3293 108.128 55.2912C108.181 55.253 108.225 55.2032 108.256 55.1454C108.81 53.9062 108.019 52.2871 107.324 51.2255Z" fill="#2E2E2E"/>
<path d="M107.016 68.0608C107.161 68.5309 107.194 69.0284 107.113 69.5136C107.032 69.9988 106.838 70.4583 106.548 70.8552C106.249 71.264 105.869 71.6063 105.431 71.8606C104.994 72.1148 104.508 72.2754 104.006 72.3323C103.507 72.3867 103.002 72.342 102.52 72.2009C102.044 72.0541 101.603 71.8125 101.222 71.4908C100.854 71.1806 100.554 70.7961 100.343 70.3624C100.133 69.9287 100.015 69.4554 99.9992 68.9733C99.9987 68.9617 100.001 68.95 100.005 68.9391C100.009 68.9281 100.015 68.9181 100.023 68.9095C100.031 68.9009 100.04 68.894 100.051 68.8891C100.061 68.8842 100.073 68.8815 100.084 68.881C100.104 68.881 100.124 68.8877 100.14 68.8998C100.156 68.912 100.168 68.9291 100.173 68.9485C100.374 69.7905 100.879 70.528 101.591 71.0185C102.268 71.4858 103.097 71.6787 103.91 71.5582C104.71 71.4347 105.438 71.0201 105.952 70.3936C106.492 69.7361 106.809 68.9245 106.86 68.075C106.861 68.0643 106.864 68.0538 106.869 68.0442C106.874 68.0347 106.88 68.0262 106.889 68.0192C106.897 68.0123 106.906 68.0071 106.917 68.0039C106.927 68.0006 106.938 67.9995 106.948 68.0004C106.964 68.0032 106.979 68.0103 106.991 68.0209C107.003 68.0316 107.011 68.0454 107.016 68.0608Z" fill="#2E2E2E"/>
<path d="M115.142 78.5326C114.822 78.1221 114.665 77.6475 114.681 77.1467C114.698 76.6459 114.889 76.1329 115.239 75.6486C115.599 75.1498 116.095 74.6888 116.697 74.2946C117.299 73.9005 117.993 73.5817 118.736 73.3585C119.473 73.1389 120.241 73.0141 120.995 72.9912C121.741 72.9757 122.457 73.0642 123.098 73.2515C123.719 73.4312 124.252 73.7066 124.662 74.0596C125.073 74.4127 125.352 74.8356 125.48 75.3009C125.484 75.3121 125.483 75.3241 125.48 75.3361C125.476 75.3481 125.469 75.36 125.459 75.371C125.449 75.382 125.436 75.392 125.421 75.4003C125.407 75.4086 125.39 75.4151 125.373 75.4194C125.342 75.4261 125.312 75.4261 125.285 75.4196C125.258 75.413 125.237 75.4002 125.225 75.3831C124.741 74.6281 123.822 74.0767 122.646 73.8355C121.529 73.6051 120.242 73.6933 119.047 74.0822C117.872 74.4699 116.87 75.1172 116.233 75.9004C115.566 76.7222 115.265 77.6206 115.373 78.4666C115.374 78.4774 115.372 78.4886 115.367 78.4996C115.361 78.5106 115.353 78.5212 115.342 78.5307C115.331 78.5402 115.318 78.5485 115.303 78.5551C115.289 78.5616 115.273 78.5664 115.256 78.569C115.232 78.5716 115.209 78.5696 115.188 78.5631C115.168 78.5567 115.152 78.5461 115.142 78.5326Z" fill="#2E2E2E"/>
<path d="M131.612 60.3348C131.847 60.7688 131.977 61.252 131.991 61.7454C132.005 62.2388 131.903 62.7286 131.694 63.1754C131.481 63.6341 131.175 64.0436 130.796 64.3779C130.417 64.7122 129.973 64.9641 129.492 65.1176C129.012 65.2677 128.507 65.3219 128.006 65.2774C127.509 65.2261 127.027 65.0765 126.588 64.8371C126.165 64.6049 125.797 64.2859 125.506 63.901C125.215 63.5161 125.009 63.074 124.9 62.6037C124.898 62.5925 124.897 62.5809 124.899 62.5696C124.901 62.5582 124.906 62.5474 124.912 62.5378C124.918 62.5282 124.927 62.52 124.936 62.5136C124.946 62.5072 124.956 62.5028 124.968 62.5007C124.987 62.4957 125.007 62.4976 125.024 62.5061C125.042 62.5145 125.056 62.529 125.063 62.5469C125.425 63.332 126.062 63.9564 126.854 64.3009C127.608 64.6293 128.459 64.6573 129.233 64.3791C129.993 64.1017 130.625 63.553 131.006 62.8381C131.407 62.0897 131.561 61.2332 131.445 60.3916C131.444 60.3809 131.445 60.37 131.447 60.3595C131.45 60.349 131.455 60.3392 131.462 60.3306C131.468 60.322 131.476 60.3148 131.486 60.3094C131.495 60.3041 131.506 60.3006 131.516 60.2993C131.534 60.2951 131.552 60.2963 131.57 60.3026C131.587 60.3089 131.601 60.3201 131.612 60.3348Z" fill="#2E2E2E"/>
<path d="M137.528 68.0234C138.286 66.6619 138.07 65.0944 137.046 64.5222C136.022 63.95 134.577 64.5899 133.818 65.9515C133.06 67.313 133.276 68.8806 134.3 69.4527C135.324 70.0249 136.77 69.385 137.528 68.0234Z" fill="#EB8757"/>
<path d="M101.944 76.4541C102.165 75.4788 101.125 74.4115 99.6222 74.0704C98.1193 73.7293 96.722 74.2434 96.5012 75.2188C96.2805 76.1942 97.3199 77.2614 98.8229 77.6025C100.326 77.9437 101.723 77.4295 101.944 76.4541Z" fill="#EB8757"/>
<path d="M114.017 124.866C111.355 125.616 111.121 131.723 111.613 133.779C112.085 135.728 113.574 136.644 114.879 134.538C115.954 132.778 116.719 130.846 117.141 128.825C117.549 126.482 116.832 125.974 114.017 124.866Z" fill="url(#paint1_linear_59_4314)"/>
<path d="M144.579 117.563C144.643 119.541 150.383 124.526 152.081 122.828C154.684 120.226 150.309 114.435 147.678 113.774C145.391 113.199 144.115 115.415 144.579 117.563Z" fill="url(#paint2_linear_59_4314)"/>
<path d="M151.474 80.3233C145.294 84.4101 135.416 90.2261 124.432 93.8727C112.452 97.853 98.1457 97.9311 89.5301 97.4908C89.02 95.5415 88.6316 93.5623 88.3672 91.5647C96.3021 92.0476 110.91 92.2216 122.599 88.3372C134.034 84.5415 144.418 78.0899 150.059 74.2268C150.674 76.223 151.146 78.2603 151.474 80.3233Z" fill="#2E2E2E"/>
<path d="M152.155 96.976C145.802 101.56 136.2 107.738 127.744 110.035C118.817 112.464 105.198 113.082 96.6147 113.231C95.3724 111.362 94.2486 109.418 93.25 107.408C100.944 107.376 116.76 106.971 126.223 104.404C135.491 101.883 146.876 93.7519 152.29 89.5977C152.343 92.1399 152.286 94.629 152.155 96.976Z" fill="#2E2E2E"/>
<path d="M149.759 114.158C144.561 117.172 137.583 121.078 132.215 123.613C127.156 126.006 118.703 127.263 111.471 127.923C108.992 126.369 106.671 124.577 104.539 122.573C111.985 122.168 123.887 121.099 129.737 118.337C136.576 115.106 146.472 109.357 151.248 106.527C151.046 108.072 150.847 109.368 150.695 110.358C150.484 111.647 150.171 112.918 149.759 114.158Z" fill="#020202"/>
<path d="M152.616 77.8024L153.3 77.2804C154.605 76.272 155.58 75.3808 156.264 77.5254C156.821 79.2688 156.168 81.14 155.275 82.6703C154.211 84.5025 152.438 86.434 150.003 86.4909C147.907 86.5406 146.922 83.7533 148.053 82.0703C149.184 80.3873 150.995 79.0309 152.616 77.8024Z" fill="url(#paint3_linear_59_4314)"/>
<path d="M86.6108 93.8975L85.7989 93.6064C84.2531 93.0454 83.0547 92.4985 83.0547 94.7461C83.0547 96.5783 84.2424 98.1619 85.5578 99.362C87.1356 100.782 89.3905 102.089 91.7412 101.397C93.7551 100.804 93.8473 97.8459 92.2553 96.5889C90.6634 95.332 88.529 94.5757 86.6108 93.8975Z" fill="url(#paint4_linear_59_4314)"/>
<g style="mix-blend-mode:overlay" opacity="0.3">
<path d="M128.705 55.0354C126.915 53.9702 123.699 53.4873 122.639 53.3098C118.717 52.6531 114.696 52.9119 110.889 54.0661C108.556 54.7762 95.7463 61.2846 100.299 64.9559C101.767 66.1383 104.802 65.3678 106.255 64.5796C109.382 62.8824 112.992 61.8775 116.395 60.9082C120.196 59.8252 124.079 59.7294 127.826 58.8524C128.235 58.7743 128.621 58.6064 128.957 58.3608C129.293 58.1152 129.57 57.798 129.769 57.4321C130.244 56.4166 129.691 55.6354 128.705 55.0354Z" fill="white"/>
</g>
<g style="mix-blend-mode:overlay" opacity="0.4">
<path d="M150.571 93.766C150.848 94.0891 151.035 94.6998 151.053 95.5626C151.195 103.136 150.011 111.225 146.462 118.092C142.976 124.838 135.272 133.004 126.848 130.327C126.085 130.137 125.401 129.711 124.894 129.109C122.827 126.269 129.645 123.975 131.301 123.073C134.697 121.209 137.596 118.554 139.754 115.333C143.884 109.236 145.941 101.94 148.617 95.1508C149.231 93.5565 150.057 93.1659 150.571 93.766Z" fill="black"/>
</g>
<path d="M81.5391 71.6063C81.7721 71.6063 81.961 71.4171 81.961 71.1838C81.961 70.9504 81.7721 70.7612 81.5391 70.7612C81.3061 70.7612 81.1172 70.9504 81.1172 71.1838C81.1172 71.4171 81.3061 71.6063 81.5391 71.6063Z" fill="#FCB05C"/>
<path d="M157.36 135.966C136.938 141.38 117.25 140.972 95.7957 135.966L93.2891 96.6882C115.459 101.013 137.718 100.466 157.36 95.7615V135.966Z" fill="#FCB05C"/>
<g opacity="0.8">
<path opacity="0.8" d="M157.36 135.966C136.938 141.38 117.25 140.972 95.7957 135.966L93.2891 96.6882C115.459 101.013 137.718 100.466 157.36 95.7615V135.966Z" fill="white"/>
</g>
<path d="M154.19 129.994C154.15 130.021 154.107 130.043 154.062 130.058L153.675 130.224C153.321 130.359 152.839 130.58 152.179 130.817C150.327 131.507 148.441 132.099 146.528 132.593C141.695 133.885 134.792 134.915 127.151 134.805C120.63 134.676 114.133 133.98 107.733 132.724C105.275 132.259 103.301 131.826 101.939 131.51C101.255 131.357 100.73 131.222 100.372 131.133L99.982 131.02C99.9348 131.008 99.8886 130.993 99.8438 130.974C99.8928 130.973 99.9417 130.979 99.9891 130.991L100.4 131.07L101.975 131.396C103.343 131.68 105.325 132.081 107.782 132.525C114.18 133.718 120.663 134.385 127.169 134.521C134.788 134.627 141.663 133.633 146.492 132.39C148.914 131.783 150.843 131.169 152.165 130.7C152.828 130.484 153.328 130.278 153.679 130.157L154.072 130.019L154.19 129.994Z" fill="#FCB05C"/>
<path d="M124.184 131.595C121.621 132.355 118.994 132.153 116.32 131.332V117.353C118.915 116.824 121.59 116.824 124.184 117.353V131.595Z" fill="#FCB05C"/>
<path d="M136.878 130.764C136.874 130.729 136.874 130.693 136.878 130.658C136.878 130.576 136.878 130.473 136.878 130.352C136.878 130.068 136.86 129.678 136.846 129.184C136.846 128.151 136.796 126.681 136.761 124.845C136.704 121.135 136.626 115.944 136.537 109.932L136.64 110.057C133.954 109.527 131.19 109.527 128.503 110.057L128.617 109.922V110.199C128.702 118.461 128.776 125.921 128.829 131.251L128.755 131.158C129.882 131.404 131.03 131.545 132.184 131.577C133.051 131.594 133.918 131.522 134.772 131.364C135.31 131.26 135.84 131.12 136.36 130.945L136.757 130.807C136.805 130.789 136.853 130.775 136.903 130.764C136.862 130.789 136.819 130.811 136.775 130.828L136.378 130.998C135.862 131.194 135.332 131.351 134.793 131.467C133.934 131.647 133.058 131.734 132.18 131.726C131.016 131.712 129.856 131.585 128.716 131.346L128.642 131.329V131.254C128.564 125.928 128.461 118.472 128.344 110.202C128.344 110.106 128.344 110.01 128.344 109.925V109.808L128.457 109.787C131.177 109.248 133.977 109.248 136.697 109.787L136.803 109.808V109.915C136.849 115.951 136.888 121.177 136.913 124.902C136.913 126.734 136.913 128.197 136.913 129.223C136.913 129.71 136.913 130.089 136.913 130.37C136.913 130.487 136.913 130.583 136.913 130.661C136.909 130.698 136.897 130.733 136.878 130.764Z" fill="#FCB05C"/>
<path d="M148.965 129.117C146.859 130.26 144.087 130.409 141.102 130.239V107.159C143.778 106.591 146.42 106.485 148.965 107.159V129.117Z" fill="#FCB05C"/>
<path d="M111.683 130.452C111.665 130.256 111.657 130.059 111.658 129.862C111.658 129.454 111.64 128.914 111.626 128.247C111.626 126.826 111.591 124.895 111.566 122.566L111.64 122.676C109.538 121.905 106.9 121.17 104.071 121.419L104.195 121.284C104.195 124.163 104.195 126.862 104.177 129.159L104.106 129.049C105.084 129.447 106.101 129.738 107.141 129.915C108.07 130.086 108.889 130.182 109.566 130.249L111.141 130.381C111.327 130.391 111.513 130.411 111.697 130.441C111.511 130.455 111.323 130.455 111.137 130.441C110.782 130.441 110.236 130.42 109.556 130.374C108.875 130.327 108.049 130.246 107.106 130.093C106.047 129.93 105.01 129.649 104.014 129.255L103.94 129.223V129.145C103.94 126.848 103.94 124.149 103.922 121.27V121.142H104.046C106.943 120.886 109.612 121.65 111.726 122.452L111.804 122.48V122.562C111.779 124.913 111.757 126.887 111.743 128.311C111.729 128.966 111.718 129.495 111.711 129.898C111.716 130.083 111.706 130.268 111.683 130.452Z" fill="#FCB05C"/>
<path d="M115.403 110.021C114.895 110.106 114.379 110.138 113.864 110.117C112.914 110.117 111.599 110.117 110.149 110.028C108.699 109.939 107.39 109.808 106.447 109.673C105.934 109.63 105.426 109.539 104.93 109.4C105.444 109.384 105.959 109.412 106.468 109.481C107.415 109.556 108.72 109.662 110.163 109.748C111.606 109.833 112.918 109.883 113.864 109.915C114.379 109.909 114.894 109.944 115.403 110.021Z" fill="#FCB05C"/>
<path d="M114.226 111.743C113.778 111.788 113.327 111.788 112.879 111.743C112.046 111.704 110.897 111.629 109.628 111.534C108.358 111.438 107.21 111.331 106.384 111.242C105.932 111.222 105.484 111.156 105.047 111.044C105.497 110.997 105.951 110.997 106.401 111.044C107.234 111.083 108.383 111.154 109.649 111.253C110.915 111.353 112.06 111.452 112.89 111.541C113.341 111.561 113.789 111.629 114.226 111.743Z" fill="#FCB05C"/>
<path d="M117.105 113.994C117.096 113.831 117.096 113.668 117.105 113.504C117.105 113.167 117.133 112.713 117.158 112.144C117.215 110.951 117.293 109.275 117.388 107.213L117.491 107.319C112.633 107.366 107.777 107.095 102.954 106.51L103.107 106.382V106.485V106.598V106.822L103.082 107.262C103.064 107.56 103.05 107.852 103.032 108.143C102.997 108.725 102.965 109.3 102.93 109.868C102.862 111.001 102.798 112.098 102.735 113.149L102.621 113.014C106.83 113.533 110.467 113.753 113.045 113.852L116.059 113.945L116.853 113.969C116.95 113.969 117.047 113.975 117.144 113.987C117.056 113.999 116.967 114.005 116.878 114.005C116.697 114.005 116.413 114.026 116.059 114.03C115.35 114.03 114.329 114.03 113.038 114.03C110.457 113.973 106.808 113.788 102.589 113.288L102.469 113.27V113.149C102.529 112.084 102.589 111.019 102.653 109.868C102.685 109.3 102.717 108.725 102.752 108.143C102.752 107.852 102.784 107.557 102.802 107.262L102.827 106.818V106.595V106.485V106.378C102.795 106.407 103.118 106.133 102.983 106.25C107.801 106.827 112.649 107.121 117.502 107.131H117.612V107.237C117.466 109.318 117.353 111.015 117.257 112.208C117.215 112.769 117.179 113.213 117.154 113.543C117.147 113.695 117.13 113.845 117.105 113.994Z" fill="#FCB05C"/>
<path d="M118.896 116.956C118.829 116.995 118.393 116.356 117.882 115.535C117.372 114.715 117.035 114.016 117.102 113.98C117.17 113.945 117.606 114.58 118.116 115.4C118.627 116.221 118.96 116.92 118.896 116.956Z" fill="#FCB05C"/>
<path d="M33.5547 65.8118L40.2344 106.257C40.2344 106.257 50.4243 125.367 77.5014 129.674L73.1333 93.5674C73.1333 93.5674 48.0913 85.8127 33.5547 65.8118Z" fill="#FCB05C"/>
<g opacity="0.8">
<path opacity="0.8" d="M33.5547 65.8118L40.2344 106.257C40.2344 106.257 50.4243 125.367 77.5014 129.674L73.1333 93.5674C73.1333 93.5674 48.0913 85.8127 33.5547 65.8118Z" fill="white"/>
</g>
<path d="M74.0111 126.791C73.9527 126.787 73.8953 126.773 73.8409 126.752L73.341 126.606L71.4335 126.024C70.6074 125.761 69.5792 125.488 68.4411 125.023L66.5974 124.312C65.9415 124.067 65.2501 123.805 64.5517 123.467C63.1335 122.821 61.577 122.157 59.985 121.262C58.3541 120.442 56.7019 119.402 54.9717 118.298C51.2458 115.847 47.8621 112.911 44.9095 109.566C43.5285 108.006 42.3119 106.307 41.2788 104.496V104.478V104.457C40.0592 96.5746 38.9884 89.6472 38.2226 84.6727C37.8681 82.1873 37.5525 80.2237 37.3469 78.839L37.1235 77.266L37.0703 76.8577C37.0703 76.7654 37.0703 76.7192 37.0703 76.7192C37.0851 76.7631 37.0958 76.8083 37.1022 76.8542C37.1235 76.9607 37.1483 77.0921 37.1802 77.2589L37.4461 78.8248C37.6731 80.206 37.9992 82.1837 38.4034 84.6479L41.5519 104.414V104.375C42.5769 106.164 43.7828 107.843 45.1506 109.385C48.0879 112.711 51.4481 115.637 55.1454 118.088C56.8614 119.192 58.503 120.219 60.1091 121.06C61.6904 121.962 63.2469 122.637 64.6474 123.29C65.3565 123.645 66.0301 123.897 66.679 124.149L68.512 124.859C69.643 125.339 70.6641 125.626 71.4832 125.907L73.3765 126.535L73.8657 126.709C73.9166 126.732 73.9652 126.759 74.0111 126.791Z" fill="#FCB05C"/>
<path d="M71.6201 115.042C71.5925 115.073 71.5616 115.102 71.5279 115.127L71.2407 115.358L70.1132 116.235L65.8586 119.498L65.7912 119.548L65.7416 119.48C64.3234 117.495 62.5506 115.052 60.5403 112.272L60.6963 112.301L56.7112 115.141L56.5764 115.237L56.5197 115.084L51.4106 101.13L50.6731 99.1206H50.9249C49.8045 101.343 48.7196 103.502 47.6772 105.576L47.5354 105.856L47.4325 105.562C44.5961 97.395 42.2064 90.4712 40.65 85.9725H40.7918L39.7813 90.1871C39.6643 90.6594 39.5721 91.0286 39.5083 91.2949C39.4764 91.4121 39.4516 91.5044 39.4338 91.579C39.4274 91.6122 39.4167 91.6444 39.4019 91.6749C39.3973 91.6419 39.3973 91.6084 39.4019 91.5754C39.4019 91.4973 39.4338 91.405 39.4587 91.2878L39.7104 90.1871C39.9302 89.1929 40.2422 87.762 40.6393 85.9583L40.696 85.7026L40.7847 85.9476C42.366 90.4392 44.8053 97.3559 47.6772 105.498H47.4325C48.4726 103.419 49.5528 101.265 50.6731 99.0354L50.815 98.7549L50.9249 99.0496C51.166 99.7136 51.4142 100.385 51.6623 101.059L56.7785 115.035L56.5906 114.974L60.59 112.134L60.6821 112.066L60.7495 112.159L65.9012 119.402L65.7842 119.384L70.0813 116.189L71.2336 115.344L71.535 115.131C71.5587 115.097 71.5874 115.067 71.6201 115.042Z" fill="#FCB05C"/>
<path d="M70.6939 95.6515C70.5004 95.6317 70.31 95.5888 70.1267 95.5237C69.7721 95.4278 69.2474 95.268 68.6127 95.0585C65.3064 93.9484 62.1206 92.5066 59.1036 90.7551C58.5257 90.4178 58.0648 90.1338 57.7528 89.9278C57.5826 89.8279 57.4244 89.7087 57.2812 89.5728C57.4657 89.6338 57.6419 89.7173 57.806 89.8213L59.1958 90.574C60.3729 91.2025 62.011 92.044 63.8617 92.882C65.7125 93.7199 67.4285 94.3946 68.6801 94.8597L70.1586 95.4101C70.3468 95.4669 70.5267 95.548 70.6939 95.6515Z" fill="#FCB05C"/>
<path d="M71.7728 97.331C71.3288 97.3059 70.8896 97.2272 70.4645 97.0967C69.4252 96.8458 68.4002 96.5388 67.3941 96.177C66.3885 95.8177 65.4026 95.4053 64.4406 94.9414C64.0302 94.7693 63.6411 94.5501 63.2812 94.2881C63.7068 94.4101 64.1209 94.5693 64.5186 94.7639C65.2738 95.0763 66.3162 95.4989 67.4862 95.9214C68.6563 96.3439 69.7341 96.6741 70.5141 96.912C70.9454 97.0134 71.3667 97.1537 71.7728 97.331Z" fill="#FCB05C"/>
<path d="M61.103 112.293C61.103 112.627 60.9009 112.897 60.6491 112.897C60.3974 112.897 60.1953 112.627 60.1953 112.293C60.1953 111.96 60.3974 111.686 60.6491 111.686C60.9009 111.686 61.103 111.956 61.103 112.293Z" fill="#FCB05C"/>
<path d="M50.7429 100.111C50.9935 100.111 51.1967 99.8392 51.1967 99.5039C51.1967 99.1686 50.9935 98.8967 50.7429 98.8967C50.4922 98.8967 50.2891 99.1686 50.2891 99.5039C50.2891 99.8392 50.4922 100.111 50.7429 100.111Z" fill="#FCB05C"/>
<path d="M41.1967 86.1605C41.1967 86.5156 40.9911 86.7677 40.7429 86.7677C40.4947 86.7677 40.2891 86.4978 40.2891 86.1605C40.2891 85.8232 40.4912 85.5569 40.7429 85.5569C40.9946 85.5569 41.1967 85.8267 41.1967 86.1605Z" fill="#FCB05C"/>
<path d="M210.209 73.0159L206.866 114.111C206.866 114.111 197.098 131.684 170.188 132.355L173.513 90.9787C173.513 90.9787 196.988 90.0271 210.209 73.0159Z" fill="#FCB05C"/>
<path d="M209.712 70.8749C208.836 68.0343 206.709 63.9759 201.653 63.1309L195.672 118.408C195.672 118.408 206.897 116.164 207.198 110C207.227 109.471 209.471 81.9956 210.035 75.2031C210.212 73.7532 210.102 72.2824 209.712 70.8749Z" fill="#FCB05C"/>
<g opacity="0.8">
<path opacity="0.8" d="M210.209 73.0159L206.866 114.111C206.866 114.111 197.098 131.684 170.188 132.355L173.513 90.9787C173.513 90.9787 196.988 90.0271 210.209 73.0159Z" fill="white"/>
</g>
<path d="M209.403 83.4941C206.712 87.4115 205.223 92.0307 205.117 96.7843C205.092 98.1442 205.17 99.5574 204.652 100.818C204.135 102.078 202.784 103.133 201.461 102.774C200.089 102.394 199.476 100.772 198.27 100.012C197.207 99.3337 195.753 99.4509 194.661 100.086C193.588 100.776 192.758 101.786 192.289 102.973C191.314 105.228 191.25 107.77 190.516 110.117C189.782 112.464 188.034 114.832 185.581 114.939C184.684 114.978 183.808 114.708 182.904 114.733C181.011 114.79 179.359 116.199 178.486 117.879C177.614 119.558 177.338 121.483 177.086 123.361C177.086 123.361 191.424 124.728 207.521 105.696L209.403 83.4941Z" fill="#FCB05C"/>
<path d="M186.608 108.42C186.608 108.931 186.357 109.343 186.048 109.343C185.74 109.343 185.484 108.931 185.484 108.42C185.484 107.908 185.736 107.497 186.048 107.497C186.36 107.497 186.608 107.912 186.608 108.42Z" fill="#FCB05C"/>
<path d="M193.366 91.3338C193.366 91.8451 193.114 92.257 192.802 92.257C192.49 92.257 192.242 91.8451 192.242 91.3338C192.242 90.8225 192.494 90.4106 192.802 90.4106C193.111 90.4106 193.366 90.8261 193.366 91.3338Z" fill="#FCB05C"/>
<path d="M209.085 85.4753C209.064 85.5568 209.033 85.6354 208.993 85.7097C208.919 85.8766 208.816 86.0967 208.692 86.3772C208.408 86.9737 208.011 87.8188 207.507 88.8875L203.253 97.8033L203.193 97.924L203.079 97.853L192.939 91.4263L193.137 91.3624L192.716 92.4027L186.142 108.459L186.096 108.569L185.993 108.512C183.465 107.092 181.384 105.941 179.966 105.164C179.257 104.773 178.686 104.475 178.303 104.28L177.863 104.063C177.81 104.047 177.759 104.024 177.711 103.996C177.729 103.946 178.569 104.305 180.019 105.061C181.469 105.817 183.565 106.925 186.093 108.331L185.944 108.381C187.674 104.099 189.947 98.4602 192.435 92.2962C192.577 91.9411 192.723 91.586 192.854 91.2594L192.918 91.1067L193.056 91.1955L203.189 97.6435L203.019 97.6932L207.383 88.8165C207.912 87.7513 208.326 86.9276 208.624 86.3311C208.766 86.0612 208.876 85.8482 208.979 85.6813C209.009 85.6102 209.045 85.5414 209.085 85.4753Z" fill="#FCB05C"/>
</g>
<defs>
<linearGradient id="paint0_linear_59_4314" x1="116.416" y1="27.0876" x2="121.656" y2="112.508" gradientUnits="userSpaceOnUse">
<stop offset="0.15" stop-color="#FFE371"/>
<stop offset="0.42" stop-color="#FFDD61"/>
<stop offset="0.69" stop-color="#FFD56C"/>
<stop offset="0.97" stop-color="#FFC76C"/>
<stop offset="1" stop-color="#FFC05E"/>
</linearGradient>
<linearGradient id="paint1_linear_59_4314" x1="2850.15" y1="-384.11" x2="4794.44" y2="737.017" gradientUnits="userSpaceOnUse">
<stop offset="0.15" stop-color="#FCD844"/>
<stop offset="0.42" stop-color="#FCD443"/>
<stop offset="0.69" stop-color="#FCC740"/>
<stop offset="0.97" stop-color="#FBB33C"/>
<stop offset="1" stop-color="#FBB03B"/>
</linearGradient>
<linearGradient id="paint2_linear_59_4314" x1="4698.79" y1="-981.155" x2="6657.07" y2="878.305" gradientUnits="userSpaceOnUse">
<stop offset="0.15" stop-color="#FCD844"/>
<stop offset="0.42" stop-color="#FCD443"/>
<stop offset="0.69" stop-color="#FCC740"/>
<stop offset="0.97" stop-color="#FBB33C"/>
<stop offset="1" stop-color="#FBB03B"/>
</linearGradient>
<linearGradient id="paint3_linear_59_4314" x1="4514.76" y1="3285.24" x2="4394.4" y2="6175.65" gradientUnits="userSpaceOnUse">
<stop offset="0.15" stop-color="#FCD844"/>
<stop offset="0.42" stop-color="#FCD443"/>
<stop offset="0.69" stop-color="#FCC740"/>
<stop offset="0.97" stop-color="#FBB33C"/>
<stop offset="1" stop-color="#FBB03B"/>
</linearGradient>
<linearGradient id="paint4_linear_59_4314" x1="-5398.85" y1="6547.05" x2="-4024.4" y2="8961.7" gradientUnits="userSpaceOnUse">
<stop offset="0.15" stop-color="#FCD844"/>
<stop offset="0.42" stop-color="#FCD443"/>
<stop offset="0.69" stop-color="#FCC740"/>
<stop offset="0.97" stop-color="#FBB33C"/>
<stop offset="1" stop-color="#FBB03B"/>
</linearGradient>
<clipPath id="clip0_59_4314">
<rect width="239" height="168" fill="white"/>
</clipPath>
</defs>
</svg>
