<svg width="205" height="192" viewBox="0 0 205 192" fill="none" xmlns="http://www.w3.org/2000/svg">
<path d="M139.395 186.049C139.506 186.049 139.614 186.02 139.71 185.965C139.855 185.874 139.96 185.731 140.003 185.566C140.046 185.4 140.023 185.225 139.939 185.075L137.364 180.378C137.309 180.283 137.23 180.204 137.135 180.149C137.04 180.094 136.933 180.065 136.823 180.064H95.897C95.7922 180.066 95.6896 180.094 95.5984 180.146C95.5073 180.197 95.4304 180.27 95.3749 180.359L92.4155 185.057C92.3242 185.201 92.292 185.375 92.3253 185.543C92.3586 185.711 92.455 185.859 92.5948 185.958C92.6627 186.006 92.7397 186.038 92.821 186.054C92.9022 186.071 92.9859 186.07 93.0669 186.052C93.1478 186.035 93.2242 186 93.2912 185.952C93.3583 185.903 93.4146 185.842 93.4565 185.771L96.2367 181.33H136.455L138.854 185.714C138.906 185.813 138.984 185.896 139.079 185.955C139.174 186.014 139.283 186.046 139.395 186.049Z" fill="#375A64"/>
<path d="M142.912 188.491C143.587 186.195 142.84 183.957 141.244 183.492C139.649 183.028 137.809 184.512 137.135 186.808C136.461 189.104 137.207 191.342 138.803 191.807C140.398 192.271 142.238 190.786 142.912 188.491Z" fill="#375A64"/>
<path d="M142.233 188.293C142.748 186.538 142.177 184.827 140.956 184.472C139.736 184.117 138.329 185.251 137.814 187.006C137.299 188.761 137.87 190.471 139.09 190.827C140.311 191.182 141.718 190.047 142.233 188.293Z" fill="#ADD8E5"/>
<path d="M115.927 188.323C116.115 188.317 116.294 188.238 116.423 188.102C116.553 187.966 116.623 187.784 116.619 187.596V180.478C116.625 180.383 116.612 180.288 116.58 180.199C116.548 180.11 116.498 180.028 116.433 179.959C116.368 179.889 116.29 179.834 116.202 179.796C116.115 179.759 116.021 179.739 115.926 179.739C115.83 179.739 115.736 179.759 115.649 179.796C115.561 179.834 115.483 179.889 115.418 179.959C115.353 180.028 115.303 180.11 115.271 180.199C115.239 180.288 115.226 180.383 115.232 180.478V187.593C115.23 187.687 115.246 187.78 115.279 187.867C115.313 187.954 115.363 188.034 115.428 188.102C115.492 188.169 115.57 188.224 115.655 188.262C115.741 188.3 115.833 188.321 115.927 188.323Z" fill="#375A64"/>
<path d="M118.806 139.398C118.51 140.091 116.604 180.594 116.604 180.594C116.604 180.594 115.444 181.023 115.268 180.594C115.091 180.165 114.812 138.85 114.812 138.85L119.277 139.455" fill="#375A64"/>
<path d="M109.99 121.291C121.249 125.021 134.187 124.72 146.424 120.664C147.947 120.147 149.293 118.644 149.45 117.395C150.454 109.4 151.46 101.407 152.466 93.4146C152.623 92.1619 151.658 90.6148 150.264 90.0385C139.103 85.5288 126.303 84.7145 114.163 87.9778C112.654 88.3944 111.304 89.9352 111.128 91.3226L107.81 117.842C107.75 118.575 107.93 119.307 108.323 119.928C108.716 120.55 109.301 121.028 109.99 121.291Z" fill="#EA923B"/>
<path d="M113.509 121.366C125.145 125.259 138.546 124.961 151.205 120.774C152.727 120.257 154.073 118.757 154.23 117.504C155.236 109.512 156.242 101.519 157.246 93.5242C157.403 92.2715 156.441 90.7275 155.045 90.1513C143.499 85.4818 130.246 84.6488 117.682 88.0593C116.176 88.4789 114.823 90.0198 114.65 91.4071C113.537 100.241 112.426 109.076 111.317 117.911C111.257 118.646 111.439 119.38 111.834 120.002C112.23 120.625 112.817 121.104 113.509 121.366Z" fill="#FCB05C"/>
<path d="M140.361 139.345H141.758L145.978 112.149C146.107 111.31 145.579 110.605 144.818 110.605C144.434 110.634 144.074 110.798 143.801 111.067C143.528 111.337 143.361 111.695 143.33 112.077L140.361 139.345Z" fill="#FCB05C"/>
<path d="M116.472 139.345H117.868L122.086 112.149C122.218 111.31 121.686 110.605 120.925 110.605C120.542 110.634 120.181 110.798 119.908 111.067C119.636 111.337 119.469 111.695 119.437 112.077L116.472 139.345Z" fill="#FCB05C"/>
<path d="M118.006 188.597C118.68 186.302 117.934 184.064 116.338 183.599C114.743 183.135 112.903 184.619 112.229 186.915C111.554 189.211 112.301 191.449 113.897 191.913C115.492 192.378 117.332 190.893 118.006 188.597Z" fill="#375A64"/>
<path d="M117.327 188.4C117.842 186.645 117.271 184.935 116.05 184.579C114.83 184.224 113.423 185.359 112.908 187.113C112.392 188.868 112.964 190.579 114.184 190.934C115.405 191.289 116.812 190.155 117.327 188.4Z" fill="#ADD8E5"/>
<path d="M93.1613 191.856C94.7842 191.506 95.6871 189.323 95.178 186.98C94.6688 184.637 92.9404 183.021 91.3175 183.371C89.6946 183.72 88.7917 185.903 89.3008 188.246C89.81 190.589 91.5384 192.205 93.1613 191.856Z" fill="#375A64"/>
<path d="M92.9437 190.855C94.183 190.588 94.8723 188.92 94.4832 187.13C94.0942 185.34 92.7742 184.105 91.5349 184.372C90.2957 184.639 89.6064 186.307 89.9954 188.097C90.3844 189.887 91.7044 191.122 92.9437 190.855Z" fill="#ADD8E5"/>
<path d="M112.377 114.623C112.509 114.645 112.475 114.623 111.94 114.585C111.248 114.542 110.569 114.517 109.877 114.538C107.564 114.598 105.288 115.131 103.191 116.104C95.5076 119.747 93.652 128.71 93.9225 136.774C93.9603 137.974 89.9378 138.174 89.9001 136.987C89.5856 127.661 92.2966 118.378 101.181 114.676C105.342 112.973 109.887 112.42 114.337 113.076C116.894 113.471 113.582 114.82 112.377 114.642V114.623Z" fill="#FCB05C"/>
<path d="M126.658 140.958H88.4466C88.4466 139.493 89.0311 138.088 90.0715 137.052C91.1119 136.016 92.523 135.434 93.9943 135.434H121.11C122.582 135.434 123.993 136.016 125.033 137.052C126.074 138.088 126.658 139.493 126.658 140.958Z" fill="#EA923B"/>
<path d="M147.39 140.958H109.178C109.178 139.463 109.774 138.029 110.836 136.972C111.898 135.915 113.338 135.321 114.839 135.321H141.726C143.227 135.321 144.667 135.915 145.728 136.972C146.79 138.029 147.387 139.463 147.387 140.958H147.39Z" fill="#FCB05C"/>
<path d="M88.4462 142.236H147.39V140.213H88.4462V142.236Z" fill="#FCB05C"/>
<path d="M199.456 37.3809H201.871V36.0154H199.456V37.3809Z" fill="#DDCDC7"/>
<path d="M199.091 37.3809H199.459V33.2532H199.091V37.3809Z" fill="#DDCDC7"/>
<path d="M199.456 36.1311H201.871V30.9919H199.456V36.1311Z" fill="#EDDFDA"/>
<path d="M200.138 35.0759C200.138 35.1913 200.172 35.304 200.237 35.3999C200.301 35.4957 200.392 35.5704 200.5 35.6144C200.607 35.6584 200.724 35.6697 200.838 35.647C200.951 35.6243 201.056 35.5685 201.137 35.4867C201.219 35.4049 201.275 35.3008 201.297 35.1876C201.319 35.0744 201.307 34.9572 201.262 34.8508C201.217 34.7444 201.142 34.6537 201.045 34.5901C200.949 34.5264 200.835 34.4928 200.72 34.4934C200.643 34.4934 200.567 34.5085 200.496 34.5378C200.425 34.5671 200.361 34.6101 200.307 34.6642C200.253 34.7184 200.21 34.7826 200.181 34.8532C200.152 34.9239 200.137 34.9996 200.138 35.0759Z" fill="#DDCDC7"/>
<path d="M126.787 37.3809H129.202V36.0154H126.787V37.3809Z" fill="#DDCDC7"/>
<path d="M126.422 37.3809H126.79V33.2532H126.422V37.3809Z" fill="#DDCDC7"/>
<path d="M126.787 36.1311H129.202V30.9919H126.787V36.1311Z" fill="#EDDFDA"/>
<path d="M127.47 35.0759C127.47 35.1913 127.504 35.304 127.569 35.3999C127.633 35.4957 127.725 35.5704 127.832 35.6144C127.939 35.6584 128.056 35.6697 128.17 35.647C128.284 35.6243 128.388 35.5685 128.469 35.4867C128.551 35.4049 128.607 35.3008 128.629 35.1876C128.651 35.0744 128.639 34.9572 128.594 34.8508C128.549 34.7444 128.474 34.6537 128.377 34.5901C128.281 34.5264 128.167 34.4928 128.052 34.4934C127.975 34.4934 127.899 34.5085 127.828 34.5378C127.757 34.5671 127.693 34.6101 127.639 34.6642C127.585 34.7184 127.542 34.7826 127.513 34.8532C127.484 34.9239 127.469 34.9996 127.47 35.0759Z" fill="#DDCDC7"/>
<path d="M120.683 33.4661L202.956 33.4661V30.3437L120.683 30.3437V33.4661Z" fill="#EDDFDA"/>
<path d="M122.727 33.4661L205 33.4661V30.3437L122.727 30.3437V33.4661Z" fill="#F5F0EE"/>
<path d="M205 33.4661L122.259 32.5579V33.4661H205Z" fill="#EDDFDA"/>
<path d="M131.26 30.3407H172.403C171.673 28.1154 171.673 25.7167 172.403 23.4915H131.26C131.989 25.7167 131.989 28.1154 131.26 30.3407Z" fill="#375A64"/>
<path d="M137.741 18.4961L164.498 18.4961C165.134 18.4961 165.649 17.9829 165.649 17.3499C165.649 16.7168 165.134 16.2036 164.498 16.2036L137.741 16.2036C137.105 16.2036 136.59 16.7168 136.59 17.3499C136.59 17.9829 137.105 18.4961 137.741 18.4961Z" fill="#375A64"/>
<path d="M138.701 23.4915L166.99 23.4915C167.711 23.4915 168.295 22.9096 168.295 22.1918V20.8921C168.295 20.1743 167.711 19.5924 166.99 19.5924L138.701 19.5924C137.98 19.5924 137.395 20.1743 137.395 20.8921V22.1918C137.395 22.9096 137.98 23.4915 138.701 23.4915Z" fill="#92CE91"/>
<path d="M135.744 19.5955L168.254 19.5955C168.56 19.5955 168.808 19.3494 168.808 19.0458C168.808 18.7423 168.56 18.4962 168.254 18.4962L135.744 18.4962C135.439 18.4962 135.191 18.7423 135.191 19.0458C135.191 19.3494 135.439 19.5955 135.744 19.5955Z" fill="#FC81B3"/>
<path d="M132.539 30.3405H170.807C170.128 28.4588 170.128 26.4003 170.807 24.5186H132.539C133.218 26.4003 133.218 28.4588 132.539 30.3405Z" fill="#EDDFDA"/>
<path d="M166.42 29.6924H164.92C164.801 28.7317 164.813 27.7594 164.955 26.8018H166.458C166.295 27.7575 166.282 28.7328 166.42 29.6924Z" fill="#FE1556"/>
<path d="M149.072 30.1402H147.962C147.875 29.4293 147.883 28.7099 147.987 28.0012H149.104C148.982 28.7082 148.971 29.4299 149.072 30.1402Z" fill="#375A64"/>
<path d="M169.588 26.8017L150.847 26.2317L133.515 26.8017H169.588Z" fill="#DDCDC7"/>
<path d="M163.018 28.0011L147.966 27.7161L134.043 28.0011H163.018Z" fill="#DDCDC7"/>
<path d="M191.338 28.4021C191.338 28.4021 192.146 30.2812 191.703 30.2812C191.259 30.2812 189.643 29.1819 189.643 29.1819L191.338 28.4021Z" fill="#FF881D"/>
<path d="M183.117 28.3862C183.117 28.3862 182.538 30.3405 182.979 30.2872C183.419 30.234 184.897 28.9593 184.897 28.9593L183.117 28.3862Z" fill="#FF881D"/>
<path d="M187.397 29.9511C191.229 29.7872 194.204 26.6228 194.043 22.8834C193.881 19.1439 190.644 16.2453 186.813 16.4093C182.981 16.5732 180.006 19.7375 180.167 23.477C180.328 27.2165 183.565 30.115 187.397 29.9511Z" fill="url(#paint0_linear_63_5566)"/>
<path d="M187.884 29.0997C191.01 29.0519 193.503 26.383 193.453 23.1386C193.403 19.8942 190.828 17.3029 187.702 17.3507C184.576 17.3985 182.083 20.0674 182.133 23.3118C182.183 26.5562 184.757 29.1475 187.884 29.0997Z" fill="#F5F0EE"/>
<path d="M191.341 23.2C191.341 21.9861 190.909 20.8115 190.122 19.8845C189.335 18.9575 188.244 18.338 187.042 18.1359C187.373 18.0601 187.712 18.0191 188.052 18.0138C190.816 17.97 193.083 20.2624 193.137 23.1311C193.19 25.9998 190.976 28.3581 188.215 28.4019C187.953 28.4049 187.691 28.3871 187.432 28.3487C188.575 28.0629 189.586 27.3965 190.297 26.4601C191.008 25.5237 191.377 24.3734 191.341 23.2Z" fill="#DDCDC7"/>
<path d="M184.092 27.0116C183.208 26.1589 182.648 25.0273 182.508 23.8096C182.368 22.5918 182.657 21.3634 183.324 20.3338C183.992 19.3042 184.998 18.5371 186.17 18.1633C187.342 17.7896 188.609 17.8323 189.753 18.2843C190.897 18.7362 191.848 19.5694 192.444 20.6417C193.041 21.7139 193.245 22.959 193.022 24.1645C192.8 25.37 192.164 26.4613 191.224 27.2523C190.284 28.0433 189.097 28.4851 187.866 28.5023H187.781C186.404 28.5031 185.08 27.9682 184.092 27.0116ZM187.712 18.1173C186.357 18.1412 185.066 18.6991 184.123 19.6689C183.18 20.6386 182.661 21.9411 182.68 23.291C182.696 24.295 183.01 25.2719 183.582 26.099C184.154 26.9261 184.958 27.5665 185.894 27.9398C186.83 28.3131 187.856 28.4026 188.843 28.1972C189.831 27.9917 190.735 27.5005 191.442 26.785C192.15 26.0696 192.629 25.1619 192.821 24.176C193.012 23.1901 192.906 22.1699 192.517 21.2435C192.128 20.3171 191.473 19.5258 190.634 18.9691C189.794 18.4123 188.809 18.1149 187.8 18.1142L187.712 18.1173Z" fill="#FF881D"/>
<path d="M188.07 23.5477C187.914 23.1846 187.732 22.8329 187.526 22.4954C186.869 21.6592 184.315 19.6768 184.318 19.6925C184.322 19.7081 186.256 22.1979 187.014 22.89C187.349 23.1357 187.702 23.3556 188.07 23.5477Z" fill="#375A64"/>
<path d="M187.794 23.2971C188.032 23.0555 188.286 22.8305 188.555 22.6238C189.225 22.2167 191.486 21.5151 191.486 21.5151L191.408 21.5527L191.486 21.5151C191.486 21.5151 189.533 22.8493 188.8 23.1217C188.469 23.2039 188.133 23.2635 187.794 23.3003" fill="#375A64"/>
<path d="M187.533 22.6803C187.427 22.7314 187.339 22.8126 187.28 22.9136C187.22 23.0145 187.192 23.1307 187.199 23.2474C187.206 23.3642 187.248 23.4763 187.319 23.5696C187.389 23.6629 187.486 23.7331 187.597 23.7716C187.708 23.81 187.828 23.8148 187.942 23.7855C188.056 23.7561 188.158 23.6939 188.236 23.6066C188.314 23.5193 188.365 23.4109 188.381 23.2951C188.398 23.1793 188.379 23.0613 188.328 22.9559C188.294 22.8856 188.247 22.8228 188.188 22.7709C188.13 22.719 188.062 22.6791 187.988 22.6535C187.914 22.6279 187.836 22.617 187.758 22.6216C187.679 22.6262 187.603 22.6462 187.533 22.6803Z" fill="#375A64"/>
<path d="M98.6836 108.594L99.4007 113.546C99.4389 113.812 99.5581 114.059 99.7421 114.256C99.9261 114.452 100.166 114.588 100.43 114.645C100.694 114.701 100.968 114.676 101.217 114.573C101.466 114.469 101.677 114.292 101.822 114.065L104.728 109.584L98.6836 108.594Z" fill="#2E2E2E"/>
<path d="M148.224 80.2456C143.192 85.5696 135.301 87.7806 132.461 83.6373C128.945 78.5168 131.065 75.4759 136.109 70.1518C141.154 64.8278 146.598 63.3621 150.262 66.804C153.926 70.2458 153.265 74.9278 148.224 80.2456Z" fill="#C6EDFF"/>
<path d="M87.2739 50.4749C85.861 49.0658 84.1383 48.0033 82.242 47.3713C76.2067 45.4922 72.4139 52.6671 72.8793 57.7343C73.4045 63.5031 79.3863 69.2405 85.0819 70.0955C90.4441 70.9035 92.2493 65.3038 92.1487 60.9851C92.0543 57.2771 90.1485 53.2622 87.2739 50.4749Z" fill="#C6EDFF"/>
<path d="M120.333 104.05C115.93 107.912 108.332 111.939 100.835 109.825C94.3338 107.999 89.761 103.327 86.7796 97.6426C85.6499 95.4703 84.7367 93.1931 84.0529 90.8435C83.4047 88.64 82.9284 86.3899 82.6282 84.1133C82.5496 83.5245 82.4835 82.9295 82.4332 82.3344C82.3829 81.8052 82.3451 81.2759 82.3168 80.7404C82.2173 78.8735 82.2341 77.0024 82.3672 75.1376C82.3672 75.0906 82.3672 75.0468 82.3672 74.9998C82.5877 72.0956 83.1008 69.2208 83.8988 66.4187C84.3618 64.7992 84.9269 63.2103 85.5908 61.6616C88.3489 55.2101 92.8243 49.5666 99.0608 45.774C105.216 42.0159 112.691 41.1515 119.739 42.7801C133.671 45.9964 139.449 60.0205 138.181 72.0998C138.059 73.2362 137.865 74.3638 137.599 75.4758C137.194 77.1727 136.669 78.8388 136.027 80.4616C135.069 82.8754 133.942 85.2195 132.656 87.4768C131.611 89.3308 130.504 91.094 129.407 92.7288C127.712 95.2656 126.039 97.4829 124.689 99.2116C123.881 100.233 123.183 101.091 122.651 101.717C121.943 102.555 121.167 103.335 120.333 104.05Z" fill="url(#paint1_linear_63_5566)"/>
<path d="M131.185 65.6706C132.315 65.0145 132.829 63.7958 132.333 62.9487C131.836 62.1015 130.518 61.9466 129.388 62.6028C128.259 63.2589 127.745 64.4775 128.241 65.3247C128.737 66.1719 130.055 66.3267 131.185 65.6706Z" fill="#EB8757"/>
<path d="M101.855 56.5826C102.431 55.9753 102.135 54.7657 101.195 53.8808C100.254 52.9959 99.0245 52.7709 98.4484 53.3782C97.8723 53.9855 98.1678 55.1951 99.1085 56.08C100.049 56.9649 101.279 57.1899 101.855 56.5826Z" fill="#EB8757"/>
<path d="M89.9155 96.5308C87.6699 95.9357 84.8835 100.226 84.374 101.914C83.8802 103.515 84.5658 104.808 86.4088 103.85C87.9361 103.045 89.3137 101.986 90.4816 100.718C91.7773 99.1959 91.4785 98.5257 89.9155 96.5308Z" fill="url(#paint2_linear_63_5566)"/>
<path d="M115.135 104.288C114.333 105.738 116.358 111.767 118.308 111.269C121.302 110.505 120.61 104.479 118.991 102.885C117.585 101.501 115.717 102.55 115.135 104.288Z" fill="url(#paint3_linear_63_5566)"/>
<path d="M136.017 80.4521C129.806 80.7652 120.176 80.7339 110.678 78.6795C100.325 76.4402 89.9465 70.4053 83.8955 66.4186C84.3586 64.799 84.9237 63.2101 85.5875 61.6614C91.1164 65.3882 101.605 71.7332 111.716 73.9192C121.604 76.055 131.869 75.8421 137.599 75.4631C137.191 77.1612 136.662 78.8283 136.017 80.4521Z" fill="#2E2E2E"/>
<path d="M129.401 92.7163C122.85 93.305 113.257 93.6558 106.172 91.711C98.6803 89.6534 88.5597 84.3012 82.3043 80.7497C82.2032 78.8829 82.22 77.0117 82.3546 75.147C87.9338 78.3978 99.542 84.8555 107.474 87.0195C115.251 89.1554 126.954 88.1595 132.634 87.4737C131.602 89.3183 130.495 91.0846 129.401 92.7163Z" fill="#2E2E2E"/>
<path d="M120.334 104.05C115.302 104 108.575 103.84 103.615 103.374C98.9323 102.942 92.2933 100.242 86.7738 97.6394C85.645 95.4664 84.7308 93.1893 84.0439 90.8403C89.6011 93.7184 98.665 98.0215 104.074 98.5226C110.402 99.1145 120.01 99.1928 124.671 99.1928C123.866 100.217 123.168 101.072 122.636 101.698C121.932 102.542 121.163 103.328 120.334 104.05Z" fill="#2E2E2E"/>
<path d="M82.5337 62.3222C82.3764 62.1343 82.2192 61.9495 82.0745 61.7679C81.2002 60.7 80.5712 59.7917 79.6057 61.4046C78.8163 62.7168 78.9767 64.3641 79.4296 65.7891C79.9579 67.4865 81.0209 69.3906 83.0149 69.9011C84.7226 70.3396 86.0592 68.2601 85.4554 66.6754C84.8515 65.0907 83.625 63.6438 82.5337 62.3222Z" fill="url(#paint4_linear_63_5566)"/>
<path d="M132.43 90.6554C132.511 90.8872 132.59 91.1127 132.665 91.335C133.112 92.641 133.379 93.7089 134.851 92.5345C136.053 91.5793 136.465 89.9758 136.55 88.4976C136.653 86.725 136.323 84.5704 134.637 83.3991C133.191 82.3938 131.209 83.8751 131.219 85.5694C131.228 87.2637 131.867 89.0488 132.43 90.6554Z" fill="url(#paint5_linear_63_5566)"/>
<g style="mix-blend-mode:overlay" opacity="0.3">
<path d="M130.35 52.5793C129.517 51.0385 127.391 49.3348 126.702 48.7554C124.146 46.6123 121.127 45.0861 117.88 44.2958C115.89 43.8166 103.847 43.043 105.574 47.6154C106.131 49.0936 108.653 49.8296 110.043 49.8829C113.028 49.9956 116.066 50.8224 118.94 51.5615C122.151 52.4008 125.001 53.9855 128.086 54.9501C128.415 55.0685 128.766 55.1123 129.115 55.0782C129.463 55.044 129.799 54.9329 130.099 54.7528C130.876 54.2204 130.809 53.4249 130.35 52.5793Z" fill="white"/>
</g>
<g style="mix-blend-mode:overlay" opacity="0.4">
<path d="M129.624 89.7316C129.686 90.0824 129.564 90.5991 129.205 91.2286C126.076 96.7343 121.764 102.049 116.267 105.472C110.87 108.835 101.8 111.422 96.8591 105.92C96.3882 105.457 96.0757 104.859 95.9659 104.21C95.6828 101.294 101.595 102.544 103.174 102.603C106.426 102.71 109.656 102.035 112.59 100.636C118.179 98.0246 122.783 93.6401 127.608 89.882C128.746 89.0113 129.507 89.0833 129.624 89.7316Z" fill="#2E2E2E"/>
</g>
<path d="M114.019 49.3692C113.553 52.8141 109.83 55.711 106.225 55.2256C102.621 54.7402 99.9511 50.91 100.413 47.4776C100.876 44.0452 104.728 41.7934 108.333 42.2788C111.937 42.7643 114.478 45.9367 114.019 49.3692Z" fill="white"/>
<path d="M107.011 55.5922C106.733 55.5919 106.456 55.5741 106.181 55.539C105.252 55.3899 104.362 55.0568 103.565 54.5592C102.767 54.0616 102.078 53.4096 101.539 52.6421C100.411 51.1516 99.8972 49.2889 100.101 47.4339C100.334 45.7146 101.359 44.1894 103.026 43.1434C104.618 42.1461 106.507 41.7299 108.373 41.9658C112.147 42.4732 114.814 45.8117 114.329 49.4132C114.025 51.2568 113.01 52.9089 111.499 54.0169C110.215 55.015 108.639 55.5681 107.011 55.5922ZM107.348 42.5264C105.938 42.5286 104.557 42.9258 103.363 43.6727C101.869 44.6122 100.932 45.9839 100.724 47.5185C100.541 49.2143 101.014 50.9159 102.048 52.2757C102.538 52.9743 103.164 53.568 103.888 54.0215C104.613 54.475 105.421 54.7791 106.266 54.9157C108.001 55.1024 109.74 54.6005 111.106 53.519C112.49 52.5157 113.423 51.0107 113.704 49.3286C114.144 46.0716 111.716 43.0463 108.288 42.5891C107.976 42.5461 107.662 42.5251 107.348 42.5264Z" fill="#2E2E2E"/>
<path d="M110.586 49.3318C110.821 47.5953 109.502 45.9856 107.642 45.7364C105.781 45.4872 104.082 46.6928 103.848 48.4293C103.613 50.1658 104.931 51.7755 106.792 52.0247C108.653 52.274 110.352 51.0683 110.586 49.3318Z" fill="#2E2E2E"/>
<path d="M108.628 48.7116C109.018 48.7116 109.335 48.3961 109.335 48.0069C109.335 47.6177 109.018 47.3022 108.628 47.3022C108.237 47.3022 107.92 47.6177 107.92 48.0069C107.92 48.3961 108.237 48.7116 108.628 48.7116Z" fill="white"/>
<path d="M108.721 51.5032C108.799 50.9238 108.423 50.3952 107.88 50.3226C107.338 50.25 106.835 50.6608 106.757 51.2402C106.679 51.8196 107.055 52.3482 107.597 52.4208C108.139 52.4934 108.642 52.0826 108.721 51.5032Z" fill="white"/>
<path d="M132.599 54.9282C132.134 58.3732 128.41 61.2669 124.806 60.7846C121.202 60.3024 118.532 56.4659 118.997 53.0335C119.463 49.6011 123.309 47.3493 126.913 47.8347C130.517 48.3202 133.065 51.4927 132.599 54.9282Z" fill="white"/>
<path d="M125.592 61.1478C125.316 61.1473 125.04 61.1295 124.765 61.0946C121.076 60.5997 118.18 56.7383 118.683 52.9895C118.916 51.2702 119.957 49.745 121.608 48.699C123.199 47.7015 125.089 47.2863 126.954 47.5246C130.728 48.0288 133.395 51.3673 132.908 54.9688C132.608 56.8139 131.591 58.4675 130.077 59.5725C128.795 60.5705 127.22 61.1237 125.592 61.1478ZM125.932 48.082C124.522 48.0837 123.141 48.481 121.947 49.2282C120.454 50.1678 119.516 51.5395 119.309 53.0741C118.853 56.4345 121.548 60.0298 124.85 60.4713C126.585 60.6576 128.324 60.1558 129.69 59.0746C131.073 58.0699 132.006 56.5656 132.288 54.8842C132.728 51.6272 130.297 48.6019 126.873 48.1447C126.561 48.1019 126.247 48.0809 125.932 48.082Z" fill="#2E2E2E"/>
<path d="M129.165 54.8914C129.4 53.1549 128.082 51.5452 126.221 51.296C124.36 51.0467 122.661 52.2524 122.427 53.9889C122.192 55.7254 123.51 57.3351 125.371 57.5843C127.232 57.8335 128.931 56.6279 129.165 54.8914Z" fill="#2E2E2E"/>
<path d="M127.212 54.2704C127.602 54.2704 127.919 53.9549 127.919 53.5657C127.919 53.1766 127.602 52.8611 127.212 52.8611C126.821 52.8611 126.504 53.1766 126.504 53.5657C126.504 53.9549 126.821 54.2704 127.212 54.2704Z" fill="white"/>
<path d="M127.301 57.0564C127.379 56.477 127.003 55.9485 126.461 55.8758C125.918 55.8032 125.415 56.214 125.337 56.7934C125.259 57.3728 125.635 57.9014 126.177 57.974C126.719 58.0466 127.222 57.6358 127.301 57.0564Z" fill="white"/>
<path d="M118.717 53.1776C118.183 52.1504 117.478 51.5271 116.62 51.3204C115.047 50.9415 113.415 52.0815 113.399 52.0908L113.031 51.5835C113.107 51.5271 114.899 50.265 116.764 50.7097C117.808 50.9603 118.651 51.6931 119.28 52.902L118.717 53.1776Z" fill="#2E2E2E"/>
<path d="M138.238 60.5215C138.176 60.5213 138.116 60.5029 138.065 60.4686C138.013 60.4344 137.973 60.3858 137.949 60.329C137.925 60.2722 137.919 60.2097 137.931 60.1492C137.942 60.0888 137.972 60.0331 138.015 59.9891C138.329 59.6759 138.861 58.7364 138.685 58.0004C138.622 57.7715 138.499 57.5636 138.328 57.3983C138.157 57.233 137.945 57.1165 137.713 57.0609C135.741 56.3719 132.486 56.1214 132.454 56.1214C132.413 56.1186 132.373 56.1077 132.336 56.0893C132.299 56.071 132.265 56.0455 132.238 56.0144C132.211 55.9832 132.19 55.947 132.177 55.9079C132.164 55.8688 132.159 55.8274 132.162 55.7863C132.168 55.7037 132.207 55.627 132.27 55.573C132.334 55.519 132.416 55.4921 132.498 55.4982C132.637 55.4982 135.87 55.7393 137.92 56.4565C138.864 56.7853 139.178 57.396 139.298 57.8345C139.521 58.799 138.946 59.9171 138.461 60.4025C138.434 60.4367 138.401 60.4649 138.362 60.4854C138.324 60.5059 138.282 60.5182 138.238 60.5215Z" fill="#2E2E2E"/>
<path d="M93.746 49.7451C93.6945 49.7451 93.6437 49.7326 93.5982 49.7086C93.5527 49.6846 93.5138 49.6498 93.4849 49.6073C93.117 49.0686 92.5414 48.0194 92.7553 47.0392C92.8153 46.7805 92.9306 46.5377 93.0934 46.3274C93.2563 46.1172 93.4628 45.9444 93.6988 45.8209C95.1392 44.9722 97.3218 45.8804 99.0736 46.607C99.58 46.8168 100.058 47.0173 100.445 47.1394C100.487 47.1498 100.526 47.1686 100.56 47.1946C100.594 47.2207 100.623 47.2535 100.644 47.2909C100.665 47.3284 100.678 47.3698 100.682 47.4125C100.686 47.4551 100.682 47.4982 100.668 47.5391C100.655 47.5799 100.634 47.6176 100.605 47.6499C100.577 47.6821 100.542 47.7082 100.503 47.7265C100.464 47.7448 100.422 47.755 100.379 47.7564C100.336 47.7577 100.293 47.7503 100.253 47.7345C99.8441 47.6061 99.3504 47.4025 98.8314 47.1864C97.2086 46.5099 95.1864 45.6706 94.0196 46.3596C93.8626 46.4437 93.7253 46.56 93.6168 46.701C93.5084 46.8419 93.4313 47.0041 93.3906 47.177C93.2679 47.7219 93.5007 48.4798 94.0196 49.2534C94.0428 49.2875 94.059 49.3258 94.0672 49.3662C94.0755 49.4066 94.0757 49.4481 94.0678 49.4886C94.0599 49.529 94.0441 49.5675 94.0213 49.6018C93.9984 49.6362 93.969 49.6657 93.9347 49.6887C93.8795 49.7271 93.8133 49.7469 93.746 49.7451Z" fill="#2E2E2E"/>
<path d="M112.43 31.8846C111.443 31.7468 111.015 33.2563 112.012 33.3941C116.497 34.0205 116.462 39.3163 116.249 42.7581C116.186 43.7634 117.758 43.7603 117.821 42.7581C118.079 38.6399 117.673 32.6112 112.43 31.8846Z" fill="#2E2E2E"/>
<path d="M125.299 32.5453C124.428 32.0254 123.636 33.3784 124.504 33.8982C128.787 36.4444 126.796 42.0597 125.343 45.6549C124.963 46.5945 126.485 46.9953 126.859 46.0715C128.63 41.7152 130.278 35.508 125.299 32.5453Z" fill="#2E2E2E"/>
<path d="M119.67 63.2618C118.64 63.9155 117.482 64.3426 116.273 64.5145C115.665 64.5943 115.051 64.6132 114.44 64.5709C113.828 64.5187 113.222 64.4139 112.628 64.2577C111.454 63.931 110.34 63.4159 109.332 62.7325C108.331 62.0609 107.437 61.2427 106.681 60.3054C106.675 60.2993 106.67 60.2919 106.666 60.2839C106.663 60.2758 106.661 60.2672 106.661 60.2584C106.661 60.2497 106.663 60.241 106.666 60.2329C106.67 60.2249 106.675 60.2175 106.681 60.2114C106.694 60.201 106.71 60.1953 106.727 60.1953C106.743 60.1953 106.759 60.201 106.772 60.2114C107.616 61.0282 108.556 61.7401 109.571 62.3316C110.071 62.6292 110.591 62.8908 111.128 63.1146C111.659 63.3431 112.208 63.5274 112.77 63.6658C113.328 63.8058 113.897 63.898 114.471 63.9414C115.045 63.979 115.621 63.9727 116.195 63.9226C117.356 63.799 118.5 63.5394 119.601 63.149C119.616 63.1416 119.633 63.1403 119.649 63.1456C119.665 63.1509 119.678 63.1623 119.685 63.1772C119.693 63.1922 119.694 63.2095 119.689 63.2253C119.684 63.2412 119.672 63.2543 119.657 63.2618H119.67Z" fill="#2E2E2E"/>
<path d="M49.6058 186.422H23.4961V191.236H49.6058V186.422Z" fill="#DDCDC7"/>
<path d="M48.9579 191.236H45.2939V108.529H53.9144L48.9579 191.236Z" fill="#EDDFDA"/>
<path d="M50.2506 191.236H48.958L53.9145 108.172H55.204L50.2506 191.236Z" fill="#DDCDC7"/>
<path d="M23.4835 191.236H19.8227L14.8662 108.172H23.4835V191.236Z" fill="#EDDFDA"/>
<path d="M24.7789 108.172H23.4863V191.236H24.7789V108.172Z" fill="#DDCDC7"/>
<path d="M139.512 191.236H135.845L130.892 108.172H139.512V191.236Z" fill="#EDDFDA"/>
<path d="M140.804 108.172H139.512V191.236H140.804V108.172Z" fill="#DDCDC7"/>
<path d="M164.983 191.236H161.319V108.529H169.94L164.983 191.236Z" fill="#EDDFDA"/>
<path d="M166.276 191.236H164.983L169.94 108.172H171.229L166.276 191.236Z" fill="#DDCDC7"/>
<path d="M165.631 186.422H139.521V191.236H165.631V186.422Z" fill="#DDCDC7"/>
<path d="M175.49 109.327H43.5957V103.371H181.271L175.49 109.327Z" fill="#EDDFDA"/>
<path d="M143.814 109.327H10.2681L6.96582 103.371H147.943L143.814 109.327Z" fill="#F5F0EE"/>
<path d="M48.8008 103.133H37.375V91.8394H49.9613L48.8008 103.133Z" fill="#1A2E35"/>
<path d="M81.5712 92.5785H9.46281C8.96235 92.5785 8.48238 92.3805 8.1285 92.0281C7.77462 91.6758 7.57582 91.1978 7.57582 90.6994L2.93066 44.3178C2.93066 43.8194 3.12947 43.3415 3.48335 42.9891C3.83723 42.6367 4.3172 42.4387 4.81766 42.4387H78.6715C79.1719 42.4387 79.6519 42.6367 80.0058 42.9891C80.3597 43.3415 80.5585 43.8194 80.5585 44.3178L83.4582 90.6963C83.4586 90.9433 83.4101 91.188 83.3154 91.4164C83.2208 91.6447 83.0818 91.8522 82.9066 92.027C82.7313 92.2019 82.5232 92.3405 82.294 92.4352C82.0649 92.5298 81.8192 92.5785 81.5712 92.5785Z" fill="#1A2E35"/>
<path d="M78.6405 92.5785H6.53215C6.03169 92.5785 5.55172 92.3805 5.19784 92.0281C4.84396 91.6758 4.64515 91.1978 4.64515 90.6994L0 44.3178C0 43.8194 0.198808 43.3415 0.552688 42.9891C0.906568 42.6367 1.38653 42.4387 1.887 42.4387H75.7408C76.2413 42.4387 76.7213 42.6367 77.0751 42.9891C77.429 43.3415 77.6278 43.8194 77.6278 44.3178L80.5275 90.6963C80.5279 90.9433 80.4794 91.188 80.3848 91.4164C80.2901 91.6447 80.1512 91.8522 79.9759 92.027C79.8007 92.2019 79.5925 92.3405 79.3634 92.4352C79.1342 92.5298 78.8886 92.5785 78.6405 92.5785Z" fill="#375A64"/>
<path d="M64.6544 90.1638H62.39C62.0878 90.1638 61.8428 90.4078 61.8428 90.7087C61.8428 91.0097 62.0878 91.2537 62.39 91.2537H64.6544C64.9566 91.2537 65.2016 91.0097 65.2016 90.7087C65.2016 90.4078 64.9566 90.1638 64.6544 90.1638Z" fill="#49727C"/>
<path d="M69.2774 90.1638H67.013C66.7108 90.1638 66.4658 90.4078 66.4658 90.7087C66.4658 91.0097 66.7108 91.2537 67.013 91.2537H69.2774C69.5797 91.2537 69.8247 91.0097 69.8247 90.7087C69.8247 90.4078 69.5797 90.1638 69.2774 90.1638Z" fill="#49727C"/>
<path d="M76.8478 90.1638H74.5834C74.2811 90.1638 74.0361 90.4078 74.0361 90.7087C74.0361 91.0097 74.2811 91.2537 74.5834 91.2537H76.8478C77.15 91.2537 77.395 91.0097 77.395 90.7087C77.395 90.4078 77.15 90.1638 76.8478 90.1638Z" fill="#49727C"/>
<path d="M52.4553 100.289H33.9376C33.149 100.289 32.5098 100.925 32.5098 101.711C32.5098 102.496 33.149 103.132 33.9376 103.132H52.4553C53.2439 103.132 53.8831 102.496 53.8831 101.711C53.8831 100.925 53.2439 100.289 52.4553 100.289Z" fill="#1A2E35"/>
<path d="M47.8102 103.045H36.3845L34.0635 74.4736H50.1312L47.8102 103.045Z" fill="#1A2E35"/>
<path d="M50.4426 100.289H31.9249C31.1363 100.289 30.4971 100.925 30.4971 101.711C30.4971 102.496 31.1363 103.132 31.9249 103.132H50.4426C51.2312 103.132 51.8704 102.496 51.8704 101.711C51.8704 100.925 51.2312 100.289 50.4426 100.289Z" fill="#375A64"/>
<path d="M47.0368 103.133H35.611L33.29 74.48H49.3578L47.0368 103.133Z" fill="#375A64"/>
<path d="M180.888 95.5608L146.239 95.5066L146.227 103.449L180.875 103.503L180.888 95.5608Z" fill="#0059DF"/>
<path d="M176.858 102.065C178.267 102.065 179.409 100.927 179.409 99.5247C179.409 98.122 178.267 96.9849 176.858 96.9849C175.45 96.9849 174.308 98.122 174.308 99.5247C174.308 100.927 175.45 102.065 176.858 102.065Z" fill="#F5F0EE"/>
<path d="M177.428 101.38C178.451 101.067 179.024 99.9872 178.71 98.9689C178.395 97.9506 177.311 97.3792 176.288 97.6927C175.265 98.0061 174.692 99.0858 175.006 100.104C175.321 101.122 176.405 101.694 177.428 101.38Z" fill="#1C2B54"/>
<path d="M167.381 96.8833L148.026 96.853L148.018 102.111L167.372 102.142L167.381 96.8833Z" fill="#F5F0EE"/>
<path d="M155.513 71.4045L145.449 71.439C145.449 71.439 145.506 74.2388 145.644 76.3809C145.729 77.7307 145.537 81.586 145.537 81.586C145.537 81.586 146.927 81.6329 147.67 82.1966C147.67 82.1966 146.32 81.8396 145.754 81.943L145.779 83.6623L155.545 83.7657L155.513 71.4045Z" fill="#F5F0EE"/>
<path d="M141.975 83.7469L142.333 86.9225C142.333 86.9225 143.591 87.0227 144.204 87.433C144.204 87.433 143.028 87.2795 142.55 87.5395L142.827 93.5368C142.827 93.5368 144.352 93.9941 144.786 94.3542C144.786 94.3542 143.528 93.9471 142.959 94.1538V95.6414L152.57 95.4096L152.532 83.4619L141.975 83.7469Z" fill="#F5F0EE"/>
<path d="M181.784 71.3354L155.514 71.4012L155.545 83.7624L181.035 83.6966L181.026 80.4145L181.809 80.4114L181.796 75.7951L181.274 75.7982L181.784 71.3354Z" fill="#EDDFDA"/>
<path d="M169.097 76.7004L181.274 75.7891C181.274 75.7891 180.016 76.3497 180.104 77.023C180.104 77.0418 179.491 76.1022 169.097 76.7004Z" fill="#DDCDC7"/>
<path d="M176.72 80.7999C173.037 80.3583 169.303 80.6112 165.713 81.5452C165.713 81.5452 172.459 80.6934 176.72 80.7999Z" fill="#DDCDC7"/>
<path d="M155.523 78.6076C154.536 78.2143 153.526 77.8837 152.497 77.6179C152.497 77.6179 154.997 78.9865 155.519 79.3467L155.523 78.6076Z" fill="#EDDFDA"/>
<path d="M146.531 79.3749C146.531 79.3749 151.403 79.3091 154.06 80.8938C154.06 80.8938 148.758 79.5221 146.531 79.3749Z" fill="#EDDFDA"/>
<path d="M180.208 83.6467V87.3391H178.478V88.7233C178.478 88.7233 168.081 88.6481 165.952 88.9613L181.872 89.3309V93.8438H178.217V95.3313L152.557 95.3971L152.532 83.4619L180.208 83.6467Z" fill="#EDDFDA"/>
<path d="M142.937 85.8953C142.937 85.8953 149.113 85.7794 151.991 87.7744C151.991 87.7712 146.286 86.0425 142.937 85.8953Z" fill="#EDDFDA"/>
<path d="M152.573 90.6806C152.573 90.6806 150.686 89.6972 149.607 89.5469C149.607 89.5469 152.123 90.9249 152.57 91.4855L152.573 90.6806Z" fill="#EDDFDA"/>
<path d="M143.996 91.5857C146.423 91.6113 148.826 92.0739 151.088 92.9512C151.088 92.9512 144.984 91.5826 143.996 91.5857Z" fill="#EDDFDA"/>
<path d="M173.796 92.7382C173.796 92.7382 166.965 91.8864 162.662 93.4867C158.36 95.0871 162.835 93.6402 162.835 93.6402C162.835 93.6402 167.078 92.6662 173.796 92.7382Z" fill="#DDCDC7"/>
<path d="M176.84 88.6606L178.176 89.2932L162.977 88.8705L176.84 88.6606Z" fill="#DDCDC7"/>
<path d="M178.95 83.4431L178.695 85.9485C178.695 85.9485 158.822 83.8471 155.517 83.4713L178.95 83.4431Z" fill="#DDCDC7"/>
<path d="M89.9692 29.4606C89.9692 29.4606 97.4103 18.2018 92.1707 10.1281C86.9312 2.05438 60.3843 -5.10487 51.3708 4.87924C45.6783 11.1804 51.6318 30.8542 56.9752 33.9014C62.3185 36.9487 84.3775 32.6487 84.3775 32.6487L93.9445 39.6201L89.9692 29.4606Z" fill="#F5F0EE"/>
<path d="M66.0701 13.2912C66.0701 13.2912 72.3884 13.3945 73.4419 8.99126C73.7313 7.77613 74.1527 4.76962 75.6938 4.34056C77.716 3.77998 77.6877 6.89297 77.5808 8.0987C77.4298 9.84623 76.1498 11.2023 78.5997 11.2962C79.8577 11.3432 82.7794 11.2148 82.9178 12.9749C83.0216 14.3372 81.6598 15.1671 80.7163 15.07C80.2917 15.0231 82.0938 15.5429 82.2888 15.6964C83.9902 17.0149 82.4869 19.3073 80.6031 19.5767C81.2006 19.4921 82.2165 20.3314 82.2542 20.8638C82.3926 22.8275 80.5339 22.9308 79.5527 23.1406C80.1565 23.0122 81.166 24.3934 81.2069 24.8662C81.3799 26.8737 78.2129 26.8017 76.9172 26.9176C74.5993 27.1274 67.5451 26.6044 65.8594 25.8684L66.0701 13.2912Z" fill="#FC81B3"/>
<path d="M66.9127 12.2419H59.3301V26.7139H66.9127V12.2419Z" fill="#375A64"/>
<path d="M118.393 61.4547C118.716 61.4353 119.035 61.5283 119.296 61.7177C119.564 61.9058 119.78 62.1578 119.925 62.4506C120.072 62.7417 120.146 63.0642 120.139 63.3901C120.135 63.6971 120.065 63.9996 119.931 64.2764C119.923 64.2932 119.909 64.3062 119.891 64.3126C119.873 64.319 119.854 64.3184 119.837 64.3109C119.827 64.3055 119.818 64.298 119.81 64.2888C119.803 64.2796 119.798 64.2689 119.796 64.2576C119.774 64.1135 119.768 63.9758 119.752 63.8411C119.735 63.709 119.708 63.5782 119.673 63.4496C119.619 63.2056 119.523 62.9725 119.39 62.7606C119.259 62.5535 119.104 62.3622 118.928 62.1906C118.752 62.0059 118.563 61.8211 118.362 61.5925C118.349 61.5796 118.342 61.5621 118.342 61.5439C118.342 61.5257 118.349 61.5083 118.362 61.4954C118.364 61.4868 118.368 61.4788 118.373 61.4718C118.379 61.4649 118.386 61.459 118.393 61.4547Z" fill="#2E2E2E"/>
<defs>
<linearGradient id="paint0_linear_63_5566" x1="195.076" y1="14.6178" x2="183.768" y2="26.5591" gradientUnits="userSpaceOnUse">
<stop stop-color="#FCC23F"/>
<stop offset="0.24" stop-color="#FCBD3C"/>
<stop offset="0.54" stop-color="#FDAD33"/>
<stop offset="0.88" stop-color="#FE9324"/>
<stop offset="1" stop-color="#FF881D"/>
</linearGradient>
<linearGradient id="paint1_linear_63_5566" x1="133.395" y1="27.2463" x2="100.915" y2="91.004" gradientUnits="userSpaceOnUse">
<stop offset="0.15" stop-color="#FFE370"/>
<stop offset="0.42" stop-color="#FFE071"/>
<stop offset="0.69" stop-color="#FFD465"/>
<stop offset="0.97" stop-color="#FFCB76"/>
<stop offset="1" stop-color="#FFBE59"/>
</linearGradient>
<linearGradient id="paint2_linear_63_5566" x1="3749.13" y1="1942.03" x2="5255.88" y2="3428.33" gradientUnits="userSpaceOnUse">
<stop offset="0.15" stop-color="#FCD844"/>
<stop offset="0.42" stop-color="#FCD443"/>
<stop offset="0.69" stop-color="#FCC740"/>
<stop offset="0.97" stop-color="#FBB33C"/>
<stop offset="1" stop-color="#FBB03B"/>
</linearGradient>
<linearGradient id="paint3_linear_63_5566" x1="3302.46" y1="1683.44" x2="4914.08" y2="2720.53" gradientUnits="userSpaceOnUse">
<stop offset="0.15" stop-color="#FCD844"/>
<stop offset="0.42" stop-color="#FCD443"/>
<stop offset="0.69" stop-color="#FCC740"/>
<stop offset="0.97" stop-color="#FBB33C"/>
<stop offset="1" stop-color="#FBB03B"/>
</linearGradient>
<linearGradient id="paint4_linear_63_5566" x1="9981.89" y1="6645.92" x2="9327.29" y2="8752.31" gradientUnits="userSpaceOnUse">
<stop offset="0.15" stop-color="#FCD844"/>
<stop offset="0.42" stop-color="#FCD443"/>
<stop offset="0.69" stop-color="#FCC740"/>
<stop offset="0.97" stop-color="#FBB33C"/>
<stop offset="1" stop-color="#FBB03B"/>
</linearGradient>
<linearGradient id="paint5_linear_63_5566" x1="10387.4" y1="8512.54" x2="9470.51" y2="10228.7" gradientUnits="userSpaceOnUse">
<stop offset="0.15" stop-color="#FCD844"/>
<stop offset="0.42" stop-color="#FCD443"/>
<stop offset="0.69" stop-color="#FCC740"/>
<stop offset="0.97" stop-color="#FBB33C"/>
<stop offset="1" stop-color="#FBB03B"/>
</linearGradient>
</defs>
</svg>
