<svg width="279" height="200" viewBox="0 0 279 200" fill="none" xmlns="http://www.w3.org/2000/svg">
<path d="M219.257 25.3145H277.139L267.73 32.0974V45.4459C267.73 46.1847 267.436 46.8932 266.912 47.4157C266.389 47.9381 265.678 48.2316 264.938 48.2316H219.257C218.516 48.2316 217.806 47.9381 217.282 47.4157C216.758 46.8932 216.464 46.1847 216.464 45.4459V28.1002C216.464 27.3614 216.758 26.6528 217.282 26.1304C217.806 25.6079 218.516 25.3145 219.257 25.3145Z" fill="#F5F5F5"/>
<path d="M221.669 34.7467C221.669 34.8021 230.398 34.849 241.159 34.849C251.919 34.849 260.652 34.8021 260.652 34.7467C260.652 34.6912 251.928 34.6443 241.159 34.6443C230.389 34.6443 221.669 34.6912 221.669 34.7467Z" fill="#E1E1E1"/>
<path d="M221.669 39.8703C221.669 39.9258 230.398 39.9727 241.159 39.9727C251.919 39.9727 260.652 39.9258 260.652 39.8703C260.652 39.8149 251.928 39.7722 241.159 39.7722C230.389 39.7722 221.669 39.8149 221.669 39.8703Z" fill="#E1E1E1"/>
<path d="M142.89 50.6975H140.183V59.7458H142.89V50.6975Z" fill="#E1E1E1"/>
<path d="M120.274 49.3835H117.566V59.7415H120.274V49.3835Z" fill="#E1E1E1"/>
<path d="M125.927 47.2249H123.22V59.7414H125.927V47.2249Z" fill="#E1E1E1"/>
<path d="M131.581 47.9116H128.874V59.7413H131.581V47.9116Z" fill="#E1E1E1"/>
<path d="M137.236 43.9102H134.528V59.7414H137.236V43.9102Z" fill="#E1E1E1"/>
<path d="M148.543 43.9871H145.836V59.7415H148.543V43.9871Z" fill="#E1E1E1"/>
<path d="M154.197 49.1616H151.49V59.7414H154.197V49.1616Z" fill="#E1E1E1"/>
<path d="M159.852 44.6824H157.145V59.7457H159.852V44.6824Z" fill="#E1E1E1"/>
<path d="M165.505 41.2866H162.798V59.7415H165.505V41.2866Z" fill="#E1E1E1"/>
<path d="M171.159 44.6055H168.452V59.7456H171.159V44.6055Z" fill="#E1E1E1"/>
<path d="M239.564 89.6078L261.957 86.1949C262.674 90.8661 261.906 95.644 259.76 99.8572C257.615 104.07 254.199 107.507 249.995 109.684C245.79 111.862 241.007 112.67 236.317 111.996C231.628 111.322 227.269 109.199 223.851 105.926C220.434 102.653 218.131 98.394 217.265 93.7479C216.4 89.1018 217.015 84.3019 219.026 80.0229C221.036 75.7438 224.34 72.2005 228.473 69.8911C232.607 67.5816 237.362 66.622 242.07 67.1471L239.564 89.6078Z" fill="#ECECEC"/>
<path d="M246.829 67.2197L244.109 84.5355L261.148 81.3445C261.148 81.3445 258.642 71.6393 246.829 67.2197Z" fill="#E1E1E1"/>
<path d="M13.8574 100.908C13.8281 98.7156 14.4511 96.5632 15.6478 94.7235C16.8444 92.8837 18.561 91.439 20.5806 90.5721C22.6002 89.7052 24.8321 89.4549 26.9942 89.8529C29.1564 90.2509 31.1517 91.2793 32.728 92.8081C34.3044 94.337 35.391 96.2976 35.8505 98.4423C36.31 100.587 36.1218 102.819 35.3097 104.857C34.4976 106.895 33.098 108.647 31.2878 109.892C29.4776 111.137 27.3382 111.819 25.1398 111.851C22.1903 111.887 19.3466 110.756 17.2318 108.705C15.117 106.654 13.9036 103.85 13.8574 100.908ZM30.2677 100.644C30.2456 99.5983 29.9135 98.5826 29.3132 97.725C28.713 96.8674 27.8715 96.2064 26.895 95.8253C25.9185 95.4443 24.8508 95.3602 23.8264 95.5839C22.8021 95.8075 21.8672 96.3288 21.1396 97.0819C20.4119 97.835 19.9243 98.7862 19.7381 99.8155C19.5519 100.845 19.6755 101.906 20.0934 102.865C20.5113 103.825 21.2046 104.639 22.086 105.206C22.9674 105.772 23.9972 106.066 25.0457 106.049C26.4564 106.022 27.7988 105.438 28.7779 104.424C29.7571 103.411 30.2929 102.051 30.2677 100.644Z" fill="#F5F5F5"/>
<path d="M13.8574 100.908C13.8024 97.9627 14.9219 95.1157 16.9701 92.9928C19.0182 90.8699 21.8273 89.6447 24.7805 89.5864L24.8746 95.3925C23.4601 95.4151 22.1126 95.9973 21.1284 97.0109C20.1443 98.0246 19.6042 99.3867 19.6269 100.798C19.6496 102.208 20.2332 103.553 21.2494 104.534C22.2656 105.516 23.6312 106.055 25.0456 106.032L25.1397 111.834C22.1912 111.877 19.3462 110.75 17.2304 108.702C15.1146 106.653 13.9013 103.85 13.8574 100.908Z" fill="#E1E1E1"/>
<path d="M23.7832 88.7334C25.4692 88.6914 27.1466 88.9853 28.7173 89.5979C30.288 90.2104 31.7205 91.1293 32.9308 92.3008C34.1411 93.4723 35.105 94.8729 35.766 96.4205C36.4271 97.9681 36.772 99.6317 36.7805 101.314L30.006 101.425C29.9504 98.012 27.333 95.8321 23.9072 95.879L23.7832 88.7334Z" fill="#ECECEC"/>
<path d="M85.9905 139.968H71.877V156.704H85.9905V139.968Z" fill="#F5F5F5"/>
<path d="M72.3646 138.88H8.58398V157.758H72.3646V138.88Z" fill="#E1E1E1"/>
<path d="M86.4178 140.467H70.6533V138.88H86.4178C86.6288 138.88 86.8311 138.964 86.9803 139.113C87.1295 139.262 87.2133 139.463 87.2133 139.674C87.2133 139.884 87.1295 140.086 86.9803 140.235C86.8311 140.384 86.6288 140.467 86.4178 140.467Z" fill="#E1E1E1"/>
<path d="M86.4178 157.758H70.6533V156.171H86.4178C86.6288 156.171 86.8311 156.254 86.9803 156.403C87.1295 156.552 87.2133 156.754 87.2133 156.964C87.2133 157.175 87.1295 157.376 86.9803 157.525C86.8311 157.674 86.6288 157.758 86.4178 157.758Z" fill="#E1E1E1"/>
<path d="M67.3522 138.88H59.8164V157.758H67.3522V138.88Z" fill="#ECECEC"/>
<path d="M22.1881 139.09H14.6523V157.967H22.1881V139.09Z" fill="#ECECEC"/>
<path d="M85.9907 142.737C85.9907 142.784 82.937 142.822 79.1691 142.822C75.4012 142.822 72.3262 142.784 72.3262 142.737C72.3262 142.69 75.3798 142.656 79.1691 142.656C82.9584 142.656 85.9907 142.69 85.9907 142.737Z" fill="#E1E1E1"/>
<path d="M85.9907 145.245C85.9907 145.292 82.937 145.331 79.1691 145.331C75.4012 145.331 72.3262 145.292 72.3262 145.245C72.3262 145.198 75.3798 145.164 79.1691 145.164C82.9584 145.164 85.9907 145.203 85.9907 145.245Z" fill="#E1E1E1"/>
<path d="M85.9907 148.338C85.9907 148.385 82.937 148.419 79.1691 148.419C75.4012 148.419 72.3262 148.385 72.3262 148.338C72.3262 148.291 75.3798 148.253 79.1691 148.253C82.9584 148.253 85.9907 148.291 85.9907 148.338Z" fill="#E1E1E1"/>
<path d="M85.9907 151.444C85.9907 151.491 82.937 151.529 79.1691 151.529C75.4012 151.529 72.3262 151.491 72.3262 151.444C72.3262 151.397 75.3798 151.363 79.1691 151.363C82.9584 151.363 85.9907 151.38 85.9907 151.444Z" fill="#E1E1E1"/>
<path d="M85.9907 154.516C85.9907 154.563 82.937 154.601 79.1691 154.601C75.4012 154.601 72.3262 154.563 72.3262 154.516C72.3262 154.469 75.3798 154.435 79.1691 154.435C82.9584 154.435 85.9907 154.473 85.9907 154.516Z" fill="#E1E1E1"/>
<path d="M55.7617 146.636H27.0684V150.036H55.7617V146.636Z" fill="#ECECEC"/>
<path d="M85.845 158.129H71.5176V168.325H85.845V158.129Z" fill="#FAFAFA"/>
<path d="M71.6798 157.758H10.6963V168.696H71.6798V157.758Z" fill="#F5F5F5"/>
<path d="M71.2354 158.496H86.632C86.6807 158.496 86.7289 158.487 86.7741 158.469C86.8192 158.451 86.8602 158.424 86.8949 158.39C86.9295 158.356 86.9569 158.315 86.9757 158.27C86.9944 158.225 87.0041 158.177 87.0041 158.129C87.0041 158.03 86.9649 157.936 86.8951 157.866C86.8253 157.797 86.7307 157.758 86.632 157.758H71.2354V158.496Z" fill="#F5F5F5"/>
<path d="M71.2354 167.954H86.8202C86.8438 167.954 86.8671 167.958 86.8889 167.967C86.9107 167.976 86.9305 167.989 86.9472 168.006C86.9639 168.023 86.9771 168.042 86.9861 168.064C86.9952 168.086 86.9998 168.109 86.9998 168.133V168.517C86.9998 168.564 86.9809 168.61 86.9472 168.643C86.9135 168.677 86.8678 168.696 86.8202 168.696H71.2354V167.954Z" fill="#F5F5F5"/>
<path d="M85.8489 160.066C85.8489 160.112 82.6755 160.147 78.7621 160.147C74.8488 160.147 71.6797 160.112 71.6797 160.066C71.6797 160.019 74.8488 159.98 78.7621 159.98C82.6755 159.98 85.8489 160.019 85.8489 160.066Z" fill="#E1E1E1"/>
<path d="M85.8489 161.994C85.8489 162.041 82.6755 162.079 78.7621 162.079C74.8488 162.079 71.6797 162.041 71.6797 161.994C71.6797 161.947 74.8488 161.908 78.7621 161.908C82.6755 161.908 85.8489 161.947 85.8489 161.994Z" fill="#E1E1E1"/>
<path d="M85.8489 163.922C85.8489 163.969 82.6755 164.007 78.7621 164.007C74.8488 164.007 71.6797 163.969 71.6797 163.922C71.6797 163.875 74.8488 163.841 78.7621 163.841C82.6755 163.841 85.8489 163.875 85.8489 163.922Z" fill="#E1E1E1"/>
<path d="M85.8489 165.85C85.8489 165.897 82.6755 165.936 78.7621 165.936C74.8488 165.936 71.6797 165.897 71.6797 165.85C71.6797 165.803 74.8488 165.769 78.7621 165.769C82.6755 165.769 85.8489 165.808 85.8489 165.85Z" fill="#E1E1E1"/>
<path d="M88.0213 169.668H73.3945V197.312H88.0213V169.668Z" fill="#ECECEC"/>
<path d="M73.3994 168.696H4.74316V198.669H73.3994V168.696Z" fill="#E1E1E1"/>
<path d="M89.1681 198.669H71.5176V196.724H89.1681C89.426 196.725 89.6729 196.828 89.8549 197.01C90.0368 197.192 90.139 197.439 90.139 197.696C90.139 197.953 90.0368 198.2 89.8549 198.383C89.6729 198.565 89.426 198.668 89.1681 198.669Z" fill="#E1E1E1"/>
<path d="M71.5176 168.696H89.6685C89.7933 168.696 89.9129 168.745 90.0012 168.833C90.0894 168.921 90.139 169.04 90.139 169.165V170.167C90.139 170.292 90.0894 170.411 90.0012 170.499C89.9129 170.587 89.7933 170.637 89.6685 170.637H71.5176V168.691V168.696Z" fill="#E1E1E1"/>
<path d="M88.0213 173.371C88.0213 173.418 84.7453 173.457 80.7079 173.457C76.6706 173.457 73.3945 173.418 73.3945 173.371C73.3945 173.324 76.6706 173.29 80.7079 173.29C84.7453 173.29 88.0213 173.324 88.0213 173.371Z" fill="#E1E1E1"/>
<path d="M88.0213 176.916C88.0213 176.963 84.7453 177.002 80.7079 177.002C76.6706 177.002 73.3945 176.963 73.3945 176.916C73.3945 176.87 76.6706 176.835 80.7079 176.835C84.7453 176.835 88.0213 176.874 88.0213 176.916Z" fill="#E1E1E1"/>
<path d="M88.0213 180.453C88.0213 180.5 84.7453 180.538 80.7079 180.538C76.6706 180.538 73.3945 180.5 73.3945 180.453C73.3945 180.406 76.6706 180.372 80.7079 180.372C84.7453 180.372 88.0213 180.419 88.0213 180.453Z" fill="#E1E1E1"/>
<path d="M88.0213 184.006C88.0213 184.053 84.7453 184.092 80.7079 184.092C76.6706 184.092 73.3945 184.053 73.3945 184.006C73.3945 183.959 76.6706 183.925 80.7079 183.925C84.7453 183.925 88.0213 183.964 88.0213 184.006Z" fill="#E1E1E1"/>
<path d="M88.0213 187.556C88.0213 187.599 84.7453 187.637 80.7079 187.637C76.6706 187.637 73.3945 187.599 73.3945 187.556C73.3945 187.513 76.6706 187.471 80.7079 187.471C84.7453 187.471 88.0213 187.509 88.0213 187.556Z" fill="#E1E1E1"/>
<path d="M88.0213 191.118C88.0213 191.161 84.7453 191.199 80.7079 191.199C76.6706 191.199 73.3945 191.161 73.3945 191.118C73.3945 191.075 76.6706 191.033 80.7079 191.033C84.7453 191.033 88.0213 191.054 88.0213 191.118Z" fill="#E1E1E1"/>
<path d="M88.0213 194.646C88.0213 194.693 84.7453 194.727 80.7079 194.727C76.6706 194.727 73.3945 194.693 73.3945 194.646C73.3945 194.599 76.6706 194.561 80.7079 194.561C84.7453 194.561 88.0213 194.599 88.0213 194.646Z" fill="#E1E1E1"/>
<path d="M28.2269 185.32V186.988C28.2269 188.998 27.2175 190.145 25.2758 190.145C23.3342 190.145 22.3291 188.998 22.3291 186.988V180.453C22.3291 178.443 23.3342 177.296 25.2758 177.296C27.2175 177.296 28.2269 178.452 28.2269 180.453V181.673H26.3622V180.329C26.3622 179.429 25.9687 179.092 25.34 179.092C24.7113 179.092 24.3136 179.429 24.3136 180.329V187.108C24.3136 188.004 24.7113 188.324 25.34 188.324C25.9687 188.324 26.3622 188.004 26.3622 187.108V185.312L28.2269 185.32Z" fill="#ECECEC"/>
<path d="M29.2754 180.453C29.2754 178.443 30.336 177.296 32.2692 177.296C34.2023 177.296 35.263 178.443 35.263 180.453V186.98C35.263 188.989 34.2023 190.137 32.2692 190.137C30.336 190.137 29.2754 188.989 29.2754 186.98V180.453ZM31.2513 187.108C31.2513 188.004 31.649 188.345 32.2777 188.345C32.9064 188.345 33.3042 188.004 33.3042 187.108V180.338C33.3042 179.437 32.9064 179.1 32.2777 179.1C31.649 179.1 31.2513 179.437 31.2513 180.338V187.108Z" fill="#ECECEC"/>
<path d="M36.5547 177.467H38.5306V188.226H41.7853V190.017H36.5547V177.467Z" fill="#ECECEC"/>
<path d="M42.4863 180.453C42.4863 178.443 43.547 177.296 45.4801 177.296C47.4133 177.296 48.4739 178.443 48.4739 180.453V186.98C48.4739 188.989 47.4133 190.137 45.4801 190.137C43.547 190.137 42.4863 188.989 42.4863 186.98V180.453ZM44.4622 187.108C44.4622 188.004 44.86 188.345 45.4887 188.345C46.1174 188.345 46.5108 188.004 46.5108 187.108V180.338C46.5108 179.437 46.1174 179.1 45.4887 179.1C44.86 179.1 44.4622 179.437 44.4622 180.338V187.108Z" fill="#ECECEC"/>
<path d="M51.6517 177.467V187.151C51.6517 188.047 52.0494 188.371 52.6781 188.371C53.3068 188.371 53.7046 188.047 53.7046 187.151V177.467H55.5735V187.023C55.5735 189.032 54.5642 190.18 52.6225 190.18C50.6808 190.18 49.6758 189.032 49.6758 187.023V177.467H51.6517Z" fill="#ECECEC"/>
<path d="M61.0516 190C60.888 189.504 60.8269 188.981 60.872 188.46V186.485C60.872 185.321 60.4785 184.89 59.5889 184.89H58.9046V190.009H56.9287V177.467H59.9225C61.9754 177.467 62.8564 178.418 62.8564 180.355V181.306C62.8564 182.586 62.4287 183.439 61.5734 183.866C62.5613 184.292 62.8863 185.227 62.8863 186.536V188.473C62.85 188.99 62.9228 189.509 63.1002 189.996L61.0516 190ZM58.9132 179.241V183.081H59.6873C60.4229 183.081 60.872 182.757 60.872 181.754V180.517C60.872 179.621 60.5683 179.237 59.8669 179.237L58.9132 179.241Z" fill="#ECECEC"/>
<path d="M27.7993 162.066H26.3623L26.4393 161.691H29.7496L29.6683 162.066H28.227L27.4871 165.769H27.0594L27.7993 162.066Z" fill="#E1E1E1"/>
<path d="M32.5254 162.706L30.2844 166.166C29.908 166.746 29.6214 166.925 29.1767 166.925C29.0426 166.931 28.9088 166.91 28.7832 166.863C28.6575 166.816 28.5426 166.744 28.4453 166.652L28.6677 166.35C28.7375 166.423 28.8219 166.48 28.9155 166.518C29.0091 166.557 29.1098 166.575 29.2109 166.571C29.476 166.571 29.677 166.452 29.9165 166.076L30.1347 165.752L29.3691 162.706H29.7968L30.434 165.313L32.1106 162.706H32.5254Z" fill="#E1E1E1"/>
<path d="M35.9253 163.977C35.9411 164.211 35.9086 164.445 35.8297 164.666C35.7509 164.886 35.6274 165.088 35.4669 165.259C35.3065 165.43 35.1125 165.566 34.897 165.659C34.6815 165.752 34.4492 165.8 34.2145 165.799C33.9739 165.825 33.7314 165.774 33.5217 165.653C33.312 165.533 33.1458 165.35 33.0469 165.129L32.6962 166.9H32.2686L33.1239 162.706H33.5217L33.4233 163.197C33.5734 163.03 33.7584 162.897 33.9653 162.809C34.1721 162.72 34.3959 162.678 34.6208 162.685C34.7938 162.676 34.9668 162.703 35.1286 162.764C35.2904 162.826 35.4375 162.921 35.5604 163.043C35.6833 163.164 35.7793 163.31 35.8421 163.471C35.9049 163.632 35.9333 163.805 35.9253 163.977ZM35.4976 163.999C35.5075 163.866 35.4878 163.733 35.4398 163.609C35.3919 163.485 35.3169 163.374 35.2202 163.282C35.1236 163.191 35.0078 163.122 34.8812 163.08C34.7546 163.039 34.6204 163.026 34.4882 163.043C34.3047 163.045 34.1236 163.084 33.9559 163.159C33.7882 163.233 33.6376 163.341 33.5134 163.476C33.3891 163.61 33.2939 163.769 33.2335 163.942C33.1732 164.115 33.149 164.298 33.1624 164.481C33.151 164.617 33.1712 164.755 33.2216 164.882C33.2719 165.01 33.3511 165.124 33.4528 165.216C33.5546 165.308 33.6762 165.375 33.8083 165.413C33.9404 165.45 34.0794 165.457 34.2145 165.432C34.396 165.428 34.5748 165.387 34.7399 165.312C34.905 165.237 35.0531 165.129 35.1751 164.995C35.2972 164.861 35.3906 164.703 35.4497 164.532C35.5088 164.361 35.5323 164.179 35.519 163.999H35.4976Z" fill="#E1E1E1"/>
<path d="M36.4216 164.498C36.4111 164.261 36.4494 164.024 36.5343 163.802C36.6192 163.58 36.7488 163.378 36.9152 163.208C37.0816 163.038 37.2811 162.904 37.5015 162.814C37.7219 162.724 37.9585 162.68 38.1965 162.685C38.3753 162.665 38.5563 162.683 38.7274 162.739C38.8985 162.794 39.0556 162.886 39.1882 163.007C39.3207 163.128 39.4256 163.277 39.4958 163.442C39.566 163.607 39.5999 163.785 39.5951 163.965C39.6062 164.203 39.5683 164.44 39.4838 164.663C39.3992 164.886 39.2697 165.088 39.1033 165.259C38.937 165.43 38.7373 165.565 38.5166 165.656C38.2958 165.746 38.0588 165.791 37.8202 165.786C37.6415 165.802 37.4614 165.781 37.2916 165.723C37.1217 165.666 36.9659 165.573 36.8341 165.452C36.7023 165.331 36.5975 165.183 36.5265 165.019C36.4554 164.854 36.4197 164.677 36.4216 164.498ZM39.1802 163.999C39.1902 163.866 39.1704 163.733 39.1225 163.609C39.0745 163.485 38.9995 163.374 38.9029 163.282C38.8063 163.191 38.6905 163.122 38.5638 163.081C38.4372 163.039 38.303 163.027 38.1709 163.043C37.987 163.045 37.8055 163.085 37.6374 163.159C37.4693 163.233 37.3182 163.341 37.1933 163.475C37.0684 163.61 36.9723 163.769 36.9109 163.942C36.8496 164.114 36.8243 164.298 36.8365 164.481C36.8271 164.614 36.8474 164.747 36.8959 164.87C36.9444 164.994 37.0199 165.106 37.1169 165.197C37.214 165.288 37.3301 165.356 37.4569 165.397C37.5837 165.438 37.718 165.45 37.8501 165.432C38.0334 165.43 38.2144 165.391 38.3819 165.317C38.5495 165.243 38.7002 165.136 38.8247 165.001C38.9492 164.867 39.045 164.709 39.1061 164.537C39.1672 164.364 39.1924 164.181 39.1802 163.999Z" fill="#E1E1E1"/>
<path d="M43.5679 162.706L43.029 165.398C42.8151 166.477 42.242 166.925 41.2455 166.925C40.7478 166.952 40.2585 166.789 39.877 166.469L40.1207 166.153C40.4328 166.441 40.8463 166.594 41.2712 166.58C41.4314 166.597 41.5935 166.583 41.7479 166.537C41.9024 166.491 42.0461 166.415 42.1704 166.313C42.2948 166.21 42.3974 166.084 42.4722 165.942C42.5469 165.8 42.5923 165.644 42.6056 165.483L42.674 165.146C42.5196 165.317 42.3299 165.452 42.118 165.543C41.9061 165.634 41.677 165.677 41.4466 165.671C41.2739 165.69 41.0992 165.672 40.9341 165.618C40.7691 165.564 40.6175 165.476 40.4895 165.358C40.3615 165.241 40.2601 165.098 40.1921 164.939C40.1241 164.779 40.091 164.607 40.0951 164.434C40.0916 164.204 40.1345 163.977 40.2213 163.764C40.3082 163.552 40.4371 163.359 40.6004 163.197C40.7637 163.035 40.958 162.908 41.1718 162.823C41.3855 162.738 41.6142 162.697 41.8443 162.702C42.092 162.677 42.3414 162.73 42.5566 162.855C42.7718 162.98 42.9417 163.17 43.0418 163.397L43.1701 162.723L43.5679 162.706ZM42.8665 163.935C42.8665 163.376 42.4858 163.043 41.8486 163.043C41.6695 163.036 41.4909 163.066 41.3242 163.131C41.1575 163.197 41.0064 163.297 40.8807 163.424C40.755 163.552 40.6574 163.704 40.5943 163.871C40.5312 164.038 40.5039 164.217 40.5142 164.396C40.5142 164.954 40.8863 165.287 41.5278 165.287C41.7064 165.292 41.884 165.26 42.0498 165.194C42.2155 165.127 42.3658 165.028 42.4913 164.901C42.6168 164.774 42.7148 164.623 42.7794 164.457C42.8439 164.29 42.8736 164.113 42.8665 163.935Z" fill="#E1E1E1"/>
<path d="M46.2752 162.685L46.1982 163.086H46.0827C45.4284 163.086 44.9878 163.461 44.8382 164.221L44.5302 165.778H44.1025L44.7099 162.715H45.1033L45.0007 163.274C45.1413 163.071 45.3335 162.91 45.5576 162.806C45.7817 162.703 46.0294 162.661 46.2752 162.685Z" fill="#E1E1E1"/>
<path d="M49.7948 162.706L49.1833 165.769H48.7855L48.8882 165.287C48.7364 165.452 48.5511 165.584 48.3447 165.672C48.1382 165.76 47.9152 165.803 47.6906 165.799C47.516 165.813 47.3404 165.79 47.1754 165.731C47.0104 165.673 46.8596 165.58 46.7332 165.459C46.6067 165.338 46.5074 165.192 46.4416 165.03C46.3759 164.868 46.3454 164.694 46.352 164.519C46.3372 164.284 46.3714 164.049 46.4523 163.827C46.5333 163.606 46.6593 163.404 46.8224 163.234C46.9855 163.063 47.1822 162.929 47.4 162.838C47.6179 162.747 47.8523 162.702 48.0884 162.706C48.3279 162.681 48.5694 162.731 48.7789 162.849C48.9884 162.968 49.1552 163.149 49.256 163.367L49.3843 162.728L49.7948 162.706ZM49.1063 163.986C49.1163 163.853 49.0966 163.72 49.0483 163.595C49.0001 163.471 48.9247 163.359 48.8276 163.267C48.7305 163.176 48.6141 163.107 48.487 163.066C48.3598 163.025 48.2251 163.013 48.0927 163.03C47.9092 163.033 47.7281 163.073 47.5605 163.147C47.3929 163.222 47.2423 163.33 47.1179 163.464C46.9934 163.599 46.8977 163.757 46.8366 163.93C46.7756 164.102 46.7504 164.285 46.7626 164.468C46.7525 164.6 46.7722 164.733 46.8202 164.857C46.8681 164.981 46.9432 165.093 47.04 165.184C47.1367 165.275 47.2526 165.343 47.3792 165.384C47.5058 165.425 47.64 165.437 47.7719 165.419C47.9544 165.418 48.1347 165.38 48.3019 165.307C48.4691 165.233 48.6196 165.127 48.7444 164.994C48.8692 164.862 48.9656 164.705 49.0278 164.534C49.09 164.363 49.1167 164.181 49.1063 163.999V163.986Z" fill="#E1E1E1"/>
<path d="M53.7771 163.977C53.7931 164.213 53.7599 164.45 53.6795 164.672C53.5991 164.894 53.4733 165.098 53.31 165.269C53.1468 165.44 52.9497 165.576 52.7312 165.667C52.5127 165.758 52.2776 165.803 52.0407 165.799C51.8 165.825 51.5572 165.775 51.3474 165.654C51.1375 165.534 50.9714 165.35 50.8731 165.129L50.5224 166.9H50.0947L50.9501 162.706H51.3222L51.2238 163.197C51.3731 163.03 51.5573 162.897 51.7635 162.809C51.9696 162.72 52.1927 162.678 52.4171 162.685C52.5945 162.667 52.7736 162.688 52.9422 162.746C53.1108 162.804 53.2648 162.898 53.3939 163.02C53.523 163.143 53.624 163.292 53.6902 163.457C53.7563 163.622 53.7859 163.8 53.7771 163.977ZM53.3494 163.999C53.3594 163.866 53.3396 163.733 53.2917 163.609C53.2437 163.485 53.1687 163.374 53.0721 163.282C52.9755 163.191 52.8597 163.122 52.733 163.08C52.6064 163.039 52.4722 163.026 52.3401 163.043C52.1566 163.045 51.9754 163.084 51.8077 163.159C51.64 163.233 51.4894 163.341 51.3652 163.476C51.241 163.611 51.1457 163.769 51.0854 163.942C51.025 164.115 51.0008 164.298 51.0142 164.481C51.0042 164.613 51.0238 164.746 51.0718 164.87C51.1198 164.994 51.1949 165.105 51.2916 165.196C51.3884 165.288 51.5043 165.356 51.6309 165.397C51.7575 165.438 51.8917 165.45 52.0236 165.432C52.2076 165.432 52.3896 165.394 52.5583 165.321C52.727 165.247 52.8787 165.14 53.0039 165.006C53.1291 164.871 53.2252 164.712 53.2861 164.539C53.347 164.366 53.3715 164.182 53.358 163.999H53.3494Z" fill="#E1E1E1"/>
<path d="M57.4937 163.679C57.4944 163.796 57.4829 163.914 57.4595 164.029L57.1087 165.769H56.6811L57.0318 164.02C57.0495 163.929 57.0595 163.836 57.0617 163.743C57.0617 163.316 56.8008 163.056 56.2705 163.056C55.9641 163.041 55.6636 163.144 55.4306 163.343C55.1976 163.542 55.0498 163.823 55.0174 164.127L54.6923 165.769H54.2646L55.12 161.448H55.5477L55.2013 163.154C55.35 162.993 55.5324 162.866 55.7356 162.783C55.9389 162.699 56.1579 162.662 56.3774 162.672C56.5202 162.648 56.6667 162.656 56.8058 162.697C56.9448 162.737 57.0729 162.808 57.1804 162.905C57.2878 163.002 57.3718 163.122 57.4261 163.256C57.4804 163.39 57.5035 163.535 57.4937 163.679Z" fill="#E1E1E1"/>
<path d="M61.377 162.706L59.1359 166.166C58.7553 166.746 58.4687 166.925 58.0239 166.925C57.8905 166.932 57.7572 166.91 57.6322 166.864C57.5072 166.817 57.3931 166.745 57.2969 166.652L57.515 166.35C57.5848 166.423 57.6692 166.48 57.7628 166.518C57.8564 166.557 57.9571 166.575 58.0582 166.571C58.3233 166.571 58.5286 166.452 58.7681 166.076L58.982 165.752L58.2164 162.706H58.6441L59.2813 165.313L60.9579 162.706H61.377Z" fill="#E1E1E1"/>
<path d="M70.6278 36.8242H8.33984L18.4845 44.1277V58.4956C18.4845 59.2876 18.7999 60.0472 19.3614 60.6072C19.9228 61.1672 20.6843 61.4819 21.4783 61.4819H70.6278C71.4218 61.4819 72.1833 61.1672 72.7448 60.6072C73.3062 60.0472 73.6216 59.2876 73.6216 58.4956V39.8275C73.6239 39.4339 73.5481 39.0438 73.3987 38.6795C73.2492 38.3152 73.029 37.984 72.7508 37.7049C72.4726 37.4258 72.1418 37.2043 71.7775 37.0532C71.4131 36.902 71.0224 36.8242 70.6278 36.8242Z" fill="#F5F5F5"/>
<path d="M68.0276 46.9818C68.0276 47.0415 58.6185 47.0884 47.0711 47.0884C35.5236 47.0884 26.0889 47.0415 26.0889 46.9818C26.0889 46.922 35.4979 46.8708 47.0711 46.8708C58.6442 46.8708 68.0276 46.9263 68.0276 46.9818Z" fill="#E1E1E1"/>
<path d="M68.0276 52.4976C68.0276 52.5574 58.6185 52.6043 47.0711 52.6043C35.5236 52.6043 26.0889 52.5574 26.0889 52.4976C26.0889 52.4379 35.4979 52.3867 47.0711 52.3867C58.6442 52.3867 68.0276 52.4379 68.0276 52.4976Z" fill="#E1E1E1"/>
<path d="M164.364 197.321L134.588 196.954L129.559 171.191L155.369 171.507L164.364 197.321Z" fill="#1A2E35"/>
<path d="M173.806 195.043H120.153C119.076 195.043 118.203 195.913 118.203 196.986C118.203 198.059 119.076 198.929 120.153 198.929H173.806C174.883 198.929 175.757 198.059 175.757 196.986C175.757 195.913 174.883 195.043 173.806 195.043Z" fill="#1A2E35"/>
<path d="M59.4864 63.3589H222.554C224.097 63.3589 225.576 63.9701 226.667 65.0582C227.758 66.1462 228.371 67.622 228.371 69.1607V169.903C228.371 171.056 228.143 172.199 227.7 173.264C227.258 174.33 226.609 175.298 225.791 176.114C224.974 176.93 224.003 177.577 222.934 178.018C221.866 178.46 220.721 178.687 219.564 178.687H62.4759C60.1404 178.687 57.9006 177.761 56.2491 176.114C54.5977 174.467 53.6699 172.233 53.6699 169.903V69.1607C53.6699 67.622 54.2827 66.1462 55.3735 65.0582C56.4643 63.9701 57.9438 63.3589 59.4864 63.3589Z" fill="#1A2E35"/>
<path d="M159.561 197.261L129.789 196.894L127.373 169.98L150.566 171.447L159.561 197.261Z" fill="#375A64"/>
<path d="M56.2833 63.3589H219.351C220.894 63.3589 222.373 63.9701 223.464 65.0582C224.555 66.1462 225.167 67.622 225.167 69.1607V169.903C225.167 172.233 224.24 174.467 222.588 176.114C220.937 177.761 218.697 178.687 216.361 178.687H59.2728C56.9373 178.687 54.6975 177.761 53.046 176.114C51.3946 174.467 50.4668 172.233 50.4668 169.903V69.1607C50.4668 67.622 51.0796 66.1462 52.1704 65.0582C53.2612 63.9701 54.7407 63.3589 56.2833 63.3589Z" fill="#375A64"/>
<path d="M56.2833 63.3589H219.351C220.894 63.3589 222.373 63.9701 223.464 65.0582C224.555 66.1462 225.167 67.622 225.167 69.1607V163.653H50.4668V69.1607C50.4668 67.622 51.0796 66.1462 52.1704 65.0582C53.2612 63.9701 54.7407 63.3589 56.2833 63.3589Z" fill="#1A2E35"/>
<path d="M219.543 68.2563H55.8809V158.419H219.543V68.2563Z" fill="white"/>
<path d="M170.501 195.043H116.848C115.771 195.043 114.897 195.913 114.897 196.986C114.897 198.059 115.771 198.929 116.848 198.929H170.501C171.578 198.929 172.451 198.059 172.451 196.986C172.451 195.913 171.578 195.043 170.501 195.043Z" fill="#375A64"/>
<path d="M215.921 70.5132H58.7039C57.7779 70.5132 57.0273 71.2619 57.0273 72.1855V77.117C57.0273 78.0406 57.7779 78.7893 58.7039 78.7893H215.921C216.847 78.7893 217.597 78.0406 217.597 77.117V72.1855C217.597 71.2619 216.847 70.5132 215.921 70.5132Z" fill="#E1E1E1"/>
<path d="M61.3127 77.2534C61.1855 77.2525 61.0633 77.2038 60.9705 77.1169L58.8321 75.0649C58.7817 75.0162 58.7424 74.9572 58.7167 74.8921C58.691 74.8269 58.6796 74.7571 58.6833 74.6872C58.6869 74.6173 58.7055 74.5489 58.7378 74.4868C58.7701 74.4246 58.8154 74.3701 58.8706 74.3269L61.1331 72.565C61.2358 72.4855 61.366 72.4499 61.495 72.4659C61.6241 72.4819 61.7415 72.5482 61.8216 72.6503C61.8615 72.7005 61.891 72.7581 61.9083 72.8198C61.9256 72.8815 61.9304 72.946 61.9224 73.0095C61.9145 73.073 61.8939 73.1344 61.8619 73.1899C61.8299 73.2454 61.7871 73.294 61.7361 73.3329L59.9184 74.7492L61.6506 76.413C61.742 76.5048 61.7933 76.6291 61.7933 76.7585C61.7933 76.888 61.742 77.0122 61.6506 77.1041C61.5619 77.1961 61.4406 77.2497 61.3127 77.2534Z" fill="white"/>
<path d="M67.5652 76.8525C68.7841 76.8525 69.7721 75.867 69.7721 74.6512C69.7721 73.4355 68.7841 72.45 67.5652 72.45C66.3464 72.45 65.3584 73.4355 65.3584 74.6512C65.3584 75.867 66.3464 76.8525 67.5652 76.8525Z" fill="white"/>
<path d="M193.647 77.1169C193.582 77.1175 193.516 77.1049 193.455 77.08C193.394 77.0551 193.339 77.0184 193.292 76.9719C191.582 75.2143 189.661 73.2562 189.336 72.9959C189.261 72.9529 189.198 72.8909 189.153 72.8161C189.109 72.7412 189.085 72.6562 189.084 72.5693C189.084 72.4404 189.135 72.3167 189.227 72.2254C189.318 72.1342 189.442 72.083 189.572 72.083C189.837 72.083 189.918 72.083 193.998 76.2979C194.044 76.3427 194.08 76.3962 194.105 76.4551C194.129 76.5141 194.142 76.5774 194.142 76.6413C194.142 76.7052 194.129 76.7685 194.105 76.8274C194.08 76.8864 194.044 76.9398 193.998 76.9847C193.952 77.0293 193.897 77.0641 193.836 77.0868C193.776 77.1096 193.712 77.1198 193.647 77.1169Z" fill="white"/>
<path d="M189.571 77.1168C189.474 77.1187 189.38 77.0918 189.299 77.0395C189.218 76.9872 189.154 76.9119 189.117 76.8234C189.079 76.7348 189.069 76.637 189.087 76.5426C189.106 76.4482 189.152 76.3614 189.22 76.2935C193.313 72.0957 193.382 72.0957 193.647 72.0957C193.776 72.0957 193.9 72.1469 193.991 72.2381C194.083 72.3293 194.134 72.453 194.134 72.582C194.133 72.6689 194.109 72.7539 194.065 72.8288C194.021 72.9036 193.958 72.9656 193.882 73.0086C193.557 73.2689 191.624 75.227 189.922 76.9846C189.875 77.0288 189.82 77.0633 189.76 77.086C189.699 77.1087 189.635 77.1192 189.571 77.1168Z" fill="white"/>
<path d="M203.873 77.3773H199.169C199.044 77.3773 198.924 77.3278 198.836 77.2398C198.748 77.1518 198.698 77.0325 198.698 76.908V72.2154C198.698 72.0909 198.748 71.9715 198.836 71.8835C198.924 71.7955 199.044 71.7461 199.169 71.7461H203.873C203.935 71.7461 203.996 71.7582 204.053 71.7818C204.11 71.8054 204.162 71.84 204.206 71.8835C204.25 71.9271 204.284 71.9789 204.308 72.0358C204.332 72.0927 204.344 72.1537 204.344 72.2154V76.908C204.344 76.9696 204.332 77.0307 204.308 77.0876C204.284 77.1445 204.25 77.1963 204.206 77.2398C204.162 77.2834 204.11 77.318 204.053 77.3415C203.996 77.3651 203.935 77.3773 203.873 77.3773ZM199.648 76.4387H203.403V72.6932H199.648V76.4387Z" fill="white"/>
<path d="M214.06 77.215H209.356C209.292 77.2212 209.227 77.2139 209.166 77.1937C209.105 77.1734 209.049 77.1407 209.001 77.0975C208.953 77.0543 208.915 77.0016 208.889 76.9429C208.863 76.8841 208.85 76.8206 208.85 76.7564C208.85 76.6921 208.863 76.6286 208.889 76.5699C208.915 76.5111 208.953 76.4585 209.001 76.4153C209.049 76.3721 209.105 76.3394 209.166 76.3191C209.227 76.2989 209.292 76.2916 209.356 76.2978H214.06C214.175 76.3088 214.281 76.3619 214.358 76.4466C214.435 76.5314 214.478 76.6419 214.478 76.7564C214.478 76.8709 214.435 76.9813 214.358 77.0661C214.281 77.1509 214.175 77.204 214.06 77.215Z" fill="white"/>
<path d="M214.06 75.1205H209.356C209.292 75.1267 209.227 75.1194 209.166 75.0992C209.105 75.0789 209.049 75.0462 209.001 75.003C208.953 74.9598 208.915 74.9071 208.889 74.8484C208.863 74.7897 208.85 74.7261 208.85 74.6619C208.85 74.5977 208.863 74.5341 208.889 74.4754C208.915 74.4167 208.953 74.364 209.001 74.3208C209.049 74.2776 209.105 74.2449 209.166 74.2246C209.227 74.2044 209.292 74.1971 209.356 74.2033H214.06C214.175 74.2143 214.281 74.2674 214.358 74.3522C214.435 74.437 214.478 74.5474 214.478 74.6619C214.478 74.7764 214.435 74.8868 214.358 74.9716C214.281 75.0564 214.175 75.1095 214.06 75.1205Z" fill="white"/>
<path d="M214.06 73.0258H209.356C209.292 73.032 209.227 73.0247 209.166 73.0045C209.105 72.9842 209.049 72.9515 209.001 72.9083C208.953 72.8651 208.915 72.8124 208.889 72.7537C208.863 72.695 208.85 72.6314 208.85 72.5672C208.85 72.5029 208.863 72.4394 208.889 72.3807C208.915 72.3219 208.953 72.2693 209.001 72.2261C209.049 72.1829 209.105 72.1501 209.166 72.1299C209.227 72.1097 209.292 72.1024 209.356 72.1086H214.06C214.175 72.1196 214.281 72.1727 214.358 72.2574C214.435 72.3422 214.478 72.4527 214.478 72.5672C214.478 72.6817 214.435 72.7921 214.358 72.8769C214.281 72.9617 214.175 73.0148 214.06 73.0258Z" fill="white"/>
<path d="M214.364 81.1995H61.0051C59.2171 81.1995 57.7676 82.6453 57.7676 84.4288V152.958C57.7676 154.742 59.2171 156.188 61.0051 156.188H214.364C216.152 156.188 217.602 154.742 217.602 152.958V84.4288C217.602 82.6453 216.152 81.1995 214.364 81.1995Z" fill="#EDDFDA"/>
<path d="M215.48 83.5459H59.7129V154.016H215.48V83.5459Z" fill="white"/>
<path d="M211.76 87.0696H123.854V109.389H211.76V87.0696Z" fill="#D7EBD7"/>
<path d="M199.292 89.9578H126.735V96.7535H199.292V89.9578Z" fill="white"/>
<path d="M176.993 99.4836H126.735V102.039H176.993V99.4836Z" fill="white"/>
<path d="M197.257 99.4836H179.73V102.039H197.257V99.4836Z" fill="white"/>
<path d="M209.66 99.4836H199.768V102.039H209.66V99.4836Z" fill="white"/>
<path d="M119.73 87.2231H62.416V150.992H119.73V87.2231Z" fill="#D4F1FB"/>
<path d="M120.727 98.7202H61.4883V101.229H120.727V98.7202Z" fill="white"/>
<path d="M120.727 111.911H61.4883V114.419H120.727V111.911Z" fill="white"/>
<path d="M120.727 125.101H61.4883V127.61H120.727V125.101Z" fill="white"/>
<path d="M120.727 138.292H61.4883V140.8H120.727V138.292Z" fill="white"/>
<path d="M113.734 96.0625C113.6 96.0615 113.473 96.0078 113.379 95.9132C113.287 95.8213 113.236 95.6971 113.236 95.5676C113.236 95.4382 113.287 95.314 113.379 95.2221L115.111 93.5626L113.306 92.1462C113.205 92.0656 113.139 91.9486 113.123 91.8202C113.107 91.6918 113.142 91.5623 113.221 91.4594C113.301 91.3573 113.418 91.291 113.547 91.275C113.676 91.259 113.806 91.2946 113.909 91.3741L116.176 93.136C116.231 93.1792 116.276 93.2337 116.309 93.2959C116.341 93.358 116.36 93.4263 116.363 93.4963C116.367 93.5662 116.355 93.636 116.33 93.7012C116.304 93.7663 116.265 93.8253 116.214 93.874L114.076 95.926C114.031 95.9703 113.977 96.0052 113.919 96.0287C113.86 96.0521 113.797 96.0636 113.734 96.0625Z" fill="white"/>
<path d="M114.889 108.784C114.755 108.783 114.628 108.729 114.534 108.634L112.477 106.501C112.399 106.406 112.361 106.285 112.368 106.162C112.376 106.04 112.429 105.925 112.518 105.839C112.606 105.754 112.724 105.705 112.847 105.702C112.97 105.699 113.09 105.742 113.182 105.823L114.85 107.555L116.27 105.738C116.309 105.687 116.358 105.644 116.414 105.612C116.469 105.58 116.531 105.56 116.595 105.552C116.658 105.544 116.723 105.549 116.785 105.566C116.847 105.583 116.904 105.613 116.955 105.652C117.057 105.732 117.123 105.849 117.139 105.978C117.156 106.107 117.12 106.237 117.04 106.339L115.274 108.6C115.231 108.655 115.177 108.7 115.115 108.732C115.053 108.764 114.984 108.781 114.915 108.784H114.889Z" fill="white"/>
<path d="M114.889 135.233C114.756 135.232 114.628 135.178 114.534 135.084L112.477 132.951C112.426 132.906 112.384 132.851 112.355 132.79C112.326 132.728 112.31 132.661 112.309 132.593C112.307 132.525 112.32 132.458 112.345 132.395C112.371 132.332 112.41 132.275 112.459 132.228C112.508 132.181 112.567 132.144 112.631 132.121C112.695 132.097 112.763 132.087 112.831 132.091C112.899 132.096 112.965 132.114 113.026 132.145C113.086 132.176 113.14 132.22 113.183 132.272L114.851 134.004L116.271 132.187C116.31 132.136 116.358 132.094 116.414 132.062C116.47 132.03 116.531 132.009 116.595 132.001C116.659 131.993 116.723 131.998 116.785 132.015C116.847 132.033 116.905 132.062 116.955 132.102C117.057 132.182 117.124 132.299 117.14 132.428C117.156 132.556 117.12 132.686 117.04 132.789L115.274 135.05C115.231 135.105 115.177 135.15 115.115 135.181C115.053 135.213 114.985 135.231 114.915 135.233H114.889Z" fill="white"/>
<path d="M114.889 148.031C114.755 148.03 114.628 147.977 114.534 147.882L112.476 145.749C112.432 145.703 112.397 145.648 112.374 145.589C112.351 145.529 112.34 145.465 112.341 145.401C112.342 145.337 112.356 145.274 112.382 145.216C112.408 145.157 112.445 145.104 112.491 145.06C112.538 145.016 112.592 144.981 112.652 144.958C112.712 144.935 112.776 144.923 112.84 144.925C112.904 144.926 112.967 144.94 113.026 144.966C113.085 144.992 113.138 145.029 113.182 145.075L114.85 146.803L116.27 144.985C116.35 144.883 116.467 144.818 116.596 144.802C116.725 144.786 116.854 144.822 116.956 144.902C117.059 144.982 117.125 145.099 117.14 145.227C117.156 145.356 117.12 145.485 117.04 145.587L115.274 147.848C115.23 147.903 115.176 147.948 115.114 147.98C115.052 148.013 114.984 148.032 114.914 148.036L114.889 148.031Z" fill="white"/>
<path d="M114.889 122.311C114.823 122.312 114.757 122.299 114.696 122.273C114.635 122.247 114.58 122.21 114.534 122.162L112.477 120.029C112.426 119.984 112.384 119.929 112.355 119.868C112.326 119.806 112.31 119.739 112.309 119.671C112.307 119.603 112.32 119.536 112.345 119.473C112.371 119.41 112.41 119.353 112.459 119.306C112.508 119.259 112.567 119.222 112.631 119.199C112.695 119.175 112.763 119.165 112.831 119.17C112.899 119.174 112.965 119.192 113.026 119.223C113.086 119.254 113.14 119.298 113.183 119.351L114.851 121.083L116.271 119.265C116.31 119.214 116.358 119.172 116.414 119.14C116.47 119.108 116.531 119.087 116.595 119.079C116.659 119.071 116.723 119.076 116.785 119.094C116.847 119.111 116.905 119.14 116.955 119.18C117.057 119.26 117.124 119.377 117.14 119.506C117.156 119.634 117.12 119.764 117.04 119.867L115.274 122.123C115.231 122.178 115.177 122.224 115.115 122.256C115.053 122.288 114.985 122.307 114.915 122.311H114.889Z" fill="white"/>
<path d="M188.639 112.401H123.854V118.864H188.639V112.401Z" fill="#FFF5CD"/>
<path d="M211.759 112.401H192V118.864H211.759V112.401Z" fill="#F5F0EE"/>
<path d="M206.11 95.832C205.529 95.832 204.962 95.6603 204.479 95.3385C203.997 95.0168 203.621 94.5594 203.399 94.0244C203.177 93.4894 203.119 92.9008 203.232 92.333C203.346 91.7652 203.626 91.2438 204.037 90.8346C204.447 90.4255 204.971 90.1472 205.54 90.0347C206.109 89.9223 206.699 89.9808 207.235 90.203C207.771 90.4252 208.229 90.8009 208.551 91.2827C208.873 91.7646 209.044 92.3308 209.044 92.9098C209.042 93.6852 208.733 94.4285 208.183 94.9764C207.633 95.5243 206.887 95.832 206.11 95.832ZM206.11 90.9602C205.723 90.9602 205.345 91.0745 205.024 91.2888C204.702 91.503 204.452 91.8075 204.304 92.1637C204.156 92.5199 204.117 92.9119 204.193 93.2901C204.268 93.6683 204.454 94.0157 204.728 94.2883C205.001 94.561 205.349 94.7467 205.728 94.8219C206.108 94.8971 206.501 94.8585 206.858 94.711C207.215 94.5634 207.52 94.3135 207.735 93.9929C207.95 93.6723 208.064 93.2954 208.064 92.9098C208.064 92.3927 207.858 91.8968 207.492 91.5312C207.125 91.1656 206.628 90.9602 206.11 90.9602Z" fill="white"/>
<path d="M209.283 96.7237C209.216 96.7234 209.15 96.7096 209.089 96.6832C209.028 96.6568 208.973 96.6183 208.928 96.5701L207.427 95.0002C207.338 94.9063 207.29 94.781 207.293 94.6518C207.297 94.5226 207.352 94.4001 207.446 94.3113C207.54 94.2224 207.666 94.1746 207.795 94.1782C207.925 94.1818 208.048 94.2365 208.137 94.3305L209.625 95.9004C209.691 95.9693 209.736 96.0563 209.753 96.1504C209.77 96.2446 209.759 96.3416 209.721 96.4295C209.683 96.5174 209.62 96.5922 209.54 96.6445C209.46 96.6968 209.366 96.7244 209.27 96.7237H209.283Z" fill="white"/>
<path d="M127.51 127.772H123.854V151.005H127.51V127.772Z" fill="#0059DF"/>
<path d="M132.261 140.352H128.604V151.005H132.261V140.352Z" fill="#FC81B3"/>
<path d="M149.146 140.352H145.489V151.005H149.146V140.352Z" fill="#FC81B3"/>
<path d="M166.075 133.475H162.418V151.004H166.075V133.475Z" fill="#FC81B3"/>
<path d="M144.459 127.221H140.803V151.005H144.459V127.221Z" fill="#0059DF"/>
<path d="M161.391 123.826H157.734V151.005H161.391V123.826Z" fill="#0059DF"/>
<path d="M177.246 139.913H173.589V151.005H177.246V139.913Z" fill="#0059DF"/>
<path d="M192.561 143.355H188.904V151.004H192.561V143.355Z" fill="#0059DF"/>
<path d="M206.696 147.89H203.039V151.005H206.696V147.89Z" fill="#0059DF"/>
<path d="M181.984 144.776H178.327V151.005H181.984V144.776Z" fill="#FC81B3"/>
<path d="M196.936 146.785H193.279V151.005H196.936V146.785Z" fill="#FC81B3"/>
<path d="M211.191 143.842H207.534V151.004H211.191V143.842Z" fill="#FC81B3"/>
<path d="M145.716 17.0641C143.702 8.57469 135.323 3.28055 126.966 5.23865C118.61 7.19676 113.46 15.6648 115.475 24.1542C115.95 26.1987 116.826 28.129 118.054 29.8336C119.281 31.5382 120.835 32.9834 122.625 34.0856C122.625 34.0856 126.406 37.1571 127.257 38.3985C127.76 39.2792 128.145 40.2214 128.404 41.2013C128.653 42.0214 129.206 42.7158 129.95 43.1431C130.695 43.5703 131.575 43.6982 132.411 43.5007L138.398 42.0972C139.242 41.8999 139.977 41.3883 140.455 40.6672C140.932 39.9462 141.114 39.0703 140.965 38.2193C140.789 37.3867 140.733 36.5336 140.798 35.6853C141.067 34.0088 143.723 29.1924 143.723 29.1924C144.847 27.4045 145.602 25.4109 145.944 23.3285C146.286 21.246 146.209 19.1163 145.716 17.0641Z" fill="#FCD844"/>
<path d="M126.71 4.42797C126.655 4.44045 126.597 4.4417 126.541 4.43165C126.485 4.4216 126.431 4.40045 126.383 4.36944C126.336 4.33844 126.294 4.2982 126.262 4.25111C126.23 4.20402 126.208 4.15102 126.197 4.09522L125.342 0.545888C125.324 0.487207 125.319 0.42537 125.327 0.364592C125.335 0.303814 125.357 0.245525 125.39 0.193698C125.422 0.141871 125.466 0.0977257 125.518 0.0642707C125.569 0.0308157 125.627 0.00883807 125.688 -0.000163939C125.745 -0.0159758 125.804 -0.0199026 125.863 -0.0116978C125.921 -0.00349294 125.977 0.0166663 126.027 0.0475137C126.078 0.0783611 126.121 0.11923 126.155 0.167554C126.188 0.215878 126.211 0.270613 126.223 0.32832L127.057 3.87766C127.072 3.93403 127.075 3.9929 127.067 4.05064C127.058 4.10838 127.038 4.16376 127.007 4.21334C126.976 4.26293 126.935 4.30567 126.887 4.33892C126.839 4.37217 126.785 4.39522 126.727 4.40664L126.71 4.42797Z" fill="#FCD844"/>
<path d="M133.81 4.36415C133.737 4.38372 133.66 4.38372 133.587 4.36415C133.531 4.34736 133.48 4.3194 133.435 4.28199C133.391 4.24458 133.354 4.19851 133.328 4.14659C133.302 4.09468 133.287 4.03801 133.284 3.98006C133.281 3.92211 133.289 3.8641 133.309 3.80957L134.455 0.32849C134.492 0.215348 134.571 0.121222 134.677 0.0668201C134.783 0.0124177 134.906 0.00219472 135.02 0.0384002C135.133 0.0746057 135.228 0.154274 135.282 0.259879C135.337 0.365483 135.347 0.488374 135.311 0.601516L134.164 4.06553C134.14 4.14412 134.094 4.21411 134.031 4.26708C133.968 4.32006 133.891 4.35377 133.81 4.36415Z" fill="#FCD844"/>
<path d="M140.477 6.59952C140.391 6.61782 140.302 6.6094 140.221 6.57541C140.141 6.54142 140.072 6.4835 140.026 6.40948C139.979 6.33547 139.956 6.24894 139.96 6.16161C139.965 6.07428 139.996 5.99036 140.049 5.92122L142.094 2.89661C142.125 2.84697 142.165 2.80414 142.213 2.77077C142.261 2.7374 142.315 2.7142 142.373 2.7026C142.43 2.69101 142.489 2.69126 142.546 2.70335C142.604 2.71544 142.658 2.73911 142.705 2.77289C142.755 2.80387 142.799 2.84483 142.832 2.89319C142.865 2.94156 142.888 2.99629 142.9 3.05397C142.911 3.11164 142.91 3.17101 142.897 3.22835C142.884 3.2857 142.86 3.33978 142.825 3.3872L140.759 6.39902C140.729 6.45024 140.688 6.49453 140.64 6.52906C140.591 6.5636 140.536 6.5876 140.477 6.59952Z" fill="#FCD844"/>
<path d="M145.571 11.5181C145.482 11.5341 145.39 11.5232 145.308 11.4867C145.226 11.4502 145.156 11.3898 145.109 11.3133C145.077 11.2643 145.055 11.2093 145.045 11.1516C145.035 11.0939 145.037 11.0348 145.051 10.978C145.066 10.9212 145.091 10.8678 145.127 10.8213C145.162 10.7748 145.207 10.7361 145.258 10.7075L148.406 8.80916C148.455 8.77716 148.51 8.75559 148.568 8.74578C148.626 8.73597 148.685 8.73814 148.742 8.75214C148.799 8.76615 148.853 8.79169 148.899 8.82719C148.946 8.86268 148.985 8.90737 149.013 8.95847C149.045 9.00747 149.067 9.06252 149.077 9.12021C149.087 9.1779 149.085 9.23699 149.071 9.29381C149.057 9.35063 149.031 9.40396 148.995 9.45048C148.96 9.49701 148.915 9.53573 148.864 9.56425L145.737 11.4541C145.686 11.4858 145.63 11.5075 145.571 11.5181Z" fill="#FCD844"/>
<path d="M148.51 17.7381C148.453 17.7505 148.395 17.7515 148.339 17.7409C148.282 17.7303 148.228 17.7084 148.18 17.6765C148.132 17.6447 148.091 17.6035 148.06 17.5554C148.028 17.5073 148.007 17.4534 147.996 17.3969C147.982 17.3399 147.98 17.2805 147.989 17.2226C147.999 17.1646 148.02 17.1092 148.053 17.06C148.085 17.0107 148.127 16.9686 148.176 16.9363C148.225 16.9039 148.28 16.8821 148.339 16.8721L151.918 16.1341C152.032 16.1109 152.15 16.1336 152.246 16.1972C152.343 16.2608 152.41 16.3601 152.434 16.4733C152.457 16.5864 152.434 16.7041 152.37 16.8005C152.307 16.8969 152.207 16.9641 152.094 16.9873L148.514 17.7253L148.51 17.7381Z" fill="#FCD844"/>
<path d="M151.704 25.5066C151.632 25.5236 151.558 25.5236 151.486 25.5066L148 24.3932C147.944 24.3755 147.892 24.347 147.847 24.3093C147.802 24.2715 147.764 24.2253 147.737 24.1732C147.71 24.1211 147.693 24.0642 147.688 24.0057C147.683 23.9471 147.69 23.8882 147.707 23.8322C147.725 23.7762 147.754 23.7242 147.791 23.6792C147.829 23.6341 147.876 23.597 147.928 23.5699C147.98 23.5427 148.037 23.5261 148.096 23.521C148.154 23.5159 148.213 23.5223 148.27 23.54L151.751 24.6491C151.807 24.665 151.86 24.6923 151.905 24.7293C151.951 24.7663 151.988 24.8123 152.015 24.8643C152.042 24.9163 152.058 24.9733 152.062 25.0317C152.066 25.0901 152.057 25.1486 152.038 25.2037C152.016 25.2802 151.973 25.3491 151.914 25.4026C151.855 25.4561 151.782 25.4921 151.704 25.5066Z" fill="#FCD844"/>
<path d="M149.459 32.989C149.357 33.0071 149.251 32.9905 149.16 32.9421L145.965 31.1674C145.913 31.1407 145.867 31.1037 145.83 31.0587C145.793 31.0137 145.766 30.9616 145.75 30.9056C145.734 30.8497 145.729 30.7911 145.737 30.7334C145.745 30.6757 145.764 30.6202 145.794 30.5702C145.82 30.5175 145.857 30.4709 145.902 30.4332C145.948 30.3956 146 30.3676 146.057 30.3512C146.113 30.3348 146.173 30.3302 146.231 30.3378C146.29 30.3454 146.346 30.3649 146.397 30.3953L149.591 32.1699C149.644 32.1966 149.69 32.2338 149.728 32.2791C149.765 32.3245 149.792 32.377 149.808 32.4335C149.825 32.4899 149.829 32.5491 149.821 32.6072C149.813 32.6654 149.793 32.7213 149.763 32.7714C149.73 32.8272 149.687 32.8754 149.634 32.9129C149.582 32.9504 149.522 32.9764 149.459 32.989Z" fill="#FCD844"/>
<path d="M120.483 6.91942C120.412 6.93433 120.338 6.93079 120.268 6.90914C120.199 6.88749 120.136 6.84844 120.085 6.79571L117.519 4.20623C117.478 4.16505 117.446 4.11622 117.424 4.06253C117.402 4.00884 117.39 3.95133 117.391 3.8933C117.391 3.83526 117.402 3.77784 117.425 3.7243C117.447 3.67076 117.48 3.62215 117.521 3.58125C117.563 3.54036 117.612 3.50797 117.666 3.48595C117.719 3.46392 117.777 3.45269 117.835 3.45288C117.893 3.45308 117.951 3.46471 118.005 3.4871C118.058 3.50949 118.107 3.54221 118.148 3.58339L120.714 6.17713C120.757 6.21704 120.791 6.26527 120.814 6.31883C120.837 6.3724 120.85 6.43017 120.85 6.48855C120.85 6.54694 120.837 6.6047 120.814 6.65827C120.791 6.71184 120.757 6.76007 120.714 6.79997C120.65 6.86104 120.57 6.9025 120.483 6.91942Z" fill="#FCD844"/>
<path d="M115.514 11.8851C115.409 11.9039 115.302 11.8858 115.21 11.8339L112.054 10.0336C112.003 10.0056 111.959 9.96793 111.923 9.92275C111.887 9.87758 111.86 9.82578 111.844 9.77033C111.828 9.71487 111.823 9.65683 111.83 9.59953C111.837 9.54223 111.854 9.48678 111.883 9.43636C111.939 9.33453 112.034 9.25935 112.147 9.22735C112.202 9.2115 112.26 9.20674 112.318 9.21332C112.375 9.2199 112.431 9.23771 112.481 9.26572L115.663 11.066C115.715 11.0934 115.76 11.1311 115.797 11.1768C115.833 11.2225 115.86 11.2752 115.875 11.3316C115.891 11.388 115.894 11.4469 115.886 11.5047C115.877 11.5624 115.857 11.6179 115.826 11.6675C115.794 11.7254 115.749 11.7751 115.695 11.8129C115.641 11.8506 115.579 11.8753 115.514 11.8851Z" fill="#FCD844"/>
<path d="M113.149 18.5445C113.108 18.5509 113.066 18.5509 113.025 18.5445L109.385 18.2416C109.326 18.2391 109.268 18.2244 109.215 18.1986C109.162 18.1727 109.115 18.1362 109.077 18.0913C109.039 18.0464 109.011 17.9942 108.994 17.9378C108.977 17.8814 108.972 17.8222 108.979 17.7638C108.982 17.7054 108.997 17.6482 109.023 17.5958C109.049 17.5435 109.086 17.4971 109.131 17.4595C109.176 17.4218 109.228 17.3939 109.284 17.3772C109.34 17.3606 109.4 17.3557 109.458 17.3628L113.102 17.6657C113.215 17.6594 113.326 17.6984 113.411 17.774C113.496 17.8496 113.547 17.9557 113.553 18.0688C113.559 18.1819 113.52 18.2929 113.444 18.3773C113.368 18.4617 113.262 18.5126 113.149 18.5189V18.5445Z" fill="#FCD844"/>
<path d="M109.757 26.3553C109.644 26.3814 109.524 26.3614 109.426 26.2998C109.327 26.2382 109.257 26.14 109.231 26.0268C109.205 25.9137 109.225 25.7949 109.287 25.6965C109.348 25.598 109.447 25.5281 109.56 25.5021L113.097 24.5764C113.21 24.5517 113.329 24.57 113.429 24.6275C113.529 24.6851 113.605 24.7779 113.64 24.8878C113.657 24.9439 113.662 25.0027 113.655 25.0607C113.648 25.1188 113.629 25.1747 113.599 25.2251C113.569 25.2755 113.53 25.3193 113.482 25.3537C113.435 25.3882 113.381 25.4125 113.324 25.4253L109.787 26.3553H109.757Z" fill="#FCD844"/>
<path d="M113.906 33.7955C113.834 33.8111 113.759 33.808 113.688 33.7863C113.618 33.7646 113.554 33.7252 113.504 33.6717C113.461 33.6318 113.427 33.5836 113.403 33.53C113.38 33.4765 113.368 33.4187 113.368 33.3603C113.368 33.3019 113.38 33.2442 113.403 33.1906C113.427 33.137 113.461 33.0888 113.504 33.0489L116.125 30.4893C116.168 30.4478 116.219 30.4152 116.275 30.3933C116.33 30.3714 116.39 30.3606 116.449 30.3616C116.509 30.3626 116.568 30.3753 116.623 30.3991C116.678 30.4228 116.727 30.4571 116.769 30.4999C116.81 30.5428 116.843 30.5934 116.865 30.6489C116.887 30.7043 116.898 30.7635 116.897 30.8232C116.896 30.8828 116.883 30.9416 116.859 30.9963C116.836 31.051 116.801 31.1005 116.758 31.142L114.132 33.7016C114.067 33.7543 113.989 33.7869 113.906 33.7955Z" fill="#FCD844"/>
<path d="M119.251 39.5033C119.194 39.5147 119.134 39.5141 119.077 39.5016C119.02 39.4892 118.965 39.465 118.918 39.4307C118.869 39.3994 118.827 39.3584 118.794 39.3102C118.761 39.262 118.739 39.2077 118.728 39.1506C118.717 39.0934 118.718 39.0347 118.731 38.978C118.744 38.9213 118.768 38.8677 118.802 38.8207L120.872 35.8345C120.939 35.7377 121.041 35.6713 121.156 35.6497C121.272 35.6281 121.391 35.6531 121.488 35.7193C121.585 35.7855 121.652 35.8874 121.674 36.0026C121.695 36.1178 121.67 36.2369 121.604 36.3336L119.534 39.3198C119.502 39.3679 119.46 39.4089 119.411 39.4404C119.363 39.472 119.308 39.4933 119.251 39.5033Z" fill="#FCD844"/>
<path d="M134.721 43.9016C134.663 43.9132 134.604 43.9128 134.546 43.9003C134.488 43.8878 134.434 43.8636 134.386 43.8291C134.338 43.7947 134.298 43.7507 134.268 43.7001C134.238 43.6494 134.219 43.5931 134.212 43.5347C134.186 43.3598 131.954 29.5763 127.236 24.1968C124.871 25.3358 123.139 25.5918 121.715 25.05C120.458 24.5594 120.278 23.8683 120.351 23.3777C120.522 22.2472 122.275 21.2831 122.968 21.2447C124.632 21.1082 126.107 21.859 127.403 23.1559L127.917 22.8829C128.799 22.4028 129.644 21.8566 130.444 21.249C129.894 20.9316 129.471 20.4342 129.247 19.8412C129.176 19.4917 129.199 19.1297 129.315 18.7923C129.431 18.455 129.635 18.1544 129.905 17.9215C130.101 17.7271 130.346 17.5891 130.614 17.5223C130.882 17.4554 131.163 17.4622 131.428 17.5418C131.855 17.6954 132.407 18.1433 132.608 19.4146C132.689 19.935 132.471 20.4854 131.932 21.0869C132.337 21.2799 132.756 21.4424 133.186 21.5732C133.577 21.6902 133.975 21.78 134.379 21.842C134.644 19.3463 135.324 17.4778 136.658 16.8976C137.26 16.688 137.914 16.6773 138.522 16.8671C139.131 17.0569 139.662 17.437 140.037 17.9513C140.358 18.4462 140.892 19.7857 139.041 21.5177C138.512 21.9768 137.897 22.3264 137.232 22.5461C136.567 22.7658 135.864 22.8513 135.166 22.7976C134.836 28.77 136.522 38.3302 137.514 42.7796C137.526 42.8357 137.528 42.8936 137.518 42.9502C137.508 43.0068 137.487 43.0609 137.457 43.1094C137.426 43.1579 137.386 43.1999 137.339 43.233C137.292 43.2661 137.238 43.2896 137.182 43.3022C137.069 43.3277 136.95 43.3072 136.852 43.2451C136.753 43.1831 136.684 43.0848 136.658 42.9716C136.273 41.2396 133.836 29.9218 134.31 22.7208C133.847 22.6533 133.389 22.5492 132.942 22.4093C132.36 22.234 131.796 22.0055 131.257 21.7268C130.346 22.4473 129.369 23.0814 128.34 23.6209L128.015 23.7958C132.835 29.5038 134.969 42.6773 135.085 43.3939C135.096 43.4513 135.096 43.5104 135.084 43.5676C135.071 43.6249 135.047 43.679 135.013 43.7266C134.979 43.7742 134.936 43.8143 134.885 43.8444C134.835 43.8745 134.779 43.894 134.721 43.9016ZM122.968 22.1022C122.511 22.1875 121.3 22.9085 121.215 23.4887C121.163 23.8257 121.702 24.0859 122.023 24.2139C123.139 24.6405 124.589 24.4314 126.574 23.527C125.509 22.5416 124.324 21.987 123.024 22.0937L122.968 22.1022ZM135.23 21.9188C135.807 21.9638 136.388 21.8947 136.938 21.7153C137.489 21.536 137.998 21.2499 138.438 20.8736C139.421 19.9606 139.721 19.0946 139.293 18.4334C139.034 18.0903 138.675 17.8361 138.265 17.7061C137.855 17.5761 137.414 17.5769 137.005 17.7082C135.974 18.1518 135.435 19.7303 135.226 21.9188H135.23ZM130.893 18.3438C130.742 18.3786 130.603 18.4538 130.491 18.5614C130.339 18.6893 130.223 18.8546 130.155 19.0409C130.087 19.2272 130.069 19.4281 130.102 19.6236C130.158 19.8625 130.53 20.2422 131.133 20.6304C131.702 20.0588 131.757 19.7089 131.731 19.5383C131.629 18.8856 131.411 18.4547 131.128 18.3566C131.053 18.3305 130.971 18.326 130.893 18.3438Z" fill="white"/>
<path d="M138.862 41.0788L131.722 42.7519C130.657 43.0014 129.997 44.0645 130.247 45.1264C130.497 46.1884 131.563 46.847 132.627 46.5976L139.768 44.9244C140.832 44.6749 141.493 43.6118 141.243 42.5499C140.993 41.4879 139.927 40.8293 138.862 41.0788Z" fill="#AAD0F2"/>
<path d="M132.747 49.0303L140.741 47.1571L140.89 47.7884C141.013 48.3119 141.032 48.8546 140.945 49.3854C140.858 49.9161 140.667 50.4246 140.383 50.8818C140.099 51.339 139.728 51.7359 139.29 52.0499C138.852 52.3639 138.357 52.5888 137.832 52.7118C136.772 52.9602 135.656 52.7784 134.73 52.2063C133.805 51.6343 133.145 50.7189 132.896 49.6615L132.747 49.0303Z" fill="#AAD0F2"/>
<path d="M139.885 43.6073L131.907 45.4766L133.026 50.2276L141.003 48.3583L139.885 43.6073Z" fill="#AAD0F2"/>
<path d="M140.533 46.3119L132.603 48.2487C132.441 48.2943 132.268 48.2753 132.119 48.1957C131.971 48.1161 131.859 47.9822 131.808 47.8221C131.79 47.7397 131.789 47.6547 131.805 47.572C131.82 47.4892 131.852 47.4103 131.898 47.3397C131.944 47.2692 132.004 47.2084 132.073 47.1609C132.143 47.1133 132.221 47.08 132.304 47.0628L140.238 45.126C140.399 45.0794 140.573 45.098 140.721 45.1778C140.869 45.2576 140.979 45.3922 141.029 45.5526C141.046 45.6349 141.047 45.7199 141.032 45.8027C141.017 45.8855 140.985 45.9644 140.939 46.035C140.893 46.1055 140.833 46.1663 140.763 46.2138C140.694 46.2613 140.615 46.2947 140.533 46.3119Z" fill="#AAD0F2"/>
<path d="M140.939 48.0611L133.01 49.9978C132.848 50.0457 132.673 50.0277 132.524 49.9478C132.375 49.8679 132.264 49.7326 132.214 49.5712C132.179 49.4044 132.211 49.2303 132.304 49.0871C132.397 48.9439 132.543 48.8434 132.71 48.8076L140.644 46.8708C140.806 46.8254 140.979 46.8445 141.126 46.9242C141.274 47.0038 141.385 47.1377 141.435 47.2974C141.453 47.3801 141.455 47.4655 141.44 47.5488C141.425 47.6321 141.393 47.7115 141.347 47.7825C141.301 47.8536 141.241 47.9147 141.171 47.9626C141.101 48.0104 141.022 48.0438 140.939 48.0611Z" fill="#AAD0F2"/>
<path d="M141.346 49.8144L133.438 51.7512C133.276 51.7967 133.102 51.7777 132.954 51.6981C132.805 51.6186 132.694 51.4846 132.642 51.3245C132.608 51.1578 132.641 50.9842 132.733 50.8414C132.826 50.6985 132.972 50.5978 133.138 50.5609L141.072 48.6284C141.233 48.5818 141.407 48.6005 141.555 48.6802C141.703 48.76 141.814 48.8946 141.863 49.055C141.88 49.1389 141.881 49.2253 141.864 49.3093C141.847 49.3933 141.814 49.473 141.765 49.5438C141.717 49.6146 141.655 49.6751 141.583 49.7215C141.511 49.768 141.43 49.7996 141.346 49.8144Z" fill="#AAD0F2"/>
<path d="M200.935 125.809L205.211 131.116C205.441 131.401 205.752 131.609 206.104 131.712C206.455 131.815 206.829 131.809 207.177 131.694C207.525 131.579 207.829 131.36 208.048 131.068C208.268 130.776 208.393 130.423 208.406 130.058L208.676 122.806L200.935 125.809Z" fill="#2E2E2E"/>
<path d="M239.221 58.3636C237.01 68.0816 229.329 76.1188 223.127 73.2221C215.463 69.6387 215.814 64.609 218.021 54.8782C220.228 45.1474 225.578 39.6741 232.258 41.2013C238.939 42.7286 241.428 48.6327 239.221 58.3636Z" fill="#C6EDFF"/>
<path d="M147.184 65.5431C144.547 64.8658 141.788 64.8103 139.126 65.381C130.744 67.3348 131.3 78.3753 135.367 83.9979C139.994 90.397 150.973 92.9993 158.244 90.0685C165.087 87.3084 163.303 79.4973 160.181 74.5018C157.504 70.2144 152.487 66.8272 147.184 65.5431Z" fill="#C6EDFF"/>
<path d="M223.123 105.533C220.664 113.092 214.569 123.066 204.305 125.775C195.426 128.122 186.825 125.797 179.384 121.194C176.553 119.426 173.901 117.387 171.467 115.106C169.178 112.969 167.056 110.66 165.12 108.199C164.62 107.564 164.132 106.919 163.658 106.25C163.23 105.661 162.815 105.064 162.413 104.458C160.992 102.34 159.706 100.134 158.564 97.8542L158.478 97.6835C156.717 94.1269 155.32 90.4023 154.308 86.5662C153.725 84.3476 153.281 82.0951 152.978 79.8216C151.725 70.351 153.047 60.6245 157.704 51.8919C162.306 43.2489 170.445 37.0589 179.828 34.1026C198.373 28.2538 214.898 40.7064 221.797 55.7441C222.441 57.1571 222.995 58.6089 223.456 60.0912C224.159 62.3623 224.699 64.6804 225.073 67.0278C225.629 70.5214 225.939 74.0495 226.001 77.5862C226.065 80.4743 226.001 83.3112 225.851 85.9818C225.629 90.1284 225.21 93.8825 224.816 96.8516C224.581 98.605 224.355 100.085 224.179 101.207C223.943 102.675 223.59 104.121 223.123 105.533Z" fill="url(#paint0_linear_63_5690)"/>
<path d="M190.495 21.249C187.288 20.2593 184.118 22.3667 182.823 25.2634C182.119 26.9046 181.802 28.6854 181.899 30.4679C181.959 32.025 182.023 34.5121 183.22 35.6512C183.289 35.7144 183.371 35.7612 183.46 35.7879C183.55 35.8146 183.644 35.8206 183.736 35.8054C183.828 35.7901 183.915 35.7541 183.991 35.7C184.067 35.6459 184.13 35.5752 184.174 35.4933C184.679 34.3543 184.242 32.9337 184.093 31.7477C183.872 30.2905 183.898 28.8067 184.17 27.358C184.777 24.5851 187.082 22.098 190.157 22.8147C191.175 23.0365 191.475 21.5477 190.495 21.249Z" fill="#2E2E2E"/>
<path d="M174.64 33.9234C173.678 32.4458 172.365 31.2281 170.817 30.3783C169.14 29.4915 167.251 29.0798 165.355 29.1881C163.811 29.2692 161.596 29.5763 160.702 30.967C160.454 31.3552 160.835 31.7648 161.22 31.7818C162.605 31.8458 164 31.0268 165.437 30.9841C166.966 30.9307 168.483 31.2837 169.831 32.0071C171.179 32.7304 172.311 33.7981 173.109 35.1008C173.776 36.1673 174.072 37.622 174.94 38.5136C174.995 38.5642 175.061 38.6015 175.133 38.6227C175.204 38.644 175.28 38.6486 175.354 38.6363C175.428 38.6239 175.498 38.595 175.559 38.5515C175.62 38.5081 175.67 38.4514 175.705 38.3857C176.338 36.9736 175.432 35.1264 174.64 33.9234Z" fill="#2E2E2E"/>
<path d="M209.141 53.0365C210.008 51.4871 209.762 49.7036 208.592 49.0529C207.422 48.4022 205.772 49.1307 204.906 50.6801C204.039 52.2295 204.285 54.0131 205.455 54.6638C206.624 55.3145 208.275 54.586 209.141 53.0365Z" fill="#EB8757"/>
<path d="M168.491 62.6294C168.743 61.5195 167.556 60.3053 165.84 59.9173C164.124 59.5293 162.528 60.1145 162.276 61.2243C162.024 62.3342 163.211 63.5484 164.927 63.9364C166.643 64.3244 168.239 63.7392 168.491 62.6294Z" fill="#EB8757"/>
<path d="M182.288 117.717C179.247 118.57 178.977 125.515 179.542 127.857C180.081 130.075 181.783 131.116 183.271 128.71C184.498 126.706 185.373 124.507 185.859 122.209C186.325 119.555 185.504 118.975 182.288 117.717Z" fill="url(#paint1_linear_63_5690)"/>
<path d="M217.204 109.402C217.276 111.655 223.833 117.329 225.757 115.396C228.751 112.435 223.73 105.849 220.728 105.094C218.119 104.441 216.673 106.962 217.204 109.402Z" fill="url(#paint2_linear_63_5690)"/>
<path d="M225.077 67.032C218.02 71.682 206.73 78.2986 194.186 82.4495C180.5 86.98 164.158 87.0696 154.313 86.5662C153.728 84.3481 153.283 82.0954 152.982 79.8216C162.049 80.3719 178.733 80.5681 192.09 76.1528C205.151 71.8313 217.02 64.4895 223.461 60.0955C224.163 62.3667 224.703 64.6847 225.077 67.032Z" fill="#2E2E2E"/>
<path d="M225.856 85.9817C218.585 91.1991 207.615 98.2295 197.967 100.84C187.767 103.6 172.212 104.309 162.405 104.462C160.986 102.341 159.7 100.134 158.556 97.8541C167.349 97.8114 185.414 97.355 196.192 94.4413C206.781 91.5745 219.787 82.3258 225.972 77.5947C226.07 80.4786 226.001 83.3112 225.856 85.9817Z" fill="#2E2E2E"/>
<path d="M223.123 105.533C217.183 108.946 209.211 113.408 203.082 116.288C197.3 119.014 187.643 120.443 179.38 121.194C176.548 119.426 173.895 117.387 171.459 115.106C179.966 114.645 193.566 113.429 200.246 110.285C208.064 106.612 219.364 100.068 224.825 96.8516C224.59 98.6049 224.364 100.085 224.192 101.207C223.95 102.675 223.592 104.121 223.123 105.533Z" fill="#2E2E2E"/>
<path d="M149.878 82.7182L148.954 82.3854C147.188 81.737 145.823 81.1056 145.811 83.6652C145.811 85.7513 147.153 87.5601 148.65 88.9125C150.442 90.5378 153.013 92.0352 155.703 91.2588C158.004 90.5933 158.124 87.2316 156.314 85.7897C154.505 84.3478 152.068 83.4989 149.878 82.7182Z" fill="url(#paint3_linear_63_5690)"/>
<path d="M227.956 81.481C228.213 81.6986 228.465 81.9077 228.704 82.1167C230.133 83.3368 231.193 84.4075 232.1 82.0143C232.84 80.0647 232.207 77.8976 231.279 76.1058C230.167 73.9728 228.285 71.6606 225.497 71.4516C223.106 71.2682 221.814 74.3781 223.003 76.3575C224.192 78.337 226.194 79.9794 227.956 81.481Z" fill="url(#paint4_linear_63_5690)"/>
<g style="mix-blend-mode:overlay" opacity="0.3">
<path d="M199.065 38.2661C197.021 37.0375 193.347 36.5042 192.141 36.3037C187.66 35.5518 183.065 35.8438 178.716 37.1569C176.052 37.9717 161.412 45.3733 166.617 49.5498C168.294 50.8936 171.749 50.0148 173.421 49.1232C176.997 47.1949 181.12 46.0516 185.003 44.9467C189.348 43.7138 193.784 43.6072 198.065 42.6089C198.532 42.5204 198.974 42.329 199.358 42.0485C199.742 41.7681 200.059 41.4057 200.284 40.9878C200.823 39.8275 200.19 38.9401 199.065 38.2661Z" fill="white"/>
</g>
<g style="mix-blend-mode:overlay" opacity="0.4">
<path d="M224.043 82.3342C224.363 82.7011 224.577 83.3964 224.594 84.3776C224.757 92.995 223.405 102.201 219.351 110.012C215.369 117.691 206.567 126.97 196.944 123.936C196.073 123.721 195.292 123.237 194.712 122.554C192.351 119.325 200.139 116.71 202.03 115.69C205.917 113.57 209.236 110.547 211.704 106.877C216.408 99.9401 218.773 91.6341 221.814 83.9126C222.516 82.091 223.457 81.6474 224.043 82.3342Z" fill="#2E2E2E"/>
</g>
<path d="M177.72 45.7786C179.564 50.1257 177.224 56.1067 172.67 58.0264C168.115 59.9461 162.324 57.3011 160.481 52.9541C158.637 48.607 161.58 43.3128 166.134 41.3889C170.689 39.4649 175.877 41.4315 177.72 45.7786Z" fill="white"/>
<path d="M169.423 59.0929C165.573 59.0929 161.63 56.7594 160.086 53.1205C158.243 48.7649 160.984 43.0868 165.967 40.9964C168.231 40.0238 170.786 39.9657 173.092 40.8343C174.212 41.2469 175.235 41.8836 176.098 42.7053C176.962 43.527 177.647 44.5163 178.113 45.6123C179.04 47.9881 178.996 50.632 177.989 52.9754C177.056 55.3955 175.204 57.3513 172.836 58.4189C171.755 58.8706 170.594 59.0999 169.423 59.0929ZM169.752 41.0775C168.566 41.0791 167.392 41.3185 166.301 41.7814C161.737 43.7054 159.201 48.8502 160.873 52.7877C162.678 57.0538 168.328 59.3958 172.502 57.6339C174.666 56.6567 176.356 54.8679 177.206 52.6555C178.129 50.5218 178.175 48.1122 177.335 45.945C176.911 44.9549 176.288 44.0616 175.506 43.32C174.723 42.5783 173.797 42.004 172.784 41.6321C171.815 41.2656 170.788 41.0776 169.752 41.0775Z" fill="#2E2E2E"/>
<path d="M171.12 53.8967C173.472 52.9044 174.622 50.3181 173.69 48.12C172.758 45.9219 170.096 44.9444 167.744 45.9367C165.393 46.929 164.242 49.5153 165.174 51.7134C166.107 53.9115 168.769 54.889 171.12 53.8967Z" fill="#2E2E2E"/>
<path d="M170.466 48.8631C170.998 48.8631 171.428 48.4333 171.428 47.9032C171.428 47.3731 170.998 46.9434 170.466 46.9434C169.935 46.9434 169.504 47.3731 169.504 47.9032C169.504 48.4333 169.935 48.8631 170.466 48.8631Z" fill="white"/>
<path d="M172.338 53.8062C173.023 53.5171 173.326 52.6881 173.015 51.9547C172.704 51.2213 171.897 50.8611 171.211 51.1503C170.526 51.4394 170.223 52.2684 170.534 53.0018C170.845 53.7352 171.653 54.0954 172.338 53.8062Z" fill="white"/>
<path d="M203.334 39.465C205.177 43.8121 202.838 49.7888 198.283 51.7128C193.728 53.6367 187.937 50.9833 186.094 46.6362C184.25 42.2891 187.193 36.995 191.748 35.0753C196.303 33.1556 201.486 35.1179 203.334 39.465Z" fill="white"/>
<path d="M195.024 52.7749C191.175 52.7749 187.227 50.4414 185.683 46.8025C183.848 42.4469 186.598 36.7816 191.602 34.6827C193.867 33.7101 196.421 33.6519 198.728 34.5206C199.847 34.9338 200.869 35.5708 201.733 36.3924C202.596 37.2141 203.282 38.203 203.749 39.2986C204.676 41.673 204.631 44.3155 203.625 46.6575C202.684 49.0827 200.823 51.0402 198.445 52.1052C197.361 52.5547 196.198 52.7824 195.024 52.7749ZM195.349 34.7595C194.164 34.7631 192.992 35.0039 191.902 35.4677C187.338 37.3916 184.802 42.5322 186.474 46.4698C188.279 50.7358 193.929 53.0821 198.103 51.3202C200.267 50.3409 201.957 48.5508 202.808 46.3375C203.73 44.2052 203.776 41.7971 202.936 39.6313C202.516 38.6418 201.896 37.7486 201.117 37.0068C200.337 36.2651 199.413 35.6904 198.403 35.3184C197.431 34.9494 196.401 34.76 195.362 34.7595H195.349Z" fill="#2E2E2E"/>
<path d="M196.735 47.5857C199.087 46.5934 200.238 44.0071 199.305 41.809C198.373 39.6109 195.711 38.6334 193.359 39.6257C191.008 40.618 189.857 43.2043 190.79 45.4024C191.722 47.6005 194.384 48.578 196.735 47.5857Z" fill="#2E2E2E"/>
<path d="M196.077 42.5494C196.608 42.5494 197.039 42.1196 197.039 41.5895C197.039 41.0594 196.608 40.6296 196.077 40.6296C195.545 40.6296 195.114 41.0594 195.114 41.5895C195.114 42.1196 195.545 42.5494 196.077 42.5494Z" fill="white"/>
<path d="M197.95 47.4913C198.635 47.2021 198.939 46.3732 198.628 45.6398C198.317 44.9063 197.509 44.5462 196.824 44.8353C196.139 45.1245 195.835 45.9534 196.146 46.6869C196.457 47.4203 197.265 47.7804 197.95 47.4913Z" fill="white"/>
<path d="M178.888 49.3962L178.101 49.0549C178.152 48.9397 179.384 46.2223 181.864 45.4544C183.263 45.0278 184.76 45.3008 186.321 46.2734L185.867 46.9987C184.529 46.1455 183.267 45.9194 182.121 46.2692C180.008 46.9261 178.896 49.3748 178.888 49.3962Z" fill="#2E2E2E"/>
<path d="M213.603 42.191C213.569 42.1951 213.534 42.1951 213.5 42.191C213.445 42.1776 213.393 42.1534 213.348 42.1199C213.302 42.0863 213.264 42.0442 213.235 41.9958C213.206 41.9474 213.187 41.8937 213.179 41.8379C213.171 41.7821 213.174 41.7252 213.188 41.6706C213.337 41.0733 213.32 39.6399 212.593 38.8806C212.36 38.6589 212.072 38.5027 211.759 38.4278C211.446 38.3528 211.118 38.3619 210.81 38.454C208.021 39.0086 204.052 40.9795 204.01 41.0136C203.959 41.0406 203.904 41.0572 203.847 41.0624C203.79 41.0677 203.732 41.0614 203.678 41.0441C203.623 41.0267 203.573 40.9986 203.529 40.9614C203.486 40.9242 203.45 40.8787 203.425 40.8276C203.399 40.7764 203.384 40.7207 203.381 40.6636C203.377 40.6066 203.385 40.5495 203.404 40.4956C203.423 40.4417 203.453 40.3922 203.492 40.35C203.53 40.3078 203.577 40.2738 203.629 40.25C203.796 40.1689 207.743 38.2065 210.643 37.6306C211.982 37.3619 212.781 37.8439 213.209 38.2961C214.142 39.273 214.24 40.9795 214.013 41.8839C213.987 41.9725 213.933 42.0503 213.859 42.1057C213.785 42.1611 213.695 42.191 213.603 42.191Z" fill="#2E2E2E"/>
<path d="M154.031 60.2746C153.968 60.2748 153.907 60.2602 153.851 60.2319C153.047 59.8565 151.631 59.0289 151.212 57.7278C151.103 57.3848 151.068 57.0224 151.11 56.6649C151.152 56.3074 151.27 55.963 151.456 55.6545C152.555 53.6665 155.733 53.2228 158.299 52.8645C159.035 52.7621 159.736 52.664 160.266 52.5403C160.321 52.5276 160.378 52.5259 160.433 52.5351C160.489 52.5444 160.542 52.5644 160.589 52.5941C160.637 52.6239 160.678 52.6627 160.711 52.7083C160.744 52.754 160.767 52.8056 160.779 52.8602C160.792 52.9149 160.794 52.9714 160.785 53.0267C160.775 53.082 160.755 53.135 160.725 53.1825C160.696 53.2301 160.657 53.2713 160.611 53.3038C160.565 53.3364 160.513 53.3596 160.459 53.3722C159.89 53.5044 159.176 53.6025 158.414 53.7092C156.045 54.0419 153.098 54.4515 152.204 56.064C152.076 56.271 151.994 56.5029 151.963 56.7443C151.932 56.9856 151.953 57.2308 152.025 57.4633C152.26 58.1885 153.06 58.918 154.215 59.4598C154.317 59.5079 154.396 59.5947 154.435 59.7011C154.473 59.8075 154.468 59.9248 154.42 60.0272C154.385 60.1012 154.331 60.1639 154.262 60.2078C154.193 60.2516 154.112 60.2748 154.031 60.2746Z" fill="#2E2E2E"/>
<path d="M182.33 62.7107C182.33 62.7107 181.578 66.7122 183.836 67.463H183.904C184.321 67.59 184.763 67.6092 185.188 67.5189C185.614 67.4285 186.01 67.2316 186.339 66.9466C186.667 66.6615 186.918 66.2978 187.066 65.8896C187.215 65.4814 187.257 65.0422 187.189 64.6133L186.842 62.4419L182.33 62.7107Z" fill="white"/>
<path d="M184.675 67.8297C184.392 67.8296 184.11 67.7865 183.841 67.7017L183.768 67.6761C181.364 66.8784 182.091 62.8555 182.121 62.6849C182.13 62.6373 182.155 62.5941 182.191 62.5624C182.228 62.5306 182.274 62.5121 182.322 62.51L186.834 62.2626C186.887 62.2577 186.94 62.2737 186.982 62.3072C187.023 62.3406 187.05 62.3889 187.057 62.4417L187.399 64.6131C187.476 65.0849 187.43 65.5686 187.264 66.0171C187.099 66.4657 186.819 66.8638 186.454 67.1728C185.959 67.5973 185.327 67.8304 184.675 67.8297ZM182.515 62.9281C182.412 63.6661 182.087 66.6736 183.905 67.2751V67.497L183.969 67.2922C184.344 67.4133 184.745 67.4357 185.131 67.3572C185.518 67.2787 185.878 67.102 186.176 66.8443C186.485 66.5837 186.722 66.2474 186.862 65.8682C187.002 65.4891 187.041 65.0801 186.975 64.6814L186.663 62.6977L182.515 62.9281Z" fill="#2E2E2E"/>
<path d="M187.326 62.3309C187.326 62.3309 187.891 66.3622 190.269 66.358H190.32C190.756 66.3467 191.181 66.2249 191.557 66.0041C191.932 65.7833 192.245 65.4709 192.466 65.0961C192.686 64.7214 192.808 64.2967 192.819 63.8622C192.829 63.4276 192.729 62.9975 192.527 62.6124L191.509 60.6628L187.326 62.3309Z" fill="white"/>
<path d="M190.252 66.5712C187.72 66.5712 187.125 62.5313 187.104 62.3564C187.097 62.3093 187.106 62.2612 187.13 62.22C187.154 62.1789 187.192 62.1473 187.236 62.1303L191.436 60.4622C191.485 60.4439 191.54 60.4442 191.588 60.4631C191.637 60.482 191.678 60.5181 191.701 60.5646L192.724 62.5142C192.945 62.9369 193.053 63.4091 193.039 63.8857C193.025 64.3622 192.888 64.8271 192.642 65.236C192.404 65.6378 192.066 65.9717 191.661 66.2056C191.255 66.4394 190.797 66.5653 190.329 66.5712H190.252ZM187.553 62.463C187.69 63.1968 188.348 66.1446 190.252 66.1446H190.32C190.716 66.1389 191.103 66.032 191.445 65.834C191.788 65.6361 192.073 65.3538 192.275 65.0141C192.483 64.6682 192.599 64.2746 192.611 63.8712C192.623 63.4678 192.53 63.0681 192.343 62.7105L191.415 60.9315L187.553 62.463Z" fill="#2E2E2E"/>
<path d="M176.484 63.2055C178.409 63.086 180.333 62.9239 182.215 62.6978C184.111 62.4881 185.991 62.1546 187.843 61.6996C188.768 61.4784 189.679 61.205 190.572 60.8805C191.468 60.5674 192.341 60.1925 193.185 59.7585C194.032 59.3321 194.842 58.8355 195.606 58.274C196.366 57.7006 197.067 57.0548 197.702 56.3457L197.851 56.4609C196.69 58.0378 195.202 59.3471 193.489 60.3003C191.779 61.259 189.952 61.9931 188.053 62.4845C186.167 62.9855 184.241 63.3182 182.296 63.4785C180.357 63.6478 178.406 63.6078 176.476 63.3591L176.484 63.2055Z" fill="#2E2E2E"/>
<path d="M238.43 175.176C238.43 175.176 226.027 160.94 221.349 146.704C216.67 132.469 218.889 134.098 218.889 134.098C218.889 134.098 225.211 147.929 230.009 154.609C234.808 161.29 243.353 171.093 243.353 171.093L238.43 175.176Z" fill="#92CE91"/>
<path d="M240.897 136.317C240.814 136.171 240.682 136.059 240.524 136C240.367 135.94 240.194 135.938 240.035 135.993C239.875 136.047 239.74 136.155 239.653 136.299C239.565 136.442 239.53 136.611 239.554 136.777C240.311 141.777 241.945 153.513 241.881 161.124C241.795 171.012 241.881 174.835 241.881 174.835H247.039C247.039 174.835 246.124 154.392 244.956 148.163C244.143 143.791 242.407 138.94 240.897 136.317Z" fill="#92CE91"/>
<path d="M243.712 173.171C245.875 168.287 247.308 163.112 247.963 157.813C248.391 154.174 247.63 149.255 246.5 142.69C246.064 140.289 245.845 137.853 245.846 135.412C245.849 135.14 245.942 134.876 246.11 134.663C246.279 134.449 246.515 134.297 246.78 134.231C247.044 134.165 247.324 134.189 247.573 134.298C247.823 134.408 248.029 134.597 248.16 134.836C248.784 135.945 250.585 139.734 251.042 142.089C252.291 148.569 253.707 151.811 252.625 157.958C251.543 164.106 247.544 173.585 247.544 173.585L243.712 173.171Z" fill="#92CE91"/>
<path d="M248.36 173.585C248.36 173.585 261.978 144.401 262.902 140.071C263.825 135.741 267.054 125.762 267.435 126.326C267.816 126.889 268.376 132.166 265.925 138.189C263.475 144.213 253.009 174.481 253.009 174.481H248.36" fill="#92CE91"/>
<path d="M242.223 172.279C242.087 172.204 241.958 172.117 241.838 172.019C241.599 171.836 241.231 171.593 240.786 171.217C239.879 170.505 238.609 169.425 237.125 167.992C233.291 164.228 229.97 159.977 227.25 155.347C224.534 150.721 222.275 145.842 220.505 140.779C219.821 138.842 219.321 137.255 218.995 136.15C218.829 135.6 218.717 135.169 218.636 134.871C218.591 134.724 218.555 134.574 218.529 134.423C218.595 134.56 218.649 134.703 218.692 134.849C218.794 135.161 218.931 135.579 219.12 136.103C219.474 137.196 220.005 138.77 220.71 140.698C222.532 145.728 224.808 150.583 227.511 155.202C230.226 159.809 233.509 164.059 237.283 167.851C238.742 169.297 239.986 170.411 240.872 171.132C241.299 171.507 241.658 171.78 241.889 171.985C242.007 172.076 242.118 172.174 242.223 172.279Z" fill="#FCFCFC"/>
<path d="M243.712 158.27C243.644 157.99 243.602 157.704 243.588 157.417C243.523 156.815 243.442 156.026 243.339 155.079C243.121 153.104 242.788 150.386 242.304 147.4C241.821 144.414 241.287 141.718 240.872 139.772C240.671 138.842 240.5 138.066 240.371 137.473C240.294 137.194 240.244 136.908 240.222 136.62C240.331 136.888 240.418 137.165 240.483 137.447C240.637 137.98 240.838 138.761 241.073 139.73C241.539 141.662 242.108 144.354 242.591 147.353C243.074 150.352 243.378 153.086 243.545 155.066C243.626 156.06 243.677 156.862 243.703 157.417C243.732 157.7 243.735 157.986 243.712 158.27Z" fill="#FCFCFC"/>
<path d="M246.902 134.597C246.967 134.716 247.02 134.84 247.061 134.969L247.488 136.052C247.668 136.521 247.873 137.102 248.07 137.788C248.267 138.475 248.536 139.247 248.733 140.126C248.84 140.553 248.955 141.022 249.071 141.5C249.186 141.978 249.268 142.481 249.37 143.001C249.593 144.038 249.729 145.16 249.896 146.342C250.516 151.481 250.328 156.686 249.34 161.768C249.092 162.932 248.874 164.046 248.579 165.061C248.438 165.573 248.318 166.072 248.173 166.537C248.027 167.002 247.873 167.454 247.745 167.885C247.484 168.738 247.168 169.498 246.915 170.168C246.663 170.837 246.423 171.4 246.21 171.874L245.726 172.928C245.674 173.052 245.611 173.172 245.538 173.286C245.571 173.155 245.616 173.026 245.671 172.902C245.782 172.633 245.923 172.275 246.098 171.831C246.274 171.388 246.526 170.803 246.757 170.125C246.988 169.447 247.296 168.7 247.54 167.838C247.672 167.412 247.809 166.959 247.967 166.495C248.126 166.03 248.22 165.526 248.357 165.018C248.643 164.003 248.848 162.885 249.092 161.734C250.043 156.671 250.229 151.494 249.644 146.376C249.486 145.203 249.357 144.081 249.148 143.048C249.045 142.532 248.972 142.029 248.865 141.551L248.545 140.182C248.365 139.303 248.117 138.526 247.929 137.84C247.741 137.153 247.557 136.56 247.394 136.091C247.232 135.621 247.129 135.271 247.035 134.99C246.978 134.864 246.934 134.732 246.902 134.597Z" fill="#FCFCFC"/>
<path d="M267.303 126.914C267.308 126.958 267.308 127.003 267.303 127.047L267.239 127.426C267.179 127.755 267.106 128.25 266.974 128.877C266.708 130.131 266.272 131.94 265.592 134.132C264.912 136.325 263.984 138.893 262.881 141.717C261.777 144.542 260.503 147.622 259.297 150.898C258.091 154.174 257.124 157.365 256.234 160.262C255.345 163.158 254.524 165.765 253.711 167.915C253.091 169.617 252.377 171.283 251.573 172.906C251.295 173.482 251.042 173.913 250.884 174.212L250.692 174.545C250.708 174.548 250.723 174.557 250.734 174.571C250.744 174.584 250.749 174.601 250.747 174.618C250.745 174.635 250.737 174.651 250.725 174.662C250.712 174.673 250.696 174.68 250.679 174.68C250.662 174.68 250.645 174.673 250.633 174.662C250.62 174.651 250.612 174.635 250.611 174.618C250.609 174.601 250.614 174.584 250.624 174.571C250.634 174.557 250.649 174.548 250.666 174.545L250.833 174.195C250.974 173.892 251.209 173.452 251.47 172.868C252.022 171.712 252.753 170.01 253.531 167.855C254.31 165.701 255.122 163.103 255.991 160.198C256.859 157.293 257.804 154.093 259.036 150.813C260.267 147.532 261.503 144.439 262.598 141.632C263.693 138.825 264.664 136.261 265.365 134.081C266.067 131.901 266.537 130.11 266.832 128.864C266.982 128.241 267.076 127.755 267.153 127.426C267.187 127.277 267.217 127.153 267.243 127.051C267.257 127.003 267.277 126.957 267.303 126.914Z" fill="#FCFCFC"/>
<path d="M225.308 120.468C225.12 120.29 224.879 120.178 224.621 120.151C224.363 120.124 224.103 120.184 223.883 120.32C223.662 120.456 223.493 120.661 223.402 120.904C223.311 121.146 223.303 121.411 223.379 121.659C223.845 123.16 224.417 124.627 225.09 126.048C226.963 130.016 232.459 144.251 235.034 152.071C237.608 159.891 241.235 174.481 241.235 174.481L246.731 173.589C246.731 173.589 241.701 149.622 236.791 140.988C232.84 134.047 228.892 124.018 225.308 120.468Z" fill="#92CE91"/>
<path d="M236.539 156.96C236.656 157.169 236.75 157.389 236.821 157.617C236.984 158.044 237.206 158.675 237.454 159.46C237.963 161.021 238.583 163.205 239.203 165.633C239.824 168.06 240.345 170.27 240.709 171.87C240.871 172.629 241.013 173.265 241.137 173.768C241.202 173.999 241.241 174.237 241.252 174.476C241.153 174.259 241.079 174.032 241.03 173.798C240.893 173.295 240.726 172.667 240.525 171.917C240.097 170.27 239.55 168.103 238.943 165.705C238.335 163.308 237.732 161.094 237.275 159.52C237.061 158.773 236.877 158.15 236.732 157.655C236.642 157.431 236.578 157.198 236.539 156.96Z" fill="#FCFCFC"/>
<path d="M243.998 174.054C243.998 174.054 243.998 174.003 243.964 173.905C243.93 173.807 243.93 173.649 243.904 173.478C243.844 173.098 243.793 172.535 243.677 171.819C243.476 170.377 243.117 168.303 242.527 165.769C241.825 162.807 240.969 159.884 239.961 157.011C238.836 153.765 237.42 150.254 235.817 146.623C232.583 139.371 229.354 132.934 227.233 128.173C226.159 125.801 225.33 123.864 224.782 122.512C224.504 121.838 224.303 121.309 224.162 120.955L224.013 120.528C223.991 120.482 223.977 120.433 223.97 120.383C223.997 120.425 224.019 120.469 224.038 120.515L224.218 120.912L224.876 122.435C225.454 123.77 226.313 125.694 227.408 128.053C229.581 132.789 232.836 139.205 236.078 146.474C237.681 150.109 239.071 153.632 240.205 156.892C241.208 159.776 242.051 162.715 242.728 165.693C243.181 167.701 243.532 169.732 243.78 171.776C243.878 172.501 243.913 173.056 243.951 173.448C243.951 173.623 243.977 173.768 243.985 173.875C243.999 173.933 244.003 173.994 243.998 174.054Z" fill="#FCFCFC"/>
<path d="M246.731 173.585C246.643 173.284 246.582 172.975 246.547 172.663C246.436 172.023 246.295 171.17 246.12 170.146C245.739 168.013 245.162 165.095 244.332 161.913C243.502 158.73 242.579 155.889 241.864 153.85C241.518 152.869 241.227 152.058 241.009 151.444C240.886 151.155 240.788 150.857 240.714 150.552C240.871 150.825 241.004 151.11 241.112 151.406C241.351 151.965 241.68 152.775 242.061 153.786C243.058 156.426 243.914 159.115 244.627 161.845C245.338 164.571 245.909 167.332 246.338 170.116C246.496 171.187 246.616 172.053 246.676 172.655C246.719 172.963 246.738 173.274 246.731 173.585Z" fill="#FCFCFC"/>
<path d="M258.013 172.8H236.561V198.87H258.013V172.8Z" fill="#99CAD3"/>
<path d="M251.167 172.8H232.135V198.87H251.167V172.8Z" fill="#A0E0ED"/>
<path d="M278.358 200H0.641527C0.471383 200 0.308208 199.933 0.187899 199.813C0.0675892 199.693 0 199.53 0 199.36C0 199.19 0.0675892 199.028 0.187899 198.908C0.308208 198.788 0.471383 198.72 0.641527 198.72H278.358C278.529 198.72 278.692 198.788 278.812 198.908C278.932 199.028 279 199.19 279 199.36C279 199.53 278.932 199.693 278.812 199.813C278.692 199.933 278.529 200 278.358 200Z" fill="#2E2E2E"/>
<path d="M49.8256 151.116C44.8688 147.946 37.9959 147.886 33.1673 151.252C28.5868 154.43 26.2602 160.262 26.4612 165.833C26.6622 171.405 29.3695 178.205 34.4333 181.144L49.291 181.089C54.034 177.608 57.2417 172.002 57.4684 166.132C57.695 160.262 54.7868 154.285 49.8256 151.116Z" fill="#92CE91"/>
<path d="M42.5119 181.682C42.4381 181.259 42.4066 180.83 42.4178 180.402C42.3921 179.489 42.3579 178.32 42.3194 176.925C42.2424 173.99 42.127 169.937 41.9302 165.462C41.7335 160.987 41.5025 156.93 41.3101 154.012C41.2245 152.613 41.1561 151.453 41.1005 150.54C41.0576 150.114 41.0576 149.685 41.1005 149.26C41.2072 149.679 41.2744 150.108 41.3015 150.54C41.4042 151.359 41.5239 152.54 41.6608 154.004C41.9302 156.93 42.2253 160.979 42.4221 165.458C42.6188 169.937 42.6829 173.99 42.6701 176.938C42.6701 178.405 42.6701 179.596 42.6188 180.415C42.623 180.839 42.5872 181.264 42.5119 181.682Z" fill="white"/>
<path d="M27.9576 164.575C27.9576 164.703 27.1407 164.745 26.157 164.664C25.1734 164.583 24.3821 164.413 24.3907 164.28C24.3992 164.148 25.2076 164.11 26.1955 164.191C27.1835 164.272 27.9704 164.442 27.9576 164.575Z" fill="#1A2E35"/>
<path d="M28.227 159.575C28.1714 159.694 27.4785 159.502 26.6702 159.148C25.8619 158.794 25.2546 158.406 25.3102 158.295C25.3658 158.184 26.0586 158.368 26.8627 158.722C27.6667 159.076 28.2869 159.456 28.227 159.575Z" fill="#1A2E35"/>
<path d="M30.8146 155.859C30.7462 155.97 29.9593 155.603 29.1509 154.929C28.3426 154.255 27.8251 153.56 27.9192 153.47C28.0133 153.381 28.6634 153.897 29.4503 154.562C30.2373 155.228 30.8873 155.748 30.8146 155.859Z" fill="#1A2E35"/>
<path d="M33.4105 152.361C33.2908 152.412 32.9144 151.828 32.5551 151.051C32.1959 150.275 32.0291 149.61 32.1275 149.554C32.2258 149.499 32.6236 150.087 32.9828 150.864C33.3421 151.64 33.5303 152.297 33.4105 152.361Z" fill="#1A2E35"/>
<path d="M37.4775 149.874C37.3621 149.93 36.9558 149.307 36.6906 148.445C36.4254 147.583 36.3998 146.841 36.5238 146.82C36.6478 146.798 36.883 147.472 37.1439 148.304C37.4048 149.136 37.5973 149.819 37.4775 149.874Z" fill="#1A2E35"/>
<path d="M44.2698 147.076C44.3938 147.118 44.3168 147.647 44.103 148.261C43.8891 148.876 43.6111 149.332 43.4871 149.29C43.3631 149.247 43.4358 148.714 43.6539 148.104C43.872 147.494 44.1458 147.029 44.2698 147.076Z" fill="#1A2E35"/>
<path d="M49.3076 149.23C49.3974 149.328 49.0724 149.767 48.5848 150.22C48.0973 150.672 47.6311 150.953 47.5413 150.86C47.4515 150.766 47.7765 150.322 48.2641 149.87C48.7516 149.418 49.2178 149.136 49.3076 149.23Z" fill="#1A2E35"/>
<path d="M53.7429 152.088C53.8156 152.195 53.4221 152.587 52.8619 152.967C52.3016 153.347 51.7884 153.564 51.7157 153.457C51.643 153.351 52.0364 152.954 52.5967 152.574C53.157 152.195 53.6702 151.977 53.7429 152.088Z" fill="#1A2E35"/>
<path d="M56.8825 156.346C56.9338 156.465 56.3136 156.845 55.4968 157.199C54.6799 157.553 53.9742 157.728 53.9229 157.625C53.8716 157.523 54.4917 157.126 55.3086 156.772C56.1255 156.418 56.8397 156.226 56.8825 156.346Z" fill="#1A2E35"/>
<path d="M58.1305 160.991C58.1305 161.119 57.5146 161.307 56.7191 161.418C55.9236 161.529 55.265 161.49 55.2521 161.358C55.2393 161.226 55.8637 161.047 56.6592 160.932C57.4547 160.816 58.1134 160.863 58.1305 160.991Z" fill="#1A2E35"/>
<path d="M58.7766 166.708C58.7253 166.827 58.0496 166.652 57.2712 166.315C56.4928 165.978 55.9069 165.607 55.9582 165.488C56.0095 165.368 56.6853 165.543 57.4637 165.88C58.242 166.217 58.828 166.588 58.7766 166.708Z" fill="#1A2E35"/>
<path d="M58.2081 171.614C58.1653 171.733 57.3142 171.533 56.4246 170.948C55.535 170.364 55.009 169.668 55.0988 169.587C55.1886 169.506 55.843 170.014 56.6855 170.556C57.528 171.098 58.2551 171.494 58.2081 171.614Z" fill="#1A2E35"/>
<path d="M55.6457 176.085C55.5688 176.183 54.893 175.786 54.2429 175.086C53.5929 174.387 53.2422 173.687 53.3491 173.615C53.456 173.542 53.9649 174.097 54.5894 174.766C55.2138 175.436 55.7313 175.978 55.6457 176.085Z" fill="#1A2E35"/>
<path d="M31.3279 176.613C31.3878 176.729 30.6778 177.215 29.7369 177.705C28.796 178.196 27.992 178.49 27.9278 178.375C27.8637 178.26 28.5822 177.769 29.5188 177.283C30.4554 176.797 31.268 176.49 31.3279 176.613Z" fill="#1A2E35"/>
<path d="M29.1038 172.565C29.1594 172.685 28.5906 173.06 27.8208 173.418C27.051 173.777 26.4051 173.943 26.3538 173.824C26.3025 173.704 26.867 173.333 27.6369 172.97C28.4067 172.608 29.0525 172.45 29.1038 172.565Z" fill="#1A2E35"/>
<path d="M27.4699 168.99C27.4699 169.118 26.7899 169.323 25.9046 169.451C25.0193 169.579 24.2879 169.57 24.2708 169.451C24.2537 169.331 24.9508 169.114 25.8361 168.99C26.7214 168.866 27.4528 168.858 27.4699 168.99Z" fill="#1A2E35"/>
<path d="M32.8294 167.015C32.8679 167.139 32.1836 167.442 31.2684 167.557C30.3531 167.672 29.6175 167.506 29.6261 167.378C29.6346 167.25 30.3488 167.19 31.217 167.087C32.0852 166.985 32.7909 166.887 32.8294 167.015Z" fill="#1A2E35"/>
<path d="M37.2769 162.6C37.3154 162.723 36.7722 162.996 36.0366 163.069C35.301 163.141 34.7108 162.979 34.7279 162.851C34.745 162.723 35.3053 162.668 36.011 162.595C36.7166 162.523 37.2384 162.472 37.2769 162.6Z" fill="#1A2E35"/>
<path d="M38.1285 159.063C38.0858 159.187 37.4956 159.093 36.8113 158.858C36.127 158.624 35.6052 158.329 35.648 158.206C35.6907 158.082 36.2809 158.176 36.9652 158.41C37.6495 158.645 38.1713 158.939 38.1285 159.063Z" fill="#1A2E35"/>
<path d="M39.7744 155.484C39.6803 155.573 39.274 155.309 38.9874 154.806C38.7009 154.302 38.6667 153.824 38.7907 153.79C38.9147 153.756 39.1371 154.127 39.398 154.571C39.6589 155.015 39.8556 155.394 39.7744 155.484Z" fill="#1A2E35"/>
<path d="M37.7946 170.134C37.8245 170.257 37.3113 170.492 36.6527 170.654C36.3396 170.736 36.0183 170.783 35.6947 170.795L35.6006 170.517C35.7717 170.488 35.8829 170.517 35.9042 170.547C35.9256 170.577 35.8572 170.684 35.7161 170.786L35.622 170.509C35.9166 170.372 36.2248 170.266 36.5415 170.193C37.2087 170.031 37.7604 170.006 37.7946 170.134Z" fill="#1A2E35"/>
<path d="M38.71 176.405C38.7571 176.524 38.107 176.895 37.2559 177.228C36.4048 177.561 35.6735 177.736 35.6264 177.612C35.5794 177.488 36.2295 177.121 37.0805 176.788C37.9316 176.456 38.663 176.281 38.71 176.405Z" fill="#1A2E35"/>
<path d="M33.6845 173.627C33.7273 173.751 33.291 174.011 32.7136 174.208C32.1363 174.404 31.6316 174.459 31.5888 174.336C31.5461 174.212 31.9823 173.956 32.5597 173.76C33.1371 173.563 33.6417 173.495 33.6845 173.627Z" fill="#1A2E35"/>
<path d="M34.0695 160.85C34.0395 160.974 33.2825 160.902 32.4058 160.59C31.529 160.279 30.896 159.865 30.9516 159.737C31.0072 159.609 31.7172 159.835 32.564 160.134C33.4108 160.432 34.0994 160.722 34.0695 160.85Z" fill="#1A2E35"/>
<path d="M46.2327 159.464C46.3055 159.571 45.8778 159.98 45.279 160.373C44.6803 160.765 44.1414 160.996 44.0687 160.885C43.996 160.774 44.4194 160.369 45.0181 159.976C45.6169 159.584 46.16 159.353 46.2327 159.464Z" fill="#1A2E35"/>
<path d="M46.8916 165.761C46.9216 165.889 46.4639 166.089 45.8951 166.209C45.3263 166.328 44.8216 166.324 44.796 166.209C44.7703 166.094 45.2236 165.88 45.7967 165.761C46.3698 165.641 46.866 165.633 46.8916 165.761Z" fill="#1A2E35"/>
<path d="M47.6615 172.842C47.6059 172.962 46.9601 172.783 46.2202 172.416C45.4803 172.049 44.9371 171.703 44.9799 171.584C45.0227 171.464 45.6813 171.648 46.4212 171.989C47.1611 172.33 47.7171 172.723 47.6615 172.842Z" fill="#1A2E35"/>
<path d="M46.0355 179.741C45.9328 179.822 45.5137 179.481 45.0989 178.977C44.684 178.474 44.4317 177.996 44.53 177.915C44.6284 177.834 45.0518 178.171 45.4667 178.674C45.8815 179.178 46.1338 179.655 46.0355 179.741Z" fill="#1A2E35"/>
<path d="M45.7024 154.827C45.7836 154.925 45.5056 155.275 45.0309 155.51C44.5562 155.744 44.1157 155.761 44.0814 155.638C44.0472 155.514 44.3936 155.301 44.8171 155.087C45.2405 154.874 45.6211 154.72 45.7024 154.827Z" fill="#1A2E35"/>
<path d="M51.6643 161.179C51.7071 161.298 51.1553 161.606 50.3812 161.704C49.6071 161.802 49.0169 161.67 49.0255 161.542C49.034 161.414 49.6157 161.337 50.3085 161.234C51.0014 161.132 51.6215 161.051 51.6643 161.179Z" fill="#1A2E35"/>
<path d="M50.4672 155.475C50.527 155.59 49.9796 155.979 49.1841 156.226C48.3886 156.474 47.7343 156.474 47.7172 156.35C47.7 156.226 48.3031 156.013 49.043 155.774C49.7829 155.535 50.4158 155.356 50.4672 155.475Z" fill="#1A2E35"/>
<path d="M52.9646 170.01C52.9646 170.138 52.028 170.219 50.8947 170.01C49.7613 169.801 48.9188 169.404 48.9615 169.28C49.0043 169.157 49.8896 169.349 50.9802 169.545C52.0708 169.741 52.9689 169.878 52.9646 170.01Z" fill="#1A2E35"/>
<path d="M50.7491 178.295C50.6721 178.397 49.9793 177.992 49.295 177.301C48.6107 176.609 48.2001 175.923 48.3028 175.842C48.4054 175.761 48.9614 176.298 49.6286 176.968C50.2958 177.638 50.8304 178.192 50.7491 178.295Z" fill="#1A2E35"/>
<path d="M41.0106 148.735C41.0791 148.837 39.1203 149.627 36.8535 152.011C34.5868 154.396 32.2474 158.457 31.6743 163.432C31.4542 165.767 31.5592 168.121 31.9865 170.428C32.3208 172.322 32.7591 174.196 33.2995 176.042C33.7528 177.625 34.1549 178.887 34.4542 179.766C34.6233 180.214 34.7563 180.675 34.852 181.144C34.6199 180.725 34.428 180.285 34.2789 179.83C33.9453 178.977 33.4748 177.697 32.9958 176.14C32.4059 174.291 31.9302 172.408 31.5716 170.5C31.1158 168.159 30.9977 165.764 31.2209 163.389C31.8111 158.3 34.2575 154.11 36.6312 151.794C37.5522 150.853 38.5949 150.04 39.7319 149.375C40.1253 149.128 40.4675 148.995 40.6813 148.88C40.8952 148.765 41.0021 148.718 41.0106 148.735Z" fill="white"/>
<path d="M47.473 181.447C47.3704 181.396 48.5379 179.604 49.6114 176.366C51.0442 172.169 51.4834 167.698 50.8945 163.303C50.5734 160.894 49.893 158.546 48.8758 156.337C48.0322 154.55 46.8733 152.928 45.4543 151.55C44.4508 150.665 43.3115 149.944 42.0799 149.417C41.2245 149.051 40.6771 148.965 40.6856 148.927C40.8147 148.913 40.9452 148.923 41.0706 148.957C41.4357 149.022 41.7947 149.118 42.1441 149.243C43.4323 149.714 44.6279 150.407 45.6767 151.29C47.1639 152.668 48.3782 154.312 49.2564 156.136C50.3167 158.377 51.0236 160.767 51.3521 163.222C51.9567 167.681 51.468 172.219 49.9279 176.447C49.6585 177.266 49.312 177.966 49.0725 178.58C48.833 179.194 48.5166 179.719 48.2856 180.137C48.0549 180.597 47.7829 181.036 47.473 181.447Z" fill="white"/>
<path d="M29.1035 180.329H55.2521L55.4104 185.551H29.1035V180.329Z" fill="#A0E0ED"/>
<path d="M31.3281 182.94L32.8293 198.874H51.9425L53.4779 183.115L31.3281 182.94Z" fill="#A0E0ED"/>
<path d="M55.4106 185.611C55.4106 185.743 49.5214 185.85 42.2636 185.85C35.0058 185.85 29.1123 185.743 29.1123 185.611C29.1123 185.478 34.9972 185.376 42.2636 185.376C49.53 185.376 55.4106 185.483 55.4106 185.611Z" fill="white"/>
<path d="M52.7549 190.466C52.6192 190.824 52.4304 191.161 52.1947 191.464C51.607 192.329 50.9274 193.129 50.1674 193.848L50.0477 193.964L49.9279 193.84C48.356 192.197 46.6382 190.699 44.7957 189.365H45.0823L42.8113 191.353L40.134 193.678L39.9886 193.81L39.8389 193.682L35.4722 190.022L35.7288 189.996L33.4706 192.744C33.208 193.096 32.9099 193.42 32.5811 193.712C32.7888 193.325 33.0338 192.959 33.3124 192.62C33.8769 191.865 34.5954 190.913 35.4508 189.774L35.5577 189.629L35.7032 189.749C36.9862 190.781 38.4831 191.993 40.134 193.332H39.8389L42.5119 190.986L44.7915 189.007L44.9326 188.883L45.0823 188.994C46.9371 190.354 48.6456 191.902 50.1803 193.614H49.9408C51.8782 191.848 52.678 190.41 52.7549 190.466Z" fill="white"/>
<defs>
<linearGradient id="paint0_linear_63_5690" x1="185.025" y1="6.45525" x2="190.967" y2="103.655" gradientUnits="userSpaceOnUse">
<stop offset="0.15" stop-color="#FFE26A"/>
<stop offset="0.42" stop-color="#FFE071"/>
<stop offset="0.69" stop-color="#FFD465"/>
<stop offset="0.97" stop-color="#FFCB75"/>
<stop offset="1" stop-color="#FFC05E"/>
</linearGradient>
<linearGradient id="paint1_linear_63_5690" x1="4406.84" y1="5876.3" x2="6506.38" y2="7092.65" gradientUnits="userSpaceOnUse">
<stop offset="0.15" stop-color="#FCD844"/>
<stop offset="0.42" stop-color="#FCD443"/>
<stop offset="0.69" stop-color="#FCC740"/>
<stop offset="0.97" stop-color="#FBB33C"/>
<stop offset="1" stop-color="#FBB03B"/>
</linearGradient>
<linearGradient id="paint2_linear_63_5690" x1="6953.45" y1="4431.82" x2="9064.03" y2="6442.2" gradientUnits="userSpaceOnUse">
<stop offset="0.15" stop-color="#FCD844"/>
<stop offset="0.42" stop-color="#FCD443"/>
<stop offset="0.69" stop-color="#FCC740"/>
<stop offset="0.97" stop-color="#FBB33C"/>
<stop offset="1" stop-color="#FBB03B"/>
</linearGradient>
<linearGradient id="paint3_linear_63_5690" x1="521.844" y1="8870.83" x2="1996.13" y2="11481.2" gradientUnits="userSpaceOnUse">
<stop offset="0.15" stop-color="#FCD844"/>
<stop offset="0.42" stop-color="#FCD443"/>
<stop offset="0.69" stop-color="#FCC740"/>
<stop offset="0.97" stop-color="#FBB33C"/>
<stop offset="1" stop-color="#FBB03B"/>
</linearGradient>
<linearGradient id="paint4_linear_63_5690" x1="3052.45" y1="7764.92" x2="3782.15" y2="10802.6" gradientUnits="userSpaceOnUse">
<stop offset="0.15" stop-color="#FCD844"/>
<stop offset="0.42" stop-color="#FCD443"/>
<stop offset="0.69" stop-color="#FCC740"/>
<stop offset="0.97" stop-color="#FBB33C"/>
<stop offset="1" stop-color="#FBB03B"/>
</linearGradient>
</defs>
</svg>
