<svg width="268" height="198" viewBox="0 0 268 198" fill="none" xmlns="http://www.w3.org/2000/svg">
<path d="M7.87981 97.2644C7.87981 97.2644 3.05378 97.9507 5.79729 108.524C8.5408 119.097 10.8543 124.563 10.8543 124.563C10.8543 124.563 11.2246 126.957 9.29337 126.893C7.36216 126.829 3.42409 125.281 2.09415 127.368C0.716418 129.538 1.93487 132.156 4.96906 134.865C8.00324 137.574 14.438 143.79 15.0193 144.353C15.6007 144.915 16.0227 146.08 14.6968 146.248C13.3708 146.415 3.97757 145.334 3.73468 149.839C3.49178 154.343 13.1916 160.527 14.2389 161.222C15.2861 161.916 15.4533 162.466 15.2184 163.077C14.9835 163.687 11.8617 163.025 9.17392 162.83C6.48615 162.634 3.34047 162.873 3.41613 165.483C3.49178 168.092 8.59256 174.659 23.4449 179.523L30.4729 181.322L35.6494 176.184C46.054 164.513 47.1729 156.262 45.9346 153.968C44.6962 151.674 41.8492 153.046 39.6233 154.567C37.3974 156.087 35.0402 158.229 34.5185 157.818C33.9969 157.407 33.8814 156.853 34.4349 155.724C34.9884 154.594 40.2803 144.361 37.8155 140.59C35.3507 136.82 27.7613 142.481 26.5349 143.008C25.3085 143.535 25.0974 142.294 25.3124 141.532C25.5275 140.77 27.9843 132.148 29.2465 128.269C30.5088 124.391 30.2539 121.523 27.9763 120.342C25.7783 119.201 23.1543 122.532 21.5177 123.561C19.8812 124.591 19.0012 122.329 19.0012 122.329C19.0012 122.329 18.2725 116.452 15.3379 105.914C12.4032 95.3772 7.7723 97.2844 7.7723 97.2844" fill="#92CE91"/>
<path d="M30.4694 183.066C28.3471 175.322 24.7992 161.493 21.7093 149.635C18.6194 137.777 15.7843 127.057 13.7017 119.312C12.6545 115.442 11.8104 112.31 11.221 110.136C10.9343 109.058 10.7074 108.22 10.5521 107.638C10.4764 107.359 10.4207 107.143 10.3809 106.988C10.341 106.832 10.3291 106.764 10.3291 106.764C10.3585 106.836 10.3838 106.909 10.4048 106.984C10.4486 107.135 10.5123 107.351 10.5959 107.626C10.7591 108.204 10.9941 109.042 11.3086 110.112C11.9219 112.27 12.7939 115.402 13.8531 119.288C15.9794 127.033 18.8224 137.753 21.9283 149.611C25.0342 161.469 28.5502 175.302 30.6367 183.058" fill="#E1E1E1"/>
<path d="M7.51758 129.774C7.68121 129.837 7.83638 129.92 7.97948 130.021C8.27413 130.189 8.68427 130.448 9.19395 130.775C10.2093 131.425 11.5831 132.371 13.0922 133.42L16.9267 136.145L18.0974 136.943C18.24 137.035 18.3733 137.141 18.4956 137.259C18.33 137.199 18.1732 137.117 18.0297 137.015C17.739 136.844 17.3249 136.588 16.8352 136.257C15.8277 135.595 14.446 134.641 12.9568 133.584L9.10236 130.887L7.92771 130.089C7.7808 129.998 7.6434 129.892 7.51758 129.774Z" fill="#E1E1E1"/>
<path d="M19.1134 136.935C19.0616 136.899 20.8614 133.967 23.1311 130.384C25.4008 126.801 27.2842 123.92 27.336 123.952C27.3877 123.984 25.5919 126.917 23.3222 130.504C21.0526 134.091 19.1492 136.967 19.1134 136.935Z" fill="#E1E1E1"/>
<path d="M23.043 155.353C23.1633 155.216 23.2967 155.092 23.4412 154.982L24.5202 154.008C25.444 153.21 26.7103 152.065 28.0601 150.764C29.41 149.464 30.6046 148.255 31.4567 147.365L32.4641 146.316C32.5825 146.178 32.7161 146.055 32.8623 145.948C32.7708 146.102 32.6626 146.245 32.5397 146.375C32.3168 146.639 31.9942 147.018 31.5801 147.477C30.7559 148.39 29.5892 149.627 28.2274 150.928C26.8656 152.229 25.5834 153.346 24.6437 154.12C24.1698 154.519 23.7796 154.822 23.5049 155.029C23.3647 155.156 23.2096 155.264 23.043 155.353Z" fill="#E1E1E1"/>
<path d="M11.1494 151.187C11.3145 151.204 11.4765 151.243 11.6312 151.303L12.9174 151.702C14.0004 152.041 15.4936 152.532 17.1342 153.082C18.7747 153.633 20.2639 154.148 21.335 154.527L22.5973 154.99C22.7556 155.039 22.9079 155.106 23.0512 155.189C22.8866 155.17 22.7249 155.131 22.5694 155.073L21.2833 154.674C20.2002 154.331 18.707 153.844 17.0625 153.294C15.418 152.743 13.9367 152.229 12.8656 151.846L11.6033 151.383C11.4453 151.335 11.2931 151.269 11.1494 151.187Z" fill="#E1E1E1"/>
<path d="M12.5703 167.893C12.7804 167.923 12.987 167.974 13.1875 168.044L14.836 168.543C16.2257 168.974 18.1449 169.584 20.2553 170.275C22.3657 170.965 24.281 171.595 25.6587 172.066L27.2873 172.632C27.4901 172.692 27.6862 172.772 27.8727 172.872C27.6641 172.838 27.4589 172.786 27.2594 172.716L25.607 172.218C24.2173 171.787 22.298 171.164 20.1876 170.486C18.0772 169.808 16.1659 169.169 14.7882 168.695L13.1596 168.128C12.9575 168.065 12.7605 167.986 12.5703 167.893Z" fill="#E1E1E1"/>
<path d="M27.543 172.648C27.6863 172.473 27.8448 172.31 28.0168 172.162L29.3587 170.889C30.4896 169.816 32.0465 168.324 33.7388 166.632C35.4311 164.94 36.8884 163.368 37.9476 162.223L39.2059 160.866C39.3492 160.692 39.5093 160.531 39.6837 160.388C39.5658 160.578 39.4326 160.758 39.2855 160.926C39.0068 161.261 38.5967 161.744 38.091 162.331C37.0318 163.504 35.5545 165.096 33.8781 166.775C32.2018 168.455 30.6249 169.967 29.4662 171.009C28.8849 171.527 28.411 171.946 28.0765 172.23C27.91 172.383 27.7316 172.523 27.543 172.648Z" fill="#E1E1E1"/>
<path d="M231.132 183.641C219.397 177.133 214.985 162.65 213.611 149.272C213.384 147.042 212.843 144.728 213.568 142.641C214.292 140.554 216.415 138.902 218.398 139.585C220.046 140.147 220.974 141.979 222.049 143.443C223.45 145.375 225.369 146.869 227.584 147.752C229.005 148.302 230.698 148.526 231.9 147.576C233.549 146.272 233.401 143.586 233.095 141.384C232.513 137.267 231.935 133.144 231.359 129.016C231.052 126.805 230.741 124.547 231.1 122.361C231.458 120.174 232.617 118.028 234.5 117.174C236.384 116.32 238.976 117.174 239.677 119.296C239.971 120.174 239.924 121.132 240.107 122.041C240.29 122.951 240.824 123.913 241.672 124.036C242.52 124.16 243.264 123.438 243.802 122.708C245.63 120.182 246.689 117.122 247.656 114.058C248.624 110.993 249.54 107.901 251.145 105.2C252.749 102.499 255.166 100.201 258.097 99.6144C261.028 99.0279 264.44 100.548 265.607 103.552C266.773 106.557 265.499 109.964 263.99 112.729C261.783 116.817 258.996 120.562 255.716 123.849C255.134 124.435 254.497 125.066 254.362 125.919C254.111 127.456 255.612 128.74 257.034 129.036C258.646 129.375 260.291 128.972 261.927 128.952C263.564 128.932 265.412 129.454 266.236 130.999C267.387 133.141 265.941 135.754 264.412 137.546C261.399 141.117 257.778 144.124 253.717 146.427C252.279 147.225 250.75 147.975 249.679 149.284C248.608 150.593 248.138 152.687 249.086 154.144C250.034 155.6 252.001 155.835 253.55 155.301C255.099 154.766 256.397 153.641 257.83 152.819C260.51 151.283 264.201 150.984 266.371 153.362C267.797 154.922 268.223 157.312 267.896 159.45C267.57 161.589 266.582 163.536 265.507 165.347C261.728 171.691 256.528 177.093 250.276 180.449C244.025 183.804 238.02 185.304 231.136 183.641" fill="#92CE91"/>
<path d="M233.219 174.847C234.147 167.873 235.755 160.328 237.694 152.504C238.188 150.549 238.674 148.619 239.152 146.714C239.634 144.815 240.111 142.932 240.685 141.129C241.788 137.668 243.076 134.269 244.543 130.947C245.917 127.755 247.331 124.814 248.672 122.061C250.014 119.308 251.32 116.771 252.599 114.512C254.585 110.955 256.849 107.56 259.368 104.358C260.252 103.233 260.96 102.383 261.458 101.817L262.02 101.174C262.08 101.097 262.148 101.026 262.223 100.963C262.171 101.047 262.112 101.127 262.047 101.202L261.514 101.873C261.044 102.459 260.347 103.325 259.479 104.466C257.022 107.697 254.806 111.106 252.849 114.664C251.591 116.926 250.305 119.452 248.975 122.221C247.645 124.99 246.243 127.938 244.882 131.106C243.431 134.422 242.155 137.811 241.059 141.26C240.494 143.06 240.02 144.927 239.538 146.846C239.056 148.765 238.578 150.68 238.085 152.631C236.126 160.436 234.533 167.972 233.569 174.911" fill="#E1E1E1"/>
<path d="M240.792 141.093C240.649 140.802 240.538 140.495 240.462 140.179C240.271 139.581 240.024 138.711 239.729 137.63C239.144 135.467 238.427 132.443 237.647 129.131C236.866 125.82 236.113 122.811 235.5 120.665C235.194 119.592 234.939 118.726 234.756 118.127C234.642 117.823 234.559 117.507 234.509 117.186C234.676 117.466 234.809 117.764 234.907 118.076C235.134 118.658 235.429 119.512 235.767 120.581C236.452 122.712 237.252 125.708 238.033 129.036C238.813 132.363 239.478 135.288 240.024 137.558C240.267 138.579 240.474 139.441 240.637 140.135C240.719 140.449 240.771 140.769 240.792 141.093Z" fill="#E1E1E1"/>
<path d="M266.61 132.116C266.274 132.244 265.926 132.339 265.571 132.399C264.898 132.559 263.923 132.798 262.728 133.101C260.339 133.716 257.062 134.697 253.494 135.938C249.926 137.179 246.749 138.476 244.475 139.473C243.336 139.964 242.421 140.391 241.787 140.67C241.47 140.837 241.137 140.97 240.792 141.069C241.084 140.852 241.396 140.664 241.724 140.506C242.341 140.175 243.237 139.708 244.368 139.178C247.306 137.808 250.311 136.587 253.371 135.519C256.417 134.442 259.52 133.531 262.664 132.79C263.859 132.507 264.858 132.323 265.539 132.215C265.892 132.146 266.251 132.112 266.61 132.116Z" fill="#E1E1E1"/>
<path d="M233.477 174.28C233.385 174.184 233.307 174.075 233.246 173.957L232.657 172.992C232.143 172.154 231.434 170.913 230.578 169.373C228.862 166.293 226.596 161.964 224.207 157.148C221.818 152.332 219.576 147.971 217.92 144.871C217.123 143.359 216.446 142.114 215.929 141.189L215.419 140.183C215.348 140.07 215.293 139.948 215.256 139.82C215.347 139.915 215.425 140.023 215.487 140.139L216.076 141.105C216.586 141.947 217.295 143.184 218.155 144.724C219.871 147.804 222.137 152.137 224.526 156.952C226.915 161.768 229.157 166.129 230.809 169.229C231.605 170.741 232.286 171.986 232.8 172.912C233.015 173.311 233.198 173.642 233.334 173.917C233.393 174.033 233.441 174.155 233.477 174.28Z" fill="#E1E1E1"/>
<path d="M267.096 157.236C266.997 157.317 266.887 157.386 266.77 157.439L265.794 157.946L262.21 159.777C259.172 161.329 254.999 163.516 250.388 165.946C245.777 168.375 241.564 170.522 238.514 172.002C236.981 172.744 235.727 173.331 234.863 173.718L233.855 174.153C233.742 174.211 233.622 174.254 233.497 174.28C233.595 174.197 233.705 174.129 233.824 174.077L234.799 173.57L238.383 171.735C241.421 170.187 245.594 167.996 250.205 165.571C254.816 163.145 259.013 160.994 262.083 159.514C263.616 158.772 264.87 158.185 265.734 157.798L266.742 157.36C266.852 157.299 266.972 157.257 267.096 157.236Z" fill="#E1E1E1"/>
<path d="M234.257 50.4517H29.7323C26.5281 50.4517 23.9307 53.0543 23.9307 56.2649V187.85C23.9307 191.06 26.5281 193.663 29.7323 193.663H234.257C237.461 193.663 240.059 191.06 240.059 187.85V56.2649C240.059 53.0543 237.461 50.4517 234.257 50.4517Z" fill="#375A64"/>
<path d="M15.4854 184.415H249.663V190C249.663 191.844 248.933 193.612 247.632 194.915C246.331 196.218 244.567 196.951 242.727 196.951H22.4218C20.5821 196.951 18.8178 196.218 17.517 194.915C16.2162 193.612 15.4854 191.844 15.4854 190V184.415Z" fill="#375A64"/>
<path d="M233.656 56.1411H29.7324V177.081H233.656V56.1411Z" fill="#1A2E35"/>
<path d="M110.692 183.07L113.599 187.702H154.485L157.185 183.07H110.692Z" fill="#1A2E35"/>
<path d="M228.572 60.2346H35.2357C34.5166 60.2346 33.9336 60.8187 33.9336 61.5393V175.39C33.9336 176.11 34.5166 176.694 35.2357 176.694H228.572C229.291 176.694 229.874 176.11 229.874 175.39V61.5393C229.874 60.8187 229.291 60.2346 228.572 60.2346Z" fill="#ECECEC"/>
<path d="M229.667 176.866H33.7227L33.9337 68.9404H229.667V176.866Z" fill="#FAFAFA"/>
<path d="M50.0047 64.7352C50.0047 65.0454 49.913 65.3485 49.741 65.6064C49.5691 65.8642 49.3247 66.0652 49.0387 66.1839C48.7528 66.3026 48.4381 66.3336 48.1346 66.2731C47.831 66.2126 47.5522 66.0633 47.3333 65.844C47.1145 65.6247 46.9655 65.3453 46.9051 65.0411C46.8447 64.737 46.8757 64.4217 46.9941 64.1352C47.1126 63.8487 47.3131 63.6038 47.5705 63.4315C47.8278 63.2592 48.1304 63.1672 48.4399 63.1672C48.8549 63.1672 49.2529 63.3324 49.5464 63.6265C49.8399 63.9206 50.0047 64.3194 50.0047 64.7352Z" fill="#1A2E35"/>
<path d="M40.5194 64.7352C40.5194 65.0454 40.4276 65.3485 40.2557 65.6064C40.0837 65.8642 39.8393 66.0652 39.5534 66.1839C39.2674 66.3026 38.9528 66.3336 38.6492 66.2731C38.3457 66.2126 38.0668 66.0633 37.848 65.844C37.6291 65.6247 37.4801 65.3453 37.4197 65.0411C37.3593 64.737 37.3903 64.4217 37.5088 64.1352C37.6272 63.8487 37.8278 63.6038 38.0851 63.4315C38.3425 63.2592 38.645 63.1672 38.9545 63.1672C39.3696 63.1672 39.7676 63.3324 40.0611 63.6265C40.3545 63.9206 40.5194 64.3194 40.5194 64.7352Z" fill="#1A2E35"/>
<path d="M45.0712 64.7352C45.0712 65.0454 44.9794 65.3485 44.8074 65.6064C44.6355 65.8642 44.3911 66.0652 44.1051 66.1839C43.8192 66.3026 43.5045 66.3336 43.201 66.2731C42.8974 66.2126 42.6186 66.0633 42.3997 65.844C42.1809 65.6247 42.0319 65.3453 41.9715 65.0412C41.9111 64.737 41.9421 64.4217 42.0605 64.1352C42.179 63.8487 42.3795 63.6038 42.6369 63.4315C42.8942 63.2592 43.1968 63.1672 43.5063 63.1672C43.7119 63.1667 43.9157 63.2069 44.1058 63.2855C44.2959 63.3641 44.4686 63.4796 44.614 63.6253C44.7594 63.771 44.8747 63.9441 44.9531 64.1346C45.0316 64.3251 45.0717 64.5292 45.0712 64.7352Z" fill="#1A2E35"/>
<path d="M238.203 183.07C238.203 183.146 190.234 183.209 131.091 183.209C71.9481 183.209 23.9307 183.134 23.9307 183.07C23.9307 183.006 71.8923 182.93 131.075 182.93C190.258 182.93 238.203 182.994 238.203 183.07Z" fill="#1A2E35"/>
<path d="M161.541 0H188.877C189.448 0 189.996 0.227413 190.4 0.632212C190.804 1.03701 191.031 1.58603 191.031 2.15851V20.3083C191.031 20.8811 190.804 21.4306 190.4 21.836C189.996 22.2414 189.448 22.4697 188.877 22.4708H174.482L167.637 29.3254V22.4708H161.541C161.119 22.4708 160.713 22.3027 160.415 22.0034C160.116 21.7041 159.948 21.2981 159.948 20.8749V1.59594C159.948 1.17267 160.116 0.766736 160.415 0.467439C160.713 0.168143 161.119 0 161.541 0V0Z" fill="#E1E1E1"/>
<path d="M170.607 11.6145C170.607 11.9301 170.514 12.2387 170.339 12.5011C170.164 12.7636 169.915 12.9682 169.624 13.0889C169.333 13.2097 169.013 13.2413 168.704 13.1798C168.395 13.1182 168.111 12.9662 167.888 12.743C167.666 12.5198 167.514 12.2354 167.452 11.9258C167.391 11.6163 167.423 11.2954 167.543 11.0038C167.664 10.7121 167.868 10.4629 168.13 10.2875C168.392 10.1122 168.7 10.0186 169.015 10.0186C169.437 10.0186 169.842 10.1867 170.141 10.486C170.44 10.7853 170.607 11.1912 170.607 11.6145Z" fill="#FAFAFA"/>
<path d="M176.971 11.6145C176.971 11.9301 176.877 12.2387 176.702 12.5011C176.527 12.7636 176.278 12.9682 175.987 13.0889C175.696 13.2097 175.376 13.2413 175.067 13.1798C174.758 13.1182 174.474 12.9662 174.252 12.743C174.029 12.5198 173.877 12.2354 173.816 11.9258C173.754 11.6163 173.786 11.2954 173.906 11.0038C174.027 10.7121 174.231 10.4629 174.493 10.2875C174.755 10.1122 175.063 10.0186 175.378 10.0186C175.8 10.0186 176.205 10.1867 176.504 10.486C176.803 10.7853 176.971 11.1912 176.971 11.6145Z" fill="#FAFAFA"/>
<path d="M183.333 11.6145C183.333 11.9301 183.24 12.2387 183.065 12.5011C182.89 12.7636 182.641 12.9682 182.35 13.0889C182.059 13.2097 181.738 13.2413 181.429 13.1798C181.121 13.1182 180.837 12.9662 180.614 12.743C180.391 12.5198 180.24 12.2354 180.178 11.9258C180.117 11.6163 180.148 11.2954 180.269 11.0038C180.389 10.7121 180.593 10.4629 180.855 10.2875C181.117 10.1122 181.425 10.0186 181.74 10.0186C182.163 10.0186 182.568 10.1867 182.866 10.486C183.165 10.7853 183.333 11.1912 183.333 11.6145Z" fill="#FAFAFA"/>
<path d="M90.3889 13.737L87.0481 16.5299L85.4235 15.8038L85.089 14.4233C85.089 14.4233 88.6727 11.77 88.5453 11.6304C88.2086 11.3087 87.774 11.1092 87.3109 11.0638C86.4499 10.9524 85.5798 11.1861 84.8899 11.7142L84.2608 12.185C83.6842 12.6117 83.2373 13.1907 82.9701 13.8572C82.7029 14.5237 82.6259 15.2515 82.7477 15.9594C82.7535 16.001 82.7615 16.0423 82.7716 16.0831L72.8687 24.338C72.2012 24.116 71.4791 24.1216 70.8151 24.3539C70.1511 24.5863 69.5825 25.0322 69.198 25.6223C68.8134 26.2123 68.6346 26.9133 68.6894 27.6159C68.7441 28.3185 69.0294 28.9831 69.5006 29.5062C69.9719 30.0293 70.6027 30.3815 71.2946 30.5077C71.9866 30.6339 72.7008 30.5271 73.3258 30.204C73.9508 29.8809 74.4515 29.3596 74.7499 28.7214C75.0482 28.0832 75.1274 27.3641 74.9751 26.6761L84.7665 18.4411C85.1558 18.7798 85.6566 18.9617 86.1721 18.9518C86.6651 18.9612 87.1548 18.8707 87.6119 18.6855C88.069 18.5004 88.4841 18.2245 88.832 17.8745L89.6562 17.0765C90.0681 16.6382 90.3537 16.0962 90.4828 15.5081C90.6118 14.9201 90.5793 14.3081 90.3889 13.737ZM71.2759 28.687C71.0117 28.5692 70.7882 28.3754 70.6339 28.1303C70.4796 27.8852 70.4014 27.5997 70.4092 27.31C70.4169 27.0202 70.5103 26.7394 70.6774 26.5028C70.8446 26.2663 71.078 26.0849 71.3482 25.9814C71.6184 25.8779 71.9131 25.8571 72.1951 25.9216C72.4771 25.9861 72.7336 26.1329 72.9323 26.3436C73.1309 26.5543 73.2627 26.8193 73.3109 27.105C73.3591 27.3908 73.3216 27.6845 73.2031 27.9489C73.0448 28.3024 72.753 28.5786 72.3917 28.7169C72.0305 28.8553 71.6292 28.8445 71.2759 28.687Z" fill="#2E2E2E"/>
<path d="M105.396 32.7687L94.7285 33.6624L94.7683 33.6425C92.9485 35.8238 90.6826 37.5883 88.1238 38.817C85.565 40.0456 82.7728 40.7097 79.9359 40.7643C77.5861 40.7968 75.2481 40.4257 73.0233 39.6671C70.6244 38.8389 68.4082 37.5531 66.497 35.8808C64.395 34.0561 62.6977 31.8105 61.5147 29.2885C60.3316 26.7665 59.689 24.0241 59.6283 21.238C59.6005 20.8742 59.6005 20.5087 59.6283 20.1448C59.6283 19.7818 59.6641 19.4147 59.6801 19.0476C59.7067 18.6809 59.7532 18.316 59.8194 17.9544L59.9867 16.8572C60.0623 16.4941 60.1659 16.135 60.2535 15.7759C60.3411 15.4169 60.4247 15.0458 60.5481 14.6947L60.9463 13.6414L61.1374 13.1107C61.2051 12.9352 61.2967 12.7676 61.3763 12.596C62.5623 9.97959 64.2918 7.6468 66.4493 5.75346C68.4704 3.96804 70.8354 2.61672 73.3982 1.78295C75.9609 0.949174 78.667 0.650645 81.3494 0.905794C84.788 1.2267 88.0844 2.4367 90.9162 4.41736C93.7479 6.39802 96.0179 9.08146 97.5039 12.205C97.7331 12.6422 97.9301 13.0956 98.0932 13.5616C98.2605 14.0204 98.4317 14.4673 98.583 14.9181C98.8373 15.7986 99.0368 16.694 99.1803 17.5993C99.24 18.0382 99.3236 18.4651 99.3595 18.892C99.3953 19.3189 99.4033 19.7419 99.4232 20.1528C99.4232 20.3603 99.4431 20.5518 99.451 20.7672C99.459 20.9827 99.451 21.1662 99.4271 21.3697C99.4271 21.7687 99.3873 22.1677 99.3714 22.5347V22.4988L105.408 32.7687L99.2599 22.5627C99.2758 22.1823 99.2918 21.7953 99.3077 21.4016C99.3077 21.2021 99.3316 21.0026 99.3316 20.8032C99.3316 20.6037 99.3117 20.4042 99.2997 20.1927C99.2798 19.7937 99.2559 19.3668 99.236 18.9399C99.2161 18.513 99.1126 18.094 99.0489 17.6552C98.9058 16.7574 98.705 15.8698 98.4476 14.9979C98.2963 14.5511 98.1251 14.1082 97.9618 13.6533C97.7969 13.1919 97.6 12.7426 97.3725 12.3088C96.0661 9.54939 94.1383 7.13151 91.7409 5.24546C89.3435 3.35941 86.542 2.05668 83.5567 1.4398C80.5715 0.822919 77.4842 0.90874 74.5377 1.6905C71.5912 2.47227 68.866 3.92864 66.5767 5.94497C64.441 7.82269 62.7292 10.135 61.5555 12.7277C61.4799 12.8993 61.3843 13.0589 61.3206 13.2344L61.1295 13.7611L60.7313 14.8024C60.6078 15.1535 60.5402 15.5166 60.4406 15.8717C60.3411 16.2268 60.2495 16.5819 60.1738 16.941C60.0982 17.3001 60.0663 17.6671 60.0106 18.0262C59.9437 18.3849 59.8985 18.7473 59.8752 19.1115C59.8752 19.4745 59.8393 19.8336 59.8194 20.1967C59.7936 20.5566 59.7936 20.918 59.8194 21.2779C59.9176 25.3066 61.24 29.2094 63.61 32.4652C65.9799 35.7211 69.2847 38.1751 73.0831 39.4996C75.2872 40.2524 77.6033 40.6234 79.9319 40.5968C82.7455 40.5475 85.516 39.8953 88.0572 38.6841C90.5983 37.4729 92.8514 35.7307 94.6648 33.5746H94.6887L105.396 32.7687Z" fill="#1A2E35"/>
<path fill-rule="evenodd" clip-rule="evenodd" d="M95.6769 93.9369C95.9494 93.5702 96.2694 93.2415 96.6285 92.9594L96.4016 91.7146L98.3248 90.8927L99.0654 91.9181C99.5174 91.858 99.9753 91.858 100.427 91.9181L101.144 90.8767L103.083 91.6747L102.884 92.9235C103.25 93.1956 103.577 93.5164 103.856 93.8771L105.098 93.6496L105.918 95.5767L104.895 96.3189C104.957 96.7716 104.957 97.2306 104.895 97.6834L105.934 98.4016L105.138 100.345L103.891 100.145C103.619 100.511 103.299 100.838 102.94 101.119L103.167 102.363L101.244 103.185L100.535 102.14C100.083 102.2 99.6249 102.2 99.1729 102.14L98.4562 103.181L96.517 102.383L96.7161 101.135C96.3505 100.863 96.0236 100.542 95.7446 100.181L94.5022 100.408L93.6819 98.4813L94.7053 97.7392C94.6435 97.2865 94.6435 96.8274 94.7053 96.3747L93.666 95.6565L94.4624 93.7135L95.7087 93.913L95.6769 93.9369ZM97.7554 96.0994C97.5896 96.5116 97.5496 96.9638 97.6403 97.3988C97.7311 97.8337 97.9486 98.232 98.2653 98.5431C98.582 98.8542 98.9837 99.0642 99.4195 99.1465C99.8553 99.2288 100.306 99.1797 100.714 99.0055C101.122 98.8312 101.469 98.5396 101.711 98.1676C101.954 97.7956 102.081 97.3598 102.076 96.9154C102.072 96.4711 101.936 96.0381 101.685 95.6712C101.435 95.3044 101.082 95.0202 100.67 94.8546C100.119 94.6327 99.5022 94.6392 98.9557 94.8726C98.4092 95.1061 97.9775 95.5473 97.7554 96.0994Z" fill="#FCB05C"/>
<path fill-rule="evenodd" clip-rule="evenodd" d="M87.8877 134.322C88.6777 133.26 89.6057 132.309 90.6471 131.493L89.9901 127.902L95.5647 125.508L97.707 128.481C99.0159 128.291 100.344 128.276 101.657 128.437L103.736 125.421L109.35 127.675L108.769 131.294C109.829 132.086 110.779 133.017 111.592 134.063L115.175 133.404L117.565 138.99L114.598 141.137C114.788 142.448 114.803 143.779 114.642 145.095L117.652 147.177L115.398 152.811L111.787 152.228C110.995 153.29 110.066 154.242 109.023 155.057L109.68 158.648L104.106 161.042L101.964 158.07C100.655 158.26 99.3264 158.275 98.0136 158.113L95.935 161.13L90.3166 158.868L90.898 155.249C89.8381 154.456 88.8887 153.525 88.0748 152.48L84.4911 153.138L82.102 147.552L85.0685 145.402C84.8786 144.092 84.8638 142.762 85.0247 141.448L82.0264 139.369L84.2841 133.739L87.8996 134.322H87.8877ZM93.9123 140.59C93.433 141.784 93.3179 143.094 93.5816 144.354C93.8453 145.614 94.476 146.767 95.3938 147.667C96.3116 148.568 97.4754 149.176 98.7379 149.413C100 149.651 101.305 149.509 102.486 149.003C103.668 148.498 104.674 147.653 105.376 146.575C106.078 145.498 106.446 144.235 106.432 142.948C106.418 141.661 106.024 140.407 105.298 139.344C104.573 138.282 103.55 137.459 102.358 136.979C100.76 136.336 98.9727 136.356 97.389 137.033C95.8052 137.71 94.5547 138.989 93.9123 140.59Z" fill="#FC81B3"/>
<path d="M63.0765 145.306C63.1649 145.02 63.2994 144.751 63.4747 144.508C63.9481 143.828 64.6417 143.334 65.4378 143.108C65.9883 142.95 66.5682 142.926 67.1301 143.036C67.7765 143.163 68.3773 143.46 68.8702 143.898C69.1353 144.128 69.3648 144.397 69.5511 144.696C69.7494 145.011 69.8959 145.356 69.9851 145.717C70.1849 146.48 70.1344 147.286 69.8411 148.018C69.5478 148.749 69.0273 149.367 68.3565 149.779C68.0427 149.976 67.7001 150.123 67.3411 150.214C66.9973 150.306 66.6413 150.343 66.2859 150.325C65.671 150.304 65.0715 150.127 64.5431 149.811C64.0148 149.495 63.5747 149.05 63.2637 148.518C62.8445 147.803 62.6855 146.964 62.8137 146.144C62.8527 145.848 62.9415 145.561 63.0765 145.294C63.1004 145.294 62.9651 145.593 62.8934 146.156C62.7999 146.952 62.9751 147.757 63.3911 148.442C63.6733 148.912 64.0621 149.308 64.5259 149.599C65.0564 149.931 65.6648 150.117 66.2899 150.138C66.6285 150.148 66.9666 150.108 67.2933 150.018C67.6335 149.937 67.9588 149.802 68.257 149.619C68.8853 149.223 69.3741 148.64 69.6546 147.951C69.9294 147.261 69.9782 146.501 69.794 145.781C69.7149 145.438 69.5804 145.111 69.3958 144.811C69.2219 144.523 69.0058 144.262 68.7547 144.037C68.32 143.642 67.7936 143.362 67.2233 143.223C66.653 143.083 66.057 143.089 65.4896 143.239C64.7159 143.445 64.0332 143.904 63.5504 144.544C63.204 145.011 63.1004 145.318 63.0765 145.306Z" fill="#0059DF"/>
<path d="M59.7281 141.835C59.6858 141.84 59.643 141.84 59.6007 141.835L59.2224 141.783L57.7252 141.56H57.7611C57.4425 142.358 57.0284 143.411 56.5267 144.68V144.62L58.1951 145.765L58.2269 145.785V145.821C58.1425 146.543 58.1532 147.272 58.2588 147.991V148.031L58.223 148.059L56.5864 149.256L56.6103 149.168C57.0297 150.137 57.4704 151.165 57.9323 152.252L57.8447 152.205L59.8356 151.834H59.8874L59.9192 151.873C60.3643 152.445 60.8839 152.953 61.4642 153.386L61.508 153.417V153.473C61.4085 154.092 61.3009 154.778 61.1895 155.468L61.1337 155.369L64.2435 156.613L64.1281 156.649L65.2749 154.978L65.3107 154.93H65.3704C66.0864 155.017 66.8108 155.009 67.5246 154.906H67.5843L67.6202 154.958C67.9945 155.472 68.4166 156.031 68.8147 156.601L68.6913 156.565L71.7733 155.249L71.7135 155.361C71.5981 154.73 71.4746 154.048 71.3472 153.366V153.302L71.399 153.266C71.9658 152.819 72.4718 152.3 72.9041 151.722L72.94 151.67H73.0037L74.9946 151.989L74.8592 152.013L76.1095 148.901L76.1454 149.021L74.4809 147.868L74.4332 147.832V147.772C74.5209 147.053 74.5129 146.326 74.4093 145.609V145.55L74.4571 145.514L76.0976 144.317L76.0657 144.432L74.7557 141.344L74.8592 141.4L72.8683 141.763H72.8125L72.7767 141.719C72.3326 141.146 71.8144 140.635 71.2357 140.199L71.1919 140.167V140.115C71.3034 139.429 71.4109 138.763 71.5184 138.12L71.5702 138.216L68.4643 136.955L68.5599 136.927L67.4052 138.595L67.3773 138.631H67.3335C66.6148 138.533 65.8861 138.533 65.1673 138.631H65.1275L65.1036 138.599C64.6736 138.001 64.3073 137.462 63.9091 136.951L63.9807 136.971L60.9227 138.32L60.9505 138.268L61.3009 140.263V140.283C60.8664 140.617 60.4663 140.994 60.1064 141.408L59.8436 141.719L59.756 141.819C59.756 141.819 59.7799 141.779 59.8316 141.707C59.8834 141.635 59.963 141.524 60.0825 141.384C60.4394 140.959 60.8398 140.573 61.2771 140.231V140.263C61.1775 139.72 61.0541 139.066 60.9028 138.268V138.232H60.9386L64.0126 136.9L64.0564 136.88L64.0843 136.92L65.2788 138.559L65.2151 138.531C65.9446 138.424 66.6852 138.414 67.4171 138.503L67.3454 138.535L68.4922 136.864L68.528 136.812L68.5878 136.836L71.6976 138.081L71.7613 138.104V138.172C71.6578 138.823 71.5543 139.489 71.4468 140.167L71.4109 140.083C72.0079 140.525 72.5435 141.044 73.0037 141.628L72.9121 141.592L74.903 141.229H74.9787L75.0065 141.3C75.4366 142.3 75.8759 143.329 76.3245 144.384L76.3564 144.456L76.2927 144.504L74.6522 145.701L74.696 145.605C74.8017 146.339 74.8097 147.084 74.7199 147.82L74.6761 147.724L76.3405 148.877L76.4082 148.925L76.3803 149.001L75.13 152.113L75.1021 152.193H75.0185L73.0276 151.873L73.1271 151.834C72.6854 152.433 72.1643 152.97 71.5782 153.429L71.618 153.33C71.7414 154.016 71.8649 154.698 71.9803 155.325V155.404L71.9047 155.436L68.8227 156.753L68.747 156.785L68.7032 156.717L67.5087 155.073L67.6042 155.113C66.8719 155.219 66.1288 155.227 65.3943 155.137L65.4859 155.093C65.0877 155.672 64.6895 156.242 64.3311 156.761L64.2873 156.825L64.2197 156.797L61.1098 155.54L61.0421 155.512V155.44C61.1576 154.746 61.2651 154.06 61.3686 153.445L61.4005 153.529C60.8025 153.086 60.2668 152.564 59.8077 151.977L59.8914 152.009L57.9004 152.372H57.8367L57.8128 152.312C57.3549 151.227 56.9169 150.194 56.5028 149.22L56.4829 149.164L56.5307 149.132L58.1712 147.935L58.1473 147.999C58.0435 147.269 58.0368 146.529 58.1274 145.797L58.1553 145.853L56.4948 144.692L56.459 144.668V144.628C56.9766 143.363 57.4027 142.318 57.7252 141.524V141.496H57.7491L59.2304 141.751L59.6286 141.819L59.7281 141.835Z" fill="#0059DF"/>
<path fill-rule="evenodd" clip-rule="evenodd" d="M52.1345 100.628C52.7614 98.913 53.6159 97.2905 54.6749 95.8041L52.3894 91.2956L58.8161 85.9532L62.798 89.0373C64.453 88.2763 66.2018 87.7396 67.9983 87.4414L69.5632 82.6536L77.8972 83.3877L78.5503 88.3989C80.2623 89.0362 81.8813 89.9004 83.3643 90.9684L87.8639 88.6782L93.1956 95.1178L90.1176 99.1077C90.8777 100.766 91.4134 102.518 91.7104 104.318L96.4886 105.886L95.7121 114.217L90.7109 114.872C90.0923 116.584 89.2487 118.206 88.2023 119.695L90.4879 124.204L84.0612 129.546L80.0594 126.478C78.4046 127.24 76.6557 127.776 74.8591 128.074L73.2942 132.862L64.98 132.088L64.327 127.076C62.6161 126.445 60.997 125.588 59.5129 124.527L55.0134 126.817L49.6857 120.378L52.7597 116.388C52.0001 114.729 51.4645 112.977 51.1669 111.177L46.3887 109.609L47.1612 101.278L52.1664 100.624L52.1345 100.628ZM62.5551 106.529C62.3902 108.297 62.7523 110.074 63.5956 111.636C64.4388 113.197 65.7253 114.473 67.2923 115.302C68.8593 116.131 70.6365 116.476 72.3992 116.293C74.1618 116.11 75.8306 115.407 77.1946 114.274C78.5587 113.14 79.5566 111.627 80.0622 109.925C80.5678 108.224 80.5584 106.41 80.0352 104.713C79.512 103.017 78.4985 101.514 77.1228 100.395C75.7471 99.2755 74.0711 98.5902 72.3067 98.4254C69.9414 98.2056 67.5858 98.9356 65.7573 100.455C63.9288 101.974 62.7771 104.159 62.5551 106.529Z" fill="#A0E0ED"/>
<path d="M109.784 47.3236C109.784 47.3236 117.286 34.5561 131.752 31.081C146.218 27.6058 156.539 31.6156 162.433 34.7038L160.84 36.2997C160.84 36.2997 144.514 28.5115 131.903 32.0026C119.293 35.4938 111.676 48.381 111.676 48.381L109.784 47.3236Z" fill="#0059DF"/>
<path d="M152.78 119.751L156.762 124.715C156.976 124.981 157.266 125.175 157.593 125.272C157.92 125.368 158.269 125.362 158.592 125.255C158.916 125.147 159.199 124.943 159.403 124.669C159.608 124.396 159.724 124.067 159.737 123.725L159.987 116.942L152.78 119.751Z" fill="#2E2E2E"/>
<path d="M188.426 56.6557C186.367 65.7446 179.216 73.2654 173.442 70.5523C166.307 67.2048 166.633 62.4968 168.688 53.396C170.742 44.2952 175.724 39.1762 181.943 40.5886C188.163 42.001 190.48 47.5868 188.426 56.6557Z" fill="#C6EDFF"/>
<path d="M102.732 63.3867C100.279 62.753 97.7112 62.7024 95.2345 63.2391C87.4301 65.0624 87.9477 75.3921 91.7345 80.6468C96.0429 86.6315 106.276 89.0653 113.034 86.3243C119.405 83.7469 117.744 76.4415 114.837 71.7694C112.345 67.7596 107.67 64.5876 102.732 63.3867Z" fill="#C6EDFF"/>
<path d="M173.439 100.788C171.149 107.858 165.475 117.19 155.918 119.719C147.652 121.914 139.645 119.743 132.716 115.438C130.079 113.787 127.61 111.88 125.346 109.745C123.212 107.748 121.237 105.588 119.437 103.285C118.971 102.691 118.517 102.088 118.075 101.462C117.677 100.911 117.278 100.357 116.916 99.7901C115.593 97.8072 114.397 95.7431 113.332 93.6098L113.253 93.4542C111.615 90.1273 110.314 86.644 109.37 83.0567C108.828 80.9816 108.414 78.875 108.132 76.7487C106.965 67.8913 108.196 58.7944 112.532 50.6232C116.816 42.5438 124.394 36.7545 133.13 33.9896C150.396 28.5195 165.782 40.1659 172.204 54.2301C172.805 55.5512 173.321 56.9092 173.749 58.2957C174.405 60.4195 174.908 62.5875 175.254 64.7832C175.772 68.0492 176.061 71.3476 176.119 74.6541C176.178 77.3592 176.119 80.0084 175.979 82.5101C175.768 86.3882 175.382 89.8953 175.016 92.6722C174.797 94.316 174.586 95.7005 174.422 96.7458C174.202 98.1172 173.874 99.4687 173.439 100.788Z" fill="url(#paint0_linear_63_5496)"/>
<path d="M143.061 21.9442C140.074 21.0185 137.124 22.9895 135.917 25.7026C135.261 27.2374 134.967 28.903 135.057 30.5702C135.113 32.0265 135.172 34.3526 136.287 35.4179C136.352 35.4755 136.428 35.518 136.511 35.5421C136.594 35.5663 136.681 35.5714 136.767 35.5573C136.852 35.5431 136.933 35.51 137.004 35.4603C137.074 35.4106 137.133 35.3457 137.175 35.2702C137.645 34.201 137.239 32.8763 137.1 31.7632C136.894 30.4016 136.919 29.0152 137.171 27.6616C137.737 25.0642 139.883 22.7382 142.746 23.4084C143.678 23.6478 143.972 22.2434 143.061 21.9442Z" fill="#2E2E2E"/>
<path d="M128.3 33.814C127.404 32.4326 126.181 31.2948 124.74 30.5024C123.178 29.6734 121.42 29.2884 119.655 29.3893C118.217 29.4611 116.155 29.7524 115.323 31.053C115.092 31.4161 115.446 31.7991 115.804 31.8151C117.095 31.871 118.393 31.1049 119.731 31.065C121.243 31.0204 122.738 31.396 124.051 32.1503C125.206 32.8252 126.176 33.7766 126.874 34.9192C127.495 35.9167 127.77 37.2772 128.578 38.1111C128.629 38.1585 128.691 38.1936 128.757 38.2138C128.824 38.234 128.894 38.2387 128.963 38.2275C129.032 38.2164 129.097 38.1897 129.154 38.1494C129.211 38.1092 129.258 38.0565 129.291 37.9954C129.88 36.6707 129.036 34.9431 128.3 33.814Z" fill="#2E2E2E"/>
<path d="M119.854 55.3153C119.694 54.8134 119.655 54.2808 119.74 53.7608C119.824 53.2409 120.03 52.7482 120.34 52.3229C120.658 51.882 121.064 51.5124 121.532 51.2376C122 50.9628 122.52 50.7889 123.06 50.727C123.595 50.6679 124.136 50.7167 124.652 50.8706C125.16 51.026 125.631 51.2825 126.038 51.6247C126.431 51.9576 126.75 52.37 126.973 52.8348C127.196 53.2996 127.318 53.8063 127.332 54.3218C127.333 54.3349 127.332 54.348 127.327 54.3604C127.323 54.3727 127.316 54.384 127.307 54.3935C127.298 54.4029 127.287 54.4103 127.275 54.4151C127.263 54.42 127.25 54.4222 127.237 54.4216C127.214 54.4215 127.192 54.4141 127.174 54.4004C127.156 54.3867 127.143 54.3675 127.137 54.3458C126.92 53.4557 126.382 52.6772 125.628 52.1593C124.911 51.6672 124.035 51.4648 123.175 51.5928C122.329 51.7251 121.561 52.1638 121.017 52.8256C120.444 53.5204 120.102 54.3767 120.037 55.2754C120.036 55.2875 120.033 55.2992 120.027 55.31C120.022 55.3207 120.014 55.3303 120.005 55.3381C119.996 55.3458 119.985 55.3517 119.974 55.3553C119.962 55.359 119.95 55.3603 119.938 55.3592C119.921 55.3597 119.905 55.356 119.89 55.3483C119.876 55.3406 119.863 55.3292 119.854 55.3153Z" fill="#2E2E2E"/>
<path d="M147.393 48.7438C147.138 48.2833 146.996 47.7687 146.978 47.2422C146.96 46.7157 147.067 46.1925 147.29 45.7155C147.517 45.2239 147.844 44.7852 148.25 44.4273C148.656 44.0694 149.132 43.8002 149.647 43.6368C150.162 43.476 150.703 43.4177 151.24 43.4653C151.768 43.5213 152.28 43.6828 152.745 43.9401C153.196 44.1892 153.59 44.5314 153.899 44.944C154.209 45.3567 154.427 45.8304 154.541 46.334C154.545 46.3604 154.54 46.3876 154.525 46.4099C154.51 46.4322 154.487 46.4479 154.461 46.4537C154.44 46.4575 154.417 46.4541 154.398 46.444C154.378 46.4339 154.363 46.4177 154.354 46.3978C153.965 45.5679 153.286 44.9093 152.446 44.5465C151.648 44.2016 150.748 44.1745 149.93 44.4707C149.126 44.7635 148.457 45.3412 148.05 46.0946C147.625 46.8893 147.456 47.7971 147.568 48.692C147.57 48.704 147.568 48.7162 147.565 48.7277C147.561 48.7393 147.555 48.75 147.547 48.7593C147.54 48.7686 147.53 48.7762 147.519 48.7818C147.509 48.7873 147.497 48.7907 147.485 48.7917C147.466 48.7945 147.448 48.7913 147.431 48.7827C147.415 48.7741 147.401 48.7605 147.393 48.7438Z" fill="#2E2E2E"/>
<path d="M160.423 51.6892C161.229 50.24 161 48.572 159.911 47.9634C158.822 47.3548 157.286 48.0362 156.479 49.4853C155.672 50.9344 155.901 52.6025 156.99 53.2111C158.079 53.8196 159.616 53.1383 160.423 51.6892Z" fill="#EB8757"/>
<path d="M122.576 60.6636C122.81 59.6256 121.705 58.49 120.108 58.1272C118.51 57.7643 117.024 58.3116 116.789 59.3496C116.555 60.3875 117.66 61.5232 119.257 61.886C120.855 62.2489 122.341 61.7016 122.576 60.6636Z" fill="#EB8757"/>
<path d="M106.372 79.9923L105.535 79.6253C103.943 78.9111 102.704 78.2368 102.533 80.6227C102.394 82.5658 103.536 84.3373 104.843 85.6938C106.407 87.3257 108.701 88.8857 111.245 88.3271C113.427 87.8483 113.75 84.7363 112.157 83.264C110.564 81.7918 108.355 80.8581 106.372 79.9923Z" fill="url(#paint1_linear_63_5496)"/>
<path d="M135.42 112.187C132.589 112.984 132.338 119.48 132.863 121.666C133.361 123.741 134.946 124.719 136.336 122.464C137.477 120.591 138.292 118.536 138.745 116.388C139.175 113.906 138.414 113.364 135.42 112.187Z" fill="url(#paint2_linear_63_5496)"/>
<path d="M167.928 104.41C167.996 106.517 174.1 111.819 175.892 110.016C178.679 107.243 174.004 101.083 171.205 100.38C168.792 99.766 167.434 102.14 167.928 104.41Z" fill="url(#paint3_linear_63_5496)"/>
<path d="M175.258 64.779C168.684 69.1319 158.176 75.3202 146.497 79.2023C133.755 83.4355 118.536 83.5193 109.374 83.0485C108.83 80.9753 108.416 78.8698 108.136 76.7445C116.577 77.2552 132.111 77.4428 144.546 73.3093C156.707 69.2676 167.752 62.405 173.753 58.2915C174.406 60.4158 174.909 62.5837 175.258 64.779Z" fill="#2E2E2E"/>
<path d="M175.999 82.506C169.229 87.3816 159.016 93.9568 150.033 96.3986C140.536 98.984 126.054 99.6424 116.924 99.786C115.602 97.8023 114.406 95.7382 113.34 93.6057C121.527 93.5698 138.346 93.1429 148.38 90.4139C158.239 87.7327 170.348 79.0867 176.106 74.658C176.182 77.3551 176.118 80.0043 175.999 82.506Z" fill="#2E2E2E"/>
<path d="M173.439 100.787C167.908 103.979 160.486 108.149 154.78 110.846C149.396 113.391 140.405 114.732 132.712 115.43C130.075 113.779 127.605 111.874 125.338 109.741C133.258 109.306 145.92 108.173 152.14 105.232C159.419 101.793 169.939 95.6764 175.024 92.6641C174.805 94.3079 174.594 95.6924 174.434 96.7377C174.209 98.1115 173.876 99.4656 173.439 100.787Z" fill="#2E2E2E"/>
<path d="M176.851 61.4835L177.436 60.7813C178.551 59.4287 179.355 58.2757 180.566 60.3384C181.553 62.0181 181.318 64.1128 180.753 65.9242C180.072 68.0787 178.71 70.4966 176.186 71.1349C174.02 71.6775 172.343 69.0203 173.12 67.0054C173.896 64.9906 175.461 63.1473 176.851 61.4835Z" fill="url(#paint4_linear_63_5496)"/>
<g style="mix-blend-mode:overlay" opacity="0.3">
<path d="M151.04 37.8756C149.137 36.7265 145.716 36.2278 144.589 36.0403C140.417 35.3385 136.14 35.6116 132.09 36.8383C129.614 37.6043 115.984 44.5227 120.829 48.4288C122.39 49.6895 125.608 48.8676 127.165 48.0298C130.493 46.2264 134.332 45.1571 137.948 44.1237C141.993 42.9706 146.122 42.8709 150.108 41.9333C150.544 41.8519 150.956 41.6733 151.314 41.4109C151.671 41.1485 151.966 40.8089 152.175 40.4171C152.677 39.3399 152.107 38.51 151.04 37.8756Z" fill="white"/>
</g>
<g style="mix-blend-mode:overlay" opacity="0.4">
<path d="M174.295 79.0867C174.593 79.4298 174.793 80.0801 174.809 80.9978C174.96 89.0573 173.702 97.6674 169.927 104.973C166.22 112.154 158.025 120.828 149.066 117.996C148.254 117.793 147.527 117.339 146.987 116.699C144.789 113.683 152.04 111.237 153.8 110.283C157.412 108.298 160.496 105.472 162.791 102.044C167.171 95.5607 169.373 87.7925 172.204 80.5669C172.873 78.8632 173.749 78.4483 174.295 79.0867Z" fill="#2E2E2E"/>
</g>
<path d="M147.039 55.3352C147.412 56.6893 147.502 58.1062 147.302 59.4966C146.955 61.8107 145.709 63.8336 143.423 64.7073C142.231 65.2008 140.924 65.3427 139.654 65.1166C138.384 64.8904 137.205 64.3054 136.256 63.4306C134.938 62.2489 133.988 60.7111 133.52 59.0019C132.772 56.2409 135.018 56.1252 137.861 56.8274C138.763 57.0493 139.709 57.0178 140.595 56.7363C141.481 56.4547 142.272 55.9341 142.882 55.2315C144.634 53.2126 146.29 52.5662 147.039 55.3352Z" fill="#2E2E2E"/>
<path d="M147.302 59.4965C146.955 61.8106 145.709 63.8335 143.423 64.7073C142.231 65.2007 140.923 65.3427 139.654 65.1165C138.384 64.8903 137.205 64.3054 136.256 63.4305C137.602 61.4878 139.607 60.1023 141.898 59.5325C143.663 59.0323 145.53 59.0199 147.302 59.4965Z" fill="#E24450"/>
<path d="M168.489 35.9764C170.878 38.4222 170.969 42.1806 168.724 44.3551C166.478 46.5295 157.881 37.688 160.127 35.5096C162.372 33.3311 166.115 33.5147 168.489 35.9764Z" fill="#0059DF"/>
<path d="M156.687 36.3356L168.035 48.0338C169.229 46.8808 168.811 44.5507 167.135 42.8191L161.863 37.3849C160.187 35.6573 157.869 35.1865 156.687 36.3356Z" fill="#2E2E2E"/>
<path d="M104.667 49.7971C103.15 52.8533 104.193 56.4642 106.997 57.8566C109.8 59.2491 115.291 48.1852 112.488 46.7888C109.684 45.3923 106.184 46.7409 104.667 49.7971Z" fill="#0059DF"/>
<path d="M116.016 46.5336L108.773 61.1404C107.296 60.4063 106.969 58.0603 108.04 55.9017L111.409 49.119C112.48 46.9525 114.543 45.7995 116.016 46.5336Z" fill="#2E2E2E"/>
<path d="M158.546 62.0858C160.321 62.0858 161.76 60.6443 161.76 58.866C161.76 57.0878 160.321 55.6462 158.546 55.6462C156.772 55.6462 155.333 57.0878 155.333 58.866C155.333 60.6443 156.772 62.0858 158.546 62.0858Z" fill="#2E2E2E"/>
<path d="M160.692 58.5269C160.564 58.5279 160.438 58.4871 160.335 58.4108C160.231 58.3345 160.154 58.2266 160.117 58.1033C160.079 57.98 160.082 57.8478 160.126 57.7264C160.169 57.6051 160.251 57.501 160.358 57.4297C166.924 53.001 166.004 44.9296 165.992 44.8458C165.973 44.687 166.017 44.527 166.115 44.401C166.213 44.2749 166.358 44.1931 166.516 44.1735C166.674 44.1539 166.834 44.1982 166.96 44.2966C167.086 44.395 167.167 44.5394 167.187 44.6981C167.231 45.0572 168.222 53.5755 161.031 58.4232C160.931 58.4913 160.813 58.5274 160.692 58.5269Z" fill="#2E2E2E"/>
<path d="M264.795 198H0.597281C0.438872 198 0.286951 197.937 0.17494 197.825C0.0629276 197.713 0 197.56 0 197.402C0 197.243 0.0629276 197.091 0.17494 196.979C0.286951 196.866 0.438872 196.803 0.597281 196.803H264.795C264.953 196.803 265.105 196.866 265.217 196.979C265.329 197.091 265.392 197.243 265.392 197.402C265.392 197.56 265.329 197.713 265.217 197.825C265.105 197.937 264.953 198 264.795 198Z" fill="#2E2E2E"/>
<path d="M194.355 162.981H194.248C194.118 162.967 193.992 162.927 193.877 162.864C193.763 162.8 193.662 162.715 193.58 162.613C193.498 162.511 193.437 162.393 193.401 162.268C193.365 162.142 193.353 162.01 193.368 161.88C193.531 160.284 193.336 157.71 192.392 157.16C190.401 155.995 183.377 151.247 180.47 149.144C177.97 147.333 177.014 142.984 177.627 136.217C177.794 134.386 178.32 133.161 179.196 132.57C179.416 132.416 179.663 132.307 179.925 132.249C180.187 132.191 180.457 132.185 180.721 132.231C184.783 132.67 185.726 137.705 185.766 137.921C185.77 137.979 185.77 138.038 185.766 138.096V141.568C187.295 141.847 189.294 141.328 190.775 140.211C191.55 139.654 192.167 138.904 192.564 138.035C192.96 137.165 193.124 136.207 193.037 135.256C192.687 131.13 189.21 129.65 188.028 129.271L183.863 131.952C183.713 132.049 183.54 132.104 183.361 132.112C181.697 132.179 180.434 131.733 179.618 130.795C179.257 130.339 178.995 129.813 178.85 129.249C178.705 128.685 178.681 128.097 178.778 127.523C178.798 127.407 178.838 127.295 178.897 127.192C179.359 126.394 183.524 119.552 187.705 119.552C190.524 119.552 194.076 122.121 196.131 123.857L196.278 102.826C196.274 102.77 196.274 102.714 196.278 102.659C196.459 101.635 197.016 100.717 197.838 100.084C198.66 99.4502 199.689 99.1477 200.722 99.2353C203.736 99.4029 204.668 102.052 204.74 103.429C204.742 103.451 204.742 103.474 204.74 103.496L204.581 114.971L206.496 104.598C206.508 104.529 206.528 104.462 206.556 104.398C207.065 103.149 208.761 101.015 211.501 101.877C214.141 102.702 214.687 105.34 214.635 106.621C214.635 106.664 214.635 106.704 214.635 106.748L211.493 123.733L217.362 114.64C217.38 114.608 217.401 114.579 217.426 114.552C218.406 113.355 220.635 111.616 222.754 112.857C224.872 114.097 224.426 116.974 223.825 118.478L223.789 118.562C223.713 118.702 216.466 132.906 214.862 135.962C213.763 138.056 213.269 152.843 213.189 161.672C213.188 161.936 213.083 162.189 212.896 162.375C212.71 162.561 212.457 162.666 212.194 162.666C212.063 162.665 211.934 162.638 211.814 162.587C211.693 162.536 211.584 162.461 211.492 162.368C211.401 162.275 211.328 162.164 211.279 162.043C211.23 161.921 211.205 161.791 211.206 161.66C211.206 159.266 211.421 138.244 213.106 135.032C214.659 132.08 221.511 118.654 221.997 117.704C222.097 117.413 222.829 115.207 221.758 114.58C220.687 113.954 219.226 115.526 219.003 115.777L210.442 129.051C210.316 129.244 210.127 129.387 209.908 129.456C209.689 129.525 209.453 129.516 209.24 129.431C209.026 129.345 208.849 129.188 208.738 128.987C208.627 128.785 208.589 128.552 208.63 128.325L212.672 106.461C212.672 106.126 212.604 104.302 210.932 103.78C209.434 103.309 208.666 104.63 208.455 105.076L204.417 126.877C204.37 127.12 204.233 127.337 204.034 127.485C203.835 127.633 203.588 127.7 203.342 127.675C203.094 127.649 202.864 127.531 202.697 127.345C202.531 127.158 202.44 126.916 202.442 126.665L202.769 103.465C202.741 103.153 202.51 101.286 200.627 101.182C200.09 101.116 199.549 101.255 199.111 101.573C198.674 101.891 198.373 102.363 198.269 102.894L198.11 126.035C198.107 126.23 198.047 126.42 197.938 126.582C197.829 126.743 197.675 126.869 197.495 126.944C197.315 127.019 197.117 127.04 196.926 127.004C196.735 126.968 196.558 126.877 196.418 126.741C194.92 125.285 190.445 121.499 187.705 121.499C185.209 121.499 181.86 126.115 180.721 127.982C180.664 128.503 180.806 129.027 181.119 129.446C181.482 129.845 182.119 130.069 183.011 130.073L187.315 127.28C187.427 127.209 187.552 127.16 187.682 127.138C187.813 127.115 187.946 127.119 188.076 127.148C190.286 127.655 194.578 129.941 195.012 135.024C195.136 136.313 194.921 137.611 194.388 138.79C193.855 139.969 193.022 140.987 191.974 141.743C189.728 143.439 186.622 144.033 184.408 143.191C184.22 143.12 184.057 142.993 183.942 142.827C183.827 142.661 183.765 142.464 183.763 142.262V138.192C183.648 137.657 182.847 134.438 180.45 134.202H180.339C180.227 134.23 179.746 134.657 179.586 136.405C179.065 142.17 179.801 146.224 181.613 147.532C184.488 149.615 191.416 154.315 193.372 155.444C195.804 156.869 195.362 161.573 195.323 162.103C195.294 162.342 195.18 162.562 195.002 162.723C194.825 162.884 194.595 162.976 194.355 162.981Z" fill="#A0E0ED"/>
<path d="M213.496 177.285C213.232 177.285 212.979 177.18 212.792 176.993C212.605 176.806 212.5 176.552 212.5 176.287V165.914H194.052V176.287C194.052 176.552 193.948 176.806 193.761 176.993C193.574 177.18 193.321 177.285 193.057 177.285C192.793 177.285 192.54 177.18 192.353 176.993C192.166 176.806 192.062 176.552 192.062 176.287V164.908C192.062 164.644 192.166 164.39 192.353 164.203C192.54 164.016 192.793 163.911 193.057 163.911H213.496C213.76 163.911 214.013 164.016 214.2 164.203C214.387 164.39 214.491 164.644 214.491 164.908V176.287C214.491 176.552 214.387 176.806 214.2 176.993C214.013 177.18 213.76 177.285 213.496 177.285Z" fill="#A0E0ED"/>
<defs>
<linearGradient id="paint0_linear_63_5496" x1="137.969" y1="8.12522" x2="143.551" y2="99.0332" gradientUnits="userSpaceOnUse">
<stop offset="0.15" stop-color="#FFE36F"/>
<stop offset="0.42" stop-color="#FFE070"/>
<stop offset="0.69" stop-color="#FFD772"/>
<stop offset="0.97" stop-color="#FFC96F"/>
<stop offset="1" stop-color="#FFC366"/>
</linearGradient>
<linearGradient id="paint1_linear_63_5496" x1="-1945.45" y1="6731.64" x2="-825.243" y2="9364.51" gradientUnits="userSpaceOnUse">
<stop offset="0.15" stop-color="#FCD844"/>
<stop offset="0.42" stop-color="#FCD443"/>
<stop offset="0.69" stop-color="#FCC740"/>
<stop offset="0.97" stop-color="#FBB33C"/>
<stop offset="1" stop-color="#FBB03B"/>
</linearGradient>
<linearGradient id="paint2_linear_63_5496" x1="2478.18" y1="3648.28" x2="4436.89" y2="4777.83" gradientUnits="userSpaceOnUse">
<stop offset="0.15" stop-color="#FCD844"/>
<stop offset="0.42" stop-color="#FCD443"/>
<stop offset="0.69" stop-color="#FCC740"/>
<stop offset="0.97" stop-color="#FBB33C"/>
<stop offset="1" stop-color="#FBB03B"/>
</linearGradient>
<linearGradient id="paint3_linear_63_5496" x1="4156.99" y1="2532.49" x2="6130.44" y2="4403.64" gradientUnits="userSpaceOnUse">
<stop offset="0.15" stop-color="#FCD844"/>
<stop offset="0.42" stop-color="#FCD443"/>
<stop offset="0.69" stop-color="#FCC740"/>
<stop offset="0.97" stop-color="#FBB33C"/>
<stop offset="1" stop-color="#FBB03B"/>
</linearGradient>
<linearGradient id="paint4_linear_63_5496" x1="2014.16" y1="4321.02" x2="2824.84" y2="6988.96" gradientUnits="userSpaceOnUse">
<stop offset="0.15" stop-color="#FCD844"/>
<stop offset="0.42" stop-color="#FCD443"/>
<stop offset="0.69" stop-color="#FCC740"/>
<stop offset="0.97" stop-color="#FBB33C"/>
<stop offset="1" stop-color="#FBB03B"/>
</linearGradient>
</defs>
</svg>
