<svg width="27" height="27" viewBox="0 0 27 27" fill="none" xmlns="http://www.w3.org/2000/svg">
<path d="M12.4443 0.374535C11.6322 0.432543 10.5617 0.622387 9.72322 0.864965C4.96658 2.23079 1.2699 6.22805 0.283766 11.0638C-0.433421 14.5917 0.241579 18.2093 2.15056 21.1255C3.49529 23.1822 5.20916 24.7431 7.25525 25.7978C7.9988 26.1827 9.05349 26.6099 9.38044 26.6626C9.6863 26.7101 9.95525 26.5624 10.0818 26.2777C10.1767 26.0667 10.1767 25.9613 10.1451 24.7695L10.1082 23.488L9.65466 23.5618C9.14314 23.6409 8.30466 23.6093 7.61912 23.4933C7.06541 23.3931 6.50642 23.1189 6.1531 22.7603C5.87361 22.4808 5.79978 22.3595 5.43591 21.5527C5.10369 20.8197 4.724 20.3345 4.21248 19.9864C3.86443 19.7439 3.57439 19.4275 3.59548 19.3114C3.62712 19.1532 3.84861 19.0847 4.23357 19.1111C4.97712 19.1638 5.75232 19.707 6.30603 20.556C6.68572 21.1361 7.06013 21.4999 7.51892 21.7267C7.84587 21.8902 7.93552 21.9113 8.41013 21.9271C8.9533 21.9482 9.50173 21.8638 9.9447 21.695C10.1609 21.6107 10.1715 21.6001 10.2506 21.2468C10.3508 20.7933 10.5459 20.382 10.8095 20.0445L11.0152 19.7861L10.5828 19.7281C9.1906 19.5277 8.19919 19.1902 7.27634 18.5943C6.06873 17.8138 5.35154 16.5956 5.00349 14.7394C4.89802 14.1646 4.8822 12.688 4.97712 12.1448C5.13005 11.2642 5.49392 10.4626 6.03181 9.79817L6.26912 9.50813L6.16365 9.18118C5.88943 8.29524 5.94216 7.21946 6.3113 6.15422C6.40623 5.89055 6.42732 5.88 6.85447 5.9011C7.47673 5.93274 8.81091 6.47063 9.71794 7.05071L10.0924 7.29328L10.3877 7.23528C10.5459 7.20364 10.8465 7.14035 11.0574 7.09289C12.4865 6.78703 14.5115 6.78703 15.9406 7.09289C16.1515 7.14035 16.4521 7.20364 16.6103 7.23528L16.9004 7.28801L17.4013 6.98215C18.5931 6.25969 19.9537 5.76926 20.4336 5.89582C20.5707 5.93274 20.6076 5.98547 20.7131 6.29133C20.9398 6.95051 21.0031 7.39875 20.9767 8.14231C20.9556 8.64328 20.9187 8.92278 20.8396 9.17063L20.7289 9.50813L20.9609 9.79289C21.4302 10.3677 21.7783 11.0796 21.9734 11.8443C22.0894 12.3136 22.1052 14.0433 21.9945 14.713C21.8258 15.7572 21.3933 16.854 20.8871 17.5185C20.017 18.6628 18.4402 19.4486 16.4416 19.7228L15.9828 19.7861L16.1885 20.0445C16.4363 20.3609 16.6367 20.7669 16.7474 21.2099C16.8213 21.4841 16.8371 21.9323 16.8529 23.8624C16.8793 26.4464 16.8793 26.4411 17.2326 26.6099C17.4752 26.7206 17.6703 26.689 18.4402 26.3884C22.332 24.8907 25.4011 21.4736 26.5244 17.4077C27.2679 14.7025 27.1097 11.5648 26.1025 8.96496C25.1955 6.64465 23.5976 4.52473 21.6306 3.04817C19.4949 1.45032 17.0691 0.548559 14.4219 0.374535C13.499 0.311255 13.4094 0.311255 12.4443 0.374535Z" fill="white"/>
</svg>
