<svg width="64" height="64" viewBox="0 0 64 64" fill="none" xmlns="http://www.w3.org/2000/svg">
<path d="M13.1663 14.0269C10.4462 14.0269 7.68465 15.0873 7.22463 15.6672C7.10462 15.9071 6.82633 17.8464 7.48636 17.8464C7.70636 17.8464 7.80731 17.8847 8.44733 17.5847C10.8474 16.6449 12.3681 16.667 12.5881 16.667C15.2882 16.407 16.8478 18.2476 16.6078 20.6271V22.0252C14.3277 21.4854 13.025 21.4668 12.385 21.4668C9.06485 21.2668 5.99802 23.0169 5.99802 26.8641C5.99802 31.0832 9.76472 31.9856 11.2248 31.9256C13.4049 31.9456 15.4856 30.9656 16.8656 29.266C17.9656 31.7255 18.666 31.5624 18.686 31.5624C18.886 31.5624 19.0455 31.4827 19.2055 31.3827L20.3462 30.5821C20.5462 30.4621 20.7051 30.2636 20.7251 30.0236C20.7051 29.4437 19.6646 28.5439 19.7446 26.5243V20.2873C19.8646 18.5677 19.3069 16.8849 18.1469 15.5852C16.7669 14.4254 14.9463 13.8669 13.1663 14.0269ZM51.9138 14.0269C47.9136 14.0269 45.6153 16.5254 45.6753 19.0649C45.6753 22.5442 49.1934 23.6471 49.5934 23.7671C52.9735 24.8269 53.4348 24.8653 54.3748 25.6651C55.1748 26.485 55.0744 28.0857 53.8943 28.7856C53.5543 28.9855 52.0927 29.8638 48.7926 29.1839C47.6925 28.964 47.1144 28.7047 46.2143 28.3247C45.9743 28.2448 45.4135 28.1043 45.4135 28.8442V29.8244C45.4135 30.2843 45.6928 30.7024 46.1128 30.9023C48.2129 31.9621 50.7331 32.0037 51.2731 32.0037C51.3531 32.0037 55.9521 32.0061 57.4921 28.9027C57.8101 28.2629 58.6337 25.9268 57.0937 23.9272C55.8136 22.4275 54.7134 22.2674 51.4333 21.2676C51.1533 21.1876 48.7335 20.5654 48.7535 18.8657C48.6335 16.6862 51.5945 16.5684 52.2146 16.6084C54.7147 16.5684 55.9527 17.5052 56.6327 17.5652C56.9327 17.5652 57.0741 17.3871 57.0741 16.9872V16.0655C57.0941 15.8456 57.0144 15.6284 56.8944 15.4485C56.0944 14.4087 53.0338 14.0269 51.9138 14.0269ZM21.5533 14.5268C21.3333 14.5668 21.1734 14.7872 21.2134 15.0071C21.2534 15.2671 21.2931 15.5283 21.3931 15.7882L25.8738 30.5626C25.9738 31.0425 26.291 31.5642 26.991 31.4842H28.6317C29.6317 31.5842 29.7719 30.6235 29.7919 30.5235L32.7334 18.2057L35.714 30.543C35.734 30.643 35.8746 31.6038 36.8546 31.5038H38.5148C39.2349 31.5838 39.575 31.062 39.675 30.5821C44.7152 14.3654 44.3735 15.4678 44.4135 15.3079C44.4935 14.468 44.013 14.5263 43.933 14.5463H42.1517C41.2517 14.4463 41.0745 15.268 41.0345 15.468L37.714 28.2857L34.7139 15.468C34.5739 14.4882 33.7733 14.5263 33.5733 14.5463H32.0341C31.1541 14.4663 30.9339 15.1681 30.8739 15.468L27.8934 28.106L24.694 15.468C24.614 15.0681 24.3529 14.4468 23.5729 14.5268H21.5533ZM13.0452 23.7866C14.4852 23.8066 15.7282 24.0241 16.5883 24.224C16.5883 25.2238 16.6247 25.7846 16.4047 26.6844C16.1246 27.6443 14.8871 29.3861 11.967 29.4261C10.2869 29.5061 9.1872 28.1841 9.2872 26.6844C9.1872 24.2849 11.6651 23.6866 13.0452 23.7866ZM58.082 36.0068C56.2152 36.0328 54.0116 36.4509 52.3396 37.6236C51.8236 37.9815 51.914 38.4785 52.488 38.4125C54.3681 38.1866 58.5527 37.6793 59.3008 38.6351C60.0508 39.5909 58.4714 43.5342 57.7734 45.2978C57.5574 45.8237 58.014 46.0414 58.496 45.6415C61.6242 43.0221 62.437 37.5308 61.797 36.741C61.4759 36.3461 59.9488 35.9808 58.082 36.0068ZM2.43148 38.0064C1.99534 38.0663 1.80749 38.619 2.26351 39.0569C10.0978 46.4034 20.4499 50 31.9443 50C40.1426 50 49.6601 47.3257 56.2303 42.2867C57.3164 41.4489 56.3912 40.1935 55.2772 40.6894C47.9109 43.9387 39.9102 45.5048 32.6279 45.5048C21.8355 45.5048 11.3877 43.2522 2.93541 38.1352C2.7504 38.0233 2.57686 37.9864 2.43148 38.0064Z" fill="#FFA471"/>
</svg>
