<svg width="64" height="64" viewBox="0 0 64 64" fill="none" xmlns="http://www.w3.org/2000/svg">
<path d="M27.7733 4V19.4778C26.7659 19.0547 24.5917 19.0031 23.5204 19.0031C15.4607 19.0031 8 22.9219 8 34.0062C8 47.2689 18.1052 49.0093 24.87 49.0093C27.541 49.0093 33.58 48.7366 36.4833 47.8664V4H27.7733ZM42.29 4V13.0019H51V4H42.29ZM42.29 19.0031V45.112C42.29 49.6609 39.6131 54.3959 33.58 57.1144L41.8817 61C50.3188 57.9994 51 48.1126 51 45.112V19.0031H42.29ZM24.7849 26.657C25.714 26.657 26.7571 26.8331 27.7733 27.0731V41.1854C26.7571 41.4254 25.714 41.6073 24.7849 41.6073C20.9815 41.6073 17.2941 40.3675 17.2941 34.0062C17.2941 27.6449 20.9815 26.657 24.7849 26.657Z" fill="#8BD484"/>
</svg>
