<svg width="64" height="64" viewBox="0 0 64 64" fill="none" xmlns="http://www.w3.org/2000/svg">
<path d="M50.25 4C48.431 4.00177 46.6488 4.51237 45.1048 5.47406C43.5608 6.43576 42.3166 7.8102 41.5129 9.44202C40.7091 11.0738 40.3779 12.8979 40.5567 14.7081C40.7355 16.5183 41.417 18.2425 42.5244 19.6855L34.1602 30.25H22.2363C21.7299 28.1147 20.5179 26.2127 18.7964 24.8516C17.0749 23.4906 14.9445 22.7501 12.75 22.75C10.1641 22.75 7.68419 23.7772 5.85571 25.6057C4.02723 27.4342 3 29.9141 3 32.5C3 35.0859 4.02723 37.5658 5.85571 39.3943C7.68419 41.2228 10.1641 42.25 12.75 42.25C14.9425 42.2473 17.0701 41.5056 18.7893 40.1447C20.5084 38.7839 21.7186 36.8834 22.2246 34.75H34.1602L42.5244 45.3145C41.417 46.7575 40.7355 48.4816 40.5567 50.2918C40.3779 52.1021 40.7091 53.9262 41.5129 55.558C42.3166 57.1898 43.5608 58.5642 45.1048 59.5259C46.6488 60.4876 48.431 60.9982 50.25 61C52.8359 61 55.3158 59.9728 57.1443 58.1443C58.9728 56.3158 60 53.8359 60 51.25C60 48.6641 58.9728 46.1842 57.1443 44.3557C55.3158 42.5272 52.8359 41.5 50.25 41.5C48.7832 41.5036 47.3362 41.8381 46.0166 42.4785L38.1211 32.5L46.0137 22.5273C47.3346 23.1662 48.7827 23.4987 50.25 23.5C52.8359 23.5 55.3158 22.4728 57.1443 20.6443C58.9728 18.8158 60 16.3359 60 13.75C60 11.1641 58.9728 8.68419 57.1443 6.85571C55.3158 5.02723 52.8359 4 50.25 4V4Z" fill="#FCB05C"/>
</svg>
