<svg width="64" height="64" viewBox="0 0 64 64" fill="none" xmlns="http://www.w3.org/2000/svg">
<g clip-path="url(#clip0_541_2299)">
<path d="M52.602 26.4141C51.996 26.3941 51.3618 26.4976 50.7259 26.6997C49.454 27.1037 48.1213 27.8912 46.7535 28.9815C46.2175 29.4088 45.6766 29.8972 45.1339 30.4155C44.6032 29.9104 44.0734 29.4336 43.5492 29.0157C42.1826 27.9263 40.8534 27.14 39.5845 26.7368C38.3155 26.3337 37.0529 26.3212 36.0159 26.9079C34.9789 27.4946 34.3588 28.5717 34.0806 29.8502C33.8024 31.1288 33.8315 32.6514 34.1109 34.3559C34.208 34.948 34.3479 35.5692 34.5056 36.2019C33.9131 36.3779 33.3376 36.563 32.804 36.7672C31.1937 37.3836 29.8612 38.121 28.8909 38.9985C27.9206 39.876 27.2941 40.941 27.2941 42.1104C27.2941 43.2798 27.9206 44.3433 28.8909 45.2208C29.8612 46.0983 31.1937 46.8372 32.804 47.4536C33.3746 47.672 33.9924 47.8686 34.6301 48.0545C34.4007 48.8945 34.2148 49.7095 34.0882 50.4822C33.8085 52.1881 33.779 53.7109 34.0578 54.9923C34.3366 56.2738 34.9571 57.3569 35.9992 57.9465C37.0413 58.5362 38.3096 58.5217 39.5815 58.1176C40.8533 57.7135 42.1845 56.9275 43.5523 55.8372C44.0834 55.4139 44.6206 54.9309 45.1582 54.4181C45.6984 54.9337 46.2383 55.4194 46.7717 55.8447C48.1384 56.9341 49.469 57.7204 50.738 58.1236C52.007 58.5267 53.2681 58.5392 54.3051 57.9525C55.3421 57.3658 55.9622 56.2887 56.2404 55.0102C56.5186 53.7316 56.4879 52.209 56.2085 50.5045C56.0815 49.7297 55.8955 48.9135 55.6651 48.0709C56.3239 47.8804 56.9611 47.6785 57.5488 47.4536C59.1592 46.8372 60.4916 46.0983 61.4619 45.2208C62.4323 44.3433 63.0588 43.2798 63.0588 42.1104C63.0588 40.941 62.4323 39.876 61.4619 38.9985C60.4916 38.121 59.1592 37.3836 57.5488 36.7672C57.0075 36.56 56.4233 36.3726 55.8214 36.1945C55.9804 35.5578 56.1215 34.9322 56.2191 34.3366C56.4988 32.6307 56.5283 31.1064 56.2495 29.8249C55.9707 28.5435 55.3487 27.4618 54.3066 26.8722C53.7855 26.5774 53.2079 26.434 52.602 26.4141ZM52.5306 27.9641C52.9109 27.9742 53.2352 28.0629 53.5127 28.2199C54.0677 28.5339 54.4778 29.145 54.6967 30.1507C54.9155 31.1564 54.9079 32.5153 54.6496 34.0912C54.5612 34.6307 54.4328 35.2025 54.2868 35.7884C52.6976 35.4136 50.9562 35.1353 49.1002 34.9718C48.1678 33.7058 47.2094 32.5542 46.2435 31.5311C46.7542 31.0426 47.2616 30.5857 47.7568 30.1909C49.0203 29.1837 50.2164 28.4984 51.2146 28.1812C51.7137 28.0227 52.1504 27.9539 52.5306 27.9641ZM37.7827 27.9685C38.1652 27.9581 38.6028 28.0267 39.1033 28.1857C40.1044 28.5038 41.3026 29.1888 42.5672 30.1968C43.0523 30.5836 43.5486 31.0306 44.0486 31.5073C43.0757 32.5385 42.1106 33.7022 41.1722 34.9792C39.3228 35.1458 37.5876 35.4267 36.0053 35.8033C35.8603 35.2202 35.7336 34.6507 35.6455 34.1135C35.387 32.5362 35.3805 31.1757 35.6 30.1671C35.8195 29.1584 36.233 28.5442 36.7931 28.2273C37.0731 28.0689 37.4003 27.979 37.7827 27.9685ZM45.1582 32.6274C45.7912 33.3025 46.4246 34.0415 47.0525 34.8364C46.4355 34.8112 45.8108 34.7962 45.1764 34.7962C44.5294 34.7962 43.8929 34.8117 43.2639 34.8379C43.892 34.0423 44.525 33.3031 45.1582 32.6274ZM45.1764 36.3343C46.2333 36.3343 47.2634 36.3769 48.2653 36.4489C48.9548 37.4193 49.6285 38.4488 50.2705 39.5385C50.8346 40.4959 51.345 41.4519 51.8096 42.396C51.3401 43.3526 50.8211 44.3215 50.2492 45.2922C49.7458 46.1466 49.2202 46.9582 48.6858 47.7407C47.554 47.8334 46.3813 47.8849 45.1764 47.8849C43.9426 47.8849 42.7435 47.8303 41.5866 47.7332C41.0611 46.962 40.5443 46.1613 40.049 45.3205C39.4784 44.352 38.9619 43.3863 38.4931 42.4317C38.9639 41.4717 39.4827 40.4991 40.0566 39.5251C40.6952 38.4411 41.3669 37.4176 42.0526 36.4519C43.0653 36.3782 44.1074 36.3343 45.1764 36.3343ZM50.2675 36.6393C51.548 36.7959 52.7504 37.0135 53.8694 37.2744C53.5372 38.3416 53.1281 39.4562 52.6323 40.6065C52.3104 39.9984 51.9771 39.3883 51.6169 38.7768C51.1806 38.0363 50.7269 37.3292 50.2675 36.6393ZM40.0034 36.6512C39.5534 37.3285 39.1105 38.0212 38.6829 38.7471C38.318 39.3664 37.9777 39.9847 37.6522 40.6005C37.1607 39.4572 36.754 38.3489 36.4242 37.2878C37.5354 37.0263 38.7312 36.8096 40.0034 36.6512ZM55.4071 37.6791C55.958 37.8424 56.49 38.0129 56.9781 38.1997C58.4626 38.7679 59.6368 39.4407 60.3979 40.129C61.159 40.8173 61.4893 41.4736 61.4893 42.1104C61.4893 42.7471 61.159 43.4035 60.3979 44.0918C59.6368 44.78 58.4626 45.4529 56.9781 46.0211C56.4357 46.2287 55.8399 46.4169 55.2204 46.5953C54.7784 45.2558 54.2144 43.8583 53.5431 42.4317C54.3149 40.7938 54.9384 39.1969 55.4071 37.6791ZM34.92 37.6865C35.3832 39.1891 35.9988 40.7703 36.7597 42.3915C36.084 43.8264 35.5171 45.2318 35.0733 46.5789C34.4756 46.4052 33.8999 46.2221 33.3748 46.0211C31.8903 45.4529 30.716 44.78 29.9549 44.0918C29.1939 43.4035 28.8636 42.7471 28.8636 42.1104C28.8636 41.4736 29.1939 40.8173 29.9549 40.129C30.716 39.4407 31.8903 38.7679 33.3748 38.1997C33.8553 38.0158 34.3784 37.8477 34.92 37.6865ZM45.1764 38.6117C43.0395 38.6117 41.2906 40.3257 41.2906 42.4198C41.2906 44.5139 43.0395 46.2278 45.1764 46.2278C47.3133 46.2278 49.0622 44.5139 49.0622 42.4198C49.0622 40.3257 47.3133 38.6117 45.1764 38.6117ZM45.1764 40.135C46.4733 40.135 47.5079 41.1489 47.5079 42.4198C47.5079 43.6907 46.4733 44.7046 45.1764 44.7046C43.8796 44.7046 42.8449 43.6907 42.8449 42.4198C42.8449 41.1489 43.8796 40.135 45.1764 40.135ZM52.6521 44.2197C53.0597 45.165 53.4139 46.09 53.7116 46.982C52.7769 47.1944 51.7818 47.3733 50.735 47.5145C51.0363 47.0434 51.3339 46.5634 51.6245 46.0702C51.9887 45.4519 52.327 44.8345 52.6521 44.2197ZM37.6704 44.2212C37.9972 44.8398 38.3376 45.4599 38.7041 46.0821C38.991 46.5691 39.284 47.0446 39.5815 47.5101C38.5377 47.3683 37.5456 47.1887 36.614 46.9761C36.9102 46.0868 37.2647 45.1637 37.6704 44.2212ZM36.1662 48.4547C37.5727 48.7812 39.0972 49.032 40.7138 49.1954C41.7932 50.7253 42.917 52.0993 44.0486 53.301C43.5427 53.7844 43.0412 54.2381 42.5505 54.6294C41.287 55.6365 40.0894 56.3204 39.0912 56.6375C38.093 56.9547 37.348 56.9128 36.7931 56.5988C36.2381 56.2849 35.8295 55.6738 35.6106 54.668C35.3918 53.6623 35.3978 52.3049 35.6562 50.7291C35.7734 50.0142 35.9485 49.2487 36.1662 48.4547ZM54.1609 48.4606C54.3802 49.259 54.5561 50.0281 54.6739 50.7469C54.9325 52.3242 54.9389 53.6832 54.7194 54.6918C54.5 55.7005 54.088 56.3162 53.5279 56.6331C52.9678 56.9499 52.2172 56.9928 51.2161 56.6747C50.2151 56.3566 49.0168 55.6701 47.7523 54.6621C47.258 54.2681 46.7531 53.8122 46.2435 53.3248C47.3825 52.1186 48.5147 50.7372 49.6011 49.1984C51.2217 49.0361 52.7505 48.7868 54.1609 48.4606ZM42.7417 49.3516C43.5397 49.3943 44.3482 49.423 45.1764 49.423C45.9773 49.423 46.7596 49.396 47.5322 49.3561C46.7424 50.4004 45.9373 51.3498 45.1354 52.2047C44.3341 51.348 43.5305 50.3969 42.7417 49.3516Z" fill="#B695FF"/>
</g>
<mask id="mask0_541_2299" style="mask-type:alpha" maskUnits="userSpaceOnUse" x="0" y="1" width="49" height="25">
<rect y="1" width="48.9412" height="24.4706" fill="#C4C4C4"/>
</mask>
<g mask="url(#mask0_541_2299)">
<path d="M40.3027 27.5904C40.3914 26.9139 40.4357 26.2149 40.4357 25.4708C40.4357 24.7492 40.3914 24.0276 40.2805 23.3512L44.7818 19.7884C45.1809 19.4727 45.2918 18.8639 45.0479 18.4129L40.7905 10.9267C40.5244 10.4306 39.9701 10.2727 39.4822 10.4306L34.1827 12.5953C33.074 11.7384 31.8988 11.0169 30.5906 10.4757L29.7923 4.74824C29.7036 4.20706 29.2601 3.82373 28.728 3.82373H20.2132C19.6811 3.82373 19.2597 4.20706 19.1711 4.74824L18.3728 10.4757C17.0645 11.0169 15.8672 11.761 14.7806 12.5953L9.48111 10.4306C8.99329 10.2502 8.43894 10.4306 8.17286 10.9267L3.93767 18.4129C3.67158 18.8865 3.76028 19.4727 4.20375 19.7884L8.70503 23.3512C8.59416 24.0276 8.50547 24.7718 8.50547 25.4708C8.50547 26.1698 8.54981 26.9139 8.66068 27.5904L4.1594 31.1531C3.76028 31.4688 3.64941 32.0776 3.89332 32.5286L8.15068 40.0149C8.41677 40.511 8.97111 40.6688 9.45894 40.511L14.7585 38.3463C15.8672 39.2031 17.0424 39.9247 18.3506 40.4659L19.1489 46.1933C19.2598 46.7345 19.6811 47.1178 20.2132 47.1178H28.728C29.2601 47.1178 29.7036 46.7345 29.7701 46.1933L30.5684 40.4659C31.8766 39.9247 33.074 39.2031 34.1605 38.3463L39.4601 40.511C39.9479 40.6914 40.5022 40.511 40.7683 40.0149L45.0257 32.5286C45.2918 32.0326 45.1809 31.4688 44.7596 31.1531L40.3027 27.5904ZM24.4706 33.5884C20.0802 33.5884 16.488 29.9355 16.488 25.4708C16.488 21.0061 20.0802 17.3531 24.4706 17.3531C28.861 17.3531 32.4532 21.0061 32.4532 25.4708C32.4532 29.9355 28.861 33.5884 24.4706 33.5884Z" fill="#B695FF"/>
</g>
<mask id="mask1_541_2299" style="mask-type:alpha" maskUnits="userSpaceOnUse" x="0" y="25" width="27" height="24">
<rect y="25.4705" width="26.3529" height="22.5882" fill="#C4C4C4"/>
</mask>
<g mask="url(#mask1_541_2299)">
<path d="M40.3027 28.5313C40.3914 27.8548 40.4357 27.1558 40.4357 26.4117C40.4357 25.6901 40.3914 24.9686 40.2805 24.2921L44.7818 20.7294C45.1809 20.4137 45.2918 19.8048 45.0479 19.3539L40.7905 11.8676C40.5244 11.3715 39.9701 11.2137 39.4822 11.3715L34.1827 13.5362C33.074 12.6794 31.8988 11.9578 30.5906 11.4166L29.7923 5.68916C29.7036 5.14798 29.2601 4.76465 28.728 4.76465H20.2132C19.6811 4.76465 19.2597 5.14798 19.1711 5.68916L18.3728 11.4166C17.0645 11.9578 15.8672 12.7019 14.7806 13.5362L9.48111 11.3715C8.99329 11.1911 8.43894 11.3715 8.17286 11.8676L3.93767 19.3539C3.67158 19.8274 3.76028 20.4137 4.20375 20.7294L8.70503 24.2921C8.59416 24.9686 8.50547 25.7127 8.50547 26.4117C8.50547 27.1107 8.54981 27.8548 8.66068 28.5313L4.1594 32.0941C3.76028 32.4097 3.64941 33.0186 3.89332 33.4695L8.15068 40.9558C8.41677 41.4519 8.97111 41.6097 9.45894 41.4519L14.7585 39.2872C15.8672 40.1441 17.0424 40.8656 18.3506 41.4068L19.1489 47.1343C19.2598 47.6754 19.6811 48.0588 20.2132 48.0588H28.728C29.2601 48.0588 29.7036 47.6754 29.7701 47.1343L30.5684 41.4068C31.8766 40.8656 33.074 40.1441 34.1605 39.2872L39.4601 41.4519C39.9479 41.6323 40.5022 41.4519 40.7683 40.9558L45.0257 33.4695C45.2918 32.9735 45.1809 32.4097 44.7596 32.0941L40.3027 28.5313ZM24.4706 34.5294C20.0802 34.5294 16.488 30.8764 16.488 26.4117C16.488 21.947 20.0802 18.2941 24.4706 18.2941C28.861 18.2941 32.4532 21.947 32.4532 26.4117C32.4532 30.8764 28.861 34.5294 24.4706 34.5294Z" fill="#B695FF"/>
</g>
<defs>
<clipPath id="clip0_541_2299">
<rect width="38.5882" height="38.5882" fill="white" transform="translate(25.4117 23.5881)"/>
</clipPath>
</defs>
</svg>
