<svg width="40" height="40" viewBox="0 0 40 40" fill="none" xmlns="http://www.w3.org/2000/svg">
<g clip-path="url(#clip0_292_1759)">
<rect width="40" height="40" rx="3" fill="black"/>
<path d="M11 16C11 11.0294 15.0294 7 20 7H27C29.2091 7 31 8.79086 31 11V37C31 38.1046 30.1046 39 29 39H12C11.4477 39 11 38.5523 11 38V16Z" fill="white"/>
<path d="M40.0003 20.1216C40.0003 9.07664 31.0453 0.121643 20.0003 0.121643C8.95534 0.121643 0.000339054 9.07664 0.000339054 20.1216C0.000339054 25.4605 -0.907684 34.4136 2.50076 38C6 39.8783 6 39.8783 16.8753 39.8783V25.9033H11.797V20.12H16.8753V15.7166C16.8753 10.705 19.862 7.93498 24.4303 7.93498C26.617 7.93498 28.907 8.32664 28.907 8.32664V13.2483H26.3837C23.8987 13.2483 23.1237 14.79 23.1237 16.3716V20.1216H28.6703L27.7837 25.905H23.1237V39.88C35 40 35 40 38 38C40.6869 34.5948 40.0003 24.7953 40.0003 20.1216Z" fill="black"/>
</g>
<defs>
<clipPath id="clip0_292_1759">
<rect width="40" height="40" fill="white"/>
</clipPath>
</defs>
</svg>
