<svg width="40" height="40" viewBox="0 0 40 40" fill="none" xmlns="http://www.w3.org/2000/svg">
<rect width="40" height="40" rx="3" fill="black"/>
<path d="M29.2948 21.6333C27.7336 21.6333 26.2702 20.9746 24.9399 19.9027L25.2629 18.385L25.2742 18.3258C25.5675 16.7137 26.477 14.0099 29.2962 14.0099C31.4098 14.0099 33.1254 15.7193 33.1254 17.8223C33.124 19.9224 31.4084 21.6333 29.2948 21.6333V21.6333ZM29.2948 10.1523C25.6978 10.1523 22.9056 12.4781 21.7723 16.3103C20.0439 13.7236 18.7292 10.6178 17.9657 8H14.0897V18.031C14.0868 20.0141 12.4732 21.622 10.4814 21.6248C8.491 21.622 6.87883 20.0127 6.876 18.031V8H3V18.031C3 22.141 6.3575 25.5106 10.4814 25.5106C14.6082 25.5106 17.9657 22.141 17.9657 18.031V16.3526C18.7151 17.914 19.6402 19.4965 20.7622 20.8956L18.3921 32H22.3545L24.0729 23.9464C25.5788 24.9041 27.31 25.5106 29.2948 25.5106C33.5448 25.5106 37 22.0522 37 17.8237C37 13.5924 33.5448 10.1523 29.2948 10.1523V10.1523Z" fill="white"/>
</svg>
