<svg width="515" height="377" viewBox="0 0 515 377" fill="none" xmlns="http://www.w3.org/2000/svg">
<path d="M461 53.9458L451 54L451.281 105.999L461.281 105.945L461 53.9458Z" fill="#E1E1E1"/>
<path d="M387 53.8537L360 54L360.157 82.9996L387.156 82.8533L387 53.8537Z" fill="#ECECEC"/>
<path d="M414 53.8537L387 54L387.157 82.9996L414.156 82.8533L414 53.8537Z" fill="#F5F5F5"/>
<path d="M360.253 61.9295C378.057 62.0881 395.911 61.9709 413.715 61.6606C413.791 61.6606 413.863 61.6279 413.916 61.5697C413.97 61.5116 414 61.4327 414 61.3504C414 61.2681 413.97 61.1892 413.916 61.131C413.863 61.0728 413.791 61.0401 413.715 61.0401C395.905 60.9298 378.082 61.047 360.247 61.3917C360.181 61.3917 360.119 61.4201 360.072 61.4705C360.026 61.5209 360 61.5893 360 61.6606C360 61.7319 360.026 61.8003 360.072 61.8508C360.119 61.9012 360.181 61.9295 360.247 61.9295H360.253Z" fill="#E1E1E1"/>
<path d="M392.999 81.7345L344 82L344.124 105L393.124 104.734L392.999 81.7345Z" fill="#ECECEC"/>
<path d="M440.999 81.7345L392 82L392.124 105L441.124 104.734L440.999 81.7345Z" fill="#F5F5F5"/>
<path d="M343.208 88.8795C375.67 89.1628 408.252 88.9088 440.714 88.5084C440.79 88.5084 440.863 88.4852 440.916 88.444C440.97 88.4028 441 88.3469 441 88.2886C441 88.2303 440.97 88.1744 440.916 88.1332C440.863 88.0919 440.79 88.0688 440.714 88.0688C408.252 87.9369 375.67 87.9516 343.208 88.5035C343.15 88.5107 343.097 88.5336 343.059 88.568C343.021 88.6025 343 88.6463 343 88.6915C343 88.7367 343.021 88.7805 343.059 88.815C343.097 88.8494 343.15 88.8723 343.208 88.8795V88.8795Z" fill="#E1E1E1"/>
<path d="M515 106H325V114H515V106Z" fill="#E1E1E1"/>
<path d="M364 110H356V139H364V110Z" fill="#E1E1E1"/>
<path d="M479 110H471V139H479V110Z" fill="#E1E1E1"/>
<path d="M470.999 32.8999L461 33L461.709 103.996L471.709 103.896L470.999 32.8999Z" fill="#ECECEC"/>
<path d="M487 47.9133L471 48L471.313 105.999L487.313 105.912L487 47.9133Z" fill="#F5F5F5"/>
<path d="M487 59.5C487 59.7727 483.421 60 479.003 60C474.586 60 471 59.7727 471 59.5C471 59.2273 474.579 59 479.003 59C483.427 59 487 59.2727 487 59.5Z" fill="#E1E1E1"/>
<path d="M487 56.5C487 56.7727 483.421 57 479.003 57C474.586 57 471 56.7727 471 56.5C471 56.2273 474.579 56 479.003 56C483.427 56 487 56.2273 487 56.5Z" fill="#E1E1E1"/>
<path d="M487 97.5C487 97.7727 483.421 98 479.003 98C474.586 98 471 97.7727 471 97.5C471 97.2273 474.579 97 479.003 97C483.427 97 487 97.2159 487 97.5Z" fill="#E1E1E1"/>
<path d="M487 94.5C487 94.7727 483.421 95 479.003 95C474.586 95 471 94.7727 471 94.5C471 94.2273 474.579 94 479.003 94C483.427 94 487 94.2273 487 94.5Z" fill="#E1E1E1"/>
<path d="M479.5 89C479.227 89 479 83.1748 479 76C479 68.8252 479.227 63 479.5 63C479.773 63 480 68.8188 480 76C480 83.1812 479.795 89 479.5 89Z" fill="#E1E1E1"/>
<path d="M505 62H487V106H505V62Z" fill="#ECECEC"/>
<path d="M469 47C469 47.5933 468.824 48.1734 468.494 48.6667C468.165 49.1601 467.696 49.5446 467.148 49.7716C466.6 49.9987 465.997 50.0581 465.415 49.9424C464.833 49.8266 464.298 49.5409 463.879 49.1213C463.459 48.7018 463.173 48.1672 463.058 47.5853C462.942 47.0033 463.001 46.4001 463.228 45.852C463.455 45.3038 463.84 44.8352 464.333 44.5056C464.827 44.176 465.407 44 466 44C466.394 43.9992 466.785 44.0762 467.149 44.2267C467.513 44.3771 467.844 44.5981 468.123 44.8768C468.402 45.1556 468.623 45.4866 468.773 45.851C468.924 46.2153 469.001 46.6058 469 47Z" fill="#E1E1E1"/>
<path d="M467 55H465V97H467V55Z" fill="#E1E1E1"/>
<path d="M168 20H65V170H168V20Z" fill="#E1E1E1"/>
<path d="M163 20H60V170H163V20Z" fill="#F5F5F5"/>
<path d="M151 36H73V153H151V36Z" fill="white"/>
<path d="M150.701 153.898C150.701 153.898 150.701 153.7 150.701 153.323C150.701 152.946 150.701 152.377 150.701 151.656C150.701 150.174 150.701 148.014 150.669 145.204C150.669 139.563 150.631 131.354 150.599 120.974C150.568 100.238 150.53 70.8723 150.472 36.2938L150.733 36.5494H73.2797L73.5595 36.2683C73.5595 80.6333 73.5213 121.536 73.5022 153.872L73.2797 153.649L129.664 153.764L145.24 153.821H149.334C150.256 153.821 150.746 153.821 150.746 153.821H149.379H145.329L129.804 153.879L73.2797 154H73.0572V153.776C73.0572 121.44 73.0572 80.5375 73 36.1725V36H73.2924H150.746H151V36.2619C150.949 70.9107 150.905 100.334 150.873 121.114C150.873 131.463 150.822 139.64 150.809 145.28C150.809 148.066 150.809 150.212 150.777 151.668C150.777 152.377 150.777 152.946 150.777 153.304C150.777 153.661 150.701 153.898 150.701 153.898Z" fill="#E1E1E1"/>
<path d="M164 20C163.469 20.9406 162.855 21.8319 162.165 22.6632C160.965 24.2611 159.27 26.4677 157.333 28.7822C155.397 31.0966 153.587 33.2208 152.254 34.6919C151.575 35.5282 150.82 36.3008 150 37C150.584 36.1026 151.24 35.2543 151.962 34.4636L156.921 28.4588L161.873 22.4539C162.513 21.5791 163.225 20.7584 164 20V20Z" fill="#E1E1E1"/>
<path d="M151 153C154.991 159.161 159.688 164.864 165 170Z" fill="white"/>
<path d="M165 170C164.113 169.365 163.296 168.643 162.562 167.845C158.837 164.164 155.508 160.125 152.627 155.789C151.986 154.917 151.441 153.982 151 153C151.723 153.804 152.384 154.659 152.976 155.558C154.156 157.164 155.809 159.357 157.74 161.705C159.67 164.052 161.515 166.099 162.865 167.563C163.636 168.324 164.35 169.139 165 170V170Z" fill="#E1E1E1"/>
<path d="M60 170L74 153Z" fill="white"/>
<path d="M73.9963 153.002C74.1212 153.099 71.0954 156.985 67.2407 161.681C63.386 166.378 60.1497 170.114 60.005 169.997C59.8602 169.881 62.9058 166.014 66.7605 161.318C70.6152 156.622 73.8713 152.905 73.9963 153.002Z" fill="#E1E1E1"/>
<path d="M60.004 20.0019C60.1279 19.9067 63.1411 23.4106 66.7283 27.8285C70.3155 32.2464 73.12 35.8963 72.996 35.9979C72.8721 36.0994 69.8654 32.5892 66.2717 28.1713C62.678 23.7533 59.88 20.0971 60.004 20.0019Z" fill="#E1E1E1"/>
<path d="M126 60H100V134H126V60Z" fill="#E1E1E1"/>
<path d="M442.712 82H115.288C110.158 82 106 86.1617 106 91.2955V301.704C106 306.838 110.158 311 115.288 311H442.712C447.842 311 452 306.838 452 301.704V91.2955C452 86.1617 447.842 82 442.712 82Z" fill="#375A64"/>
<path d="M93 296H468V304.912C468 307.852 466.83 310.673 464.746 312.752C462.663 314.832 459.838 316 456.891 316H104.109C101.162 316 98.3369 314.832 96.2536 312.752C94.1704 310.673 93 307.852 93 304.912V296Z" fill="#375A64"/>
<path d="M442 91H116V284H442V91Z" fill="#1A2E35"/>
<path d="M245 294L249.627 301H314.709L319 294H245Z" fill="#1A2E35"/>
<path d="M432.92 98H124.08C122.931 98 122 98.9329 122 100.084V281.916C122 283.067 122.931 284 124.08 284H432.92C434.069 284 435 283.067 435 281.916V100.084C435 98.9329 434.069 98 432.92 98Z" fill="#ECECEC"/>
<path d="M435 284H122L122.337 111H435V284Z" fill="#FAFAFA"/>
<path d="M148 104.5C148 104.994 147.853 105.478 147.579 105.889C147.304 106.3 146.914 106.62 146.457 106.81C146 106.999 145.497 107.048 145.012 106.952C144.527 106.856 144.082 106.617 143.732 106.268C143.383 105.918 143.145 105.473 143.048 104.988C142.952 104.503 143.001 104 143.19 103.543C143.38 103.086 143.7 102.696 144.111 102.421C144.522 102.147 145.006 102 145.5 102C146.163 102 146.799 102.263 147.268 102.732C147.737 103.201 148 103.837 148 104.5V104.5Z" fill="#1A2E35"/>
<path d="M133 104.5C133 104.994 132.853 105.478 132.579 105.889C132.304 106.3 131.914 106.62 131.457 106.81C131 106.999 130.497 107.048 130.012 106.952C129.527 106.856 129.082 106.617 128.732 106.268C128.383 105.918 128.145 105.473 128.048 104.988C127.952 104.503 128.001 104 128.19 103.543C128.38 103.086 128.7 102.696 129.111 102.421C129.522 102.147 130.006 102 130.5 102C131.163 102 131.799 102.263 132.268 102.732C132.737 103.201 133 103.837 133 104.5V104.5Z" fill="#1A2E35"/>
<path d="M140 104.5C140 104.994 139.853 105.478 139.579 105.889C139.304 106.3 138.914 106.62 138.457 106.81C138 106.999 137.497 107.048 137.012 106.952C136.527 106.856 136.082 106.617 135.732 106.268C135.383 105.918 135.145 105.473 135.048 104.988C134.952 104.503 135.001 104 135.19 103.543C135.38 103.086 135.7 102.696 136.111 102.421C136.522 102.147 137.006 102 137.5 102C138.163 102 138.799 102.263 139.268 102.732C139.737 103.201 140 103.837 140 104.5V104.5Z" fill="#1A2E35"/>
<path d="M449 294.223C449 294.344 372.213 294.446 277.541 294.446C182.87 294.446 106 294.344 106 294.223C106 294.102 182.774 294 277.503 294C372.232 294 449 294.096 449 294.223Z" fill="#1A2E35"/>
<path d="M401.317 211.258C402.443 210.571 403.656 210.042 404.925 209.684L405.67 206.107L411.71 206L412.582 209.551C413.863 209.864 415.096 210.349 416.247 210.992L419.298 208.989L423.645 213.185L421.75 216.306C422.43 217.436 422.957 218.652 423.317 219.921L426.893 220.667L427 226.708L423.456 227.58C423.138 228.86 422.651 230.093 422.009 231.245L424.012 234.297L419.816 238.645L416.695 236.749C415.566 237.431 414.351 237.958 413.081 238.316L412.336 241.893L406.296 242L405.424 238.455C404.144 238.136 402.912 237.649 401.76 237.008L398.708 239.011L394.361 234.815L396.257 231.694C395.572 230.565 395.042 229.349 394.683 228.079L391.107 227.333L391 221.292L394.551 220.42C394.865 219.14 395.349 217.907 395.991 216.755L393.988 213.703L398.19 209.355L401.311 211.251L401.317 211.258ZM404.533 219.308C403.643 220.23 403.045 221.396 402.817 222.658C402.589 223.919 402.74 225.221 403.251 226.397C403.762 227.572 404.61 228.57 405.688 229.264C406.766 229.958 408.026 230.317 409.308 230.295C410.589 230.272 411.836 229.871 412.889 229.14C413.943 228.41 414.756 227.383 415.226 226.19C415.697 224.997 415.803 223.692 415.531 222.439C415.259 221.186 414.622 220.041 413.701 219.15C412.463 217.956 410.803 217.303 409.084 217.332C407.365 217.362 405.729 218.072 404.533 219.308V219.308Z" fill="#ECECEC"/>
<path d="M208.031 213.194C210.014 211.999 212.147 211.075 214.375 210.447L215.644 204.184L226.22 204L227.743 210.212C229.985 210.765 232.143 211.619 234.157 212.75L239.505 209.241L247.119 216.589L243.807 222.052C245 224.035 245.924 226.169 246.554 228.397L252.81 229.704L253 240.275L246.789 241.797C246.233 244.039 245.379 246.197 244.251 248.212L247.753 253.561L240.406 261.175L234.963 257.806C232.981 259.003 230.847 259.928 228.618 260.553L227.318 266.816L216.742 267L215.219 260.788C212.977 260.234 210.819 259.38 208.805 258.25L203.507 261.791L195.894 254.443L199.212 248.974C198.015 246.991 197.089 244.857 196.459 242.629L190.184 241.347L190 230.776L196.205 229.253C196.761 227.009 197.614 224.85 198.743 222.832L195.24 217.49L202.587 209.876L208.05 213.188L208.031 213.194ZM213.671 227.28C212.11 228.894 211.063 230.935 210.662 233.145C210.261 235.355 210.525 237.634 211.42 239.693C212.314 241.753 213.8 243.501 215.688 244.717C217.576 245.932 219.782 246.56 222.028 246.521C224.273 246.481 226.456 245.777 228.301 244.497C230.146 243.217 231.569 241.418 232.392 239.328C233.214 237.239 233.398 234.952 232.921 232.758C232.443 230.563 231.326 228.56 229.71 227.001C228.637 225.965 227.372 225.15 225.985 224.604C224.598 224.057 223.117 223.789 221.626 223.815C220.136 223.841 218.665 224.16 217.298 224.755C215.93 225.349 214.694 226.207 213.658 227.28H213.671Z" fill="#ECECEC"/>
<path d="M274.882 151.522C275.855 150.939 276.901 150.486 277.992 150.175L278.633 147.096L283.834 147L284.585 150.06C285.687 150.328 286.749 150.745 287.74 151.298L290.369 149.572L294.108 153.19L292.479 155.877C293.067 156.849 293.522 157.895 293.832 158.988L296.91 159.63L297 164.832L293.947 165.582C293.677 166.685 293.258 167.747 292.703 168.738L294.428 171.368L290.818 175.107L288.131 173.478C287.157 174.066 286.109 174.521 285.014 174.831L284.373 177.91L279.172 178L278.422 174.947C277.319 174.677 276.257 174.258 275.267 173.702L272.637 175.428L268.892 171.817L270.521 169.129C269.937 168.155 269.482 167.11 269.168 166.018L266.09 165.377L266 160.175L269.053 159.424C269.325 158.322 269.744 157.261 270.297 156.269L268.572 153.639L272.188 149.893L274.875 151.522H274.882ZM277.652 158.456C276.887 159.25 276.374 160.254 276.179 161.34C275.983 162.426 276.114 163.545 276.555 164.557C276.996 165.568 277.726 166.427 278.654 167.023C279.582 167.619 280.667 167.927 281.77 167.907C282.873 167.888 283.945 167.541 284.851 166.912C285.757 166.283 286.457 165.399 286.861 164.373C287.265 163.346 287.356 162.223 287.122 161.144C286.888 160.066 286.34 159.081 285.547 158.315C285.02 157.804 284.397 157.403 283.715 157.134C283.032 156.864 282.304 156.733 281.57 156.746C280.837 156.759 280.113 156.917 279.441 157.21C278.768 157.504 278.161 157.927 277.652 158.456V158.456Z" fill="#F5F5F5"/>
<path d="M307.464 165.878C309.157 164.854 310.98 164.06 312.885 163.52L314.007 158.153L323.068 158L324.376 163.316C326.298 163.792 328.148 164.521 329.879 165.483L334.458 162.481L340.981 168.778L338.118 173.457C339.143 175.149 339.937 176.971 340.478 178.875L345.841 179.996L346 189.054L340.675 190.329C340.204 192.251 339.477 194.101 338.513 195.829L341.517 200.406L335.242 206.958L330.555 204.122C328.862 205.146 327.039 205.937 325.135 206.474L324.019 211.841L314.951 212L313.643 206.678C311.723 206.206 309.874 205.48 308.146 204.517L303.561 207.519L297.038 201.222L299.882 196.537C298.857 194.844 298.063 193.022 297.522 191.119L292.159 190.004L292 180.94L297.318 179.633C297.794 177.714 298.523 175.866 299.487 174.139L296.483 169.556L302.783 163.035L307.464 165.878V165.878ZM312.298 177.95C310.963 179.334 310.068 181.082 309.726 182.973C309.385 184.865 309.612 186.816 310.379 188.578C311.147 190.341 312.42 191.836 314.038 192.876C315.655 193.915 317.545 194.452 319.468 194.418C321.391 194.384 323.26 193.781 324.84 192.686C326.42 191.59 327.64 190.05 328.345 188.262C329.049 186.473 329.208 184.516 328.8 182.638C328.392 180.759 327.436 179.044 326.053 177.708C324.196 175.918 321.705 174.938 319.125 174.983C316.546 175.029 314.09 176.096 312.298 177.95Z" fill="#ECECEC"/>
<path d="M311.711 118.939C312.559 118.429 313.471 118.033 314.423 117.76L314.985 115.083L319.523 115L320.162 117.664C321.125 117.899 322.052 118.262 322.919 118.742L325.211 117.244L328.472 120.392L327.055 122.732C327.565 123.579 327.96 124.49 328.23 125.441L330.917 126.001L331 130.533L328.332 131.171C328.095 132.131 327.73 133.055 327.247 133.918L328.753 136.212L325.613 139.482L323.289 138.061C322.442 138.573 321.53 138.97 320.577 139.24L320.015 141.924L315.477 142L314.838 139.342C313.877 139.106 312.951 138.741 312.087 138.259L309.789 139.763L306.528 136.614L307.945 134.275C307.435 133.425 307.04 132.512 306.77 131.559L304.083 131.005L304 126.473L306.668 125.836C306.905 124.873 307.27 123.947 307.753 123.082L306.247 120.794L309.4 117.53L311.743 118.952L311.711 118.939ZM314.13 124.975C313.461 125.667 313.012 126.542 312.841 127.488C312.67 128.435 312.784 129.411 313.168 130.293C313.552 131.175 314.19 131.923 315 132.443C315.81 132.964 316.757 133.232 317.72 133.215C318.683 133.198 319.619 132.897 320.411 132.348C321.202 131.8 321.813 131.03 322.166 130.135C322.518 129.24 322.598 128.26 322.393 127.32C322.189 126.38 321.71 125.522 321.017 124.854C320.087 123.96 318.839 123.47 317.548 123.493C316.257 123.515 315.028 124.049 314.13 124.975V124.975Z" fill="#ECECEC"/>
<path d="M257.041 186.18C259.242 184.85 261.612 183.822 264.087 183.124L265.509 176.205L277.262 176L278.946 182.894C281.437 183.508 283.834 184.452 286.075 185.7L292.012 181.811L300.467 189.973L296.784 196.04C298.113 198.242 299.14 200.612 299.839 203.088L306.789 204.536L307 216.286L300.102 217.977C299.488 220.468 298.544 222.866 297.296 225.108L301.191 231.047L293.031 239.504L286.959 235.788C284.758 237.118 282.388 238.146 279.913 238.844L278.466 245.795L266.719 246L265.028 239.1C262.538 238.489 260.14 237.548 257.899 236.3L251.988 240.17L243.533 232.008L247.21 225.941C245.884 223.738 244.859 221.367 244.161 218.893L237.205 217.445L237 205.695L243.898 204.004C244.507 201.511 245.45 199.112 246.704 196.873L242.809 190.941L250.969 182.484L257.041 186.167V186.18Z" fill="#A0E0ED"/>
<path d="M264 200H258V220H264V200Z" fill="white"/>
<path d="M274 204H268V219H274V204Z" fill="white"/>
<path d="M283 211H277V220H283V211Z" fill="white"/>
<path d="M161.013 185.216C163.214 183.886 165.584 182.858 168.06 182.161L169.507 175.205L181.256 175L182.947 181.898C185.438 182.514 187.836 183.457 190.078 184.704L196.016 180.809L204.466 188.969L200.789 195.041C202.114 197.244 203.14 199.613 203.838 202.087L210.795 203.534L211 215.281L204.101 216.972C203.476 219.449 202.526 221.834 201.275 224.062L205.17 230L196.99 238.467L190.917 234.79C188.714 236.116 186.344 237.141 183.87 237.839L182.422 244.795L170.673 245L168.982 238.102C166.492 237.486 164.094 236.543 161.852 235.296L155.99 239.191L147.534 231.031L151.211 224.959C149.886 222.756 148.86 220.387 148.162 217.913L141.205 216.466L141 204.719L147.899 203.028C148.514 200.54 149.457 198.145 150.705 195.906L146.81 189.968L154.972 181.514L161.045 185.197L161.013 185.216Z" fill="#2E2E2E"/>
<path d="M178.214 229C173.959 228.981 169.822 227.585 166.409 225.015C162.997 222.446 160.489 218.839 159.253 214.723C159.229 214.643 159.238 214.556 159.277 214.481C159.316 214.407 159.383 214.351 159.462 214.326C159.543 214.301 159.63 214.31 159.705 214.349C159.779 214.389 159.836 214.456 159.862 214.537C161.189 219.029 164.084 222.882 168.008 225.38C171.933 227.878 176.621 228.852 181.202 228.12C185.783 227.389 189.946 225.001 192.918 221.402C195.889 217.803 197.468 213.236 197.36 208.549C197.252 203.862 195.465 199.374 192.331 195.918C189.197 192.463 184.929 190.274 180.32 189.758C175.71 189.242 171.071 190.435 167.266 193.115C163.46 195.795 160.746 199.779 159.627 204.329C159.617 204.37 159.599 204.408 159.574 204.442C159.549 204.476 159.517 204.504 159.481 204.526C159.445 204.547 159.405 204.561 159.364 204.567C159.323 204.573 159.281 204.57 159.24 204.56C159.199 204.551 159.161 204.534 159.127 204.509C159.093 204.485 159.065 204.453 159.043 204.417C159.022 204.381 159.008 204.341 159.003 204.299C158.997 204.258 159 204.215 159.012 204.175C159.906 200.537 161.794 197.227 164.46 194.622C167.126 192.016 170.463 190.22 174.09 189.439C177.717 188.658 181.488 188.923 184.973 190.203C188.458 191.484 191.517 193.728 193.801 196.681C196.085 199.634 197.502 203.176 197.891 206.904C198.28 210.632 197.624 214.395 195.999 217.764C194.374 221.133 191.845 223.973 188.701 225.96C185.556 227.946 181.922 229 178.214 229V229Z" fill="white"/>
<path d="M177.279 223C174.28 222.992 171.366 221.989 168.977 220.144C166.587 218.3 164.853 215.712 164.037 212.775C164.025 212.734 164.022 212.69 164.027 212.648C164.032 212.605 164.045 212.564 164.066 212.527C164.086 212.49 164.114 212.457 164.147 212.431C164.18 212.404 164.218 212.385 164.259 212.374C164.34 212.352 164.426 212.364 164.498 212.406C164.571 212.448 164.624 212.518 164.646 212.6C165.501 215.709 167.433 218.397 170.084 220.168C172.735 221.939 175.926 222.672 179.067 222.233C182.208 221.793 185.087 220.21 187.171 217.777C189.255 215.344 190.403 212.225 190.403 208.997C190.403 205.768 189.255 202.649 187.171 200.216C185.087 197.783 182.208 196.2 179.067 195.761C175.926 195.322 172.735 196.055 170.084 197.826C167.433 199.596 165.501 202.285 164.646 205.393C164.623 205.479 164.568 205.552 164.493 205.596C164.417 205.641 164.327 205.652 164.243 205.629C164.159 205.606 164.087 205.55 164.044 205.473C164 205.396 163.989 205.305 164.011 205.219C164.703 202.71 166.068 200.447 167.954 198.685C169.839 196.923 172.171 195.732 174.685 195.246C177.2 194.76 179.797 194.998 182.186 195.933C184.575 196.869 186.66 198.465 188.206 200.541C189.753 202.618 190.699 205.092 190.939 207.687C191.179 210.281 190.704 212.893 189.565 215.227C188.427 217.561 186.671 219.525 184.496 220.898C182.321 222.271 179.813 222.999 177.253 223H177.279Z" fill="white"/>
<path d="M178.252 212C177.498 211.992 176.766 211.772 176.15 211.37C176.113 211.347 176.081 211.317 176.057 211.283C176.032 211.248 176.015 211.209 176.006 211.169C175.998 211.128 175.998 211.086 176.007 211.046C176.016 211.005 176.033 210.966 176.058 210.932C176.083 210.898 176.115 210.868 176.153 210.845C176.19 210.823 176.232 210.807 176.276 210.799C176.319 210.791 176.365 210.791 176.408 210.799C176.452 210.808 176.494 210.824 176.531 210.847C177.038 211.168 177.638 211.339 178.252 211.338C178.723 211.341 179.188 211.244 179.612 211.054C180.036 210.864 180.408 210.587 180.698 210.244C180.989 209.901 181.191 209.5 181.289 209.074C181.387 208.647 181.379 208.205 181.264 207.782C181.15 207.359 180.932 206.965 180.628 206.632C180.324 206.299 179.942 206.034 179.511 205.859C179.08 205.684 178.611 205.602 178.14 205.62C177.67 205.638 177.21 205.756 176.796 205.964C176.757 205.984 176.714 205.996 176.669 206.001C176.625 206.005 176.58 206.001 176.537 205.99C176.494 205.978 176.454 205.959 176.419 205.933C176.384 205.907 176.355 205.874 176.334 205.838C176.312 205.802 176.299 205.762 176.294 205.72C176.289 205.679 176.293 205.637 176.306 205.598C176.319 205.558 176.34 205.521 176.368 205.489C176.396 205.456 176.43 205.429 176.47 205.41C176.974 205.161 177.532 205.021 178.103 205.002C178.673 204.983 179.241 205.085 179.763 205.299C180.285 205.513 180.748 205.835 181.115 206.24C181.483 206.644 181.747 207.121 181.886 207.634C182.026 208.147 182.037 208.682 181.92 209.2C181.802 209.718 181.559 210.204 181.209 210.622C180.859 211.039 180.411 211.378 179.898 211.611C179.386 211.844 178.823 211.967 178.252 211.969V212Z" fill="white"/>
<path d="M178 208.683L172.776 206L172.88 208.389L159 208.737L159.155 209.809L173.048 209.57L173.087 212L178 208.683Z" fill="white"/>
<path d="M162.866 208.541L162.785 208.398C162.592 208.039 162.304 207.736 161.949 207.521C161.595 207.306 161.188 207.187 160.77 207.176L156 207L158.069 208.808L156.235 211L160.797 210.909C161.299 210.9 161.784 210.734 162.181 210.437C162.578 210.139 162.866 209.725 163 209.257V209.257L162.866 208.541Z" fill="white"/>
<path d="M177.84 218C176.078 217.992 174.365 217.393 172.955 216.29C171.545 215.188 170.513 213.642 170.012 211.88C169.989 211.794 169.999 211.702 170.042 211.624C170.084 211.546 170.154 211.488 170.237 211.464C170.319 211.44 170.408 211.451 170.483 211.495C170.558 211.539 170.613 211.612 170.636 211.698C171.151 213.506 172.273 215.061 173.797 216.077C175.321 217.094 177.145 217.504 178.936 217.232C180.726 216.961 182.363 216.027 183.547 214.6C184.731 213.174 185.382 211.351 185.382 209.464C185.382 207.578 184.731 205.755 183.547 204.328C182.363 202.902 180.726 201.967 178.936 201.696C177.145 201.425 175.321 201.835 173.797 202.851C172.273 203.867 171.151 205.422 170.636 207.23C170.613 207.313 170.559 207.383 170.486 207.424C170.414 207.466 170.328 207.476 170.249 207.451C170.17 207.425 170.105 207.367 170.066 207.29C170.028 207.214 170.02 207.124 170.043 207.042C170.48 205.534 171.31 204.182 172.441 203.138C173.572 202.093 174.959 201.397 176.447 201.126C177.935 200.856 179.467 201.022 180.87 201.606C182.273 202.19 183.493 203.168 184.393 204.433C185.294 205.698 185.84 207.198 185.97 208.768C186.1 210.337 185.809 211.913 185.13 213.32C184.451 214.727 183.411 215.91 182.124 216.736C180.838 217.563 179.357 218 177.846 218H177.84Z" fill="white"/>
<path d="M352.048 184.21C354.25 182.884 356.619 181.859 359.092 181.161L360.539 174.205L372.283 174L373.973 180.898C376.461 181.511 378.856 182.454 381.093 183.704L387.029 179.809L395.482 187.969L391.8 194.041C393.129 196.242 394.157 198.612 394.854 201.087L401.795 202.515L402 214.262L395.104 215.953C394.49 218.441 393.546 220.836 392.299 223.075L396.192 229.012L388.035 237.467L381.945 233.79C379.743 235.116 377.375 236.141 374.902 236.839L373.454 243.795L361.711 244L360.02 237.102C357.531 236.486 355.135 235.543 352.894 234.296L346.958 238.191L338.544 230.005L342.22 223.933C340.895 221.731 339.87 219.361 339.172 216.888L332.218 215.44L332 203.745L338.896 202.054C339.509 199.563 340.452 197.165 341.701 194.925L337.821 189.013L345.978 180.565L352.048 184.242V184.21Z" fill="#FCB05C"/>
<path d="M350 210.138L354.449 205.65L363.032 213.343L379.873 197L384 201.488L362.392 222L350 210.138Z" fill="white"/>
<path d="M234 188C234.015 187.929 234.039 187.861 234.07 187.796L234.325 187.222C234.44 186.96 234.58 186.654 234.746 186.29C234.929 185.851 235.142 185.425 235.384 185.015C235.639 184.549 235.919 184.039 236.232 183.484C236.544 182.929 236.952 182.361 237.361 181.73C237.769 181.098 238.26 180.454 238.77 179.816C239.28 179.178 239.873 178.464 240.485 177.756C241.097 177.048 241.824 176.371 242.545 175.631C242.895 175.255 243.31 174.936 243.705 174.579C244.101 174.222 244.515 173.864 244.942 173.514L246.288 172.493C246.517 172.321 246.741 172.142 246.983 171.976L247.716 171.492C248.207 171.166 248.705 170.854 249.221 170.509L250.822 169.597C251.357 169.272 251.938 169.023 252.505 168.742C253.073 168.462 253.653 168.162 254.265 167.939L256.102 167.199L258.015 166.561C263.391 164.896 269.09 164.557 274.626 165.572L276.603 165.961L278.516 166.478C279.153 166.631 279.753 166.867 280.359 167.065C280.964 167.262 281.564 167.46 282.131 167.703L283.834 168.417C284.382 168.672 284.912 168.953 285.441 169.214L286.225 169.603C286.487 169.744 286.729 169.897 286.978 170.037L288.432 170.892C288.903 171.185 289.343 171.53 289.79 171.804C290.236 172.078 290.676 172.385 291.065 172.71C291.862 173.348 292.672 173.922 293.354 174.579C294.037 175.236 294.738 175.791 295.306 176.416C295.873 177.041 296.473 177.583 296.932 178.17C297.391 178.757 297.869 179.274 298.258 179.778L299.285 181.2C299.561 181.575 299.817 181.964 300.05 182.367L300.579 183.241C300.713 183.471 300.815 183.65 300.898 183.784C300.936 183.845 300.97 183.909 301 183.975C300.95 183.922 300.906 183.864 300.866 183.803L300.522 183.28L299.967 182.419C299.728 182.022 299.464 181.64 299.176 181.277L298.137 179.873C297.741 179.376 297.276 178.865 296.798 178.298C296.32 177.73 295.739 177.175 295.159 176.569C294.579 175.963 293.884 175.376 293.201 174.758C292.519 174.139 291.709 173.552 290.912 172.92C290.517 172.595 290.064 172.327 289.637 172.021C289.209 171.715 288.75 171.383 288.285 171.128L286.825 170.331C286.576 170.19 286.334 170.037 286.079 169.903L285.294 169.514C284.771 169.259 284.242 168.985 283.694 168.736L282.004 168.028C281.443 167.773 280.843 167.6 280.244 167.39C279.644 167.179 279.045 166.956 278.414 166.809L276.501 166.306L274.543 165.923C269.073 164.928 263.443 165.263 258.129 166.899L256.216 167.537L254.399 168.264C253.761 168.487 253.219 168.787 252.645 169.055C252.072 169.323 251.504 169.578 250.975 169.897L249.381 170.796C248.864 171.109 248.379 171.434 247.882 171.766L247.155 172.244C246.919 172.404 246.69 172.582 246.466 172.755L245.121 173.762C244.694 174.107 244.292 174.47 243.89 174.809C243.489 175.147 243.08 175.478 242.723 175.848C242.009 176.575 241.269 177.226 240.67 177.947C240.071 178.668 239.433 179.293 238.942 179.975C238.451 180.658 237.909 181.251 237.52 181.889C237.131 182.527 236.704 183.069 236.372 183.611L235.505 185.13C235.268 185.527 235.056 185.938 234.867 186.361C234.695 186.718 234.542 186.999 234.421 187.273L234.134 187.834C234.038 187.936 234 188 234 188Z" fill="#1A2E35"/>
<path d="M248 167C248.22 166.816 248.459 166.655 248.714 166.52C249.378 166.115 250.063 165.742 250.767 165.403C253.085 164.264 255.535 163.4 258.065 162.827C260.599 162.257 263.194 161.979 265.795 162.001C266.579 162.004 267.363 162.046 268.142 162.129C268.432 162.138 268.72 162.179 269 162.25C268.713 162.274 268.424 162.274 268.136 162.25C267.585 162.22 266.784 162.208 265.795 162.25C260.626 162.317 255.533 163.469 250.867 165.627C249.972 166.04 249.258 166.393 248.776 166.654C248.529 166.793 248.269 166.909 248 167V167Z" fill="#1A2E35"/>
<path d="M401 232C400.984 232.071 400.958 232.14 400.923 232.204L400.668 232.778L400.247 233.71C400.063 234.149 399.85 234.575 399.609 234.986L398.767 236.517C398.435 237.066 398.04 237.64 397.638 238.271C397.236 238.903 396.732 239.547 396.228 240.185C395.688 240.9 395.113 241.588 394.505 242.246C393.905 242.973 393.165 243.63 392.45 244.37C392.093 244.747 391.678 245.066 391.283 245.423C390.887 245.78 390.472 246.137 390.045 246.488L388.699 247.509C388.469 247.681 388.246 247.86 388.003 248.026L387.276 248.511C386.778 248.83 386.287 249.149 385.77 249.493L384.162 250.405C383.633 250.724 383.052 250.98 382.478 251.26C381.904 251.541 381.329 251.841 380.717 252.064L378.886 252.804L376.972 253.442C371.602 255.102 365.911 255.442 360.383 254.431L358.405 254.036L356.491 253.525C355.853 253.372 355.253 253.136 354.647 252.932C354.041 252.728 353.441 252.543 352.873 252.294L351.176 251.579C350.621 251.324 350.091 251.043 349.562 250.782L348.777 250.393C348.522 250.252 348.273 250.099 348.03 249.959L346.569 249.104C346.104 248.804 345.657 248.466 345.217 248.192C344.776 247.917 344.33 247.611 343.941 247.286C343.137 246.648 342.326 246.074 341.644 245.417C340.961 244.759 340.265 244.204 339.691 243.579C339.117 242.954 338.524 242.412 338.064 241.825C337.605 241.238 337.126 240.721 336.737 240.217C336.348 239.713 336.023 239.222 335.716 238.794C335.435 238.421 335.177 238.032 334.944 237.627L334.415 236.753C334.281 236.523 334.179 236.345 334.096 236.211C334.055 236.151 334.023 236.087 334 236.019C334.046 236.074 334.089 236.131 334.128 236.191L334.472 236.715L335.027 237.576C335.264 237.958 335.522 238.326 335.799 238.68L336.839 240.083C337.241 240.581 337.707 241.091 338.186 241.659C338.664 242.227 339.238 242.782 339.825 243.388C340.412 243.994 341.101 244.581 341.784 245.2C342.467 245.818 343.277 246.405 344.075 247.037C344.47 247.362 344.917 247.63 345.351 247.937C345.784 248.243 346.238 248.543 346.703 248.83L348.152 249.672C348.4 249.812 348.643 249.965 348.898 250.099L349.683 250.488C350.206 250.744 350.736 251.018 351.284 251.267L352.975 251.975C353.537 252.23 354.143 252.402 354.736 252.613C355.329 252.823 355.936 253.047 356.567 253.193L358.481 253.697L360.447 254.08C365.932 255.082 371.579 254.747 376.908 253.104L378.822 252.466L380.647 251.739C381.253 251.516 381.821 251.216 382.395 250.948C382.969 250.68 383.537 250.425 384.067 250.099L385.662 249.206C386.178 248.893 386.67 248.568 387.161 248.236L387.895 247.758C388.131 247.598 388.354 247.42 388.584 247.248L389.924 246.24C390.351 245.895 390.753 245.531 391.162 245.193C391.57 244.855 391.972 244.523 392.323 244.153C393.044 243.426 393.784 242.775 394.384 242.054C394.983 241.334 395.615 240.708 396.113 240.026C396.61 239.343 397.14 238.75 397.535 238.112C397.931 237.474 398.346 236.925 398.678 236.383L399.552 234.871C399.789 234.473 400.002 234.062 400.19 233.64C400.368 233.282 400.515 233.002 400.643 232.727L400.923 232.166C400.944 232.108 400.969 232.053 401 232V232Z" fill="#1A2E35"/>
<path d="M210 230.001C209.983 230.07 209.957 230.136 209.923 230.199L209.674 230.779C209.553 231.035 209.413 231.348 209.253 231.711C209.094 232.075 208.89 232.503 208.615 232.988C208.341 233.473 208.073 233.958 207.767 234.52C207.461 235.082 207.046 235.643 206.638 236.269C206.229 236.895 205.732 237.546 205.228 238.184C204.724 238.822 204.124 239.531 203.505 240.246C202.886 240.961 202.172 241.631 201.451 242.365C201.1 242.742 200.685 243.067 200.284 243.425C199.882 243.782 199.48 244.14 199.046 244.491L197.706 245.512C197.476 245.678 197.247 245.863 197.011 246.029L196.277 246.514C195.779 246.833 195.288 247.152 194.771 247.491L193.17 248.404C192.634 248.729 192.054 248.978 191.486 249.265C190.918 249.553 190.338 249.84 189.725 250.07L187.888 250.804L185.974 251.442C180.605 253.106 174.914 253.443 169.387 252.425L167.409 252.036L165.495 251.519C164.857 251.372 164.257 251.136 163.651 250.931C163.045 250.727 162.445 250.536 161.878 250.293L160.174 249.578C159.626 249.323 159.096 249.042 158.567 248.78L157.775 248.384C157.52 248.25 157.278 248.097 157.029 247.95L155.574 247.095C155.102 246.801 154.662 246.457 154.216 246.189C153.769 245.92 153.329 245.608 152.94 245.276C152.142 244.637 151.326 244.063 150.649 243.412C149.973 242.761 149.265 242.199 148.697 241.567C148.129 240.935 147.53 240.405 147.064 239.812C146.598 239.218 146.132 238.714 145.737 238.203L144.716 236.786C144.437 236.413 144.181 236.023 143.951 235.618L143.421 234.737C143.287 234.514 143.179 234.335 143.102 234.194C143.063 234.136 143.029 234.074 143 234.009C143 234.009 143.051 234.06 143.128 234.182L143.478 234.705L144.034 235.56C144.274 235.959 144.538 236.342 144.825 236.709L145.864 238.107C146.26 238.605 146.726 239.122 147.204 239.69C147.683 240.259 148.257 240.814 148.844 241.42C149.431 242.027 150.12 242.608 150.802 243.233C151.485 243.859 152.295 244.433 153.093 245.072C153.488 245.397 153.935 245.665 154.369 245.965C154.802 246.265 155.249 246.572 155.715 246.865L157.169 247.708C157.418 247.848 157.661 247.995 157.916 248.129L158.694 248.518C159.224 248.774 159.747 249.055 160.295 249.304L161.986 250.006C162.554 250.261 163.154 250.44 163.753 250.644C164.353 250.848 164.953 251.072 165.584 251.225L167.498 251.729L169.457 252.112C174.944 253.115 180.592 252.78 185.923 251.136L187.837 250.497L189.655 249.77C190.293 249.546 190.829 249.246 191.403 248.978C191.977 248.71 192.551 248.448 193.081 248.129L194.676 247.229C195.193 246.916 195.677 246.591 196.175 246.265L196.902 245.786C197.138 245.62 197.362 245.442 197.591 245.276L198.931 244.267C199.365 243.923 199.767 243.559 200.169 243.214C200.571 242.869 200.979 242.544 201.336 242.174C202.051 241.446 202.791 240.801 203.39 240.08C203.99 239.359 204.622 238.727 205.119 238.044C205.617 237.361 206.153 236.767 206.542 236.129C206.931 235.49 207.352 234.941 207.69 234.399L208.558 232.886C208.793 232.487 209.006 232.076 209.196 231.654L209.643 230.735C209.764 230.505 209.853 230.313 209.93 230.173C210.006 230.033 210 229.994 210 230.001Z" fill="#1A2E35"/>
<path d="M346.142 153H217.852C216.425 153.005 215.012 152.724 213.693 152.173C212.374 151.622 211.176 150.812 210.167 149.79C209.158 148.767 208.359 147.552 207.816 146.216C207.272 144.879 206.995 143.446 207 142V142C207 139.083 208.143 136.285 210.178 134.222C212.213 132.159 214.974 131 217.852 131H346.142C347.568 130.999 348.98 131.283 350.297 131.835C351.614 132.388 352.811 133.198 353.819 134.22C354.828 135.241 355.628 136.454 356.173 137.789C356.719 139.124 357 140.555 357 142V142C357 143.445 356.719 144.876 356.173 146.211C355.628 147.546 354.828 148.759 353.819 149.78C352.811 150.802 351.614 151.612 350.297 152.164C348.98 152.717 347.568 153.001 346.142 153Z" fill="#FAFAFA"/>
<path d="M345.114 152L345.952 151.943C346.767 151.871 347.572 151.714 348.353 151.474C349.615 151.06 350.793 150.427 351.834 149.603C353.25 148.464 354.359 146.991 355.06 145.316C355.459 144.318 355.717 143.27 355.829 142.202C355.929 141.02 355.841 139.83 355.569 138.676C355.077 136.632 353.992 134.778 352.452 133.346C350.911 131.913 348.982 130.966 346.905 130.622C345.316 130.458 343.718 130.407 342.122 130.469H331.655L217.014 130.514C214.975 130.516 212.979 131.101 211.263 132.2C209.546 133.298 208.181 134.865 207.328 136.714C206.475 138.563 206.17 140.617 206.449 142.633C206.728 144.65 207.579 146.545 208.902 148.093C210.62 150.111 213.035 151.411 215.667 151.734C216.937 151.879 218.278 151.81 219.586 151.829H246.085L297.622 151.867L332.372 151.918H341.817H344.275H345.107H344.275H341.817H332.372L297.622 151.968H246.085H219.586C218.278 151.968 216.969 152.019 215.629 151.873C212.911 151.545 210.417 150.207 208.642 148.125C207.275 146.53 206.394 144.576 206.105 142.496C205.815 140.416 206.129 138.297 207.008 136.39C207.888 134.483 209.297 132.867 211.068 131.734C212.839 130.602 214.898 130 217.001 130L331.642 130.051H342.109C343.716 129.992 345.325 130.049 346.924 130.222C349.038 130.578 351 131.551 352.562 133.018C354.124 134.485 355.217 136.381 355.702 138.466C355.976 139.636 356.062 140.841 355.956 142.037C355.839 143.125 355.572 144.193 355.162 145.208C354.567 146.7 353.649 148.042 352.475 149.138C351.3 150.234 349.897 151.058 348.366 151.55C347.578 151.787 346.766 151.934 345.946 151.987C345.393 152 345.114 152 345.114 152Z" fill="#1A2E35"/>
<path d="M288.746 150H217.254C215.065 150 212.965 149.104 211.418 147.51C209.87 145.916 209 143.754 209 141.5V141.5C209 139.246 209.87 137.084 211.418 135.49C212.965 133.896 215.065 133 217.254 133H288.746C290.935 133 293.035 133.896 294.582 135.49C296.13 137.084 297 139.246 297 141.5C297 143.754 296.13 145.916 294.582 147.51C293.035 149.104 290.935 150 288.746 150Z" fill="#FC81B3"/>
<g opacity="0.4">
<path opacity="0.4" d="M220 150L230.139 133H241L231.068 150H220Z" fill="white"/>
</g>
<g opacity="0.4">
<path opacity="0.4" d="M242 150L252.136 133H263L253.071 150H242Z" fill="white"/>
</g>
<g opacity="0.4">
<path opacity="0.4" d="M266 150L276.136 133H287L277.071 150H266Z" fill="white"/>
</g>
<path d="M265 124.174C265 125.528 264.034 126.348 262.493 126.348H261.305V128H260V122H262.507C264.034 122 265 122.833 265 124.174ZM263.649 124.174C263.649 123.497 263.238 123.131 262.415 123.131H261.305V125.217H262.396C263.264 125.217 263.649 124.831 263.649 124.174V124.174Z" fill="#1A2E35"/>
<path d="M269.571 128L268.491 126.327H267.296V128H266V122H268.459C269.951 122 270.886 122.833 270.886 124.174C270.902 124.579 270.8 124.979 270.594 125.319C270.388 125.659 270.088 125.921 269.736 126.07L271 128H269.571ZM268.351 123.131H267.296V125.223H268.351C269.148 125.223 269.546 124.831 269.546 124.174C269.546 123.517 269.148 123.131 268.351 123.131Z" fill="#1A2E35"/>
<path d="M271.005 124.165C270.971 123.566 271.118 122.971 271.427 122.456C271.736 121.942 272.192 121.532 272.736 121.279C273.281 121.026 273.888 120.943 274.481 121.039C275.073 121.135 275.623 121.406 276.06 121.818C276.496 122.23 276.799 122.763 276.929 123.349C277.059 123.934 277.01 124.545 276.789 125.103C276.567 125.661 276.184 126.139 275.687 126.476C275.191 126.814 274.605 126.995 274.005 126.995C273.619 127.017 273.233 126.96 272.87 126.828C272.507 126.696 272.175 126.491 271.895 126.226C271.614 125.961 271.39 125.641 271.237 125.287C271.084 124.932 271.005 124.551 271.005 124.165V124.165ZM275.718 124.165C275.711 123.828 275.604 123.5 275.411 123.224C275.219 122.947 274.949 122.733 274.635 122.61C274.321 122.486 273.978 122.457 273.648 122.527C273.318 122.597 273.017 122.763 272.781 123.004C272.545 123.245 272.385 123.55 272.322 123.881C272.259 124.212 272.295 124.554 272.426 124.865C272.556 125.176 272.776 125.441 273.057 125.628C273.338 125.814 273.667 125.914 274.005 125.914C274.235 125.92 274.463 125.879 274.676 125.793C274.89 125.706 275.083 125.577 275.243 125.413C275.404 125.249 275.529 125.053 275.611 124.838C275.693 124.623 275.729 124.394 275.718 124.165V124.165Z" fill="#1A2E35"/>
<path d="M278 124.987C278.034 124.364 278.233 123.766 278.573 123.268C278.914 122.769 279.379 122.392 279.912 122.183C280.446 121.974 281.023 121.943 281.572 122.094C282.121 122.244 282.618 122.57 283 123.03L282.219 123.819C282.058 123.61 281.856 123.443 281.629 123.33C281.402 123.217 281.154 123.161 280.905 123.167C280.461 123.167 280.035 123.361 279.721 123.707C279.407 124.054 279.231 124.523 279.231 125.013C279.231 125.503 279.407 125.972 279.721 126.319C280.035 126.665 280.461 126.86 280.905 126.86C281.157 126.863 281.406 126.803 281.634 126.684C281.861 126.566 282.062 126.391 282.219 126.174L283 126.97C282.618 127.43 282.121 127.756 281.572 127.906C281.023 128.057 280.446 128.026 279.912 127.817C279.379 127.608 278.914 127.231 278.573 126.732C278.233 126.234 278.034 125.636 278 125.013V124.987Z" fill="#1A2E35"/>
<path d="M288 126.883V128H284V122H287.907V123.117H285.19V124.418H287.586V125.494H285.19V126.849L288 126.883Z" fill="#1A2E35"/>
<path d="M289 127.325L289.477 126.316C290.064 126.703 290.758 126.912 291.469 126.919C292.302 126.919 292.636 126.657 292.636 126.303C292.636 125.216 289.123 125.963 289.123 123.808C289.123 122.819 289.955 122.001 291.667 122.001C292.403 121.987 293.128 122.163 293.768 122.512L293.332 123.533C292.816 123.245 292.23 123.091 291.633 123.088C290.808 123.088 290.487 123.389 290.487 123.743C290.487 124.81 294 124.07 294 126.199C294 127.168 293.161 127.999 291.435 127.999C290.571 128.013 289.723 127.779 289 127.325V127.325Z" fill="#1A2E35"/>
<path d="M294 127.336L294.476 126.325C295.059 126.713 295.75 126.923 296.459 126.929C297.288 126.929 297.621 126.666 297.621 126.312C297.621 125.223 294.122 125.971 294.122 123.812C294.122 122.821 294.944 122.001 296.656 122.001C297.388 121.989 298.111 122.165 298.749 122.512L298.314 123.536C297.809 123.247 297.236 123.088 296.649 123.077C295.821 123.077 295.508 123.379 295.508 123.733C295.508 124.803 299 124.061 299 126.194C299 127.165 298.171 127.998 296.452 127.998C295.584 128.022 294.729 127.791 294 127.336V127.336Z" fill="#1A2E35"/>
<path d="M72.0001 265.006C72.0001 265.006 71.664 312 103 312C134.336 312 134 265 134 265L72.0001 265.006Z" fill="#0059DF"/>
<path d="M72 265.006H123.929C123.929 265.006 124.214 306.773 97.977 311.542C99.6349 311.844 101.316 311.997 103 312C134.336 312 134 265 134 265L72 265.006Z" fill="#1C3A74"/>
<path d="M152.848 258.803C151.555 249.73 142.304 240.916 132.755 242.109C125.791 243.023 125.145 250.495 126.695 257.17C127.406 263.372 130.223 269.179 136.205 271.842C145.437 275.97 154.275 268.459 152.848 258.803Z" fill="#92CE91"/>
<path d="M110.693 242.235C111.834 243.726 113.641 244.429 116.274 243.726C123.545 241.762 127.236 232.384 125.628 225.596C123.622 217.204 115.531 219.359 111.321 224.816C108.573 228.386 105.779 239.369 110.693 242.235Z" fill="#92CE91"/>
<path d="M101.241 226.736C105.011 225.068 108.056 220.864 106.651 216.777C105.41 213.046 101.28 213.324 99.117 216.13C97.1175 218.672 95.791 223.664 98.64 225.967C99.1105 226.853 99.9338 227.331 101.241 226.736Z" fill="#92CE91"/>
<path d="M88.2868 238.022C87.9504 239.717 87.9096 241.46 88.1663 243.17C88.2868 247.275 89.9172 251.142 94.1234 253.079C101.552 256.548 106.615 249.604 106.964 242.462C107.107 240.768 106.824 239.066 106.143 237.513C105.462 235.96 104.404 234.608 103.069 233.582C100.62 231.805 95.6397 230.461 92.6833 231.213C89.8792 231.902 88.8324 235.415 88.2868 238.022Z" fill="#92CE91"/>
<path d="M62.5371 261.61C62.454 261.76 62.4157 261.88 62.3391 261.993L62.2624 262.068V262.105C61.3171 263.724 61.1638 265.839 61.0871 267.652V267.803C60.9593 269.032 60.9722 270.272 61.1255 271.499C61.7131 275.389 63.6293 279.618 67.5896 281.124C70.4895 282.197 75.3057 282.504 78.0076 280.772C84.8677 276.424 85.8067 264.571 80.9841 258.811C75.657 252.411 66.2163 254.563 62.5371 261.61Z" fill="#92CE91"/>
<path d="M43.4557 264.899C47.781 261.638 49.7459 253.771 46.0694 249.375C46.0455 249.345 46.015 249.321 45.9804 249.306C45.9458 249.291 45.9083 249.285 45.8711 249.289C45.8339 249.293 45.7982 249.306 45.767 249.328C45.7359 249.35 45.7103 249.379 45.6925 249.414C44.7038 248.416 43.3012 247.816 41.1818 248.051C35.9111 248.703 32.1975 254.613 33.149 260.013C33.94 264.618 39.5135 267.775 43.4557 264.899Z" fill="#92CE91"/>
<path d="M111.968 249.888C109.503 250.321 107.817 252.196 105.977 253.759C105.703 253.995 105.428 254.193 105.115 254.429L104.994 254.544C100.881 257.165 96.8453 260.214 94.029 263.894C94.4186 258.026 90.9701 252.707 86.0783 249.46C85.0182 246.641 83.7282 244.179 83.5686 240.971C83.3993 237.991 84.0626 235.024 85.4844 232.399C85.5611 232.36 85.6377 232.36 85.676 232.322C91.4235 227.041 94.3739 218.29 93.1988 210.534C92.375 205.253 87.2023 196.056 80.548 198.365C74.3981 200.476 72.0097 210.451 72.5142 216.128C73.1018 222.972 77.3741 230.402 84.2647 232.322C81.4101 236.627 81.4484 243.509 83.8751 248.165C83.1346 247.813 82.3757 247.5 81.6017 247.228C77.77 245.952 73.1848 246.482 68.8742 248.089C75.1006 239.051 72.7888 222.385 60.7255 221.645C56.7278 221.409 53.0111 221.76 50.3033 224.968C49.1018 226.387 48.1955 228.031 47.6374 229.804C47.0793 231.577 46.8806 233.444 47.0528 235.294C47.4104 240.888 50.661 247.502 55.6357 250.749C55.9104 250.946 56.1019 251.138 56.2744 251.297C57.2548 252.319 58.5253 253.015 59.9144 253.294C58.7411 254.242 57.6709 255.311 56.7214 256.483C50.1373 264.972 48.6877 277.486 47.1422 287.621C47.1039 287.818 47.0656 288.048 47.0273 288.259C46.7264 287.524 46.3853 286.806 46.0055 286.109C42.557 278.085 36.1709 273.825 26.4576 277.62C19.0944 280.515 4.20841 287.908 8.64037 298.393C12.868 308.484 28.1435 308.445 36.3305 304.81C39.4278 303.439 42.755 301.678 45.0667 299.069C42.5123 310.55 37.8951 322.892 27.9903 328.218C27.9456 328.179 27.9903 328.135 27.9456 328.096C26.7322 324.225 21.1699 324.659 18.079 324.614C13.2192 324.576 9.89205 326.024 6.52018 328.843C6.52018 328.881 6.48186 328.881 6.44355 328.919C6.20726 329.117 5.93266 329.353 5.69637 329.557C5.34514 329.87 5.05776 330.106 4.7193 330.418C2.98939 332.009 1.67414 333.996 0.887634 336.209C-0.389588 339.143 -0.562013 342.199 2.22233 344.15C7.82295 348.181 16.9104 342.275 21.0997 338.716C22.8746 337.286 24.4661 335.643 25.8382 333.824C27.2112 332.612 28.1882 331.126 28.1116 329.327C32.7352 327.21 36.5349 322.949 39.4725 318.019C39.1149 320.57 39.7854 323.46 40.7497 325.762C39.2265 326.377 37.9183 327.426 36.9883 328.779C31.624 333.435 30.2893 342.466 32.0518 349.004C34.5105 358.061 41.8928 359.911 47.2189 352.034C51.6061 345.541 55.2079 332.434 47.3785 327.038C45.418 325.705 43.6937 325.277 42.1291 325.43C41.3424 323.797 40.864 322.033 40.7178 320.226C40.6412 318.663 40.9158 317.139 40.9158 315.614C43.5205 310.568 45.4671 305.209 46.708 299.669C47.1039 297.909 47.4168 296.148 47.6914 294.388C47.8021 293.937 47.879 293.479 47.9213 293.017C49.1986 285.038 49.9202 276.937 52.5449 269.271C55.0546 261.993 58.3435 255.877 65.3554 251.827C76.7929 245.212 91.7556 250.104 93.0903 264.462C93.0914 264.547 93.1182 264.629 93.1672 264.699C93.2162 264.768 93.2851 264.821 93.3649 264.851C92.0201 266.713 91.0876 268.84 90.6296 271.09C90.1715 273.34 90.1983 275.662 90.7083 277.9C92.3559 285.554 100.741 292.844 108.181 287.716C116.093 282.244 124.983 266.554 121.03 256.693C120.116 252.235 117.415 248.931 111.968 249.888Z" fill="#92CE91"/>
<path d="M402.971 195.068L403.381 196.457C404.168 199.121 404.611 201.289 407.838 199.102C410.483 197.318 411.521 194.151 411.865 191.198C412.288 187.66 411.865 183.312 408.44 180.774C405.524 178.6 401.166 181.352 401.014 184.751C400.862 188.15 401.999 191.801 402.971 195.068Z" fill="url(#paint0_linear_553_2396)"/>
<path d="M318.238 115.14C317.751 115.06 317.276 114.98 316.808 114.912C314.055 114.487 311.833 114.296 313.675 111.088C315.169 108.458 318.226 107.128 321.137 106.469C324.631 105.687 329.036 105.6 331.948 108.47C334.435 110.934 332.163 115.245 328.783 115.793C325.403 116.341 321.631 115.688 318.238 115.14Z" fill="url(#paint1_linear_553_2396)"/>
<path d="M337.031 210.971C332.219 209.97 329.651 204.964 330.038 200.269C330.293 197.626 331.149 195.08 332.538 192.83C333.713 190.847 335.55 187.659 337.888 187.026C338.02 186.993 338.158 186.991 338.291 187.021C338.424 187.05 338.549 187.11 338.656 187.195C338.764 187.281 338.85 187.39 338.91 187.514C338.969 187.638 339 187.775 339 187.913C338.844 189.763 337.294 191.277 336.25 192.735C334.939 194.472 333.927 196.422 333.257 198.501C332.069 202.544 333.257 207.429 337.688 208.677C339.15 209.108 338.494 211.275 337.031 210.971Z" fill="#2E2E2E"/>
<path d="M325.359 183.05C323.038 184.323 320.444 184.993 317.808 185C314.973 184.955 312.205 184.121 309.803 182.588C307.837 181.353 305.168 179.338 305.002 176.809C304.951 176.107 305.743 175.84 306.279 176.094C308.137 177.03 309.375 179.143 311.22 180.254C313.184 181.445 315.423 182.084 317.709 182.104C319.995 182.125 322.245 181.527 324.229 180.371C325.864 179.435 327.306 177.713 329.087 177.121C329.196 177.093 329.309 177.091 329.418 177.115C329.528 177.139 329.631 177.187 329.719 177.258C329.807 177.328 329.878 177.418 329.927 177.52C329.975 177.623 330 177.735 330 177.849C329.777 180.215 327.268 182.016 325.359 183.05Z" fill="#2E2E2E"/>
<path d="M395.135 78.7068C391.905 75.4667 396.358 66.3531 398.694 63.7447C400.896 61.274 403.752 61.1301 403.966 65.2585C404.127 68.6952 403.713 72.1347 402.743 75.4292C401.459 79.1884 400.034 79.3573 395.135 78.7068Z" fill="url(#paint2_linear_553_2396)"/>
<path d="M434.61 114.649C436.298 111.75 448.701 109.036 449.82 112.954C451.539 118.962 440.486 124.002 436.104 122.829C432.309 121.81 432.222 117.465 434.61 114.649Z" fill="url(#paint3_linear_553_2396)"/>
<path d="M426 82.2037L435.336 78.2063C435.836 77.9929 436.387 77.9437 436.915 78.0651C437.443 78.1865 437.923 78.4728 438.291 78.8858C438.659 79.2989 438.897 79.8189 438.973 80.3765C439.05 80.9341 438.961 81.5028 438.719 82.0065L433.897 92L426 82.2037Z" fill="#2E2E2E"/>
<path d="M440.005 124.103C442.235 112.416 441.439 94.9373 429.997 84.0107C420.097 74.5464 407.196 71.3917 394.168 72.0942C389.199 72.3729 384.27 73.1408 379.451 74.3868C374.926 75.533 370.496 77.0276 366.2 78.8571C365.088 79.3297 363.981 79.832 362.881 80.3642C361.909 80.8283 360.94 81.3115 359.976 81.8139C356.602 83.5752 353.342 85.5481 350.216 87.721C350.133 87.7721 350.063 87.8296 349.987 87.8807C345.126 91.288 340.621 95.1777 336.538 99.4907C334.176 101.983 331.969 104.619 329.932 107.384C321.484 118.879 316.222 132.603 316.005 147.431C315.795 162.075 321.968 176.048 332.091 186.674C352.095 207.684 382.605 203.22 402.443 188.462C404.303 187.075 406.072 185.569 407.738 183.954C410.288 181.48 412.662 178.83 414.841 176.022C418.077 171.84 421.017 167.435 423.639 162.841C425.805 159.092 427.761 155.325 429.487 151.71C432.176 146.116 434.329 140.892 435.954 136.715C436.909 134.238 437.68 132.137 438.253 130.54C439.013 128.446 439.599 126.293 440.005 124.103V124.103Z" fill="url(#paint4_linear_553_2396)"/>
<path d="M415 176.105C409.128 164.99 399.144 148.279 385.742 133.892C371.123 118.191 349.835 106.383 336.612 100C334.244 102.476 332.036 105.098 330 107.851C342.235 113.618 364.173 125.292 378.455 140.606C392.411 155.589 402.631 173.634 407.878 184C410.438 181.541 412.818 178.903 415 176.105V176.105Z" fill="#2E2E2E"/>
<path d="M429 151.881C423.288 139.817 414.053 122.695 403.378 112.33C392.093 101.37 372.367 89.2551 359.717 82C356.358 83.7651 353.113 85.7402 350 87.9139C361.424 94.3004 384.572 107.878 396.517 119.482C408.233 130.857 418.521 152.341 423.174 163C425.331 159.258 427.28 155.489 429 151.881Z" fill="#2E2E2E"/>
<path d="M440 124.312C434.672 115.505 427.412 103.858 421.436 95.6218C415.807 87.8485 404.143 78.9703 393.834 72C388.827 72.2819 383.858 73.0522 379 74.2999C389.835 81.0581 406.839 92.4868 413.355 101.481C420.968 111.991 431.097 128.803 435.943 137C436.906 134.507 437.683 132.394 438.267 130.788C439.015 128.679 439.594 126.513 440 124.312V124.312Z" fill="#2E2E2E"/>
<g style="mix-blend-mode:overlay" opacity="0.4">
<path d="M424.181 154.902C424.863 154.648 425.642 153.892 426.375 152.628C432.793 141.497 437.66 128.517 437.985 115.417C438.304 102.558 433.482 84.1468 418.72 81.2116C417.425 80.8701 416.055 80.9434 414.804 81.4212C409.4 83.9625 417.693 92.9332 419.428 95.6143C422.976 101.165 425.131 107.484 425.712 114.038C426.886 126.465 423.977 138.987 422.388 151.243C422.012 154.108 422.924 155.379 424.181 154.902Z" fill="#2E2E2E"/>
</g>
<path d="M401.999 172.319C402.082 157.405 393.636 143.079 383.638 145.212C371.284 147.843 370.084 155.297 370.001 170.218C369.918 185.138 375.843 194.942 386.064 195C396.285 195.057 401.923 187.239 401.999 172.319Z" fill="#C6EDFF"/>
<path d="M334.039 147.504C330.344 145.745 327.109 143.145 324.591 139.911C316.802 129.535 328.109 117.241 338.233 114.646C349.765 111.682 364.957 119.301 370.514 129.722C375.743 139.543 366.14 146.897 357.715 149.686C350.472 152.062 341.404 151.145 334.039 147.504Z" fill="#C6EDFF"/>
<path d="M386.607 202C386.206 202 385.813 202 385.412 201.955C382.006 201.694 378.744 200.451 376.013 198.373C373.281 196.294 371.195 193.467 370 190.225L370.597 190C371.75 193.127 373.763 195.854 376.397 197.859C379.031 199.865 382.177 201.065 385.463 201.318C388.672 201.53 391.875 200.82 394.703 199.271C397.532 197.722 399.872 195.396 401.454 192.561L402 192.883C400.457 195.643 398.22 197.941 395.516 199.542C392.813 201.143 389.739 201.991 386.607 202V202Z" fill="#2E2E2E"/>
<path d="M386.914 209C386.506 209 386.098 209 385.684 208.955C381.72 208.7 377.957 207.125 375 204.483L375.427 204C377.88 206.179 380.908 207.612 384.154 208.132C387.399 208.652 390.726 208.235 393.741 206.932L394 207.518C391.767 208.497 389.354 209.002 386.914 209Z" fill="#2E2E2E"/>
<path d="M324.075 147C321.196 145.423 318.813 143.025 317.209 140.09C315.605 137.155 314.847 133.806 315.025 130.44C315.203 127.073 316.31 123.83 318.213 121.094C320.117 118.357 322.738 116.243 325.767 115L326 115.584C323.077 116.781 320.546 118.82 318.708 121.46C316.871 124.1 315.803 127.23 315.631 130.479C315.459 133.727 316.191 136.959 317.74 139.79C319.289 142.622 321.59 144.935 324.37 146.455L324.075 147Z" fill="#2E2E2E"/>
<path d="M308.613 130H308C308.159 126.527 309.257 123.176 311.165 120.34C313.073 117.505 315.711 115.305 318.767 114L319 114.595C316.056 115.852 313.515 117.969 311.674 120.699C309.834 123.428 308.772 126.655 308.613 130V130Z" fill="#2E2E2E"/>
<path d="M509.044 318H51.9558C51.7023 318 51.4592 317.895 51.28 317.707C51.1007 317.52 51 317.265 51 317C51 316.735 51.1007 316.48 51.28 316.293C51.4592 316.105 51.7023 316 51.9558 316H509.044C509.298 316 509.541 316.105 509.72 316.293C509.899 316.48 510 316.735 510 317C510 317.265 509.899 317.52 509.72 317.707C509.541 317.895 509.298 318 509.044 318V318Z" fill="#2E2E2E"/>
<defs>
<linearGradient id="paint0_linear_553_2396" x1="344.49" y1="287.991" x2="433.337" y2="128.042" gradientUnits="userSpaceOnUse">
<stop offset="0.15" stop-color="#FCD844"/>
<stop offset="0.42" stop-color="#FCD443"/>
<stop offset="0.69" stop-color="#FCC740"/>
<stop offset="0.97" stop-color="#FBB33C"/>
<stop offset="1" stop-color="#FBB03B"/>
</linearGradient>
<linearGradient id="paint1_linear_553_2396" x1="1363.03" y1="-27711.1" x2="4736.8" y2="-28959.7" gradientUnits="userSpaceOnUse">
<stop offset="0.15" stop-color="#FCD844"/>
<stop offset="0.42" stop-color="#FCD443"/>
<stop offset="0.69" stop-color="#FCC740"/>
<stop offset="0.97" stop-color="#FBB33C"/>
<stop offset="1" stop-color="#FBB03B"/>
</linearGradient>
<linearGradient id="paint2_linear_553_2396" x1="7714.86" y1="-6855.78" x2="11108.8" y2="-7845.24" gradientUnits="userSpaceOnUse">
<stop offset="0.15" stop-color="#FCD844"/>
<stop offset="0.42" stop-color="#FCD443"/>
<stop offset="0.69" stop-color="#FCC740"/>
<stop offset="0.97" stop-color="#FBB33C"/>
<stop offset="1" stop-color="#FBB03B"/>
</linearGradient>
<linearGradient id="paint3_linear_553_2396" x1="11427" y1="-2186.96" x2="14399.8" y2="-4715.28" gradientUnits="userSpaceOnUse">
<stop offset="0.15" stop-color="#FCD844"/>
<stop offset="0.42" stop-color="#FCD443"/>
<stop offset="0.69" stop-color="#FCC740"/>
<stop offset="0.97" stop-color="#FBB33C"/>
<stop offset="1" stop-color="#FBB03B"/>
</linearGradient>
<linearGradient id="paint4_linear_553_2396" x1="92497.9" y1="-33494.4" x2="108509" y2="-58100.2" gradientUnits="userSpaceOnUse">
<stop offset="0.15" stop-color="#FCD844"/>
<stop offset="0.42" stop-color="#FCD443"/>
<stop offset="0.69" stop-color="#FCC740"/>
<stop offset="0.97" stop-color="#FBB33C"/>
<stop offset="1" stop-color="#FBB03B"/>
</linearGradient>
</defs>
</svg>
