<svg width="515" height="377" viewBox="0 0 515 377" fill="none" xmlns="http://www.w3.org/2000/svg">
<path d="M141.039 350C136.836 329.824 146.741 314 146.741 314C154.126 329.67 141.039 350 141.039 350Z" fill="#92CE91"/>
<path d="M140 289C152.976 288.934 162 297.563 162 297.563C151.551 300.338 140 289 140 289Z" fill="#E1E1E1"/>
<path d="M166.334 299C169.262 314.325 161.585 327 161.585 327C156.18 315.291 166.334 299 166.334 299Z" fill="#92CE91"/>
<path d="M134.002 319.994C133.832 319.764 142.878 313.079 154.197 305.079C165.515 297.079 174.852 290.776 174.998 291.006C175.144 291.236 166.128 297.921 154.804 305.927C143.48 313.934 134.179 320.218 134.002 319.994Z" fill="#92CE91"/>
<path d="M109 342C109 342 116.854 319.026 138 316C138.03 316 131.596 335.696 109 342Z" fill="#92CE91"/>
<path d="M112 307.978C112 307.978 131.494 294.697 150 304.78C150 304.75 133.519 316.317 112 307.978Z" fill="#92CE91"/>
<path d="M447.228 130C450.943 150.447 440.038 166 440.038 166C432.783 149.968 447.228 130 447.228 130Z" fill="#92CE91"/>
<path d="M445 191C432.442 190.61 424 181.339 424 181.339C434.205 178.837 445 191 445 191Z" fill="#92CE91"/>
<path d="M418.484 180C415.89 165.023 424.562 153 424.562 153C429.944 164.554 418.484 180 418.484 180Z" fill="#E1E1E1"/>
<path d="M452.998 161.007C453.156 161.244 443.878 167.479 432.283 174.93C420.687 182.382 411.141 188.236 411.002 187.993C410.862 187.749 420.122 181.527 431.723 174.069C443.324 166.612 452.84 160.769 452.998 161.007Z" fill="#92CE91"/>
<path d="M478 139C478 139 469.338 160.84 448 163C448 163 455.123 144.295 478 139Z" fill="#92CE91"/>
<path d="M474 172.682C474 172.682 454.109 185.521 436 174.594C436.018 174.594 452.839 163.4 474 172.682Z" fill="#92CE91"/>
<path d="M370.325 66.3296C372.331 65.1195 374.489 64.1816 376.742 63.5404L378.061 57.1876L388.796 57L390.344 63.3044C392.62 63.8617 394.811 64.7225 396.858 65.8637L402.301 62.3061L410.025 69.7661L406.674 75.3142C407.883 77.3236 408.82 79.4842 409.462 81.7396L415.813 83.0586L416 93.7979L409.698 95.3468C409.138 97.6209 408.278 99.8102 407.14 101.857L410.69 107.302L403.239 115.028L397.693 111.664C395.687 112.878 393.526 113.817 391.27 114.454L389.951 120.812L379.216 121L377.644 114.677C375.37 114.115 373.182 113.253 371.136 112.112L365.693 115.67L357.969 108.21L361.332 102.662C360.119 100.656 359.179 98.4969 358.538 96.2422L352.187 94.9172L352 84.184L358.29 82.6351C358.859 80.3555 359.73 78.1621 360.879 76.1129L357.322 70.6676L364.773 62.9414L370.325 66.3054V66.3296ZM376.047 80.6385C374.473 82.2763 373.42 84.3438 373.02 86.58C372.621 88.8161 372.892 91.1206 373.8 93.2026C374.709 95.2846 376.213 97.0506 378.124 98.2778C380.035 99.505 382.267 100.138 384.537 100.098C386.807 100.057 389.015 99.3449 390.881 98.0503C392.747 96.7557 394.187 94.9371 395.021 92.8241C395.855 90.711 396.044 88.3983 395.564 86.1779C395.085 83.9574 393.959 81.9288 392.328 80.3481C391.242 79.2949 389.958 78.4668 388.55 77.9112C387.143 77.3556 385.64 77.0834 384.127 77.1104C382.614 77.1374 381.122 77.463 379.735 78.0684C378.349 78.6738 377.095 79.5472 376.047 80.6385V80.6385Z" fill="#ECECEC"/>
<path d="M113.332 207.378C115.778 205.899 118.41 204.754 121.16 203.973L122.766 196.228L135.856 196L137.75 203.685C140.525 204.364 143.196 205.414 145.691 206.808L152.284 202.468L161.724 211.568L157.624 218.329C159.102 220.775 160.245 223.408 161.023 226.158L168.772 227.771L169 240.857L161.316 242.745C160.63 245.518 159.58 248.189 158.194 250.688L162.527 257.281L153.435 266.705L146.674 262.599C144.228 264.077 141.596 265.222 138.846 266.003L137.228 273.766L124.138 274L122.256 266.309C119.481 265.63 116.81 264.58 114.315 263.186L107.722 267.526L98.3061 258.432L102.388 251.665C100.91 249.219 99.7671 246.586 98.9894 243.836L91.2397 242.223L91 229.137L98.6837 227.249C99.3635 224.478 100.408 221.809 101.788 219.312L97.455 212.719L106.583 203.277L113.344 207.378H113.332ZM120.308 224.815C118.379 226.814 117.086 229.339 116.592 232.073C116.098 234.806 116.425 237.625 117.533 240.172C118.64 242.72 120.478 244.882 122.814 246.384C125.15 247.887 127.879 248.663 130.656 248.614C133.433 248.566 136.134 247.694 138.416 246.111C140.698 244.528 142.459 242.303 143.477 239.718C144.494 237.134 144.723 234.305 144.134 231.591C143.544 228.876 142.163 226.397 140.165 224.468C137.485 221.882 133.888 220.466 130.165 220.531C126.441 220.596 122.896 222.137 120.308 224.815Z" fill="#ECECEC"/>
<path d="M414.042 241.192C416.23 239.868 418.584 238.841 421.043 238.139L422.512 231.204L434.258 231L435.95 237.899C438.44 238.51 440.837 239.452 443.076 240.7L449.015 236.807L457.467 244.971L453.79 251C455.115 253.195 456.139 255.558 456.837 258.025L463.79 259.47L464 271.216L457.101 272.908C456.488 275.397 455.546 277.793 454.3 280.034L458.187 285.973L450.029 294.425L443.958 290.772C441.763 292.096 439.4 293.121 436.933 293.819L435.488 300.79L423.736 301L422.05 294.101C419.558 293.489 417.159 292.545 414.918 291.294L408.985 295.187L400.533 286.993L404.21 280.922C402.884 278.727 401.857 276.364 401.157 273.897L394.204 272.452L394 260.7L400.899 259.014C401.511 256.523 402.454 254.124 403.7 251.882L399.807 245.949L407.971 237.497L414.042 241.174V241.192ZM420.305 256.843C418.575 258.636 417.416 260.901 416.974 263.352C416.532 265.804 416.827 268.331 417.821 270.615C418.815 272.899 420.464 274.837 422.559 276.185C424.654 277.532 427.102 278.228 429.592 278.184C432.083 278.14 434.505 277.359 436.551 275.94C438.598 274.52 440.178 272.525 441.092 270.208C442.005 267.891 442.211 265.354 441.683 262.92C441.156 260.486 439.918 258.262 438.127 256.531C436.937 255.38 435.532 254.476 433.991 253.869C432.451 253.261 430.807 252.964 429.151 252.993C427.496 253.022 425.863 253.377 424.345 254.037C422.827 254.698 421.454 255.651 420.305 256.843V256.843Z" fill="#ECECEC"/>
<path d="M433 109.415V298.813C432.919 299.361 432.79 299.901 432.615 300.426C432.034 302.204 431.066 303.832 429.78 305.191C428.034 307.035 425.763 308.295 423.274 308.801C422.723 308.902 422.166 308.968 421.607 309H145.36C143.716 308.491 142.195 307.647 140.894 306.521C139.085 304.972 137.738 302.955 137 300.69V108.946C137.356 107.805 137.847 106.71 138.462 105.685C140.373 102.492 143.391 100.113 146.943 99H422.588C424.786 99.6107 426.815 100.716 428.519 102.231C430.224 103.747 431.559 105.632 432.422 107.743C432.65 108.288 432.842 108.846 433 109.415V109.415Z" fill="white"/>
<path d="M433 109.413V147H137V108.944C137.356 107.803 137.847 106.708 138.462 105.684C140.373 102.492 143.391 100.113 146.943 99H422.588C424.786 99.6105 426.815 100.716 428.519 102.231C430.224 103.746 431.559 105.631 432.422 107.741C432.65 108.286 432.842 108.844 433 109.413V109.413Z" fill="#E1E1E1"/>
<path d="M177 125.994C177.001 127.774 176.474 129.515 175.486 130.996C174.498 132.476 173.093 133.631 171.448 134.313C169.804 134.995 167.994 135.174 166.248 134.828C164.502 134.481 162.898 133.625 161.638 132.366C160.379 131.108 159.521 129.504 159.173 127.758C158.826 126.012 159.003 124.202 159.684 122.557C160.366 120.912 161.519 119.506 162.999 118.517C164.479 117.528 166.22 117 168 117C170.386 117 172.674 117.947 174.362 119.634C176.049 121.32 176.998 123.608 177 125.994V125.994Z" fill="white"/>
<path d="M204 125.994C204.001 127.774 203.474 129.515 202.486 130.996C201.497 132.477 200.092 133.632 198.447 134.314C196.802 134.996 194.992 135.174 193.246 134.827C191.499 134.48 189.895 133.623 188.636 132.364C187.377 131.105 186.52 129.501 186.173 127.754C185.826 126.008 186.004 124.198 186.686 122.553C187.368 120.908 188.523 119.503 190.004 118.514C191.485 117.526 193.226 116.999 195.006 117C197.391 117 199.679 117.948 201.366 119.634C203.052 121.321 204 123.609 204 125.994Z" fill="white"/>
<path d="M231 125.994C231.001 127.774 230.474 129.515 229.486 130.996C228.498 132.476 227.093 133.631 225.448 134.313C223.804 134.995 221.994 135.174 220.248 134.828C218.502 134.481 216.898 133.625 215.638 132.366C214.379 131.108 213.521 129.504 213.173 127.758C212.826 126.012 213.003 124.202 213.685 122.557C214.366 120.912 215.519 119.506 216.999 118.517C218.479 117.528 220.22 117 222 117C224.386 117 226.674 117.947 228.362 119.634C230.049 121.32 230.998 123.608 231 125.994Z" fill="white"/>
<path d="M401.485 196H302.491C301.033 195.992 299.637 195.41 298.609 194.38C297.58 193.35 297.002 191.956 297 190.503V190.503C297 189.044 297.582 187.644 298.617 186.612C299.653 185.58 301.057 185 302.521 185H401.485C402.209 185 402.927 185.142 403.597 185.419C404.266 185.696 404.874 186.101 405.387 186.612C405.899 187.123 406.305 187.73 406.582 188.398C406.859 189.065 407.001 189.781 407 190.503C407 191.961 406.419 193.359 405.385 194.39C404.35 195.421 402.947 196 401.485 196Z" fill="#E1E1E1"/>
<path d="M401.486 221H302.52C301.795 221.001 301.078 220.859 300.408 220.583C299.738 220.307 299.13 219.903 298.617 219.392C298.104 218.882 297.698 218.275 297.42 217.608C297.143 216.941 297 216.225 297 215.503C297 214.044 297.582 212.644 298.617 211.612C299.652 210.58 301.056 210 302.52 210H401.486C402.211 210 402.928 210.142 403.598 210.419C404.267 210.696 404.875 211.101 405.387 211.612C405.899 212.123 406.305 212.73 406.582 213.398C406.859 214.065 407.001 214.781 407 215.503C407.001 216.225 406.859 216.94 406.582 217.608C406.305 218.275 405.899 218.881 405.387 219.392C404.875 219.902 404.266 220.307 403.597 220.583C402.928 220.859 402.21 221.001 401.486 221Z" fill="#E1E1E1"/>
<path d="M401.486 246H302.52C301.056 246 299.652 245.421 298.617 244.389C297.582 243.358 297 241.959 297 240.5C297 239.041 297.582 237.642 298.617 236.611C299.652 235.579 301.056 235 302.52 235H401.486C402.211 235 402.928 235.142 403.598 235.419C404.267 235.695 404.875 236.1 405.387 236.611C405.899 237.122 406.305 237.728 406.582 238.396C406.859 239.063 407.001 239.778 407 240.5V240.5C407.001 241.222 406.859 241.937 406.582 242.604C406.305 243.272 405.899 243.878 405.387 244.389C404.875 244.9 404.267 245.305 403.598 245.581C402.928 245.858 402.211 246 401.486 246Z" fill="#E1E1E1"/>
<path d="M352.528 272H302.478C301.025 272 299.632 271.421 298.605 270.389C297.577 269.358 297 267.959 297 266.5V266.5C297 265.041 297.577 263.642 298.605 262.611C299.632 261.579 301.025 261 302.478 261H352.528C353.98 261.002 355.372 261.582 356.398 262.613C357.424 263.644 358 265.042 358 266.5V266.5C358 267.958 357.424 269.356 356.398 270.387C355.372 271.418 353.98 271.998 352.528 272V272Z" fill="#E1E1E1"/>
<path d="M432.988 117.055C432.988 123.39 432.988 129.6 432.988 135.686C432.988 147.879 432.974 159.568 432.946 170.755C432.85 215.415 432.771 251.566 432.723 276.592C432.723 282.836 432.675 288.383 432.657 293.197C432.711 294.881 432.641 296.566 432.447 298.24C432.366 298.787 432.237 299.326 432.062 299.85C431.482 301.627 430.515 303.253 429.23 304.61C427.485 306.452 425.215 307.711 422.729 308.216C422.179 308.317 421.622 308.383 421.063 308.415C420.769 308.439 420.474 308.439 420.179 308.415C420.179 308.355 421.057 308.415 422.699 308.078C424.8 307.602 426.74 306.583 428.323 305.122C429.906 303.661 431.077 301.81 431.719 299.754C432.32 297.831 432.248 295.613 432.236 293.203C432.236 288.395 432.194 282.842 432.17 276.598C432.116 251.572 432.038 215.421 431.948 170.761C431.948 162.968 431.936 154.92 431.912 146.618C431.912 143.012 431.912 139.37 431.912 135.692C431.912 129.594 431.912 123.384 431.912 117.061C431.912 113.864 432.128 110.702 430.835 107.83C429.602 104.926 427.435 102.517 424.677 100.984C423.283 100.229 421.77 99.717 420.204 99.4697C418.582 99.2769 416.947 99.2126 415.315 99.2773H405.212H384.52H341.327L248.589 99.3134H199.532H155.358C153.241 99.3495 151.052 99.2052 149.086 99.4877C146.067 99.9494 143.286 101.4 141.18 103.611C139.074 105.822 137.762 108.669 137.45 111.706C137.306 113.677 137.408 115.913 137.378 117.963C137.378 126.377 137.378 134.739 137.378 143.048V146.564C137.378 161.962 137.378 177.137 137.378 192.09C137.378 224.238 137.378 255.25 137.336 284.795C137.781 291.959 135.532 300.307 141.395 304.929C142.688 306.044 144.215 306.855 145.863 307.303C147.498 307.784 149.194 307.736 151.004 307.736H161.582L202.322 307.772L275.45 307.856L381.339 308.078L410.131 308.21L417.618 308.283C419.302 308.283 420.167 308.355 420.167 308.355C420.167 308.355 419.302 308.403 417.618 308.427L410.131 308.493L381.339 308.625L275.45 308.848L202.322 308.932L161.582 308.968H151.004C149.167 309.075 147.323 308.915 145.532 308.493L145.039 308.343C143.396 307.834 141.877 306.991 140.577 305.867C138.769 304.319 137.423 302.304 136.686 300.043C136.229 298.672 136.013 297.232 136.049 295.788C136.049 292.142 136.049 288.471 136.049 284.777C136.049 255.232 136.049 224.22 136.007 192.072C136.007 175.998 136.007 159.65 136.007 143.03V118.059C136.043 115.925 135.929 113.912 136.085 111.664C136.18 110.644 136.381 109.637 136.686 108.659C137.042 107.519 137.532 106.425 138.148 105.402C140.051 102.208 143.062 99.8253 146.608 98.7064C147.343 98.476 148.095 98.3052 148.857 98.1955C151.118 97.883 153.205 98.0513 155.34 98.0032H199.466H248.523L341.26 98.0453H384.454H405.146H415.249C416.943 97.9788 418.64 98.0491 420.324 98.2556C420.895 98.3455 421.459 98.4719 422.014 98.6343C424.218 99.2509 426.251 100.366 427.956 101.892C429.66 103.419 430.991 105.317 431.845 107.439C432.082 107.993 432.283 108.561 432.447 109.14C432.731 110.172 432.907 111.232 432.97 112.301C433.036 113.936 432.97 115.474 432.988 117.055Z" fill="#1A2E35"/>
<path d="M219.916 174.384L217.86 174.432C217.779 174.432 217.698 174.449 217.623 174.481C217.548 174.514 217.481 174.561 217.425 174.621C217.369 174.681 217.325 174.752 217.297 174.829C217.27 174.906 217.258 174.989 217.263 175.071V175.95L199.201 180.117L202.297 170.247L203.05 170.584L204.287 167.007L177.589 155L175.796 158.324L176.669 158.721L175.688 160.305L171.505 158.432C169.991 157.753 168.271 157.706 166.723 158.304C165.176 158.901 163.927 160.093 163.251 161.618L161.542 165.466C160.867 166.991 160.821 168.724 161.414 170.283C162.007 171.843 163.19 173.101 164.703 173.782L167.004 174.818L164.847 178.78C164.597 179.238 164.445 179.744 164.399 180.264C164.353 180.785 164.415 181.309 164.58 181.805C164.745 182.3 165.01 182.756 165.358 183.143C165.707 183.531 166.131 183.841 166.604 184.055L190.23 194.677C190.704 194.888 191.216 194.998 191.734 195C192.252 195.002 192.765 194.896 193.241 194.689C193.717 194.483 194.145 194.179 194.499 193.798C194.853 193.416 195.125 192.966 195.298 192.474L196.153 190.005L196.272 189.613L217.316 179.575V179.852C217.316 179.934 217.333 180.015 217.365 180.091C217.397 180.167 217.445 180.235 217.504 180.291C217.563 180.347 217.634 180.391 217.71 180.419C217.787 180.447 217.869 180.459 217.95 180.454L220 180.412L219.916 174.384ZM168.319 172.614L165.779 171.47C164.873 171.06 164.164 170.306 163.808 169.372C163.452 168.437 163.477 167.399 163.878 166.484L165.588 162.63C165.994 161.716 166.743 161.003 167.671 160.645C168.598 160.287 169.629 160.314 170.537 160.721L174.421 162.461L168.319 172.614Z" fill="#0059DF"/>
<path d="M224.987 195.161C225.218 200.408 222.299 200.975 221.748 200.999C221.198 201.023 218.243 200.718 218.012 195.472C217.781 190.225 220.913 182 220.913 182C220.913 182 224.756 189.915 224.987 195.161Z" fill="#FCB05C"/>
<path d="M73.5796 157C73.5796 157 68.4552 161.891 72.6515 171L79 165.167L73.5796 157Z" fill="#2E2E2E"/>
<path d="M195.727 132.341C187.309 142.498 174.55 149.57 160.318 155.229C156.77 156.648 153.133 157.971 149.447 159.234C148.635 159.51 147.823 159.793 147.006 160.058C143.723 161.191 140.511 162.519 137.385 164.033C134 165.632 130.771 167.298 127.723 168.723C124.193 170.353 120.844 171.664 117.609 172.193L113.725 172.795C108.536 173.588 104.483 174.039 101.02 173.997C92.8187 173.961 87.8702 171.285 78.7729 164.321C76.8778 162.794 75.2799 160.931 74.0589 158.825C67.8597 148.746 65.6771 131.366 66.0379 122.628C66.0379 122.31 66.0679 121.991 66.092 121.66C66.4527 115.821 68.0221 109.218 70.6256 102.417C72.1423 98.4602 73.9241 94.6107 75.9589 90.8943C78.2528 86.6969 80.8387 82.6659 83.6973 78.8309C86.5774 74.9524 89.7494 71.2995 93.1855 67.904C95.8711 65.2481 98.7403 62.7844 101.772 60.5313C109.588 54.71 118.439 50.5065 128.005 48.9369C163.427 43.1036 198.595 65.4023 202.804 91.0326C203.099 92.8367 203.405 94.9836 203.634 97.3771C204.602 107.558 204.175 122.135 195.727 132.341Z" fill="url(#paint0_linear_553_2397)"/>
<path d="M145.432 93.5767C147.019 92.4733 147.285 90.1071 146.027 88.2916C144.768 86.4761 142.461 85.8988 140.874 87.0022C139.287 88.1055 139.02 90.4717 140.279 92.2872C141.538 94.1027 143.845 94.68 145.432 93.5767Z" fill="#0D1A1C"/>
<path d="M175.414 78.6401C176.874 77.8579 177.214 75.6441 176.174 73.6955C175.133 71.7469 173.105 70.8014 171.645 71.5836C170.184 72.3659 169.844 74.5797 170.885 76.5283C171.925 78.4769 173.953 79.4224 175.414 78.6401Z" fill="#0D1A1C"/>
<path d="M169.403 96.9628C170.067 96.8792 170.693 96.6254 171.208 96.2303C173.155 94.6972 173.001 91.6083 172.995 91.4778C172.991 91.4114 172.973 91.3464 172.941 91.2865C172.91 91.2266 172.866 91.173 172.812 91.1287C172.759 91.0844 172.696 91.0504 172.628 91.0284C172.56 91.0064 172.488 90.9971 172.416 91.0008C172.344 91.0045 172.273 91.0213 172.208 91.0501C172.143 91.079 172.085 91.1193 172.037 91.1689C171.989 91.2184 171.952 91.2762 171.928 91.339C171.904 91.4017 171.894 91.4682 171.898 91.5345C171.898 91.5345 172.028 94.2543 170.494 95.4638C169.65 96.1281 167.647 96.412 164.807 95.0152C164.679 94.9519 164.529 94.9383 164.389 94.9771C164.25 95.016 164.133 95.1042 164.065 95.2224C163.996 95.3407 163.981 95.4792 164.024 95.6075C164.066 95.7358 164.161 95.8434 164.29 95.9067C165.827 96.7547 167.62 97.1249 169.403 96.9628V96.9628Z" fill="#0D1A1C"/>
<path d="M159.164 38.1019C157.888 40.4126 157.151 42.9974 157.011 45.6521C156.926 48.0067 157.326 50.3533 158.185 52.5372C158.707 53.8913 160.068 57.2402 161.852 56.9863C161.919 56.9705 161.981 56.9373 162.033 56.8896C162.084 56.842 162.123 56.7817 162.145 56.7143C162.614 55.469 161.112 53.6072 160.684 52.4345C159.944 50.4001 159.647 48.2228 159.816 46.0571C160.001 43.7596 160.745 41.5474 161.981 39.6253C163.154 37.8118 165.172 36.5302 165.947 34.5052C165.999 34.3364 166.013 34.1575 165.988 33.9822C165.962 33.8069 165.898 33.6401 165.8 33.4945C165.702 33.349 165.572 33.2287 165.422 33.1429C165.271 33.0572 165.104 33.0083 164.932 33C162.286 33.133 160.338 35.9318 159.164 38.1019Z" fill="#0D1A1C"/>
<path d="M140.561 107.014C143.559 106.52 145.734 104.574 145.421 102.666C145.108 100.759 142.424 99.6126 139.427 100.106C136.43 100.6 134.254 102.546 134.567 104.454C134.881 106.361 137.564 107.507 140.561 107.014Z" fill="#EB8757"/>
<path d="M189.241 84.8687C191.138 82.8617 191.376 80.0029 189.772 78.4833C188.168 76.9638 185.331 77.359 183.434 79.366C181.538 81.373 181.3 84.2318 182.903 85.7513C184.507 87.2709 187.345 86.8757 189.241 84.8687Z" fill="#EB8757"/>
<path d="M165.414 151.129C165.414 151.129 167.38 157.938 166.934 161.913C166.488 165.888 164.383 169.056 161.851 167.668C159.319 166.281 157 151 157 151L165.414 151.129Z" fill="#FCC440"/>
<path d="M168.549 148C168.549 148 172.634 153.879 173.604 157.82C174.574 161.761 173.777 165.464 171.038 164.953C168.299 164.441 161 150.562 161 150.562L168.549 148Z" fill="#FCC440"/>
<path d="M117 170C117 170 116.806 177.818 116.806 180.041C116.806 182.264 116.33 186.051 113.281 184.726C110.231 183.4 107.329 180.92 107 172.083L117 170Z" fill="url(#paint1_linear_553_2397)"/>
<path d="M126 168C126 168 125.806 175.817 125.806 178.04C125.806 180.263 125.33 184.055 122.279 182.724C119.228 181.392 116.323 178.925 116 170.082L126 168Z" fill="url(#paint2_linear_553_2397)"/>
<path d="M93 68.401C94.3892 76.0007 96.3632 83.4805 98.9043 90.773C103.449 103.881 109.808 116.279 117.793 127.603C126.548 139.939 137.12 150.863 149.145 160C152.824 158.733 156.46 157.406 160 155.989C129.182 134.443 114.697 106.908 107.977 87.5822C104.961 78.9593 102.814 70.054 101.569 61C98.5459 63.2653 95.6829 65.7382 93 68.401V68.401Z" fill="#2E2E2E"/>
<path d="M76 91.0948C79.1282 106.996 85.0742 126.783 96.2975 139.486C105.84 150.175 116.245 160.047 127.406 169C130.451 167.572 133.639 165.91 137 164.302C124.902 154.938 113.669 144.489 103.437 133.083C91.1993 119.23 85.898 94.4859 83.6892 79C80.8491 82.8453 78.2797 86.8868 76 91.0948V91.0948Z" fill="#2E2E2E"/>
<path d="M66 122.343C69.0776 131.657 73.1791 141.74 78.2438 149.083C84.3022 157.835 93.4866 167.512 101.193 175C104.688 175 108.772 174.571 114 173.79C105.997 166.369 93.432 154.048 86.2287 143.609C78.6013 132.504 73.167 113.494 70.5559 103C67.9508 109.829 66.3696 116.464 66 122.343Z" fill="#2E2E2E"/>
<path d="M71.0444 54.7056C59.3821 49.4147 35.9366 47.1178 37.0375 66.6812C37.9569 82.9961 57.7792 84.6931 70.2702 83.8143C76.561 83.3658 84.1524 82.6931 89.9714 80.0204C99.6497 75.5599 89.4875 66.566 84.4851 62.6873C80.3152 59.534 75.8071 56.8569 71.0444 54.7056V54.7056Z" fill="#C6EDFF"/>
<path d="M94.8275 28.4623C95.1814 28.5594 95.5473 28.6686 95.9192 28.7899C105.558 31.9874 105.672 43.4364 104.478 51.8457C103.333 59.8969 100.807 68.8341 94.8815 74.6769C88.4517 81.0111 81.0263 73.0084 78.0273 67.1656C74.0807 59.4844 74.3686 49.9223 76.7437 41.7982C79.1369 33.5588 85.7227 26.0354 94.8275 28.4623Z" fill="#C6EDFF"/>
<path d="M130.279 44.37C128.523 46.5752 127.197 49.1019 126.373 51.8139C125.017 56.8772 127.468 62.2781 131.915 64.9193C132.334 65.168 133.08 64.8127 132.788 64.2501C131.723 62.2959 130.047 60.768 129.168 58.6953C128.213 56.439 128.481 54.1235 129.371 51.9028C130.322 49.6868 131.626 47.6459 133.231 45.8623C134.739 44.0857 137.184 42.6171 137.94 40.3371C137.997 40.1791 138.014 40.009 137.988 39.8427C137.963 39.6764 137.897 39.5194 137.796 39.3863C137.694 39.2532 137.562 39.1483 137.41 39.0816C137.258 39.0149 137.092 38.9884 136.927 39.0047C134.133 39.135 131.845 42.2677 130.279 44.37Z" fill="#0D1A1C"/>
<g style="mix-blend-mode:overlay" opacity="0.3">
<path d="M168.015 58.2236C160.353 53.2536 148.666 51.8396 139.711 52.0141C111.448 52.6158 86.9417 74.8246 74.5956 98.9469C71.3946 105.165 69.1238 111.823 67.8565 118.707C67.8565 118.707 65.2387 129.67 69.1564 131.824C73.0741 133.978 81.7361 115.716 83.5332 112.178C88.2656 103.117 95.2803 95.6556 102.439 88.4893C109.028 81.8706 116.462 75.9318 125.52 73.176C134.299 70.6035 143.344 69.053 152.476 68.5549C156.921 68.2601 161.54 68.7896 165.913 68.0254C167.907 67.6764 171.657 67.1469 172.7 65.0169C174.149 62.1287 169.986 59.4993 168.015 58.2236Z" fill="white"/>
</g>
<path d="M310.135 224.598C308.977 226.915 307.563 229.095 305.92 231.098C305.664 231.408 305.516 231.794 305.5 232.196C305.483 232.598 305.599 232.995 305.83 233.325L310.117 239.397C310.26 239.593 310.362 239.815 310.417 240.051C310.472 240.287 310.479 240.532 310.437 240.771C310.396 241.009 310.306 241.237 310.175 241.441C310.043 241.644 309.872 241.819 309.672 241.955L299.663 249.002C299.468 249.144 299.246 249.246 299.011 249.301C298.776 249.356 298.532 249.363 298.294 249.322C298.056 249.281 297.828 249.193 297.625 249.062C297.422 248.932 297.247 248.762 297.11 248.563L292.804 242.455C292.575 242.124 292.242 241.879 291.858 241.76C291.474 241.64 291.061 241.651 290.685 241.793C288.239 242.658 285.704 243.248 283.127 243.55C282.727 243.591 282.352 243.766 282.061 244.045C281.771 244.324 281.583 244.692 281.526 245.091L280.406 252.439C280.333 252.92 280.072 253.353 279.68 253.642C279.288 253.93 278.797 254.052 278.316 253.98L266.212 252.138C265.972 252.106 265.741 252.026 265.532 251.902C265.324 251.779 265.142 251.615 264.998 251.42C264.855 251.225 264.751 251.004 264.695 250.768C264.639 250.533 264.63 250.288 264.67 250.05L265.797 242.665C265.86 242.269 265.79 241.863 265.597 241.51C265.404 241.158 265.099 240.881 264.731 240.721C262.347 239.658 260.09 238.33 258.004 236.761C257.687 236.514 257.296 236.379 256.893 236.379C256.491 236.379 256.1 236.514 255.782 236.761L249.887 241.293C249.501 241.588 249.014 241.719 248.532 241.656C248.05 241.592 247.612 241.341 247.316 240.956L239.848 231.254C239.698 231.065 239.588 230.847 239.523 230.614C239.459 230.381 239.442 230.138 239.473 229.898C239.505 229.659 239.584 229.428 239.706 229.219C239.829 229.011 239.992 228.829 240.186 228.685L246.111 224.129C246.432 223.886 246.664 223.546 246.773 223.159C246.881 222.772 246.861 222.36 246.713 221.986C245.741 219.581 245.044 217.074 244.636 214.512C244.577 214.113 244.387 213.746 244.096 213.468C243.805 213.19 243.429 213.017 243.028 212.977L235.633 212.165C235.393 212.141 235.16 212.07 234.948 211.956C234.736 211.841 234.549 211.686 234.398 211.498C234.247 211.31 234.135 211.094 234.069 210.862C234.003 210.63 233.984 210.388 234.013 210.148L235.344 197.979C235.397 197.496 235.64 197.053 236.019 196.749C236.399 196.444 236.884 196.302 237.368 196.355L244.798 197.173C245.197 197.22 245.599 197.133 245.943 196.926C246.286 196.719 246.551 196.404 246.695 196.03C247.664 193.622 248.901 191.331 250.381 189.199C250.614 188.87 250.731 188.473 250.712 188.071C250.693 187.668 250.541 187.284 250.278 186.978L245.509 181.279C245.351 181.096 245.231 180.883 245.157 180.653C245.083 180.423 245.055 180.18 245.077 179.939C245.098 179.699 245.168 179.465 245.281 179.251C245.395 179.038 245.55 178.849 245.738 178.697L255.126 170.843C255.498 170.531 255.979 170.379 256.464 170.421C256.948 170.463 257.396 170.695 257.709 171.066L262.527 176.795C262.781 177.106 263.131 177.323 263.523 177.412C263.914 177.502 264.325 177.458 264.689 177.289C267.583 175.976 270.645 175.069 273.788 174.592C274.185 174.532 274.552 174.344 274.833 174.056C275.113 173.768 275.292 173.396 275.341 172.998L276.208 165.619C276.267 165.136 276.515 164.696 276.897 164.395C277.28 164.094 277.766 163.956 278.25 164.012L290.408 165.445C290.891 165.503 291.332 165.751 291.633 166.133C291.934 166.516 292.072 167.001 292.016 167.485L291.124 174.905C291.073 175.303 291.156 175.707 291.36 176.052C291.564 176.398 291.877 176.665 292.25 176.813C295.909 178.32 299.283 180.438 302.229 183.078C302.525 183.351 302.904 183.517 303.306 183.55C303.707 183.582 304.108 183.48 304.445 183.259L310.701 179.232C310.903 179.098 311.129 179.006 311.367 178.961C311.604 178.916 311.848 178.919 312.085 178.97C312.321 179.021 312.545 179.119 312.743 179.258C312.941 179.398 313.109 179.575 313.237 179.78L319.861 190.065C319.995 190.267 320.087 190.493 320.132 190.73C320.177 190.968 320.174 191.212 320.123 191.448C320.072 191.684 319.974 191.908 319.835 192.106C319.695 192.303 319.518 192.471 319.313 192.599L313.032 196.649C312.692 196.863 312.433 197.183 312.295 197.561C312.158 197.938 312.15 198.35 312.273 198.732C313.044 201.21 313.528 203.768 313.718 206.357C313.752 206.757 313.917 207.135 314.187 207.433C314.456 207.731 314.817 207.932 315.212 208.006L322.51 209.426C322.748 209.469 322.976 209.558 323.178 209.69C323.381 209.822 323.555 209.993 323.691 210.194C323.826 210.394 323.92 210.619 323.966 210.857C324.013 211.094 324.011 211.338 323.961 211.575L321.625 223.611C321.529 224.088 321.248 224.507 320.845 224.777C320.441 225.048 319.946 225.148 319.469 225.056L312.135 223.629C311.741 223.545 311.33 223.595 310.968 223.77C310.606 223.946 310.313 224.237 310.135 224.598Z" fill="#FBB33C"/>
<path d="M271.72 219.935C283.316 226.716 295.98 215.66 290.811 203.254C289.904 201.08 288.315 199.26 286.284 198.067C274.682 191.28 262.024 202.343 267.187 214.748C268.098 216.921 269.689 218.741 271.72 219.935Z" fill="white"/>
<path d="M277.083 237.932C282.804 238.325 288.512 237.008 293.483 234.149C298.454 231.29 302.462 227.019 305 221.877L304.041 221.398C302.335 224.832 299.942 227.88 297.012 230.354C294.081 232.828 290.674 234.675 287.002 235.781C279.295 238.088 270.886 236.919 263.322 232.491C258.974 229.933 255.57 226.037 253.619 221.386C248.477 209.034 251.162 196.215 260.619 187.969C270.077 179.723 283.13 178.77 294.673 185.524L295.219 184.601C289.124 181.005 282.495 179.495 276.04 180.148C270.064 180.759 264.425 183.209 259.9 187.16C255.376 191.112 252.188 196.369 250.778 202.208C249.295 208.769 249.943 215.632 252.63 221.799C254.672 226.667 258.233 230.743 262.783 233.419C267.136 236.011 272.031 237.556 277.083 237.932V237.932Z" fill="white"/>
<path d="M277.602 230.947C280.472 231.148 283.354 230.773 286.077 229.845C288.801 228.916 291.311 227.453 293.462 225.54C300.907 219.037 303.02 208.974 298.982 199.281C297.438 195.583 294.736 192.488 291.282 190.459C282.202 185.149 271.591 186.008 264.242 192.657L264.969 193.456C271.96 187.135 282.075 186.329 290.731 191.397C293.989 193.303 296.539 196.216 297.995 199.698C301.851 208.95 299.842 218.541 292.759 224.723C285.677 230.905 275.907 231.613 267.263 226.539C264.008 224.631 261.459 221.718 259.999 218.238L259 218.656C260.55 222.351 263.253 225.446 266.706 227.478C270.019 229.466 273.75 230.654 277.602 230.947V230.947Z" fill="white"/>
<path d="M235.374 256.719C234.544 258.716 233.498 260.614 232.254 262.376C232.058 262.648 231.957 262.978 231.966 263.314C231.975 263.651 232.093 263.975 232.302 264.236L236.163 269.082C236.287 269.238 236.38 269.417 236.437 269.61C236.493 269.803 236.511 270.005 236.49 270.205C236.469 270.404 236.409 270.598 236.314 270.774C236.219 270.951 236.09 271.106 235.936 271.232L228.106 277.671C227.952 277.798 227.774 277.892 227.584 277.95C227.393 278.007 227.194 278.026 226.996 278.005C226.799 277.985 226.607 277.924 226.432 277.829C226.258 277.733 226.103 277.603 225.978 277.446L222.099 272.601C221.89 272.338 221.6 272.153 221.276 272.074C220.951 271.995 220.611 272.027 220.306 272.165C218.346 273.019 216.297 273.645 214.198 274.03C213.871 274.092 213.574 274.26 213.352 274.51C213.129 274.759 212.994 275.076 212.967 275.411L212.452 281.596C212.419 282 212.228 282.375 211.922 282.637C211.616 282.9 211.22 283.028 210.821 282.995L200.774 282.141C200.576 282.125 200.383 282.069 200.206 281.977C200.029 281.885 199.872 281.759 199.744 281.605C199.616 281.451 199.518 281.274 199.458 281.082C199.398 280.89 199.376 280.688 199.393 280.487L199.901 274.273C199.928 273.939 199.847 273.606 199.67 273.324C199.493 273.042 199.23 272.826 198.921 272.71C196.916 271.954 195.002 270.973 193.213 269.784C192.936 269.601 192.608 269.514 192.278 269.536C191.947 269.559 191.634 269.691 191.384 269.911L186.794 274.018C186.646 274.152 186.472 274.255 186.285 274.321C186.097 274.387 185.898 274.414 185.7 274.402C185.501 274.389 185.307 274.337 185.129 274.249C184.951 274.16 184.791 274.036 184.66 273.885L177.984 266.223C177.719 265.917 177.585 265.518 177.611 265.113C177.637 264.707 177.82 264.329 178.122 264.06L182.736 259.929C182.982 259.707 183.15 259.41 183.215 259.082C183.28 258.754 183.237 258.413 183.094 258.112C182.162 256.162 181.451 254.112 180.972 252.001C180.904 251.669 180.728 251.369 180.472 251.15C180.217 250.93 179.896 250.803 179.562 250.789L173.448 250.529C173.048 250.511 172.671 250.334 172.399 250.035C172.128 249.737 171.985 249.341 172.001 248.936L172.42 238.723C172.427 238.522 172.474 238.324 172.557 238.141C172.64 237.958 172.758 237.794 172.904 237.657C173.05 237.521 173.222 237.414 173.408 237.345C173.595 237.275 173.793 237.243 173.992 237.252L180.142 237.512C180.472 237.526 180.797 237.429 181.068 237.238C181.339 237.046 181.54 236.77 181.642 236.452C182.301 234.391 183.187 232.412 184.284 230.552C184.456 230.265 184.53 229.929 184.494 229.595C184.459 229.261 184.315 228.948 184.086 228.705L179.843 224.229C179.705 224.083 179.598 223.912 179.525 223.724C179.453 223.536 179.419 223.336 179.423 223.135C179.428 222.933 179.471 222.735 179.551 222.55C179.632 222.366 179.747 222.199 179.891 222.06L187.17 214.986C187.314 214.846 187.482 214.737 187.667 214.664C187.852 214.592 188.049 214.556 188.247 214.561C188.446 214.565 188.641 214.609 188.822 214.691C189.004 214.772 189.167 214.889 189.304 215.034L193.566 219.535C193.794 219.772 194.092 219.929 194.415 219.98C194.739 220.031 195.07 219.975 195.359 219.819C197.665 218.564 200.131 217.637 202.686 217.063C203.012 216.994 203.306 216.817 203.522 216.561C203.739 216.305 203.865 215.983 203.882 215.646L204.187 209.449C204.208 209.045 204.387 208.666 204.684 208.394C204.981 208.123 205.371 207.982 205.77 208.002L215.847 208.511C216.247 208.531 216.623 208.712 216.892 209.012C217.161 209.313 217.301 209.71 217.282 210.116L216.971 216.349C216.956 216.682 217.048 217.012 217.235 217.288C217.422 217.563 217.692 217.77 218.005 217.875C221.096 218.921 223.987 220.497 226.552 222.533C226.816 222.736 227.138 222.846 227.469 222.846C227.801 222.846 228.123 222.736 228.387 222.533L233.306 218.826C233.465 218.706 233.645 218.619 233.837 218.57C234.029 218.521 234.229 218.511 234.425 218.54C234.621 218.569 234.809 218.637 234.979 218.74C235.149 218.843 235.298 218.98 235.416 219.141L241.44 227.342C241.678 227.669 241.779 228.077 241.721 228.479C241.662 228.881 241.45 229.243 241.129 229.486L236.187 233.211C235.922 233.41 235.73 233.692 235.639 234.013C235.549 234.333 235.564 234.676 235.684 234.986C236.45 237.011 236.991 239.116 237.298 241.261C237.343 241.594 237.495 241.902 237.731 242.137C237.967 242.373 238.273 242.523 238.601 242.564L244.68 243.387C245.076 243.439 245.437 243.647 245.682 243.968C245.927 244.288 246.038 244.693 245.989 245.096L244.733 255.241C244.708 255.441 244.645 255.634 244.546 255.808C244.447 255.983 244.316 256.136 244.159 256.259C244.002 256.383 243.822 256.473 243.631 256.526C243.439 256.579 243.239 256.593 243.042 256.568L236.934 255.792C236.61 255.756 236.283 255.826 236.002 255.993C235.721 256.16 235.5 256.415 235.374 256.719Z" fill="#FC81B3"/>
<path d="M203.473 254.647C213.658 259.711 223.712 249.654 218.646 239.477C217.756 237.693 216.31 236.246 214.527 235.353C204.342 230.289 194.288 240.346 199.354 250.523C200.242 252.308 201.688 253.756 203.473 254.647V254.647Z" fill="white"/>
<path d="M208.917 269C213.648 269.004 218.274 267.597 222.206 264.956C226.138 262.316 229.199 258.562 231 254.171L230.184 253.831C228.969 256.76 227.169 259.409 224.895 261.613C222.621 263.818 219.922 265.533 216.963 266.651C210.751 268.982 203.765 268.486 197.31 265.252C193.588 263.385 190.57 260.357 188.71 256.622C183.791 246.712 185.285 235.984 192.611 228.632C199.936 221.28 210.62 219.786 220.494 224.717L220.893 223.922C215.965 221.366 210.353 220.454 204.873 221.316C199.991 222.154 195.488 224.491 191.985 228.006C188.482 231.52 186.151 236.039 185.315 240.938C184.455 246.439 185.367 252.072 187.918 257.016C189.867 260.928 193.026 264.101 196.922 266.059C200.64 267.957 204.746 268.964 208.917 269V269Z" fill="#C6EDFF"/>
<path d="M208.962 263C211.328 263.007 213.672 262.543 215.856 261.638C218.04 260.732 220.021 259.402 221.682 257.725C227.433 252.002 228.615 243.663 224.761 235.968C223.289 233.033 220.897 230.654 217.948 229.188C210.198 225.347 201.536 226.637 195.869 232.474L196.506 233.071C201.908 227.521 210.156 226.303 217.552 229.965C220.326 231.346 222.575 233.584 223.963 236.345C227.637 243.693 226.526 251.638 221.052 257.08C215.577 262.522 207.593 263.651 200.215 259.983C197.441 258.598 195.19 256.358 193.798 253.597L193 253.991C194.472 256.923 196.858 259.301 199.801 260.772C202.639 262.213 205.776 262.976 208.962 263Z" fill="#C6EDFF"/>
<path d="M248.6 285.818C248.558 287.849 248.741 289.879 249.146 291.87C249.21 292.178 249.172 292.499 249.036 292.783C248.901 293.066 248.676 293.298 248.396 293.44L243.22 296.075C242.887 296.253 242.637 296.556 242.524 296.917C242.412 297.279 242.446 297.67 242.62 298.007L246.945 306.555C247.122 306.89 247.424 307.141 247.784 307.253C248.144 307.366 248.535 307.331 248.87 307.157L254.07 304.51C254.349 304.368 254.667 304.321 254.975 304.378C255.282 304.434 255.563 304.591 255.774 304.823C257.141 306.322 258.675 307.66 260.344 308.811C260.603 308.989 260.797 309.247 260.895 309.546C260.992 309.846 260.989 310.169 260.884 310.466L258.97 315.959C258.853 316.315 258.88 316.704 259.045 317.041C259.209 317.378 259.499 317.638 259.852 317.763L268.849 320.928C269.205 321.045 269.592 321.019 269.928 320.853C270.265 320.688 270.523 320.397 270.648 320.043L272.568 314.521C272.672 314.225 272.869 313.971 273.13 313.799C273.391 313.626 273.701 313.544 274.013 313.564C276.035 313.696 278.065 313.597 280.065 313.269C280.375 313.219 280.693 313.272 280.97 313.42C281.247 313.567 281.469 313.802 281.601 314.088L284 319.382C284.077 319.553 284.188 319.708 284.325 319.837C284.463 319.965 284.624 320.066 284.8 320.132C284.976 320.198 285.164 320.228 285.352 320.221C285.54 320.214 285.724 320.17 285.895 320.092L294.586 316.109C294.757 316.031 294.911 315.92 295.04 315.782C295.168 315.644 295.268 315.482 295.334 315.306C295.399 315.129 295.43 314.941 295.423 314.753C295.416 314.564 295.372 314.379 295.294 314.208L292.895 308.884C292.765 308.599 292.732 308.279 292.801 307.973C292.87 307.667 293.038 307.393 293.279 307.193C294.827 305.899 296.225 304.434 297.447 302.825C297.636 302.573 297.902 302.391 298.204 302.306C298.507 302.221 298.829 302.239 299.12 302.356L304.519 304.498C304.693 304.568 304.879 304.603 305.066 304.601C305.254 304.599 305.439 304.559 305.611 304.485C305.784 304.41 305.94 304.303 306.07 304.168C306.201 304.032 306.303 303.873 306.372 303.698L309.899 294.788C310.039 294.434 310.033 294.04 309.884 293.69C309.734 293.341 309.453 293.065 309.101 292.923L303.703 290.763C303.412 290.649 303.166 290.441 303.005 290.172C302.843 289.904 302.774 289.589 302.809 289.277C303.023 287.257 303.009 285.218 302.767 283.201C302.729 282.889 302.794 282.572 302.952 282.301C303.11 282.029 303.353 281.817 303.643 281.697L309.041 279.501C309.215 279.43 309.374 279.326 309.508 279.193C309.642 279.061 309.749 278.903 309.822 278.729C309.895 278.555 309.933 278.369 309.934 278.18C309.934 277.992 309.898 277.805 309.827 277.63L306.228 268.756C306.084 268.404 305.807 268.123 305.458 267.976C305.108 267.828 304.714 267.825 304.363 267.968L298.965 270.176C298.674 270.294 298.353 270.313 298.051 270.23C297.749 270.148 297.482 269.968 297.291 269.719C295.773 267.752 293.993 266.003 292.001 264.521C291.747 264.335 291.562 264.07 291.474 263.768C291.386 263.465 291.4 263.142 291.515 262.849L293.608 257.434C293.744 257.079 293.734 256.684 293.582 256.336C293.429 255.988 293.145 255.715 292.793 255.575L283.88 252.116C283.7 252.039 283.507 251.999 283.312 252C283.117 252.001 282.924 252.041 282.746 252.12C282.567 252.198 282.406 252.312 282.273 252.456C282.14 252.599 282.038 252.768 281.972 252.952L279.867 258.367C279.753 258.658 279.547 258.904 279.281 259.068C279.015 259.232 278.703 259.305 278.392 259.275C275.329 258.984 272.24 259.22 269.257 259.973C268.951 260.049 268.629 260.023 268.34 259.898C268.051 259.773 267.81 259.556 267.655 259.281L264.818 254.203C264.631 253.873 264.321 253.63 263.956 253.528C263.591 253.425 263.2 253.471 262.869 253.656L254.508 258.367C254.177 258.553 253.932 258.863 253.829 259.23C253.725 259.596 253.771 259.989 253.956 260.322L256.811 265.423C256.965 265.697 257.024 266.013 256.981 266.324C256.938 266.635 256.794 266.923 256.571 267.144C255.136 268.577 253.869 270.17 252.793 271.891C252.625 272.157 252.374 272.36 252.079 272.469C251.784 272.578 251.461 272.586 251.161 272.492L245.613 270.808C245.432 270.751 245.242 270.731 245.054 270.749C244.865 270.766 244.682 270.821 244.515 270.91C244.347 270.999 244.199 271.12 244.079 271.267C243.959 271.413 243.868 271.583 243.814 271.764L241.067 280.921C241.009 281.102 240.989 281.293 241.006 281.482C241.023 281.672 241.077 281.856 241.166 282.024C241.255 282.192 241.376 282.34 241.523 282.461C241.67 282.581 241.839 282.671 242.02 282.726L247.598 284.422C247.893 284.515 248.15 284.702 248.33 284.953C248.511 285.205 248.605 285.508 248.6 285.818V285.818Z" fill="#A0E0ED"/>
<path d="M276.469 295.989C266.659 296.405 262.256 285.003 269.84 278.799C271.172 277.713 272.823 277.085 274.545 277.011C284.355 276.595 288.727 287.997 281.173 294.201C279.842 295.287 278.191 295.915 276.469 295.989Z" fill="white"/>
<path d="M265.911 307.782C261.669 305.905 258.084 302.82 255.609 298.918C253.134 295.016 251.881 290.473 252.009 285.864H252.883C252.803 288.946 253.361 292.01 254.522 294.869C255.683 297.728 257.421 300.321 259.63 302.486C264.273 307.023 270.735 309.36 277.835 309.059C281.913 308.881 285.824 307.402 288.988 304.842C297.344 297.998 300.281 287.888 296.64 278.46C292.999 269.031 284.012 263.452 273.187 263.904L273.15 263.043C278.589 262.73 283.987 264.148 288.557 267.091C292.602 269.775 295.708 273.639 297.447 278.149C299.186 282.66 299.472 287.595 298.267 292.274C296.851 297.504 293.789 302.148 289.528 305.529C286.224 308.222 282.13 309.78 277.859 309.969C273.76 310.167 269.67 309.418 265.911 307.782V307.782Z" fill="#E3F6FF"/>
<path d="M268.33 302.358C266.235 301.433 264.348 300.103 262.778 298.444C261.208 296.784 259.988 294.831 259.189 292.696C256.377 285.404 258.635 277.592 265.078 272.309C267.552 270.304 270.613 269.15 273.803 269.019C282.167 268.666 289.308 273.207 292 280.553L291.193 280.846C288.628 273.841 281.818 269.54 273.839 269.875C270.843 270.009 267.97 271.102 265.65 272.991C259.502 278.028 257.341 285.47 260.02 292.409C262.7 299.349 269.305 303.452 277.272 303.117C280.269 302.987 283.143 301.893 285.461 300.001L286.009 300.659C283.546 302.671 280.493 303.834 277.308 303.973C274.23 304.134 271.156 303.581 268.33 302.358V302.358Z" fill="#E3F6FF"/>
<defs>
<linearGradient id="paint0_linear_553_2397" x1="153.405" y1="41.5836" x2="122.339" y2="166.121" gradientUnits="userSpaceOnUse">
<stop offset="0.15" stop-color="#FFE060"/>
<stop offset="0.42" stop-color="#FFDC5E"/>
<stop offset="0.69" stop-color="#FFD15B"/>
<stop offset="0.97" stop-color="#FFBF54"/>
<stop offset="1" stop-color="#FFC05F"/>
</linearGradient>
<linearGradient id="paint1_linear_553_2397" x1="1838.7" y1="3514.7" x2="1849.68" y2="3641.37" gradientUnits="userSpaceOnUse">
<stop offset="0.15" stop-color="#FCD844"/>
<stop offset="0.42" stop-color="#FCD443"/>
<stop offset="0.69" stop-color="#FCC740"/>
<stop offset="0.97" stop-color="#FBB33C"/>
<stop offset="1" stop-color="#FBB03B"/>
</linearGradient>
<linearGradient id="paint2_linear_553_2397" x1="1989.9" y1="3422.85" x2="2001.1" y2="3549.5" gradientUnits="userSpaceOnUse">
<stop offset="0.15" stop-color="#FCD844"/>
<stop offset="0.42" stop-color="#FCD443"/>
<stop offset="0.69" stop-color="#FCC740"/>
<stop offset="0.97" stop-color="#FBB33C"/>
<stop offset="1" stop-color="#FBB03B"/>
</linearGradient>
</defs>
</svg>
