<svg width="515" height="377" viewBox="0 0 515 377" fill="none" xmlns="http://www.w3.org/2000/svg">
<path d="M171.944 119.934C172.768 113.915 164.31 108.956 157.952 108.442C154.9 108.196 151.77 108.662 148.896 107.657C142.671 105.481 140.188 97.4032 134.116 94.8351C129.576 92.9106 124.352 94.6206 119.946 96.8455C115.541 99.0703 111.196 101.871 106.277 102.19C102.006 102.46 97.3557 100.866 93.615 102.968C90.8262 104.531 89.3433 107.755 86.7987 109.661C84.254 111.567 81.0015 111.917 77.8832 112.113C74.7649 112.309 71.5368 112.315 68.6931 113.621C65.8495 114.926 63.5001 117.923 64.092 121L171.944 119.934Z" fill="#F5F5F5"/>
<path d="M451.949 224.036C452.697 218.687 445.02 214.289 439.254 213.831C436.503 213.608 433.642 214.024 431.038 213.133C425.389 211.199 423.134 204.024 417.626 201.741C413.508 200.03 408.766 201.554 404.759 203.548C400.752 205.542 396.794 208.012 392.358 208.289C388.48 208.536 384.264 207.121 380.87 208.982C378.339 210.374 377.016 213.241 374.682 214.928C372.347 216.615 369.425 216.934 366.594 217.084C363.763 217.235 360.834 217.265 358.255 218.428C355.676 219.59 353.549 222.265 354.083 225L451.949 224.036Z" fill="#ECECEC"/>
<path d="M402.964 147.327C403.491 143.536 398.061 140.418 394.022 140.091C392.085 139.939 390.074 140.23 388.235 139.599C384.264 138.228 382.676 133.146 378.796 131.526C375.897 130.313 372.556 131.393 369.743 132.794C366.93 134.195 364.153 135.954 361.015 136.154C358.281 136.33 355.314 135.323 352.924 136.645C351.14 137.628 350.209 139.678 348.566 140.861C346.923 142.044 344.888 142.28 342.872 142.389C340.855 142.499 338.814 142.517 337 143.336C335.185 144.154 333.684 146.059 334.058 148L402.964 147.327Z" fill="#ECECEC"/>
<path d="M424.974 347.483C425.363 344.583 421.362 342.202 418.36 341.952C416.929 341.834 415.443 342.058 414.097 341.572C411.162 340.525 409.987 336.64 407.118 335.4C404.975 334.477 402.502 335.3 400.42 336.372C398.337 337.445 396.285 338.785 393.965 338.941C391.943 339.072 389.75 338.317 387.984 339.315C386.669 340.069 385.981 341.622 384.763 342.538C383.545 343.455 382.029 343.623 380.555 343.71C379.081 343.798 377.553 343.804 376.213 344.434C374.873 345.063 373.777 346.516 374.039 348L424.974 347.483Z" fill="#ECECEC"/>
<path d="M177.974 191.483C178.363 188.584 174.368 186.203 171.365 185.954C169.927 185.835 168.441 186.06 167.101 185.573C164.165 184.526 162.99 180.643 160.121 179.402C157.977 178.474 155.51 179.303 153.421 180.369C151.332 181.434 149.291 182.787 146.964 182.943C144.948 183.074 142.749 182.32 140.983 183.317C139.667 184.071 138.979 185.623 137.761 186.54C136.543 187.456 135.026 187.624 133.552 187.705C132.078 187.786 130.555 187.805 129.209 188.435C127.863 189.064 126.773 190.516 127.041 192L177.974 191.483Z" fill="#ECECEC"/>
<path d="M206.944 306.91C207.768 300.891 199.304 295.944 192.952 295.429C189.9 295.185 186.77 295.65 183.896 294.646C177.671 292.472 175.188 284.402 169.116 281.83C164.576 279.914 159.352 281.622 154.946 283.845C150.54 286.067 146.196 288.866 141.277 289.178C137.006 289.453 132.356 287.861 128.615 289.955C125.826 291.523 124.343 294.744 121.799 296.648C119.254 298.552 116.001 298.901 112.883 299.097C109.765 299.293 106.531 299.299 103.693 300.603C100.855 301.908 98.4999 304.92 99.0918 308L206.944 306.91Z" fill="#F5F5F5"/>
<path d="M259.253 328L280 318.815L275.526 297L256 305.759L259.253 328Z" fill="#7D7CBF"/>
<path d="M253.269 331.985L294.49 314.636C295.324 314.285 295.738 313.383 295.415 312.622L295.412 312.617C295.089 311.856 294.151 311.523 293.317 311.874L252.096 329.224C251.262 329.575 250.848 330.476 251.171 331.238L251.174 331.243C251.497 332.004 252.435 332.336 253.269 331.985Z" fill="#7D7CBF"/>
<path d="M167.203 243.548L286.303 193.419C288.474 192.505 290.92 192.488 293.105 193.37C295.289 194.253 297.032 195.963 297.95 198.125L327.169 266.911C328.558 270.181 328.587 273.865 327.25 277.155C325.914 280.445 323.321 283.073 320.04 284.46L209.317 331.063C206.03 332.446 202.326 332.473 199.018 331.137C195.711 329.8 193.071 327.211 191.681 323.938L162.462 255.151C162.007 254.079 161.769 252.929 161.76 251.765C161.752 250.601 161.975 249.448 162.415 248.37C162.855 247.292 163.505 246.311 164.326 245.484C165.148 244.656 166.125 243.998 167.203 243.548V243.548Z" fill="#375A64"/>
<path d="M263.253 327L284 317.828L277.163 296L260 304.79L263.253 327Z" fill="url(#paint0_linear_553_2398)"/>
<path d="M291 314.985L270.79 323L260 303.319L278.586 297L291 314.985Z" fill="url(#paint1_linear_553_2398)"/>
<path d="M171.187 241.554L290.302 191.42C292.473 190.506 294.92 190.488 297.104 191.371C299.289 192.253 301.032 193.963 301.95 196.125L331.169 264.911C332.559 268.185 332.587 271.874 331.245 275.167C329.904 278.46 327.303 281.087 324.016 282.471L213.319 329.062C210.032 330.446 206.326 330.473 203.019 329.136C199.711 327.8 197.071 325.211 195.681 321.937L166.462 253.151C165.544 250.989 165.526 248.553 166.412 246.378C167.298 244.203 169.015 242.468 171.187 241.554Z" fill="#375A64"/>
<path d="M171.187 241.554L290.302 191.42C292.473 190.506 294.918 190.485 297.1 191.361C299.282 192.237 301.022 193.938 301.936 196.091L331.329 265.288L195.841 322.314L166.45 253.122C165.996 252.056 165.759 250.911 165.752 249.753C165.744 248.594 165.967 247.445 166.406 246.371C166.846 245.297 167.495 244.318 168.315 243.492C169.135 242.665 170.111 242.007 171.187 241.554Z" fill="#1A2E35"/>
<path d="M295.193 193.465L168 247L197.713 316.951L324.906 263.416L295.193 193.465Z" fill="white"/>
<path d="M255.269 330.985L296.49 313.636C297.324 313.285 297.738 312.383 297.415 311.622L297.412 311.617C297.089 310.856 296.151 310.523 295.317 310.874L254.096 328.224C253.262 328.575 252.848 329.476 253.171 330.238L253.174 330.243C253.497 331.004 254.435 331.336 255.269 330.985Z" fill="url(#paint2_linear_553_2398)"/>
<path d="M230.838 272.977C230.767 273.007 230.687 273.008 230.615 272.978C230.544 272.949 230.487 272.892 230.456 272.82L214.025 233.404C214.01 233.37 214.001 233.332 214 233.294C213.999 233.256 214.006 233.218 214.02 233.182C214.034 233.146 214.054 233.114 214.081 233.087C214.108 233.06 214.139 233.038 214.174 233.024C214.245 232.993 214.324 232.992 214.395 233.02C214.467 233.049 214.524 233.104 214.555 233.175L230.975 272.596C231.005 272.666 231.008 272.744 230.983 272.815C230.957 272.886 230.905 272.944 230.838 272.977Z" fill="#D0C3FC"/>
<path d="M248.828 264.979C248.756 265.007 248.677 265.007 248.606 264.978C248.535 264.949 248.478 264.893 248.446 264.822L232.023 225.403C231.993 225.333 231.992 225.253 232.02 225.182C232.048 225.111 232.103 225.053 232.172 225.023C232.243 224.993 232.323 224.992 232.395 225.022C232.466 225.051 232.523 225.108 232.553 225.18L248.976 264.592C249.007 264.664 249.008 264.744 248.98 264.816C248.952 264.889 248.897 264.947 248.828 264.979V264.979Z" fill="#DDCDC7"/>
<path d="M289.851 247.963C289.816 247.983 289.778 247.995 289.739 247.999C289.7 248.002 289.66 247.998 289.623 247.986C289.585 247.973 289.551 247.953 289.521 247.926C289.492 247.899 289.468 247.867 289.452 247.83L273.023 208.407C273.008 208.372 273 208.334 273 208.296C273 208.257 273.007 208.219 273.021 208.183C273.035 208.148 273.056 208.115 273.082 208.088C273.109 208.06 273.14 208.039 273.175 208.023C273.21 208.008 273.247 208 273.285 208C273.323 208 273.36 208.007 273.395 208.021C273.431 208.035 273.463 208.057 273.49 208.083C273.517 208.11 273.538 208.142 273.553 208.178L289.982 247.607C290.006 247.672 290.006 247.745 289.982 247.81C289.958 247.876 289.911 247.93 289.851 247.963V247.963Z" fill="#DDCDC7"/>
<path d="M298.843 243.977C298.808 243.992 298.771 244 298.733 244C298.695 244 298.658 243.993 298.623 243.978C298.588 243.963 298.557 243.942 298.53 243.915C298.503 243.888 298.482 243.856 298.468 243.82L282.023 204.407C281.993 204.336 281.992 204.255 282.021 204.183C282.049 204.111 282.105 204.054 282.175 204.023C282.245 203.993 282.324 203.992 282.395 204.021C282.466 204.05 282.523 204.106 282.553 204.178L298.974 243.597C299.005 243.665 299.008 243.743 298.984 243.814C298.96 243.885 298.909 243.944 298.843 243.977V243.977Z" fill="#DDCDC7"/>
<path d="M306.826 240.976C306.756 241.007 306.676 241.008 306.605 240.98C306.534 240.951 306.476 240.896 306.445 240.825L290.023 201.404C289.993 201.333 289.992 201.253 290.02 201.182C290.048 201.111 290.103 201.053 290.172 201.023C290.243 200.993 290.323 200.992 290.395 201.022C290.466 201.051 290.523 201.108 290.553 201.18L306.975 240.596C306.99 240.63 306.999 240.668 307 240.706C307.001 240.744 306.994 240.782 306.98 240.818C306.966 240.854 306.946 240.886 306.919 240.913C306.892 240.94 306.861 240.962 306.826 240.976V240.976Z" fill="#D0C3FC"/>
<path d="M295.821 206.571L210.411 242.977C210.338 243.007 210.257 243.008 210.183 242.978C210.11 242.948 210.052 242.89 210.021 242.817C209.992 242.744 209.993 242.663 210.023 242.591C210.052 242.519 210.108 242.461 210.18 242.43L295.589 206.024C295.661 205.993 295.742 205.992 295.815 206.021C295.888 206.051 295.946 206.108 295.976 206.181C296.007 206.253 296.008 206.335 295.979 206.408C295.95 206.481 295.893 206.54 295.821 206.571Z" fill="#DDCDC7"/>
<path d="M299.792 216.577L214.406 252.977C214.371 252.992 214.333 253 214.294 253C214.255 253 214.217 252.992 214.182 252.978C214.146 252.963 214.114 252.941 214.086 252.914C214.059 252.886 214.037 252.853 214.023 252.818C214.008 252.782 214 252.743 214 252.704C214 252.665 214.008 252.627 214.022 252.591C214.037 252.555 214.059 252.522 214.086 252.495C214.113 252.467 214.145 252.445 214.181 252.43L299.566 216.037C299.602 216.017 299.642 216.005 299.683 216.001C299.724 215.998 299.765 216.003 299.804 216.016C299.842 216.03 299.878 216.052 299.908 216.08C299.938 216.108 299.961 216.142 299.977 216.181C299.993 216.219 300.001 216.26 300 216.301C299.999 216.343 299.99 216.383 299.972 216.421C299.955 216.458 299.93 216.491 299.898 216.518C299.867 216.545 299.831 216.565 299.792 216.577V216.577Z" fill="#DDCDC7"/>
<path d="M303.804 224.577L218.406 260.977C218.371 260.992 218.333 261 218.294 261C218.255 261 218.217 260.992 218.182 260.978C218.146 260.963 218.114 260.941 218.086 260.914C218.059 260.886 218.037 260.853 218.022 260.818C218.008 260.782 218 260.743 218 260.704C218 260.665 218.007 260.627 218.022 260.591C218.037 260.555 218.059 260.522 218.086 260.495C218.113 260.467 218.145 260.445 218.181 260.43L303.566 224.037C303.602 224.017 303.642 224.005 303.683 224.001C303.724 223.998 303.765 224.003 303.804 224.016C303.842 224.03 303.878 224.052 303.908 224.08C303.938 224.108 303.961 224.142 303.977 224.181C303.993 224.219 304.001 224.26 304 224.301C303.999 224.343 303.99 224.383 303.972 224.421C303.955 224.458 303.93 224.491 303.898 224.518C303.867 224.545 303.831 224.565 303.792 224.577H303.804Z" fill="#DDCDC7"/>
<path d="M306.819 232.551L221.434 268.963C221.398 268.983 221.358 268.995 221.317 268.999C221.276 269.002 221.235 268.997 221.197 268.984C221.158 268.97 221.122 268.948 221.092 268.92C221.062 268.892 221.039 268.858 221.023 268.819C221.007 268.781 220.999 268.74 221 268.699C221.001 268.657 221.01 268.617 221.028 268.579C221.045 268.542 221.07 268.509 221.102 268.482C221.133 268.455 221.169 268.435 221.208 268.423L306.594 232.023C306.629 232.008 306.667 232 306.706 232C306.745 232 306.783 232.008 306.818 232.022C306.854 232.037 306.886 232.059 306.914 232.086C306.941 232.114 306.963 232.147 306.978 232.182C306.992 232.218 307 232.257 307 232.296C307 232.335 306.993 232.373 306.978 232.409C306.963 232.445 306.941 232.478 306.914 232.505C306.887 232.533 306.855 232.555 306.819 232.57V232.551Z" fill="#DDCDC7"/>
<path d="M310.818 239.69L224.47 275.977C224.434 275.992 224.396 276 224.358 276C224.32 276 224.282 275.992 224.246 275.978C224.211 275.963 224.179 275.941 224.152 275.914C224.125 275.887 224.104 275.855 224.09 275.819L207.024 235.687C207.009 235.653 207 235.615 207 235.577C207 235.54 207.007 235.502 207.021 235.467C207.035 235.432 207.056 235.4 207.083 235.373C207.11 235.346 207.142 235.324 207.177 235.31L293.525 199.022C293.596 198.993 293.677 198.993 293.749 199.021C293.821 199.049 293.879 199.104 293.911 199.174L310.977 239.306C310.992 239.341 311 239.38 311 239.418C311 239.457 310.993 239.495 310.978 239.531C310.963 239.566 310.941 239.599 310.914 239.626C310.886 239.653 310.854 239.675 310.818 239.69V239.69ZM224.513 275.326L310.303 239.269L293.464 199.674L207.673 235.736L224.513 275.326Z" fill="#DDCDC7"/>
<path d="M231.747 226.793L217 233L217.782 234.841L232.529 228.634L231.747 226.793Z" fill="#EDDFDA"/>
<path d="M246.747 262.793L232 269L232.782 270.841L247.529 264.634L246.747 262.793Z" fill="#EDDFDA"/>
<path d="M224.452 233.284L218 236L218.782 237.841L225.234 235.125L224.452 233.284Z" fill="#EDDFDA"/>
<path d="M213 240C214.105 240 215 239.105 215 238C215 236.895 214.105 236 213 236C211.895 236 211 236.895 211 238C211 239.105 211.895 240 213 240Z" fill="#EDDFDA"/>
<path d="M229.217 237.121L220 241L220.782 242.841L229.999 238.962L229.217 237.121Z" fill="#EDDFDA"/>
<path d="M234.608 235.06L230 237L230.782 238.841L235.39 236.901L234.608 235.06Z" fill="#EDDFDA"/>
<path d="M226.53 240.672L221 243L221.782 244.841L227.312 242.513L226.53 240.672Z" fill="#EDDFDA"/>
<path d="M216 248C217.105 248 218 247.105 218 246C218 244.895 217.105 244 216 244C214.895 244 214 244.895 214 246C214 247.105 214.895 248 216 248Z" fill="#EDDFDA"/>
<path d="M238.747 243.793L224 250L224.782 251.841L239.529 245.634L238.747 243.793Z" fill="#EDDFDA"/>
<path d="M220.407 255.906C221.425 255.477 221.901 254.306 221.469 253.289C221.037 252.272 219.861 251.796 218.843 252.224C217.825 252.653 217.35 253.824 217.782 254.841C218.214 255.857 219.389 256.334 220.407 255.906Z" fill="#EDDFDA"/>
<path d="M236.217 254.121L227 258L227.782 259.841L236.999 255.962L236.217 254.121Z" fill="#EDDFDA"/>
<path d="M245.139 260.733L235 265L235.782 266.841L245.921 262.574L245.139 260.733Z" fill="#EDDFDA"/>
<path d="M233.765 265.836L231 267L231.782 268.841L234.547 267.677L233.765 265.836Z" fill="#EDDFDA"/>
<path d="M241.608 252.06L237 254L237.782 255.841L242.39 253.901L241.608 252.06Z" fill="#EDDFDA"/>
<path d="M224.393 264.922C225.414 264.498 225.894 263.329 225.467 262.31C225.04 261.291 223.867 260.809 222.847 261.233C221.827 261.657 221.346 262.826 221.773 263.844C222.2 264.863 223.373 265.345 224.393 264.922Z" fill="#EDDFDA"/>
<path d="M226 273C227.105 273 228 272.105 228 271C228 269.895 227.105 269 226 269C224.895 269 224 269.895 224 271C224 272.105 224.895 273 226 273Z" fill="#EDDFDA"/>
<path d="M203 246.875L190.107 250L189 247.556L201.705 244L203 246.875Z" fill="#DDCDC7"/>
<path d="M176.204 256.843C177.088 258.986 183.924 258.066 191.484 254.789C193.737 253.818 195.915 252.674 198 251.366L196.698 248.523L188.677 248L175 253.938L176.204 256.843Z" fill="#DDCDC7"/>
<path d="M189 248L201.927 244.452L203.238 247.236C203.891 246.344 204.155 245.554 203.909 244.943L202.678 242L189 248Z" fill="#DDCDC7"/>
<path d="M186.933 244.175C179.529 247.41 174.226 251.745 175.093 253.86C175.96 255.975 182.659 255.061 190.063 251.826C192.239 250.888 194.343 249.782 196.359 248.517L188.498 248.001L201.138 244.542C201.866 243.603 202.167 242.776 201.909 242.141C201.042 240.026 194.336 240.934 186.933 244.175Z" fill="#EDDFDA"/>
<path d="M196.6 266.254L197.8 269C205.37 265.909 210.791 261.767 209.905 259.746L208.705 257L195 262.575L196.6 266.23" fill="#DDCDC7"/>
<path d="M197 265.522L183.12 271L182 268.507L195.867 263L197 265.522Z" fill="#DDCDC7"/>
<path d="M196.067 266.949C203.471 263.678 208.774 259.293 207.907 257.154C207.04 255.016 200.341 255.934 192.931 259.205C185.522 262.476 180.231 266.861 181.092 269L194.502 263.055L196.067 266.949Z" fill="#EDDFDA"/>
<path d="M202 278L214.955 275.135L216.211 277.588C216.873 276.818 217.155 276.133 216.916 275.598L215.776 273L202 278Z" fill="#DDCDC7"/>
<path d="M202 278.393L203.046 281L216 277.949L214.633 275L202 278.393Z" fill="#DDCDC7"/>
<path d="M191 284.307L192.134 287L203 280.444L201.817 278L191 284.307Z" fill="#DDCDC7"/>
<path d="M189.159 285.888C189.459 286.595 190.543 286.954 192.151 287L190.992 284.307L202 278L188 283.212L189.159 285.888Z" fill="#D0C3FC"/>
<path d="M200.458 273.801C192.786 276.783 187.248 280.809 188.083 282.855C188.387 283.582 189.463 283.952 191.06 284L201.98 277.505L215.073 274.439C215.847 273.556 216.168 272.763 215.915 272.154C215.073 270.115 208.131 270.848 200.458 273.801Z" fill="#EDDFDA"/>
<path d="M307.86 245.235L196.881 291.946C194.185 293.08 192.936 296.204 194.091 298.922L197.729 307.486C198.883 310.205 202.004 311.488 204.7 310.354L315.68 263.643C318.375 262.509 319.624 259.385 318.47 256.667L314.832 248.103C313.677 245.384 310.556 244.101 307.86 245.235Z" fill="#DDCDC7"/>
<path d="M381 320.256L217 320L216.94 358L380.94 358.256L381 320.256Z" fill="#A0E0ED"/>
<path d="M374.886 339.944C375.417 333.338 370.491 327.556 363.885 327.03C357.278 326.504 351.492 331.432 350.961 338.039C350.43 344.645 355.356 350.426 361.962 350.953C368.569 351.479 374.355 346.55 374.886 339.944Z" fill="#F5F0EE"/>
<path d="M363.923 347.56C368.675 346.103 371.338 341.073 369.869 336.325C368.401 331.576 363.358 328.907 358.605 330.363C353.853 331.819 351.19 336.85 352.659 341.598C354.127 346.347 359.171 349.016 363.923 347.56Z" fill="#1C2B54"/>
<path d="M317 327.144L225 327L224.961 352L316.96 352.144L317 327.144Z" fill="#F5F0EE"/>
<path d="M283 265.015L237.195 253C237.195 253 234.088 265.967 232.136 276.006C230.92 282.327 225.38 299.865 225.38 299.865C225.38 299.865 231.655 301.768 234.349 305.253C234.349 305.253 228.639 301.982 225.946 301.78L224 309.727L268.279 322L283 265.015Z" fill="#F5F0EE"/>
<path d="M404 296.264L283.802 265L269 321.664L385.615 352L389.546 336.954L393.129 337.881L398.656 316.722L396.272 316.099L404 296.264Z" fill="#EDDFDA"/>
<path d="M339 305L396 315.661C396 315.661 389.48 316.721 389.124 320C389.124 319.975 387.436 314.936 339 305Z" fill="#DDCDC7"/>
<path d="M369 333C369 333 345.795 322.732 318 323.005C318 323.005 349.698 327.353 369 333Z" fill="#DDCDC7"/>
<path d="M275 297.488C275 297.488 267.196 291.662 262 289C262 289 272.053 298.642 274.064 301L275 297.488Z" fill="#EDDFDA"/>
<path d="M233 290C233 290 255.636 295.555 266 306C266 306 243.092 293.341 233 290Z" fill="#EDDFDA"/>
<path d="M410.363 264L288 230.396C291.998 224.364 293.972 217.222 293.637 210V210L416 243.604C411.998 249.635 410.024 256.777 410.363 264V264Z" fill="#FC81B3"/>
<path d="M403.162 217.076L321.634 194.722C320.179 194.323 318.68 195.157 318.285 196.584L317.848 198.163C317.453 199.59 318.313 201.07 319.767 201.469L401.295 223.823C402.75 224.221 404.25 223.388 404.645 221.961L405.082 220.382C405.476 218.955 404.617 217.475 403.162 217.076Z" fill="#FC81B3"/>
<path d="M398.18 226.452L311.439 202.669C310.092 202.299 308.699 203.088 308.328 204.43L306.472 211.135C306.101 212.477 306.892 213.865 308.239 214.234L394.979 238.017C396.326 238.386 397.719 237.598 398.091 236.256L399.946 229.551C400.317 228.209 399.527 226.821 398.18 226.452Z" fill="#0059DF"/>
<path d="M406.648 225.048L309.65 198.452C308.739 198.203 307.821 198.647 307.6 199.446C307.379 200.244 307.939 201.094 308.85 201.344L405.848 227.939C406.759 228.189 407.677 227.744 407.898 226.946C408.119 226.148 407.56 225.298 406.648 225.048Z" fill="#2E2E2E"/>
<path d="M406.197 263L292 231.485C295.58 226.392 297.28 220.211 296.81 214L411 245.515C407.422 250.608 405.724 256.79 406.197 263V263Z" fill="#EDDFDA"/>
<path d="M306 233.763L310.637 235C311.825 232.195 312.62 229.248 313 226.237L308.344 225C308.037 228.022 307.246 230.979 306 233.763V233.763Z" fill="#FE1556"/>
<path d="M357 248.13L360.313 249C361.16 247.04 361.728 244.98 362 242.876L358.669 242C358.45 244.113 357.887 246.181 357 248.13V248.13Z" fill="#375A64"/>
<path d="M299 222L355.058 235.393L406 251L299 222Z" fill="#DDCDC7"/>
<path d="M318 231L362.913 242.604L404 255L318 231Z" fill="#DDCDC7"/>
<path d="M411 244.256L247 244L246.94 282L410.94 282.256L411 244.256Z" fill="#FCB05C"/>
<path d="M400.15 271.492C405.033 267.01 405.34 259.436 400.836 254.574C396.332 249.712 388.723 249.404 383.84 253.885C378.958 258.367 378.651 265.941 383.155 270.803C387.659 275.665 395.268 275.973 400.15 271.492Z" fill="#F5F0EE"/>
<path d="M401 263C401 264.78 400.472 266.52 399.483 268C398.494 269.48 397.089 270.634 395.444 271.315C393.8 271.996 391.99 272.174 390.244 271.827C388.498 271.48 386.895 270.623 385.636 269.364C384.377 268.105 383.52 266.502 383.173 264.756C382.826 263.01 383.004 261.2 383.685 259.556C384.366 257.911 385.52 256.506 387 255.517C388.48 254.528 390.22 254 392 254C394.387 254 396.676 254.948 398.364 256.636C400.052 258.324 401 260.613 401 263V263Z" fill="#1C2B54"/>
<path d="M347 250.144L255 250L254.961 275L346.96 275.144L347 250.144Z" fill="#F5F0EE"/>
<path d="M262 250.011L255 250L254.961 275L261.961 275.011L262 250.011Z" fill="#EDDFDA"/>
<path d="M278.031 250L278 275L279 275.001L279.031 250.001L278.031 250Z" fill="#EDDFDA"/>
<path d="M268.031 250L268 275L269 275.001L269.031 250.001L268.031 250Z" fill="#EDDFDA"/>
<path d="M298.031 250L298 275L299 275.001L299.031 250.001L298.031 250Z" fill="#EDDFDA"/>
<path d="M288.026 250L288 275L289 275.001L289.026 250.001L288.026 250Z" fill="#EDDFDA"/>
<path d="M318.031 250L318 275L319 275.001L319.031 250.001L318.031 250Z" fill="#EDDFDA"/>
<path d="M308.031 250L308 275L309 275.001L309.031 250.001L308.031 250Z" fill="#EDDFDA"/>
<path d="M337.026 250L337 275L338 275.001L338.026 250.001L337.026 250Z" fill="#EDDFDA"/>
<path d="M328.031 250L328 275L329 275.001L329.031 250.001L328.031 250Z" fill="#EDDFDA"/>
<path d="M256.224 190.748C255.977 187.283 255.971 183.818 256.033 180.322C256.094 176.826 256.298 173.392 256.649 169.932C257.265 162.987 258.518 156.112 260.391 149.392C261.346 146.014 262.543 142.708 263.973 139.5C265.392 136.261 267.146 133.178 269.206 130.3C271.294 127.381 273.806 124.787 276.66 122.603C279.561 120.432 282.843 118.816 286.338 117.837C288.105 117.339 289.927 117.059 291.763 117.003C293.658 116.964 295.543 117.293 297.311 117.972C299.066 118.686 300.655 119.749 301.984 121.094C303.256 122.413 304.35 123.891 305.239 125.492C306.908 128.617 308.202 131.927 309.092 135.354C310.035 138.727 310.762 142.1 311.44 145.522C312.79 152.318 313.906 159.12 315.558 165.799C316.351 169.142 317.392 172.422 318.671 175.612C319.914 178.801 321.681 181.763 323.899 184.376C323.929 184.4 323.954 184.431 323.972 184.466C323.989 184.5 323.999 184.538 324 184.577C324.001 184.616 323.994 184.655 323.979 184.69C323.964 184.726 323.941 184.758 323.913 184.785C323.884 184.811 323.85 184.831 323.813 184.843C323.776 184.855 323.737 184.859 323.698 184.854C323.659 184.85 323.622 184.837 323.588 184.817C323.555 184.797 323.526 184.77 323.504 184.738C321.11 182.169 319.178 179.208 317.796 175.986C316.395 172.794 315.231 169.504 314.313 166.142C312.408 159.457 311.181 152.649 309.696 145.903C308.956 142.542 308.167 139.193 307.187 135.924C306.272 132.674 304.983 129.539 303.346 126.583C302.541 125.163 301.553 123.853 300.406 122.689C299.286 121.569 297.947 120.691 296.473 120.107C294.986 119.554 293.405 119.296 291.818 119.346C290.18 119.413 288.557 119.681 286.985 120.143C283.771 121.054 280.754 122.551 278.09 124.559C275.441 126.608 273.11 129.034 271.173 131.76C267.252 137.237 264.589 143.591 262.586 150.098C260.644 156.672 259.226 163.388 258.344 170.184C257.41 177.007 256.867 183.877 256.717 190.761V190.761C256.716 190.793 256.709 190.825 256.696 190.854C256.683 190.884 256.664 190.91 256.64 190.932C256.617 190.955 256.589 190.972 256.559 190.984C256.529 190.995 256.497 191.001 256.464 191C256.399 190.997 256.338 190.969 256.293 190.922C256.249 190.875 256.224 190.813 256.224 190.748V190.748Z" fill="#50B8D4"/>
<path d="M243 181.619C243.496 178.2 244.224 174.824 245.02 171.466C245.816 168.108 246.74 164.75 247.792 161.477C249.851 154.85 252.515 148.425 255.749 142.282C257.393 139.205 259.254 136.249 261.319 133.435C263.384 130.579 265.741 127.943 268.351 125.572C270.993 123.171 273.978 121.175 277.208 119.649C280.483 118.143 284.012 117.259 287.612 117.042C289.435 116.93 291.264 117.041 293.06 117.372C294.904 117.734 296.66 118.449 298.231 119.478C299.781 120.544 301.097 121.913 302.1 123.502C303.055 125.052 303.805 126.718 304.334 128.459C305.285 131.844 305.837 135.327 305.98 138.839C306.176 142.319 306.164 145.774 306.102 149.218C305.974 156.111 305.637 162.973 305.809 169.811C305.874 173.222 306.189 176.624 306.751 179.989C307.287 183.348 308.372 186.597 309.964 189.605C309.982 189.635 309.993 189.668 309.998 189.703C310.002 189.737 310 189.772 309.991 189.805C309.982 189.839 309.966 189.87 309.945 189.898C309.923 189.925 309.897 189.948 309.867 189.965C309.806 189.999 309.735 190.009 309.668 189.992C309.6 189.975 309.542 189.932 309.505 189.874C307.731 186.87 306.489 183.584 305.833 180.16C305.147 176.761 304.715 173.316 304.542 169.854C304.107 162.943 304.358 156.05 304.346 149.193C304.346 145.762 304.279 142.343 304.021 138.955C303.819 135.602 303.231 132.283 302.271 129.064C301.791 127.513 301.11 126.031 300.245 124.656C299.391 123.335 298.28 122.2 296.977 121.316C295.648 120.47 294.169 119.887 292.619 119.6C291.017 119.322 289.387 119.242 287.765 119.362C284.463 119.582 281.23 120.41 278.23 121.805C275.221 123.23 272.441 125.092 269.979 127.33C265.016 131.836 261.086 137.453 257.769 143.363C254.494 149.351 251.696 155.588 249.402 162.015C247.049 168.454 245.067 175.021 243.465 181.686V181.686C243.449 181.749 243.41 181.802 243.355 181.837C243.3 181.871 243.235 181.882 243.172 181.869C243.12 181.851 243.076 181.817 243.045 181.772C243.014 181.727 242.998 181.674 243 181.619V181.619Z" fill="#50B8D4"/>
<path d="M257.26 182.625C257.547 185.55 257.049 188.497 255.817 191.168C254.645 193.822 253.287 196.391 251.753 198.856C251.016 200.107 250.273 201.345 249.592 202.614L247.565 206.446L243.507 214.122L235.397 229.468C232.671 234.575 229.908 239.658 227.225 244.777C221.865 255.009 216.788 265.425 213.104 276.347C211.234 281.788 209.833 287.376 208.917 293.053C208.013 298.719 207.887 304.481 208.542 310.181C209.189 315.872 210.809 321.413 213.331 326.563C215.889 331.689 219.186 336.417 223.118 340.597C225.05 342.716 227.117 344.709 229.306 346.565C231.527 348.394 233.843 350.107 236.244 351.696C238.657 353.264 241.156 354.71 243.704 356.053C246.252 357.395 248.892 358.579 251.556 359.714C262.305 364.027 273.606 366.83 285.134 368.043C290.89 368.684 296.68 368.975 302.472 368.915C308.262 368.872 314.039 368.305 319.835 367.817C325.63 367.329 331.383 366.657 337.099 365.706C342.816 364.802 348.449 363.433 353.94 361.611C359.423 359.798 364.669 357.34 369.565 354.289C374.447 351.217 378.905 347.525 382.827 343.306C386.726 339.059 390.305 334.531 393.534 329.761C396.68 324.931 399.409 319.847 401.694 314.562C403.908 309.248 405.587 303.73 406.704 298.087L407.441 293.816L407.883 289.545L407.993 288.471L408.03 287.397L408.097 285.243L408.165 283.089C408.165 282.369 408.116 281.649 408.091 280.935L408.005 278.781C407.969 278.061 408.005 277.341 407.87 276.628L407.391 272.356C407.33 271.642 407.164 270.941 407.041 270.233L406.649 268.11L406.249 265.992L405.709 263.906C404.364 258.306 402.365 252.881 399.754 247.742C397.152 242.599 394.068 237.71 390.544 233.141C387.024 228.562 383.144 224.267 378.941 220.297C374.744 216.31 370.29 212.6 365.605 209.192C360.907 205.8 356.02 202.673 350.969 199.826C348.451 198.386 345.879 197.056 343.306 195.713L335.583 191.699C332.986 190.417 330.303 189.166 328.074 187.257C325.854 185.379 323.754 183.366 321.787 181.228C321.763 181.202 321.75 181.169 321.75 181.134C321.75 181.099 321.763 181.065 321.787 181.039C321.812 181.014 321.847 181 321.882 181C321.918 181 321.952 181.014 321.977 181.039C323.95 183.154 326.052 185.147 328.27 187.006C330.475 188.88 333.127 190.094 335.73 191.363L343.484 195.347C346.063 196.671 348.654 197.995 351.183 199.429C356.266 202.26 361.185 205.37 365.918 208.747C370.648 212.134 375.148 215.827 379.389 219.803C383.638 223.774 387.564 228.075 391.128 232.665C394.704 237.262 397.823 242.193 400.441 247.388C403.09 252.572 405.118 258.046 406.483 263.698L407.041 265.803L407.441 267.945L407.846 270.087C407.969 270.8 408.14 271.508 408.202 272.234L408.693 276.56C408.797 277.28 408.797 278.006 408.834 278.733L408.926 280.911C408.926 281.631 409 282.357 409 283.083L408.939 285.261L408.871 287.44L408.834 288.526L408.73 289.612L408.288 293.944L407.557 298.215C406.437 303.92 404.749 309.5 402.517 314.873C400.221 320.215 397.475 325.354 394.308 330.237C391.067 335.066 387.472 339.651 383.551 343.953C379.578 348.239 375.06 351.993 370.112 355.119C365.153 358.218 359.839 360.718 354.284 362.563C348.74 364.403 343.055 365.789 337.283 366.706C331.524 367.67 325.735 368.317 319.939 368.854C317.041 369.123 314.143 369.361 311.239 369.592C308.335 369.824 305.413 369.94 302.496 369.989C296.658 370.061 290.82 369.776 285.017 369.135C273.377 367.935 261.962 365.127 251.102 360.794C248.407 359.671 245.742 358.463 243.12 357.133C240.499 355.803 238 354.314 235.55 352.715C233.121 351.087 230.78 349.331 228.539 347.456C226.302 345.56 224.191 343.522 222.221 341.354C218.221 337.072 214.87 332.234 212.275 326.991C209.707 321.723 208.061 316.059 207.406 310.242C206.751 304.443 206.889 298.583 207.818 292.821C208.751 287.082 210.19 281.434 212.115 275.944C215.891 264.961 221.067 254.533 226.488 244.313L242.991 213.829L247.111 206.19L249.18 202.37C249.88 201.095 250.635 199.863 251.384 198.624C252.93 196.187 254.305 193.647 255.498 191.021C256.634 188.391 257.34 185.53 257.002 182.662C256.998 182.63 257.007 182.597 257.027 182.571C257.047 182.546 257.077 182.529 257.109 182.525C257.142 182.521 257.175 182.53 257.201 182.55C257.227 182.57 257.244 182.599 257.248 182.631L257.26 182.625Z" fill="#50B8D4"/>
<path d="M243.594 178.147C241.67 183.912 238.078 188.957 234.168 193.521C230.136 198.02 225.871 202.308 221.389 206.365C216.976 210.49 212.539 214.573 208.555 219.088C204.467 223.542 200.213 227.831 196.045 232.194C191.877 236.557 187.771 240.962 183.965 245.599C180.114 250.207 176.718 255.171 173.821 260.424C170.93 265.659 168.967 271.35 168.017 277.247C167.094 283.158 166.888 289.158 167.404 295.118C167.931 301.07 169.262 306.923 171.363 312.521C173.501 318.107 176.356 323.395 179.858 328.253C186.833 338.002 196.094 345.984 206.213 352.437C216.435 358.823 227.42 363.914 238.912 367.591C250.391 371.33 262.238 373.845 274.252 375.092C286.263 376.356 298.383 376.203 310.358 374.635C322.292 373.014 334.084 369.76 344.791 364.276C347.457 362.903 350.043 361.383 352.539 359.725C355.032 358.056 357.421 356.236 359.691 354.277C364.238 350.351 368.228 345.829 371.551 340.836C374.864 335.837 377.5 330.427 379.39 324.744C381.272 319.052 382.455 313.156 382.914 307.183C383.889 295.216 382.301 283.182 379.776 271.452C379.163 268.516 378.458 265.585 377.705 262.684C376.951 259.784 376.099 256.896 375.13 254.05C374.162 251.205 373.151 248.384 372.005 245.605C371.453 244.204 370.834 242.839 370.239 241.456C369.645 240.073 369.014 238.714 368.333 237.373C363.083 226.535 356.403 216.441 348.469 207.358C344.535 202.791 340.204 198.579 335.524 194.77C333.195 192.85 330.848 190.955 328.549 188.987C326.216 187.057 324.03 184.957 322.01 182.705C321.994 182.693 321.982 182.677 321.974 182.659C321.965 182.642 321.96 182.622 321.96 182.603C321.96 182.583 321.964 182.563 321.972 182.546C321.981 182.528 321.993 182.512 322.008 182.499C322.023 182.486 322.041 182.477 322.06 182.472C322.079 182.467 322.099 182.466 322.118 182.469C322.138 182.473 322.156 182.48 322.172 182.492C322.189 182.503 322.202 182.517 322.212 182.535C324.235 184.766 326.421 186.845 328.752 188.756C331.05 190.705 333.41 192.588 335.751 194.495C340.466 198.294 344.833 202.5 348.8 207.066C356.816 216.141 363.575 226.242 368.897 237.099C369.584 238.47 370.196 239.829 370.809 241.194C371.422 242.559 372.035 243.948 372.599 245.349C373.77 248.134 374.812 250.973 375.786 253.825C376.761 256.676 377.625 259.577 378.409 262.489C379.194 265.402 379.868 268.345 380.506 271.294C383.049 283.06 384.679 295.161 383.723 307.244C383.272 313.279 382.093 319.238 380.211 324.993C378.305 330.755 375.643 336.242 372.293 341.311C368.936 346.379 364.901 350.969 360.298 354.954C357.995 356.953 355.569 358.809 353.035 360.511C350.505 362.196 347.884 363.742 345.184 365.141C334.366 370.723 322.469 374.001 310.45 375.658C298.394 377.253 286.19 377.427 274.093 376.176C261.998 374.939 250.069 372.429 238.507 368.688C226.916 364.997 215.834 359.88 205.521 353.455C200.373 350.215 195.511 346.545 190.989 342.487C186.462 338.419 182.389 333.877 178.841 328.942C175.298 323.994 172.414 318.612 170.26 312.929C168.13 307.233 166.784 301.277 166.258 295.222C165.757 289.172 165.986 283.085 166.938 277.089C167.911 271.073 169.934 265.272 172.914 259.948C175.874 254.658 179.338 249.663 183.26 245.032C187.115 240.365 191.258 235.954 195.457 231.627C199.655 227.301 203.927 223.024 208.021 218.606C212.116 214.189 216.565 210.033 221.009 205.957C225.521 201.954 229.817 197.717 233.88 193.265C237.833 188.756 241.425 183.778 243.386 178.086C243.39 178.071 243.398 178.056 243.408 178.044C243.418 178.031 243.431 178.021 243.445 178.013C243.459 178.006 243.475 178.001 243.492 178C243.508 177.999 243.524 178.002 243.539 178.007C243.563 178.021 243.581 178.042 243.591 178.068C243.601 178.093 243.602 178.121 243.594 178.147Z" fill="#50B8D4"/>
<path d="M406.983 282.756C405.683 285.637 403.899 288.275 401.708 290.558C399.566 292.864 397.242 294.994 394.758 296.93C389.77 300.775 384.494 304.234 378.975 307.276C373.474 310.355 367.813 313.13 362.055 315.686C359.17 316.956 356.258 318.163 353.32 319.307C350.38 320.433 347.409 321.523 344.359 322.35C332.153 325.892 319.342 326.87 306.736 325.223C294.129 323.547 282.035 319.177 271.283 312.412C260.534 305.665 251.28 296.807 244.088 286.377C236.89 275.948 231.971 264.13 229.65 251.689C228.489 245.513 227.938 239.239 228.005 232.957C228.093 223.508 229.58 214.125 232.419 205.108C232.889 203.605 233.403 202.126 233.953 200.648C234.503 199.169 235.218 197.757 235.927 196.351C237.346 193.552 238.862 190.807 240.206 187.977C240.893 186.57 241.505 185.127 242.04 183.656C242.58 182.195 242.929 180.672 243.079 179.122C243.08 179.105 243.084 179.088 243.092 179.072C243.099 179.057 243.11 179.043 243.123 179.031C243.136 179.02 243.152 179.011 243.168 179.006C243.185 179.001 243.202 178.999 243.22 179.001C243.237 179.001 243.254 179.006 243.27 179.013C243.286 179.021 243.3 179.031 243.311 179.044C243.323 179.058 243.331 179.073 243.337 179.089C243.342 179.106 243.344 179.123 243.342 179.141C243.209 180.717 242.872 182.269 242.34 183.76C241.821 185.246 241.225 186.705 240.555 188.129C239.24 190.983 237.743 193.746 236.361 196.552C235.671 197.958 235.004 199.37 234.448 200.812C233.892 202.254 233.421 203.763 232.975 205.254C232.065 208.243 231.306 211.276 230.701 214.34C228.257 226.622 228.213 239.257 230.573 251.555C232.962 263.824 237.873 275.468 244.999 285.757C252.117 296.045 261.269 304.78 271.894 311.426C282.529 318.061 294.46 322.366 306.895 324.054C319.338 325.719 331.991 324.834 344.078 321.456C347.098 320.652 350.044 319.581 352.984 318.48C355.924 317.378 358.822 316.179 361.701 314.932C367.459 312.43 373.113 309.692 378.62 306.679C384.151 303.716 389.444 300.333 394.452 296.559C396.959 294.668 399.31 292.58 401.482 290.315C403.677 288.082 405.473 285.493 406.794 282.659C406.799 282.644 406.808 282.631 406.82 282.62C406.831 282.608 406.845 282.6 406.86 282.594C406.875 282.588 406.891 282.586 406.907 282.586C406.922 282.587 406.938 282.591 406.952 282.598C406.976 282.616 406.992 282.642 406.998 282.671C407.003 282.701 406.998 282.731 406.983 282.756V282.756Z" fill="#50B8D4"/>
<path d="M244.867 175.167C242.144 182.264 238.663 189.051 234.483 195.413C230.396 201.827 225.824 207.913 221.363 214.053C216.901 220.193 212.556 226.419 209.089 233.125C207.345 236.464 205.878 239.938 204.701 243.513C202.943 248.871 202.056 254.473 202.074 260.108L202.111 262.932C202.111 263.869 202.191 264.812 202.228 265.749C202.417 269.509 202.847 273.253 203.516 276.959C204.167 280.666 205.072 284.326 206.223 287.912C207.386 291.49 208.789 294.987 210.42 298.379C213.715 305.163 217.972 311.444 223.063 317.031C228.174 322.611 233.983 327.519 240.35 331.636C246.726 335.745 253.525 339.168 260.633 341.848C267.751 344.522 275.101 346.544 282.591 347.891C297.605 350.584 312.961 350.827 328.054 348.609C335.6 347.507 343.037 345.764 350.282 343.4C353.903 342.225 357.468 340.892 360.954 339.383C364.44 337.874 367.84 336.176 371.252 334.46C378.058 331.058 384.808 327.468 390.841 322.843C393.867 320.552 396.627 317.936 399.071 315.041C401.505 312.139 403.423 308.846 404.741 305.305C404.747 305.289 404.755 305.274 404.767 305.261C404.778 305.248 404.792 305.238 404.807 305.231C404.823 305.223 404.84 305.219 404.857 305.218C404.874 305.217 404.891 305.22 404.907 305.226C404.924 305.231 404.94 305.24 404.953 305.251C404.967 305.263 404.978 305.277 404.986 305.293C404.994 305.309 404.998 305.326 405 305.344C405.001 305.361 404.999 305.379 404.993 305.396C403.694 308.986 401.784 312.328 399.347 315.279C396.906 318.209 394.146 320.862 391.117 323.19C385.085 327.894 378.328 331.557 371.54 335.014C368.153 336.754 364.753 338.519 361.242 340.04C357.732 341.562 354.16 342.931 350.527 344.13C343.248 346.53 335.774 348.305 328.189 349.436C313.005 351.709 297.548 351.503 282.432 348.828C274.88 347.487 267.466 345.469 260.283 342.797C253.094 340.111 246.217 336.67 239.767 332.531C233.304 328.384 227.405 323.431 222.216 317.792C217.034 312.145 212.695 305.793 209.328 298.927C207.658 295.489 206.235 291.939 205.069 288.302C203.921 284.652 203.023 280.929 202.381 277.159C201.718 273.406 201.294 269.616 201.111 265.81C201.111 264.861 201.006 263.905 201 262.956V260.102C200.996 258.189 201.097 256.277 201.301 254.375C202.197 246.765 204.553 239.395 208.242 232.662C211.807 225.908 216.22 219.682 220.743 213.566C225.266 207.45 229.875 201.395 234.054 195.103C238.312 188.825 241.878 182.11 244.689 175.076C244.701 175.046 244.725 175.022 244.755 175.01C244.785 174.997 244.819 174.997 244.849 175.009C244.87 175.029 244.884 175.055 244.888 175.085C244.891 175.114 244.884 175.143 244.867 175.167Z" fill="#50B8D4"/>
<path d="M306.283 177.105C309.43 195.863 308.24 215.089 302.805 233.321C297.457 251.598 288.212 268.513 275.7 282.912C269.46 290.089 262.423 296.541 254.724 302.142C247.022 307.742 238.663 312.386 229.832 315.971C221.018 319.578 211.787 322.081 202.353 323.421C197.627 324.05 192.846 324.167 188.094 323.769C183.352 323.355 178.663 322.478 174.093 321.152C174.076 321.147 174.061 321.138 174.047 321.127C174.034 321.116 174.023 321.103 174.014 321.087C174.006 321.072 174.002 321.055 174 321.038C173.999 321.02 174.001 321.003 174.007 320.986C174.011 320.97 174.019 320.954 174.029 320.941C174.04 320.927 174.053 320.916 174.068 320.907C174.082 320.899 174.099 320.893 174.116 320.891C174.133 320.889 174.15 320.89 174.167 320.895C178.73 322.152 183.408 322.957 188.131 323.298C192.849 323.629 197.589 323.447 202.267 322.754C206.939 322.028 211.565 321.032 216.12 319.769C220.671 318.499 225.139 316.952 229.5 315.139C233.858 313.324 238.105 311.253 242.216 308.937C254.547 301.933 265.579 292.875 274.834 282.16C280.999 275.03 286.379 267.262 290.881 258.991C295.399 250.728 299.039 242.018 301.741 233.003C307.217 214.911 308.685 195.853 306.044 177.142C306.041 177.126 306.042 177.11 306.046 177.094C306.05 177.078 306.057 177.063 306.066 177.05C306.076 177.037 306.088 177.026 306.102 177.018C306.116 177.009 306.132 177.004 306.148 177.001C306.164 176.999 306.181 177 306.196 177.004C306.212 177.008 306.227 177.015 306.24 177.024C306.253 177.034 306.265 177.046 306.273 177.06C306.281 177.074 306.287 177.089 306.289 177.105H306.283Z" fill="#50B8D4"/>
<path d="M306.659 181.046C313.694 200.251 316.117 221.03 314.537 241.424C313.746 251.628 312.101 261.748 309.617 271.681C308.387 276.645 306.997 281.567 305.312 286.422C303.627 291.268 301.59 295.986 299.218 300.541C294.499 309.694 288.243 317.985 280.72 325.058C273.157 332.075 264.342 337.632 254.726 341.446C245.108 345.218 234.925 347.384 224.593 347.856C223.308 347.947 222.023 347.947 220.731 347.984C219.44 348.02 218.161 347.984 216.869 347.984C214.299 347.984 211.722 347.911 209.152 347.721C206.579 347.557 204.018 347.239 201.483 346.77C198.949 346.287 196.465 345.576 194.061 344.648C194.035 344.631 194.015 344.605 194.006 344.576C193.997 344.546 193.998 344.515 194.01 344.486C194.021 344.457 194.042 344.434 194.07 344.419C194.097 344.404 194.128 344.398 194.159 344.404C196.552 345.295 199.022 345.969 201.538 346.416C204.063 346.854 206.611 347.144 209.17 347.282C211.728 347.435 214.293 347.459 216.863 347.447C218.142 347.447 219.427 347.447 220.707 347.38C221.986 347.313 223.271 347.319 224.544 347.203C234.786 346.624 244.866 344.398 254.388 340.61C263.881 336.785 272.571 331.238 280.013 324.253C287.428 317.253 293.59 309.053 298.234 300.004C300.571 295.492 302.575 290.819 304.23 286.019C305.878 281.226 307.243 276.31 308.461 271.382C309.678 266.454 310.699 261.465 311.536 256.452C312.372 251.439 312.993 246.395 313.381 241.327C313.768 236.259 313.94 231.184 313.885 226.08C313.851 221.018 313.551 215.961 312.987 210.93C311.864 200.808 309.665 190.831 306.425 181.168C306.42 181.153 306.417 181.137 306.418 181.121C306.418 181.105 306.422 181.09 306.429 181.076C306.436 181.061 306.446 181.049 306.458 181.038C306.47 181.028 306.484 181.02 306.499 181.015C306.525 181.001 306.555 180.997 306.585 181.002C306.614 181.008 306.64 181.023 306.659 181.046V181.046Z" fill="#50B8D4"/>
<path d="M305.924 180.06C306.677 182.579 307.666 185.023 308.879 187.358C310.109 189.679 311.481 191.922 312.986 194.076C315.977 198.413 319.453 202.401 322.5 206.749C325.579 211.079 328.337 215.627 330.751 220.357C333.125 225.099 335.173 229.996 336.881 235.015C340.36 245.061 342.385 255.549 342.894 266.163C343.133 271.461 342.967 276.77 342.398 282.043C341.799 287.326 340.774 292.553 339.333 297.672C333.536 318.294 320.946 336.374 303.588 349.005C294.967 355.247 285.345 359.986 275.133 363.022C270.081 364.622 264.993 366.076 259.838 367.34C254.689 368.625 249.449 369.513 244.163 369.997C244.144 370.001 244.123 370.001 244.104 369.996C244.084 369.992 244.066 369.983 244.05 369.97C244.035 369.958 244.022 369.942 244.013 369.924C244.005 369.906 244 369.886 244 369.866C244 369.846 244.005 369.826 244.013 369.808C244.022 369.79 244.035 369.774 244.05 369.761C244.066 369.748 244.084 369.739 244.104 369.735C244.123 369.73 244.144 369.73 244.163 369.734C249.423 369.19 254.632 368.244 259.746 366.907C264.871 365.612 269.934 364.079 274.961 362.424C287.564 358.469 299.209 351.957 309.163 343.298C319.116 334.639 327.161 324.02 332.792 312.11C335.022 307.357 336.845 302.425 338.242 297.366C339.637 292.31 340.617 287.148 341.172 281.933C341.721 276.716 341.873 271.464 341.626 266.224C341.121 255.724 339.149 245.345 335.765 235.388C334.086 230.407 332.087 225.54 329.782 220.815C327.462 216.102 324.798 211.564 321.813 207.238C320.317 205.07 318.748 202.963 317.136 200.868C315.524 198.773 313.979 196.593 312.508 194.412C311.034 192.217 309.699 189.933 308.511 187.572C307.339 185.194 306.393 182.711 305.685 180.157C305.676 180.126 305.68 180.092 305.696 180.063C305.712 180.035 305.739 180.014 305.771 180.005C305.802 179.996 305.836 180 305.865 180.016C305.894 180.032 305.915 180.059 305.924 180.09V180.06Z" fill="#50B8D4"/>
<path d="M322.163 182.08C329.06 189.876 335.014 198.46 340.522 207.27C343.288 211.675 345.987 216.116 348.661 220.57C349.989 222.8 351.354 225 352.645 227.291C353.312 228.415 353.869 229.594 354.481 230.743C355.093 231.891 355.625 233.089 356.176 234.274C360.486 243.832 363.05 254.082 363.746 264.541C364.121 269.753 364.081 274.987 363.624 280.193C363.179 285.395 362.361 290.559 361.176 295.644C360.006 300.729 358.52 305.737 356.727 310.637C354.922 315.529 352.833 320.313 350.473 324.964C345.797 334.36 338.796 342.425 330.859 349.158C326.876 352.525 322.679 355.633 318.296 358.463C316.111 359.886 313.883 361.242 311.637 362.55C309.404 363.865 307.102 365.061 304.741 366.13C299.986 368.281 295.078 370.016 290.151 371.708C287.667 372.508 285.17 373.223 282.667 373.938L278.916 375.007L277.037 375.533L276.101 375.789L275.63 375.918L275.391 375.985H275.275H275.22C275.336 376.028 274.95 375.985 275.005 375.801C275.024 375.772 275.054 375.751 275.088 375.743C275.123 375.735 275.159 375.74 275.189 375.759C275.205 375.767 275.219 375.778 275.23 375.792C275.241 375.806 275.249 375.822 275.254 375.84C275.259 375.857 275.26 375.875 275.257 375.892C275.254 375.91 275.248 375.927 275.238 375.942C275.33 375.74 274.987 375.698 275.146 375.728H275.207H275.324L275.556 375.661L276.027 375.527L276.964 375.258L278.836 374.714L282.575 373.62C285.066 372.875 287.563 372.136 290.023 371.323C294.919 369.588 299.814 367.792 304.496 365.605C306.846 364.509 309.134 363.285 311.35 361.939C313.577 360.615 315.772 359.236 317.935 357.803C322.269 354.961 326.418 351.847 330.357 348.48C338.191 341.759 345.045 333.743 349.585 324.457C351.902 319.831 353.959 315.081 355.748 310.228C357.514 305.368 358.975 300.404 360.123 295.363C361.277 290.335 362.069 285.231 362.492 280.089C362.935 274.944 362.966 269.771 362.583 264.62C362.208 259.47 361.401 254.361 360.172 249.346C358.933 244.336 357.256 239.444 355.16 234.726C354.628 233.553 354.071 232.386 353.502 231.231C352.933 230.077 352.333 228.928 351.666 227.816C350.405 225.574 349.041 223.35 347.719 221.096C345.069 216.629 342.462 212.139 339.763 207.71C334.347 198.869 328.662 190.163 321.967 182.214C321.946 182.19 321.934 182.158 321.934 182.126C321.934 182.093 321.946 182.062 321.967 182.037C321.981 182.022 321.999 182.011 322.018 182.005C322.037 181.999 322.058 181.998 322.078 182.003C322.097 182.007 322.116 182.016 322.131 182.03C322.146 182.044 322.157 182.061 322.163 182.08V182.08Z" fill="#50B8D4"/>
<path d="M322.173 183.049C333.001 194.051 343.443 205.426 353.941 216.741L361.773 225.268C363.066 226.692 364.408 228.098 365.64 229.614C366.871 231.13 368.036 232.67 369.139 234.278C371.351 237.468 373.355 240.781 375.328 244.094C376.315 245.745 377.32 247.42 378.227 249.137C379.134 250.855 379.992 252.597 380.764 254.376C383.854 261.497 386.126 268.945 387.536 276.576C388.948 284.186 389.749 291.896 389.932 299.633C390.034 303.496 390.021 307.357 389.895 311.216C389.895 312.182 389.821 313.148 389.772 314.113C389.737 315.085 389.654 316.054 389.521 317.017C389.264 318.948 388.908 320.843 388.492 322.732C387.676 326.51 386.708 330.251 385.673 333.967C385.152 335.801 384.606 337.671 384.036 339.517C383.754 340.44 383.46 341.351 383.154 342.274C383.001 342.732 382.841 343.191 382.676 343.643L382.418 344.322L382.271 344.658C382.241 344.719 382.216 344.774 382.18 344.835C382.143 344.896 382.149 344.89 382.118 344.927C382.093 344.959 382.059 344.982 382.02 344.994C381.979 345.005 381.934 345 381.897 344.98C381.859 344.959 381.831 344.925 381.818 344.884C381.823 344.849 381.84 344.818 381.868 344.796C381.895 344.775 381.93 344.764 381.965 344.768H382.002H382.075C382.064 344.741 382.044 344.72 382.017 344.709C381.991 344.697 381.961 344.697 381.934 344.707L381.971 344.652L382.045 344.499C382.094 344.395 382.137 344.279 382.18 344.169L382.431 343.496C382.584 343.044 382.737 342.586 382.884 342.127C383.172 341.21 383.454 340.293 383.724 339.364C384.263 337.531 384.778 335.66 385.268 333.802C386.249 330.073 387.156 326.332 387.909 322.561C388.277 320.678 388.614 318.783 388.841 316.882C388.957 315.929 389.025 315 389.049 314.028C389.074 313.056 389.117 312.109 389.135 311.149C389.233 307.304 389.196 303.453 389.055 299.615C388.914 295.776 388.626 291.937 388.21 288.117C387.793 284.297 387.211 280.501 386.481 276.735C385.069 269.195 382.808 261.838 379.74 254.804C378.968 253.049 378.117 251.338 377.222 249.651C376.327 247.964 375.34 246.325 374.335 244.669C372.338 241.368 370.383 238.055 368.207 234.889C367.129 233.306 365.995 231.759 364.794 230.274C363.593 228.789 362.287 227.395 360.988 225.959L353.212 217.401L337.671 200.249C332.486 194.528 327.302 188.813 322.038 183.177C322.026 183.166 322.016 183.153 322.01 183.138C322.003 183.123 322 183.107 322 183.091C322 183.075 322.003 183.059 322.01 183.045C322.016 183.03 322.026 183.017 322.038 183.006C322.062 182.998 322.088 182.998 322.112 183.006C322.136 183.013 322.157 183.028 322.173 183.049Z" fill="#50B8D4"/>
<path d="M245.199 173.142C244.221 178.486 243.7 183.903 243.641 189.334C243.593 194.765 243.837 200.195 244.371 205.6C244.88 211.004 245.647 216.389 246.555 221.737C247.505 227.066 248.928 232.301 250.805 237.38C254.643 247.531 259.878 257.102 266.358 265.821C269.556 270.205 273.013 274.397 276.71 278.374C280.359 282.371 284.494 285.901 289.019 288.882C298.065 294.859 308.57 298.456 319.315 300C330.114 301.482 341.076 301.303 351.82 299.469C357.206 298.592 362.531 297.381 367.765 295.842C370.378 295.073 372.972 294.243 375.536 293.321C376.818 292.882 378.064 292.348 379.265 291.721C380.491 291.11 381.675 290.463 382.852 289.792C387.592 287.104 392.113 284.052 396.375 280.664C398.509 278.976 400.499 277.116 402.324 275.101C403.226 274.093 404.023 272.996 404.704 271.829C405.405 270.689 405.762 269.373 405.734 268.037V268.037C405.741 268.007 405.757 267.98 405.781 267.961C405.805 267.942 405.835 267.931 405.866 267.931C405.897 267.931 405.927 267.942 405.951 267.961C405.975 267.98 405.991 268.007 405.998 268.037C406.031 269.434 405.663 270.811 404.937 272.006C404.256 273.198 403.457 274.319 402.551 275.352C400.733 277.401 398.748 279.296 396.615 281.018C392.367 284.466 387.856 287.579 383.122 290.329C381.939 291.019 380.743 291.684 379.522 292.313C378.302 292.957 377.037 293.514 375.738 293.98C373.175 294.933 370.574 295.812 367.949 296.593C362.702 298.177 357.36 299.431 351.955 300.348C341.12 302.266 330.054 302.516 319.144 301.087C308.276 299.549 297.593 295.928 288.375 289.865C283.766 286.838 279.552 283.255 275.827 279.198C272.093 275.192 268.598 270.971 265.358 266.559C258.83 257.741 253.576 248.054 249.75 237.783C247.857 232.635 246.458 227.32 245.573 221.908C244.715 216.517 244.003 211.114 243.549 205.673C242.617 194.823 242.74 183.791 244.948 173.099C244.954 173.068 244.972 173.04 244.998 173.022C245.025 173.004 245.057 172.996 245.089 173.002C245.122 173.006 245.152 173.023 245.172 173.05C245.193 173.076 245.203 173.109 245.199 173.142V173.142Z" fill="#50B8D4"/>
<path d="M257.238 186.153C257.195 190.278 258.131 194.342 259.286 198.295C260.442 202.249 261.885 206.129 263.255 210.04C263.939 211.998 264.618 213.963 265.205 215.964C265.792 217.965 266.428 219.887 267.174 221.802C268.651 225.631 270.494 229.308 272.677 232.782C277.055 239.747 282.76 245.781 288.905 251.246C291.956 254.007 295.172 256.58 298.535 258.951C301.91 261.276 305.482 263.3 309.211 264.998C316.714 268.389 324.707 270.564 332.893 271.442C336.982 271.915 341.098 272.108 345.213 272.018C349.336 271.946 353.45 271.63 357.534 271.069C361.618 270.526 365.671 269.772 369.678 268.811C373.623 267.632 377.446 266.077 381.093 264.166C384.791 262.321 388.333 260.178 391.684 257.758C393.353 256.551 394.921 255.21 396.374 253.749C397.867 252.34 399.021 250.609 399.749 248.688C399.764 248.661 399.788 248.641 399.817 248.629C399.845 248.618 399.877 248.617 399.906 248.626C399.935 248.636 399.961 248.655 399.978 248.68C399.995 248.706 400.002 248.737 399.999 248.767C399.283 250.744 398.127 252.531 396.618 253.994C395.168 255.485 393.602 256.858 391.934 258.101C388.594 260.574 385.058 262.772 381.362 264.673C379.528 265.634 377.651 266.51 375.743 267.354C373.834 268.194 371.873 268.912 369.873 269.502C365.843 270.521 361.761 271.321 357.644 271.901C353.549 272.497 349.423 272.85 345.287 272.96C341.127 273.083 336.964 272.923 332.825 272.483C328.682 272.055 324.578 271.3 320.554 270.224C316.521 269.161 312.586 267.759 308.789 266.032C304.99 264.313 301.348 262.265 297.905 259.912C297.031 259.343 296.212 258.688 295.362 258.076C294.512 257.464 293.711 256.797 292.916 256.148C291.31 254.839 289.724 253.498 288.159 252.127C281.916 246.65 276.193 240.463 271.772 233.363C269.556 229.819 267.696 226.063 266.22 222.151C265.492 220.199 264.863 218.204 264.318 216.203C263.774 214.201 263.126 212.255 262.484 210.291C261.182 206.368 259.8 202.451 258.736 198.436C257.672 194.421 256.828 190.29 257.03 186.116C257.031 186.1 257.035 186.085 257.042 186.07C257.048 186.055 257.058 186.042 257.07 186.032C257.082 186.021 257.096 186.012 257.111 186.007C257.126 186.002 257.142 185.999 257.158 186C257.188 186.011 257.213 186.033 257.228 186.061C257.242 186.09 257.246 186.122 257.238 186.153V186.153Z" fill="#50B8D4"/>
<path d="M256.985 187.172C255.433 188.809 253.653 190.219 251.7 191.36C249.819 192.581 248 193.869 246.119 195.121L240.568 198.894L234.95 202.6C231.2 205.072 227.475 207.557 223.849 210.201C220.212 212.786 216.766 215.624 213.537 218.693C210.339 221.782 207.43 225.152 204.848 228.761C203.565 230.592 202.381 232.424 201.252 234.347L200.438 235.788L199.661 237.265C199.137 238.242 198.619 239.225 198.138 240.226C194.247 248.227 191.239 256.619 189.164 265.258C187.086 273.894 186.05 282.743 186.081 291.62C186.083 296.056 186.388 300.486 186.993 304.881C187.581 309.277 188.49 313.625 189.713 317.891C190.92 322.164 192.453 326.34 194.302 330.383L194.999 331.897L195.739 333.392C196.226 334.394 196.744 335.371 197.293 336.341C198.384 338.277 199.568 340.163 200.827 341.995C203.34 345.674 206.151 349.145 209.232 352.374C212.316 355.573 215.714 358.571 219.624 360.75C219.64 360.758 219.654 360.77 219.666 360.784C219.677 360.797 219.685 360.813 219.691 360.83C219.696 360.847 219.698 360.865 219.696 360.883C219.694 360.9 219.688 360.918 219.68 360.933C219.662 360.964 219.632 360.986 219.597 360.995C219.563 361.005 219.526 361 219.495 360.982C215.517 358.833 212.094 355.86 208.918 352.673C205.772 349.452 202.899 345.981 200.327 342.294C199.038 340.462 197.817 338.576 196.688 336.634C196.127 335.664 195.584 334.675 195.085 333.679L194.32 332.178L193.605 330.657C191.707 326.592 190.124 322.389 188.868 318.087C187.6 313.787 186.65 309.402 186.025 304.966C185.379 300.534 185.037 296.062 185.001 291.584C184.956 282.617 185.991 273.677 188.085 264.953C190.161 256.231 193.177 247.755 197.083 239.671C197.57 238.657 198.088 237.662 198.619 236.673L199.402 235.177L200.228 233.706C201.363 231.765 202.597 229.876 203.929 228.04C206.553 224.407 209.505 221.017 212.748 217.912C219.291 211.648 226.932 206.764 234.463 201.922L245.792 194.657C247.685 193.436 249.554 192.215 251.472 191.037C253.428 189.956 255.221 188.61 256.8 187.038C256.811 187.026 256.825 187.016 256.839 187.01C256.854 187.003 256.87 187 256.887 187C256.903 187 256.919 187.003 256.934 187.01C256.949 187.016 256.962 187.026 256.973 187.038C256.988 187.056 256.997 187.079 256.999 187.103C257.002 187.127 256.997 187.151 256.985 187.172V187.172Z" fill="#50B8D4"/>
<path d="M405.99 296.136C404.749 299.05 403.078 301.764 401.032 304.186C398.988 306.603 396.695 308.798 394.19 310.735C389.138 314.55 383.652 317.757 377.847 320.292C372.07 322.864 366.15 325.103 360.116 327C354.106 328.903 348.084 330.848 341.878 332.159C329.481 334.896 316.729 335.662 304.093 334.428C297.772 333.797 291.537 332.495 285.494 330.543C279.423 328.601 273.672 325.776 268.429 322.158C263.178 318.507 258.659 313.906 255.106 308.595C251.598 303.252 249.076 297.327 247.659 291.098C246.951 288.004 246.461 284.864 246.192 281.701C245.935 278.56 245.691 275.419 245.513 272.273C245.134 265.979 244.965 259.677 245.006 253.367C245.049 247.061 245.379 240.75 246.027 234.462C246.382 231.327 246.773 228.193 247.335 225.083C247.902 221.97 248.659 218.894 249.604 215.874C251.352 209.824 253.272 203.836 254.709 197.731C255.454 194.685 256.042 191.604 256.47 188.498C256.837 185.4 257.045 182.235 256.433 179.161C256.426 179.127 256.433 179.09 256.452 179.061C256.472 179.031 256.502 179.01 256.537 179.003C256.554 178.999 256.571 178.999 256.588 179.002C256.605 179.006 256.621 179.012 256.636 179.022C256.65 179.032 256.662 179.044 256.671 179.059C256.681 179.073 256.687 179.089 256.69 179.106C257.411 182.21 257.301 185.418 257.026 188.559C256.707 191.703 256.197 194.825 255.498 197.908C254.134 204.073 252.373 210.105 250.661 216.173C249.753 219.175 249.028 222.23 248.491 225.32C247.935 228.37 247.549 231.517 247.201 234.627C246.589 240.865 246.247 247.135 246.21 253.41C246.174 259.685 246.345 265.967 246.73 272.236C246.907 275.371 247.158 278.505 247.421 281.634C247.683 284.74 248.167 287.823 248.87 290.861C250.26 296.935 252.717 302.716 256.128 307.936C259.596 313.124 264.007 317.618 269.132 321.188C274.279 324.745 279.921 327.53 285.879 329.452C291.838 331.386 297.987 332.684 304.221 333.324C310.469 333.97 316.759 334.105 323.028 333.727C329.303 333.359 335.543 332.527 341.694 331.238C347.851 329.976 353.862 328.073 359.884 326.213C365.896 324.355 371.804 322.179 377.584 319.694C383.371 317.239 388.846 314.111 393.897 310.376C396.403 308.485 398.7 306.335 400.751 303.96C402.803 301.58 404.489 298.908 405.752 296.032C405.758 296.017 405.767 296.004 405.778 295.993C405.79 295.981 405.803 295.973 405.818 295.967C405.833 295.961 405.849 295.959 405.865 295.959C405.881 295.96 405.897 295.964 405.911 295.971C405.928 295.976 405.943 295.984 405.956 295.995C405.97 296.006 405.98 296.02 405.988 296.036C405.995 296.051 406 296.068 406 296.085C406 296.103 405.997 296.12 405.99 296.136V296.136Z" fill="#50B8D4"/>
<path d="M305.932 172.2C305.572 172.6 305.32 173.086 305.202 173.61C305.06 174.144 304.957 174.687 304.895 175.235C304.767 176.34 304.724 177.452 304.705 178.569C304.687 179.687 304.705 180.804 304.632 181.934C304.632 182.215 304.595 182.502 304.552 182.789L304.429 183.619L304.184 185.28C303.522 189.714 302.772 194.131 301.934 198.532C300.322 207.363 298.153 216.084 295.44 224.644C292.757 233.241 289.151 241.525 284.684 249.351C280.193 257.205 274.412 264.254 267.582 270.206C264.141 273.146 260.42 275.743 256.471 277.961C252.514 280.155 248.384 282.021 244.121 283.543C239.863 285.058 235.502 286.27 231.072 287.17C228.864 287.634 226.626 287.976 224.388 288.287C222.15 288.599 219.899 288.782 217.643 288.898C213.131 289.109 208.61 288.993 204.116 288.55C199.614 288.122 195.167 287.249 190.84 285.942C186.498 284.654 182.367 282.745 178.576 280.276C174.792 277.791 171.544 274.579 169.022 270.828C169.003 270.798 168.996 270.762 169.003 270.727C169.009 270.691 169.03 270.66 169.059 270.639C169.088 270.62 169.124 270.614 169.158 270.62C169.192 270.627 169.223 270.647 169.243 270.676C171.789 274.356 175.048 277.493 178.827 279.903C182.606 282.293 186.712 284.126 191.018 285.344C199.602 287.817 208.672 288.458 217.594 288.013C219.826 287.909 222.052 287.658 224.265 287.402C226.479 287.145 228.687 286.724 230.87 286.248C235.241 285.321 239.544 284.097 243.747 282.584C247.955 281.058 252.031 279.189 255.931 276.996C259.81 274.802 263.463 272.235 266.84 269.332C273.56 263.456 279.242 256.497 283.648 248.747C288.071 240.999 291.669 232.812 294.385 224.32C297.118 215.81 299.37 207.153 301.13 198.391C302.025 194.013 302.841 189.61 303.626 185.207L303.92 183.552L304.061 182.728C304.11 182.465 304.135 182.19 304.159 181.915C304.239 180.816 304.258 179.693 304.313 178.575C304.368 177.458 304.429 176.328 304.589 175.21C304.67 174.649 304.791 174.094 304.95 173.549C305.095 172.981 305.385 172.46 305.791 172.035C305.813 172.013 305.844 172 305.876 172C305.909 172 305.939 172.013 305.962 172.035C305.974 172.046 305.984 172.059 305.99 172.074C305.997 172.088 306 172.104 306 172.12C306 172.136 305.997 172.152 305.99 172.167C305.984 172.182 305.974 172.195 305.962 172.206L305.932 172.2Z" fill="#50B8D4"/>
<path d="M215.288 142C215.288 142 217.645 149.365 218.381 151.45C219.116 153.536 219.865 157.224 216.383 156.989C212.901 156.754 209.21 155.404 206 147.256L215.288 142Z" fill="url(#paint3_linear_553_2398)"/>
<path d="M167.479 131C167.479 131 162.058 136.165 167.25 145L174 138.823L167.479 131Z" fill="#2E2E2E"/>
<path d="M182.852 43.9709C170.832 39.1727 147.078 37.9808 149.124 57.7389C150.834 74.2163 170.911 74.9781 183.475 73.479C189.791 72.7234 197.42 71.6789 203.161 68.687C212.732 63.7044 202.025 55.091 196.797 51.4048C192.438 48.4125 187.761 45.9191 182.852 43.9709V43.9709Z" fill="#C6EDFF"/>
<path d="M205.891 16.3125C206.261 16.3914 206.631 16.4823 207.013 16.5853C216.892 19.3133 217.559 30.7344 216.753 39.179C215.976 47.2659 213.842 56.2985 208.123 62.4273C201.931 69.0593 194.053 61.427 190.742 55.7589C186.394 48.2782 186.23 38.7243 188.243 30.504C190.287 22.1504 196.582 14.3242 205.891 16.3125Z" fill="#C6EDFF"/>
<path d="M307.426 61.6082C306.403 67.9477 304.648 74.1486 302.195 80.088C300.473 84.3471 298.493 88.499 296.268 92.5212C294.099 96.4557 291.718 100.271 289.137 103.952C286.239 108.094 283.073 112.044 279.659 115.777C274.959 121.001 269.643 125.643 263.827 129.602C260.685 131.726 257.336 133.527 253.83 134.98C250.689 136.256 247.242 137.52 243.57 138.717C233.259 142.135 222.604 144.425 211.795 145.548C202.164 146.453 192.717 146.083 184.651 143.67C177.129 141.422 170.805 137.393 166.649 130.957C164.472 127.533 163.23 123.604 163.044 119.557C162.696 113.523 164.395 106.741 168.544 99.8985C169.426 98.4414 170.384 97.0316 171.416 95.6751C173.895 92.4385 176.687 89.4507 179.751 86.7543C181.181 85.4903 182.708 84.2324 184.34 82.9988C184.694 82.7314 185.042 82.4518 185.385 82.1662C188.493 79.4997 191.154 76.357 193.267 72.8565C195.139 69.8165 196.828 66.6693 198.327 63.4313C200.16 59.5664 201.902 55.5314 203.826 51.5328C211.159 36.1219 220.863 21.2761 247.041 18.6692C277.472 15.6307 295.706 23.1782 303.521 36.4622C304.637 38.3707 305.547 40.3914 306.234 42.4904C308.098 48.1905 308.471 54.6624 307.426 61.6082Z" fill="url(#paint4_linear_553_2398)"/>
<path opacity="0.5" d="M243.5 58C248.194 58 252 56.2091 252 54C252 51.7909 248.194 50 243.5 50C238.806 50 235 51.7909 235 54C235 56.2091 238.806 58 243.5 58Z" fill="#FF4341"/>
<path opacity="0.5" d="M302.15 41.0643C302.691 42.3585 304.568 43.0178 307 42.9996C306.249 40.9093 305.252 38.898 304.027 37C302.437 38.3669 301.649 39.8547 302.15 41.0643Z" fill="#FF4341"/>
<path d="M244.455 40.7852C246.055 39.4043 248.041 38.5425 250.146 38.3153C252.201 38.056 253.87 38.7413 255.844 39.0377C256.601 39.155 257.47 38.1918 256.7 37.5743C252.784 34.4129 246.509 36.4938 243.264 39.5873C242.469 40.3468 243.648 41.4829 244.455 40.779V40.7852Z" fill="#2E2E2E"/>
<path d="M297.728 33.5343C294.415 30.401 288.085 28.3337 284.284 31.8051C283.56 32.4552 284.358 33.5018 285.143 33.3523C286.997 32.9882 288.611 32.2212 290.583 32.3707C292.758 32.4996 294.84 33.3432 296.535 34.7824C297.357 35.491 298.538 34.3079 297.728 33.5343V33.5343Z" fill="#2E2E2E"/>
<path d="M205 143C205 143 204.673 150.838 204.626 153.068C204.579 155.299 204.041 159.092 201.023 157.701C198.006 156.31 195.175 153.767 195 144.894L205 143Z" fill="url(#paint5_linear_553_2398)"/>
<path d="M287.666 106C287.666 106 293.333 110.628 295.404 114.236C297.474 117.844 297.747 121.727 294.925 121.995C292.104 122.264 281 110.689 281 110.689L287.666 106Z" fill="#FCC440"/>
<path d="M286.336 111.922C286.336 111.922 287.556 119.085 286.688 123.118C285.821 127.151 283.375 130.19 281.03 128.544C278.685 126.898 278 111 278 111L286.336 111.922Z" fill="#FCC440"/>
<path d="M303 80.4872C301.275 84.7362 299.293 88.8783 297.065 92.8909C294.618 92.9636 292.23 93 289.901 93C237.087 93 210.074 74.4187 199 63.8702C200.836 60.0145 202.579 55.9891 204.507 52C207.168 55.0312 213.409 61.1542 224.397 66.9377C238.519 74.3824 263.622 82.7606 303 80.4872Z" fill="#2E2E2E"/>
<path d="M290 104.153C287.095 108.303 283.922 112.26 280.499 116C247.862 114.088 223.262 104.518 207.881 96.433C200.163 92.4152 192.838 87.6929 186 82.3269C189.116 79.6555 191.784 76.5069 193.902 73C200.222 77.9244 206.989 82.2534 214.116 85.931C229.651 94.0282 255.403 103.739 290 104.153Z" fill="#2E2E2E"/>
<path d="M265 129.878C261.838 132.003 258.467 133.806 254.939 135.26C251.778 136.537 248.309 137.802 244.613 139C229.207 135.242 213.721 128.224 198.808 118.16C189.145 111.65 180.165 104.203 172 95.9271C174.495 92.6883 177.305 89.6983 180.389 87C181.619 88.3074 183.464 90.1379 185.837 92.3149C192.129 98.1514 198.869 103.497 205.997 108.302C219.89 117.625 240.831 128.407 265 129.878Z" fill="#2E2E2E"/>
<path d="M212 146.549C202.329 147.452 192.842 147.082 184.742 144.675C173.887 136.526 167.174 127.885 163.044 120.615C162.695 114.594 164.401 107.827 168.567 101C168.634 101.253 168.685 101.511 168.72 101.77C168.757 101.988 169.788 108.682 175.36 117.323C182.859 128.947 195.186 138.86 211.018 145.991C211.364 146.143 211.693 146.33 212 146.549V146.549Z" fill="#2E2E2E"/>
<path d="M265.247 52.187C267.07 53.1926 269.01 53.9894 271.027 54.5609C272.993 55.1288 275.047 55.3639 277.097 55.2557C278.126 55.2016 279.148 55.0543 280.149 54.8156C281.166 54.5886 282.161 54.2807 283.124 53.895C285.093 53.1108 286.977 52.141 288.747 51L289 51.2895C287.441 52.8041 285.648 54.0794 283.685 55.0704C282.687 55.5683 281.646 55.9791 280.572 56.2979C279.481 56.6121 278.362 56.8254 277.229 56.9348C274.949 57.1406 272.649 56.8578 270.496 56.1068C269.431 55.7314 268.418 55.2316 267.48 54.6188C266.54 54.0215 265.703 53.2869 265 52.4417L265.247 52.187Z" fill="#2E2E2E"/>
<path d="M270.993 4.04629C269.223 6.09014 267.982 8.49617 267.37 11.0729C266.864 13.3657 266.877 15.7336 267.408 18.0213C267.726 19.4327 268.59 22.9459 270.535 23C270.611 22.9981 270.684 22.9769 270.748 22.9389C270.812 22.9009 270.863 22.8473 270.898 22.7838C271.622 21.6427 270.338 19.5648 270.09 18.3457C269.657 16.2262 269.722 14.0427 270.281 11.9497C270.886 9.73081 272.071 7.69077 273.726 6.01613C275.277 4.43666 277.673 3.52981 278.862 1.68008C278.947 1.52539 278.994 1.35445 279 1.18011C279.005 1.00578 278.968 0.8326 278.892 0.673613C278.816 0.514625 278.703 0.37397 278.561 0.262236C278.42 0.150502 278.253 0.0705987 278.074 0.0285416C275.213 -0.289756 272.639 2.11849 270.993 4.04629Z" fill="#2E2E2E"/>
<path d="M248.301 4.37775C246.127 6.34186 244.338 8.70906 243.027 11.3539C240.772 16.3369 242.366 22.3351 246.483 25.8511C246.865 26.1791 247.695 25.9501 247.489 25.3125C246.725 23.1151 245.27 21.2395 244.718 18.9492C244.112 16.4731 244.791 14.1147 246.089 11.9791C247.446 9.86775 249.133 7.99824 251.084 6.44523C252.933 4.89771 255.698 3.79588 256.862 1.58603C256.949 1.43357 256.996 1.26081 257 1.08422C257.003 0.907636 256.962 0.733116 256.881 0.577309C256.799 0.421503 256.68 0.289607 256.534 0.194202C256.389 0.0987978 256.222 0.0430669 256.049 0.0323258C253.151 -0.332888 250.272 2.4774 248.301 4.37775Z" fill="#2E2E2E"/>
<defs>
<linearGradient id="paint0_linear_553_2398" x1="259.002" y1="298.892" x2="278.65" y2="319.932" gradientUnits="userSpaceOnUse">
<stop stop-color="#352E73"/>
<stop offset="1" stop-color="#5F5EAA"/>
</linearGradient>
<linearGradient id="paint1_linear_553_2398" x1="12409.8" y1="-3603.52" x2="12763.8" y2="-2405.99" gradientUnits="userSpaceOnUse">
<stop stop-color="#352E73"/>
<stop offset="1" stop-color="#5F5EAA"/>
</linearGradient>
<linearGradient id="paint2_linear_553_2398" x1="15715.6" y1="-6158.35" x2="16702.3" y2="-5101.43" gradientUnits="userSpaceOnUse">
<stop stop-color="#352E73"/>
<stop offset="1" stop-color="#5F5EAA"/>
</linearGradient>
<linearGradient id="paint3_linear_553_2398" x1="-8558.13" y1="1627.04" x2="-8533.12" y2="1752.17" gradientUnits="userSpaceOnUse">
<stop offset="0.15" stop-color="#FCD844"/>
<stop offset="0.42" stop-color="#FCD443"/>
<stop offset="0.69" stop-color="#FCC740"/>
<stop offset="0.97" stop-color="#FBB33C"/>
<stop offset="1" stop-color="#FBB03B"/>
</linearGradient>
<linearGradient id="paint4_linear_553_2398" x1="210.744" y1="-13.2465" x2="247.366" y2="134.061" gradientUnits="userSpaceOnUse">
<stop offset="0.15" stop-color="#FFE473"/>
<stop offset="0.42" stop-color="#FFDD60"/>
<stop offset="0.69" stop-color="#FFD568"/>
<stop offset="0.97" stop-color="#FFC86D"/>
<stop offset="1" stop-color="#FFC05D"/>
</linearGradient>
<linearGradient id="paint5_linear_553_2398" x1="-7267.15" y1="4111.52" x2="-7284.07" y2="4237.92" gradientUnits="userSpaceOnUse">
<stop offset="0.15" stop-color="#FCD844"/>
<stop offset="0.42" stop-color="#FCD443"/>
<stop offset="0.69" stop-color="#FCC740"/>
<stop offset="0.97" stop-color="#FBB33C"/>
<stop offset="1" stop-color="#FBB03B"/>
</linearGradient>
</defs>
</svg>
