<svg width="440" height="471" viewBox="0 0 440 471" fill="none" xmlns="http://www.w3.org/2000/svg">
<path d="M239.156 351.1C250.721 351.1 260.097 341.757 260.097 330.232C260.097 318.708 250.721 309.365 239.156 309.365C227.591 309.365 218.216 318.708 218.216 330.232C218.216 341.757 227.591 351.1 239.156 351.1Z" fill="#ECECEC"/>
<path d="M246.777 317.857C246.827 318.859 246.554 319.851 245.999 320.688C245.436 321.542 244.651 322.229 243.727 322.674C242.774 323.153 241.673 323.247 240.652 322.937C239.683 322.631 238.853 321.997 238.305 321.144C239.051 321.694 239.911 322.071 240.821 322.247C241.245 322.321 241.678 322.321 242.102 322.247C242.527 322.181 242.939 322.051 243.323 321.86C243.522 321.76 243.717 321.656 243.911 321.542C244.105 321.427 244.285 321.303 244.454 321.164C244.82 320.9 245.154 320.595 245.451 320.256C246.042 319.547 246.492 318.733 246.777 317.857V317.857Z" fill="#C8C8C8"/>
<path d="M239.247 319.054C239.154 318.361 239.31 317.658 239.685 317.067C240.059 316.448 240.606 315.951 241.26 315.637C241.595 315.469 241.961 315.369 242.336 315.342C242.711 315.316 243.087 315.364 243.443 315.483C244.119 315.708 244.682 316.185 245.012 316.814C244.481 316.487 243.89 316.269 243.273 316.173C242.719 316.106 242.157 316.205 241.659 316.456C240.562 316.998 239.703 317.922 239.247 319.054V319.054Z" fill="#C8C8C8"/>
<path d="M239.151 340.04C239.411 340.674 239.431 341.38 239.206 342.027C238.987 342.701 238.564 343.29 237.995 343.715C237.707 343.941 237.377 344.107 237.023 344.203C236.669 344.298 236.3 344.322 235.937 344.271C235.253 344.177 234.627 343.836 234.178 343.313C234.755 343.5 235.36 343.584 235.967 343.561C236.511 343.526 237.032 343.329 237.462 342.995C237.912 342.657 238.289 342.233 238.573 341.749C238.865 341.217 239.061 340.639 239.151 340.04V340.04Z" fill="#C8C8C8"/>
<path d="M234.821 342.409C234.705 342.197 234.632 341.964 234.607 341.723C234.582 341.483 234.606 341.24 234.677 341.009C234.817 340.522 235.112 340.095 235.519 339.792C235.727 339.628 235.968 339.509 236.226 339.444C236.484 339.379 236.752 339.369 237.014 339.414C237.255 339.452 237.486 339.539 237.691 339.67C237.897 339.801 238.074 339.972 238.21 340.174C237.807 340.091 237.393 340.073 236.984 340.12C236.653 340.166 236.341 340.298 236.077 340.502C235.459 340.983 235.018 341.653 234.821 342.409V342.409Z" fill="#C8C8C8"/>
<path d="M231.611 321.269C231.795 321.441 231.943 321.648 232.045 321.879C232.147 322.109 232.201 322.358 232.204 322.609C232.211 322.885 232.163 323.159 232.061 323.415C231.959 323.671 231.806 323.904 231.611 324.099C231.411 324.293 231.17 324.439 230.904 324.525C230.639 324.611 230.357 324.636 230.081 324.596C229.583 324.546 229.118 324.324 228.766 323.97C229.201 323.981 229.637 323.951 230.066 323.881C230.405 323.83 230.719 323.674 230.963 323.434C231.212 323.179 231.393 322.867 231.492 322.525C231.6 322.116 231.641 321.691 231.611 321.269Z" fill="#C8C8C8"/>
<path d="M229.015 323.29C228.866 323.184 228.744 323.046 228.657 322.886C228.571 322.726 228.523 322.548 228.516 322.366C228.504 322.165 228.534 321.964 228.605 321.775C228.677 321.587 228.787 321.416 228.93 321.273C229.076 321.124 229.256 321.013 229.455 320.949C229.654 320.885 229.865 320.87 230.071 320.906C230.432 320.961 230.756 321.155 230.973 321.447C230.674 321.485 230.378 321.543 230.086 321.621C229.897 321.674 229.726 321.775 229.588 321.914C229.437 322.064 229.318 322.243 229.239 322.44C229.122 322.711 229.046 322.997 229.015 323.29V323.29Z" fill="#C8C8C8"/>
<path d="M246.183 343.263C246.062 343.484 245.897 343.678 245.698 343.833C245.5 343.989 245.271 344.102 245.027 344.167C244.763 344.238 244.487 344.256 244.215 344.22C243.944 344.183 243.683 344.092 243.447 343.953C243.206 343.81 243.001 343.614 242.847 343.38C242.693 343.146 242.595 342.88 242.56 342.603C242.491 342.107 242.593 341.603 242.849 341.172C242.946 341.596 243.081 342.01 243.253 342.409C243.386 342.725 243.616 342.992 243.911 343.169C244.214 343.346 244.556 343.447 244.907 343.462C245.341 343.464 245.771 343.397 246.183 343.263V343.263Z" fill="#C8C8C8"/>
<path d="M243.552 341.252C243.615 341.079 243.718 340.923 243.852 340.796C243.986 340.669 244.147 340.575 244.324 340.522C244.517 340.46 244.721 340.44 244.922 340.463C245.123 340.486 245.317 340.552 245.49 340.656C245.668 340.759 245.819 340.903 245.93 341.076C246.041 341.248 246.109 341.445 246.128 341.649C246.161 342.008 246.05 342.365 245.819 342.642C245.711 342.364 245.582 342.093 245.435 341.833C245.34 341.658 245.198 341.512 245.027 341.411C244.843 341.302 244.64 341.23 244.429 341.197C244.135 341.177 243.84 341.195 243.552 341.252Z" fill="#C8C8C8"/>
<path d="M253.329 328.583C253.354 328.834 253.328 329.087 253.252 329.327C253.176 329.567 253.051 329.789 252.886 329.979C252.707 330.186 252.488 330.355 252.242 330.477C251.997 330.599 251.729 330.671 251.456 330.689C251.175 330.706 250.894 330.658 250.635 330.55C250.376 330.441 250.145 330.275 249.961 330.063C249.625 329.694 249.426 329.22 249.397 328.723C249.715 329.02 250.06 329.286 250.429 329.517C250.724 329.71 251.074 329.802 251.426 329.78C251.78 329.755 252.122 329.642 252.422 329.453C252.771 329.215 253.078 328.922 253.329 328.583V328.583Z" fill="#C8C8C8"/>
<path d="M250.04 328.38C249.996 328.201 249.995 328.014 250.034 327.835C250.074 327.655 250.154 327.486 250.269 327.342C250.394 327.184 250.551 327.055 250.73 326.961C250.908 326.868 251.104 326.813 251.306 326.801C251.516 326.788 251.726 326.827 251.918 326.913C252.11 327 252.278 327.132 252.407 327.297C252.522 327.434 252.608 327.593 252.661 327.763C252.714 327.934 252.733 328.113 252.716 328.29C252.467 328.122 252.208 327.971 251.939 327.839C251.762 327.747 251.564 327.706 251.366 327.719C251.153 327.731 250.944 327.785 250.753 327.878C250.493 328.012 250.253 328.181 250.04 328.38V328.38Z" fill="#C8C8C8"/>
<path d="M225.596 333.306C225.621 333.557 225.594 333.81 225.517 334.05C225.44 334.29 225.314 334.512 225.148 334.702C224.97 334.909 224.752 335.079 224.507 335.201C224.262 335.322 223.995 335.394 223.722 335.412C223.442 335.429 223.162 335.382 222.902 335.274C222.643 335.167 222.412 335.001 222.227 334.791C221.891 334.421 221.693 333.948 221.664 333.45C221.983 333.746 222.328 334.012 222.696 334.245C222.984 334.431 223.324 334.521 223.667 334.503C224.022 334.48 224.365 334.367 224.664 334.175C225.022 333.94 225.337 333.646 225.596 333.306V333.306Z" fill="#C8C8C8"/>
<path d="M222.308 333.103C222.263 332.925 222.26 332.739 222.299 332.56C222.337 332.381 222.417 332.213 222.532 332.07C222.657 331.91 222.814 331.779 222.994 331.685C223.173 331.591 223.371 331.536 223.573 331.523C223.783 331.512 223.993 331.551 224.185 331.638C224.377 331.724 224.545 331.855 224.675 332.02C224.79 332.157 224.876 332.315 224.929 332.486C224.982 332.656 225.001 332.836 224.984 333.013C224.734 332.845 224.475 332.692 224.206 332.556C224.029 332.468 223.831 332.427 223.633 332.437C223.42 332.451 223.212 332.506 223.02 332.601C222.76 332.733 222.52 332.902 222.308 333.103V333.103Z" fill="#C8C8C8"/>
<g opacity="0.4">
<path opacity="0.4" d="M5.48201 252.682C5.54181 260.742 6.91725 268.842 10.017 276.177C13.1167 283.512 17.9905 290.042 24.2597 294.114C25.8003 295.125 27.4261 296.001 29.1186 296.731C30.7807 297.416 32.5045 297.941 34.2665 298.301C37.7028 299.004 41.2412 299.056 44.6969 298.454C51.5492 297.268 57.8782 293.886 63.4746 289.431C63.8085 289.153 64.2022 288.86 64.4713 288.597L65.2636 287.847C65.762 287.311 66.2902 286.804 66.7587 286.223C67.7775 285.062 68.7055 283.826 69.5345 282.523C71.3517 279.706 72.9064 276.729 74.1791 273.629C76.91 267.173 79.033 259.987 80.9566 252.593C84.754 237.74 87.7789 222.017 91.377 206.046C92.274 202.05 93.2275 198.034 94.2375 193.999C95.2342 189.956 96.3106 185.904 97.4618 181.822C99.7941 173.653 102.405 165.434 106.273 156.992C107.269 154.871 108.331 152.731 109.607 150.536C110.239 149.453 110.947 148.341 111.7 147.258C112.452 146.176 113.264 145.172 114.097 144.194C117.318 140.464 121.049 137.202 125.18 134.505C132.994 129.276 141.017 126.013 148.727 122.706C156.471 119.488 164.031 116.374 171.207 112.684C178.321 109.128 185.008 104.782 191.141 99.7281C197.106 94.7902 202.196 88.8877 206.196 82.2674C210.108 75.6973 212.959 68.5313 213.791 61.5789C214.223 58.2554 214.158 54.8864 213.596 51.5822C213.08 48.6223 211.992 45.7904 210.392 43.2442C208.964 40.9939 207.086 39.0611 204.874 37.5667C202.663 36.0722 200.166 35.0482 197.54 34.5586C194.85 34.0297 192.095 33.9191 189.372 34.2308C186.475 34.5832 183.631 35.2801 180.9 36.3066C180.192 36.5698 179.485 36.8678 178.782 37.1707L176.29 38.2583C174.631 39.0082 172.986 39.7779 171.377 40.6023C168.147 42.246 164.998 44.0239 161.908 46.0004C155.699 49.9136 149.599 54.6562 142.811 59.7365C136.024 64.8167 128.469 70.0509 120.291 74.4906C112.122 78.8797 103.547 82.4736 94.686 85.2222C93.5946 85.5897 92.4983 85.8678 91.4019 86.1906L88.4517 87.0299C86.8221 87.5016 85.1826 88.0231 83.543 88.5892C80.2689 89.7314 77.0296 91.0375 73.885 92.4925C61.2968 98.3276 50.2784 106.551 42.4344 117.228C38.3845 122.668 35.036 128.592 32.4675 134.863C31.0922 138.143 29.9271 141.507 28.979 144.934C27.9599 148.487 27.1282 152.091 26.4873 155.73C25.8395 159.435 25.3461 163.229 25.0371 167.088C24.8727 168.905 24.763 171.274 24.6135 173.414C24.464 175.555 24.2398 177.77 23.9806 179.935C22.9625 188.491 21.3456 196.965 19.1417 205.296C17.0237 213.535 14.3675 221.506 11.6665 229.352C10.321 233.27 8.97044 237.168 7.76942 241.062C6.56841 244.955 5.51191 248.903 5.48201 252.682ZM2.28761 252.717C2.29777 250.549 2.51975 248.387 2.95041 246.261C3.31421 244.171 3.80757 242.139 4.281 240.118C5.24779 236.076 6.27438 232.093 7.13154 228.09C7.9887 224.088 8.73621 220.075 9.29436 216.058C9.85251 212.04 10.1565 208.003 10.3359 203.99C10.6207 196.014 10.1082 188.029 8.80598 180.153C8.50199 178.207 8.11827 176.275 7.73952 174.348C7.36078 172.421 6.89732 170.653 6.44382 168.389C5.53312 163.996 4.86764 159.556 4.45044 155.09C3.54291 145.806 3.97421 136.441 5.73119 127.28C7.59956 117.706 11.1004 108.521 16.0818 100.125C21.1722 91.6882 27.5474 84.0905 34.9791 77.6043C42.2694 71.2533 50.3838 65.9082 59.1041 61.7129C63.3992 59.6189 67.8216 57.7945 72.3452 56.2503C74.6076 55.4657 76.905 54.7605 79.2522 54.1348L84.9334 52.6102C91.9123 50.7015 98.7173 48.2096 105.276 45.1611C111.834 42.1815 118.138 38.3924 124.926 34.0769C131.713 29.7614 139.004 24.8847 147.107 20.5841C151.175 18.4039 155.355 16.4379 159.631 14.6944C161.778 13.8204 163.946 13.0208 166.109 12.261L169.393 11.1784C170.639 10.801 171.885 10.4435 173.161 10.1306C178.35 8.81535 183.701 8.24018 189.053 8.42227C194.612 8.59805 200.098 9.7374 205.264 11.7893C210.54 13.9004 215.333 17.0543 219.352 21.0609C223.319 25.0031 226.396 29.7437 228.377 34.9658C230.24 39.9119 231.153 45.1628 231.068 50.445C231.01 55.3622 230.236 60.245 228.771 64.9409C225.896 74.0337 221.296 81.8751 215.944 88.8872C213.268 92.3925 210.354 95.711 207.223 98.8193C204.114 101.873 200.829 104.743 197.385 107.415C183.666 118.058 168.082 125.06 153.999 133.239C146.982 137.291 140.28 141.731 135.212 146.841C132.824 149.236 130.8 151.964 129.201 154.941C128.843 155.636 128.51 156.336 128.205 157.041C127.916 157.732 127.647 158.432 127.383 159.197C126.854 160.721 126.386 162.4 125.942 164.163C125.075 167.639 124.407 171.418 123.819 175.257C123.231 179.095 122.693 183.024 122.15 186.996L120.6 198.975C120.072 203.022 119.524 207.094 118.901 211.176C116.409 227.514 113.195 244.176 107.229 260.772C104.189 269.05 100.477 277.344 95.1993 285.294C93.8488 287.281 92.4435 289.223 90.8737 291.125C89.3074 293.083 87.6073 294.932 85.7856 296.657C83.9133 298.468 81.9004 300.128 79.7655 301.623C78.6749 302.393 77.5455 303.108 76.3818 303.763L74.5927 304.717C74.0146 305.01 73.5063 305.213 72.9631 305.481C68.6283 307.476 64.0904 309 59.428 310.025C54.6967 311.067 49.8393 311.424 45.0059 311.083C40.1964 310.734 35.4838 309.558 31.0771 307.607C28.9226 306.658 26.8606 305.512 24.9175 304.185C23.0052 302.906 21.2078 301.464 19.5453 299.875C12.9572 293.568 8.75117 285.677 6.12488 277.602C3.49859 269.527 2.4122 261.08 2.2627 252.717H2.28761Z" fill="#ECECEC"/>
<path opacity="0.4" d="M139.452 288.16C143.967 279.881 147.002 270.868 149.19 261.681C151.377 252.494 152.828 243.098 154.213 233.603C154.951 228.86 155.603 224.068 156.481 219.251C157.296 214.308 158.397 209.417 159.78 204.601C161.246 199.407 163.357 194.415 166.064 189.743C169.176 184.382 173.47 179.797 178.622 176.334C179.988 175.425 181.473 174.68 182.933 173.851C184.428 173.166 185.978 172.54 187.533 171.929C189.092 171.433 190.682 170.981 192.277 170.574C193.858 170.269 195.45 169.986 197.051 169.724C203.163 168.916 209.362 168.999 215.45 169.973C221.411 170.937 227.23 172.629 232.777 175.008C237.986 177.252 242.998 179.923 247.763 182.994C257.002 188.898 264.941 195.523 272.401 201.949L283.3 211.474C285.074 213.033 286.868 214.513 288.632 216.013L291.273 218.228L293.924 220.358C297.369 223.107 300.95 225.681 304.654 228.071C308.155 230.355 311.846 232.335 315.687 233.99C319.76 235.647 323.97 236.945 328.271 237.869C332.756 238.892 337.455 239.721 342.224 240.416C351.837 241.822 361.809 242.715 371.926 243.892L379.545 244.831C382.102 245.203 384.653 245.586 387.22 246.058C392.46 246.932 397.623 248.212 402.664 249.886C407.757 251.62 412.85 253.959 417.355 257.335C421.863 260.709 425.545 265.057 428.124 270.054C429.347 272.478 430.333 275.014 431.069 277.627L432.021 281.475C432.29 282.747 432.46 283.983 432.679 285.245C433.434 290.29 433.725 295.393 433.546 300.49C433.291 305.62 432.536 310.712 431.294 315.696C430.95 316.933 430.691 318.179 430.297 319.426L429.106 323.111C428.189 325.514 427.267 327.938 426.166 330.272C421.779 339.679 416.009 348.383 409.047 356.095C405.621 359.99 401.969 363.681 398.109 367.15C394.291 370.676 390.23 373.899 386.094 377.027C383.991 378.517 381.922 380.111 379.765 381.531L376.545 383.716L373.261 385.792C368.871 388.543 364.386 391.111 359.806 393.534C357.518 394.731 355.206 395.883 352.899 397.05C350.591 398.217 348.229 399.255 345.872 400.308C343.515 401.361 341.158 402.409 338.771 403.372C336.384 404.336 333.992 405.324 331.575 406.203L317.706 411.362C315.458 412.197 313.245 413.106 311.013 413.97L307.669 415.286L304.38 416.651C286.669 423.887 269.8 432.314 253.225 441.571C244.907 446.249 236.669 451.091 227.719 456.042C223.274 458.525 218.535 460.949 213.372 463.253C207.893 465.713 202.193 467.654 196.348 469.048C190.082 470.501 183.653 471.145 177.222 470.965C171.096 470.778 165.007 469.945 159.057 468.482C156.157 467.856 153.466 466.992 150.725 466.212C149.374 465.795 148.078 465.329 146.738 464.887C145.397 464.445 144.117 464.008 142.751 463.441L138.754 461.842L136.761 461.018L134.768 460.055C132.076 458.816 129.459 457.423 126.929 455.883C125.648 455.108 124.367 454.334 123.106 453.529L119.429 450.823L117.61 449.427C117.007 448.96 116.448 448.434 115.87 447.908L112.462 444.809C111.375 443.716 110.364 442.524 109.327 441.382L107.802 439.649C107.304 439.053 106.87 438.413 106.407 437.797C105.5 436.545 104.588 435.314 103.716 434.042C102.923 432.721 102.171 431.386 101.428 430.07C98.6126 424.681 96.4448 419.02 95.4481 413.349L95.0095 411.238C94.8999 410.533 94.8301 409.828 94.7404 409.128C94.576 407.722 94.3866 406.327 94.272 404.931C94.2122 402.165 94.0079 399.394 94.2172 396.708C94.3567 391.285 95.2836 386.1 96.2803 381.035C97.3898 376.073 98.7825 371.179 100.451 366.375C103.738 357.068 107.603 347.975 112.023 339.146C113.119 336.971 114.151 334.771 115.302 332.631C116.453 330.49 117.475 328.295 118.636 326.175C119.797 324.054 120.914 321.909 122.055 319.784L125.503 313.422L139.452 288.16ZM142.283 289.6C137.728 298.007 133.487 306.574 129.729 315.319L128.324 318.602L126.998 321.909C126.091 324.104 125.299 326.349 124.507 328.573C122.857 333.043 121.427 337.512 120.111 342.056C117.485 350.996 115.674 360.155 114.699 369.419C114.234 373.901 114.034 378.407 114.101 382.912C114.281 387.322 114.57 391.672 115.427 395.774C115.721 397.86 116.369 399.806 116.837 401.778L117.804 404.609C117.968 405.075 118.108 405.552 118.302 406.009L118.9 407.34C120.347 410.784 122.264 414.012 124.596 416.934C125.189 417.625 125.772 418.315 126.316 419.02L128.234 420.932C128.553 421.245 128.842 421.583 129.181 421.881L130.253 422.74C130.97 423.306 131.628 423.912 132.361 424.458L134.648 426.032C135.037 426.29 135.381 426.578 135.794 426.817L137.04 427.522L139.487 428.957L142.143 430.224C145.819 431.954 149.616 433.414 153.505 434.594C154.457 434.941 155.534 435.219 156.595 435.512C157.657 435.805 158.718 436.113 159.765 436.372C161.838 436.823 163.926 437.365 165.924 437.692C169.699 438.432 173.539 438.796 177.386 438.78C180.901 438.729 184.398 438.261 187.802 437.385C194.689 435.641 202.368 431.922 210.726 427.452C214.882 425.262 219.138 422.923 223.493 420.555C227.849 418.186 232.314 415.892 236.799 413.602C254.983 404.357 273.801 396.407 293.112 389.81L296.72 388.553L300.348 387.371C302.77 386.592 305.177 385.767 307.609 385.023L321.822 380.712C326.342 379.326 330.822 377.842 335.277 376.327L341.865 373.943C344.053 373.109 346.251 372.285 348.429 371.425C352.744 369.648 357.09 367.895 361.286 365.898L364.455 364.438L367.575 362.899C369.678 361.906 371.672 360.768 373.73 359.691C381.788 355.221 389.547 350.255 396.464 344.405C399.909 341.504 403.147 338.366 406.152 335.014C409.142 331.724 411.811 328.159 414.126 324.367C418.824 316.868 421.799 308.426 422.837 299.646C423.301 295.229 423.279 290.775 422.772 286.362C422.617 285.265 422.508 284.127 422.323 283.055L421.661 279.911C421.108 277.887 420.363 275.92 419.438 274.036C417.605 270.3 414.864 267.079 411.464 264.665C407.849 262.155 403.814 260.306 399.549 259.203C395.03 258.023 390.416 257.24 385.76 256.864C381.016 256.476 376.182 256.337 371.308 256.367C361.53 256.422 351.573 257.028 341.302 257.236C336.154 257.316 330.912 257.271 325.535 256.923C319.944 256.612 314.39 255.824 308.935 254.569C297.323 251.734 287.321 246.549 278.261 240.799C260.271 229.203 246.113 215.323 231.721 205.157C224.555 200.072 217.463 196.02 210.167 193.79C206.496 192.673 202.699 192.017 198.865 191.838C195.267 191.689 192.013 192.022 188.958 193.199C185.603 194.524 182.591 196.586 180.147 199.233C177.257 202.352 174.781 205.828 172.781 209.577C170.584 213.61 168.621 217.765 166.901 222.022C165.192 226.377 163.562 230.842 162.077 235.366C159.032 244.399 156.366 253.636 153.316 262.768C150.266 271.901 146.877 281.004 142.283 289.6Z" fill="#ECECEC"/>
<path opacity="0.4" d="M435.759 72.3452C434.419 75.1964 432.888 77.9539 431.174 80.5988C430.382 81.88 429.549 83.0818 428.722 84.2836C427.895 85.4854 427.018 86.6226 426.146 87.735C424.426 90.0045 422.612 92.1001 420.794 94.1908C413.498 102.41 405.549 109.471 397.75 116.464L394.999 118.947L393.778 120.054L392.627 121.261C391.84 122.05 391.132 122.969 390.384 123.838C389.637 124.707 388.984 125.7 388.301 126.684C387.619 127.667 386.966 128.67 386.343 129.718C385.72 130.766 385.102 131.809 384.514 132.901C383.368 135.081 382.212 137.326 381.2 139.64C376.974 148.907 373.799 158.874 368.851 168.85C366.279 173.816 363.225 178.872 358.764 183.252C356.512 185.505 354.003 187.488 351.289 189.162C349.91 190.001 348.486 190.763 347.023 191.446C346.286 191.784 345.528 192.141 344.811 192.439L342.548 193.273C339.55 194.31 336.467 195.086 333.334 195.593C331.759 195.871 330.05 195.955 328.385 196.089C326.721 196.223 325.086 196.089 323.402 196.089C321.717 196.089 320.167 195.811 318.523 195.627C317.724 195.534 316.931 195.399 316.146 195.225L313.779 194.729L312.598 194.475L311.461 194.148L309.189 193.467C307.684 193.034 306.207 192.513 304.764 191.908C299.114 189.659 293.773 186.707 288.866 183.123C284.139 179.631 279.78 175.671 275.854 171.304C272.024 166.985 268.645 162.29 265.768 157.289C265.06 156.038 264.378 154.777 263.71 153.52C263.042 152.264 262.474 150.923 261.871 149.632C261.268 148.341 260.71 147.015 260.196 145.684C259.683 144.353 259.145 143.037 258.701 141.666C256.868 136.29 255.475 130.774 254.535 125.174C253.574 119.672 253.06 114.102 253 108.518C252.899 103.065 253.311 97.6152 254.231 92.2392C255.15 86.9331 256.844 81.7899 259.26 76.9735C261.802 72.0759 265.443 67.8277 269.899 64.5584C274.354 61.251 279.433 58.8127 284.63 56.8263C295.096 52.913 306.089 50.4648 316.933 48.7912C322.375 47.9569 327.782 47.4106 333.139 47.073C333.656 47.046 334.169 46.9763 334.674 46.8644L335.925 46.6508C336.772 46.3926 337.58 46.3231 338.417 46.0152L339.653 45.6725C340.071 45.5236 340.485 45.3547 340.909 45.2355C341.736 45.0071 342.603 44.58 343.445 44.3069C347.286 42.7502 351.024 40.9539 354.638 38.9286L360.952 35.3978L364.326 33.5057L367.909 31.5789C370.321 30.2579 373.012 29.0015 375.783 27.7451C378.786 26.4398 381.869 25.3236 385.012 24.4029C388.572 23.363 392.232 22.6972 395.931 22.4165C399.957 22.1112 404.006 22.3551 407.966 23.1416L409.461 23.4246L410.956 23.8219C411.953 24.095 412.92 24.3533 413.876 24.6711C415.738 25.3168 417.556 26.0815 419.318 26.9605L421.885 28.2864L424.237 29.7414C425.757 30.6991 427.223 31.7403 428.628 32.8601C429.006 33.1382 429.295 33.3567 429.719 33.6994C430.272 34.1563 430.8 34.633 431.324 35.1197C432.415 36.1229 433.415 37.2196 434.314 38.3973C434.543 38.6853 434.777 38.9882 435.001 39.2961L435.649 40.2893C436.073 40.9548 436.466 41.6202 436.86 42.2758C437.564 43.6513 438.163 45.0772 438.654 46.5416C438.864 47.2567 439.063 47.9718 439.242 48.6869C439.332 49.0544 439.427 49.4169 439.491 49.7646L439.651 50.7975C439.751 51.4778 439.83 52.1632 439.9 52.8584C439.97 53.5537 439.96 54.1396 439.98 54.7902C440 55.4408 439.98 56.0665 439.98 56.6823L439.83 58.4204C439.766 58.9915 439.721 59.6023 439.626 60.1287L439.342 61.698C438.571 65.3749 437.368 68.9485 435.759 72.3452V72.3452Z" fill="#ECECEC"/>
<path opacity="0.4" d="M84.7189 352.838C85.2442 355.871 85.4629 358.948 85.3717 362.025C85.282 367.91 83.9564 373.298 82.4963 378.547C81.0489 383.782 79.2013 388.898 76.9696 393.852C74.696 398.824 71.8262 403.503 68.423 407.787C64.8818 412.248 60.759 416.218 56.1637 419.591C51.0155 423.192 45.0935 425.542 38.871 426.454C35.571 426.945 32.2216 427.013 28.9041 426.658C25.7009 426.304 22.5703 425.467 19.6199 424.175C17.0035 423.003 14.5551 421.49 12.3391 419.676C10.3587 418.038 8.47979 416.281 6.71275 414.417C5.78967 413.419 4.96059 412.338 4.23597 411.189C3.55451 409.998 2.97119 408.754 2.49176 407.469C1.59928 404.821 0.979795 402.088 0.642896 399.315C-0.151296 393.552 -0.216592 387.713 0.448541 381.934C1.07873 376.381 2.88979 371.026 5.76091 366.226C8.55879 361.683 12.2428 357.745 16.595 354.645C20.9156 351.507 25.9938 349.257 30.9623 347.196C35.9308 345.135 40.8943 343.323 45.5339 341.138C50.2583 339.027 54.6636 336.524 60.3149 334.776C61.8254 334.302 63.377 333.97 64.9495 333.783C66.7807 333.537 68.6385 333.566 70.4612 333.867C72.9097 334.348 75.1905 335.455 77.0793 337.08C77.5491 337.492 77.9966 337.928 78.4198 338.386C78.8135 338.833 79.2072 339.29 79.581 339.767C80.2343 340.648 80.8222 341.576 81.3401 342.543C81.8156 343.431 82.2415 344.344 82.6159 345.279C82.9348 346.128 83.2936 347.062 83.5179 347.881L83.8917 349.163L84.2006 350.404C84.4149 351.238 84.5495 352.023 84.7189 352.838Z" fill="#ECECEC"/>
</g>
<g opacity="0.4">
<path opacity="0.4" d="M385.347 174.805C410.369 155.437 435.555 159.197 435.555 159.197C435.555 159.197 435.67 184.558 412.83 206.444C393.564 224.907 375.26 223.859 368.976 216.599C362.692 209.339 364.227 191.133 385.347 174.805Z" fill="#ECECEC"/>
<path opacity="0.4" d="M382.561 187.319C398.423 175.038 414.38 177.432 414.38 177.432C414.38 177.432 414.455 193.507 399.973 207.382C387.759 219.092 376.152 218.427 372.155 213.838C368.159 209.249 369.175 197.674 382.561 187.319Z" fill="white"/>
</g>
<path d="M394.042 193.949L392.148 192.459C391.889 192.252 391.723 191.95 391.686 191.62C391.65 191.291 391.746 190.96 391.954 190.701V190.701C392.057 190.572 392.183 190.465 392.328 190.385C392.472 190.305 392.631 190.254 392.795 190.236C392.959 190.217 393.125 190.231 393.283 190.277C393.442 190.323 393.59 190.4 393.718 190.503L395.612 191.992C395.741 192.095 395.849 192.222 395.928 192.365C396.008 192.509 396.058 192.668 396.076 192.831C396.094 192.994 396.08 193.16 396.033 193.318C395.987 193.475 395.91 193.622 395.806 193.75V193.75C395.704 193.879 395.577 193.987 395.433 194.067C395.288 194.147 395.13 194.197 394.966 194.216C394.802 194.234 394.636 194.22 394.477 194.174C394.319 194.129 394.171 194.052 394.042 193.949V193.949Z" fill="#ECECEC"/>
<path d="M372.688 213.361L371.368 211.34C371.278 211.202 371.216 211.048 371.185 210.886C371.155 210.724 371.157 210.558 371.191 210.397C371.226 210.236 371.291 210.084 371.385 209.948C371.478 209.812 371.598 209.696 371.737 209.607V209.607C371.874 209.517 372.029 209.456 372.191 209.425C372.353 209.395 372.519 209.397 372.68 209.432C372.841 209.466 372.994 209.531 373.13 209.624C373.265 209.718 373.381 209.836 373.471 209.974L374.796 211.996C374.977 212.274 375.04 212.613 374.971 212.938C374.902 213.263 374.706 213.547 374.428 213.729C374.289 213.819 374.134 213.88 373.972 213.91C373.81 213.941 373.643 213.939 373.481 213.904C373.32 213.87 373.167 213.805 373.031 213.712C372.895 213.618 372.778 213.499 372.688 213.361V213.361Z" fill="#ECECEC"/>
<path d="M385.157 190.095L383.856 190.056C383.523 190.044 383.209 189.902 382.981 189.66C382.753 189.418 382.631 189.096 382.64 188.764V188.764C382.645 188.6 382.682 188.439 382.749 188.289C382.816 188.139 382.913 188.004 383.033 187.891C383.153 187.779 383.294 187.691 383.448 187.633C383.602 187.575 383.766 187.547 383.931 187.553L385.237 187.592C385.401 187.597 385.564 187.634 385.714 187.701C385.864 187.768 386 187.864 386.113 187.984C386.226 188.103 386.314 188.244 386.372 188.397C386.431 188.551 386.458 188.714 386.453 188.879V188.879C386.442 189.211 386.3 189.526 386.057 189.754C385.814 189.982 385.491 190.105 385.157 190.095V190.095Z" fill="#ECECEC"/>
<path d="M397.212 205.788L397.252 204.492C397.257 204.328 397.295 204.166 397.363 204.016C397.431 203.866 397.528 203.731 397.648 203.618C397.768 203.506 397.91 203.418 398.064 203.36C398.219 203.302 398.383 203.275 398.548 203.28V203.28C398.713 203.285 398.875 203.322 399.025 203.389C399.176 203.456 399.311 203.552 399.424 203.671C399.537 203.791 399.625 203.932 399.684 204.085C399.742 204.239 399.769 204.402 399.764 204.566L399.724 205.863C399.714 206.195 399.571 206.51 399.329 206.738C399.086 206.966 398.762 207.089 398.428 207.079V207.079C398.096 207.068 397.781 206.925 397.553 206.683C397.326 206.441 397.203 206.12 397.212 205.788V205.788Z" fill="#ECECEC"/>
<path d="M369.464 206.171L369.32 204.879C369.301 204.716 369.315 204.551 369.36 204.393C369.406 204.236 369.482 204.088 369.585 203.96C369.688 203.832 369.815 203.725 369.959 203.646C370.104 203.567 370.262 203.517 370.426 203.499C370.59 203.48 370.755 203.494 370.914 203.539C371.072 203.585 371.22 203.661 371.349 203.763C371.477 203.866 371.584 203.992 371.664 204.136C371.743 204.28 371.793 204.438 371.811 204.601L371.956 205.892C371.975 206.056 371.961 206.221 371.915 206.378C371.87 206.536 371.793 206.683 371.691 206.812C371.588 206.94 371.461 207.047 371.316 207.126C371.172 207.205 371.013 207.255 370.85 207.273V207.273C370.686 207.292 370.52 207.278 370.362 207.232C370.203 207.187 370.056 207.111 369.927 207.009C369.798 206.906 369.691 206.779 369.612 206.636C369.532 206.492 369.482 206.334 369.464 206.171V206.171Z" fill="#ECECEC"/>
<path d="M390.589 217.478L389.378 217.95C389.224 218.01 389.06 218.039 388.895 218.036C388.73 218.033 388.567 217.998 388.415 217.932C388.264 217.866 388.127 217.771 388.013 217.652C387.898 217.533 387.808 217.393 387.748 217.24V217.24C387.628 216.931 387.635 216.587 387.769 216.283C387.902 215.98 388.151 215.742 388.461 215.621L389.672 215.124C389.983 215.004 390.329 215.011 390.634 215.144C390.939 215.277 391.179 215.525 391.302 215.834V215.834C391.365 215.989 391.397 216.154 391.396 216.321C391.394 216.488 391.359 216.653 391.293 216.806C391.226 216.959 391.13 217.097 391.009 217.213C390.888 217.328 390.745 217.418 390.589 217.478V217.478Z" fill="#ECECEC"/>
<path d="M386.226 217.596C394.178 216.711 399.904 209.57 399.016 201.647C398.129 193.723 390.963 188.017 383.012 188.901C375.06 189.786 369.334 196.926 370.222 204.85C371.109 212.774 378.275 218.48 386.226 217.596Z" fill="#ECECEC"/>
<path d="M378.414 195.354C378.455 196.048 378.719 196.709 379.167 197.242C379.619 197.79 380.214 198.206 380.886 198.443C381.578 198.697 382.342 198.676 383.019 198.384C383.669 198.105 384.199 197.605 384.514 196.973C384.043 197.407 383.481 197.731 382.869 197.922C382.584 198.008 382.285 198.043 381.987 198.026C381.689 198.011 381.395 197.951 381.115 197.847C380.976 197.798 380.831 197.738 380.691 197.679C380.552 197.619 380.412 197.545 380.288 197.46C380.021 197.304 379.772 197.119 379.545 196.909C379.071 196.469 378.687 195.941 378.414 195.354V195.354Z" fill="#C8C8C8"/>
<path d="M383.682 195.598C383.693 195.113 383.533 194.64 383.228 194.262C382.92 193.866 382.505 193.567 382.032 193.398C381.545 193.224 381.009 193.245 380.537 193.457C380.092 193.667 379.744 194.038 379.565 194.495C379.905 194.229 380.295 194.033 380.712 193.919C381.088 193.835 381.481 193.86 381.843 193.994C382.633 194.286 383.287 194.857 383.682 195.598V195.598Z" fill="#C8C8C8"/>
<path d="M389.672 204.909C389.545 205.365 389.586 205.851 389.787 206.28C389.991 206.725 390.326 207.097 390.749 207.348C390.963 207.48 391.201 207.57 391.45 207.61C391.699 207.65 391.954 207.64 392.199 207.581C392.661 207.463 393.063 207.18 393.33 206.786C392.948 206.959 392.538 207.063 392.119 207.094C391.747 207.11 391.378 207.013 391.062 206.816C390.727 206.619 390.434 206.357 390.2 206.046C389.958 205.702 389.779 205.317 389.672 204.909Z" fill="#C8C8C8"/>
<path d="M392.836 206.205C392.903 206.048 392.938 205.879 392.938 205.709C392.938 205.538 392.903 205.369 392.836 205.212C392.702 204.888 392.466 204.616 392.164 204.437C392.006 204.341 391.831 204.279 391.648 204.254C391.465 204.23 391.279 204.243 391.102 204.293C390.94 204.34 390.79 204.419 390.659 204.526C390.529 204.633 390.422 204.765 390.345 204.914C390.616 204.828 390.898 204.783 391.182 204.78C391.413 204.788 391.638 204.857 391.835 204.979C392.296 205.265 392.649 205.697 392.836 206.205V206.205Z" fill="#C8C8C8"/>
<path d="M394.477 201.125C394.362 201.261 394.277 201.42 394.228 201.591C394.179 201.763 394.167 201.942 394.193 202.118C394.206 202.305 394.257 202.487 394.343 202.653C394.428 202.819 394.547 202.967 394.691 203.087C394.842 203.208 395.019 203.293 395.208 203.335C395.397 203.377 395.594 203.375 395.782 203.33C396.121 203.257 396.424 203.069 396.639 202.799C396.341 202.84 396.039 202.854 395.737 202.838C395.5 202.828 395.272 202.744 395.085 202.6C394.895 202.442 394.746 202.241 394.651 202.014C394.54 201.73 394.481 201.429 394.477 201.125V201.125Z" fill="#C8C8C8"/>
<path d="M396.415 202.332C396.511 202.249 396.587 202.144 396.637 202.027C396.686 201.91 396.707 201.783 396.699 201.656C396.691 201.517 396.655 201.381 396.591 201.257C396.528 201.133 396.439 201.024 396.33 200.936C396.218 200.845 396.085 200.783 395.944 200.754C395.802 200.726 395.656 200.732 395.518 200.772C395.396 200.803 395.283 200.859 395.183 200.935C395.084 201.011 395.001 201.106 394.939 201.214C395.148 201.215 395.356 201.232 395.562 201.264C395.699 201.285 395.828 201.341 395.936 201.428C396.051 201.519 396.145 201.632 396.215 201.76C396.31 201.94 396.377 202.132 396.415 202.332V202.332Z" fill="#C8C8C8"/>
<path d="M374.258 199.094C374.26 199.268 374.297 199.441 374.368 199.601C374.439 199.76 374.543 199.904 374.671 200.022C374.81 200.151 374.973 200.251 375.151 200.316C375.329 200.381 375.519 200.409 375.708 200.4C375.905 200.393 376.098 200.339 376.271 200.245C376.444 200.15 376.593 200.016 376.705 199.854C376.908 199.575 377.009 199.234 376.989 198.89C376.793 199.119 376.576 199.328 376.341 199.516C376.16 199.668 375.934 199.757 375.698 199.769C375.452 199.78 375.207 199.729 374.985 199.62C374.713 199.489 374.467 199.311 374.258 199.094V199.094Z" fill="#C8C8C8"/>
<path d="M376.51 198.702C376.528 198.576 376.515 198.447 376.475 198.327C376.434 198.206 376.366 198.097 376.276 198.006C376.178 197.907 376.059 197.83 375.929 197.779C375.798 197.729 375.659 197.706 375.519 197.713C375.374 197.721 375.234 197.762 375.109 197.835C374.984 197.907 374.878 198.009 374.801 198.131C374.663 198.34 374.613 198.595 374.662 198.841C374.82 198.707 374.987 198.583 375.16 198.468C375.274 198.393 375.407 198.351 375.544 198.344C375.691 198.337 375.838 198.359 375.977 198.409C376.168 198.481 376.347 198.58 376.51 198.702V198.702Z" fill="#C8C8C8"/>
<path d="M383.437 207.938C382.891 208.262 382.261 208.417 381.626 208.383C380.992 208.349 380.382 208.129 379.873 207.749C379.365 207.369 378.981 206.848 378.77 206.251C378.559 205.653 378.531 205.007 378.689 204.394C378.847 203.781 379.184 203.228 379.658 202.806C380.131 202.384 380.72 202.111 381.349 202.023C381.978 201.934 382.62 202.034 383.192 202.309C383.764 202.584 384.242 203.022 384.564 203.568C384.778 203.929 384.919 204.328 384.978 204.743C385.038 205.158 385.014 205.58 384.91 205.986C384.805 206.392 384.621 206.773 384.369 207.108C384.116 207.443 383.8 207.725 383.437 207.938V207.938Z" fill="#DCDCDC"/>
<path d="M380.149 203.856C379.755 204.086 379.421 204.405 379.176 204.789C378.931 205.172 378.781 205.608 378.739 206.061C378.593 205.547 378.58 205.004 378.701 204.483C378.821 203.963 379.071 203.481 379.428 203.082C379.785 202.683 380.237 202.379 380.742 202.2C381.247 202.021 381.789 201.971 382.319 202.056C382.848 202.14 383.348 202.356 383.772 202.684C384.195 203.011 384.529 203.44 384.743 203.93C384.957 204.42 385.043 204.956 384.995 205.488C384.946 206.02 384.764 206.531 384.465 206.975C384.582 206.425 384.538 205.852 384.335 205.327C384.133 204.802 383.782 204.346 383.325 204.016C382.868 203.686 382.325 203.495 381.761 203.467C381.197 203.438 380.637 203.574 380.149 203.856V203.856Z" fill="#C8C8C8"/>
<path d="M377.468 206.205C377.55 207.051 377.889 207.851 378.44 208.5C378.999 209.163 379.727 209.666 380.548 209.955C381.387 210.262 382.313 210.243 383.139 209.9C383.925 209.559 384.571 208.962 384.973 208.207C384.413 208.765 383.73 209.186 382.979 209.438C382.8 209.49 382.616 209.53 382.431 209.557C382.244 209.575 382.055 209.575 381.868 209.557C381.493 209.543 381.123 209.469 380.772 209.339C380.597 209.274 380.413 209.2 380.239 209.125C380.064 209.051 379.895 208.956 379.74 208.847C379.409 208.648 379.102 208.414 378.823 208.147C378.244 207.598 377.783 206.938 377.468 206.205Z" fill="#C8C8C8"/>
<path d="M374.119 207.804C373.896 207.883 373.654 207.894 373.425 207.836C373.195 207.778 372.988 207.654 372.83 207.479C372.672 207.304 372.569 207.086 372.535 206.852C372.501 206.619 372.537 206.381 372.639 206.168C372.741 205.955 372.904 205.777 373.107 205.657C373.311 205.536 373.546 205.478 373.782 205.491C374.018 205.503 374.245 205.586 374.435 205.727C374.624 205.868 374.768 206.062 374.846 206.285C374.899 206.432 374.922 206.588 374.914 206.745C374.906 206.901 374.867 207.054 374.8 207.195C374.732 207.336 374.637 207.463 374.52 207.567C374.403 207.672 374.267 207.752 374.119 207.804V207.804Z" fill="#DCDCDC"/>
<path d="M373.212 206.091C373.051 206.147 372.905 206.24 372.787 206.362C372.67 206.485 372.583 206.634 372.534 206.796C372.518 206.598 372.553 206.399 372.635 206.218C372.717 206.037 372.844 205.879 373.003 205.759C373.162 205.639 373.349 205.561 373.546 205.531C373.744 205.502 373.945 205.523 374.132 205.591C374.32 205.66 374.487 205.774 374.618 205.924C374.749 206.074 374.841 206.254 374.884 206.448C374.927 206.642 374.921 206.844 374.866 207.035C374.81 207.226 374.708 207.4 374.567 207.541C374.65 207.348 374.676 207.135 374.64 206.928C374.603 206.721 374.508 206.529 374.364 206.376C374.22 206.222 374.035 206.113 373.83 206.063C373.626 206.012 373.411 206.022 373.212 206.091V206.091Z" fill="#C8C8C8"/>
<path d="M372.061 206.747C372.014 207.064 372.072 207.388 372.225 207.67C372.38 207.961 372.613 208.204 372.898 208.371C373.045 208.462 373.209 208.523 373.38 208.551C373.551 208.578 373.726 208.571 373.894 208.529C374.21 208.464 374.491 208.288 374.687 208.033C374.433 208.184 374.149 208.279 373.855 208.311C373.582 208.326 373.312 208.26 373.077 208.122C372.823 207.974 372.602 207.775 372.427 207.539C372.252 207.302 372.128 207.033 372.061 206.747V206.747Z" fill="#C8C8C8"/>
<path d="M383.153 214.568C382.822 214.624 382.481 214.582 382.174 214.445C381.866 214.308 381.607 214.083 381.428 213.799C381.249 213.515 381.159 213.185 381.169 212.85C381.178 212.515 381.288 212.19 381.483 211.917C381.678 211.644 381.95 211.434 382.265 211.315C382.579 211.197 382.922 211.173 383.25 211.249C383.578 211.324 383.876 211.495 384.106 211.739C384.336 211.984 384.489 212.291 384.544 212.621C384.581 212.84 384.574 213.064 384.525 213.28C384.475 213.497 384.383 213.701 384.253 213.882C384.124 214.063 383.961 214.216 383.772 214.334C383.583 214.452 383.373 214.531 383.153 214.568V214.568Z" fill="#DCDCDC"/>
<path d="M382.307 211.926C382.068 211.966 381.842 212.062 381.647 212.205C381.452 212.348 381.294 212.535 381.186 212.751C381.211 212.468 381.308 212.197 381.467 211.961C381.625 211.726 381.841 211.534 382.094 211.404C382.346 211.274 382.628 211.209 382.913 211.215C383.197 211.222 383.475 211.3 383.722 211.442C383.968 211.584 384.174 211.785 384.322 212.028C384.469 212.27 384.553 212.546 384.566 212.829C384.578 213.113 384.519 213.395 384.393 213.649C384.267 213.903 384.08 214.122 383.847 214.285C384.01 214.035 384.096 213.744 384.096 213.446C384.096 213.148 384.009 212.857 383.846 212.607C383.683 212.357 383.451 212.16 383.178 212.039C382.904 211.918 382.602 211.879 382.307 211.926V211.926Z" fill="#C8C8C8"/>
<path d="M380.527 212.587C380.414 213.019 380.433 213.476 380.582 213.898C380.732 214.331 380.995 214.717 381.345 215.015C381.7 215.324 382.159 215.489 382.63 215.477C383.085 215.453 383.518 215.278 383.861 214.98C383.477 215.154 383.057 215.234 382.635 215.214C382.232 215.186 381.85 215.025 381.549 214.757C381.237 214.492 380.986 214.163 380.811 213.793C380.633 213.415 380.536 213.004 380.527 212.587V212.587Z" fill="#C8C8C8"/>
<path d="M388.854 197.475C389.746 198.547 391.461 198.607 392.677 197.604C393.893 196.601 394.172 194.912 393.27 193.835C392.368 192.757 390.668 192.702 389.447 193.711C388.227 194.719 387.962 196.397 388.854 197.475Z" fill="#DCDCDC"/>
<path d="M392.816 194.992C393.049 195.284 393.204 195.629 393.267 195.996C393.329 196.364 393.298 196.741 393.175 197.093C393.561 196.641 393.781 196.073 393.798 195.48C393.815 194.888 393.629 194.307 393.27 193.835C392.378 192.762 390.669 192.703 389.448 193.706C389.039 194.027 388.724 194.452 388.535 194.936C388.347 195.419 388.292 195.945 388.376 196.457C388.505 195.833 388.847 195.274 389.343 194.873C389.824 194.438 390.455 194.207 391.104 194.229C391.753 194.251 392.367 194.525 392.816 194.992V194.992Z" fill="#C8C8C8"/>
<path d="M387.714 195.662C387.553 195.984 387.459 196.333 387.435 196.691C387.411 197.049 387.458 197.408 387.574 197.748C387.694 198.105 387.894 198.431 388.157 198.702C388.417 198.974 388.725 199.198 389.064 199.362C389.415 199.51 389.79 199.593 390.17 199.605C390.537 199.61 390.901 199.558 391.252 199.451C391.93 199.253 392.552 198.897 393.066 198.414C392.449 198.674 391.803 198.861 391.142 198.97C390.533 199.086 389.903 199.024 389.328 198.791C389.054 198.667 388.801 198.499 388.581 198.294C388.351 198.09 388.164 197.844 388.027 197.569C387.75 196.974 387.641 196.315 387.714 195.662Z" fill="#C8C8C8"/>
<path d="M365.542 337.478L371.408 338.555L372.718 344.713L374.029 338.555L379.889 337.473L374.054 336.052L372.718 330.232L371.383 336.052L365.542 337.478Z" fill="#C8C8C8"/>
<path d="M123.64 304.225L129.505 305.303L130.811 311.466L132.121 305.303L137.987 304.22L132.146 302.8L130.811 296.985L129.475 302.8L123.64 304.225Z" fill="#C8C8C8"/>
<path d="M305.656 238.385L311.522 239.468L312.832 245.626L314.143 239.468L320.004 238.38L314.168 236.96L312.832 231.145L311.497 236.96L305.656 238.385Z" fill="#C8C8C8"/>
<path d="M421.277 301.221L424.551 301.827L425.284 305.268L426.017 301.827L429.296 301.221L426.032 300.426L425.284 297.173L424.537 300.426L421.277 301.221Z" fill="#C8C8C8"/>
<path d="M172.603 432.205L175.877 432.811L176.609 436.252L177.342 432.811L180.621 432.205L177.357 431.41L176.609 428.158L175.862 431.41L172.603 432.205Z" fill="#C8C8C8"/>
<path d="M413.259 146.27L416.538 146.871L417.265 150.317L417.998 146.871L421.277 146.27L418.013 145.475L417.265 142.223L416.523 145.475L413.259 146.27Z" fill="#C8C8C8"/>
<path d="M26.7061 220.314L29.9852 220.915L30.7177 224.356L31.4503 220.915L34.7245 220.309L31.4653 219.514L30.7177 216.266L29.9702 219.514L26.7061 220.314Z" fill="#C8C8C8"/>
<path d="M44.2881 395.516L47.5672 396.122L48.2998 399.563L49.0323 396.122L52.3065 395.516L49.0473 394.721L48.2998 391.469L47.5523 394.721L44.2881 395.516Z" fill="#C8C8C8"/>
<path d="M400.61 233.464L403.889 234.07L404.622 237.511L405.355 234.07L408.634 233.464L405.37 232.669L404.622 229.417L403.875 232.669L400.61 233.464Z" fill="#C8C8C8"/>
<path d="M262.395 344.713L265.669 345.319L266.401 348.761L267.134 345.319L270.413 344.713L267.149 343.919L266.401 340.666L265.659 343.919L262.395 344.713Z" fill="#C8C8C8"/>
<path d="M143.146 68.2981L146.425 68.899L147.157 72.3454L147.89 68.899L151.164 68.2981L147.905 67.5035L147.157 64.2507L146.41 67.5035L143.146 68.2981Z" fill="#C8C8C8"/>
<path d="M271.43 332.209L274.709 332.815L275.441 336.256L276.174 332.815L279.448 332.209L276.189 331.414L275.441 328.161L274.694 331.414L271.43 332.209Z" fill="#C8C8C8"/>
<path d="M164.848 439.649C165.101 439.649 165.343 439.749 165.521 439.927C165.7 440.105 165.8 440.346 165.8 440.598C165.8 440.849 165.7 441.091 165.521 441.269C165.343 441.446 165.101 441.546 164.848 441.546C163.627 441.546 163.627 439.649 164.848 439.649Z" fill="#C8C8C8"/>
<path d="M334.296 262.118C334.536 262.135 334.76 262.242 334.924 262.418C335.088 262.593 335.179 262.824 335.179 263.064C335.179 263.304 335.088 263.534 334.924 263.71C334.76 263.885 334.536 263.993 334.296 264.01C334.056 263.993 333.832 263.885 333.668 263.71C333.504 263.534 333.413 263.304 333.413 263.064C333.413 262.824 333.504 262.593 333.668 262.418C333.832 262.242 334.056 262.135 334.296 262.118V262.118Z" fill="#C8C8C8"/>
<path d="M253.255 341.878C253.495 341.895 253.719 342.002 253.883 342.178C254.047 342.353 254.138 342.584 254.138 342.824C254.138 343.063 254.047 343.294 253.883 343.47C253.719 343.645 253.495 343.752 253.255 343.77C253.015 343.752 252.791 343.645 252.627 343.47C252.463 343.294 252.372 343.063 252.372 342.824C252.372 342.584 252.463 342.353 252.627 342.178C252.791 342.002 253.015 341.895 253.255 341.878V341.878Z" fill="#C8C8C8"/>
<path d="M112.362 432.543C113.583 432.543 113.588 434.44 112.362 434.44C111.136 434.44 111.131 432.543 112.362 432.543Z" fill="#C8C8C8"/>
<path d="M429.47 445.092C429.71 445.109 429.934 445.217 430.098 445.392C430.262 445.568 430.353 445.798 430.353 446.038C430.353 446.278 430.262 446.508 430.098 446.684C429.934 446.859 429.71 446.967 429.47 446.984C429.23 446.967 429.006 446.859 428.842 446.684C428.678 446.508 428.587 446.278 428.587 446.038C428.587 445.798 428.678 445.568 428.842 445.392C429.006 445.217 429.23 445.109 429.47 445.092V445.092Z" fill="#C8C8C8"/>
<path d="M379.496 274.518C380.716 274.518 380.721 276.415 379.496 276.415C378.27 276.415 378.27 274.518 379.496 274.518Z" fill="#C8C8C8"/>
<path d="M188.644 422.611C188.823 422.611 188.994 422.681 189.12 422.807C189.246 422.933 189.317 423.103 189.317 423.281C189.317 423.459 189.246 423.63 189.12 423.755C188.994 423.881 188.823 423.952 188.644 423.952C188.466 423.952 188.295 423.881 188.169 423.755C188.043 423.63 187.972 423.459 187.972 423.281C187.972 423.103 188.043 422.933 188.169 422.807C188.295 422.681 188.466 422.611 188.644 422.611Z" fill="#C8C8C8"/>
<path d="M54.454 74.9326C54.6324 74.9326 54.8036 75.0032 54.9297 75.129C55.0559 75.2547 55.1268 75.4252 55.1268 75.603C55.1268 75.7808 55.0559 75.9514 54.9297 76.0771C54.8036 76.2028 54.6324 76.2734 54.454 76.2734C54.2756 76.2734 54.1045 76.2028 53.9783 76.0771C53.8521 75.9514 53.7812 75.7808 53.7813 75.603C53.7812 75.4252 53.8521 75.2547 53.9783 75.129C54.1045 75.0032 54.2756 74.9326 54.454 74.9326V74.9326Z" fill="#C8C8C8"/>
<path d="M313.619 290.156C313.798 290.156 313.969 290.227 314.095 290.353C314.221 290.478 314.292 290.649 314.292 290.827C314.292 291.004 314.221 291.175 314.095 291.301C313.969 291.426 313.798 291.497 313.619 291.497C313.441 291.497 313.27 291.426 313.143 291.301C313.017 291.175 312.946 291.004 312.946 290.827C312.946 290.649 313.017 290.478 313.143 290.353C313.27 290.227 313.441 290.156 313.619 290.156Z" fill="#C8C8C8"/>
<path d="M281.157 348.09C281.336 348.09 281.507 348.161 281.633 348.286C281.759 348.412 281.83 348.583 281.83 348.76C281.83 348.938 281.759 349.109 281.633 349.235C281.507 349.36 281.336 349.431 281.157 349.431C280.979 349.431 280.808 349.36 280.681 349.235C280.555 349.109 280.484 348.938 280.484 348.76C280.484 348.583 280.555 348.412 280.681 348.286C280.808 348.161 280.979 348.09 281.157 348.09Z" fill="#C8C8C8"/>
<path d="M227.999 336.802C228.177 336.802 228.348 336.873 228.475 336.999C228.601 337.125 228.672 337.295 228.672 337.473C228.672 337.651 228.601 337.821 228.475 337.947C228.348 338.073 228.177 338.143 227.999 338.143C227.821 338.143 227.649 338.073 227.523 337.947C227.397 337.821 227.326 337.651 227.326 337.473C227.326 337.295 227.397 337.125 227.523 336.999C227.649 336.873 227.821 336.802 227.999 336.802Z" fill="#C8C8C8"/>
<path d="M290.84 277.99C293.188 277.99 293.193 281.62 290.84 281.62C288.488 281.62 288.493 277.99 290.84 277.99Z" fill="#C8C8C8"/>
<path d="M197.64 94.7074L203.5 95.785L204.811 101.943L206.122 95.785L211.987 94.7024L206.146 93.2821L204.811 87.4619L203.475 93.2821L197.64 94.7074Z" fill="#C8C8C8"/>
<path d="M219.98 41.3869L223.255 41.9928L223.987 45.4343L224.72 41.9928L227.999 41.3869L224.735 40.5924L223.987 37.3396L223.245 40.5924L219.98 41.3869Z" fill="#C8C8C8"/>
<path d="M21.3345 129.743C22.5554 129.743 22.5604 131.64 21.3345 131.64C20.1086 131.64 20.1086 129.743 21.3345 129.743Z" fill="#C8C8C8"/>
<path d="M36.2551 380.787C36.495 380.804 36.7194 380.911 36.8832 381.087C37.047 381.262 37.1381 381.493 37.1381 381.733C37.1381 381.972 37.047 382.203 36.8832 382.379C36.7194 382.554 36.495 382.661 36.2551 382.679C36.0152 382.661 35.7908 382.554 35.627 382.379C35.4631 382.203 35.3721 381.972 35.3721 381.733C35.3721 381.493 35.4631 381.262 35.627 381.087C35.7908 380.911 36.0152 380.804 36.2551 380.787V380.787Z" fill="#C8C8C8"/>
<path d="M10.5305 427.74C10.7704 427.758 10.9948 427.865 11.1586 428.041C11.3224 428.216 11.4135 428.447 11.4135 428.687C11.4135 428.926 11.3224 429.157 11.1586 429.333C10.9948 429.508 10.7704 429.615 10.5305 429.633C10.2906 429.615 10.0662 429.508 9.90234 429.333C9.73852 429.157 9.64746 428.926 9.64746 428.687C9.64746 428.447 9.73852 428.216 9.90234 428.041C10.0662 427.865 10.2906 427.758 10.5305 427.74Z" fill="#C8C8C8"/>
<path d="M59.174 209.095C59.4139 209.113 59.6384 209.22 59.8022 209.395C59.966 209.571 60.057 209.802 60.057 210.041C60.057 210.281 59.966 210.512 59.8022 210.687C59.6384 210.863 59.4139 210.97 59.174 210.987C58.9341 210.97 58.7097 210.863 58.5459 210.687C58.3821 210.512 58.291 210.281 58.291 210.041C58.291 209.802 58.3821 209.571 58.5459 209.395C58.7097 209.22 58.9341 209.113 59.174 209.095Z" fill="#C8C8C8"/>
<path d="M10.5305 45.6875C10.7704 45.7048 10.9948 45.812 11.1586 45.9875C11.3224 46.163 11.4135 46.3938 11.4135 46.6335C11.4135 46.8732 11.3224 47.104 11.1586 47.2795C10.9948 47.455 10.7704 47.5622 10.5305 47.5796C10.2906 47.5622 10.0662 47.455 9.90234 47.2795C9.73852 47.104 9.64746 46.8732 9.64746 46.6335C9.64746 46.3938 9.73852 46.163 9.90234 45.9875C10.0662 45.812 10.2906 45.7048 10.5305 45.6875V45.6875Z" fill="#C8C8C8"/>
<path d="M96.7636 335.66C96.942 335.66 97.1131 335.731 97.2393 335.857C97.3655 335.982 97.4364 336.153 97.4364 336.331C97.4364 336.508 97.3655 336.679 97.2393 336.805C97.1131 336.93 96.942 337.001 96.7636 337.001C96.5852 337.001 96.414 336.93 96.2879 336.805C96.1617 336.679 96.0908 336.508 96.0908 336.331C96.0908 336.153 96.1617 335.982 96.2879 335.857C96.414 335.731 96.5852 335.66 96.7636 335.66V335.66Z" fill="#C8C8C8"/>
<path d="M238.509 421.493C238.687 421.493 238.858 421.564 238.984 421.69C239.111 421.815 239.181 421.986 239.181 422.164C239.181 422.341 239.111 422.512 238.984 422.638C238.858 422.763 238.687 422.834 238.509 422.834C238.33 422.834 238.159 422.763 238.033 422.638C237.907 422.512 237.836 422.341 237.836 422.164C237.836 421.986 237.907 421.815 238.033 421.69C238.159 421.564 238.33 421.493 238.509 421.493Z" fill="#C8C8C8"/>
<path d="M338.303 115.138C338.481 115.138 338.652 115.208 338.778 115.334C338.905 115.46 338.976 115.63 338.976 115.808C338.976 115.986 338.905 116.156 338.778 116.282C338.652 116.408 338.481 116.479 338.303 116.479C338.124 116.479 337.953 116.408 337.827 116.282C337.701 116.156 337.63 115.986 337.63 115.808C337.63 115.63 337.701 115.46 337.827 115.334C337.953 115.208 338.124 115.138 338.303 115.138Z" fill="#C8C8C8"/>
<path d="M216.915 74.1331C217.093 74.1331 217.264 74.2037 217.391 74.3294C217.517 74.4551 217.588 74.6257 217.588 74.8035C217.588 74.9813 217.517 75.1518 217.391 75.2775C217.264 75.4032 217.093 75.4739 216.915 75.4739C216.737 75.4739 216.565 75.4032 216.439 75.2775C216.313 75.1518 216.242 74.9813 216.242 74.8035C216.242 74.6257 216.313 74.4551 216.439 74.3294C216.565 74.2037 216.737 74.1331 216.915 74.1331V74.1331Z" fill="#C8C8C8"/>
<path d="M176.614 311.868C178.956 311.868 178.961 315.498 176.614 315.498C174.267 315.498 174.267 311.868 176.614 311.868Z" fill="#C8C8C8"/>
<path d="M416.463 174.765C418.805 174.765 418.81 178.395 416.463 178.395C414.116 178.395 414.125 174.765 416.463 174.765Z" fill="#C8C8C8"/>
<path d="M43.8249 333.843C46.1671 333.843 46.1721 337.473 43.8249 337.473C41.4777 337.473 41.4777 333.843 43.8249 333.843Z" fill="#C8C8C8"/>
<path d="M196.792 264.01L200.071 264.616L200.804 268.057L201.536 264.616L204.81 264.01L201.546 263.215L200.804 259.963L200.056 263.215L196.792 264.01Z" fill="#C8C8C8"/>
<path d="M266.401 428.689L269.681 429.29L270.413 432.731L271.146 429.29L274.42 428.684L271.161 427.89L270.413 424.642L269.666 427.89L266.401 428.689Z" fill="#C8C8C8"/>
<path d="M280.918 386.279C281.158 386.296 281.383 386.404 281.546 386.579C281.71 386.755 281.801 386.985 281.801 387.225C281.801 387.465 281.71 387.696 281.546 387.871C281.383 388.047 281.158 388.154 280.918 388.171C280.678 388.154 280.454 388.047 280.29 387.871C280.126 387.696 280.035 387.465 280.035 387.225C280.035 386.985 280.126 386.755 280.29 386.579C280.454 386.404 280.678 386.296 280.918 386.279V386.279Z" fill="#C8C8C8"/>
<path d="M317.945 361.101C319.166 361.101 319.166 362.998 317.945 362.998C317.693 362.998 317.45 362.898 317.272 362.721C317.093 362.543 316.993 362.301 316.993 362.05C316.993 361.798 317.093 361.557 317.272 361.379C317.45 361.201 317.693 361.101 317.945 361.101Z" fill="#C8C8C8"/>
<path d="M200.804 404.574L204.078 405.18L204.81 408.621L205.543 405.18L208.822 404.574L205.558 403.779L204.81 400.527L204.063 403.779L200.804 404.574Z" fill="#C8C8C8"/>
<path d="M335.692 99.7083C335.931 99.7256 336.156 99.8328 336.32 100.008C336.483 100.184 336.575 100.415 336.575 100.654C336.575 100.894 336.483 101.125 336.32 101.3C336.156 101.476 335.931 101.583 335.692 101.6C335.452 101.583 335.227 101.476 335.063 101.3C334.9 101.125 334.809 100.894 334.809 100.654C334.809 100.415 334.9 100.184 335.063 100.008C335.227 99.8328 335.452 99.7256 335.692 99.7083V99.7083Z" fill="#C8C8C8"/>
<path d="M358.546 364.091C358.713 364.105 358.87 364.182 358.984 364.306C359.097 364.429 359.161 364.591 359.161 364.759C359.161 364.927 359.097 365.088 358.984 365.212C358.87 365.336 358.713 365.412 358.546 365.427C358.378 365.412 358.222 365.336 358.108 365.212C357.994 365.088 357.931 364.927 357.931 364.759C357.931 364.591 357.994 364.429 358.108 364.306C358.222 364.182 358.378 364.105 358.546 364.091V364.091Z" fill="#C8C8C8"/>
<path d="M72.6094 250.244L75.8885 250.845L76.6211 254.286L77.3536 250.845L80.6277 250.239L77.3686 249.45L76.6211 246.197L75.8735 249.45L72.6094 250.244Z" fill="#C8C8C8"/>
<path d="M34.7253 302.328C34.9777 302.328 35.2198 302.428 35.3983 302.606C35.5768 302.784 35.6771 303.025 35.6771 303.277C35.6771 303.528 35.5768 303.769 35.3983 303.947C35.2198 304.125 34.9777 304.225 34.7253 304.225C33.5043 304.225 33.5043 302.328 34.7253 302.328Z" fill="#C8C8C8"/>
<path d="M165.765 232.615C166.018 232.615 166.26 232.715 166.438 232.893C166.617 233.07 166.717 233.312 166.717 233.563C166.717 233.815 166.617 234.056 166.438 234.234C166.26 234.412 166.018 234.512 165.765 234.512C164.544 234.512 164.544 232.615 165.765 232.615Z" fill="#C8C8C8"/>
<path d="M54.454 136.988C54.6324 136.988 54.8036 137.059 54.9297 137.185C55.0559 137.31 55.1268 137.481 55.1268 137.659C55.1268 137.837 55.0559 138.007 54.9297 138.133C54.8036 138.259 54.6324 138.329 54.454 138.329C54.2756 138.329 54.1045 138.259 53.9783 138.133C53.8521 138.007 53.7812 137.837 53.7813 137.659C53.7812 137.481 53.8521 137.31 53.9783 137.185C54.1045 137.059 54.2756 136.988 54.454 136.988Z" fill="#C8C8C8"/>
<path d="M45.8483 130.831C48.1955 130.831 48.1955 134.461 45.8483 134.461C43.5011 134.461 43.5011 130.831 45.8483 130.831Z" fill="#C8C8C8"/>
<path d="M418.222 50.7131C420.57 50.7131 420.57 54.3433 418.222 54.3433C415.875 54.3433 415.875 50.7131 418.222 50.7131Z" fill="#C8C8C8"/>
<path d="M311.995 270.123L308.587 331.563V331.603L304.271 409.416L89.0201 411.139L82.0283 266.18C82.091 264.513 82.6975 262.911 83.756 261.618C84.8144 260.324 86.2671 259.41 87.8939 259.014L177.412 262.118L305.153 261.353C305.153 261.353 311.995 262.406 311.995 270.123Z" fill="#4E4D4D"/>
<path d="M98.6727 404.142H294.523C294.523 404.142 305.486 315.344 302.432 271.33C302.432 271.33 206.345 261.274 93.8686 267.7C93.8686 267.7 91.1327 332.442 98.6727 404.142Z" fill="url(#paint0_linear_91_10050)"/>
<path d="M67.1523 424.101L69.2703 434.39C69.2703 434.39 227.366 433.64 325.042 435.756L327.927 419.865L67.1523 424.101Z" fill="#4E4D4D"/>
<path d="M89.0148 411.134L67.1523 424.105L327.932 419.869L304.246 409.421L89.0148 411.134Z" fill="url(#paint1_linear_91_10050)"/>
<path d="M98.6473 404.137L97.207 405.2L295.37 406.143L294.537 404.137H98.6473Z" fill="url(#paint2_linear_91_10050)"/>
<path style="mix-blend-mode:multiply" opacity="0.62" d="M149.205 422.025L156.122 416.761L229.454 415.484L237.128 420.724L149.205 422.025Z" fill="url(#paint3_linear_91_10050)"/>
<path d="M108.745 411.139C108.745 411.139 108.515 408.765 109.741 407.012H149.559C149.559 407.012 149.026 408.005 148.876 411.139H108.745Z" fill="#333333"/>
<path d="M287.66 411.139C287.66 411.139 287.89 408.765 286.664 407.012H246.846C246.846 407.012 247.379 408.005 247.528 411.139H287.66Z" fill="#333333"/>
<path d="M247.538 411.139L246.417 409.888L246.856 407.012C246.856 407.012 247.748 408.209 247.538 411.139Z" fill="#140047"/>
<path d="M148.866 411.139L149.992 410.642L149.549 407.027C149.549 407.027 148.876 407.439 148.866 411.139Z" fill="#140047"/>
<path style="mix-blend-mode:soft-light" d="M184.771 270.203L298.843 356.493L300.836 274.886L184.771 270.203Z" fill="url(#paint4_linear_91_10050)"/>
<path style="mix-blend-mode:soft-light" d="M94.8701 355.798L199.902 404.137L101.154 402.022L94.8701 355.798Z" fill="url(#paint5_linear_91_10050)"/>
<path d="M302.96 430.144C304.138 430.144 305.093 429.192 305.093 428.019C305.093 426.845 304.138 425.893 302.96 425.893C301.782 425.893 300.827 426.845 300.827 428.019C300.827 429.192 301.782 430.144 302.96 430.144Z" fill="#F2E500"/>
<path d="M296.341 428.019C296.347 428.615 296.175 429.2 295.847 429.699C295.519 430.197 295.049 430.588 294.498 430.82C293.947 431.053 293.339 431.116 292.751 431.004C292.163 430.891 291.622 430.607 291.197 430.187C290.772 429.767 290.481 429.231 290.362 428.647C290.243 428.062 290.301 427.455 290.529 426.904C290.756 426.352 291.143 425.88 291.641 425.548C292.138 425.216 292.723 425.039 293.322 425.039C294.117 425.039 294.881 425.352 295.446 425.91C296.012 426.468 296.334 427.226 296.341 428.019Z" fill="#F2E500"/>
<path d="M322.211 358.276L335.736 337.582L342.947 342.493L328.56 361.896L322.211 358.276Z" fill="#FF1D9C"/>
<path d="M45.9873 396.375L67.1072 379.967L72.2501 387.059L52.8894 402.32L45.9873 396.375Z" fill="#FF1D9C"/>
<path d="M329.182 294.536L319.624 307.229L315.562 303.957L324.294 292.197L329.182 294.536Z" fill="#4F31E0"/>
<path d="M192.192 233.399L203.266 245.507L207.611 240.506L197.161 229.044L192.192 233.399Z" fill="#6877FF"/>
<path opacity="0.6" d="M221.401 208.862C194.824 226.74 172.254 246.917 166.199 279.847C162.402 300.511 166.633 321.666 175.443 340.537C184.324 359.557 196.753 375.796 211.03 389.388C156.401 367.239 125.873 306.048 141.865 249.534C147.212 230.638 158.196 214.96 169.055 198.88C170.42 196.864 190.319 169.888 190.214 169.754L221.401 208.862Z" fill="#FFC800"/>
<path d="M186.965 228.999L180.915 230.117L179.565 236.468L178.209 230.117L172.159 228.994L178.184 227.529L179.565 221.525L180.94 227.529L186.965 228.999Z" fill="white"/>
<path d="M164.698 348.006L161.32 348.627L160.562 352.177L159.81 348.627L156.426 348.001L159.795 347.181L160.562 343.829L161.334 347.181L164.698 348.006Z" fill="white"/>
<path d="M162.885 317.177L159.501 317.797L158.749 321.348L157.991 317.797L154.612 317.172L157.976 316.352L158.749 313L159.516 316.352L162.885 317.177Z" fill="white"/>
<path d="M182.494 209.19L179.111 209.816L178.353 213.366L177.601 209.816L174.217 209.19L177.586 208.37L178.353 205.013L179.126 208.37L182.494 209.19Z" fill="white"/>
<path d="M172.697 355.688C171.436 355.688 171.436 357.64 172.697 357.64C173.957 357.64 173.962 355.688 172.697 355.688Z" fill="white"/>
<path d="M200.679 204.427C199.413 204.427 199.413 206.384 200.679 206.384C201.945 206.384 201.94 204.427 200.679 204.427Z" fill="white"/>
<path d="M147.905 291.537C146.644 291.537 146.639 293.488 147.905 293.488C149.17 293.488 149.165 291.537 147.905 291.537Z" fill="white"/>
<path d="M170.933 350.603C170.758 350.618 170.596 350.697 170.478 350.825C170.36 350.954 170.294 351.122 170.294 351.296C170.294 351.47 170.36 351.638 170.478 351.766C170.596 351.894 170.758 351.974 170.933 351.989C171.107 351.974 171.269 351.894 171.388 351.766C171.506 351.638 171.571 351.47 171.571 351.296C171.571 351.122 171.506 350.954 171.388 350.825C171.269 350.697 171.107 350.618 170.933 350.603V350.603Z" fill="white"/>
<path d="M147.545 257.405C147.371 257.42 147.209 257.499 147.09 257.627C146.972 257.756 146.906 257.924 146.906 258.098C146.906 258.272 146.972 258.44 147.09 258.568C147.209 258.697 147.371 258.776 147.545 258.791C147.719 258.776 147.882 258.697 148 258.568C148.118 258.44 148.184 258.272 148.184 258.098C148.184 257.924 148.118 257.756 148 257.627C147.882 257.499 147.719 257.42 147.545 257.405V257.405Z" fill="white"/>
<path d="M154.612 328.082C152.19 328.082 152.19 331.831 154.612 331.831C157.034 331.831 157.034 328.082 154.612 328.082Z" fill="white"/>
<path d="M156.426 251.054C154.009 251.054 154.004 254.798 156.426 254.798C158.848 254.798 158.848 251.054 156.426 251.054Z" fill="white"/>
<path d="M370.117 53.0176L369.3 53.7228L370.102 52.9977C333.966 52.1038 298.309 61.3843 267.227 79.7733C236.145 98.1624 210.898 124.914 194.385 156.957L188.375 168.597C189.748 178.022 193.711 186.883 199.826 194.202C205.941 201.521 213.968 207.01 223.02 210.064L235.598 206.3C270.217 195.942 301.202 176.066 324.997 148.952C348.791 121.839 364.43 88.5879 370.117 53.0176V53.0176Z" fill="#F9FAFD"/>
<path d="M195.85 154.216C195.352 155.13 194.853 156.028 194.355 156.957L188.375 168.597C189.748 178.022 193.711 186.883 199.826 194.202C205.941 201.521 213.968 207.01 223.02 210.064L235.598 206.3C236.595 206.002 237.592 205.669 238.588 205.356C227.56 201.366 217.793 194.526 210.288 185.539C202.783 176.551 197.809 165.738 195.875 154.206L195.85 154.216Z" fill="#50B8D4"/>
<path d="M339.494 78.384C344.827 84.7393 351.487 89.8591 359.009 93.3865C364.183 80.3757 367.908 66.8383 370.117 53.0175L369.3 53.7226L370.102 52.9976C356.06 52.6502 342.022 53.8409 328.241 56.5483C330.344 64.4833 334.142 71.8723 339.374 78.2102C339.399 78.2648 339.449 78.3244 339.494 78.384Z" fill="#A0E0ED"/>
<g style="mix-blend-mode:multiply">
<path d="M370.117 53.0174L369.299 53.7226L370.102 52.9976H369.449L199.562 193.865C199.652 193.974 199.732 194.083 199.822 194.197C205.944 201.515 213.97 207.013 223.02 210.089L235.598 206.324C270.22 195.965 301.208 176.085 325.002 148.967C348.797 121.848 364.434 88.5922 370.117 53.0174V53.0174Z" fill="#DDDEE1"/>
</g>
<g style="mix-blend-mode:multiply">
<g style="mix-blend-mode:multiply">
<path d="M370.167 52.8685L369.35 53.5737L370.152 52.8486H369.504C356.757 87.4622 337.221 119.2 312.035 146.21C286.904 173.107 256.665 194.763 223.07 209.925L235.649 206.161C270.269 195.802 301.255 175.924 325.05 148.809C348.844 121.694 364.482 88.4406 370.167 52.8685V52.8685Z" fill="#CBCCCF"/>
</g>
</g>
<path d="M267.991 138.592C265.646 135.785 264.19 132.347 263.805 128.714C263.421 125.081 264.126 121.417 265.832 118.183C267.538 114.95 270.168 112.294 273.389 110.55C276.61 108.806 280.278 108.053 283.928 108.386C287.579 108.72 291.048 110.125 293.897 112.423C296.747 114.721 298.848 117.81 299.936 121.298C301.023 124.787 301.048 128.518 300.008 132.021C298.967 135.523 296.908 138.64 294.09 140.976C290.309 144.103 285.438 145.608 280.546 145.162C275.653 144.715 271.138 142.352 267.991 138.592V138.592Z" fill="#27164B"/>
<path d="M294.787 116.374C296.852 118.848 298.135 121.876 298.473 125.076C298.811 128.276 298.189 131.504 296.686 134.351C295.183 137.199 292.866 139.539 290.029 141.075C287.192 142.61 283.961 143.273 280.746 142.98C277.531 142.686 274.475 141.449 271.965 139.424C269.455 137.4 267.604 134.68 266.646 131.607C265.688 128.534 265.666 125.248 266.582 122.162C267.498 119.077 269.312 116.332 271.793 114.274C275.123 111.515 279.415 110.186 283.727 110.58C288.039 110.974 292.017 113.058 294.787 116.374V116.374ZM298.176 113.564C295.551 110.423 292.05 108.128 288.117 106.97C284.183 105.812 279.993 105.843 276.077 107.058C272.161 108.273 268.694 110.618 266.116 113.797C263.537 116.976 261.963 120.845 261.591 124.915C261.22 128.986 262.068 133.075 264.028 136.665C265.989 140.255 268.974 143.185 272.606 145.084C276.238 146.984 280.353 147.767 284.432 147.336C288.511 146.904 292.369 145.277 295.52 142.66C299.741 139.151 302.394 134.118 302.895 128.663C303.397 123.208 301.707 117.778 298.196 113.564H298.176Z" fill="#50B8D4"/>
<path d="M306.229 108.205C304.924 106.642 304.113 104.727 303.899 102.705C303.685 100.682 304.078 98.6413 305.027 96.8409C305.977 95.0406 307.442 93.5613 309.235 92.5902C311.028 91.6191 313.071 91.1997 315.103 91.3851C317.136 91.5705 319.068 92.3524 320.655 93.6318C322.241 94.9112 323.412 96.6308 324.018 98.5731C324.624 100.515 324.638 102.593 324.06 104.544C323.481 106.494 322.334 108.23 320.766 109.531C318.66 111.272 315.947 112.109 313.223 111.861C310.498 111.612 307.983 110.298 306.229 108.205V108.205Z" fill="#27164B"/>
<path d="M321.154 95.8448C322.305 97.2224 323.02 98.9091 323.209 100.692C323.398 102.474 323.052 104.273 322.216 105.86C321.379 107.446 320.089 108.75 318.508 109.606C316.928 110.462 315.128 110.832 313.337 110.669C311.545 110.506 309.843 109.817 308.444 108.689C307.046 107.562 306.014 106.046 305.48 104.335C304.946 102.623 304.933 100.792 305.443 99.073C305.954 97.354 306.964 95.8245 308.347 94.6777C310.2 93.1403 312.591 92.3995 314.993 92.6183C317.395 92.8372 319.611 93.9977 321.154 95.8448ZM323.038 94.2805C321.578 92.5307 319.63 91.2518 317.44 90.6053C315.25 89.9589 312.917 89.974 310.736 90.6487C308.555 91.3235 306.624 92.6276 305.187 94.3961C303.75 96.1646 302.871 98.3181 302.662 100.584C302.453 102.85 302.923 105.127 304.012 107.127C305.102 109.127 306.762 110.761 308.783 111.82C310.804 112.88 313.095 113.319 315.366 113.081C317.637 112.843 319.787 111.94 321.543 110.485C323.895 108.532 325.374 105.729 325.654 102.691C325.934 99.6527 324.993 96.6279 323.038 94.2805V94.2805Z" fill="#50B8D4"/>
<path d="M241.443 158.914C240.138 157.35 239.328 155.435 239.115 153.412C238.902 151.389 239.295 149.349 240.246 147.549C241.196 145.749 242.661 144.27 244.455 143.3C246.249 142.329 248.291 141.911 250.324 142.097C252.356 142.283 254.288 143.065 255.874 144.345C257.46 145.625 258.63 147.345 259.236 149.287C259.841 151.23 259.855 153.308 259.275 155.258C258.696 157.208 257.549 158.944 255.98 160.244C253.875 161.988 251.161 162.827 248.435 162.578C245.709 162.328 243.195 161.01 241.443 158.914Z" fill="#27164B"/>
<path d="M256.365 146.543C257.516 147.92 258.232 149.607 258.422 151.39C258.611 153.173 258.266 154.972 257.429 156.559C256.592 158.146 255.302 159.451 253.721 160.307C252.141 161.163 250.341 161.533 248.549 161.37C246.757 161.206 245.054 160.517 243.656 159.389C242.257 158.261 241.226 156.746 240.692 155.033C240.158 153.321 240.146 151.49 240.657 149.771C241.168 148.052 242.179 146.522 243.562 145.376C244.48 144.615 245.539 144.041 246.679 143.688C247.819 143.335 249.017 143.209 250.206 143.317C251.395 143.425 252.551 143.766 253.607 144.32C254.664 144.873 255.601 145.629 256.365 146.543ZM258.253 144.979C256.793 143.228 254.844 141.948 252.653 141.301C250.462 140.654 248.128 140.669 245.946 141.344C243.764 142.019 241.832 143.324 240.394 145.093C238.956 146.863 238.077 149.017 237.868 151.285C237.659 153.552 238.129 155.83 239.219 157.831C240.309 159.832 241.971 161.466 243.993 162.526C246.015 163.586 248.307 164.024 250.579 163.786C252.852 163.548 255.002 162.644 256.758 161.188C259.111 159.234 260.59 156.43 260.87 153.391C261.15 150.353 260.209 147.327 258.253 144.979V144.979Z" fill="#50B8D4"/>
<path d="M198.033 150.149C207.834 133.893 219.595 118.894 233.052 105.484L213.536 109.422C197.924 112.571 184 121.284 174.371 133.929L155.12 159.217L198.033 150.149Z" fill="#A0E0ED"/>
<path d="M240.667 204.224C248.989 201.346 257.142 198.002 265.086 194.207C274.284 189.816 283.184 184.828 291.727 179.274L283.848 197.495C277.546 212.073 266.127 223.861 251.73 230.653L222.94 244.23L240.667 204.224Z" fill="#A0E0ED"/>
<path d="M209.759 102.886C209.759 102.886 206.525 107.232 211.07 113.241L215.121 108.021L209.759 102.886Z" fill="#2E2E2E"/>
<path d="M295.121 67.9008C290.441 76.5069 282.139 83.4942 272.561 89.662C270.174 91.2064 267.707 92.6913 265.195 94.1314C264.642 94.4493 264.089 94.7721 263.531 95.0849C261.298 96.3811 259.144 97.8089 257.082 99.3607C254.839 101.014 252.736 102.688 250.698 104.168C248.356 105.861 246.098 107.296 243.811 108.141L241.065 109.134C238.103 110.272 235.058 111.18 231.955 111.85V111.85C225.975 113.002 221.954 111.766 214.279 108.012C212.674 107.173 211.238 106.046 210.043 104.689C204.063 98.2334 199.971 85.8779 198.975 79.4766C198.94 79.2432 198.905 79.0098 198.875 78.7665C198.319 73.884 198.499 68.9461 199.408 64.1166C199.947 61.0197 200.693 57.9621 201.641 54.9642C202.708 51.5663 204.013 48.2474 205.548 45.0321C207.092 41.8095 208.88 38.7083 210.895 35.7555C212.475 33.4361 214.215 31.2292 216.103 29.1507C220.982 23.7874 226.832 19.457 233.595 16.9342C258.642 7.59803 287.546 18.7667 294.323 36.8034C294.797 38.0697 295.32 39.5943 295.818 41.3026C298.011 48.5828 299.82 59.2549 295.121 67.9008Z" fill="url(#paint6_linear_91_10050)"/>
<path d="M252.32 46.7652C253.298 45.7579 253.141 44.0262 251.97 42.8973C250.799 41.7683 249.057 41.6698 248.079 42.6771C247.101 43.6844 247.258 45.4161 248.429 46.545C249.6 47.674 251.342 47.7725 252.32 46.7652Z" fill="#2E2E2E"/>
<path d="M272.281 31.4488C273.253 30.6544 273.205 28.9923 272.172 27.7364C271.14 26.4805 269.514 26.1064 268.541 26.9007C267.568 27.6951 267.616 29.3572 268.649 30.6132C269.682 31.8691 271.308 32.2432 272.281 31.4488Z" fill="#2E2E2E"/>
<path d="M270.328 45.9011C270.786 45.7404 271.191 45.4569 271.499 45.0817C272.655 43.6267 272.072 41.2678 272.047 41.1685C272.036 41.1159 272.015 41.0659 271.984 41.0218C271.954 40.9776 271.914 40.94 271.869 40.9114C271.823 40.8828 271.772 40.8637 271.719 40.8553C271.666 40.8468 271.611 40.8492 271.559 40.8623C271.507 40.8755 271.458 40.899 271.415 40.9315C271.372 40.9641 271.336 41.0049 271.309 41.0516C271.283 41.0983 271.266 41.15 271.26 41.2033C271.254 41.2567 271.259 41.3107 271.274 41.3622C271.274 41.3622 271.773 43.4429 270.876 44.5901C270.377 45.2208 268.992 45.7224 266.749 45.042C266.65 45.018 266.546 45.0329 266.457 45.0834C266.369 45.134 266.303 45.2164 266.274 45.3137C266.244 45.4111 266.254 45.5159 266.299 45.6067C266.345 45.6975 266.424 45.7673 266.52 45.8018C267.746 46.2387 269.08 46.2735 270.328 45.9011Z" fill="#2E2E2E"/>
<path d="M254.655 4.56375C254.038 6.42707 253.867 8.40838 254.156 10.3492C254.427 12.0678 255.061 13.7096 256.015 15.1663C256.603 16.0701 258.103 18.2949 259.399 17.8479C259.447 17.8265 259.49 17.7928 259.521 17.7501C259.553 17.7074 259.572 17.6572 259.578 17.6046C259.753 16.6114 258.362 15.5089 257.869 14.7193C257.029 13.3596 256.496 11.8348 256.304 10.2499C256.116 8.56243 256.356 6.85498 257.002 5.28382C257.61 3.79401 258.945 2.57236 259.234 0.98819C259.258 0.852692 259.249 0.713452 259.207 0.582316C259.165 0.45118 259.093 0.332027 258.995 0.234994C258.897 0.137961 258.777 0.0659187 258.645 0.0249954C258.513 -0.015928 258.374 -0.0245213 258.238 -5.36957e-05C256.289 0.496551 255.233 2.8157 254.655 4.56375Z" fill="#2E2E2E"/>
<path d="M250.995 57.4233C253.021 56.6673 254.249 54.953 253.739 53.5943C253.228 52.2355 251.172 51.7469 249.146 52.5029C247.12 53.259 245.891 54.9733 246.402 56.332C246.913 57.6907 248.969 58.1793 250.995 57.4233Z" fill="#EB8757"/>
<path d="M283.436 33.9694C284.542 32.2226 284.321 30.1043 282.942 29.2382C281.564 28.372 279.551 29.0859 278.445 30.8327C277.34 32.5795 277.561 34.6978 278.939 35.5639C280.317 36.4301 282.33 35.7162 283.436 33.9694Z" fill="#EB8757"/>
<path d="M275.496 85.7786C275.496 85.7786 277.883 90.6006 278.162 93.6348C278.441 96.6691 277.434 99.3259 275.461 98.6356C273.488 97.9453 269.605 86.8413 269.605 86.8413L275.496 85.7786Z" fill="#FCC440"/>
<path d="M243.218 105.812C243.218 105.812 244.19 111.443 244.504 113.042C244.818 114.641 245.002 117.417 242.511 116.916C240.019 116.414 237.527 115.068 236.032 108.781L243.218 105.812Z" fill="url(#paint7_linear_91_10050)"/>
<path d="M210.9 35.7556C213.008 41.0755 215.531 46.2228 218.445 51.1503C223.661 60.0067 230.103 68.0865 237.582 75.1512C245.766 82.843 255.079 89.2466 265.2 94.1414C267.692 92.6913 270.184 91.2015 272.566 89.672C252.507 81.0465 235.718 66.2904 224.625 47.535C221.179 41.7083 218.326 35.5529 216.108 29.1606C214.221 31.2359 212.481 33.4396 210.9 35.7556V35.7556Z" fill="#2E2E2E"/>
<path d="M201.636 55.004C206.23 66.108 213.462 79.6256 223.563 87.2287C232.127 93.617 241.208 99.2862 250.713 104.178C252.751 102.688 254.854 101.024 257.097 99.3707C246.842 94.3126 237.068 88.3406 227.894 81.5276C216.89 73.2343 209.42 56.017 205.563 45.0818C204.022 48.2933 202.71 51.6089 201.636 55.004V55.004Z" fill="#2E2E2E"/>
<path d="M198.87 78.8061C202.443 85.108 206.844 91.8171 211.588 96.4107C217.224 101.873 225.292 107.569 231.955 111.89C235.06 111.221 238.108 110.311 241.07 109.168C234.203 104.942 223.324 97.826 216.596 91.2907C209.465 84.3383 202.792 71.3769 199.403 64.1562C198.486 69.4699 198.292 74.4906 198.87 78.8061Z" fill="#2E2E2E"/>
<path d="M192.486 28.7086C183.257 26.5583 165.904 28.2517 169.507 42.2262C172.498 53.8815 187.154 52.2675 196.104 49.8391C200.589 48.6225 206.021 47.0482 209.864 44.2821C216.272 39.6736 207.581 34.6331 203.385 32.5523C199.908 30.8683 196.252 29.579 192.486 28.7086V28.7086Z" fill="#C6EDFF"/>
<path d="M206.34 6.53026C206.619 6.53026 206.898 6.56999 207.188 6.60475C214.703 7.5185 216.432 15.7671 216.761 21.9995C217.075 27.9588 216.502 34.7771 212.983 39.8773C209.186 45.3747 202.598 40.6718 199.563 36.8977C195.576 31.9316 194.415 24.9791 194.993 18.7815C195.581 12.4697 199.339 6.08828 206.34 6.53026Z" fill="#C6EDFF"/>
<path d="M234.721 12.7676C233.717 14.6659 233.085 16.7371 232.857 18.8708C232.578 22.794 235.219 26.4192 238.967 27.7154C239.316 27.8346 239.839 27.4621 239.525 27.0847C238.434 25.8035 236.944 24.9245 235.977 23.5191C234.925 21.9945 234.786 20.2464 235.13 18.4686C235.524 16.6827 236.209 14.9733 237.158 13.4082C238.04 11.8836 239.65 10.4286 239.904 8.63085C239.925 8.50502 239.913 8.37597 239.87 8.25592C239.826 8.13586 239.753 8.02877 239.657 7.94475C239.561 7.86074 239.444 7.80258 239.319 7.77578C239.194 7.74898 239.064 7.75442 238.942 7.79159C236.849 8.32296 235.583 10.9798 234.721 12.7676Z" fill="#2E2E2E"/>
<g style="mix-blend-mode:overlay" opacity="0.3">
<path d="M264.323 17.2222C257.984 14.7143 249.209 15.3698 242.665 16.7951C222.024 21.2943 207.283 41.0145 201.696 60.3523C200.245 65.3369 199.54 70.5076 199.603 75.6974C199.603 75.6974 199.264 84.0553 202.454 85.0584C205.643 86.0615 209.306 71.511 210.163 68.6804C212.316 61.3952 216.382 54.9641 220.603 48.7169C224.491 42.9562 229.075 37.5532 235.315 34.2408C241.389 31.0997 247.805 28.6621 254.436 26.9755C257.646 26.1213 261.134 25.8234 264.209 24.6514C265.619 24.1101 268.3 23.1616 268.754 21.493C269.382 19.1738 265.948 17.8777 264.323 17.2222Z" fill="white"/>
</g>
<path d="M116.772 319.138L116.349 318.88" stroke="black" stroke-width="2" stroke-linecap="round" stroke-linejoin="round"/>
<path d="M114.271 317.519C96.8285 305.601 78.0807 279.315 70.4959 254.977C64.0174 234.263 62.2234 193.552 76.3016 174.075C82.3416 165.722 94.8152 162.156 104.369 165.633C107.722 166.859 111.156 170.951 108.654 173.494C107.159 175.033 104.553 174.557 102.584 173.673C92.3933 169.099 87.2653 156.694 88.9696 145.684C90.674 134.674 98.0345 125.194 106.91 118.43C110.09 116.012 113.603 113.832 117.55 113.171C121.497 112.511 125.952 113.668 128.324 116.871C130.696 120.074 130.083 125.388 126.545 127.265C115.023 133.373 118.99 112.367 120.565 108.523C124.238 99.4799 130.676 91.9067 138.067 85.6395C152.285 73.5869 170.21 66.4606 187.567 60.0991" stroke="black" stroke-width="2" stroke-linecap="round" stroke-linejoin="round" stroke-dasharray="2 4.99"/>
<path d="M188.738 61.7934L189.207 61.6245" stroke="black" stroke-width="2" stroke-linecap="round" stroke-linejoin="round"/>
<defs>
<linearGradient id="paint0_linear_91_10050" x1="198.172" y1="404.142" x2="198.172" y2="265.554" gradientUnits="userSpaceOnUse">
<stop stop-color="#EEF0FF"/>
<stop offset="1" stop-color="#ADD8E5"/>
</linearGradient>
<linearGradient id="paint1_linear_91_10050" x1="197.54" y1="424.105" x2="197.54" y2="409.421" gradientUnits="userSpaceOnUse">
<stop stop-color="#333333"/>
<stop offset="1" stop-color="#808080"/>
</linearGradient>
<linearGradient id="paint2_linear_91_10050" x1="78149.5" y1="2044.98" x2="78149.5" y2="2036.9" gradientUnits="userSpaceOnUse">
<stop stop-color="#333333"/>
<stop offset="1" stop-color="#808080"/>
</linearGradient>
<linearGradient id="paint3_linear_91_10050" x1="149.205" y1="418.757" x2="237.128" y2="418.757" gradientUnits="userSpaceOnUse">
<stop stop-color="#8B8BE0"/>
<stop offset="1" stop-color="#A177B7"/>
</linearGradient>
<linearGradient id="paint4_linear_91_10050" x1="242.804" y1="356.493" x2="242.804" y2="270.203" gradientUnits="userSpaceOnUse">
<stop stop-color="#B9ACF4"/>
<stop offset="1" stop-color="#E1D1F5"/>
</linearGradient>
<linearGradient id="paint5_linear_91_10050" x1="31157.9" y1="39694.9" x2="31157.9" y2="34989.1" gradientUnits="userSpaceOnUse">
<stop stop-color="#B9ACF4"/>
<stop offset="1" stop-color="#E1D1F5"/>
</linearGradient>
<linearGradient id="paint6_linear_91_10050" x1="251.092" y1="7.92579" x2="246.43" y2="103.052" gradientUnits="userSpaceOnUse">
<stop offset="0.15" stop-color="#FFE061"/>
<stop offset="0.42" stop-color="#FFDC5E"/>
<stop offset="0.69" stop-color="#FFD363"/>
<stop offset="0.97" stop-color="#FFC15A"/>
<stop offset="1" stop-color="#FFC56B"/>
</linearGradient>
<linearGradient id="paint7_linear_91_10050" x1="4392.37" y1="2265.78" x2="4398.84" y2="2350.77" gradientUnits="userSpaceOnUse">
<stop offset="0.15" stop-color="#FCD844"/>
<stop offset="0.42" stop-color="#FCD443"/>
<stop offset="0.69" stop-color="#FCC740"/>
<stop offset="0.97" stop-color="#FBB33C"/>
<stop offset="1" stop-color="#FBB03B"/>
</linearGradient>
</defs>
</svg>
