<svg width="280" height="200" viewBox="0 0 280 200" fill="none" xmlns="http://www.w3.org/2000/svg">
<path d="M219.592 25H277.993L268.5 31.8075V45.2042C268.5 45.9457 268.203 46.6568 267.674 47.1811C267.146 47.7054 266.429 48 265.682 48H219.592C218.845 48 218.128 47.7054 217.6 47.1811C217.071 46.6568 216.774 45.9457 216.774 45.2042V27.7958C216.774 27.0543 217.071 26.3432 217.6 25.8189C218.128 25.2946 218.845 25 219.592 25V25Z" fill="#F5F5F5"/>
<path d="M222.796 35.1024C222.796 35.1578 231.56 35.2048 242.364 35.2048C253.167 35.2048 261.936 35.1578 261.936 35.1024C261.936 35.0469 253.176 35 242.364 35C231.551 35 222.796 35.0469 222.796 35.1024Z" fill="#E1E1E1"/>
<path d="M222.796 40.0981C222.796 40.1536 231.56 40.2005 242.364 40.2005C253.167 40.2005 261.936 40.1536 261.936 40.0981C261.936 40.0427 253.176 40 242.364 40C231.551 40 222.796 40.0427 222.796 40.0981Z" fill="#E1E1E1"/>
<path d="M143.513 51H140.502V60H143.513V51Z" fill="#E1E1E1"/>
<path d="M121.434 49H118.423V59H121.434V49Z" fill="#E1E1E1"/>
<path d="M126.451 47H123.44V60H126.451V47Z" fill="#E1E1E1"/>
<path d="M132.473 48H129.462V60H132.473V48Z" fill="#E1E1E1"/>
<path d="M138.494 44H135.483V60H138.494V44Z" fill="#E1E1E1"/>
<path d="M149.534 44H146.523V60H149.534V44Z" fill="#E1E1E1"/>
<path d="M154.552 49H151.541V60H154.552V49Z" fill="#E1E1E1"/>
<path d="M160.573 45H157.562V60H160.573V45Z" fill="#E1E1E1"/>
<path d="M166.595 41H163.584V59H166.595V41Z" fill="#E1E1E1"/>
<path d="M171.613 45H168.603V60H171.613V45Z" fill="#E1E1E1"/>
<path d="M240.371 89.4908L262.678 86.0945C263.393 90.743 262.627 95.4977 260.49 99.6904C258.352 103.883 254.95 107.303 250.761 109.47C246.573 111.636 241.808 112.441 237.137 111.77C232.465 111.099 228.123 108.987 224.718 105.729C221.314 102.472 219.02 98.2342 218.157 93.6107C217.295 88.9872 217.908 84.2107 219.911 79.9525C221.914 75.6942 225.205 72.1682 229.323 69.87C233.44 67.5717 238.177 66.6168 242.867 67.1394L240.371 89.4908Z" fill="#ECECEC"/>
<path d="M247.599 67L244.875 84L261.936 80.8672C261.936 80.8672 259.426 71.339 247.599 67Z" fill="#E1E1E1"/>
<path d="M14.0508 101.147C14.0216 98.9723 14.6402 96.8377 15.8282 95.013C17.0162 93.1884 18.7204 91.7557 20.7254 90.8959C22.7304 90.0362 24.9461 89.7879 27.0926 90.1827C29.2392 90.5774 31.2201 91.5973 32.785 93.1135C34.3499 94.6297 35.4287 96.5742 35.8849 98.7012C36.3411 100.828 36.1542 103.042 35.348 105.063C34.5417 107.084 33.1523 108.822 31.3552 110.057C29.5581 111.291 27.4341 111.967 25.2516 111.999C22.3234 112.035 19.5003 110.913 17.4008 108.879C15.3013 106.845 14.0966 104.065 14.0508 101.147V101.147ZM30.3424 100.885C30.3205 99.8477 29.9908 98.8404 29.3949 97.9898C28.799 97.1393 27.9636 96.4837 26.9941 96.1058C26.0247 95.7279 24.9646 95.6446 23.9477 95.8664C22.9308 96.0882 22.0026 96.6051 21.2803 97.352C20.5579 98.0989 20.0738 99.0423 19.8889 100.063C19.7041 101.084 19.8268 102.136 20.2417 103.088C20.6565 104.039 21.3449 104.847 22.2199 105.409C23.0949 105.971 24.1173 106.262 25.1582 106.245C26.5587 106.219 27.8914 105.639 28.8634 104.634C29.8355 103.629 30.3674 102.28 30.3424 100.885Z" fill="#F5F5F5"/>
<path d="M14.0517 101.196C13.9979 98.2827 15.0931 95.4675 17.0968 93.3683C19.1005 91.2691 21.8487 90.0576 24.7378 90L24.8298 95.7412C23.446 95.7636 22.1278 96.3392 21.165 97.3416C20.2022 98.3439 19.6738 99.6908 19.696 101.086C19.7182 102.481 20.2892 103.81 21.2833 104.781C22.2775 105.751 23.6134 106.284 24.9972 106.262L25.0892 111.999C22.2047 112.042 19.4214 110.928 17.3515 108.902C15.2816 106.876 14.0947 104.104 14.0517 101.196V101.196Z" fill="#E1E1E1"/>
<path d="M24.0859 89.004C25.7783 88.961 27.4621 89.2619 29.0388 89.8892C30.6154 90.5164 32.0533 91.4574 33.2682 92.657C34.4831 93.8566 35.4506 95.2908 36.1142 96.8756C36.7777 98.4603 37.1239 100.164 37.1325 101.886L30.3323 102C30.2765 98.5053 27.6492 96.273 24.2104 96.3211L24.0859 89.004Z" fill="#ECECEC"/>
<path d="M86.308 140H72.2578V157H86.308V140Z" fill="#F5F5F5"/>
<path d="M73.2616 139H9.03223V158H73.2616V139Z" fill="#E1E1E1"/>
<path d="M87.4963 141H71.2549V139H87.4963C87.7136 139 87.9221 139.105 88.0758 139.293C88.2295 139.48 88.3158 139.735 88.3158 140V140C88.3158 140.265 88.2295 140.52 88.0758 140.707C87.9221 140.895 87.7136 141 87.4963 141Z" fill="#E1E1E1"/>
<path d="M87.4963 158H71.2549V156H87.4963C87.7136 156 87.9221 156.105 88.0758 156.293C88.2295 156.48 88.3158 156.735 88.3158 157V157C88.3158 157.265 88.2295 157.52 88.0758 157.707C87.9221 157.895 87.7136 158 87.4963 158Z" fill="#E1E1E1"/>
<path d="M68.2435 139H60.2148V158H68.2435V139Z" fill="#ECECEC"/>
<path d="M23.0824 139H15.0537V158H23.0824V139Z" fill="#ECECEC"/>
<path d="M86.308 143.081C86.308 143.128 83.1681 143.166 79.2939 143.166C75.4197 143.166 72.2578 143.128 72.2578 143.081C72.2578 143.034 75.3977 143 79.2939 143C83.1901 143 86.308 143.034 86.308 143.081Z" fill="#E1E1E1"/>
<path d="M86.308 145.081C86.308 145.128 83.1681 145.166 79.2939 145.166C75.4197 145.166 72.2578 145.128 72.2578 145.081C72.2578 145.034 75.3977 145 79.2939 145C83.1901 145 86.308 145.038 86.308 145.081Z" fill="#E1E1E1"/>
<path d="M86.308 148.085C86.308 148.132 83.1681 148.166 79.2939 148.166C75.4197 148.166 72.2578 148.132 72.2578 148.085C72.2578 148.038 75.3977 148 79.2939 148C83.1901 148 86.308 148.038 86.308 148.085Z" fill="#E1E1E1"/>
<path d="M86.308 151.081C86.308 151.128 83.1681 151.166 79.2939 151.166C75.4197 151.166 72.2578 151.128 72.2578 151.081C72.2578 151.034 75.3977 151 79.2939 151C83.1901 151 86.308 151.017 86.308 151.081Z" fill="#E1E1E1"/>
<path d="M86.308 154.081C86.308 154.128 83.1681 154.166 79.2939 154.166C75.4197 154.166 72.2578 154.128 72.2578 154.081C72.2578 154.034 75.3977 154 79.2939 154C83.1901 154 86.308 154.038 86.308 154.081Z" fill="#E1E1E1"/>
<path d="M56.2006 147H27.0967V150H56.2006V147Z" fill="#ECECEC"/>
<path d="M86.308 158H72.2578V168H86.308V158Z" fill="#FAFAFA"/>
<path d="M72.2577 158H11.0391V169H72.2577V158Z" fill="#F5F5F5"/>
<path d="M71.2549 159H86.9333C86.9829 159.001 87.0321 158.988 87.078 158.964C87.124 158.939 87.1658 158.903 87.201 158.856C87.2362 158.81 87.2642 158.755 87.2833 158.694C87.3024 158.634 87.3122 158.569 87.3122 158.503V158.503C87.3122 158.37 87.2723 158.242 87.2013 158.147C87.1302 158.053 87.0338 158 86.9333 158H71.2549V159Z" fill="#F5F5F5"/>
<path d="M71.2549 168H87.1293C87.1533 168 87.1771 168.006 87.1993 168.018C87.2215 168.03 87.2417 168.048 87.2586 168.071C87.2756 168.093 87.2891 168.12 87.2983 168.149C87.3075 168.178 87.3122 168.21 87.3122 168.241V168.759C87.3122 168.823 87.293 168.884 87.2586 168.929C87.2243 168.975 87.1778 169 87.1293 169H71.2549V168Z" fill="#F5F5F5"/>
<path d="M86.308 160.085C86.308 160.132 83.1612 160.166 79.2808 160.166C75.4003 160.166 72.2578 160.132 72.2578 160.085C72.2578 160.038 75.4003 160 79.2808 160C83.1612 160 86.308 160.038 86.308 160.085Z" fill="#E1E1E1"/>
<path d="M86.308 162.085C86.308 162.132 83.1612 162.171 79.2808 162.171C75.4003 162.171 72.2578 162.132 72.2578 162.085C72.2578 162.038 75.4003 162 79.2808 162C83.1612 162 86.308 162.038 86.308 162.085Z" fill="#E1E1E1"/>
<path d="M86.308 164.081C86.308 164.128 83.1612 164.166 79.2808 164.166C75.4003 164.166 72.2578 164.128 72.2578 164.081C72.2578 164.034 75.4003 164 79.2808 164C83.1612 164 86.308 164.034 86.308 164.081Z" fill="#E1E1E1"/>
<path d="M86.308 166.081C86.308 166.128 83.1612 166.166 79.2808 166.166C75.4003 166.166 72.2578 166.128 72.2578 166.081C72.2578 166.034 75.4003 166 79.2808 166C83.1612 166 86.308 166.038 86.308 166.081Z" fill="#E1E1E1"/>
<path d="M88.3155 170H73.2617V198H88.3155V170Z" fill="#ECECEC"/>
<path d="M74.2649 169H5.01758V199H74.2649V169Z" fill="#E1E1E1"/>
<path d="M90.3318 199H72.2578V197H90.3318C90.5958 197.001 90.8487 197.107 91.035 197.294C91.2213 197.482 91.3259 197.736 91.3259 198V198C91.3259 198.264 91.2213 198.518 91.035 198.706C90.8487 198.893 90.5958 198.999 90.3318 199V199Z" fill="#E1E1E1"/>
<path d="M72.2578 169.004H90.8442C90.9719 169.004 91.0945 169.055 91.1848 169.146C91.2752 169.236 91.3259 169.359 91.3259 169.487V170.518C91.3259 170.646 91.2752 170.768 91.1848 170.859C91.0945 170.949 90.9719 171 90.8442 171H72.2578V169V169.004Z" fill="#E1E1E1"/>
<path d="M88.3155 173.081C88.3155 173.128 84.9438 173.166 80.7886 173.166C76.6334 173.166 73.2617 173.128 73.2617 173.081C73.2617 173.034 76.6334 173 80.7886 173C84.9438 173 88.3155 173.034 88.3155 173.081Z" fill="#E1E1E1"/>
<path d="M88.3155 177.081C88.3155 177.128 84.9438 177.166 80.7886 177.166C76.6334 177.166 73.2617 177.128 73.2617 177.081C73.2617 177.034 76.6334 177 80.7886 177C84.9438 177 88.3155 177.038 88.3155 177.081Z" fill="#E1E1E1"/>
<path d="M88.3155 180.081C88.3155 180.128 84.9438 180.166 80.7886 180.166C76.6334 180.166 73.2617 180.128 73.2617 180.081C73.2617 180.034 76.6334 180 80.7886 180C84.9438 180 88.3155 180.047 88.3155 180.081Z" fill="#E1E1E1"/>
<path d="M88.3155 184.081C88.3155 184.128 84.9438 184.166 80.7886 184.166C76.6334 184.166 73.2617 184.128 73.2617 184.081C73.2617 184.034 76.6334 184 80.7886 184C84.9438 184 88.3155 184.038 88.3155 184.081Z" fill="#E1E1E1"/>
<path d="M88.3155 187.085C88.3155 187.128 84.9438 187.166 80.7886 187.166C76.6334 187.166 73.2617 187.128 73.2617 187.085C73.2617 187.043 76.6334 187 80.7886 187C84.9438 187 88.3155 187.038 88.3155 187.085Z" fill="#E1E1E1"/>
<path d="M88.3155 191.085C88.3155 191.128 84.9438 191.166 80.7886 191.166C76.6334 191.166 73.2617 191.128 73.2617 191.085C73.2617 191.043 76.6334 191 80.7886 191C84.9438 191 88.3155 191.021 88.3155 191.085Z" fill="#E1E1E1"/>
<path d="M88.3155 195.085C88.3155 195.132 84.9438 195.166 80.7886 195.166C76.6334 195.166 73.2617 195.132 73.2617 195.085C73.2617 195.038 76.6334 195 80.7886 195C84.9438 195 88.3155 195.038 88.3155 195.085Z" fill="#E1E1E1"/>
<path d="M28.1006 185.119V186.806C28.1006 188.839 27.0701 190 25.0877 190C23.1052 190 22.0791 188.839 22.0791 186.806V180.194C22.0791 178.161 23.1052 177 25.0877 177C27.0701 177 28.1006 178.17 28.1006 180.194V181.428H26.1968V180.069C26.1968 179.158 25.7951 178.817 25.1532 178.817C24.5113 178.817 24.1052 179.158 24.1052 180.069V186.927C24.1052 187.833 24.5113 188.157 25.1532 188.157C25.7951 188.157 26.1968 187.833 26.1968 186.927V185.11L28.1006 185.119Z" fill="#ECECEC"/>
<path d="M29.1035 180.196C29.1035 178.162 30.1702 177 32.1143 177C34.0584 177 35.125 178.162 35.125 180.196V186.804C35.125 188.838 34.0584 190 32.1143 190C30.1702 190 29.1035 188.838 29.1035 186.804V180.196ZM31.0906 186.934C31.0906 187.841 31.4906 188.186 32.1229 188.186C32.7551 188.186 33.1551 187.841 33.1551 186.934V180.079C33.1551 179.168 32.7551 178.827 32.1229 178.827C31.4906 178.827 31.0906 179.168 31.0906 180.079V186.934Z" fill="#ECECEC"/>
<path d="M37.1328 177H39.0284V188.144H42.1507V190H37.1328V177Z" fill="#ECECEC"/>
<path d="M42.1504 180.196C42.1504 178.162 43.2171 177 45.1611 177C47.1052 177 48.1719 178.162 48.1719 180.196V186.804C48.1719 188.838 47.1052 190 45.1611 190C43.2171 190 42.1504 188.838 42.1504 186.804V180.196ZM44.1375 186.934C44.1375 187.841 44.5375 188.186 45.1697 188.186C45.802 188.186 46.1977 187.841 46.1977 186.934V180.079C46.1977 179.168 45.802 178.827 45.1697 178.827C44.5375 178.827 44.1375 179.168 44.1375 180.079V186.934Z" fill="#ECECEC"/>
<path d="M52.197 177V186.903C52.197 187.819 52.6031 188.15 53.245 188.15C53.8869 188.15 54.293 187.819 54.293 186.903V177H56.2012V186.772C56.2012 188.827 55.1707 190 53.1883 190C51.2058 190 50.1797 188.827 50.1797 186.772V177H52.197Z" fill="#ECECEC"/>
<path d="M61.2268 189.991C61.0672 189.477 61.0076 188.934 61.0515 188.395V186.348C61.0515 185.14 60.6676 184.694 59.7997 184.694H59.132V190H57.2041V177H60.1251C62.1281 177 62.9878 177.986 62.9878 179.994V180.98C62.9878 182.306 62.5705 183.19 61.7359 183.633C62.6998 184.075 63.017 185.043 63.017 186.401V188.408C62.9815 188.944 63.0526 189.482 63.2256 189.987L61.2268 189.991ZM59.1403 178.839V182.819H59.8956C60.6134 182.819 61.0515 182.483 61.0515 181.444V180.162C61.0515 179.233 60.7552 178.835 60.0709 178.835L59.1403 178.839Z" fill="#ECECEC"/>
<path d="M27.3701 162.368H26.0928L26.1612 162H29.1035L29.0313 162.368H27.7502L27.0926 166H26.7124L27.3701 162.368Z" fill="#E1E1E1"/>
<path d="M32.1149 163L29.91 166.279C29.5397 166.829 29.2578 166.999 28.8201 166.999C28.6883 167.005 28.5566 166.984 28.433 166.94C28.3094 166.896 28.1964 166.828 28.1006 166.74L28.3194 166.453C28.3881 166.522 28.4711 166.577 28.5632 166.613C28.6553 166.649 28.7543 166.667 28.8538 166.664C29.1147 166.664 29.3125 166.55 29.5481 166.194L29.7627 165.887L29.0095 163H29.4303L30.0573 165.471L31.7068 163H32.1149Z" fill="#E1E1E1"/>
<path d="M36.1243 164.228C36.1417 164.449 36.106 164.672 36.0196 164.881C35.9331 165.09 35.7977 165.282 35.6217 165.444C35.4457 165.606 35.233 165.735 34.9967 165.823C34.7604 165.911 34.5057 165.956 34.2483 165.956C33.9844 165.98 33.7185 165.932 33.4885 165.818C33.2585 165.703 33.0763 165.529 32.9679 165.321L32.5833 167H32.1143L33.0523 163.022H33.4885L33.3806 163.487C33.5452 163.329 33.7481 163.203 33.9749 163.119C34.2018 163.035 34.4471 162.995 34.6938 163.002C34.8835 162.993 35.0732 163.019 35.2507 163.077C35.4282 163.136 35.5895 163.225 35.7242 163.341C35.859 163.457 35.9642 163.595 36.0331 163.748C36.102 163.901 36.1331 164.064 36.1243 164.228V164.228ZM35.6553 164.248C35.6662 164.122 35.6446 163.996 35.592 163.879C35.5394 163.761 35.4571 163.655 35.3512 163.568C35.2452 163.481 35.1182 163.416 34.9794 163.377C34.8405 163.338 34.6933 163.326 34.5484 163.342C34.3472 163.343 34.1485 163.381 33.9646 163.451C33.7808 163.522 33.6156 163.624 33.4794 163.752C33.3431 163.88 33.2387 164.03 33.1725 164.194C33.1063 164.358 33.0797 164.532 33.0945 164.705C33.0819 164.835 33.1041 164.965 33.1594 165.086C33.2146 165.207 33.3014 165.315 33.413 165.403C33.5246 165.49 33.658 165.554 33.8028 165.589C33.9477 165.625 34.1001 165.631 34.2483 165.608C34.4473 165.604 34.6433 165.565 34.8244 165.494C35.0055 165.422 35.1679 165.32 35.3017 165.193C35.4355 165.066 35.5379 164.916 35.6028 164.754C35.6676 164.591 35.6934 164.419 35.6788 164.248H35.6553Z" fill="#E1E1E1"/>
<path d="M36.1305 164.754C36.1205 164.525 36.1568 164.297 36.2373 164.084C36.3177 163.87 36.4406 163.675 36.5983 163.511C36.7559 163.348 36.945 163.218 37.1539 163.132C37.3627 163.045 37.5869 163.003 37.8125 163.008C37.9819 162.988 38.1535 163.006 38.3156 163.059C38.4777 163.113 38.6266 163.201 38.7522 163.318C38.8779 163.435 38.9773 163.578 39.0438 163.737C39.1104 163.896 39.1424 164.068 39.1379 164.24C39.1484 164.469 39.1125 164.698 39.0324 164.913C38.9522 165.127 38.8295 165.323 38.6719 165.487C38.5142 165.652 38.325 165.782 38.1158 165.869C37.9066 165.956 37.682 165.999 37.4559 165.995C37.2865 166.011 37.1159 165.99 36.9549 165.934C36.794 165.879 36.6463 165.79 36.5214 165.673C36.3965 165.556 36.2972 165.414 36.2299 165.255C36.1626 165.097 36.1287 164.926 36.1305 164.754ZM38.7447 164.273C38.7541 164.146 38.7355 164.017 38.69 163.898C38.6445 163.779 38.5735 163.671 38.4819 163.583C38.3903 163.495 38.2806 163.428 38.1606 163.389C38.0406 163.349 37.9134 163.337 37.7882 163.353C37.614 163.355 37.442 163.393 37.2827 163.464C37.1234 163.536 36.9801 163.639 36.8618 163.769C36.7434 163.899 36.6524 164.051 36.5942 164.218C36.5361 164.385 36.5121 164.561 36.5237 164.738C36.5148 164.865 36.534 164.993 36.58 165.113C36.6259 165.232 36.6975 165.339 36.7894 165.427C36.8814 165.515 36.9914 165.581 37.1116 165.62C37.2318 165.659 37.3591 165.671 37.4842 165.654C37.6579 165.652 37.8294 165.614 37.9882 165.543C38.147 165.472 38.2898 165.368 38.4078 165.239C38.5258 165.11 38.6165 164.957 38.6745 164.791C38.7324 164.625 38.7563 164.449 38.7447 164.273V164.273Z" fill="#E1E1E1"/>
<path d="M44.1579 163.01L43.5718 165.554C43.3392 166.574 42.7159 166.997 41.6321 166.997C41.0907 167.023 40.5585 166.868 40.1436 166.566L40.4087 166.268C40.7482 166.54 41.1979 166.685 41.66 166.671C41.8342 166.687 42.0105 166.674 42.1785 166.63C42.3465 166.587 42.5027 166.515 42.638 166.418C42.7733 166.322 42.8849 166.203 42.9662 166.068C43.0475 165.933 43.0968 165.786 43.1113 165.635L43.1857 165.316C43.0177 165.477 42.8114 165.605 42.5809 165.691C42.3505 165.777 42.1013 165.818 41.8507 165.812C41.6629 165.83 41.4729 165.813 41.2934 165.762C41.1138 165.711 40.9489 165.627 40.8098 165.516C40.6706 165.406 40.5603 165.27 40.4863 165.12C40.4123 164.969 40.3763 164.806 40.3808 164.643C40.377 164.426 40.4237 164.211 40.5181 164.01C40.6125 163.809 40.7528 163.626 40.9304 163.474C41.108 163.321 41.3194 163.201 41.5518 163.12C41.7843 163.04 42.0331 163.001 42.2833 163.006C42.5527 162.982 42.824 163.032 43.058 163.151C43.2921 163.269 43.4769 163.448 43.5857 163.663L43.7253 163.026L44.1579 163.01ZM43.395 164.171C43.395 163.643 42.981 163.328 42.2879 163.328C42.0932 163.321 41.8989 163.35 41.7176 163.412C41.5363 163.474 41.372 163.568 41.2352 163.688C41.0985 163.809 40.9924 163.953 40.9238 164.111C40.8551 164.269 40.8254 164.438 40.8366 164.606C40.8366 165.135 41.2413 165.449 41.9391 165.449C42.1333 165.454 42.3265 165.424 42.5068 165.361C42.687 165.298 42.8505 165.204 42.987 165.084C43.1235 164.964 43.2301 164.821 43.3003 164.664C43.3705 164.507 43.4027 164.339 43.395 164.171V164.171Z" fill="#E1E1E1"/>
<path d="M46.1644 163.006L46.0933 163.395H45.9866C45.3821 163.395 44.9751 163.758 44.8368 164.493L44.5523 166H44.1572L44.7183 163.035H45.0818L44.987 163.576C45.1168 163.38 45.2945 163.224 45.5015 163.124C45.7085 163.024 45.9374 162.983 46.1644 163.006V163.006Z" fill="#E1E1E1"/>
<path d="M49.1758 163.006L48.6415 165.967H48.294L48.3837 165.501C48.2511 165.661 48.0892 165.788 47.9089 165.873C47.7285 165.958 47.5337 166 47.3375 165.996C47.1849 166.01 47.0315 165.987 46.8873 165.931C46.7431 165.874 46.6115 165.784 46.501 165.667C46.3905 165.551 46.3037 165.409 46.2463 165.253C46.1889 165.096 46.1622 164.928 46.168 164.759C46.1551 164.532 46.1849 164.304 46.2556 164.09C46.3263 163.876 46.4364 163.681 46.5789 163.516C46.7214 163.352 46.8932 163.221 47.0836 163.134C47.2739 163.046 47.4787 163.002 47.685 163.006C47.8942 162.982 48.1052 163.03 48.2882 163.145C48.4712 163.259 48.617 163.435 48.705 163.646L48.8171 163.027L49.1758 163.006ZM48.5742 164.243C48.583 164.115 48.5657 163.986 48.5236 163.866C48.4815 163.746 48.4156 163.637 48.3308 163.549C48.2459 163.46 48.1443 163.394 48.0332 163.354C47.9221 163.315 47.8044 163.303 47.6887 163.32C47.5284 163.322 47.3702 163.361 47.2238 163.433C47.0774 163.505 46.9458 163.609 46.8371 163.739C46.7283 163.869 46.6448 164.022 46.5914 164.189C46.538 164.356 46.516 164.533 46.5267 164.709C46.5179 164.837 46.5351 164.966 46.577 165.086C46.6189 165.205 46.6845 165.313 46.769 165.401C46.8535 165.489 46.9548 165.556 47.0654 165.595C47.176 165.634 47.2932 165.646 47.4085 165.629C47.5679 165.628 47.7254 165.591 47.8715 165.52C48.0175 165.449 48.149 165.347 48.2581 165.218C48.3671 165.09 48.4513 164.938 48.5057 164.773C48.56 164.607 48.5833 164.432 48.5742 164.256V164.243Z" fill="#E1E1E1"/>
<path d="M54.1898 164.231C54.2072 164.454 54.171 164.678 54.0835 164.889C53.9959 165.099 53.8589 165.292 53.6812 165.454C53.5034 165.617 53.2887 165.745 53.0508 165.832C52.8128 165.918 52.5568 165.961 52.2988 165.957C52.0367 165.982 51.7723 165.934 51.5438 165.82C51.3153 165.706 51.1344 165.531 51.0273 165.322L50.6454 167H50.1797L51.1112 163.026H51.5164L51.4093 163.491C51.5718 163.332 51.7725 163.207 51.997 163.123C52.2215 163.039 52.4644 162.999 52.7087 163.006C52.9019 162.989 53.097 163.009 53.2805 163.064C53.4641 163.119 53.6319 163.207 53.7725 163.324C53.913 163.44 54.0231 163.581 54.0951 163.738C54.1671 163.894 54.1994 164.062 54.1898 164.231V164.231ZM53.724 164.251C53.7348 164.125 53.7134 163.999 53.6611 163.882C53.6089 163.764 53.5272 163.658 53.422 163.572C53.3168 163.485 53.1907 163.42 53.0528 163.38C52.9149 163.341 52.7687 163.329 52.6249 163.345C52.425 163.347 52.2277 163.384 52.0451 163.455C51.8625 163.525 51.6985 163.628 51.5632 163.755C51.4279 163.883 51.3242 164.033 51.2585 164.197C51.1927 164.361 51.1664 164.535 51.181 164.708C51.1701 164.833 51.1915 164.959 51.2437 165.076C51.296 165.194 51.3778 165.299 51.4831 165.386C51.5884 165.472 51.7147 165.537 51.8526 165.576C51.9905 165.614 52.1366 165.626 52.2802 165.609C52.4806 165.609 52.6788 165.573 52.8625 165.504C53.0462 165.434 53.2114 165.332 53.3477 165.205C53.4841 165.077 53.5887 164.927 53.6551 164.763C53.7214 164.599 53.7481 164.424 53.7333 164.251H53.724Z" fill="#E1E1E1"/>
<path d="M57.2021 163.065C57.2027 163.174 57.192 163.282 57.1702 163.389L56.8434 165H56.4449L56.7717 163.381C56.7882 163.296 56.7975 163.211 56.7996 163.124C56.7996 162.73 56.5565 162.489 56.0623 162.489C55.7768 162.475 55.4968 162.57 55.2798 162.754C55.0627 162.939 54.9249 163.198 54.8947 163.48L54.5919 165H54.1934L54.9904 161H55.3889L55.0661 162.579C55.2047 162.43 55.3746 162.313 55.564 162.236C55.7534 162.159 55.9575 162.124 56.162 162.133C56.295 162.111 56.4315 162.119 56.5611 162.156C56.6907 162.193 56.81 162.26 56.9102 162.349C57.0103 162.439 57.0886 162.55 57.1391 162.674C57.1897 162.798 57.2112 162.932 57.2021 163.065V163.065Z" fill="#E1E1E1"/>
<path d="M61.2184 163L59.0135 166.279C58.639 166.829 58.3571 166.999 57.9194 166.999C57.7882 167.005 57.657 166.985 57.5341 166.94C57.4111 166.896 57.2988 166.828 57.2041 166.74L57.4187 166.453C57.4874 166.522 57.5705 166.577 57.6625 166.613C57.7546 166.649 57.8536 166.666 57.9531 166.663C58.214 166.663 58.416 166.55 58.6516 166.194L58.862 165.887L58.1088 163H58.5296L59.1566 165.471L60.8061 163H61.2184Z" fill="#E1E1E1"/>
<path d="M70.2697 37H8.02832L18.1654 44.4048V58.9723C18.1654 59.7753 18.4806 60.5454 19.0416 61.1132C19.6026 61.681 20.3636 62 21.157 62H70.2697C71.0631 62 71.824 61.681 72.385 61.1132C72.9461 60.5454 73.2612 59.7753 73.2612 58.9723V40.045C73.2635 39.6459 73.1878 39.2504 73.0385 38.881C72.8891 38.5117 72.6691 38.1759 72.3911 37.8929C72.1131 37.6099 71.7825 37.3853 71.4185 37.2321C71.0544 37.0789 70.664 37 70.2697 37Z" fill="#F5F5F5"/>
<path d="M68.2433 47.1109C68.2433 47.1706 58.7867 47.2176 47.1809 47.2176C35.5751 47.2176 26.0928 47.1706 26.0928 47.1109C26.0928 47.0512 35.5493 47 47.1809 47C58.8125 47 68.2433 47.0555 68.2433 47.1109Z" fill="#E1E1E1"/>
<path d="M68.2433 52.1109C68.2433 52.1706 58.7867 52.2176 47.1809 52.2176C35.5751 52.2176 26.0928 52.1706 26.0928 52.1109C26.0928 52.0512 35.5493 52 47.1809 52C58.8125 52 68.2433 52.0512 68.2433 52.1109Z" fill="#E1E1E1"/>
<path d="M165.591 197L135.542 196.635L130.466 171L156.514 171.314L165.591 197Z" fill="#1A2E35"/>
<path d="M174.658 195H120.395C119.306 195 118.423 195.895 118.423 197C118.423 198.105 119.306 199 120.395 199H174.658C175.748 199 176.631 198.105 176.631 197C176.631 195.895 175.748 195 174.658 195Z" fill="#1A2E35"/>
<path d="M60.0407 63H223.973C225.524 63 227.011 63.6095 228.108 64.6945C229.205 65.7794 229.821 67.2509 229.821 68.7853V169.241C229.821 170.391 229.592 171.53 229.147 172.593C228.702 173.656 228.05 174.621 227.228 175.435C226.406 176.248 225.43 176.893 224.356 177.333C223.282 177.773 222.13 178 220.968 178H63.0461C60.6982 178 58.4465 177.077 56.7863 175.435C55.1261 173.792 54.1934 171.564 54.1934 169.241V68.7853C54.1934 67.2509 54.8094 65.7794 55.906 64.6945C57.0026 63.6095 58.4899 63 60.0407 63Z" fill="#1A2E35"/>
<path d="M159.57 197L129.866 196.637L127.455 170L150.596 171.452L159.57 197Z" fill="#375A64"/>
<path d="M56.0271 63H219.96C221.51 63 222.998 63.6095 224.094 64.6945C225.191 65.7794 225.807 67.2509 225.807 68.7853V169.241C225.807 171.564 224.874 173.792 223.214 175.435C221.554 177.077 219.302 178 216.954 178H59.0324C56.6845 178 54.4328 177.077 52.7726 175.435C51.1124 173.792 50.1797 171.564 50.1797 169.241V68.7853C50.1797 67.2509 50.7957 65.7794 51.8923 64.6945C52.9889 63.6095 54.4762 63 56.0271 63Z" fill="#375A64"/>
<path d="M56.0271 63H219.96C221.51 63 222.998 63.6095 224.094 64.6943C225.191 65.7792 225.807 67.2506 225.807 68.7848V163H50.1797V68.7848C50.1797 67.2506 50.7957 65.7792 51.8923 64.6943C52.9889 63.6095 54.4762 63 56.0271 63Z" fill="#1A2E35"/>
<path d="M220.789 68H56.2012V158H220.789V68Z" fill="white"/>
<path d="M171.648 195H117.385C116.295 195 115.412 195.895 115.412 197C115.412 198.105 116.295 199 117.385 199H171.648C172.737 199 173.62 198.105 173.62 197C173.62 195.895 172.737 195 171.648 195Z" fill="#375A64"/>
<path d="M217.094 71H58.8911C57.9594 71 57.2041 71.7237 57.2041 72.6165V77.3835C57.2041 78.2763 57.9594 79 58.8911 79H217.094C218.026 79 218.781 78.2763 218.781 77.3835V72.6165C218.781 71.7237 218.026 71 217.094 71Z" fill="#E1E1E1"/>
<path d="M61.6532 77C61.5352 76.9991 61.4217 76.9482 61.3356 76.8575L59.3507 74.7162C59.3039 74.6653 59.2674 74.6038 59.2436 74.5358C59.2197 74.4678 59.2091 74.3949 59.2125 74.322C59.2159 74.249 59.2332 74.1777 59.2632 74.1129C59.2932 74.048 59.3352 73.9911 59.3864 73.946L61.4865 72.1073C61.5819 72.0244 61.7027 71.9872 61.8225 72.0039C61.9423 72.0206 62.0513 72.0898 62.1257 72.1964C62.1627 72.2487 62.19 72.3089 62.2061 72.3732C62.2221 72.4376 62.2266 72.5049 62.2192 72.5712C62.2118 72.6375 62.1927 72.7015 62.163 72.7595C62.1333 72.8174 62.0936 72.8681 62.0463 72.9087L60.359 74.3867L61.9669 76.123C62.0517 76.2189 62.0993 76.3485 62.0993 76.4836C62.0993 76.6187 62.0517 76.7483 61.9669 76.8442C61.8846 76.9403 61.772 76.9962 61.6532 77V77Z" fill="white"/>
<path d="M67.2406 76C68.3491 76 69.2477 75.1046 69.2477 74C69.2477 72.8954 68.3491 72 67.2406 72C66.132 72 65.2334 72.8954 65.2334 74C65.2334 75.1046 66.132 76 67.2406 76Z" fill="white"/>
<path d="M194.205 76.9995C194.139 77.0001 194.075 76.9876 194.014 76.9629C193.954 76.9381 193.899 76.9016 193.853 76.8555C192.156 75.1099 190.251 73.1651 189.928 72.9067C189.853 72.8639 189.79 72.8024 189.747 72.728C189.703 72.6537 189.679 72.5693 189.678 72.483C189.678 72.3549 189.729 72.232 189.819 72.1415C189.91 72.0509 190.033 72 190.161 72C190.424 72 190.505 72 194.553 76.1861C194.598 76.2306 194.634 76.2837 194.658 76.3422C194.683 76.4008 194.696 76.4636 194.696 76.5271C194.696 76.5906 194.683 76.6534 194.658 76.712C194.634 76.7705 194.598 76.8236 194.553 76.8682C194.507 76.9125 194.452 76.947 194.392 76.9696C194.332 76.9922 194.269 77.0024 194.205 76.9995Z" fill="white"/>
<path d="M190.167 76.9997C190.071 77.0016 189.977 76.9747 189.897 76.9227C189.816 76.8706 189.753 76.7956 189.716 76.7075C189.678 76.6193 189.668 76.5219 189.687 76.4279C189.705 76.3339 189.751 76.2475 189.819 76.1798C193.881 72 193.949 72 194.212 72C194.34 72 194.463 72.051 194.554 72.1418C194.645 72.2326 194.696 72.3558 194.696 72.4842C194.694 72.5707 194.671 72.6554 194.627 72.7299C194.583 72.8044 194.52 72.8662 194.445 72.909C194.123 73.1681 192.204 75.1179 190.515 76.868C190.469 76.912 190.414 76.9464 190.354 76.969C190.294 76.9916 190.231 77.002 190.167 76.9997V76.9997Z" fill="white"/>
<path d="M205.233 78H200.215C200.082 78 199.954 77.9473 199.86 77.8536C199.766 77.7598 199.713 77.6326 199.713 77.5V72.5C199.713 72.3674 199.766 72.2402 199.86 72.1464C199.954 72.0527 200.082 72 200.215 72H205.233C205.298 72 205.364 72.0129 205.425 72.0381C205.486 72.0632 205.541 72.1 205.587 72.1464C205.634 72.1929 205.671 72.248 205.696 72.3087C205.721 72.3693 205.734 72.4343 205.734 72.5V77.5C205.734 77.5657 205.721 77.6307 205.696 77.6913C205.671 77.752 205.634 77.8071 205.587 77.8536C205.541 77.9 205.486 77.9368 205.425 77.9619C205.364 77.9871 205.298 78 205.233 78ZM200.726 77H204.731V73.0091H200.726V77Z" fill="white"/>
<path d="M215.324 76.9977H210.291C210.222 77.0044 210.153 76.9965 210.088 76.9745C210.022 76.9526 209.962 76.917 209.911 76.8702C209.86 76.8233 209.819 76.7661 209.791 76.7024C209.763 76.6387 209.749 76.5697 209.749 76.5C209.749 76.4303 209.763 76.3613 209.791 76.2976C209.819 76.2338 209.86 76.1767 209.911 76.1298C209.962 76.083 210.022 76.0474 210.088 76.0255C210.153 76.0035 210.222 75.9956 210.291 76.0023H215.324C215.446 76.0143 215.56 76.0718 215.642 76.1639C215.725 76.2559 215.771 76.3757 215.771 76.5C215.771 76.6243 215.725 76.7441 215.642 76.8361C215.56 76.9281 215.446 76.9857 215.324 76.9977Z" fill="white"/>
<path d="M215.324 74.9977H210.291C210.222 75.0044 210.153 74.9965 210.088 74.9745C210.022 74.9526 209.962 74.917 209.911 74.8702C209.86 74.8233 209.819 74.7662 209.791 74.7024C209.763 74.6387 209.749 74.5697 209.749 74.5C209.749 74.4303 209.763 74.3613 209.791 74.2976C209.819 74.2338 209.86 74.1767 209.911 74.1298C209.962 74.083 210.022 74.0474 210.088 74.0255C210.153 74.0035 210.222 73.9956 210.291 74.0023H215.324C215.446 74.0143 215.56 74.0719 215.642 74.1639C215.725 74.2559 215.771 74.3757 215.771 74.5C215.771 74.6243 215.725 74.7441 215.642 74.8361C215.56 74.9281 215.446 74.9857 215.324 74.9977Z" fill="white"/>
<path d="M215.324 72.9977H210.291C210.222 73.0044 210.153 72.9965 210.088 72.9745C210.022 72.9526 209.962 72.917 209.911 72.8702C209.86 72.8233 209.819 72.7662 209.791 72.7024C209.763 72.6387 209.749 72.5697 209.749 72.5C209.749 72.4303 209.763 72.3613 209.791 72.2976C209.819 72.2339 209.86 72.1767 209.911 72.1298C209.962 72.083 210.022 72.0474 210.088 72.0255C210.153 72.0035 210.222 71.9956 210.291 72.0023H215.324C215.446 72.0143 215.56 72.0719 215.642 72.1639C215.725 72.2559 215.771 72.3757 215.771 72.5C215.771 72.6243 215.725 72.7441 215.642 72.8361C215.56 72.9282 215.446 72.9857 215.324 72.9977Z" fill="white"/>
<path d="M215.529 81H61.4605C59.6642 81 58.208 82.4461 58.208 84.2299V152.77C58.208 154.554 59.6642 156 61.4605 156H215.529C217.325 156 218.781 154.554 218.781 152.77V84.2299C218.781 82.4461 217.325 81 215.529 81Z" fill="#EDDFDA"/>
<path d="M216.774 84H60.2148V154H216.774V84Z" fill="white"/>
<path d="M212.76 87H124.444V109H212.76V87Z" fill="#D7EBD7"/>
<path d="M200.717 90H127.455V97H200.717V90Z" fill="white"/>
<path d="M177.634 99H127.455V102H177.634V99Z" fill="white"/>
<path d="M198.71 99H180.646V102H198.71V99Z" fill="white"/>
<path d="M210.753 99H200.717V102H210.753V99Z" fill="white"/>
<path d="M119.427 87H62.2227V151H119.427V87Z" fill="#D4F1FB"/>
<path d="M120.43 99H61.2188V102H120.43V99Z" fill="white"/>
<path d="M120.43 112H61.2188V115H120.43V112Z" fill="white"/>
<path d="M120.43 125H61.2188V128H120.43V125Z" fill="white"/>
<path d="M120.43 138H61.2188V141H120.43V138Z" fill="white"/>
<path d="M113.976 95.9999C113.852 95.9989 113.733 95.9429 113.646 95.8441C113.561 95.7482 113.514 95.6186 113.514 95.4835C113.514 95.3484 113.561 95.2188 113.646 95.1229L115.253 93.3911L113.579 91.9131C113.485 91.829 113.424 91.7069 113.409 91.5729C113.394 91.4389 113.426 91.3038 113.499 91.1964C113.574 91.0898 113.683 91.0206 113.802 91.0039C113.922 90.9872 114.043 91.0244 114.138 91.1073L116.242 92.9459C116.293 92.9911 116.335 93.048 116.365 93.1128C116.395 93.1777 116.412 93.249 116.415 93.3219C116.419 93.3949 116.408 93.4678 116.384 93.5358C116.361 93.6038 116.324 93.6653 116.277 93.7161L114.293 95.8575C114.251 95.9037 114.202 95.9402 114.147 95.9647C114.093 95.9891 114.034 96.0011 113.976 95.9999V95.9999Z" fill="white"/>
<path d="M115.051 109C114.911 108.999 114.776 108.949 114.678 108.862L112.516 106.884C112.435 106.795 112.394 106.683 112.402 106.57C112.41 106.456 112.466 106.349 112.56 106.27C112.653 106.191 112.776 106.146 112.905 106.143C113.035 106.14 113.16 106.18 113.258 106.255L115.01 107.861L116.502 106.176C116.543 106.129 116.594 106.089 116.653 106.059C116.711 106.03 116.776 106.011 116.843 106.003C116.91 105.996 116.978 106.001 117.043 106.017C117.108 106.033 117.168 106.06 117.221 106.097C117.329 106.171 117.399 106.279 117.415 106.399C117.432 106.518 117.395 106.638 117.311 106.733L115.455 108.83C115.41 108.881 115.353 108.923 115.288 108.952C115.223 108.981 115.151 108.998 115.078 109H115.051Z" fill="white"/>
<path d="M115.08 135C114.941 134.999 114.809 134.949 114.711 134.862L112.576 132.884C112.523 132.842 112.48 132.791 112.45 132.734C112.42 132.677 112.403 132.615 112.402 132.552C112.4 132.489 112.413 132.427 112.44 132.368C112.466 132.31 112.507 132.257 112.558 132.214C112.609 132.17 112.669 132.136 112.736 132.114C112.802 132.092 112.873 132.083 112.943 132.087C113.014 132.091 113.083 132.108 113.146 132.137C113.209 132.166 113.264 132.206 113.309 132.255L115.04 133.861L116.513 132.176C116.554 132.129 116.604 132.089 116.662 132.059C116.72 132.03 116.784 132.011 116.85 132.003C116.916 131.996 116.983 132.001 117.047 132.017C117.111 132.033 117.171 132.06 117.224 132.097C117.33 132.171 117.399 132.279 117.415 132.399C117.432 132.518 117.395 132.638 117.312 132.733L115.479 134.83C115.435 134.881 115.378 134.923 115.314 134.952C115.25 134.981 115.179 134.998 115.106 135H115.08Z" fill="white"/>
<path d="M115.063 147.996C114.924 147.995 114.79 147.945 114.692 147.858L112.543 145.881C112.497 145.838 112.46 145.788 112.436 145.732C112.412 145.677 112.4 145.618 112.401 145.559C112.403 145.5 112.418 145.441 112.445 145.387C112.472 145.333 112.51 145.283 112.559 145.242C112.607 145.201 112.664 145.169 112.727 145.148C112.789 145.126 112.856 145.116 112.923 145.117C112.99 145.118 113.056 145.131 113.117 145.155C113.179 145.179 113.234 145.213 113.28 145.256L115.023 146.857L116.506 145.173C116.59 145.079 116.712 145.018 116.847 145.003C116.981 144.989 117.117 145.022 117.223 145.096C117.33 145.17 117.399 145.278 117.416 145.397C117.432 145.516 117.394 145.636 117.311 145.731L115.465 147.826C115.42 147.877 115.364 147.919 115.299 147.949C115.234 147.979 115.163 147.996 115.09 148L115.063 147.996Z" fill="white"/>
<path d="M115.08 122C115.011 122 114.943 121.988 114.879 121.965C114.816 121.941 114.759 121.906 114.711 121.862L112.576 119.884C112.523 119.842 112.48 119.791 112.45 119.734C112.42 119.677 112.403 119.615 112.402 119.552C112.4 119.489 112.413 119.427 112.44 119.368C112.466 119.31 112.507 119.257 112.558 119.214C112.609 119.17 112.669 119.136 112.736 119.114C112.802 119.092 112.873 119.083 112.943 119.087C113.014 119.091 113.083 119.108 113.146 119.137C113.209 119.166 113.264 119.206 113.309 119.255L115.04 120.861L116.513 119.176C116.554 119.129 116.604 119.089 116.662 119.059C116.72 119.03 116.784 119.011 116.85 119.003C116.916 118.996 116.983 119.001 117.047 119.017C117.111 119.033 117.171 119.06 117.224 119.097C117.33 119.171 117.399 119.279 117.415 119.399C117.432 119.518 117.395 119.638 117.312 119.733L115.479 121.826C115.434 121.877 115.378 121.919 115.314 121.949C115.249 121.979 115.179 121.996 115.106 122H115.08Z" fill="white"/>
<path d="M189.677 112H124.444V118H189.677V112Z" fill="#FFF5CD"/>
<path d="M212.76 112H192.688V118H212.76V112Z" fill="#F5F0EE"/>
<path d="M206.738 96C206.143 96 205.56 95.8239 205.065 95.4941C204.57 95.1643 204.184 94.6955 203.956 94.147C203.729 93.5986 203.669 92.9952 203.786 92.4131C203.902 91.8311 204.189 91.2965 204.611 90.8771C205.032 90.4577 205.569 90.1724 206.154 90.0571C206.738 89.9419 207.343 90.0019 207.894 90.2296C208.444 90.4574 208.913 90.8426 209.244 91.3365C209.574 91.8304 209.75 92.4108 209.749 93.0044C209.748 93.7993 209.43 94.5612 208.866 95.1229C208.301 95.6845 207.536 96 206.738 96V96ZM206.738 91.0058C206.342 91.0058 205.954 91.123 205.624 91.3426C205.294 91.5623 205.037 91.8744 204.885 92.2396C204.733 92.6048 204.694 93.0066 204.771 93.3943C204.849 93.7819 205.04 94.1381 205.32 94.4176C205.601 94.6971 205.958 94.8874 206.347 94.9645C206.736 95.0416 207.139 95.0021 207.506 94.8508C207.872 94.6995 208.186 94.4434 208.406 94.1147C208.626 93.786 208.744 93.3996 208.744 93.0044C208.744 92.4743 208.533 91.966 208.157 91.5912C207.78 91.2164 207.27 91.0058 206.738 91.0058V91.0058Z" fill="white"/>
<path d="M209.36 97C209.306 96.9996 209.253 96.9834 209.203 96.9523C209.154 96.9211 209.109 96.8758 209.072 96.819L207.851 94.969C207.778 94.8583 207.739 94.7106 207.742 94.5583C207.745 94.4061 207.79 94.2617 207.867 94.1571C207.943 94.0524 208.045 93.996 208.151 94.0002C208.256 94.0045 208.356 94.069 208.428 94.1797L209.639 96.0297C209.693 96.111 209.729 96.2135 209.743 96.3244C209.757 96.4353 209.748 96.5497 209.717 96.6533C209.686 96.7569 209.635 96.845 209.57 96.9067C209.504 96.9683 209.428 97.0008 209.35 97H209.36Z" fill="white"/>
<path d="M128.459 128H124.444V151H128.459V128Z" fill="#0059DF"/>
<path d="M133.476 140H129.462V151H133.476V140Z" fill="#FC81B3"/>
<path d="M149.534 140H145.52V151H149.534V140Z" fill="#FC81B3"/>
<path d="M166.595 133H162.581V151H166.595V133Z" fill="#FC81B3"/>
<path d="M145.52 127H141.506V151H145.52V127Z" fill="#0059DF"/>
<path d="M162.581 124H158.566V151H162.581V124Z" fill="#0059DF"/>
<path d="M178.638 140H174.624V151H178.638V140Z" fill="#0059DF"/>
<path d="M193.692 143H189.678V151H193.692V143Z" fill="#0059DF"/>
<path d="M207.742 148H203.728V151H207.742V148Z" fill="#0059DF"/>
<path d="M182.652 145H178.638V151H182.652V145Z" fill="#FC81B3"/>
<path d="M197.706 147H193.691V151H197.706V147Z" fill="#FC81B3"/>
<path d="M212.759 144H208.745V151H212.759V144Z" fill="#FC81B3"/>
<path d="M146.086 17.3084C144.072 8.76634 135.695 3.43939 127.339 5.40963C118.983 7.37988 113.834 15.9004 115.849 24.4424C116.324 26.4996 117.2 28.4418 118.427 30.157C119.655 31.8722 121.208 33.3263 122.998 34.4353V34.4353C122.998 34.4353 126.779 37.5259 127.63 38.775C128.132 39.6612 128.517 40.6092 128.776 41.5951C129.025 42.4203 129.578 43.119 130.322 43.5489C131.067 43.9788 131.947 44.1075 132.782 43.9088L138.769 42.4965C139.612 42.298 140.348 41.7832 140.825 41.0577C141.302 40.3322 141.484 39.4509 141.335 38.5947C141.16 37.7569 141.104 36.8985 141.168 36.045C141.437 34.358 144.093 29.5118 144.093 29.5118C145.217 27.7128 145.972 25.7069 146.314 23.6115C146.656 21.5162 146.578 19.3733 146.086 17.3084V17.3084Z" fill="#FCD844"/>
<path d="M127.041 3.99067C126.977 4.00188 126.911 4.003 126.846 3.99397C126.782 3.98495 126.72 3.96595 126.666 3.93811C126.611 3.91026 126.563 3.87413 126.527 3.83184C126.49 3.78955 126.464 3.74196 126.452 3.69185L125.469 0.50447C125.449 0.451774 125.443 0.396242 125.453 0.341663C125.462 0.287083 125.487 0.234738 125.524 0.188196C125.562 0.141655 125.612 0.102011 125.671 0.0719674C125.731 0.0419241 125.797 0.0221876 125.867 0.0141036C125.932 -9.57536e-05 126.001 -0.00362213 126.068 0.00374599C126.135 0.0111141 126.199 0.0292175 126.257 0.0569192C126.314 0.0846209 126.364 0.121322 126.403 0.164718C126.441 0.208114 126.468 0.257267 126.481 0.30909L127.439 3.49647C127.456 3.5471 127.46 3.59997 127.45 3.65182C127.44 3.70367 127.417 3.7534 127.382 3.79793C127.346 3.84246 127.299 3.88084 127.244 3.9107C127.189 3.94055 127.126 3.96126 127.06 3.97152L127.041 3.99067Z" fill="#FCD844"/>
<path d="M133.992 3.98655C133.921 4.00448 133.846 4.00448 133.774 3.98655C133.72 3.97114 133.669 3.9455 133.626 3.91119C133.582 3.87689 133.546 3.83463 133.521 3.78703C133.495 3.73942 133.48 3.68745 133.477 3.63431C133.474 3.58116 133.482 3.52796 133.502 3.47796L134.625 0.285575C134.66 0.181816 134.739 0.0954965 134.842 0.0456059C134.946 -0.00428471 135.067 -0.0136598 135.178 0.019543C135.289 0.0527458 135.381 0.125807 135.435 0.222653C135.488 0.3195 135.498 0.432199 135.463 0.535957L134.34 3.71269C134.316 3.78476 134.271 3.84894 134.209 3.89753C134.148 3.94611 134.072 3.97702 133.992 3.98655V3.98655Z" fill="#FCD844"/>
<path d="M141.03 6.99035C140.943 7.00904 140.851 7.00044 140.769 6.96571C140.686 6.93098 140.617 6.8718 140.569 6.79618C140.521 6.72056 140.498 6.63215 140.502 6.54292C140.507 6.45369 140.539 6.36795 140.593 6.2973L142.681 3.20692C142.713 3.1562 142.754 3.11244 142.803 3.07834C142.852 3.04425 142.908 3.02054 142.966 3.0087C143.025 2.99685 143.085 2.99711 143.144 3.00946C143.202 3.02182 143.257 3.046 143.306 3.08052C143.357 3.11217 143.401 3.15401 143.435 3.20343C143.47 3.25285 143.493 3.30877 143.505 3.3677C143.516 3.42663 143.515 3.48729 143.502 3.54588C143.489 3.60447 143.464 3.65972 143.428 3.70818L141.319 6.78549C141.287 6.83782 141.246 6.88308 141.196 6.91836C141.146 6.95364 141.09 6.97817 141.03 6.99035V6.99035Z" fill="#FCD844"/>
<path d="M146.047 11.9922C145.959 12.0095 145.868 11.9978 145.786 11.9584C145.705 11.9191 145.636 11.854 145.589 11.7717C145.557 11.7189 145.535 11.6596 145.526 11.5975C145.516 11.5354 145.518 11.4717 145.532 11.4106C145.546 11.3494 145.571 11.2919 145.607 11.2418C145.642 11.1917 145.686 11.15 145.737 11.1193L148.862 9.07476C148.911 9.0403 148.965 9.01706 149.023 9.0065C149.08 8.99594 149.139 8.99827 149.196 9.01335C149.252 9.02843 149.305 9.05594 149.352 9.09417C149.398 9.1324 149.436 9.18053 149.465 9.23556C149.497 9.28833 149.518 9.34763 149.528 9.40976C149.538 9.47189 149.535 9.53553 149.522 9.59672C149.508 9.65792 149.482 9.71535 149.447 9.76546C149.412 9.81556 149.367 9.85727 149.316 9.88798L146.213 11.9233C146.162 11.9574 146.106 11.9808 146.047 11.9922V11.9922Z" fill="#FCD844"/>
<path d="M149.004 17.9876C148.953 18.0029 148.901 18.004 148.85 17.991C148.799 17.978 148.751 17.951 148.707 17.9117C148.664 17.8724 148.627 17.8217 148.599 17.7624C148.57 17.7032 148.551 17.6367 148.542 17.5671C148.529 17.4968 148.527 17.4237 148.535 17.3523C148.544 17.2808 148.564 17.2126 148.593 17.1519C148.621 17.0912 148.659 17.0393 148.704 16.9994C148.748 16.9596 148.798 16.9327 148.85 16.9204L152.073 16.0109C152.175 15.9824 152.281 16.0103 152.368 16.0887C152.455 16.1671 152.516 16.2895 152.537 16.4289C152.558 16.5683 152.537 16.7134 152.48 16.8322C152.422 16.951 152.333 17.0338 152.231 17.0624L149.008 17.9719L149.004 17.9876Z" fill="#FCD844"/>
<path d="M152.216 25.9872C152.15 26.0043 152.081 26.0043 152.015 25.9872L148.818 24.8738C148.766 24.8562 148.719 24.8277 148.677 24.7899C148.636 24.7522 148.602 24.706 148.577 24.6539C148.552 24.6018 148.537 24.5449 148.532 24.4863C148.527 24.4278 148.533 24.3689 148.549 24.3129C148.565 24.2569 148.592 24.2049 148.626 24.1599C148.661 24.1149 148.704 24.0777 148.752 24.0506C148.799 24.0235 148.852 24.0068 148.906 24.0017C148.959 23.9966 149.014 24.003 149.065 24.0207L152.259 25.1298C152.311 25.1457 152.359 25.173 152.4 25.21C152.442 25.247 152.476 25.2929 152.501 25.3449C152.526 25.397 152.54 25.4539 152.544 25.5123C152.547 25.5707 152.54 25.6293 152.522 25.6843C152.502 25.7608 152.462 25.8297 152.408 25.8832C152.354 25.9367 152.287 25.9728 152.216 25.9872V25.9872Z" fill="#FCD844"/>
<path d="M150.179 32.992C150.078 33.0123 149.975 32.9937 149.885 32.9391L146.75 30.939C146.7 30.9089 146.655 30.8672 146.618 30.8165C146.582 30.7657 146.555 30.707 146.54 30.644C146.524 30.5809 146.52 30.5149 146.527 30.4499C146.534 30.3848 146.553 30.3222 146.583 30.2659C146.608 30.2066 146.645 30.1541 146.689 30.1116C146.734 30.0691 146.785 30.0376 146.841 30.0191C146.896 30.0006 146.955 29.9955 147.012 30.004C147.069 30.0126 147.125 30.0346 147.174 30.0688L150.309 32.0689C150.36 32.0989 150.406 32.1408 150.442 32.1919C150.479 32.243 150.506 32.3023 150.522 32.3659C150.538 32.4295 150.542 32.4962 150.534 32.5617C150.526 32.6273 150.507 32.6903 150.477 32.7468C150.445 32.8096 150.402 32.8639 150.351 32.9062C150.299 32.9485 150.241 32.9777 150.179 32.992V32.992Z" fill="#FCD844"/>
<path d="M120.111 5.99218C120.049 6.00505 119.984 6.002 119.924 5.98331C119.863 5.96462 119.808 5.93091 119.765 5.88539L117.531 3.65026C117.495 3.61472 117.467 3.57257 117.448 3.52622C117.429 3.47988 117.419 3.43024 117.419 3.38015C117.419 3.33006 117.429 3.28049 117.449 3.23427C117.468 3.18806 117.497 3.14611 117.533 3.11081C117.569 3.07551 117.611 3.04755 117.658 3.02854C117.705 3.00953 117.755 2.99983 117.806 3C117.857 3.00017 117.907 3.01021 117.953 3.02954C118 3.04886 118.043 3.0771 118.078 3.11265L120.312 5.35146C120.349 5.38591 120.379 5.42754 120.399 5.47378C120.419 5.52001 120.43 5.56987 120.43 5.62027C120.43 5.67067 120.419 5.72053 120.399 5.76677C120.379 5.813 120.349 5.85463 120.312 5.88908C120.256 5.94178 120.186 5.97757 120.111 5.99218V5.99218Z" fill="#FCD844"/>
<path d="M116.044 11.9919C115.941 12.0129 115.835 11.9927 115.744 11.9346L112.625 9.92081C112.575 9.88948 112.531 9.84734 112.496 9.79681C112.46 9.74627 112.434 9.68833 112.418 9.6263C112.402 9.56426 112.398 9.49933 112.404 9.43524C112.411 9.37114 112.428 9.30912 112.456 9.25271C112.512 9.13881 112.606 9.0547 112.717 9.0189C112.772 9.00118 112.829 8.99585 112.886 9.00321C112.943 9.01058 112.998 9.03049 113.048 9.06183L116.192 11.0757C116.243 11.1063 116.288 11.1486 116.324 11.1997C116.36 11.2508 116.386 11.3097 116.401 11.3728C116.416 11.4358 116.42 11.5017 116.411 11.5664C116.403 11.631 116.383 11.693 116.352 11.7485C116.321 11.8133 116.277 11.8689 116.223 11.9111C116.17 11.9534 116.108 11.981 116.044 11.9919V11.9919Z" fill="#FCD844"/>
<path d="M113.965 17.9959C113.92 18.0014 113.874 18.0014 113.829 17.9959L109.839 17.7413C109.775 17.7392 109.711 17.7269 109.653 17.7052C109.595 17.6834 109.544 17.6527 109.502 17.615C109.46 17.5773 109.429 17.5334 109.41 17.486C109.392 17.4386 109.386 17.3888 109.394 17.3397C109.397 17.2906 109.414 17.2426 109.443 17.1986C109.471 17.1546 109.512 17.1155 109.561 17.0839C109.61 17.0523 109.667 17.0288 109.729 17.0148C109.791 17.0008 109.855 16.9967 109.919 17.0027L113.913 17.2572C114.038 17.252 114.16 17.2848 114.252 17.3483C114.345 17.4119 114.401 17.501 114.408 17.5961C114.415 17.6912 114.372 17.7845 114.289 17.8554C114.206 17.9264 114.089 17.9692 113.965 17.9744V17.9959Z" fill="#FCD844"/>
<path d="M109.877 26.9876C109.774 27.0165 109.666 26.9943 109.577 26.9259C109.488 26.8575 109.424 26.7485 109.401 26.6228C109.377 26.4971 109.395 26.3652 109.451 26.2559C109.507 26.1466 109.596 26.0689 109.699 26.04L112.898 25.0119C113 24.9845 113.107 25.0048 113.198 25.0687C113.289 25.1326 113.357 25.2357 113.389 25.3578C113.404 25.42 113.409 25.4854 113.402 25.5498C113.396 25.6143 113.379 25.6764 113.352 25.7324C113.325 25.7884 113.289 25.837 113.246 25.8752C113.203 25.9135 113.154 25.9406 113.103 25.9548L109.904 26.9876H109.877Z" fill="#FCD844"/>
<path d="M114.017 32.9914C113.935 33.0051 113.85 33.0024 113.769 32.9835C113.689 32.9646 113.617 32.9302 113.559 32.8837C113.511 32.8489 113.472 32.8069 113.445 32.7602C113.419 32.7136 113.405 32.6632 113.405 32.6124C113.405 32.5615 113.419 32.5112 113.445 32.4645C113.472 32.4179 113.511 32.3758 113.559 32.3411L116.542 30.1112C116.591 30.0751 116.648 30.0467 116.712 30.0276C116.775 30.0086 116.842 29.9992 116.91 30.0001C116.978 30.0009 117.045 30.012 117.108 30.0327C117.17 30.0533 117.227 30.0832 117.274 30.1205C117.321 30.1579 117.358 30.202 117.383 30.2503C117.408 30.2986 117.421 30.3502 117.42 30.4021C117.418 30.4541 117.404 30.5053 117.377 30.553C117.35 30.6006 117.311 30.6437 117.262 30.6799L114.274 32.9097C114.201 32.9556 114.111 32.984 114.017 32.9914Z" fill="#FCD844"/>
<path d="M119.967 39.9916C119.908 40.0034 119.848 40.0028 119.789 39.9899C119.731 39.977 119.676 39.952 119.627 39.9166C119.577 39.8842 119.534 39.8418 119.501 39.792C119.468 39.7422 119.445 39.686 119.434 39.627C119.423 39.5679 119.424 39.5072 119.437 39.4485C119.45 39.3899 119.475 39.3346 119.51 39.2859L121.615 36.1989C121.682 36.0989 121.786 36.0302 121.904 36.0078C122.021 35.9855 122.143 36.0114 122.241 36.0798C122.34 36.1482 122.408 36.2536 122.43 36.3727C122.452 36.4918 122.426 36.6149 122.359 36.7149L120.254 39.8019C120.221 39.8516 120.179 39.894 120.129 39.9266C120.08 39.9592 120.025 39.9813 119.967 39.9916V39.9916Z" fill="#FCD844"/>
<path d="M134.846 43.9917C134.788 44.0032 134.729 44.0028 134.671 43.9904C134.613 43.978 134.559 43.9539 134.511 43.9197C134.463 43.8855 134.423 43.8418 134.393 43.7915C134.363 43.7411 134.343 43.6852 134.336 43.6272C134.311 43.4534 132.073 29.7601 127.345 24.4158C124.974 25.5474 123.238 25.8017 121.811 25.2634C120.551 24.776 120.371 24.0895 120.444 23.6021C120.615 22.479 122.373 21.5212 123.067 21.483C124.734 21.3474 126.213 22.0933 127.512 23.3817L128.026 23.1105C128.911 22.6335 129.758 22.0909 130.56 21.4873C130.009 21.1719 129.584 20.6778 129.36 20.0887C129.289 19.7415 129.312 19.3818 129.428 19.0467C129.544 18.7115 129.748 18.4129 130.02 18.1815C130.216 17.9884 130.461 17.8513 130.73 17.7849C130.999 17.7185 131.281 17.7252 131.546 17.8043C131.974 17.9569 132.527 18.4019 132.729 19.6649C132.81 20.1819 132.592 20.7286 132.052 21.3262C132.457 21.518 132.877 21.6795 133.307 21.8094C133.699 21.9256 134.099 22.0148 134.503 22.0764C134.769 19.5971 135.451 17.7408 136.788 17.1644C137.391 16.9561 138.047 16.9455 138.656 17.134C139.266 17.3225 139.799 17.7002 140.175 18.2112C140.496 18.7028 141.032 20.0336 139.176 21.7543C138.646 22.2103 138.03 22.5576 137.363 22.7759C136.696 22.9942 135.992 23.0791 135.292 23.0257C134.962 28.9591 136.651 38.4567 137.645 42.877C137.658 42.9327 137.66 42.9903 137.65 43.0465C137.64 43.1027 137.619 43.1564 137.588 43.2047C137.557 43.2529 137.517 43.2946 137.47 43.3275C137.423 43.3603 137.37 43.3837 137.313 43.3962C137.2 43.4215 137.08 43.4011 136.982 43.3395C136.883 43.2779 136.814 43.1802 136.788 43.0678C136.402 41.3471 133.959 30.1034 134.435 22.9494C133.97 22.8824 133.511 22.779 133.063 22.64C132.48 22.4659 131.915 22.2389 131.374 21.9619C130.461 22.6777 129.482 23.3077 128.451 23.8436L128.125 24.0174C132.956 29.688 135.095 42.7753 135.211 43.4873C135.222 43.5443 135.222 43.603 135.21 43.6599C135.198 43.7167 135.174 43.7705 135.139 43.8178C135.105 43.8651 135.062 43.9049 135.011 43.9349C134.961 43.9648 134.905 43.9841 134.846 43.9917V43.9917ZM123.067 22.3349C122.608 22.4196 121.395 23.1359 121.309 23.7123C121.258 24.0471 121.798 24.3056 122.12 24.4327C123.238 24.8566 124.692 24.6489 126.68 23.7504C125.613 22.7714 124.426 22.2205 123.123 22.3264L123.067 22.3349ZM135.356 22.1526C135.935 22.1974 136.517 22.1288 137.069 21.9506C137.62 21.7724 138.131 21.4882 138.571 21.1143C139.557 20.2073 139.857 19.347 139.429 18.6901C139.17 18.3492 138.809 18.0967 138.398 17.9676C137.987 17.8384 137.546 17.8392 137.135 17.9696C136.102 18.4104 135.562 19.9785 135.352 22.1526H135.356ZM131.01 18.6011C130.858 18.6356 130.719 18.7104 130.607 18.8172C130.455 18.9443 130.339 19.1085 130.27 19.2936C130.202 19.4787 130.183 19.6783 130.217 19.8725C130.273 20.1099 130.646 20.4871 131.25 20.8727C131.82 20.3048 131.876 19.9573 131.85 19.7878C131.747 19.1393 131.529 18.7113 131.246 18.6138C131.17 18.5878 131.088 18.5834 131.01 18.6011Z" fill="white"/>
<path d="M139.33 40.9305L132.35 42.5601C131.309 42.803 130.672 43.8716 130.926 44.9467C131.18 46.0219 132.23 46.6965 133.27 46.4535L140.25 44.824C141.291 44.581 141.928 43.5125 141.674 42.4374C141.42 41.3622 140.371 40.6876 139.33 40.9305Z" fill="#AAD0F2"/>
<path d="M133.477 49L141.294 47.175L141.451 47.8402C141.581 48.392 141.609 48.962 141.533 49.5176C141.457 50.0732 141.279 50.6036 141.008 51.0785C140.738 51.5534 140.38 51.9634 139.956 52.2853C139.531 52.6072 139.049 52.8345 138.535 52.9543V52.9543C137.499 53.1963 136.4 52.9858 135.481 52.369C134.562 51.7521 133.897 50.7796 133.634 49.6653L133.477 49V49Z" fill="#AAD0F2"/>
<path d="M140.29 43.175L132.473 45L133.623 49.8668L141.44 48.0418L140.29 43.175Z" fill="#AAD0F2"/>
<path d="M141.007 46.1454L133.263 47.977C133.105 48.0201 132.935 48.0021 132.79 47.9269C132.645 47.8516 132.536 47.725 132.486 47.5736V47.5736C132.469 47.4957 132.468 47.4153 132.483 47.337C132.498 47.2587 132.529 47.1841 132.574 47.1174C132.619 47.0506 132.677 46.9932 132.746 46.9482C132.814 46.9033 132.89 46.8717 132.971 46.8554L140.719 45.0238C140.876 44.9797 141.046 44.9973 141.19 45.0728C141.335 45.1483 141.443 45.2755 141.491 45.4272V45.4272C141.508 45.5051 141.509 45.5855 141.494 45.6638C141.479 45.7421 141.448 45.8167 141.403 45.8834C141.358 45.9501 141.3 46.0076 141.232 46.0526C141.164 46.0975 141.087 46.1291 141.007 46.1454V46.1454Z" fill="#AAD0F2"/>
<path d="M141.006 48.1466L133.263 49.9752C133.105 50.0204 132.934 50.0034 132.789 49.928C132.643 49.8525 132.535 49.7247 132.486 49.5724V49.5724C132.452 49.4149 132.483 49.2505 132.574 49.1153C132.665 48.9801 132.808 48.8852 132.971 48.8514L140.718 47.0228C140.876 46.9799 141.044 46.998 141.189 47.0732C141.333 47.1484 141.441 47.2748 141.49 47.4256V47.4256C141.508 47.5036 141.51 47.5843 141.495 47.6629C141.48 47.7415 141.449 47.8165 141.404 47.8836C141.359 47.9507 141.301 48.0084 141.232 48.0536C141.164 48.0987 141.087 48.1303 141.006 48.1466V48.1466Z" fill="#AAD0F2"/>
<path d="M141.99 50.1454L134.267 51.977C134.108 52.0201 133.939 52.0021 133.794 51.9269C133.649 51.8516 133.54 51.725 133.49 51.5736V51.5736C133.456 51.4159 133.488 51.2517 133.579 51.1166C133.669 50.9815 133.811 50.8862 133.974 50.8514L141.723 49.0238C141.881 48.9797 142.05 48.9973 142.195 49.0728C142.34 49.1483 142.448 49.2755 142.496 49.4272V49.4272C142.513 49.5065 142.513 49.5883 142.497 49.6677C142.48 49.7471 142.448 49.8225 142.4 49.8895C142.353 49.9565 142.293 50.0136 142.222 50.0576C142.152 50.1015 142.073 50.1314 141.99 50.1454V50.1454Z" fill="#AAD0F2"/>
<path d="M201.721 126.01L206.156 131.33C206.395 131.615 206.717 131.823 207.082 131.927C207.446 132.03 207.835 132.024 208.195 131.909C208.556 131.793 208.871 131.574 209.099 131.281C209.327 130.988 209.456 130.635 209.47 130.269L209.749 123L201.721 126.01Z" fill="#2E2E2E"/>
<path d="M240.085 58.4828C237.9 68.2383 230.31 76.3064 224.182 73.3986C216.609 69.8013 216.956 64.7523 219.136 54.9841C221.317 45.2158 226.604 39.7214 233.205 41.2545C239.806 42.7877 242.265 48.7146 240.085 58.4828Z" fill="#C6EDFF"/>
<path d="M146.992 65.5468C144.385 64.8766 141.657 64.8217 139.025 65.3864C130.737 67.3197 131.287 78.2439 135.308 83.8073C139.884 90.1389 150.739 92.7138 157.927 89.8139C164.693 87.0828 162.93 79.354 159.843 74.4111C157.196 70.1689 152.236 66.8173 146.992 65.5468Z" fill="#C6EDFF"/>
<path d="M223.917 105.848C221.465 113.402 215.39 123.368 205.158 126.075C196.308 128.419 187.734 126.096 180.316 121.497C177.494 119.73 174.851 117.693 172.425 115.414C170.142 113.278 168.027 110.971 166.098 108.512C165.599 107.877 165.113 107.233 164.64 106.564C164.214 105.976 163.8 105.379 163.399 104.774C161.982 102.657 160.701 100.453 159.562 98.175L159.477 98.0045C157.722 94.4506 156.329 90.7289 155.32 86.8958C154.739 84.6789 154.296 82.4281 153.994 80.1564C152.745 70.6931 154.063 60.974 158.705 52.2482C163.293 43.6119 171.406 37.4266 180.759 34.4725C199.245 28.6283 215.718 41.0713 222.595 56.0974C223.237 57.5093 223.789 58.96 224.249 60.4412C224.95 62.7105 225.488 65.0268 225.861 67.3724C226.415 70.8633 226.724 74.3887 226.786 77.9227C226.85 80.8086 226.786 83.6433 226.637 86.3118C226.415 90.4552 225.997 94.2064 225.605 97.1733C225.37 98.9253 225.144 100.404 224.97 101.526C224.734 102.992 224.382 104.437 223.917 105.848V105.848Z" fill="url(#paint0_linear_437_2176)"/>
<path d="M191.097 21.2507C187.952 20.2484 184.845 22.3826 183.575 25.316C182.884 26.978 182.574 28.7814 182.669 30.5865C182.728 32.1634 182.791 34.682 183.965 35.8355C184.032 35.8995 184.112 35.9469 184.2 35.974C184.288 36.001 184.38 36.0071 184.47 35.9917C184.56 35.9762 184.646 35.9397 184.721 35.885C184.795 35.8302 184.856 35.7586 184.9 35.6757C185.395 34.5222 184.967 33.0836 184.82 31.8826C184.604 30.4068 184.629 28.9042 184.896 27.4372C185.491 24.6291 187.751 22.1104 190.766 22.8362C191.764 23.0609 192.058 21.5531 191.097 21.2507Z" fill="#2E2E2E"/>
<path d="M175.373 33.5155C174.426 32.1115 173.133 30.9544 171.61 30.147C169.959 29.3044 168.1 28.9132 166.235 29.0161C164.715 29.0931 162.535 29.385 161.655 30.7064C161.411 31.0753 161.785 31.4644 162.164 31.4806C163.528 31.5414 164.9 30.7632 166.315 30.7226C167.821 30.6719 169.313 31.0074 170.64 31.6947C171.967 32.382 173.081 33.3964 173.867 34.6343C174.523 35.6476 174.814 37.0299 175.668 37.877C175.722 37.9251 175.787 37.9605 175.858 37.9807C175.929 38.0009 176.003 38.0053 176.076 37.9936C176.148 37.9819 176.217 37.9543 176.277 37.913C176.337 37.8718 176.387 37.8179 176.422 37.7554C177.045 36.4137 176.152 34.6586 175.373 33.5155Z" fill="#2E2E2E"/>
<path d="M209.582 52.8122C210.394 51.3661 210.07 49.6497 208.859 48.9785C207.648 48.3073 206.009 48.9355 205.197 50.3816C204.385 51.8277 204.709 53.5441 205.92 54.2153C207.131 54.8865 208.771 54.2583 209.582 52.8122Z" fill="#EB8757"/>
<path d="M168.899 62.3726C169.145 61.2955 168.029 60.1262 166.407 59.7609C164.785 59.3956 163.271 59.9726 163.026 61.0497C162.78 62.1268 163.896 63.2961 165.518 63.6615C167.14 64.0268 168.653 63.4498 168.899 62.3726Z" fill="#EB8757"/>
<path d="M182.781 118C179.581 118.828 179.297 125.564 179.891 127.836C180.458 129.988 182.25 130.997 183.816 128.663C185.107 126.719 186.028 124.586 186.54 122.357C187.03 119.783 186.166 119.221 182.781 118Z" fill="url(#paint1_linear_437_2176)"/>
<path d="M217.891 109.494C217.967 111.788 224.835 117.566 226.85 115.598C229.986 112.583 224.727 105.875 221.582 105.106C218.85 104.442 217.336 107.009 217.891 109.494Z" fill="url(#paint2_linear_437_2176)"/>
<path d="M225.807 67.0204C218.734 71.7266 207.418 78.4232 194.845 82.6242C181.128 87.2095 164.75 87.3002 154.882 86.7907C154.296 84.5458 153.85 82.2659 153.549 79.9646C162.636 80.5216 179.358 80.7202 192.745 76.2514C205.836 71.8777 217.731 64.4471 224.187 60C224.89 62.2987 225.432 64.6447 225.807 67.0204Z" fill="#2E2E2E"/>
<path d="M226.649 86.4284C219.403 91.6715 208.469 98.7366 198.852 101.36C188.685 104.134 173.181 104.846 163.407 105C161.992 102.868 160.711 100.651 159.57 98.3593C168.335 98.3165 186.341 97.8577 197.083 94.9297C207.637 92.0487 220.6 82.7544 226.764 78C226.863 80.8981 226.794 83.7447 226.649 86.4284Z" fill="#2E2E2E"/>
<path d="M223.107 105.559C217.186 108.924 209.24 113.324 203.132 116.163C197.369 118.851 187.743 120.26 179.508 121C176.685 119.257 174.041 117.247 171.613 114.998C180.092 114.544 193.647 113.345 200.306 110.245C208.098 106.624 219.36 100.171 224.803 97C224.569 98.7287 224.343 100.188 224.172 101.294C223.93 102.741 223.574 104.167 223.107 105.559Z" fill="#2E2E2E"/>
<path d="M150.692 82.9406L149.745 82.5961C147.935 81.9249 146.537 81.2713 146.523 83.9209C146.523 86.0804 147.9 87.9528 149.434 89.3527C151.27 91.0352 153.904 92.5852 156.661 91.7815C159.019 91.0926 159.142 87.6128 157.288 86.1201C155.434 84.6275 152.936 83.7487 150.692 82.9406Z" fill="url(#paint3_linear_437_2176)"/>
<path d="M229.291 81.0371C229.552 81.2547 229.808 81.4638 230.052 81.6728C231.504 82.8929 232.583 83.9636 233.505 81.5704C234.257 79.6208 233.613 77.4537 232.67 75.662C231.539 73.529 229.626 71.2168 226.79 71.0078C224.359 70.8243 223.046 73.9342 224.255 75.9137C225.464 77.8931 227.499 79.5355 229.291 81.0371Z" fill="url(#paint4_linear_437_2176)"/>
<g style="mix-blend-mode:overlay" opacity="0.3">
<path d="M200.3 38.3128C198.247 37.1136 194.557 36.5932 193.346 36.3975C188.845 35.6636 184.23 35.9486 179.862 37.2302C177.186 38.0255 162.482 45.2496 167.71 49.3258C169.394 50.6374 172.864 49.7797 174.544 48.9095C178.135 47.0275 182.276 45.9116 186.176 44.8332C190.541 43.6299 194.995 43.5258 199.295 42.5515C199.764 42.4651 200.208 42.2782 200.594 42.0045C200.98 41.7308 201.297 41.3771 201.524 40.9692C202.065 39.8367 201.43 38.9707 200.3 38.3128Z" fill="white"/>
</g>
<g style="mix-blend-mode:overlay" opacity="0.4">
<path d="M224.242 82.3028C224.561 82.6653 224.773 83.3525 224.79 84.3222C224.951 92.8386 223.61 101.937 219.586 109.656C215.635 117.245 206.899 126.415 197.349 123.417C196.484 123.204 195.709 122.726 195.133 122.051C192.79 118.86 200.52 116.275 202.396 115.268C206.254 113.173 209.548 110.185 211.997 106.557C216.666 99.7022 219.013 91.4937 222.031 83.8627C222.727 82.0624 223.661 81.624 224.242 82.3028Z" fill="#2E2E2E"/>
</g>
<path d="M178.018 46.1249C179.825 50.4693 177.532 56.4467 173.067 58.3652C168.603 60.2838 162.927 57.6404 161.12 53.296C159.313 48.9515 162.197 43.6606 166.662 41.7378C171.126 39.815 176.211 41.7804 178.018 46.1249Z" fill="white"/>
<path d="M170.383 58.9998C166.574 58.9998 162.672 56.6503 161.144 52.9865C159.32 48.601 162.033 42.884 166.963 40.7793C169.204 39.8 171.732 39.7415 174.015 40.6161C175.123 41.0315 176.135 41.6726 176.989 42.4999C177.844 43.3273 178.523 44.3233 178.984 45.4268C179.901 47.8189 179.857 50.481 178.861 52.8404C177.938 55.2771 176.105 57.2463 173.761 58.3212C172.691 58.776 171.543 59.0069 170.383 58.9998V58.9998ZM170.709 40.8609C169.535 40.8626 168.374 41.1036 167.294 41.5697C162.778 43.5068 160.268 48.6869 161.923 52.6514C163.709 56.9467 169.3 59.3048 173.431 57.5309C175.572 56.547 177.245 54.7459 178.086 52.5183C178.999 50.37 179.045 47.9439 178.213 45.7618V45.7618C177.794 44.7649 177.178 43.8655 176.403 43.1188C175.629 42.3721 174.712 41.7938 173.71 41.4193C172.751 41.0503 171.734 40.8611 170.709 40.8609V40.8609Z" fill="#2E2E2E"/>
<path d="M171.272 54.5362C173.57 53.5701 174.643 50.9321 173.669 48.6441C172.695 46.3561 170.043 45.2845 167.745 46.2507C165.447 47.2168 164.373 49.8548 165.347 52.1428C166.321 54.4308 168.974 55.5023 171.272 54.5362Z" fill="#2E2E2E"/>
<path d="M171.613 49C172.167 49 172.617 48.5523 172.617 48C172.617 47.4477 172.167 47 171.613 47C171.059 47 170.609 47.4477 170.609 48C170.609 48.5523 171.059 49 171.613 49Z" fill="white"/>
<path d="M173.172 54.1787C173.938 53.8567 174.296 52.9774 173.971 52.2147C173.646 51.452 172.762 51.0948 171.996 51.4169C171.23 51.7389 170.873 52.6183 171.197 53.3809C171.522 54.1436 172.406 54.5008 173.172 54.1787Z" fill="white"/>
<path d="M204.112 39.1232C205.919 43.4678 203.626 49.4411 199.161 51.364C194.696 53.2869 189.02 50.6349 187.214 46.2903C185.407 41.9457 188.291 36.6546 192.756 34.736C197.22 32.8174 202.301 34.7786 204.112 39.1232Z" fill="white"/>
<path d="M195.455 52.9998C191.652 52.9998 187.752 50.6498 186.227 46.9851C184.415 42.5986 187.131 36.8932 192.075 34.7795C194.312 33.8 196.836 33.7414 199.114 34.6162C200.22 35.0324 201.23 35.6739 202.083 36.5013C202.936 37.3288 203.614 38.3247 204.075 39.428C204.991 41.8192 204.947 44.4805 203.952 46.839C203.023 49.2814 201.185 51.2528 198.835 52.3253C197.764 52.778 196.615 53.0074 195.455 52.9998V52.9998ZM195.776 34.8568C194.606 34.8604 193.448 35.1029 192.371 35.57C187.862 37.5076 185.357 42.6846 187.009 46.65C188.792 50.9462 194.374 53.3091 198.497 51.5348C200.635 50.5485 202.305 48.7458 203.145 46.5168C204.056 44.3695 204.102 41.9443 203.272 39.7631V39.7631C202.857 38.7666 202.245 37.8671 201.475 37.1201C200.704 36.3731 199.792 35.7944 198.793 35.4196C197.834 35.048 196.816 34.8573 195.789 34.8568H195.776Z" fill="#2E2E2E"/>
<path d="M197.365 47.5362C199.663 46.5701 200.737 43.9321 199.763 41.6441C198.789 39.3561 196.137 38.2845 193.839 39.2506C191.541 40.2168 190.467 42.8548 191.441 45.1428C192.415 47.4308 195.067 48.5023 197.365 47.5362Z" fill="#2E2E2E"/>
<path d="M196.703 43C197.257 43 197.706 42.5523 197.706 42C197.706 41.4477 197.257 41 196.703 41C196.149 41 195.699 41.4477 195.699 42C195.699 42.5523 196.149 43 196.703 43Z" fill="white"/>
<path d="M199.265 47.1787C200.031 46.8567 200.389 45.9774 200.064 45.2147C199.739 44.452 198.855 44.0948 198.089 44.4169C197.323 44.7389 196.965 45.6183 197.29 46.3809C197.615 47.1436 198.499 47.5008 199.265 47.1787Z" fill="white"/>
<path d="M179.406 49L178.638 48.67C178.688 48.5586 179.891 45.9311 182.314 45.1886C183.68 44.7762 185.142 45.0401 186.666 45.9806L186.224 46.6818C184.916 45.8569 183.684 45.6382 182.564 45.9765C180.501 46.6117 179.415 48.9794 179.406 49Z" fill="#2E2E2E"/>
<path d="M214.239 42.9967C214.204 43.0011 214.169 43.0011 214.134 42.9967C214.077 42.9822 214.024 42.9561 213.977 42.92C213.93 42.8839 213.891 42.8385 213.861 42.7863C213.831 42.7342 213.812 42.6764 213.803 42.6162C213.795 42.5561 213.798 42.4948 213.812 42.4359C213.966 41.7925 213.949 40.2482 213.201 39.4301C212.961 39.1912 212.666 39.0229 212.344 38.9422C212.021 38.8615 211.685 38.8712 211.367 38.9705C208.5 39.5679 204.419 41.6914 204.375 41.7281C204.323 41.7572 204.266 41.7751 204.208 41.7808C204.149 41.7864 204.09 41.7797 204.034 41.761C203.978 41.7423 203.926 41.712 203.881 41.672C203.836 41.6319 203.8 41.5828 203.774 41.5277C203.747 41.4726 203.732 41.4125 203.728 41.3511C203.725 41.2897 203.733 41.2281 203.753 41.1701C203.772 41.112 203.803 41.0587 203.842 41.0132C203.882 40.9678 203.93 40.9311 203.984 40.9054C204.155 40.8181 208.214 38.7039 211.196 38.0834C212.572 37.7938 213.395 38.3132 213.834 38.8004C214.793 39.8529 214.894 41.6914 214.661 42.6658C214.635 42.7612 214.579 42.8451 214.503 42.9048C214.427 42.9644 214.334 42.9967 214.239 42.9967Z" fill="#2E2E2E"/>
<path d="M154.581 61C154.517 61.0002 154.453 60.9851 154.395 60.9559C153.563 60.5682 152.098 59.7134 151.665 58.3694C151.551 58.0151 151.515 57.6409 151.559 57.2716C151.602 56.9024 151.724 56.5466 151.917 56.228C153.054 54.1746 156.343 53.7164 158.998 53.3462C159.76 53.2405 160.486 53.1391 161.034 53.0113C161.091 52.9983 161.15 52.9965 161.207 53.006C161.264 53.0156 161.319 53.0363 161.369 53.067C161.418 53.0977 161.461 53.1377 161.495 53.1849C161.528 53.2321 161.552 53.2854 161.565 53.3418C161.579 53.3982 161.58 53.4567 161.571 53.5138C161.561 53.5709 161.54 53.6256 161.51 53.6747C161.479 53.7238 161.439 53.7664 161.391 53.8C161.344 53.8336 161.29 53.8576 161.234 53.8706C160.645 54.0072 159.906 54.1085 159.118 54.2187C156.666 54.5624 153.616 54.9854 152.691 56.651C152.559 56.8647 152.473 57.1043 152.441 57.3536C152.409 57.6029 152.431 57.8561 152.505 58.0962C152.749 58.8453 153.577 59.5988 154.772 60.1584C154.878 60.2081 154.96 60.2977 155 60.4076C155.04 60.5175 155.034 60.6387 154.984 60.7444C154.948 60.8209 154.892 60.8857 154.82 60.9309C154.749 60.9762 154.666 61.0002 154.581 61V61Z" fill="#2E2E2E"/>
<path d="M182.773 62.2618C182.773 62.2618 182.019 66.1597 184.281 66.891H184.349C184.766 67.0147 185.209 67.0335 185.635 66.9455C186.062 66.8574 186.458 66.6656 186.787 66.3879C187.116 66.1103 187.367 65.756 187.516 65.3584C187.665 64.9608 187.707 64.533 187.638 64.1152L187.291 62L182.773 62.2618Z" fill="white"/>
<path d="M185.124 68C184.863 67.9999 184.603 67.9534 184.355 67.8621L184.287 67.8345C182.07 66.9749 182.741 62.6399 182.769 62.456C182.777 62.4048 182.799 62.3582 182.833 62.324C182.867 62.2897 182.909 62.2698 182.954 62.2675L187.116 62.0009C187.165 61.9957 187.214 62.013 187.252 62.049C187.29 62.085 187.315 62.137 187.321 62.194L187.637 64.5339C187.708 65.0422 187.665 65.5634 187.512 66.0468C187.36 66.5301 187.102 66.9591 186.765 67.2921C186.308 67.7495 185.726 68.0008 185.124 68ZM183.132 62.718C183.037 63.5133 182.737 66.7542 184.414 67.4024V67.6414L184.473 67.4208C184.819 67.5512 185.188 67.5754 185.545 67.4908C185.902 67.4062 186.233 67.2159 186.508 66.9381C186.794 66.6573 187.012 66.2949 187.142 65.8863C187.271 65.4778 187.307 65.0371 187.246 64.6074L186.958 62.4698L183.132 62.718Z" fill="#2E2E2E"/>
<path d="M187.67 62.7573C187.67 62.7573 188.186 67.0045 190.358 67H190.405C190.803 66.9881 191.191 66.8598 191.534 66.6272C191.877 66.3946 192.163 66.0654 192.365 65.6706C192.566 65.2758 192.677 64.8284 192.687 64.3706C192.697 63.9128 192.605 63.4597 192.421 63.0539L191.491 61L187.67 62.7573Z" fill="white"/>
<path d="M190.864 66C188.297 66 187.694 62.0409 187.672 61.8695C187.665 61.8233 187.675 61.7762 187.699 61.7359C187.723 61.6956 187.761 61.6645 187.807 61.6479L192.065 60.0132C192.115 59.9953 192.17 59.9956 192.219 60.0141C192.269 60.0326 192.31 60.068 192.334 60.1136L193.37 62.0242C193.594 62.4384 193.705 62.9012 193.69 63.3682C193.676 63.8352 193.537 64.2908 193.288 64.6914C193.046 65.0853 192.703 65.4125 192.293 65.6417C191.882 65.8708 191.417 65.9942 190.942 66H190.864V66ZM188.128 61.974C188.266 62.6931 188.934 65.5819 190.864 65.5819H190.933C191.334 65.5764 191.727 65.4716 192.074 65.2776C192.421 65.0836 192.711 64.8069 192.915 64.474C193.126 64.135 193.244 63.7493 193.256 63.354C193.268 62.9587 193.174 62.567 192.984 62.2165L192.043 60.4731L188.128 61.974Z" fill="#2E2E2E"/>
<path d="M176.639 62.6364C178.537 62.5209 180.434 62.3641 182.29 62.1453C184.159 61.9424 186.013 61.6198 187.839 61.1796C188.75 60.9656 189.649 60.7011 190.529 60.3872C191.413 60.0843 192.274 59.7216 193.106 59.3017C193.941 58.8892 194.739 58.4088 195.492 57.8655C196.241 57.3108 196.933 56.686 197.559 56L197.706 56.1114C196.561 57.637 195.094 58.9037 193.405 59.8259C191.719 60.7533 189.918 61.4636 188.046 61.939C186.187 62.4237 184.287 62.7455 182.37 62.9006C180.458 63.0644 178.534 63.0257 176.631 62.785L176.639 62.6364Z" fill="#2E2E2E"/>
<path d="M238.929 175C238.929 175 226.476 160.811 221.779 146.621C217.081 132.432 219.31 134.056 219.31 134.056C219.31 134.056 225.656 147.842 230.474 154.501C235.292 161.159 243.871 170.931 243.871 170.931L238.929 175Z" fill="#92CE91"/>
<path d="M242.127 136.364C242.048 136.218 241.925 136.106 241.777 136.046C241.629 135.987 241.467 135.985 241.318 136.039C241.168 136.094 241.042 136.203 240.96 136.346C240.877 136.49 240.845 136.66 240.867 136.827C241.577 141.842 243.109 153.613 243.049 161.247C242.969 171.166 243.049 175 243.049 175H247.885C247.885 175 247.027 154.495 245.932 148.247C245.17 143.861 243.542 138.996 242.127 136.364Z" fill="#92CE91"/>
<path d="M244.875 172.59C246.977 167.755 248.368 162.631 249.005 157.385C249.42 153.782 248.681 148.912 247.584 142.411C247.16 140.034 246.947 137.622 246.948 135.206C246.951 134.936 247.041 134.675 247.205 134.463C247.369 134.252 247.598 134.101 247.855 134.036C248.112 133.971 248.383 133.994 248.626 134.103C248.869 134.211 249.069 134.399 249.196 134.635C249.802 135.734 251.552 139.484 251.996 141.816C253.209 148.232 254.585 151.442 253.533 157.528C252.482 163.615 248.598 173 248.598 173L244.875 172.59Z" fill="#92CE91"/>
<path d="M248.889 173.107C248.889 173.107 262.264 144.031 263.171 139.717C264.078 135.403 267.25 125.462 267.624 126.023C267.998 126.584 268.548 131.841 266.141 137.843C263.734 143.844 253.455 174 253.455 174H248.889" fill="#92CE91"/>
<path d="M243.871 172C243.733 171.925 243.602 171.837 243.48 171.739C243.236 171.555 242.863 171.311 242.41 170.934C241.489 170.219 240.197 169.135 238.689 167.696C234.791 163.918 231.416 159.651 228.65 155.004C225.889 150.36 223.593 145.462 221.794 140.38C221.098 138.436 220.589 136.843 220.259 135.734C220.089 135.182 219.976 134.749 219.894 134.45C219.848 134.302 219.812 134.152 219.785 134C219.851 134.138 219.907 134.281 219.95 134.428C220.055 134.741 220.194 135.16 220.385 135.687C220.746 136.783 221.285 138.364 222.002 140.299C223.854 145.348 226.168 150.222 228.915 154.858C231.675 159.483 235.013 163.748 238.85 167.555C240.332 169.007 241.597 170.124 242.497 170.848C242.932 171.225 243.297 171.499 243.532 171.705C243.651 171.796 243.765 171.895 243.871 172V172Z" fill="#FCFCFC"/>
<path d="M244.857 159C244.779 158.716 244.731 158.425 244.715 158.133C244.641 157.522 244.548 156.72 244.431 155.757C244.181 153.75 243.799 150.989 243.245 147.954C242.692 144.92 242.08 142.18 241.605 140.204C241.375 139.259 241.179 138.47 241.032 137.867C240.944 137.583 240.886 137.293 240.86 137C240.986 137.273 241.086 137.554 241.159 137.841C241.335 138.383 241.566 139.176 241.835 140.16C242.369 142.124 243.02 144.859 243.574 147.907C244.127 150.954 244.475 153.733 244.666 155.744C244.759 156.754 244.818 157.569 244.847 158.133C244.88 158.421 244.884 158.711 244.857 159Z" fill="#FCFCFC"/>
<path d="M248.334 135C248.403 135.119 248.459 135.245 248.502 135.374L248.957 136.466C249.148 136.939 249.367 137.524 249.576 138.217C249.786 138.909 250.072 139.687 250.282 140.573C250.395 141.003 250.518 141.476 250.641 141.958C250.764 142.44 250.851 142.947 250.96 143.472C251.196 144.517 251.342 145.648 251.52 146.839C252.179 152.02 251.98 157.266 250.928 162.389C250.664 163.563 250.432 164.685 250.118 165.709C249.968 166.225 249.84 166.728 249.685 167.197C249.531 167.666 249.367 168.121 249.23 168.556C248.953 169.416 248.616 170.181 248.347 170.856C248.079 171.532 247.824 172.099 247.596 172.577L247.082 173.639C247.027 173.765 246.96 173.885 246.882 174C246.917 173.867 246.964 173.738 247.023 173.613C247.141 173.342 247.291 172.981 247.478 172.534C247.665 172.086 247.933 171.497 248.179 170.813C248.425 170.13 248.752 169.377 249.012 168.508C249.153 168.078 249.299 167.623 249.467 167.154C249.635 166.685 249.735 166.178 249.881 165.666C250.186 164.642 250.405 163.516 250.664 162.355C251.676 157.251 251.874 152.033 251.251 146.873C251.083 145.691 250.946 144.56 250.723 143.519C250.614 142.999 250.537 142.491 250.423 142.01L250.081 140.629C249.89 139.743 249.626 138.961 249.426 138.268C249.226 137.576 249.03 136.978 248.857 136.505C248.684 136.032 248.575 135.679 248.475 135.396C248.414 135.268 248.367 135.136 248.334 135V135Z" fill="#FCFCFC"/>
<path d="M268.957 127C268.962 127.044 268.962 127.089 268.957 127.133L268.891 127.514C268.83 127.845 268.756 128.342 268.62 128.972C268.349 130.232 267.903 132.05 267.209 134.254C266.514 136.457 265.565 139.038 264.438 141.876C263.31 144.714 262.008 147.809 260.776 151.101C259.543 154.394 258.555 157.6 257.646 160.511C256.737 163.422 255.898 166.041 255.068 168.202C254.434 169.912 253.705 171.587 252.883 173.218C252.599 173.797 252.341 174.23 252.179 174.53L251.982 174.864C252 174.867 252.015 174.877 252.025 174.89C252.036 174.904 252.041 174.921 252.039 174.938C252.037 174.955 252.029 174.971 252.016 174.982C252.004 174.994 251.987 175 251.969 175C251.952 175 251.935 174.994 251.922 174.982C251.909 174.971 251.901 174.955 251.9 174.938C251.898 174.921 251.903 174.904 251.913 174.89C251.924 174.877 251.939 174.867 251.956 174.864L252.127 174.512C252.271 174.208 252.511 173.767 252.778 173.179C253.342 172.017 254.089 170.307 254.884 168.142C255.68 165.977 256.51 163.366 257.397 160.447C258.284 157.528 259.25 154.312 260.509 151.016C261.768 147.719 263.031 144.611 264.149 141.79C265.268 138.969 266.26 136.393 266.977 134.202C267.694 132.011 268.174 130.211 268.476 128.959C268.629 128.333 268.725 127.845 268.804 127.514C268.839 127.364 268.869 127.24 268.895 127.137C268.91 127.089 268.93 127.043 268.957 127V127Z" fill="#FCFCFC"/>
<path d="M225.753 120.321C225.568 120.144 225.329 120.033 225.075 120.006C224.82 119.98 224.564 120.038 224.347 120.174C224.129 120.309 223.962 120.513 223.872 120.754C223.783 120.995 223.775 121.259 223.85 121.504C224.31 122.996 224.874 124.454 225.537 125.867C227.385 129.81 232.805 143.958 235.345 151.729C237.884 159.5 241.461 174 241.461 174L246.881 173.114C246.881 173.114 241.921 149.295 237.078 140.714C233.181 133.816 229.287 123.849 225.753 120.321Z" fill="#92CE91"/>
<path d="M237.85 157C237.974 157.214 238.074 157.441 238.15 157.675C238.323 158.113 238.56 158.762 238.824 159.569C239.366 161.173 240.026 163.418 240.686 165.912C241.347 168.407 241.902 170.678 242.289 172.321C242.462 173.102 242.613 173.755 242.745 174.272C242.814 174.51 242.855 174.754 242.868 175C242.762 174.777 242.683 174.543 242.631 174.303C242.485 173.786 242.307 173.141 242.093 172.37C241.638 170.678 241.055 168.451 240.409 165.987C239.762 163.523 239.12 161.248 238.633 159.63C238.405 158.863 238.209 158.223 238.055 157.715C237.96 157.484 237.891 157.245 237.85 157V157Z" fill="#FCFCFC"/>
<path d="M244.872 174C244.872 174 244.872 173.948 244.838 173.85C244.804 173.751 244.804 173.592 244.778 173.421C244.718 173.039 244.667 172.472 244.551 171.751C244.349 170.3 243.989 168.214 243.398 165.665C242.695 162.684 241.837 159.743 240.827 156.853C239.7 153.586 238.281 150.054 236.674 146.401C233.434 139.105 230.198 132.628 228.073 127.838C226.997 125.451 226.166 123.502 225.617 122.142C225.338 121.464 225.137 120.931 224.996 120.575L224.846 120.146C224.824 120.1 224.81 120.051 224.803 120C224.83 120.042 224.853 120.087 224.871 120.133L225.051 120.532L225.711 122.065C226.29 123.408 227.151 125.344 228.248 127.717C230.425 132.482 233.687 138.937 236.935 146.251C238.542 149.908 239.935 153.453 241.071 156.733C242.077 159.635 242.921 162.591 243.599 165.587C244.053 167.609 244.405 169.651 244.654 171.708C244.752 172.438 244.787 172.996 244.825 173.391C244.825 173.566 244.851 173.712 244.859 173.82C244.873 173.879 244.877 173.94 244.872 174Z" fill="#FCFCFC"/>
<path d="M247.885 174C247.796 173.699 247.735 173.391 247.701 173.08C247.589 172.441 247.448 171.589 247.273 170.566C246.892 168.436 246.314 165.523 245.484 162.345C244.654 159.167 243.73 156.329 243.015 154.293C242.669 153.313 242.378 152.504 242.159 151.89C242.037 151.602 241.938 151.304 241.864 151C242.021 151.272 242.154 151.557 242.262 151.852C242.502 152.41 242.831 153.219 243.212 154.229C244.209 156.865 245.066 159.551 245.779 162.276C246.491 164.999 247.062 167.756 247.491 170.537C247.649 171.606 247.769 172.471 247.829 173.071C247.872 173.379 247.891 173.689 247.885 174V174Z" fill="#FCFCFC"/>
<path d="M258.925 173H237.85V199H258.925V173Z" fill="#99CAD3"/>
<path d="M251.9 173H232.832V199H251.9V173Z" fill="#A0E0ED"/>
<path d="M279.356 200H0.643826C0.473073 200 0.309313 199.947 0.188572 199.854C0.0678315 199.76 0 199.633 0 199.5C0 199.367 0.0678315 199.24 0.188572 199.146C0.309313 199.053 0.473073 199 0.643826 199H279.356C279.527 199 279.691 199.053 279.811 199.146C279.932 199.24 280 199.367 280 199.5C280 199.633 279.932 199.76 279.811 199.854C279.691 199.947 279.527 200 279.356 200V200Z" fill="#2E2E2E"/>
<path d="M49.5292 151.352C44.5596 148.223 37.6691 148.164 32.8281 151.487C28.2359 154.625 25.9033 160.383 26.1048 165.883C26.3063 171.384 29.0205 178.098 34.0973 181L48.9932 180.945C53.7484 177.508 56.9643 171.974 57.1915 166.178C57.4188 160.383 54.503 154.482 49.5292 151.352Z" fill="#92CE91"/>
<path d="M42.9536 181C42.8612 180.583 42.8217 180.16 42.8358 179.737C42.8037 178.836 42.7608 177.682 42.7127 176.305C42.6163 173.408 42.4717 169.408 42.2254 164.992C41.9791 160.575 41.69 156.571 41.4491 153.691C41.342 152.309 41.2563 151.164 41.1867 150.263C41.1331 149.843 41.1331 149.42 41.1867 149C41.3202 149.414 41.4045 149.837 41.4384 150.263C41.5669 151.072 41.7168 152.238 41.8881 153.682C42.2254 156.571 42.5949 160.566 42.8412 164.987C43.0874 169.408 43.1677 173.408 43.1517 176.318C43.1517 177.766 43.1517 178.941 43.0874 179.749C43.0927 180.169 43.0479 180.587 42.9536 181V181Z" fill="white"/>
<path d="M28.1001 164.765C28.1001 164.995 27.1808 165.071 26.0738 164.926C24.9668 164.78 24.0764 164.474 24.086 164.237C24.0956 163.999 25.0053 163.93 26.1171 164.076C27.2289 164.221 28.1145 164.528 28.1001 164.765Z" fill="#1A2E35"/>
<path d="M28.0965 158.974C28.0392 159.062 27.3259 158.92 26.4937 158.657C25.6615 158.394 25.0362 158.106 25.0935 158.024C25.1507 157.942 25.864 158.078 26.6919 158.34C27.5197 158.603 28.1581 158.885 28.0965 158.974Z" fill="#1A2E35"/>
<path d="M31.1056 154.984C31.0348 155.076 30.2212 154.772 29.3855 154.215C28.5497 153.657 28.0147 153.082 28.112 153.008C28.2092 152.934 28.8814 153.361 29.695 153.911C30.5086 154.462 31.1808 154.892 31.1056 154.984Z" fill="#1A2E35"/>
<path d="M33.091 152.997C33.0018 153.051 32.7214 152.428 32.4537 151.6C32.186 150.773 32.0617 150.063 32.135 150.004C32.2083 149.945 32.5047 150.572 32.7723 151.4C33.04 152.228 33.1802 152.928 33.091 152.997Z" fill="#1A2E35"/>
<path d="M37.0981 149.997C36.9889 150.051 36.6049 149.44 36.3543 148.595C36.1037 147.75 36.0794 147.021 36.1966 147C36.3139 146.98 36.5362 147.641 36.7828 148.457C37.0294 149.273 37.2113 149.942 37.0981 149.997Z" fill="#1A2E35"/>
<path d="M44.0918 147.003C44.2297 147.041 44.1441 147.518 43.9063 148.071C43.6685 148.625 43.3593 149.036 43.2214 148.998C43.0835 148.959 43.1643 148.479 43.4069 147.929C43.6495 147.38 43.9539 146.961 44.0918 147.003Z" fill="#1A2E35"/>
<path d="M50.1624 149.022C50.2627 149.139 49.8995 149.667 49.3547 150.21C48.8098 150.753 48.2889 151.091 48.1885 150.978C48.0882 150.866 48.4514 150.333 48.9962 149.79C49.5411 149.247 50.062 148.909 50.1624 149.022Z" fill="#1A2E35"/>
<path d="M54.1852 152.02C54.2566 152.095 53.8703 152.37 53.3203 152.637C52.7702 152.903 52.2664 153.056 52.195 152.981C52.1236 152.906 52.5099 152.628 53.0599 152.361C53.61 152.095 54.1138 151.942 54.1852 152.02Z" fill="#1A2E35"/>
<path d="M57.2011 156.026C57.2532 156.115 56.6236 156.398 55.7943 156.661C54.9649 156.924 54.2485 157.055 54.1964 156.978C54.1443 156.902 54.7739 156.607 55.6032 156.344C56.4326 156.08 57.1577 155.938 57.2011 156.026Z" fill="#1A2E35"/>
<path d="M58.208 161.203C58.208 161.411 57.5639 161.715 56.7318 161.895C55.8998 162.074 55.2109 162.012 55.1975 161.798C55.184 161.583 55.8372 161.293 56.6692 161.106C57.5012 160.92 58.1901 160.996 58.208 161.203Z" fill="#1A2E35"/>
<path d="M59.2086 165.971C59.1539 166.063 58.4336 165.928 57.604 165.668C56.7743 165.408 56.1498 165.121 56.2045 165.029C56.2592 164.937 56.9795 165.072 57.8091 165.332C58.6388 165.592 59.2633 165.879 59.2086 165.971Z" fill="#1A2E35"/>
<path d="M58.2059 171.968C58.1647 172.084 57.3437 171.89 56.4857 171.324C55.6276 170.759 55.1202 170.087 55.2068 170.008C55.2935 169.93 55.9246 170.421 56.7373 170.945C57.55 171.469 58.2513 171.853 58.2059 171.968Z" fill="#1A2E35"/>
<path d="M55.1896 175.988C55.1231 176.067 54.5397 175.748 53.9785 175.187C53.4173 174.625 53.1145 174.063 53.2068 174.005C53.2991 173.947 53.7385 174.392 54.2776 174.93C54.8167 175.468 55.2634 175.903 55.1896 175.988Z" fill="#1A2E35"/>
<path d="M31.1082 177.03C31.1611 177.157 30.5339 177.693 29.7025 178.234C28.8712 178.775 28.1608 179.099 28.1041 178.973C28.0474 178.846 28.6823 178.305 29.5098 177.769C30.3374 177.232 31.0553 176.894 31.1082 177.03Z" fill="#1A2E35"/>
<path d="M29.0994 173.028C29.1601 173.117 28.539 173.399 27.6983 173.667C26.8576 173.936 26.1524 174.061 26.0963 173.971C26.0403 173.882 26.6568 173.603 27.4975 173.332C28.3381 173.06 29.0434 172.941 29.0994 173.028Z" fill="#1A2E35"/>
<path d="M27.0967 169.148C27.0967 169.345 26.4568 169.66 25.6237 169.857C24.7905 170.054 24.1023 170.041 24.0862 169.857C24.0701 169.673 24.7262 169.338 25.5593 169.148C26.3924 168.957 27.0806 168.944 27.0967 169.148Z" fill="#1A2E35"/>
<path d="M33.1167 167.095C33.1529 167.288 32.5101 167.76 31.6503 167.94C30.7905 168.119 30.0995 167.86 30.1075 167.66C30.1155 167.461 30.7865 167.368 31.6021 167.208C32.4176 167.048 33.0806 166.895 33.1167 167.095Z" fill="#1A2E35"/>
<path d="M38.1335 163.138C38.1789 163.357 37.5379 163.84 36.6698 163.968C35.8017 164.096 35.1052 163.81 35.1254 163.584C35.1456 163.357 35.8068 163.259 36.6395 163.131C37.4723 163.003 38.0881 162.912 38.1335 163.138Z" fill="#1A2E35"/>
<path d="M38.1341 158.943C38.0996 159.071 37.6229 158.974 37.0703 158.732C36.5177 158.489 36.0963 158.185 36.1309 158.057C36.1654 157.929 36.6421 158.026 37.1947 158.268C37.7473 158.511 38.1686 158.815 38.1341 158.943Z" fill="#1A2E35"/>
<path d="M40.1258 155.98C40.0376 156.084 39.6566 155.776 39.3879 155.188C39.1192 154.6 39.0872 154.042 39.2035 154.003C39.3198 153.963 39.5283 154.396 39.7729 154.914C40.0176 155.432 40.202 155.875 40.1258 155.98Z" fill="#1A2E35"/>
<path d="M38.1349 170.109C38.1623 170.276 37.6931 170.592 37.0909 170.81C36.8046 170.921 36.5108 170.985 36.2149 171L36.1289 170.627C36.2853 170.586 36.387 170.627 36.4065 170.667C36.4261 170.707 36.3635 170.851 36.2345 170.989L36.1485 170.615C36.4179 170.431 36.6996 170.288 36.9892 170.19C37.5992 169.972 38.1037 169.937 38.1349 170.109Z" fill="#1A2E35"/>
<path d="M39.1373 176.031C39.1832 176.124 38.5494 176.412 37.7198 176.671C36.8901 176.929 36.1771 177.065 36.1312 176.969C36.0854 176.873 36.7191 176.588 37.5488 176.329C38.3785 176.071 39.0915 175.935 39.1373 176.031Z" fill="#1A2E35"/>
<path d="M34.1187 174.081C34.1595 174.228 33.7428 174.537 33.1914 174.77C32.6399 175.003 32.1579 175.069 32.117 174.922C32.0762 174.775 32.4928 174.471 33.0443 174.238C33.5958 174.005 34.0778 173.924 34.1187 174.081Z" fill="#1A2E35"/>
<path d="M34.1212 160.953C34.0923 161.055 33.3623 160.995 32.5168 160.737C31.6714 160.479 31.061 160.136 31.1146 160.03C31.1682 159.924 31.8528 160.112 32.6694 160.359C33.486 160.606 34.15 160.847 34.1212 160.953Z" fill="#1A2E35"/>
<path d="M46.157 159.019C46.2239 159.091 45.8302 159.369 45.279 159.634C44.7277 159.9 44.2316 160.056 44.1647 159.981C44.0978 159.906 44.4876 159.631 45.0388 159.366C45.59 159.1 46.09 158.944 46.157 159.019Z" fill="#1A2E35"/>
<path d="M47.167 166.148C47.1956 166.351 46.7578 166.67 46.2136 166.86C45.6695 167.05 45.1867 167.043 45.1621 166.86C45.1376 166.677 45.5713 166.338 46.1195 166.148C46.6678 165.958 47.1424 165.944 47.167 166.148Z" fill="#1A2E35"/>
<path d="M48.1676 172.972C48.1053 173.062 47.3819 172.928 46.5531 172.652C45.7243 172.377 45.1159 172.117 45.1638 172.027C45.2117 171.938 45.9495 172.075 46.7783 172.332C47.6071 172.588 48.2299 172.883 48.1676 172.972Z" fill="#1A2E35"/>
<path d="M47.1408 179.987C47.0077 180.075 46.4642 179.706 45.9263 179.162C45.3883 178.617 45.0611 178.101 45.1887 178.013C45.3162 177.925 45.8652 178.29 46.4032 178.834C46.9411 179.378 47.2683 179.895 47.1408 179.987Z" fill="#1A2E35"/>
<path d="M46.1472 155.038C46.2468 155.144 45.906 155.524 45.324 155.779C44.7421 156.033 44.202 156.052 44.1601 155.918C44.1181 155.783 44.5428 155.552 45.0619 155.32C45.5809 155.089 46.0476 154.922 46.1472 155.038Z" fill="#1A2E35"/>
<path d="M52.1839 161.105C52.2326 161.296 51.6037 161.788 50.7213 161.945C49.8389 162.103 49.1661 161.891 49.1759 161.686C49.1856 161.481 49.8487 161.358 50.6384 161.194C51.4282 161.03 52.1351 160.9 52.1839 161.105Z" fill="#1A2E35"/>
<path d="M51.1777 155.038C51.2432 155.154 50.6449 155.545 49.7755 155.794C48.9061 156.043 48.191 156.043 48.1723 155.918C48.1536 155.794 48.8126 155.579 49.6212 155.339C50.4299 155.098 51.1217 154.918 51.1777 155.038Z" fill="#1A2E35"/>
<path d="M53.1901 169.857C53.1901 170 52.2512 170.09 51.1151 169.857C49.979 169.624 49.1345 169.182 49.1773 169.044C49.2202 168.906 50.1076 169.12 51.2009 169.339C52.2941 169.557 53.1944 169.71 53.1901 169.857Z" fill="#1A2E35"/>
<path d="M50.1724 177.987C50.1098 178.07 49.5469 177.743 48.9908 177.185C48.4348 176.627 48.1012 176.072 48.1846 176.007C48.268 175.941 48.7198 176.375 49.2619 176.916C49.804 177.457 50.2384 177.905 50.1724 177.987Z" fill="#1A2E35"/>
<path d="M41.1454 149.003C41.2148 149.104 39.2293 149.884 36.9317 152.238C34.6341 154.592 32.2628 158.602 31.682 163.513C31.4588 165.818 31.5653 168.143 31.9984 170.42C32.3373 172.29 32.7816 174.14 33.3293 175.963C33.7888 177.525 34.1963 178.772 34.4997 179.64C34.6711 180.082 34.8059 180.537 34.9029 181C34.6676 180.586 34.4731 180.152 34.322 179.703C33.9839 178.86 33.507 177.597 33.0215 176.06C32.4235 174.234 31.9414 172.375 31.5779 170.492C31.1159 168.18 30.9962 165.816 31.2224 163.471C31.8207 158.446 34.3003 154.31 36.7063 152.023C37.6398 151.095 38.6968 150.292 39.8492 149.635C40.248 149.391 40.5949 149.26 40.8116 149.147C41.0284 149.033 41.1367 148.987 41.1454 149.003Z" fill="white"/>
<path d="M48.0093 182C47.9055 181.948 49.086 180.13 50.1714 176.845C51.6202 172.587 52.0642 168.051 51.4687 163.592C51.1441 161.148 50.4561 158.765 49.4277 156.524C48.5747 154.711 47.4029 153.066 45.9682 151.668C44.9535 150.769 43.8016 150.038 42.5563 149.504C41.6914 149.132 41.1379 149.045 41.1466 149.006C41.2771 148.992 41.409 149.002 41.5358 149.036C41.9049 149.103 42.268 149.2 42.6212 149.326C43.9238 149.805 45.1326 150.508 46.1931 151.404C47.6967 152.801 48.9245 154.469 49.8125 156.321C50.8846 158.594 51.5993 161.019 51.9314 163.51C52.5428 168.033 52.0487 172.637 50.4914 176.927C50.219 177.758 49.8687 178.468 49.6266 179.091C49.3844 179.715 49.0644 180.247 48.8309 180.671C48.5976 181.138 48.3226 181.583 48.0093 182V182Z" fill="white"/>
<path d="M29.1035 180H55.0397L55.1967 185H29.1035V180Z" fill="#A0E0ED"/>
<path d="M31.1113 183L32.6077 199H51.6597L53.1902 183.176L31.1113 183Z" fill="#A0E0ED"/>
<path d="M55.1967 185.235C55.1967 185.367 49.3534 185.474 42.1522 185.474C34.951 185.474 29.1035 185.367 29.1035 185.235C29.1035 185.102 34.9426 185 42.1522 185C49.3619 185 55.1967 185.107 55.1967 185.235Z" fill="white"/>
<path d="M53.1898 190.558C53.0548 190.911 52.8669 191.242 52.6324 191.54C52.0478 192.392 51.3715 193.178 50.6155 193.887L50.4963 194L50.3772 193.878C48.8132 192.261 47.1041 190.787 45.271 189.474H45.5561L43.2966 191.431L40.6328 193.719L40.4881 193.849L40.3392 193.723L35.9947 190.121L36.25 190.096L34.0032 192.799C33.7419 193.146 33.4454 193.465 33.1182 193.752C33.3249 193.372 33.5686 193.012 33.8458 192.678C34.4075 191.934 35.1224 190.998 35.9734 189.877L36.0798 189.735L36.2244 189.852C37.501 190.868 38.9903 192.06 40.6328 193.379H40.3392L42.9987 191.07L45.2667 189.122L45.4071 189L45.5561 189.109C47.4015 190.448 49.1013 191.971 50.6282 193.656H50.3899C52.3175 191.918 53.1133 190.503 53.1898 190.558Z" fill="white"/>
<defs>
<linearGradient id="paint0_linear_437_2176" x1="185.94" y1="6.8465" x2="191.891" y2="103.97" gradientUnits="userSpaceOnUse">
<stop offset="0.15" stop-color="#FFE26A"/>
<stop offset="0.42" stop-color="#FFE071"/>
<stop offset="0.69" stop-color="#FFD465"/>
<stop offset="0.97" stop-color="#FFCB75"/>
<stop offset="1" stop-color="#FFC05E"/>
</linearGradient>
<linearGradient id="paint1_linear_437_2176" x1="4629.05" y1="5703.64" x2="6744.49" y2="7033.46" gradientUnits="userSpaceOnUse">
<stop offset="0.15" stop-color="#FCD844"/>
<stop offset="0.42" stop-color="#FCD443"/>
<stop offset="0.69" stop-color="#FCC740"/>
<stop offset="0.97" stop-color="#FBB33C"/>
<stop offset="1" stop-color="#FBB03B"/>
</linearGradient>
<linearGradient id="paint2_linear_437_2176" x1="7273.38" y1="4511.27" x2="9424.8" y2="6618.97" gradientUnits="userSpaceOnUse">
<stop offset="0.15" stop-color="#FCD844"/>
<stop offset="0.42" stop-color="#FCD443"/>
<stop offset="0.69" stop-color="#FCC740"/>
<stop offset="0.97" stop-color="#FBB33C"/>
<stop offset="1" stop-color="#FBB03B"/>
</linearGradient>
<linearGradient id="paint3_linear_437_2176" x1="531.88" y1="9180.1" x2="2065.91" y2="11869" gradientUnits="userSpaceOnUse">
<stop offset="0.15" stop-color="#FCD844"/>
<stop offset="0.42" stop-color="#FCD443"/>
<stop offset="0.69" stop-color="#FCC740"/>
<stop offset="0.97" stop-color="#FBB33C"/>
<stop offset="1" stop-color="#FBB03B"/>
</linearGradient>
<linearGradient id="paint4_linear_437_2176" x1="3101.26" y1="7764.44" x2="3820.18" y2="10807.6" gradientUnits="userSpaceOnUse">
<stop offset="0.15" stop-color="#FCD844"/>
<stop offset="0.42" stop-color="#FCD443"/>
<stop offset="0.69" stop-color="#FCC740"/>
<stop offset="0.97" stop-color="#FBB33C"/>
<stop offset="1" stop-color="#FBB03B"/>
</linearGradient>
</defs>
</svg>
