<svg width="280" height="200" viewBox="0 0 280 200" fill="none" xmlns="http://www.w3.org/2000/svg">
<path d="M14.3766 98.1145C14.3766 98.1145 9.53 98.7994 12.2852 109.351C15.0404 119.902 17.3637 125.357 17.3637 125.357C17.3637 125.357 17.7356 127.746 15.7962 127.682C13.8567 127.619 9.90189 126.074 8.56628 128.156C7.18268 130.322 8.40632 132.934 11.4534 135.638C14.5006 138.341 20.9627 144.545 21.5465 145.106C22.1303 145.667 22.5542 146.83 21.2226 146.997C19.891 147.165 10.4577 146.085 10.2138 150.581C9.96987 155.076 19.711 161.248 20.7627 161.94C21.8144 162.633 21.9824 163.183 21.7464 163.792C21.5105 164.401 18.3754 163.74 15.6762 163.545C12.977 163.35 9.81791 163.589 9.89389 166.193C9.96987 168.797 15.0924 175.351 30.008 180.204L37.066 182L42.2645 176.872C52.7135 165.225 53.8371 156.991 52.5935 154.702C51.3498 152.412 48.4907 153.782 46.2553 155.299C44.02 156.816 41.6527 158.954 41.1288 158.544C40.605 158.134 40.489 157.581 41.0448 156.454C41.6007 155.327 46.9151 145.114 44.4399 141.351C41.9646 137.589 34.3428 143.239 33.1111 143.764C31.8795 144.29 31.6676 143.051 31.8835 142.291C32.0994 141.53 34.5667 132.926 35.8344 129.056C37.102 125.186 36.8461 122.323 34.5587 121.144C32.3514 120.006 29.7161 123.33 28.0726 124.358C26.4291 125.385 25.5453 123.127 25.5453 123.127C25.5453 123.127 24.8136 117.262 21.8664 106.747C18.9193 96.2312 14.2686 98.1344 14.2686 98.1344" fill="#92CE91"/>
<path d="M35.8353 184C33.7451 176.286 30.251 162.512 27.2078 150.701C24.1647 138.89 21.3725 128.212 19.3216 120.498C18.2902 116.644 17.4588 113.524 16.8784 111.358C16.5961 110.285 16.3725 109.451 16.2196 108.87C16.1451 108.592 16.0902 108.378 16.051 108.223C16.0118 108.068 16 108 16 108C16.029 108.071 16.0538 108.144 16.0745 108.219C16.1176 108.37 16.1804 108.584 16.2627 108.858C16.4235 109.435 16.6549 110.269 16.9647 111.334C17.5686 113.484 18.4275 116.604 19.4706 120.475C21.5647 128.188 24.3647 138.867 27.4235 150.677C30.4824 162.488 33.9451 176.266 36 183.992" fill="#E1E1E1"/>
<path d="M14 131C14.164 131.059 14.3194 131.137 14.4628 131.231C14.7581 131.388 15.169 131.631 15.6797 131.937C16.6971 132.545 18.0736 133.429 19.5858 134.41L23.428 136.959L24.601 137.705C24.7438 137.791 24.8775 137.89 25 138C24.834 137.944 24.677 137.868 24.5332 137.772C24.2419 137.612 23.827 137.373 23.3362 137.063C22.3268 136.444 20.9423 135.552 19.4501 134.563L15.588 132.041L14.411 131.295C14.2637 131.21 14.1261 131.111 14 131V131Z" fill="#E1E1E1"/>
<path d="M25.0011 138C24.9507 137.964 26.7013 135.028 28.909 131.44C31.1166 127.853 32.9486 124.968 32.9989 125C33.0493 125.032 31.3025 127.968 29.0949 131.56C26.8872 135.151 25.0359 138.032 25.0011 138Z" fill="#E1E1E1"/>
<path d="M29 156C29.1226 155.869 29.2584 155.751 29.4055 155.645L30.5045 154.713C31.4453 153.95 32.7348 152.854 34.1095 151.609C35.4842 150.364 36.7007 149.207 37.5685 148.356L38.5945 147.351C38.7151 147.22 38.8511 147.102 39 147C38.9069 147.147 38.7967 147.284 38.6715 147.409C38.4444 147.661 38.116 148.023 37.6942 148.462C36.8548 149.337 35.6667 150.521 34.2798 151.765C32.8929 153.01 31.5872 154.079 30.6302 154.82C30.1476 155.202 29.7502 155.492 29.4704 155.691C29.3276 155.812 29.1697 155.915 29 156V156Z" fill="#E1E1E1"/>
<path d="M17 152C17.1664 152.017 17.3298 152.056 17.4858 152.116L18.7825 152.514C19.8745 152.853 21.3801 153.344 23.0341 153.894C24.6882 154.445 26.1897 154.959 27.2697 155.338L28.5423 155.801C28.7019 155.85 28.8554 155.917 29 156C28.834 155.981 28.671 155.942 28.5142 155.884L27.2175 155.486C26.1255 155.143 24.6199 154.656 22.9619 154.106C21.3038 153.555 19.8103 153.041 18.7303 152.658L17.4577 152.195C17.2983 152.147 17.1448 152.082 17 152V152Z" fill="#E1E1E1"/>
<path d="M19 169C19.2059 169.031 19.4085 169.082 19.605 169.152L21.2209 169.653C22.5831 170.086 24.4645 170.699 26.5332 171.392C28.6019 172.085 30.4793 172.718 31.8298 173.191L33.4262 173.76C33.625 173.819 33.8173 173.9 34 174C33.7955 173.966 33.5944 173.914 33.3989 173.844L31.7791 173.343C30.4169 172.91 28.5355 172.285 26.4668 171.604C24.3981 170.923 22.5246 170.282 21.1741 169.805L19.5777 169.236C19.3796 169.173 19.1865 169.094 19 169V169Z" fill="#E1E1E1"/>
<path d="M34 173C34.1416 172.828 34.2984 172.668 34.4684 172.524L35.7947 171.278C36.9124 170.227 38.4513 168.767 40.124 167.111C41.7967 165.456 43.2371 163.917 44.284 162.796L45.5277 161.469C45.6694 161.298 45.8276 161.141 46 161C45.8835 161.186 45.7518 161.362 45.6064 161.527C45.3309 161.855 44.9255 162.328 44.4257 162.902C43.3788 164.05 41.9187 165.608 40.2617 167.252C38.6048 168.896 37.0462 170.376 35.901 171.395C35.3263 171.903 34.858 172.313 34.5274 172.59C34.3628 172.74 34.1864 172.877 34 173V173Z" fill="#E1E1E1"/>
<path d="M236.995 184.317C225.217 177.796 220.789 163.284 219.41 149.88C219.182 147.645 218.638 145.327 219.366 143.236C220.093 141.145 222.223 139.49 224.214 140.174C225.868 140.737 226.8 142.572 227.879 144.039C229.285 145.976 231.211 147.473 233.434 148.357C234.861 148.909 236.559 149.133 237.766 148.181C239.421 146.874 239.273 144.183 238.965 141.977C238.382 137.851 237.801 133.72 237.223 129.584C236.915 127.369 236.603 125.106 236.963 122.915C237.323 120.725 238.486 118.574 240.376 117.718C242.266 116.863 244.868 117.718 245.572 119.845C245.867 120.725 245.819 121.684 246.003 122.596C246.187 123.507 246.723 124.471 247.574 124.595C248.425 124.718 249.173 123.995 249.712 123.263C251.547 120.733 252.61 117.666 253.581 114.596C254.552 111.526 255.471 108.428 257.082 105.721C258.693 103.015 261.119 100.712 264.06 100.124C267.002 99.5368 270.427 101.06 271.598 104.07C272.769 107.08 271.49 110.495 269.975 113.265C267.76 117.361 264.962 121.114 261.67 124.407C261.087 124.994 260.447 125.626 260.311 126.481C260.059 128.021 261.566 129.308 262.993 129.604C264.612 129.943 266.262 129.54 267.905 129.52C269.547 129.5 271.402 130.023 272.229 131.571C273.384 133.717 271.933 136.336 270.399 138.131C267.374 141.709 263.74 144.722 259.664 147.03C258.221 147.829 256.686 148.581 255.611 149.892C254.536 151.203 254.065 153.302 255.016 154.761C255.967 156.221 257.941 156.456 259.496 155.921C261.051 155.385 262.354 154.258 263.792 153.434C266.482 151.895 270.187 151.595 272.365 153.978C273.796 155.541 274.223 157.936 273.896 160.078C273.568 162.221 272.577 164.172 271.498 165.987C267.705 172.343 262.485 177.756 256.211 181.118C249.936 184.48 243.909 185.984 236.999 184.317" fill="#92CE91"/>
<path d="M239 175.936C239.928 168.957 241.536 161.407 243.475 153.577C243.969 151.621 244.454 149.69 244.932 147.784C245.414 145.883 245.892 143.999 246.465 142.194C247.569 138.731 248.856 135.33 250.323 132.005C251.696 128.811 253.11 125.868 254.452 123.113C255.793 120.358 257.099 117.819 258.377 115.559C260.364 111.999 262.627 108.601 265.145 105.398C266.029 104.272 266.738 103.421 267.236 102.854L267.797 102.212C267.857 102.134 267.925 102.063 268 102C267.948 102.085 267.89 102.165 267.825 102.24L267.291 102.91C266.822 103.497 266.125 104.364 265.257 105.506C262.8 108.739 260.584 112.15 258.628 115.711C257.37 117.975 256.084 120.502 254.754 123.273C253.424 126.044 252.023 128.994 250.661 132.165C249.211 135.482 247.935 138.874 246.839 142.326C246.274 144.127 245.8 145.995 245.318 147.916C244.837 149.836 244.359 151.753 243.865 153.705C241.906 161.515 240.314 169.057 239.35 176" fill="#E1E1E1"/>
<path d="M247 142C246.863 141.708 246.757 141.4 246.684 141.083C246.502 140.482 246.266 139.609 245.985 138.523C245.426 136.352 244.741 133.316 243.996 129.992C243.251 126.668 242.532 123.648 241.947 121.493C241.654 120.415 241.411 119.546 241.236 118.945C241.127 118.639 241.048 118.323 241 118C241.159 118.281 241.287 118.581 241.38 118.893C241.597 119.478 241.878 120.335 242.202 121.409C242.856 123.547 243.62 126.555 244.365 129.896C245.11 133.236 245.745 136.172 246.266 138.451C246.498 139.477 246.696 140.342 246.852 141.039C246.93 141.353 246.98 141.675 247 142V142Z" fill="#E1E1E1"/>
<path d="M273 133C272.661 133.129 272.311 133.225 271.953 133.285C271.276 133.445 270.293 133.686 269.09 133.991C266.684 134.608 263.384 135.595 259.791 136.842C256.199 138.09 252.999 139.393 250.709 140.396C249.562 140.889 248.64 141.318 248.002 141.599C247.683 141.767 247.347 141.901 247 142C247.294 141.782 247.608 141.593 247.938 141.435C248.56 141.102 249.462 140.632 250.601 140.099C253.56 138.722 256.586 137.495 259.667 136.421C262.735 135.339 265.859 134.423 269.026 133.678C270.229 133.393 271.236 133.209 271.921 133.101C272.277 133.03 272.638 132.997 273 133V133Z" fill="#E1E1E1"/>
<path d="M239 175C238.909 174.905 238.832 174.798 238.772 174.681L238.19 173.728C237.682 172.902 236.982 171.678 236.136 170.158C234.441 167.119 232.203 162.848 229.843 158.096C227.483 153.345 225.268 149.042 223.632 145.984C222.845 144.492 222.176 143.264 221.665 142.35L221.161 141.358C221.091 141.247 221.037 141.126 221 141C221.09 141.094 221.167 141.2 221.228 141.315L221.81 142.268C222.314 143.098 223.014 144.319 223.864 145.838C225.559 148.877 227.797 153.152 230.157 157.904C232.517 162.655 234.732 166.958 236.365 170.016C237.151 171.508 237.824 172.736 238.331 173.65C238.544 174.043 238.725 174.37 238.858 174.642C238.917 174.756 238.965 174.876 239 175Z" fill="#E1E1E1"/>
<path d="M273 158C272.899 158.081 272.788 158.15 272.67 158.203L271.682 158.708L268.056 160.535C264.982 162.083 260.759 164.264 256.093 166.687C251.427 169.11 247.164 171.251 244.077 172.728C242.526 173.468 241.256 174.053 240.382 174.439L239.363 174.873C239.248 174.931 239.126 174.973 239 175C239.1 174.917 239.211 174.848 239.33 174.797L240.318 174.292L243.944 172.461C247.018 170.917 251.241 168.732 255.907 166.313C260.573 163.893 264.82 161.749 267.927 160.272C269.478 159.532 270.748 158.947 271.622 158.561L272.641 158.123C272.753 158.063 272.874 158.022 273 158V158Z" fill="#E1E1E1"/>
<path d="M240.202 51H35.7982C32.5959 51 30 53.5988 30 56.8046V188.195C30 191.401 32.5959 194 35.7982 194H240.202C243.404 194 246 191.401 246 188.195V56.8046C246 53.5988 243.404 51 240.202 51Z" fill="#375A64"/>
<path d="M21 185H255V190.792C255 192.704 254.27 194.537 252.97 195.889C251.67 197.241 249.907 198 248.069 198H27.9312C26.0929 198 24.3299 197.241 23.0301 195.889C21.7302 194.537 21 192.704 21 190.792V185Z" fill="#375A64"/>
<path d="M240 57H36V178H240V57Z" fill="#1A2E35"/>
<path d="M117 184L119.876 189H160.329L163 184H117Z" fill="#1A2E35"/>
<path d="M234.698 61H41.3025C40.5831 61 40 61.5818 40 62.2995V175.7C40 176.418 40.5831 177 41.3025 177H234.698C235.417 177 236 176.418 236 175.7V62.2995C236 61.5818 235.417 61 234.698 61Z" fill="#ECECEC"/>
<path d="M236 178H40L40.2111 70H236V178Z" fill="#FAFAFA"/>
<path d="M56 65.5C56 65.7967 55.912 66.0867 55.7472 66.3334C55.5824 66.58 55.3481 66.7723 55.074 66.8858C54.7999 66.9993 54.4983 67.0291 54.2074 66.9712C53.9164 66.9133 53.6491 66.7704 53.4393 66.5607C53.2296 66.3509 53.0867 66.0836 53.0288 65.7926C52.9709 65.5017 53.0006 65.2001 53.1142 64.926C53.2277 64.6519 53.42 64.4176 53.6666 64.2528C53.9133 64.088 54.2033 64 54.5 64C54.8978 64 55.2794 64.158 55.5607 64.4393C55.842 64.7206 56 65.1022 56 65.5V65.5Z" fill="#1A2E35"/>
<path d="M46 65.5C46 65.7967 45.912 66.0867 45.7472 66.3334C45.5824 66.58 45.3481 66.7723 45.074 66.8858C44.7999 66.9993 44.4983 67.0291 44.2074 66.9712C43.9164 66.9133 43.6491 66.7704 43.4393 66.5607C43.2296 66.3509 43.0867 66.0836 43.0288 65.7926C42.9709 65.5017 43.0006 65.2001 43.1142 64.926C43.2277 64.6519 43.42 64.4176 43.6666 64.2528C43.9133 64.088 44.2033 64 44.5 64C44.8978 64 45.2794 64.158 45.5607 64.4393C45.842 64.7206 46 65.1022 46 65.5V65.5Z" fill="#1A2E35"/>
<path d="M51 65.5C51 65.7967 50.912 66.0867 50.7472 66.3334C50.5824 66.58 50.3481 66.7723 50.074 66.8858C49.7999 66.9993 49.4983 67.0291 49.2074 66.9712C48.9164 66.9133 48.6491 66.7704 48.4393 66.5607C48.2296 66.3509 48.0867 66.0836 48.0288 65.7926C47.9709 65.5017 48.0006 65.2001 48.1142 64.926C48.2277 64.6519 48.42 64.4176 48.6666 64.2528C48.9133 64.088 49.2033 64 49.5 64C49.6971 63.9995 49.8924 64.038 50.0746 64.1132C50.2568 64.1884 50.4224 64.2988 50.5618 64.4382C50.7012 64.5776 50.8116 64.7432 50.8868 64.9254C50.962 65.1076 51.0005 65.3029 51 65.5V65.5Z" fill="#1A2E35"/>
<path d="M244 184.14C244 184.215 196.091 184.279 137.024 184.279C77.9563 184.279 30 184.203 30 184.14C30 184.076 77.9006 184 137.008 184C196.115 184 244 184.064 244 184.14Z" fill="#1A2E35"/>
<path d="M167.589 1H194.852C195.421 1 195.968 1.22489 196.371 1.6252C196.774 2.0255 197 2.56844 197 3.13456V21.083C197 21.6495 196.774 22.1928 196.371 22.5938C195.968 22.9947 195.422 23.2205 194.852 23.2215H180.495L173.669 30V23.2215H167.589C167.167 23.2215 166.763 23.0552 166.465 22.7592C166.167 22.4633 166 22.0618 166 21.6433V2.57823C166 2.15966 166.167 1.75823 166.465 1.46225C166.763 1.16628 167.167 1 167.589 1V1Z" fill="#E1E1E1"/>
<path d="M176 12.5C176 12.7967 175.912 13.0867 175.747 13.3334C175.582 13.58 175.348 13.7723 175.074 13.8858C174.8 13.9994 174.498 14.0291 174.207 13.9712C173.916 13.9133 173.649 13.7704 173.439 13.5607C173.23 13.3509 173.087 13.0836 173.029 12.7926C172.971 12.5017 173.001 12.2001 173.114 11.926C173.228 11.6519 173.42 11.4176 173.667 11.2528C173.913 11.088 174.203 11 174.5 11C174.898 11 175.279 11.158 175.561 11.4393C175.842 11.7206 176 12.1022 176 12.5Z" fill="#FAFAFA"/>
<path d="M183 12.5C183 12.7967 182.912 13.0867 182.747 13.3334C182.582 13.58 182.348 13.7723 182.074 13.8858C181.8 13.9994 181.498 14.0291 181.207 13.9712C180.916 13.9133 180.649 13.7704 180.439 13.5607C180.23 13.3509 180.087 13.0836 180.029 12.7926C179.971 12.5017 180.001 12.2001 180.114 11.926C180.228 11.6519 180.42 11.4176 180.667 11.2528C180.913 11.088 181.203 11 181.5 11C181.898 11 182.279 11.158 182.561 11.4393C182.842 11.7206 183 12.1022 183 12.5Z" fill="#FAFAFA"/>
<path d="M189 12.5C189 12.7967 188.912 13.0867 188.747 13.3334C188.582 13.58 188.348 13.7723 188.074 13.8858C187.8 13.9994 187.498 14.0291 187.207 13.9712C186.916 13.9133 186.649 13.7704 186.439 13.5607C186.23 13.3509 186.087 13.0836 186.029 12.7926C185.971 12.5017 186.001 12.2001 186.114 11.926C186.228 11.6519 186.42 11.4176 186.667 11.2528C186.913 11.088 187.203 11 187.5 11C187.898 11 188.279 11.158 188.561 11.4393C188.842 11.7206 189 12.1022 189 12.5Z" fill="#FAFAFA"/>
<path d="M96.8277 14.7664L93.4687 17.6276L91.8352 16.8837L91.4989 15.4695C91.4989 15.4695 95.1021 12.7513 94.974 12.6083C94.6354 12.2787 94.1985 12.0744 93.7329 12.0279C92.8672 11.9137 91.9924 12.1531 91.2987 12.6941L90.6661 13.1764C90.0864 13.6136 89.6371 14.2067 89.3684 14.8895C89.0998 15.5723 89.0223 16.318 89.1448 17.0431C89.1506 17.0857 89.1586 17.128 89.1688 17.1698L79.2118 25.6266C78.5407 25.3992 77.8147 25.4049 77.1471 25.6429C76.4795 25.8809 75.9077 26.3378 75.5211 26.9423C75.1345 27.5468 74.9547 28.2649 75.0097 28.9846C75.0648 29.7044 75.3516 30.3853 75.8254 30.9212C76.2993 31.4571 76.9335 31.8178 77.6292 31.9471C78.3249 32.0764 79.043 31.967 79.6714 31.636C80.2999 31.305 80.8033 30.771 81.1033 30.1172C81.4033 29.4634 81.4829 28.7267 81.3297 28.0219L91.1746 19.5855C91.566 19.9325 92.0696 20.1189 92.5879 20.1087C93.0835 20.1184 93.5759 20.0256 94.0355 19.8359C94.4952 19.6463 94.9124 19.3636 95.2623 19.0051L96.091 18.1876C96.5051 17.7385 96.7923 17.1832 96.922 16.5808C97.0517 15.9784 97.0191 15.3514 96.8277 14.7664V14.7664ZM77.6104 30.0819C77.3447 29.9612 77.1201 29.7627 76.9649 29.5116C76.8098 29.2605 76.7311 28.968 76.7389 28.6712C76.7467 28.3744 76.8406 28.0867 77.0086 27.8444C77.1767 27.6021 77.4114 27.4162 77.6831 27.3102C77.9547 27.2042 78.2511 27.1828 78.5346 27.2489C78.8181 27.315 79.0761 27.4654 79.2758 27.6812C79.4755 27.8971 79.608 28.1685 79.6565 28.4613C79.7049 28.754 79.6672 29.0549 79.5481 29.3257C79.3889 29.6879 79.0955 29.9708 78.7323 30.1126C78.3691 30.2543 77.9657 30.2433 77.6104 30.0819V30.0819Z" fill="#2E2E2E"/>
<path d="M111.988 33.9922L101.274 34.887L101.314 34.8671C99.4863 37.0512 97.2105 38.818 94.6406 40.0482C92.0706 41.2784 89.2663 41.9433 86.417 41.998C84.057 42.0305 81.7088 41.6589 79.4743 40.8994C77.065 40.0701 74.8391 38.7827 72.9196 37.1082C70.8084 35.2813 69.1037 33.0327 67.9156 30.5075C66.7274 27.9823 66.082 25.2364 66.021 22.4468C65.993 22.0824 65.993 21.7165 66.021 21.3522C66.021 20.9886 66.057 20.6211 66.073 20.2535C66.0997 19.8864 66.1464 19.521 66.2129 19.1589L66.3809 18.0603C66.4569 17.6968 66.5609 17.3372 66.6489 16.9777C66.7368 16.6181 66.8208 16.2466 66.9448 15.8951L67.3447 14.8404L67.5367 14.3091C67.6047 14.1333 67.6966 13.9655 67.7766 13.7937C68.9678 11.1739 70.7048 8.83815 72.8716 6.94238C74.9016 5.15468 77.2769 3.80164 79.8508 2.9668C82.4247 2.13196 85.1426 1.83305 87.8367 2.08852C91.2902 2.40984 94.601 3.62139 97.4451 5.60458C100.289 7.58777 102.569 10.2746 104.062 13.4022C104.292 13.8399 104.49 14.2939 104.653 14.7605C104.821 15.2199 104.993 15.6673 105.145 16.1188C105.401 17.0004 105.601 17.897 105.745 18.8034C105.805 19.2428 105.889 19.6703 105.925 20.0977C105.961 20.5252 105.969 20.9487 105.989 21.3601C105.989 21.5679 106.009 21.7596 106.017 21.9754C106.025 22.1911 106.017 22.3749 105.993 22.5786C105.993 22.9781 105.953 23.3776 105.937 23.7451V23.7092L112 33.9922L105.825 23.7731C105.841 23.3922 105.857 23.0047 105.873 22.6106C105.873 22.4108 105.897 22.2111 105.897 22.0113C105.897 21.8116 105.877 21.6118 105.865 21.4001C105.845 21.0006 105.821 20.5731 105.801 20.1457C105.781 19.7182 105.677 19.2988 105.613 18.8593C105.47 17.9604 105.268 17.0716 105.009 16.1987C104.857 15.7512 104.685 15.3078 104.521 14.8524C104.356 14.3904 104.158 13.9405 103.93 13.5061C102.617 10.7432 100.681 8.32221 98.2735 6.43374C95.8656 4.54528 93.0519 3.24088 90.0536 2.62321C87.0554 2.00554 83.9546 2.09147 80.9953 2.87424C78.036 3.657 75.2989 5.11523 72.9996 7.13414C70.8546 9.01427 69.1354 11.3295 67.9566 13.9256C67.8806 14.0973 67.7846 14.2571 67.7206 14.4329L67.5287 14.9602L67.1288 16.0029C67.0048 16.3545 66.9368 16.718 66.8368 17.0736C66.7368 17.4291 66.6449 17.7847 66.5689 18.1442C66.4929 18.5038 66.4609 18.8713 66.4049 19.2308C66.3377 19.59 66.2923 19.9529 66.2689 20.3175C66.2689 20.681 66.2329 21.0406 66.2129 21.4041C66.187 21.7645 66.187 22.1263 66.2129 22.4867C66.3116 26.5205 67.6397 30.4283 70.02 33.6883C72.4003 36.9483 75.7194 39.4055 79.5343 40.7316C81.7481 41.4854 84.0743 41.8569 86.413 41.8303C89.2389 41.7809 92.0214 41.1279 94.5737 39.9151C97.1259 38.7024 99.3887 36.958 101.21 34.7991V34.7991H101.234L111.988 33.9922Z" fill="#1A2E35"/>
<path fill-rule="evenodd" clip-rule="evenodd" d="M101.967 94.9835C102.233 94.626 102.546 94.3055 102.898 94.0305L102.676 92.8169L104.557 92.0156L105.281 93.0152C105.723 92.9567 106.171 92.9567 106.613 93.0152L107.315 92L109.211 92.778L109.017 93.9955C109.374 94.2607 109.694 94.5735 109.967 94.9251L111.182 94.7034L111.984 96.5822L110.983 97.3057C111.044 97.7471 111.044 98.1946 110.983 98.636L112 99.3361L111.221 101.23L110.002 101.036C109.735 101.392 109.422 101.711 109.071 101.985L109.293 103.199L107.412 104L106.719 102.981C106.277 103.039 105.829 103.039 105.387 102.981L104.685 103.996L102.789 103.218L102.983 102.001C102.626 101.735 102.306 101.423 102.033 101.071L100.818 101.293L100.016 99.4139L101.017 98.6904C100.956 98.2491 100.956 97.8015 101.017 97.3601L100 96.66L100.779 94.7656L101.998 94.9601L101.967 94.9835ZM104 97.0917C103.838 97.4936 103.799 97.9344 103.887 98.3585C103.976 98.7826 104.189 99.1708 104.499 99.4741C104.809 99.7774 105.201 99.9821 105.628 100.062C106.054 100.143 106.495 100.095 106.894 99.9249C107.293 99.755 107.632 99.4708 107.87 99.1081C108.107 98.7454 108.231 98.3205 108.227 97.8873C108.222 97.4541 108.089 97.0319 107.844 96.6743C107.599 96.3167 107.254 96.0396 106.851 95.8781C106.312 95.6618 105.709 95.6682 105.174 95.8957C104.639 96.1233 104.217 96.5535 104 97.0917V97.0917Z" fill="#FCB05C"/>
<path fill-rule="evenodd" clip-rule="evenodd" d="M93.9229 134.974C94.7212 133.903 95.6589 132.944 96.7113 132.122L96.0474 128.502L101.681 126.088L103.845 129.085C105.168 128.893 106.51 128.878 107.837 129.041L109.937 126L115.611 128.273L115.023 131.921C116.095 132.719 117.055 133.658 117.876 134.712L121.497 134.049L123.911 139.68L120.914 141.844C121.106 143.166 121.121 144.508 120.958 145.834L124 147.934L121.723 153.613L118.073 153.026C117.273 154.097 116.334 155.056 115.281 155.878L115.945 159.498L110.311 161.912L108.147 158.915C106.824 159.107 105.482 159.122 104.155 158.959L102.055 162L96.3773 159.719L96.9648 156.071C95.8938 155.272 94.9344 154.333 94.112 153.28L90.4907 153.943L88.0765 148.312L91.0741 146.144C90.8821 144.823 90.8673 143.483 91.0298 142.158L88 140.062L90.2814 134.387L93.935 134.974H93.9229ZM100.011 141.293C99.5264 142.497 99.4101 143.817 99.6766 145.087C99.9431 146.358 100.58 147.52 101.508 148.428C102.435 149.336 103.611 149.948 104.887 150.188C106.163 150.428 107.481 150.284 108.675 149.775C109.869 149.266 110.885 148.414 111.595 147.327C112.304 146.241 112.676 144.968 112.662 143.67C112.648 142.373 112.249 141.108 111.516 140.037C110.784 138.966 109.75 138.136 108.545 137.653C106.93 137.005 105.124 137.024 103.524 137.707C101.924 138.389 100.66 139.679 100.011 141.293V141.293Z" fill="#FC81B3"/>
<path d="M69.2921 146.223C69.3764 145.951 69.5048 145.695 69.6721 145.464C70.1239 144.818 70.7858 144.347 71.5456 144.133C72.071 143.983 72.6244 143.96 73.1606 144.064C73.7775 144.185 74.3509 144.468 74.8213 144.884C75.0744 145.103 75.2934 145.359 75.4711 145.643C75.6604 145.942 75.8003 146.27 75.8854 146.614C76.0761 147.339 76.0279 148.106 75.748 148.802C75.468 149.497 74.9712 150.084 74.3311 150.476C74.0316 150.664 73.7047 150.803 73.3621 150.89C73.0339 150.977 72.6942 151.013 72.355 150.996C71.7681 150.975 71.196 150.807 70.6917 150.506C70.1875 150.206 69.7675 149.783 69.4707 149.277C69.0706 148.597 68.9189 147.799 69.0413 147.02C69.0784 146.738 69.1632 146.465 69.2921 146.212C69.3149 146.212 69.1857 146.496 69.1173 147.031C69.028 147.789 69.1953 148.554 69.5923 149.205C69.8616 149.652 70.2327 150.029 70.6753 150.305C71.1815 150.621 71.7623 150.798 72.3588 150.818C72.6819 150.827 73.0046 150.789 73.3165 150.704C73.6411 150.627 73.9515 150.499 74.2361 150.324C74.8358 149.948 75.3022 149.393 75.5699 148.739C75.8322 148.082 75.8788 147.359 75.703 146.675C75.6275 146.349 75.4992 146.037 75.3229 145.753C75.157 145.478 74.9508 145.23 74.7111 145.017C74.2963 144.641 73.7939 144.375 73.2496 144.242C72.7054 144.109 72.1366 144.115 71.595 144.258C70.8566 144.453 70.2051 144.89 69.7443 145.498C69.4137 145.942 69.3149 146.235 69.2921 146.223Z" fill="#0059DF"/>
<path d="M65.2774 143.02C65.235 143.025 65.1921 143.025 65.1497 143.02L64.7705 142.968L63.2695 142.745H63.3054C62.986 143.542 62.5709 144.595 62.0679 145.863V145.803L63.7405 146.947L63.7725 146.967V147.003C63.6878 147.724 63.6985 148.454 63.8044 149.172V149.212L63.7685 149.24L62.1277 150.436L62.1517 150.348C62.5722 151.316 63.014 152.343 63.4771 153.431L63.3892 153.383L65.3852 153.012H65.4371L65.4691 153.052C65.9153 153.623 66.4362 154.131 67.018 154.563L67.0619 154.595V154.651C66.9621 155.269 66.8543 155.955 66.7425 156.644L66.6866 156.545L69.8044 157.789L69.6886 157.825L70.8383 156.154L70.8743 156.106H70.9341C71.6519 156.193 72.3781 156.185 73.0938 156.082H73.1537L73.1896 156.134C73.5649 156.648 73.988 157.207 74.3872 157.777L74.2635 157.741L77.3533 156.425L77.2934 156.537C77.1776 155.907 77.0539 155.225 76.9261 154.543V154.479L76.978 154.443C77.5463 153.997 78.0536 153.478 78.487 152.9V152.9L78.523 152.848H78.5868L80.5828 153.167L80.4471 153.191L81.7006 150.081L81.7365 150.201L80.0679 149.049L80.02 149.013V148.953C80.1079 148.235 80.0999 147.508 79.996 146.792V146.732L80.0439 146.696L81.6886 145.5L81.6567 145.616L80.3433 142.53L80.4471 142.585L78.4511 142.948H78.3952L78.3593 142.904C77.914 142.332 77.3945 141.821 76.8144 141.385L76.7705 141.353V141.301C76.8822 140.616 76.99 139.95 77.0978 139.308L77.1497 139.404L74.0359 138.144L74.1317 138.116L72.9741 139.782L72.9461 139.818H72.9022C72.1816 139.72 71.4511 139.72 70.7305 139.818H70.6906L70.6667 139.786C70.2355 139.188 69.8683 138.65 69.4691 138.14L69.5409 138.159L66.4751 139.507L66.503 139.455L66.8543 141.449V141.469C66.4187 141.803 66.0175 142.18 65.6567 142.593L65.3932 142.904L65.3054 143.004C65.3054 143.004 65.3293 142.964 65.3812 142.892C65.4331 142.821 65.513 142.709 65.6327 142.569C65.9905 142.145 66.3919 141.758 66.8303 141.417V141.449C66.7305 140.907 66.6068 140.253 66.4551 139.455V139.419H66.491L69.5729 138.088L69.6168 138.068L69.6447 138.108L70.8423 139.746L70.7784 139.718C71.5098 139.611 72.2522 139.601 72.986 139.691L72.9142 139.722L74.0639 138.052L74.0998 138L74.1597 138.024L77.2774 139.268L77.3413 139.292V139.36C77.2375 140.01 77.1337 140.675 77.0259 141.353L76.99 141.27C77.5885 141.711 78.1255 142.23 78.5868 142.813L78.495 142.777L80.491 142.414H80.5669L80.5948 142.486C81.0259 143.485 81.4664 144.512 81.9162 145.568L81.9481 145.64L81.8842 145.687L80.2395 146.884L80.2834 146.788C80.3894 147.521 80.3975 148.265 80.3074 149.001L80.2635 148.905L81.9321 150.057L82 150.105L81.9721 150.181L80.7186 153.291L80.6906 153.371H80.6068L78.6108 153.052L78.7106 153.012C78.2678 153.611 77.7453 154.148 77.1577 154.607L77.1976 154.507C77.3214 155.193 77.4451 155.875 77.5609 156.501V156.581L77.485 156.612L74.3952 157.928L74.3194 157.96L74.2754 157.892L73.0778 156.25L73.1737 156.289C72.4394 156.395 71.6944 156.403 70.9581 156.313L71.0499 156.27C70.6507 156.848 70.2515 157.418 69.8922 157.936L69.8483 158L69.7804 157.972L66.6627 156.716L66.5948 156.688V156.616C66.7106 155.923 66.8184 155.237 66.9222 154.623L66.9541 154.707C66.3546 154.263 65.8175 153.742 65.3573 153.156L65.4411 153.187L63.4451 153.55H63.3812L63.3573 153.49C62.8982 152.406 62.4591 151.373 62.0439 150.4L62.024 150.344L62.0719 150.313L63.7166 149.116L63.6926 149.18C63.5885 148.451 63.5818 147.711 63.6727 146.979L63.7006 147.035L62.0359 145.875L62 145.851V145.811C62.519 144.547 62.9461 143.502 63.2695 142.709V142.681H63.2934L64.7784 142.936L65.1776 143.004L65.2774 143.02Z" fill="#0059DF"/>
<path fill-rule="evenodd" clip-rule="evenodd" d="M57.7344 101.9C58.3601 100.192 59.2128 98.5762 60.2697 97.096L57.9887 92.6062L64.4026 87.2859L68.3766 90.3573C70.0283 89.5994 71.7736 89.0649 73.5665 88.768L75.1283 84L83.4457 84.7311L84.0974 89.7215C85.806 90.3562 87.4219 91.2168 88.9019 92.2804L93.3925 89.9997L98.7136 96.4126L95.6417 100.386C96.4003 102.037 96.9349 103.782 97.2313 105.575L102 107.137L101.225 115.433L96.2338 116.084C95.6165 117.79 94.7746 119.405 93.7302 120.888L96.0113 125.378L89.5974 130.698L85.6036 127.643C83.9521 128.401 82.2067 128.936 80.4136 129.232L78.8519 134L70.5543 133.229L69.9026 128.239C68.195 127.61 66.5792 126.756 65.0981 125.7L60.6075 127.98L55.2904 121.568L58.3583 117.594C57.6003 115.943 57.0657 114.198 56.7687 112.405L52 110.844L52.7709 102.547L57.7662 101.896L57.7344 101.9ZM68.1342 107.776C67.9697 109.537 68.331 111.307 69.1726 112.862C70.0141 114.417 71.298 115.688 72.8619 116.513C74.4258 117.339 76.1995 117.682 77.9586 117.5C79.7177 117.318 81.3832 116.618 82.7445 115.489C84.1058 114.36 85.1018 112.853 85.6064 111.159C86.111 109.464 86.1016 107.658 85.5795 105.968C85.0573 104.279 84.0458 102.782 82.6728 101.668C81.2999 100.553 79.6272 99.8705 77.8663 99.7065C75.5057 99.4876 73.1548 100.215 71.33 101.728C69.5052 103.241 68.3557 105.416 68.1342 107.776V107.776Z" fill="#A0E0ED"/>
<path d="M116 48.9225C116 48.9225 123.552 35.9109 138.115 32.3694C152.678 28.8278 163.067 32.9142 169 36.0614L167.397 37.6878C167.397 37.6878 150.962 29.7508 138.267 33.3086C125.572 36.8665 117.904 50 117.904 50L116 48.9225Z" fill="#0059DF"/>
<path d="M159 120.676L162.867 125.404C163.075 125.658 163.356 125.843 163.674 125.935C163.992 126.027 164.331 126.021 164.645 125.919C164.959 125.816 165.234 125.622 165.433 125.361C165.631 125.101 165.744 124.787 165.756 124.462L166 118L159 120.676Z" fill="#2E2E2E"/>
<path d="M194.261 57.4279C192.179 66.5884 184.945 74.1685 179.104 71.434C171.887 68.0602 172.217 63.3151 174.295 54.1425C176.374 44.97 181.412 39.8107 187.704 41.2342C193.995 42.6578 196.34 48.2876 194.261 57.4279Z" fill="#C6EDFF"/>
<path d="M108.499 64.5248C106.076 63.8801 103.54 63.8287 101.094 64.3746C93.3858 66.2295 93.8971 76.738 97.637 82.0836C101.892 88.172 111.999 90.6479 118.673 87.8595C124.965 85.2374 123.325 77.8055 120.454 73.0525C117.993 68.9733 113.376 65.7465 108.499 64.5248Z" fill="#C6EDFF"/>
<path d="M179.314 102.196C177.039 109.268 171.4 118.603 161.903 121.133C153.688 123.328 145.73 121.157 138.845 116.851C136.224 115.199 133.77 113.292 131.52 111.156C129.4 109.158 127.437 106.998 125.648 104.694C125.185 104.099 124.734 103.497 124.294 102.87C123.899 102.319 123.503 101.765 123.143 101.198C121.829 99.2146 120.639 97.1498 119.582 95.016L119.502 94.8603C117.875 91.5324 116.582 88.0481 115.644 84.4598C115.105 82.3842 114.694 80.2769 114.414 78.15C113.254 69.2901 114.477 60.1906 118.786 52.0171C123.044 43.9353 130.574 38.1444 139.256 35.3786C156.414 29.907 171.704 41.5567 178.087 55.6249C178.684 56.9465 179.196 58.3048 179.623 59.6917C180.274 61.8162 180.774 63.9848 181.118 66.1811C181.633 69.448 181.92 72.7474 181.977 76.0548C182.036 78.7607 181.977 81.4107 181.839 83.913C181.629 87.7923 181.245 91.3004 180.881 94.0781C180.663 95.7224 180.454 97.1072 180.291 98.1529C180.073 99.5246 179.746 100.877 179.314 102.196V102.196Z" fill="url(#paint0_linear_437_2178)"/>
<path d="M149.42 23.234C146.284 22.2985 143.187 24.2905 141.92 27.0325C141.231 28.5836 140.922 30.267 141.017 31.9519C141.075 33.4237 141.138 35.7746 142.309 36.8512C142.376 36.9095 142.456 36.9524 142.544 36.9768C142.631 37.0012 142.722 37.0064 142.812 36.9921C142.901 36.9778 142.986 36.9443 143.06 36.8941C143.135 36.8439 143.196 36.7783 143.241 36.702C143.734 35.6214 143.308 34.2826 143.161 33.1576C142.946 31.7815 142.971 30.3803 143.237 29.0124C143.83 26.3873 146.084 24.0364 149.09 24.7139C150.068 24.9558 150.377 23.5364 149.42 23.234Z" fill="#2E2E2E"/>
<path d="M133.831 34.5107C132.95 33.1074 131.748 31.9517 130.331 31.1468C128.795 30.3046 127.066 29.9136 125.332 30.016C123.918 30.089 121.891 30.3848 121.072 31.7061C120.845 32.0749 121.194 32.464 121.546 32.4802C122.814 32.5369 124.091 31.7588 125.406 31.7182C126.893 31.6729 128.363 32.0544 129.654 32.8206C130.789 33.5062 131.743 34.4726 132.429 35.6334C133.04 36.6466 133.31 38.0286 134.105 38.8757C134.155 38.9239 134.215 38.9596 134.28 38.9801C134.346 39.0006 134.415 39.0053 134.483 38.994C134.55 38.9827 134.614 38.9555 134.67 38.9147C134.726 38.8738 134.772 38.8203 134.805 38.7582C135.385 37.4126 134.555 35.6577 133.831 34.5107Z" fill="#2E2E2E"/>
<path d="M126.165 56.9525C125.998 56.4136 125.957 55.8418 126.045 55.2835C126.134 54.7252 126.349 54.1963 126.674 53.7396C127.007 53.2663 127.432 52.8694 127.923 52.5744C128.414 52.2793 128.959 52.0926 129.524 52.0261C130.084 51.9627 130.652 52.0151 131.192 52.1803C131.724 52.3472 132.218 52.6226 132.644 52.99C133.056 53.3475 133.389 53.7902 133.623 54.2892C133.857 54.7882 133.985 55.3323 134 55.8858C134.001 55.8998 133.999 55.9139 133.995 55.9272C133.99 55.9405 133.983 55.9526 133.973 55.9627C133.964 55.9729 133.952 55.9808 133.94 55.986C133.927 55.9912 133.913 55.9936 133.9 55.9929C133.876 55.9929 133.853 55.9849 133.834 55.9702C133.815 55.9555 133.802 55.9349 133.795 55.9115C133.568 54.9559 133.005 54.12 132.214 53.564C131.463 53.0356 130.545 52.8183 129.645 52.9557C128.758 53.0978 127.954 53.5688 127.384 54.2794C126.784 55.0254 126.425 55.9447 126.357 56.9096C126.356 56.9226 126.353 56.9352 126.347 56.9468C126.341 56.9583 126.333 56.9686 126.323 56.9769C126.314 56.9853 126.303 56.9916 126.29 56.9955C126.278 56.9994 126.266 57.0008 126.253 56.9996C126.236 57.0002 126.219 56.9962 126.203 56.9879C126.188 56.9797 126.175 56.9674 126.165 56.9525Z" fill="#2E2E2E"/>
<path d="M153.442 48.9543C153.172 48.5234 153.021 48.0418 153.002 47.5492C152.983 47.0565 153.096 46.5669 153.332 46.1206C153.572 45.6606 153.918 45.2501 154.347 44.9152C154.776 44.5803 155.279 44.3284 155.824 44.1756C156.368 44.0251 156.941 43.9705 157.508 44.015C158.067 44.0675 158.608 44.2185 159.1 44.4593C159.577 44.6924 159.993 45.0126 160.32 45.3987C160.647 45.7848 160.878 46.2281 160.998 46.6993C161.003 46.724 160.997 46.7495 160.982 46.7704C160.966 46.7912 160.942 46.8059 160.914 46.8113C160.891 46.8149 160.868 46.8117 160.847 46.8023C160.827 46.7928 160.81 46.7776 160.8 46.7591C160.39 45.9825 159.672 45.3662 158.784 45.0268C157.939 44.704 156.988 44.6786 156.123 44.9558C155.274 45.2298 154.567 45.7704 154.136 46.4753C153.686 47.2189 153.508 48.0684 153.627 48.9057C153.628 48.917 153.627 48.9284 153.623 48.9392C153.619 48.95 153.613 48.9601 153.605 48.9687C153.596 48.9774 153.586 48.9846 153.575 48.9898C153.564 48.995 153.551 48.9981 153.538 48.9991C153.519 49.0017 153.499 48.9987 153.482 48.9907C153.464 48.9826 153.45 48.9699 153.442 48.9543V48.9543Z" fill="#2E2E2E"/>
<path d="M166.824 52.8179C167.63 51.3702 167.306 49.6506 166.1 48.977C164.895 48.3035 163.265 48.931 162.459 50.3787C161.653 51.8264 161.977 53.546 163.182 54.2196C164.388 54.8932 166.018 54.2656 166.824 52.8179Z" fill="#EB8757"/>
<path d="M128.292 61.378C128.536 60.3007 127.424 59.1299 125.808 58.7629C124.192 58.396 122.685 58.9719 122.441 60.0493C122.198 61.1266 123.31 62.2975 124.926 62.6644C126.541 63.0313 128.049 62.4554 128.292 61.378Z" fill="#EB8757"/>
<path d="M112.983 80.9813L112.118 80.6329C110.47 79.9553 109.189 79.3154 109.012 81.5795C108.868 83.4232 110.05 85.1042 111.401 86.3915C113.02 87.94 115.393 89.4203 118.025 88.8903C120.282 88.4359 120.616 85.4828 118.968 84.0858C117.32 82.6888 115.034 81.8028 112.983 80.9813Z" fill="url(#paint1_linear_437_2178)"/>
<path d="M141.682 113C138.948 113.828 138.706 120.566 139.213 122.834C139.694 124.986 141.224 126 142.566 123.661C143.669 121.718 144.456 119.586 144.893 117.358C145.308 114.784 144.574 114.221 141.682 113Z" fill="url(#paint2_linear_437_2178)"/>
<path d="M174.102 105.087C174.17 107.172 180.329 112.421 182.137 110.636C184.949 107.891 180.232 101.793 177.408 101.097C174.973 100.489 173.603 102.839 174.102 105.087Z" fill="url(#paint3_linear_437_2178)"/>
<path d="M181 65.5004C174.438 69.8619 163.949 76.0625 152.291 79.9523C139.573 84.1939 124.382 84.2779 115.236 83.8062C114.693 81.7289 114.28 79.6192 114 77.4897C122.426 78.0014 137.931 78.1893 150.344 74.0476C162.482 69.9979 173.508 63.1217 179.498 59C180.15 61.1286 180.652 63.3007 181 65.5004V65.5004Z" fill="#2E2E2E"/>
<path d="M181.859 83.808C175.068 88.6588 164.822 95.2005 155.81 97.6299C146.283 100.202 131.755 100.857 122.595 101C121.27 99.0264 120.069 96.9728 119 94.8512C127.213 94.8155 144.086 94.3908 154.153 91.6756C164.043 89.0081 176.191 80.4062 181.967 76C182.043 78.6834 181.979 81.3191 181.859 83.808Z" fill="#2E2E2E"/>
<path d="M179.405 102.207C173.839 105.431 166.37 109.644 160.628 112.369C155.211 114.94 146.163 116.295 138.421 117C135.767 115.332 133.281 113.407 131 111.252C138.97 110.813 151.712 109.668 157.971 106.697C165.296 103.223 175.883 97.0433 181 94C180.78 95.6607 180.567 97.0594 180.407 98.1155C180.18 99.5035 179.845 100.871 179.405 102.207Z" fill="#2E2E2E"/>
<path d="M182.775 62.2714L183.338 61.5688C184.411 60.2155 185.185 59.0617 186.35 61.1257C187.3 62.8064 187.074 64.9022 186.53 66.7147C185.875 68.8704 184.564 71.2897 182.136 71.9284C180.051 72.4713 178.439 69.8126 179.186 67.7965C179.933 65.7805 181.438 63.9361 182.775 62.2714Z" fill="url(#paint4_linear_437_2178)"/>
<g style="mix-blend-mode:overlay" opacity="0.3">
<path d="M157.663 39.1463C155.734 38.033 152.268 37.5498 151.126 37.3681C146.898 36.6881 142.563 36.9527 138.459 38.1412C135.949 38.8835 122.137 45.5868 127.047 49.3714C128.629 50.593 131.89 49.7966 133.468 48.9848C136.841 47.2374 140.731 46.2014 144.395 45.2002C148.495 44.083 152.679 43.9863 156.719 43.0779C157.16 42.999 157.578 42.826 157.94 42.5717C158.303 42.3175 158.601 41.9884 158.813 41.6089C159.322 40.5651 158.745 39.761 157.663 39.1463Z" fill="white"/>
</g>
<g style="mix-blend-mode:overlay" opacity="0.4">
<path d="M180.479 80.2858C180.775 80.6311 180.972 81.2857 180.988 82.2093C181.138 90.3208 179.891 98.9866 176.149 106.339C172.473 113.567 164.35 122.297 155.468 119.446C154.663 119.242 153.942 118.786 153.407 118.141C151.228 115.105 158.417 112.644 160.161 111.684C163.742 109.686 166.799 106.842 169.075 103.392C173.417 96.8663 175.6 89.0479 178.406 81.7756C179.07 80.0609 179.938 79.6433 180.479 80.2858Z" fill="#2E2E2E"/>
</g>
<path d="M152.634 55.8942C153.007 57.2784 153.096 58.7268 152.896 60.1481C152.551 62.5136 151.307 64.5814 149.026 65.4746C147.837 65.979 146.532 66.1242 145.265 65.893C143.998 65.6617 142.822 65.0638 141.875 64.1695C140.559 62.9615 139.612 61.3896 139.145 59.6424C138.398 56.82 140.639 56.7017 143.476 57.4196C144.376 57.6464 145.32 57.6142 146.204 57.3264C147.088 57.0386 147.878 56.5064 148.486 55.7882C150.234 53.7244 151.887 53.0637 152.634 55.8942Z" fill="#2E2E2E"/>
<path d="M153 60.3444C152.655 62.6306 151.414 64.629 149.138 65.4923C147.951 65.9797 146.648 66.12 145.384 65.8966C144.119 65.6731 142.945 65.0952 142 64.2309C143.34 62.3117 145.338 60.9428 147.619 60.3799C149.377 59.8857 151.236 59.8735 153 60.3444V60.3444Z" fill="#E24450"/>
<path d="M175.07 37.0372C177.552 39.5511 177.647 43.4142 175.314 45.6492C172.982 47.8842 164.053 38.7965 166.385 36.5574C168.718 34.3183 172.605 34.5069 175.07 37.0372Z" fill="#0059DF"/>
<path d="M163 37.6119L174.319 49C175.51 47.8775 175.093 45.6092 173.421 43.9235L168.163 38.6334C166.491 36.9516 164.18 36.4933 163 37.6119Z" fill="#2E2E2E"/>
<path d="M110.675 50.6384C109.205 53.7623 110.216 57.4531 112.931 58.8764C115.646 60.2997 120.964 48.9908 118.249 47.5634C115.534 46.1361 112.144 47.5145 110.675 50.6384Z" fill="#0059DF"/>
<path d="M122 47.2237L114.425 62C112.88 61.2573 112.539 58.8841 113.659 56.7005L117.182 49.8391C118.302 47.6475 120.459 46.481 122 47.2237Z" fill="#2E2E2E"/>
<path d="M164 63C165.657 63 167 61.6569 167 60C167 58.3431 165.657 57 164 57C162.343 57 161 58.3431 161 60C161 61.6569 162.343 63 164 63Z" fill="#2E2E2E"/>
<path d="M166.588 59C166.462 59.0009 166.339 58.9612 166.238 58.8868C166.137 58.8123 166.062 58.7072 166.025 58.5869C165.989 58.4667 165.992 58.3378 166.034 58.2194C166.077 58.1011 166.156 57.9996 166.261 57.9301C172.675 53.6118 171.777 45.7416 171.765 45.66C171.746 45.5052 171.789 45.3492 171.885 45.2262C171.981 45.1033 172.122 45.0235 172.277 45.0044C172.431 44.9853 172.587 45.0285 172.71 45.1245C172.833 45.2204 172.913 45.3612 172.932 45.516C172.975 45.8661 173.943 54.172 166.918 58.8988C166.821 58.9652 166.706 59.0005 166.588 59V59Z" fill="#2E2E2E"/>
<path d="M270.404 199H6.5964C6.43822 199 6.28653 198.947 6.17468 198.854C6.06283 198.76 6 198.633 6 198.5C6 198.367 6.06283 198.24 6.17468 198.146C6.28653 198.053 6.43822 198 6.5964 198H270.404C270.562 198 270.713 198.053 270.825 198.146C270.937 198.24 271 198.367 271 198.5C271 198.633 270.937 198.76 270.825 198.854C270.713 198.947 270.562 199 270.404 199Z" fill="#2E2E2E"/>
<path d="M199.953 164H199.845C199.714 163.986 199.588 163.945 199.473 163.882C199.359 163.819 199.257 163.733 199.175 163.631C199.093 163.528 199.032 163.41 198.996 163.284C198.959 163.158 198.948 163.025 198.962 162.895C199.126 161.293 198.931 158.71 197.984 158.157C195.988 156.988 188.945 152.222 186.031 150.111C183.524 148.293 182.566 143.928 183.18 137.136C183.348 135.297 183.875 134.068 184.753 133.475C184.973 133.32 185.222 133.211 185.484 133.152C185.747 133.094 186.018 133.088 186.283 133.135C190.355 133.575 191.301 138.629 191.341 138.846C191.345 138.904 191.345 138.963 191.341 139.022V142.506C192.874 142.786 194.878 142.266 196.363 141.144C197.141 140.585 197.759 139.832 198.156 138.96C198.554 138.087 198.718 137.126 198.631 136.17C198.28 132.029 194.794 130.544 193.609 130.163L189.433 132.854C189.282 132.952 189.108 133.007 188.929 133.015C187.261 133.083 185.995 132.634 185.177 131.693C184.814 131.236 184.552 130.707 184.406 130.141C184.261 129.575 184.237 128.985 184.334 128.409C184.354 128.292 184.395 128.18 184.454 128.077C184.917 127.276 189.093 120.407 193.285 120.407C196.112 120.407 199.673 122.987 201.733 124.729L201.881 103.619C201.877 103.563 201.877 103.507 201.881 103.451C202.062 102.424 202.62 101.502 203.444 100.866C204.269 100.231 205.3 99.9269 206.336 100.015C209.359 100.183 210.293 102.842 210.365 104.224C210.367 104.247 210.367 104.269 210.365 104.292L210.205 115.81L212.125 105.397C212.137 105.329 212.158 105.261 212.185 105.197C212.696 103.944 214.397 101.801 217.144 102.666C219.791 103.495 220.338 106.142 220.286 107.428C220.286 107.472 220.286 107.512 220.286 107.556L217.136 124.605L223.021 115.478C223.038 115.446 223.06 115.416 223.085 115.389C224.067 114.188 226.302 112.442 228.426 113.687C230.55 114.933 230.103 117.82 229.5 119.33L229.465 119.414C229.389 119.554 222.122 133.812 220.513 136.879C219.412 138.982 218.917 153.824 218.837 162.686C218.836 162.951 218.73 163.205 218.543 163.392C218.356 163.579 218.103 163.684 217.839 163.684C217.708 163.683 217.578 163.656 217.457 163.604C217.337 163.553 217.227 163.478 217.135 163.385C217.043 163.291 216.971 163.18 216.921 163.058C216.872 162.936 216.847 162.806 216.848 162.674C216.848 160.272 217.064 139.17 218.753 135.946C220.31 132.983 227.181 119.506 227.668 118.553C227.768 118.261 228.502 116.046 227.428 115.417C226.354 114.789 224.889 116.367 224.666 116.619L216.082 129.943C215.956 130.136 215.767 130.28 215.547 130.349C215.327 130.418 215.09 130.409 214.877 130.324C214.663 130.238 214.485 130.08 214.374 129.878C214.262 129.676 214.224 129.441 214.265 129.214L218.318 107.268C218.318 106.931 218.25 105.101 216.573 104.576C215.072 104.104 214.301 105.429 214.09 105.878L210.041 127.76C209.994 128.005 209.857 128.222 209.657 128.371C209.458 128.519 209.21 128.587 208.963 128.561C208.714 128.535 208.484 128.417 208.317 128.23C208.15 128.042 208.059 127.799 208.061 127.548L208.389 104.26C208.361 103.948 208.129 102.073 206.241 101.969C205.703 101.902 205.16 102.042 204.722 102.361C204.283 102.68 203.981 103.154 203.877 103.687L203.717 126.915C203.714 127.111 203.654 127.302 203.545 127.464C203.435 127.626 203.281 127.752 203.101 127.828C202.92 127.903 202.722 127.924 202.53 127.888C202.338 127.852 202.161 127.76 202.021 127.624C200.519 126.162 196.032 122.362 193.285 122.362C190.782 122.362 187.424 126.995 186.283 128.87C186.225 129.393 186.368 129.918 186.682 130.339C187.045 130.74 187.684 130.964 188.578 130.968L192.894 128.165C193.006 128.093 193.131 128.045 193.262 128.022C193.393 128 193.527 128.003 193.657 128.033C195.872 128.541 200.176 130.836 200.611 135.938C200.736 137.231 200.52 138.535 199.985 139.718C199.451 140.901 198.616 141.924 197.565 142.682C195.313 144.384 192.199 144.981 189.979 144.136C189.79 144.064 189.627 143.937 189.512 143.77C189.397 143.603 189.334 143.406 189.333 143.203V139.118C189.217 138.581 188.414 135.349 186.011 135.113H185.899C185.787 135.141 185.304 135.57 185.145 137.324C184.622 143.111 185.36 147.18 187.177 148.493C190.059 150.584 197.006 155.302 198.966 156.435C201.406 157.865 200.963 162.586 200.923 163.119C200.894 163.358 200.78 163.579 200.602 163.741C200.423 163.903 200.193 163.995 199.953 164V164Z" fill="#A0E0ED"/>
<path d="M219.024 178C218.765 178 218.516 177.898 218.333 177.716C218.15 177.534 218.047 177.288 218.047 177.03V166.947H199.953V177.03C199.953 177.288 199.85 177.534 199.667 177.716C199.484 177.898 199.235 178 198.976 178C198.717 178 198.469 177.898 198.286 177.716C198.103 177.534 198 177.288 198 177.03V165.97C198 165.712 198.103 165.466 198.286 165.284C198.469 165.102 198.717 165 198.976 165H219.024C219.283 165 219.531 165.102 219.714 165.284C219.897 165.466 220 165.712 220 165.97V177.03C220 177.288 219.897 177.534 219.714 177.716C219.531 177.898 219.283 178 219.024 178Z" fill="#A0E0ED"/>
<defs>
<linearGradient id="paint0_linear_437_2178" x1="144.065" y1="9.50688" x2="149.685" y2="100.436" gradientUnits="userSpaceOnUse">
<stop offset="0.15" stop-color="#FFE36F"/>
<stop offset="0.42" stop-color="#FFE070"/>
<stop offset="0.69" stop-color="#FFD772"/>
<stop offset="0.97" stop-color="#FFC96F"/>
<stop offset="1" stop-color="#FFC366"/>
</linearGradient>
<linearGradient id="paint1_linear_437_2178" x1="-2009.62" y1="6392.81" x2="-1010.29" y2="8953.43" gradientUnits="userSpaceOnUse">
<stop offset="0.15" stop-color="#FCD844"/>
<stop offset="0.42" stop-color="#FCD443"/>
<stop offset="0.69" stop-color="#FCC740"/>
<stop offset="0.97" stop-color="#FBB33C"/>
<stop offset="1" stop-color="#FBB03B"/>
</linearGradient>
<linearGradient id="paint2_linear_437_2178" x1="2404.12" y1="3781.04" x2="4360.76" y2="4831.51" gradientUnits="userSpaceOnUse">
<stop offset="0.15" stop-color="#FCD844"/>
<stop offset="0.42" stop-color="#FCD443"/>
<stop offset="0.69" stop-color="#FCC740"/>
<stop offset="0.97" stop-color="#FBB33C"/>
<stop offset="1" stop-color="#FBB03B"/>
</linearGradient>
<linearGradient id="paint3_linear_437_2178" x1="4198.8" y1="2508.7" x2="6154" y2="4398.14" gradientUnits="userSpaceOnUse">
<stop offset="0.15" stop-color="#FCD844"/>
<stop offset="0.42" stop-color="#FCD443"/>
<stop offset="0.69" stop-color="#FCC740"/>
<stop offset="0.97" stop-color="#FBB33C"/>
<stop offset="1" stop-color="#FBB03B"/>
</linearGradient>
<linearGradient id="paint4_linear_437_2178" x1="1950.45" y1="4324.26" x2="2788.26" y2="6975.45" gradientUnits="userSpaceOnUse">
<stop offset="0.15" stop-color="#FCD844"/>
<stop offset="0.42" stop-color="#FCD443"/>
<stop offset="0.69" stop-color="#FCC740"/>
<stop offset="0.97" stop-color="#FBB33C"/>
<stop offset="1" stop-color="#FBB03B"/>
</linearGradient>
</defs>
</svg>
