<svg width="64" height="64" viewBox="0 0 64 64" fill="none" xmlns="http://www.w3.org/2000/svg">
<path d="M7.94862 3.00941C6.684 3.11731 5.57998 4.1502 7.15752 5.87963C10.1877 7.61835 4.16903 8.89783 5.92625 10.0611C6.48662 11.2862 5.88138 12.6512 4.24293 12.8709C1.84311 13.0813 2.07057 16.4104 4.40947 14.6655C7.01943 13.824 4.86063 14.9983 3.63027 15.2396C0.868041 16.0563 -1.01419 18.8595 0.590762 21.4211C2.12567 24.9481 2.53467 28.8823 3.72544 32.5516C5.69585 38.1946 8.57475 43.5642 12.3146 48.2018C14.0901 50.8316 16.6858 52.7002 19.1252 54.6493C21.525 56.2302 24.1974 57.8117 26.9292 58.6192C31.7806 60.4229 36.987 60.5916 42.0851 61C45.1914 60.9938 48.3093 60.7714 51.3761 60.2145C54.1353 60.5177 56.1207 58.1213 58.615 59.3866C60.1255 58.0254 62.3269 58.6183 63.8374 57.6282C64.9551 53.7672 59.999 56.8628 58.4306 54.9756C56.7251 57.0113 55.2938 54.7522 53.2259 55.3864C49.7054 55.5659 53.4927 53.7842 53.4044 52.1476C51.5375 50.6935 49.4293 54.1441 48.2354 55.0722C45.2874 54.5308 42.3685 53.6796 39.6642 52.3833C36.5822 50.7529 33.5572 48.8131 31.3249 46.0628C28.989 43.2536 26.4069 40.4129 25.341 36.8055C23.0874 30.85 23.234 24.4017 22.6584 18.1461C22.8716 13.9106 27.2742 18.6019 29.1776 17.0705C28.5258 14.8739 25.0529 14.1786 23.1343 13.2999C21.2826 13.17 20.6079 11.4843 18.6375 11.3482C18.7319 8.99688 15.017 10.2907 13.6648 8.61692C14.9957 5.12711 9.25565 8.69977 9.70333 5.68023C10.6383 3.71721 9.21325 2.90151 7.94862 3.00941ZM7.96647 3.3055C8.26664 3.22941 8.61187 3.29061 8.95981 3.57137C10.6104 5.82984 5.92383 3.31236 7.5501 5.46874C6.56109 4.99771 7.06597 3.53376 7.96647 3.3055ZM11.5473 7.67428C11.9675 7.76477 12.1126 8.01957 10.9584 8.17581L10.4944 8.15164C10.4335 7.65818 11.127 7.58378 11.5473 7.67428ZM11.0833 9.3239C11.9178 9.69516 13.6285 9.86705 13.9087 10.7983C12.2002 9.8949 14.2486 11.8868 12.8142 11.8497C12.0407 11.859 10.6082 10.1716 11.0833 9.3239ZM10.655 10.7258C12.5889 12.2201 9.57737 10.725 8.3531 11.6624C6.42533 11.8604 10.4662 10.5587 10.655 10.7258ZM15.7645 11.6201C16.0113 11.6893 16.0112 11.9264 15.6039 12.4237C17.1023 14.2429 15.9401 13.6293 14.9199 12.3391C15.8152 12.9672 15.1246 15.6791 13.7481 13.8135C12.7735 11.9696 12.1565 13.2159 13.1889 14.4782C12.1748 12.5384 9.23914 13.3671 7.09209 14.1096C5.70641 13.9549 10.693 12.9069 11.232 12.6594C12.0657 12.6756 15.0242 11.4124 15.7645 11.6201ZM21.7721 13.6746C22.3846 13.6665 22.9886 13.69 23.5863 13.741C24.5456 14.8764 22.8601 16.7986 21.1059 16.9255C18.9741 17.736 16.8042 17.9344 14.8247 18.2004C12.2848 17.8756 10.4609 20.1967 7.82966 20.4906C8.53012 19.1726 7.25421 20.0359 5.9203 19.9709C6.59944 22.6316 1.22117 19.2638 4.39758 18.6234C2.01603 17.7633 1.98272 20.3056 2.23245 21.7535H2.07185C-0.108693 18.901 2.31649 17.7377 5.07567 17.3726C4.55185 18.6875 5.82908 19.1103 7.0564 19.3485C9.04508 18.7916 5.74824 18.4334 7.25269 17.9044C8.07801 17.7497 4.62151 17.0646 7.50251 16.6717C10.4566 16.1674 13.1143 14.9882 16.0441 14.3694C18.0266 13.9703 19.9347 13.6986 21.7721 13.6746ZM21.1178 14.3513C20.8571 14.2689 20.2507 14.4346 19.9401 15.2637C20.1655 15.7866 20.2772 15.1108 20.2316 14.9314C21.2959 14.7659 21.3786 14.4337 21.1178 14.3513ZM14.9734 15.4632C14.121 15.4233 12.7247 15.6107 12.2313 16.2124C12.8587 16.5033 13.5485 15.4077 14.45 16.0976C16.1326 15.7728 15.8257 15.503 14.9734 15.4632ZM27.1433 15.6203C27.5693 15.5496 28.8885 16.05 28.4222 16.8892C28.1024 16.982 28.157 16.4923 27.9225 16.4118C26.9563 15.9118 26.8877 15.6627 27.1433 15.6203ZM10.6193 16.7804C10.3966 16.7802 10.2183 16.8827 10.197 17.1611L10.6253 17.5599C12.3361 17.7015 11.2876 16.7812 10.6193 16.7804ZM9.66169 17.5781C9.34411 17.5309 9.04984 17.7096 8.88843 18.3153C9.18689 18.241 9.66093 18.4158 9.9472 18.6355C11.7516 19.8885 10.6144 17.7195 9.66169 17.5781ZM21.2665 17.8741C22.8502 17.5593 22.3882 21.7238 21.8792 23.0043C22.8385 22.3391 22.6538 26.0955 22.3431 27.4939C22.867 26.7793 23.0825 28.6503 22.4978 29.9714C22.5465 29.7548 23.765 29.5661 22.8666 31.1316C22.1814 29.597 21.8837 34.2531 22.3253 32.1648C23.5343 30.191 23.2178 32.0598 23.5863 32.9322C23.8239 34.7421 24.6186 36.4115 24.8592 38.014C25.9769 39.1587 24.3832 38.3826 24.3893 39.9295C24.7517 39.4809 26.2305 40.5596 26.2213 42.1653C26.3432 39.6191 26.4872 41.5697 27.7084 42.2318C28.7286 43.9024 29.4928 45.4655 31.0156 46.8422C32.2033 48.2375 30.941 47.2573 31.4557 48.1112C32.7165 50.382 35.6375 51.6986 38.1652 52.2926C39.2738 53.7591 40.9378 55.2177 43.1914 54.5526C41.285 55.7468 48.5608 56.0716 46.1001 56.746C44.821 57.4514 43.6073 56.2914 42.3587 56.3533C40.6228 55.7469 37.8787 53.8885 36.0179 55.1508C33.4445 56.7874 37.3368 53.3259 35.2506 54.8728C33.1371 57.45 33.8149 53.2694 31.7531 54.5224C31.6343 54.1233 29.9204 54.0132 31.2178 53.3078C30.0544 53.2336 30.7797 53.1577 31.1999 52.2141C30.7005 52.1089 27.9243 52.2086 26.834 51.2835C25.5488 49.585 27.0584 50.2747 28.3984 50.5222C26.2483 50.9058 29.1379 52.1609 30.5754 51.4648C29.9298 51.1864 29.1908 49.7687 27.4824 48.5281C25.0947 47.0678 23.1298 46.3711 20.6539 45.2047C17.9739 43.5897 21.2537 44.6319 22.1825 45.4827C24.8565 46.68 23.8041 43.8022 22.2539 43.0535C20.5546 43.1247 20.1177 41.1415 18.7564 41.2529C20.9065 41.6025 22.3993 40.688 20.0055 38.4914C17.7306 35.7936 20.9556 40.5269 19.6308 39.9175C19.0278 39.11 19.4796 37.9483 17.5549 37.5306C17.5336 38.2762 17.2911 39.4315 16.8709 37.863C16.3349 37.9558 15.7212 38.5534 15.2827 36.9385C15.6969 35.1038 13.4943 34.6849 13.1533 33.5123C15.0567 34.7468 15.9181 33.7736 14.5689 32.4247C13.6401 30.7757 13.5104 32.0688 12.9927 32.2978C11.1258 34.2345 12.8217 28.9568 11.9934 30.479C11.1589 30.4542 11.6391 31.4119 11.6543 32.5999C8.9256 31.9131 12.3169 34.0587 13.1057 35.2405C11.8601 33.9164 12.0713 36.2331 11.0298 35.1317C10.6765 34.1572 10.6272 32.6184 8.89438 32.3461C10.8648 31.6531 7.7224 30.245 7.98431 30.1708C9.11113 29.1282 9.25512 27.6952 10.6134 29.9351C8.89271 29.7928 10.5648 32.8205 10.9881 31.9171C10.9211 30.3671 11.6915 28.7403 9.09067 28.0257C8.32626 29.0714 7.00867 25.977 8.53749 26.6298C8.33649 24.5756 10.9087 25.7866 10.7443 24.8956C12.0721 24.3047 9.13683 22.3968 10.7205 21.6326C11.9326 22.3813 15.0765 20.4545 12.9629 20.1884C14.2846 20.1761 15.3448 20.7642 15.4849 19.4029C16.5539 19.638 19.4455 20.5734 16.8173 19.1008C17.6579 18.6769 19.4343 18.3186 20.4576 18.3032C20.7732 18.0537 21.0403 17.9191 21.2665 17.8741ZM21.094 20.4302C20.6936 20.5467 20.0675 22.709 20.4992 23.4817C21.4494 25.0193 22.4002 19.7025 21.6175 21.4876C21.1972 23.7615 20.7676 22.8113 21.3736 21.119C21.3371 20.5753 21.2275 20.3913 21.094 20.4302ZM7.72259 22.4423C7.87396 22.4354 8.13977 22.4477 8.54939 22.4907C10.6629 22.4164 9.98432 23.6821 8.78137 23.7657C8.75396 23.8461 7.67939 23.5038 8.12707 23.2037C11.0263 23.5773 6.66302 22.4907 7.72259 22.4423ZM13.0462 23.1916C13.2224 23.593 13.5214 24.3484 13.296 24.6841C13.8899 25.2812 15.9187 26.3438 14.2894 24.8835C15.3279 24.6732 14.1522 24.3394 13.5339 23.8382C12.8167 22.7445 12.8699 22.7902 13.0462 23.1916ZM6.15228 23.246C6.63194 23.227 7.12431 23.4772 6.19392 24.0557C5.20567 23.553 5.67262 23.2649 6.15228 23.246ZM19.6724 24.6539C19.6416 24.6094 19.6255 24.6488 19.6605 24.8654C20.0191 25.6822 19.7648 24.7873 19.6724 24.6539ZM12.4692 25.4697C12.7494 25.8811 13.5078 25.699 13.8611 26.0981C17.0527 27.4408 13.5747 25.2283 12.4692 25.4697ZM11.9696 25.7234C11.8126 25.7597 11.8408 25.9716 12.1897 26.4606C12.4089 26.9649 12.9377 27.0078 13.3793 27.1253C16.8039 28.7291 12.65 25.5664 11.9696 25.7234ZM6.07496 25.9954C6.59535 26.0816 7.22124 26.3666 6.53296 26.6419L6.2534 26.5332C5.14029 26.018 5.55456 25.9091 6.07496 25.9954ZM10.9168 26.4183C10.7608 26.4266 10.8946 26.6643 11.6186 27.3187L12.0885 27.8081C14.464 28.4694 11.3846 26.3935 10.9168 26.4183ZM10.5956 27.0649C10.4729 27.061 11.5748 28.258 11.0655 28.2372C9.30214 26.9285 10.022 27.8541 11.0179 28.8595C12.099 30.49 12.9923 27.8883 11.232 27.5604C10.8133 27.2031 10.6364 27.0662 10.5956 27.0649ZM18.0783 28.7689C18.0559 28.8436 18.052 29.0959 18.0962 29.6451C18.3908 29.9166 18.1456 28.5448 18.0783 28.7689ZM19.6367 28.9079C19.2569 28.9102 18.9716 31.6461 19.9104 32.2192C20.2971 33.3484 20.7101 32.8837 20.8502 31.6029C19.9426 31.6214 21.2237 29.5964 20.0055 29.9955C19.8989 29.2074 19.7634 28.9071 19.6367 28.9079ZM22.2599 28.9683C22.1917 28.8148 22.0278 29.1505 21.9684 30.2735V30.5938C22.2973 29.7631 22.328 29.1218 22.2599 28.9683ZM4.4749 29.0589C4.71559 29.0001 6.08747 31.8226 5.90246 32.5999C5.06192 32.3029 5.10265 30.9668 4.71283 30.2614C4.44255 29.4191 4.39468 29.0786 4.4749 29.0589ZM14.4975 29.1979C14.2752 29.826 14.9695 31.8855 15.3898 32.5878C16.4618 34.2616 15.9808 31.6725 17.1564 33.3431C16.5107 31.8767 17.46 32.675 17.3229 32.05C17.0245 31.4189 14.1336 28.0784 15.4492 30.5998C16.64 33.607 14.7016 30.222 14.4975 29.1979ZM3.90983 29.6874C4.23165 29.8981 5.09423 31.3237 5.25411 32.1165C6.60934 33.7748 6.07477 34.6883 7.47872 36.7209C5.67277 35.5639 5.33158 32.8019 4.18344 31.0167C3.71406 29.8717 3.71673 29.5609 3.90983 29.6874ZM13.8789 34.884C14.6054 35.1156 14.1663 37.5294 15.2589 37.8569C17.6983 41.09 13.5692 37.9519 12.1897 37.6394C12.3663 37.6301 10.965 37.2348 11.571 37.0956C11.1295 36.6346 10.1412 34.9605 12.3978 36.0804C14.1916 36.9931 14.3421 36.3773 13.4864 34.9263C13.6455 34.8578 13.7751 34.8509 13.8789 34.884ZM5.64669 35.3553C5.70708 35.0467 6.94924 37.0765 7.17536 37.9234C7.85755 40.1293 9.99269 41.3999 10.2089 42.8602C12.5752 44.2462 11.3609 46.5071 13.3495 47.1444C14.2327 46.6896 14.3197 49.867 16.1987 49.2049C15.1541 49.703 16.6385 50.292 17.1623 51.2171C18.347 51.0531 20.9435 53.8684 18.3579 52.8969C17.2676 52.6618 16.5231 51.5096 15.7526 50.7578C13.4655 49.2821 11.9811 46.813 10.7264 44.4494C9.10927 41.9651 7.16261 39.481 6.05711 36.5759C5.73277 35.8218 5.62656 35.4582 5.64669 35.3553ZM23.8183 37.2225C23.6977 37.2852 23.6914 37.6523 24.0443 38.4552L24.2525 38.7996C24.5399 37.8502 24.0192 37.1179 23.8183 37.2225ZM15.592 40.0625C16.265 40.2114 17.2777 40.5787 17.6857 40.6607C17.7984 41.1526 15.3788 41.0762 17.4954 42.0384C16.262 42.0044 15.8898 41.91 17.6501 43.0052C16.9587 43.5683 19.0438 44.0157 18.3281 44.8603C20.4508 46.5433 17.9449 45.2873 17.0374 44.6004C16.5014 44.223 14.317 43.473 14.6581 42.981C17.2346 44.3547 15.3123 42.9209 14.1763 42.0082C16.2533 42.5248 12.512 40.4454 14.4916 40.993C15.0794 41.1384 13.6016 39.761 15.5385 40.7634C14.5852 39.9807 14.919 39.9136 15.592 40.0625ZM28.5114 45.3376C28.246 45.2425 28.5087 46.2859 29.1002 46.9148C30.3611 48.44 29.402 46.0488 28.9634 45.8694C28.7503 45.5283 28.5998 45.3694 28.5114 45.3376ZM17.3883 46.8362C18.0903 46.8439 19.238 47.1656 19.946 47.5492C23.0524 48.2515 19.2852 49.0977 18.0426 48.1293L17.5192 48.0145C16.4335 47.139 16.6864 46.8285 17.3883 46.8362ZM21.1 47.1685C21.3583 47.1125 22.5325 47.6031 23.0331 48.0749C24.5224 48.2791 24.529 48.9702 22.8844 48.5402C22.5921 48.3577 22.1207 48.3679 21.9684 47.9843C21.121 47.4344 20.945 47.2022 21.1 47.1685ZM23.0807 47.1927C23.5505 47.1846 24.3197 47.3202 24.5618 47.6822C27.8235 48.2143 24.3554 48.4458 23.39 47.5734C22.4414 47.3522 22.611 47.2008 23.0807 47.1927ZM23.0807 49.0599C23.4333 48.9807 25.736 49.9464 24.08 49.7306L23.5982 49.5735C23.063 49.2324 22.9632 49.0863 23.0807 49.0599ZM34.0551 49.6218C34.1578 49.6585 34.2623 49.7541 34.3346 49.9421C33.4781 49.9282 33.7467 49.5118 34.0551 49.6218ZM23.0926 50.5282C23.7617 50.5939 26.3357 52.0225 24.0562 51.3681L23.7053 51.2292L23.3067 51.0418C22.8553 50.6342 22.8696 50.5063 23.0926 50.5282ZM28.6303 54.2927C28.9396 54.2427 31.4788 54.4768 29.3203 54.4559C28.6709 54.3553 28.5273 54.3094 28.6303 54.2927ZM21.8792 54.6734C22.062 54.7149 22.3518 54.8057 22.7774 54.9635C25.503 56.6743 28.6454 57.5792 31.5568 58.8972C34.115 59.2375 36.8125 59.9252 39.3311 59.3745C41.4324 60.4419 43.6119 59.0981 45.7194 60.0634C41.0629 60.9854 36.2724 59.976 31.6342 59.3202C28.7105 58.9458 26.0995 57.7131 23.4317 56.5406C23.0449 56.355 22.679 56.1227 22.3075 55.9061C20.4741 54.8728 20.7013 54.6617 22.4859 55.6765C23.1163 56.187 27.5887 58.0468 25.46 56.8185C24.6552 56.6155 20.5994 54.3829 21.8792 54.6734ZM38.8314 55.4952C39.04 55.6313 39.0472 56.0757 39.0396 56.6373C37.6387 58.2089 38.4741 55.9949 37.6061 56.8488C36.8051 57.4984 36.9952 56.4618 37.4277 56.2143C38.2119 55.5321 38.6228 55.3591 38.8314 55.4952ZM50.5076 55.9967C51.7582 56.1062 53.1887 56.3996 54.017 56.4197C53.5145 57.4933 50.4088 56.5068 49.0444 56.7883L48.4555 56.7521L48.0927 56.6916C48.1886 55.9615 49.2571 55.8873 50.5076 55.9967ZM61.2619 56.3412C64.4962 56.3381 61.4752 56.8187 59.989 56.8125C58.3018 56.4103 60.7533 56.4216 61.2619 56.3412ZM41.7817 56.7702C42.0406 56.7404 42.129 56.9478 41.3951 57.4288L41.1274 57.5134C41.0909 57.0617 41.5228 56.8 41.7817 56.7702ZM40.5504 56.9636C40.598 57.0383 40.4917 57.2523 40.0805 57.6947C38.8837 57.7736 40.4077 56.7394 40.5504 56.9636ZM28.8802 57.3019C29.1722 57.2274 32.3184 58.1492 32.7227 58.0633C35.9295 59.273 30.8084 58.4568 29.7486 57.7793C29.0047 57.4599 28.7828 57.3268 28.8802 57.3019ZM44.3751 57.459C44.382 57.5402 44.2151 57.7304 43.7446 58.0754L43.352 58.3352C42.7947 57.9431 44.3543 57.2156 44.3751 57.459Z" fill="#0059DF"/>
</svg>
