<svg width="64" height="64" viewBox="0 0 64 64" fill="none" xmlns="http://www.w3.org/2000/svg">
<path d="M44.8726 4.00426C43.8222 3.96932 42.7226 4.15049 41.6202 4.50407C39.4154 5.21122 37.105 6.58928 34.734 8.49732C33.8048 9.24508 32.8671 10.0998 31.9263 11.0068C31.0063 10.1229 30.0879 9.28845 29.1792 8.55719C26.8101 6.65068 24.5059 5.27469 22.3061 4.56915C20.1063 3.8636 17.9175 3.84174 16.1198 4.86851C14.3221 5.89528 13.2471 7.78011 12.7648 10.0176C12.2825 12.255 12.333 14.9195 12.8174 17.9025C12.9857 18.9387 13.2283 20.0257 13.5016 21.1331C12.4744 21.441 11.4768 21.7648 10.5518 22.1223C7.76018 23.2009 5.45027 24.4914 3.76819 26.027C2.08611 27.5626 1 29.4264 1 31.4728C1 33.5193 2.08611 35.3804 3.76819 36.916C5.45027 38.4516 7.76018 39.7447 10.5518 40.8234C11.5409 41.2056 12.6118 41.5497 13.7173 41.8751C13.3197 43.345 12.9975 44.7713 12.7779 46.1234C12.2932 49.1088 12.242 51.7737 12.7253 54.0162C13.2087 56.2587 14.2843 58.1542 16.0908 59.1861C17.8974 60.2179 20.096 60.1926 22.3008 59.4855C24.5056 58.7783 26.8134 57.4029 29.1844 55.4948C30.1051 54.7539 31.0364 53.9088 31.9684 53.0114C32.9049 53.9137 33.8408 54.7636 34.7656 55.5078C37.1347 57.4143 39.4415 58.7903 41.6413 59.4959C43.8411 60.2014 46.0273 60.2233 47.825 59.1965C49.6227 58.1697 50.6977 56.2849 51.18 54.0475C51.6622 51.81 51.6091 49.1455 51.1247 46.1625C50.9045 44.8067 50.5822 43.3782 50.1827 41.9037C51.3247 41.5704 52.4294 41.217 53.4482 40.8234C56.2398 39.7447 58.5497 38.4516 60.2318 36.916C61.9139 35.3804 63 33.5193 63 31.4728C63 29.4264 61.9139 27.5626 60.2318 26.027C58.5497 24.4914 56.2398 23.2009 53.4482 22.1223C52.5099 21.7597 51.497 21.4317 50.4537 21.1201C50.7292 20.0059 50.9738 18.9111 51.1431 17.8687C51.6279 14.8833 51.6791 12.2158 51.1957 9.97331C50.7124 7.73078 49.6342 5.83789 47.8276 4.80603C46.9243 4.29011 45.923 4.0392 44.8726 4.00426ZM44.7489 6.71676C45.4081 6.73459 45.9704 6.88977 46.4514 7.1645C47.4134 7.71397 48.1245 8.78337 48.5039 10.5434C48.8832 12.3034 48.8701 14.6814 48.4223 17.4392C48.269 18.3834 48.0463 19.3841 47.7934 20.4094C45.0383 19.7535 42.0195 19.2664 38.8021 18.9803C37.1857 16.7648 35.5244 14.7494 33.8498 12.9591C34.7352 12.1042 35.6148 11.3046 36.4733 10.6137C38.6636 8.85113 40.7371 7.65181 42.4675 7.09682C43.3327 6.81932 44.0898 6.69892 44.7489 6.71676ZM19.1827 6.72457C19.8456 6.70626 20.6042 6.82633 21.4719 7.10463C23.2074 7.66123 25.2845 8.86002 27.4767 10.6241C28.3178 11.301 29.1781 12.0831 30.0449 12.9175C28.3583 14.722 26.6853 16.7584 25.0585 18.9933C21.8525 19.2847 18.8444 19.7764 16.1013 20.4354C15.85 19.415 15.6304 18.4183 15.4777 17.4782C15.0295 14.7181 15.0183 12.3371 15.3988 10.572C15.7792 8.80693 16.4961 7.73206 17.467 7.17752C17.9525 6.90024 18.5197 6.74287 19.1827 6.72457ZM31.9684 14.8777C33.0658 16.0591 34.1638 17.3523 35.2524 18.7434C34.1826 18.6992 33.0997 18.6731 32 18.6731C30.8784 18.6731 29.7749 18.7001 28.6845 18.746C29.7735 17.3537 30.8707 16.0601 31.9684 14.8777ZM32 21.3648C33.8321 21.3648 35.6178 21.4392 37.3548 21.5652C38.55 23.2634 39.7179 25.065 40.8308 26.972C41.8087 28.6475 42.6936 30.3205 43.499 31.9726C42.6851 33.6467 41.7854 35.3423 40.794 37.041C39.9213 38.5363 39.01 39.9565 38.0837 41.3258C36.1217 41.488 34.0887 41.5783 32 41.5783C29.8611 41.5783 27.7824 41.4827 25.7768 41.3128C24.8659 39.9632 23.97 38.5619 23.1113 37.0905C22.1222 35.3956 21.2268 33.7057 20.4141 32.0351C21.2302 30.355 22.1296 28.6532 23.1244 26.9485C24.2315 25.0516 25.396 23.2604 26.5847 21.5704C28.3403 21.4416 30.1468 21.3648 32 21.3648ZM40.8256 21.8984C43.0455 22.1725 45.1299 22.5533 47.0698 23.0099C46.4939 24.8774 45.7846 26.828 44.9252 28.841C44.3672 27.7769 43.7893 26.7091 43.1648 25.6391C42.4085 24.3432 41.6221 23.1057 40.8256 21.8984ZM23.0323 21.9192C22.2522 23.1045 21.4845 24.3167 20.7431 25.5871C20.1106 26.6708 19.5207 27.7529 18.9564 28.8306C18.1044 26.8297 17.3993 24.8902 16.8276 23.0334C18.7538 22.5757 20.8269 22.1965 23.0323 21.9192ZM49.7353 23.718C50.6904 24.0039 51.6127 24.3022 52.4588 24.6291C55.0323 25.6235 57.0679 26.801 58.3872 28.0054C59.7066 29.2099 60.2792 30.3585 60.2792 31.4728C60.2792 32.5871 59.7066 33.7358 58.3872 34.9402C57.0679 36.1447 55.0323 37.3222 52.4588 38.3165C51.5186 38.6798 50.4856 39.0092 49.4117 39.3214C48.6456 36.9772 47.6678 34.5317 46.504 32.0351C47.8421 29.1688 48.923 26.3742 49.7353 23.718ZM14.2199 23.731C15.023 26.3606 16.0901 29.1277 17.4091 31.9648C16.2378 34.4759 15.2551 36.9354 14.4857 39.2927C13.4496 38.9888 12.4516 38.6683 11.5412 38.3165C8.96775 37.3222 6.93212 36.1447 5.61277 34.9402C4.29342 33.7358 3.72082 32.5871 3.72082 31.4728C3.72082 30.3585 4.29342 29.2099 5.61277 28.0054C6.93212 26.801 8.96775 25.6235 11.5412 24.6291C12.3742 24.3072 13.2811 24.0132 14.2199 23.731ZM32 25.3502C28.2956 25.3502 25.2637 28.3496 25.2637 32.0143C25.2637 35.679 28.2956 38.6784 32 38.6784C35.7044 38.6784 38.7363 35.679 38.7363 32.0143C38.7363 28.3496 35.7044 25.3502 32 25.3502ZM32 28.0158C34.2482 28.0158 36.0418 29.7902 36.0418 32.0143C36.0418 34.2384 34.2482 36.0127 32 36.0127C29.7518 36.0127 27.9582 34.2384 27.9582 32.0143C27.9582 29.7902 29.7518 28.0158 32 28.0158ZM44.9594 35.1641C45.666 36.8184 46.2802 38.4372 46.7961 39.9982C45.1759 40.3698 43.4507 40.683 41.636 40.9301C42.1584 40.1055 42.6743 39.2656 43.178 38.4024C43.8094 37.3205 44.3959 36.24 44.9594 35.1641ZM18.9879 35.1667C19.5545 36.2492 20.1445 37.3346 20.7799 38.4233C21.2773 39.2756 21.7852 40.1076 22.3008 40.9223C20.4915 40.6741 18.7716 40.3599 17.1565 39.9878C17.6701 38.4316 18.2846 36.8162 18.9879 35.1667ZM16.3803 42.5753C18.8186 43.1467 21.4614 43.5857 24.2638 43.8717C26.1349 46.549 28.0831 48.9535 30.0449 51.0564C29.1678 51.9024 28.2985 52.6964 27.4478 53.381C25.2575 55.1436 23.1813 56.3403 21.4509 56.8953C19.7205 57.4503 18.429 57.3771 17.467 56.8276C16.505 56.2782 15.7966 55.2088 15.4172 53.4487C15.0378 51.6887 15.0483 49.3133 15.4961 46.5556C15.6993 45.3045 16.0029 43.9648 16.3803 42.5753ZM47.575 42.5857C47.9552 43.983 48.2601 45.3289 48.4644 46.5868C48.9126 49.347 48.9238 51.7253 48.5433 53.4904C48.1629 55.2555 47.4486 56.333 46.4777 56.8875C45.5068 57.442 44.2056 57.517 42.4702 56.9604C40.7348 56.4038 38.6576 55.2024 36.4654 53.4383C35.6085 52.7488 34.7332 51.9509 33.8498 51.0981C35.8244 48.9872 37.7871 46.5697 39.6704 43.8769C42.4799 43.5928 45.1301 43.1565 47.575 42.5857ZM27.7793 44.145C29.1626 44.2196 30.5642 44.27 32 44.27C33.3884 44.27 34.7444 44.2226 36.0839 44.1528C34.7147 45.9804 33.319 47.6418 31.929 49.1379C30.5397 47.6386 29.1467 45.9742 27.7793 44.145Z" fill="#92CE91"/>
</svg>
