<svg width="64" height="64" viewBox="0 0 64 64" fill="none" xmlns="http://www.w3.org/2000/svg">
<path d="M3 3V6.22222V61H61V3H3ZM9.44444 9.44444H54.5556V54.5556H9.44444V9.44444ZM15.8889 25.5556V30.2316H22.5725V51.3333H28.0729V30.2316H34.895V25.5556H15.8889ZM43.454 25.6185C39.6381 25.8968 35.8264 27.4943 35.8264 32.7804C35.8264 40.5556 46.2986 40.5524 46.2986 44.0582C46.2986 44.39 46.445 46.8084 42.7491 46.8084C39.0532 46.8084 35.9648 44.4861 35.9648 44.4861V50.1313C35.9648 50.1313 52.0822 55.3408 52.0822 43.5862C52.0822 35.9527 41.5093 36.3338 41.5093 32.5412C41.5093 31.0719 42.5587 29.6966 45.449 29.6966C48.3393 29.6966 50.8991 31.4021 50.8991 31.4021L51.0879 26.38C51.0879 26.38 47.2699 25.3402 43.454 25.6185Z" fill="#A0E0ED"/>
</svg>
